<svg width="653" height="392" viewBox="0 0 653 392" fill="none" xmlns="http://www.w3.org/2000/svg">
<path d="M631.699 390.986H650.974" stroke="#263238" stroke-miterlimit="10"/>
<path d="M61.8633 390.986H624.202" stroke="#263238" stroke-miterlimit="10"/>
<path d="M0.376953 390.986H53.6097" stroke="#263238" stroke-miterlimit="10"/>
<g opacity="0.15">
<path d="M282.55 390.608C282.495 390.314 276.984 360.119 274.703 318.515C272.596 280.15 272.2 225.592 285.504 175.754L284.206 173.546C276.846 201.221 268.824 248.86 272.66 318.662C274.988 360.395 280.508 390.682 280.508 390.986L282.55 390.608Z" fill="black"/>
<path d="M305.247 207.882C289.809 213.559 280.581 218.996 275.668 222.437C276.248 216.355 280.333 201.939 303.931 185.065C341.321 158.329 413.911 181.137 430.84 187.016C393.671 188.571 344.247 193.548 305.247 207.882Z" fill="black"/>
<path d="M305.871 209.106C345.893 194.385 396.954 189.629 434.28 188.249L434.445 188.313C434.445 188.313 392.98 226.098 342.58 234.452C292.181 242.806 275.667 225.565 275.667 225.565C275.61 225.129 275.582 224.689 275.584 224.249C280.175 220.882 289.605 215.077 305.871 209.106Z" fill="black"/>
<path d="M252.465 230.671C263.744 238.197 270.102 244.343 273.368 248.041C274.085 243.055 273.598 230.708 257.93 212.62C233.089 183.961 170.527 188.23 155.807 189.675C185.257 198.093 223.962 211.636 252.465 230.671Z" fill="black"/>
<path d="M251.72 231.527C222.473 212.031 182.433 198.314 152.79 189.997H152.643C152.643 189.997 178.597 228.325 217.394 244.766C256.192 261.207 272.78 250.516 272.78 250.516C272.909 250.178 273.014 249.83 273.093 249.476C270.056 245.925 263.616 239.457 251.72 231.527Z" fill="black"/>
<path d="M296.34 322.499C285.061 330.025 278.713 336.171 275.437 339.878C274.729 334.883 275.216 322.536 290.884 304.448C315.725 275.789 378.287 280.067 393.008 281.503C363.557 289.967 324.852 303.464 296.34 322.499Z" fill="black"/>
<path d="M297.068 323.354C326.324 303.859 366.355 290.141 396.007 281.833H396.145C396.145 281.833 370.201 320.143 331.403 336.575C292.605 353.007 276.017 342.335 276.017 342.335C275.883 341.994 275.775 341.643 275.695 341.286C278.759 337.808 285.19 331.285 297.068 323.354Z" fill="black"/>
<path d="M244.828 294.502C259.632 301.651 268.289 307.962 272.843 311.854C272.843 305.745 270.203 290.997 248.352 271.916C213.741 241.665 139.274 257.306 121.857 261.51C158.659 266.662 207.402 276.433 244.828 294.502Z" fill="black"/>
<path d="M244.074 295.653C205.681 277.16 155.31 267.408 118.315 262.403H118.141C118.141 262.403 155.733 304.043 205.074 317.264C254.415 330.485 272.549 314.881 272.549 314.881C272.648 314.451 272.716 314.015 272.751 313.575C268.547 309.867 259.696 303.178 244.074 295.653Z" fill="black"/>
<path d="M294.169 143.039C287.628 158.118 285.19 168.551 284.288 174.476C280.286 169.876 272.668 156.995 276.753 128.235C283.193 82.7215 349.831 45.948 365.766 37.7598C341.229 65.6918 310.721 104.922 294.169 143.039Z" fill="black"/>
<path d="M295.493 143.425C312.496 104.342 344.255 64.0632 369.031 36.1219L369.188 36.0483C369.188 36.0483 367.909 92.1608 339.167 134.362C310.426 176.564 286.514 176.61 286.514 176.61C286.158 176.348 285.82 176.062 285.502 175.755C286.275 170.142 288.575 159.323 295.493 143.425Z" fill="black"/>
</g>
<g opacity="0.15">
<path d="M470.189 390.765C467.82 376.521 466.256 362.155 465.506 347.735C464.254 324.845 464.015 292.304 471.946 262.55L471.173 261.234C466.766 277.74 461.973 306.169 464.282 347.827C465.022 362.292 466.592 376.702 468.983 390.986L470.189 390.765Z" fill="black"/>
<path d="M483.732 281.687C474.532 285.072 469.012 288.32 466.086 290.363C466.436 286.738 468.846 278.135 482.95 268.061C505.27 252.108 548.585 265.724 558.687 269.23C536.523 270.196 507.009 273.167 483.732 281.687Z" fill="black"/>
<path d="M484.109 282.45C508.03 273.692 538.474 270.83 560.738 270.002H560.84C560.84 270.002 536.091 292.552 506.015 297.539C475.939 302.525 466.086 292.203 466.086 292.203C466.051 291.944 466.035 291.682 466.04 291.421C468.782 289.47 474.403 286.011 484.109 282.45Z" fill="black"/>
<path d="M452.239 295.312C456.82 298.226 461.012 301.71 464.715 305.681C465.138 302.709 464.853 295.34 455.514 284.52C440.702 267.417 403.34 269.965 394.562 270.83C412.135 275.872 435.228 283.959 452.239 295.312Z" fill="black"/>
<path d="M451.796 295.828C434.316 284.198 410.45 276.01 392.758 271.051H392.666C392.666 271.051 408.159 293.914 431.307 303.721C454.455 313.529 464.364 307.153 464.364 307.153C464.438 306.948 464.499 306.74 464.548 306.528C462.735 304.421 458.899 300.557 451.796 295.828Z" fill="black"/>
<path d="M478.424 350.118C473.845 353.035 469.653 356.519 465.948 360.487C465.525 357.506 465.819 350.137 475.148 339.326C489.961 322.223 527.323 324.771 536.1 325.636C518.537 330.678 495.435 338.728 478.424 350.118Z" fill="black"/>
<path d="M478.864 350.624C496.344 338.995 520.219 330.807 537.911 325.848H537.994C537.994 325.848 522.51 348.71 499.353 358.518C476.196 368.325 466.351 361.959 466.351 361.959C466.272 361.758 466.207 361.552 466.158 361.342C467.925 359.217 471.77 355.362 478.864 350.624Z" fill="black"/>
<path d="M447.684 333.41C456.517 337.67 461.687 341.442 464.401 343.761C464.401 340.081 462.828 331.322 449.782 319.932C429.127 301.881 384.699 311.21 374.34 313.722C396.264 316.795 425.346 322.628 447.684 333.41Z" fill="black"/>
<path d="M447.234 334.128C424.325 323.088 394.259 317.264 372.187 314.283H372.086C372.086 314.283 394.516 339.124 423.957 347.018C453.398 354.912 464.227 345.601 464.227 345.601C464.281 345.343 464.321 345.082 464.346 344.819C461.816 342.583 456.554 338.59 447.234 334.128Z" fill="black"/>
<path d="M477.126 243.045C473.225 252.043 471.771 258.272 471.228 261.805C468.836 259.045 464.291 251.344 466.729 234.204C470.593 207.054 510.339 185.102 519.852 180.217C505.232 196.869 487.007 220.275 477.126 243.045Z" fill="black"/>
<path d="M477.917 243.257C488.037 219.934 507.036 195.894 521.802 179.223H521.894C521.894 179.223 521.131 212.694 503.981 237.893C486.832 263.093 472.562 263.102 472.562 263.102C472.349 262.947 472.146 262.778 471.955 262.596C472.415 259.201 473.786 252.743 477.917 243.257Z" fill="black"/>
</g>
<g opacity="0.15">
<path d="M584.051 390.82C582.257 380.045 581.074 369.178 580.509 358.27C579.589 340.945 579.377 316.326 585.385 293.812L584.805 292.819C581.465 305.304 577.859 326.814 579.589 358.334C580.154 369.276 581.34 380.178 583.14 390.986L584.051 390.82Z" fill="black"/>
<path d="M594.299 308.367C589.59 309.981 585.104 312.186 580.949 314.927C581.207 312.167 583.047 305.681 593.71 298.063C610.592 285.992 643.392 296.287 651.009 298.937C634.237 299.599 611.908 301.844 594.299 308.367Z" fill="black"/>
<path d="M594.586 308.873C612.655 302.24 635.72 300.078 652.548 299.452H652.621C652.621 299.452 633.908 316.537 611.165 320.328C588.422 324.118 580.951 316.298 580.951 316.298C580.936 316.099 580.936 315.899 580.951 315.7C582.984 314.182 587.244 311.56 594.586 308.873Z" fill="black"/>
<path d="M570.47 318.607C573.936 320.81 577.107 323.444 579.91 326.446C580.232 324.201 580.011 318.625 572.936 310.456C561.73 297.52 533.467 299.415 526.824 300.096C540.128 303.896 557.599 310.014 570.47 318.607Z" fill="black"/>
<path d="M570.139 318.993C556.928 310.189 538.858 303.997 525.472 300.243H525.398C525.398 300.243 537.12 317.567 554.674 324.927C572.228 332.288 579.68 327.531 579.68 327.531C579.68 327.531 579.744 327.366 579.827 327.062C576.976 323.948 573.717 321.234 570.139 318.993Z" fill="black"/>
<path d="M590.279 360.064C586.815 362.268 583.646 364.906 580.849 367.911C580.527 365.657 580.748 360.082 587.813 351.912C599.029 338.976 627.292 340.872 633.934 341.553C620.631 345.352 603.15 351.47 590.279 360.064Z" fill="black"/>
<path d="M590.62 360.45C603.822 351.645 621.901 345.453 635.287 341.7H635.352C635.352 341.7 623.676 358.969 606.122 366.43C588.568 373.891 581.116 369.025 581.116 369.025C581.052 368.873 581.003 368.716 580.969 368.555C583.807 365.432 587.053 362.705 590.62 360.45Z" fill="black"/>
<path d="M567.021 347.422C571.555 349.497 575.806 352.14 579.672 355.288C579.672 352.528 578.485 345.867 568.632 337.256C552.991 323.593 519.392 330.659 511.525 332.554C528.123 334.854 550.13 339.261 567.021 347.422Z" fill="black"/>
<path d="M566.681 347.928C549.347 339.575 526.604 335.168 509.906 332.914H509.832C509.832 332.914 526.797 351.719 549.08 357.681C571.363 363.643 579.533 356.604 579.533 356.604C579.58 356.41 579.614 356.214 579.635 356.015C577.675 354.369 573.737 351.342 566.681 347.928Z" fill="black"/>
<path d="M589.304 279.036C587.22 283.56 585.72 288.33 584.842 293.232C583.001 291.153 579.597 285.32 581.437 272.357C584.354 251.813 614.43 235.206 621.624 231.508C610.566 244.121 596.774 261.832 589.304 279.036Z" fill="black"/>
<path d="M589.902 279.211C597.575 261.565 611.928 243.386 623.106 230.772H623.17C623.17 230.772 622.591 256.091 609.618 275.163C596.646 294.235 586.02 293.996 586.02 293.996C585.91 294.029 585.794 294.032 585.683 294.006C585.572 293.98 585.469 293.926 585.385 293.849C585.734 291.273 586.774 286.388 589.902 279.211Z" fill="black"/>
</g>
<g opacity="0.15">
<path d="M73.7397 390.82C75.528 380.045 76.7106 369.177 77.2818 358.27C78.2019 340.945 78.4135 316.326 72.3965 293.812L72.9853 292.819C76.325 305.304 79.9315 326.814 78.2019 358.334C77.6362 369.277 76.4474 380.178 74.6413 390.986L73.7397 390.82Z" fill="black"/>
<path d="M63.4898 308.367C68.1988 309.981 72.6843 312.186 76.8394 314.927C76.5818 312.167 74.7325 305.681 64.0786 298.063C47.1961 285.992 14.3971 296.287 6.7793 298.937C23.5422 299.599 45.8989 301.844 63.4898 308.367Z" fill="black"/>
<path d="M63.2052 308.873C45.1359 302.24 22.0708 300.078 5.24352 299.452H5.16992C5.16992 299.452 23.8741 316.537 46.6264 320.328C69.3786 324.118 76.84 316.298 76.84 316.298C76.8555 316.099 76.8555 315.899 76.84 315.7C74.8068 314.182 70.5471 311.56 63.2052 308.873Z" fill="black"/>
<path d="M87.3 318.607C83.8329 320.808 80.6608 323.442 77.8605 326.446C77.5385 324.201 77.7593 318.625 84.8344 310.456C96.0403 297.52 124.304 299.415 130.946 300.096C117.661 303.896 100.18 310.014 87.3 318.607Z" fill="black"/>
<path d="M87.6511 318.993C100.863 310.189 118.932 303.997 132.318 300.243H132.383C132.383 300.243 120.671 317.567 103.154 324.927C85.6362 332.288 78.1472 327.531 78.1472 327.531C78.1472 327.531 78.0828 327.366 78 327.062C80.8397 323.951 84.086 321.237 87.6511 318.993Z" fill="black"/>
<path d="M67.5013 360.063C70.9694 362.266 74.1416 364.904 76.9407 367.911C77.2628 365.657 77.042 360.082 69.9669 351.912C58.7794 338.976 30.4978 340.908 23.8184 341.553C37.1588 345.352 54.6393 351.47 67.5013 360.063Z" fill="black"/>
<path d="M67.1712 360.45C53.9596 351.645 35.8903 345.453 22.5039 341.7H22.4395C22.4395 341.7 34.1514 358.969 51.6687 366.43C69.186 373.891 76.6751 369.025 76.6751 369.025C76.7387 368.873 76.788 368.716 76.8223 368.555C73.9844 365.432 70.7381 362.705 67.1712 360.45Z" fill="black"/>
<path d="M90.7684 347.422C86.2284 349.495 81.9712 352.139 78.0996 355.288C78.0996 352.528 79.2864 345.867 89.1399 337.256C104.78 323.593 138.38 330.659 146.246 332.554C129.667 334.854 107.66 339.261 90.7684 347.422Z" fill="black"/>
<path d="M91.101 347.928C108.444 339.575 131.187 335.168 147.885 332.914H147.959C147.959 332.914 130.993 351.719 108.71 357.681C86.4273 363.643 78.2483 356.604 78.2483 356.604C78.2026 356.411 78.1718 356.214 78.1562 356.015C82.0899 352.753 86.4437 350.033 91.101 347.928Z" fill="black"/>
<path d="M68.4866 279.036C70.5705 283.56 72.0699 288.33 72.9487 293.232C74.7888 291.153 78.1929 285.32 76.3528 272.357C73.4271 251.813 43.3606 235.206 36.166 231.508C47.2247 244.121 61.016 261.832 68.4866 279.036Z" fill="black"/>
<path d="M67.8873 279.211C60.2143 261.565 45.8987 243.386 34.6835 230.772H34.6191C34.6191 230.772 35.1896 256.091 48.1711 275.163C61.1527 294.235 71.9447 294.199 71.9447 294.199C72.1045 294.081 72.2552 293.952 72.3955 293.812C72.0551 291.273 71.0154 286.388 67.8873 279.211Z" fill="black"/>
</g>
<path d="M549.891 114.867H485.443V390.986H549.891V114.867Z" fill="#263238" stroke="#263238" stroke-miterlimit="10"/>
<path d="M569.561 114.867H505.113V390.986H569.561V114.867Z" fill="white" stroke="#263238" stroke-miterlimit="10"/>
<path d="M404.712 210.522H340.264V390.986H404.712V210.522Z" fill="#263238" stroke="#263238" stroke-miterlimit="10"/>
<path d="M424.382 210.522H359.934V390.986H424.382V210.522Z" fill="white" stroke="#263238" stroke-miterlimit="10"/>
<path d="M254.102 264.795H189.654V390.977H254.102V264.795Z" fill="#263238" stroke="#263238" stroke-miterlimit="10"/>
<path d="M273.772 264.795H209.324V390.977H273.772V264.795Z" fill="white" stroke="#263238" stroke-miterlimit="10"/>
<path d="M286.275 390.986V298.523" stroke="#263238" stroke-width="4" stroke-miterlimit="10"/>
<path d="M286.276 302.35L278.585 307.024L278.41 306.767L283.388 294.227C284.357 289.86 285.32 285.489 286.276 281.116C287.233 285.489 288.193 289.86 289.156 294.227L294.143 306.767L294.005 307.024L286.276 302.35Z" fill="#263238"/>
<path d="M307.068 390.986V298.523" stroke="#263238" stroke-width="4" stroke-miterlimit="10"/>
<path d="M307.069 302.35L299.378 307.024L299.203 306.767L304.18 294.227C305.143 289.86 306.106 285.489 307.069 281.116C308.026 285.489 308.986 289.86 309.949 294.227L314.926 306.767L314.798 307.024L307.069 302.35Z" fill="#263238"/>
<path d="M327.852 390.986V298.523" stroke="#263238" stroke-width="4" stroke-miterlimit="10"/>
<path d="M327.853 302.35L320.171 307.024L319.996 306.767L324.973 294.227C325.93 289.86 326.89 285.489 327.853 281.116C328.816 285.489 329.779 289.86 330.742 294.227L335.71 306.767L335.581 307.024L327.853 302.35Z" fill="#263238"/>
<path d="M348.645 390.986V298.523" stroke="white" stroke-width="4" stroke-miterlimit="10"/>
<path d="M348.646 302.35L340.954 307.024L340.779 306.767L345.766 294.227C346.723 289.86 347.683 285.489 348.646 281.116C349.608 285.489 350.571 289.86 351.534 294.227L356.512 306.767L356.383 307.024L348.646 302.35Z" fill="white"/>
<path d="M432.156 390.986V251.592" stroke="#263238" stroke-width="4" stroke-miterlimit="10"/>
<path d="M432.155 255.42L424.464 260.103L424.289 259.836L429.266 247.296C430.229 242.929 431.192 238.559 432.155 234.186C433.112 238.559 434.072 242.929 435.035 247.296L440.022 259.836L439.884 260.103L432.155 255.42Z" fill="#263238"/>
<path d="M452.949 390.986V251.592" stroke="#263238" stroke-width="4" stroke-miterlimit="10"/>
<path d="M452.948 255.42L445.257 260.103L445.082 259.836L450.059 247.296C451.022 242.929 451.985 238.559 452.948 234.186C453.905 238.559 454.865 242.929 455.828 247.296L460.833 259.836L460.695 260.103L452.948 255.42Z" fill="#263238"/>
<path d="M473.742 390.986V251.592" stroke="#263238" stroke-width="4" stroke-miterlimit="10"/>
<path d="M473.714 255.42L466.022 260.103L465.848 259.836L470.825 247.296C471.794 242.929 472.757 238.559 473.714 234.186C474.671 238.559 475.631 242.929 476.594 247.296L481.571 259.836L481.442 260.103L473.714 255.42Z" fill="#263238"/>
<path d="M494.525 390.986V251.592" stroke="white" stroke-width="4" stroke-miterlimit="10"/>
<path d="M494.525 255.42L486.834 260.103L486.668 259.836L491.645 247.296C492.602 242.929 493.562 238.559 494.525 234.186C495.488 238.559 496.451 242.929 497.414 247.296L502.391 259.836L502.262 260.103L494.525 255.42Z" fill="white"/>
<path d="M300.37 67.3205C300.37 67.3205 296.8 50.76 284.334 46.5555C271.867 42.351 268.895 50.76 265.335 55.4706C261.774 60.1811 256.429 53.0877 248.71 55.4706C240.991 57.8534 243.954 64.3764 239.206 66.7501C234.459 69.1238 226.142 63.7784 220.806 67.9369C215.469 72.0955 214.273 75.656 214.273 75.656H327.087C327.087 75.656 309.275 59.0403 300.37 67.3205Z" fill="white" stroke="#263238" stroke-miterlimit="10"/>
<path d="M502.813 153.564C502.813 153.564 499.252 136.939 486.777 132.79C474.301 128.64 471.339 136.939 467.778 141.696C464.218 146.452 458.872 139.322 451.153 141.696C443.434 144.069 446.406 150.601 441.65 152.975C436.893 155.349 428.585 150.003 423.249 154.162C417.913 158.321 416.717 161.881 416.717 161.881H529.531C529.531 161.881 511.719 145.256 502.813 153.564Z" fill="white" stroke="#263238" stroke-miterlimit="10"/>
<path d="M137.037 133.737C137.037 133.737 134.728 122.945 126.632 120.25C118.535 117.554 116.603 122.945 114.294 126.027C111.985 129.109 108.507 124.491 103.502 126.027C98.4971 127.564 100.411 131.814 97.3286 133.388C94.2465 134.961 88.846 131.456 85.3683 134.151C81.8906 136.847 81.127 139.165 81.127 139.165H154.38C154.38 139.165 142.824 128.346 137.037 133.737Z" fill="white" stroke="#263238" stroke-miterlimit="10"/>
<path d="M87.733 349.208C87.733 349.208 83.6297 350.459 80.9524 350.128C78.2751 349.796 75.9567 349.769 75.4323 352.087C74.9078 354.406 75.4323 356.687 74.8986 358.159C74.365 359.631 72.5802 361.545 72.9298 364.222C73.2794 366.9 74.181 373.137 75.7911 372.245C77.4011 371.353 79.5356 363.689 80.3912 362.125C81.2468 360.561 83.6849 356.835 85.4698 356.052C86.619 355.644 87.829 355.432 89.0487 355.427L87.733 349.208Z" fill="white" stroke="#263238" stroke-miterlimit="10"/>
<path d="M76.839 362.649C77.7247 360.272 78.3419 357.803 78.6791 355.289C78.9164 353.464 79.4575 351.691 80.2799 350.045C77.8787 349.778 75.873 349.944 75.3854 352.078C74.8518 354.396 75.3854 356.678 74.8518 358.15C74.3181 359.622 72.5333 361.536 72.8829 364.213C73.2325 366.89 74.1341 373.128 75.7442 372.236C76.9494 371.564 78.5043 367.047 79.5163 364.167L76.839 362.649Z" fill="#263238" stroke="#263238" stroke-miterlimit="10"/>
<path d="M133.044 289.801C132.869 275.532 127.689 271.603 127.689 271.603C102.719 274.814 97.8985 267.325 97.8985 267.325L94.8716 269.644C89.6918 275.164 87.1985 283.021 86.3061 291.945C85.4137 300.869 96.2976 330.651 96.2976 330.651C96.2976 330.651 91.6975 339.575 88.091 346.53C84.4845 353.486 86.3061 369.007 85.0549 373.11C83.8036 377.213 80.5927 379.716 81.3104 383.285C82.028 386.855 81.844 390.066 84.5213 390.416C87.1986 390.765 91.1179 391.492 92.1943 390.416C93.2707 389.339 91.1179 387.738 90.4094 384.712C89.701 381.685 89.1582 377.038 89.1582 377.038L103.069 350.275C103.069 350.275 130.55 336.189 131.259 334.754C131.967 333.319 133.228 304.071 133.044 289.801ZM113.245 330.283L110.742 295.671L112.886 295.487L117.164 328.314L113.245 330.283Z" fill="#263238" stroke="#263238" stroke-miterlimit="10"/>
<path d="M85.9013 356.807C85.4229 363.441 85.8369 370.534 85.0549 373.11C83.8036 377.213 80.5927 379.716 81.3104 383.286C82.028 386.855 81.844 390.066 84.5213 390.416C87.1986 390.765 91.1179 391.492 92.1943 390.416C93.2707 389.339 91.1179 387.738 90.4094 384.712C89.701 381.685 89.1582 377.039 89.1582 377.039L97.7605 360.478C91.3479 362.143 87.631 358.969 85.9013 356.807Z" fill="white" stroke="#263238" stroke-miterlimit="10"/>
<path d="M92.1959 390.415C93.2631 389.348 91.1194 387.738 90.411 384.711L84.6976 385.07C84.6976 385.07 83.52 381.39 82.7196 377.921C81.7167 379.679 80.8795 381.316 81.3119 383.285C82.0204 386.855 81.8456 390.066 84.5228 390.415C87.2001 390.765 91.1194 391.492 92.1959 390.415Z" fill="#263238" stroke="#263238" stroke-miterlimit="10"/>
<path d="M112.712 332.086L105.039 347.423" stroke="white" stroke-miterlimit="10"/>
<path d="M136.614 251.804C136.614 251.804 136.614 255.549 134.829 257.867C133.044 260.186 128.941 262.145 128.941 262.145L127.69 271.567C127.69 271.567 124.837 273.673 118.057 274.06C111.276 274.446 104.68 271.208 104.68 271.208L109.142 232.925C109.142 232.925 117.707 229.899 123.053 228.463C128.398 227.028 135.547 228.822 135.547 228.822C135.547 228.822 136.614 243.414 136.614 251.804Z" fill="white" stroke="#263238" stroke-miterlimit="10"/>
<path d="M135.548 228.785C135.548 228.785 128.408 227 123.054 228.427C117.699 229.853 109.143 232.925 109.143 232.925L108.416 239.172C113.542 242.53 119.615 244.143 125.731 243.773C129.464 243.569 133.085 242.423 136.256 240.442C135.943 234.269 135.548 228.785 135.548 228.785Z" stroke="#263238" stroke-miterlimit="10"/>
<path d="M133.476 228.546C133.476 228.546 154.214 226.347 158.363 225.786C162.512 225.225 167.959 224.231 167.959 224.231L176.865 228.408C177.239 230.134 176.929 231.938 176 233.44C174.445 235.685 140.735 245.806 140.735 245.806C140.735 245.806 139.742 282.864 139.742 285.367C139.742 287.869 139.87 288.219 138.316 289.516C136.761 290.813 128.195 294.567 128.195 294.567C128.195 294.567 132.473 278.007 133.642 270.591C134.81 263.176 135.583 238.694 135.068 234.416C134.553 230.138 133.476 228.546 133.476 228.546Z" fill="#FFC000" stroke="#263238" stroke-miterlimit="10"/>
<path d="M142.162 232.566L140.736 245.787L145.787 233.21" stroke="#263238" stroke-miterlimit="10"/>
<path d="M135.031 234.379C135.547 238.657 134.774 263.157 133.605 270.554C133.449 271.52 133.246 272.652 132.998 273.885H133.09C136.209 265.936 138.002 257.528 138.399 248.998C138.761 242.014 138.453 235.011 137.479 228.086L133.458 228.509C133.458 228.509 134.516 230.101 135.031 234.379Z" fill="#FFC000" stroke="#263238" stroke-miterlimit="10"/>
<path d="M119.345 234.02L121.268 225.97C121.268 225.97 119.704 225.123 117.781 224.047C115.858 222.97 111.893 218.757 113.816 211.424C115.738 204.091 120.431 203.015 120.431 203.015C120.431 203.015 127.036 199.776 133.311 201.819C139.586 203.861 140.285 207.459 140.524 208.425C140.763 209.391 139.797 211.553 140.285 211.912C140.772 212.27 145.446 214.193 145.087 215.27C144.575 216.349 143.929 217.36 143.164 218.278C143.164 218.278 142.686 225.491 141.72 226.448C140.754 227.405 135.593 227.653 135.593 227.653L131.269 236.66" fill="white"/>
<path d="M119.345 234.02L121.268 225.97C121.268 225.97 119.704 225.123 117.781 224.047C115.858 222.97 111.893 218.757 113.816 211.424C115.738 204.091 120.431 203.015 120.431 203.015C120.431 203.015 127.036 199.776 133.311 201.819C139.586 203.861 140.285 207.459 140.524 208.425C140.763 209.391 139.797 211.553 140.285 211.912C140.772 212.27 145.446 214.193 145.087 215.27C144.575 216.349 143.929 217.36 143.164 218.278C143.164 218.278 142.686 225.491 141.72 226.448C140.754 227.405 135.593 227.653 135.593 227.653L131.269 236.66" stroke="#263238" stroke-miterlimit="10"/>
<path d="M130.763 203.374C132.437 202.884 134.191 202.734 135.924 202.932C135.081 202.479 134.197 202.107 133.284 201.819C127.037 199.776 120.403 203.015 120.403 203.015C120.403 203.015 115.711 204.101 113.788 211.424C111.865 218.747 115.831 222.961 117.754 224.047C118.894 224.691 119.897 225.243 120.514 225.583C121.379 223.743 122.529 221.139 123.384 218.757C124.019 216.99 126.365 219.244 127.349 217.312C127.57 216.88 127.202 214.359 127.414 213.936C128.555 211.636 129.456 209.565 129.254 208.305C128.96 205.784 126.319 204.699 130.763 203.374Z" fill="#263238" stroke="#263238" stroke-miterlimit="10"/>
<path d="M125.942 219.355C125.942 219.355 123.302 215.518 121.14 217.441C118.978 219.364 120.901 223.569 124.986 223.081" fill="white"/>
<path d="M125.942 219.355C125.942 219.355 123.302 215.518 121.14 217.441C118.978 219.364 120.901 223.569 124.986 223.081" stroke="#263238" stroke-miterlimit="10"/>
<path d="M116.097 206.143C116.097 206.143 112.251 202.178 109.372 201.451C106.492 200.724 102.886 200.531 100.723 205.177C98.5614 209.823 99.2606 213.605 102.021 215.518C104.781 217.432 107.191 217.68 109.473 216.236C111.306 215.032 112.795 213.375 113.797 211.424C114.423 210.228 116.097 206.143 116.097 206.143Z" fill="#263238" stroke="#263238" stroke-miterlimit="10"/>
<path d="M137.967 211.967C137.967 212.795 137.617 213.476 137.194 213.476C136.771 213.476 136.412 212.795 136.412 211.967C136.412 211.139 136.762 210.467 137.194 210.467C137.627 210.467 137.967 211.139 137.967 211.967Z" fill="#263238"/>
<path d="M135.207 209.143C135.207 209.143 137.608 208.305 138.694 209.143" stroke="#263238" stroke-miterlimit="10"/>
<path d="M139.41 220.201C140.15 220.124 140.897 220.248 141.572 220.56" stroke="#263238" stroke-miterlimit="10"/>
<path d="M135.566 227.654L131.361 226.807L133.643 231.26L135.566 227.654Z" fill="#263238" stroke="#263238" stroke-miterlimit="10"/>
<path d="M120.789 228.436C120.789 228.436 97.1072 235.538 96.5552 236.817C96.0032 238.096 91.955 265.227 91.8262 266.874C91.6974 268.521 85.4597 277.252 86.3797 280.169C87.2997 283.085 94.0251 291.099 97.8524 293.463C99.8958 294.761 102.026 295.917 104.228 296.922C104.228 296.922 110.42 277.602 114.063 265.411C117.707 253.221 120.789 228.436 120.789 228.436Z" fill="#FFC000" stroke="#263238" stroke-miterlimit="10"/>
<path d="M120.79 228.436C120.79 228.436 117.11 229.54 112.62 230.956C112.178 238.629 110.982 260.397 111.13 265.779C111.212 268.54 111.249 271.732 111.277 274.492C112.261 271.309 113.218 268.181 114.037 265.411C117.662 253.212 120.79 228.436 120.79 228.436Z" fill="#FFC000" stroke="#263238" stroke-miterlimit="10"/>
<path d="M167.343 232.309C164.224 227.902 163.589 218.674 161.114 214.543C158.639 210.412 155.594 209.575 155.594 209.575L154.288 209.216C153.397 209.417 152.473 209.417 151.583 209.216C150.396 208.867 147.332 207.799 147.332 207.799C147.332 207.799 145.097 208.158 144.269 207.569C143.441 206.98 145.805 206.861 144.618 206.502C143.431 206.143 138.721 205.913 137.782 204.975C136.844 204.036 141.794 203.788 141.794 203.788C143.471 203.262 145.226 203.022 146.983 203.08C149.218 203.319 155.594 204.266 156.772 204.377C157.949 204.487 161.602 207.799 161.602 207.799C161.602 207.799 171.161 217.708 173.516 221.361C175.872 225.013 176.819 227.497 176.939 228.445C177.008 228.951 177.048 229.461 177.058 229.972" fill="white"/>
<path d="M167.343 232.309C164.224 227.902 163.589 218.674 161.114 214.543C158.639 210.412 155.594 209.575 155.594 209.575L154.288 209.216C153.397 209.417 152.473 209.417 151.583 209.216C150.396 208.867 147.332 207.799 147.332 207.799C147.332 207.799 145.097 208.158 144.269 207.569C143.441 206.98 145.805 206.861 144.618 206.502C143.431 206.143 138.721 205.913 137.782 204.975C136.844 204.036 141.794 203.788 141.794 203.788C143.471 203.262 145.226 203.022 146.983 203.08C149.218 203.319 155.594 204.266 156.772 204.377C157.949 204.487 161.602 207.799 161.602 207.799C161.602 207.799 171.161 217.708 173.516 221.361C175.872 225.013 176.819 227.497 176.939 228.445C177.008 228.951 177.048 229.461 177.058 229.972" stroke="#263238" stroke-miterlimit="10"/>
<path d="M168.172 234.342C166.332 233.661 163.894 227.58 162.762 224.654C161.63 221.728 157.361 213.614 157.361 213.614L163.443 208.655L174.925 222.842C176.302 224.217 177.162 226.026 177.359 227.963C177.555 229.899 177.075 231.844 176.001 233.468" fill="#FFC000"/>
<path d="M168.172 234.342C166.332 233.661 163.894 227.58 162.762 224.654C161.63 221.728 157.361 213.614 157.361 213.614L163.443 208.655L174.925 222.842C176.302 224.217 177.162 226.026 177.359 227.963C177.555 229.899 177.075 231.844 176.001 233.468" stroke="#263238" stroke-miterlimit="10"/>
<path d="M143.727 203.678C143.727 203.678 142.429 204.736 145.567 205.085C146.893 205.296 148.236 205.376 149.578 205.325C150.8 206.731 152.459 207.686 154.289 208.039" stroke="#263238" stroke-miterlimit="10"/>
<path d="M72.931 299.353L71.2676 305.889L73.131 306.363L74.7945 299.828L72.931 299.353Z" fill="#263238" stroke="#263238" stroke-miterlimit="10"/>
<path d="M63.37 295.08L61.4277 300.998L63.2547 301.597L65.197 295.679L63.37 295.08Z" fill="#263238" stroke="#263238" stroke-miterlimit="10"/>
<path d="M74.1897 300.161C74.0063 300.16 73.8249 300.122 73.6561 300.051L63.9038 295.727C63.5866 295.586 63.3381 295.326 63.213 295.002C63.0879 294.679 63.0965 294.319 63.2368 294.001C63.3771 293.684 63.6376 293.436 63.9612 293.311C64.2847 293.186 64.6446 293.194 64.9618 293.334L74.7141 297.668C74.9922 297.784 75.2209 297.994 75.361 298.261C75.5011 298.528 75.5438 298.836 75.4817 299.131C75.4197 299.426 75.2567 299.69 75.0209 299.878C74.7851 300.066 74.4912 300.166 74.1897 300.161Z" fill="#263238" stroke="#263238" stroke-miterlimit="10"/>
<path d="M53.1031 294.217L82.176 308.818L78.3395 343.154L73.7118 343.954L42.0996 326.713L53.1031 294.217Z" fill="#B2B2B2" stroke="#263238" stroke-miterlimit="10"/>
<path d="M82.1752 308.818L73.7109 343.954L78.3387 343.154L82.1752 308.818Z" fill="#B2B2B2" stroke="#263238" stroke-miterlimit="10"/>
<path d="M53.1035 294.217C53.1035 294.217 57.6208 318.865 63.3158 318.57C67.7228 318.34 82.1764 308.818 82.1764 308.818" stroke="#263238" stroke-miterlimit="10"/>
<path d="M60.7568 315.13L59.1836 320.632L61.5389 322.104L63.4065 316.409L60.7568 315.13Z" fill="white" stroke="#263238" stroke-miterlimit="10"/>
<path d="M74.705 291.632L72.7822 302.148C72.7822 302.148 71.5493 303.114 70.6753 302.848C69.8013 302.581 69.4517 301.099 69.4517 301.099C69.4517 301.099 64.6307 299.867 64.2811 297.594C63.9315 295.322 68.4212 288.725 68.4212 288.725L74.705 291.632Z" fill="white" stroke="#263238" stroke-miterlimit="10"/>
<path d="M96.5565 236.817L76.3159 261.409L67.9805 288.725L75.2671 291.945L86.7398 268.512L103.503 253.939C103.982 252.986 104.261 251.945 104.323 250.88C104.385 249.815 104.228 248.749 103.862 247.747" fill="#FFC000"/>
<path d="M96.5565 236.817L76.3159 261.409L67.9805 288.725L75.2671 291.945L86.7398 268.512L103.503 253.939C103.982 252.986 104.261 251.945 104.323 250.88C104.385 249.815 104.228 248.749 103.862 247.747" stroke="#263238" stroke-miterlimit="10"/>
<path d="M530.405 68.1025H522.943V114.251H530.405V68.1025Z" fill="#FFC000" stroke="#263238" stroke-miterlimit="10"/>
<path d="M511.259 67.4766C502.206 67.4766 495.094 64.6613 490.099 59.1227C481.101 49.0944 482.637 33.8496 482.738 33.2055C482.813 32.5273 483.137 31.901 483.647 31.4473C484.156 30.9937 484.816 30.7449 485.498 30.7491H509.916V36.2692H490.982C490.603 36.2684 490.229 36.3454 489.881 36.4955C489.534 36.6455 489.221 36.8655 488.962 37.1416C488.703 37.4177 488.504 37.7441 488.377 38.1005C488.249 38.4569 488.197 38.8357 488.222 39.2133C488.562 43.8687 489.869 50.5849 494.248 55.461C498.13 59.7667 503.853 61.9564 511.259 61.9564V67.4766Z" fill="#FFC000" stroke="#263238" stroke-miterlimit="10"/>
<path d="M542.1 67.4766C551.153 67.4766 558.264 64.6613 563.26 59.1227C572.258 49.0944 570.722 33.8496 570.62 33.2055C570.545 32.5273 570.222 31.901 569.712 31.4473C569.202 30.9937 568.543 30.7449 567.86 30.7491H543.452V36.2692H562.377C562.755 36.2684 563.13 36.3454 563.478 36.4955C563.825 36.6455 564.138 36.8655 564.397 37.1416C564.656 37.4177 564.855 37.7441 564.982 38.1005C565.11 38.4569 565.162 38.8357 565.137 39.2133C564.806 43.8687 563.499 50.5849 559.111 55.461C555.238 59.7667 549.515 61.9564 542.109 61.9564L542.1 67.4766Z" fill="#FFC000" stroke="#263238" stroke-miterlimit="10"/>
<path d="M505.832 25.3672H547.233V57.0069C547.233 62.4702 545.063 67.7098 541.2 71.5729C537.337 75.4361 532.097 77.6063 526.634 77.6063H526.441C520.977 77.6063 515.738 75.4361 511.875 71.5729C508.012 67.7098 505.841 62.4702 505.841 57.0069V25.3672H505.832Z" fill="#FFC000" stroke="#263238" stroke-miterlimit="10"/>
<path d="M543.212 25.3672V56.0041C543.212 66.6304 534.628 75.3247 523.809 75.9135C524.201 75.9135 524.597 75.9135 524.995 75.9135C536.376 75.9135 545.595 66.9892 545.595 55.9765V25.3672H543.212Z" fill="#263238"/>
<path d="M509.953 25.3672V55.8293C509.953 66.3912 517.561 75.0211 527.148 75.6191C526.798 75.6191 526.449 75.6191 526.09 75.6191C516.016 75.6191 507.846 66.7408 507.846 55.7925V25.3672H509.953Z" fill="white"/>
<path d="M547.215 25.3672H505.832V34.4295H547.215V25.3672Z" fill="#FFC000" stroke="#263238" stroke-miterlimit="10"/>
<path d="M530.809 87.6162H522.833C521.75 87.6162 520.873 88.4936 520.873 89.5759V97.9021C520.873 98.9844 521.75 99.8618 522.833 99.8618H530.809C531.892 99.8618 532.769 98.9844 532.769 97.9021V89.5759C532.769 88.4936 531.892 87.6162 530.809 87.6162Z" fill="#FFC000" stroke="#263238" stroke-miterlimit="10"/>
<path d="M550.508 114.794C549.994 113.392 549.062 112.181 547.838 111.326C546.614 110.47 545.157 110.011 543.663 110.01H509.972C508.479 110.011 507.021 110.47 505.797 111.326C504.573 112.181 503.641 113.392 503.127 114.794H550.508Z" fill="#FFC000" stroke="#263238" stroke-miterlimit="10"/>
<path d="M513.173 29.8753C513.174 29.527 513.073 29.186 512.88 28.8956C512.688 28.6052 512.414 28.3786 512.092 28.2444C511.771 28.1103 511.417 28.0747 511.075 28.1422C510.733 28.2097 510.419 28.3773 510.173 28.6236C509.927 28.8699 509.759 29.1838 509.692 29.5256C509.624 29.8673 509.66 30.2214 509.794 30.5428C509.928 30.8643 510.155 31.1387 510.445 31.3311C510.735 31.5234 511.076 31.6252 511.425 31.6234C511.888 31.6234 512.333 31.4392 512.661 31.1114C512.988 30.7836 513.173 30.3389 513.173 29.8753Z" fill="#FFC000" stroke="#263238" stroke-miterlimit="10"/>
<path d="M520.874 29.8753C520.876 29.5274 520.774 29.1868 520.582 28.8966C520.39 28.6064 520.116 28.3797 519.795 28.2453C519.475 28.1109 519.121 28.0748 518.779 28.1415C518.438 28.2083 518.124 28.3749 517.877 28.6203C517.631 28.8657 517.462 29.1788 517.394 29.5199C517.325 29.861 517.36 30.2148 517.492 30.5365C517.625 30.8581 517.85 31.1331 518.139 31.3266C518.429 31.5201 518.769 31.6234 519.117 31.6234C519.581 31.6234 520.027 31.4395 520.356 31.112C520.685 30.7844 520.871 30.3398 520.874 29.8753Z" fill="#FFC000" stroke="#263238" stroke-miterlimit="10"/>
<path d="M528.564 29.875C528.564 29.5293 528.462 29.1913 528.27 28.9038C528.078 28.6164 527.805 28.3923 527.485 28.26C527.166 28.1277 526.814 28.0931 526.475 28.1605C526.136 28.228 525.825 28.3945 525.58 28.6389C525.336 28.8834 525.169 29.1949 525.102 29.534C525.035 29.8731 525.069 30.2245 525.201 30.544C525.334 30.8634 525.558 31.1364 525.845 31.3285C526.133 31.5205 526.471 31.6231 526.816 31.6231C527.28 31.6231 527.725 31.4389 528.052 31.1111C528.38 30.7832 528.564 30.3386 528.564 29.875Z" fill="#FFC000" stroke="#263238" stroke-miterlimit="10"/>
<path d="M536.275 29.875C536.275 29.5293 536.173 29.1913 535.981 28.9038C535.789 28.6164 535.516 28.3923 535.196 28.26C534.877 28.1277 534.525 28.0931 534.186 28.1605C533.847 28.228 533.536 28.3945 533.291 28.6389C533.047 28.8834 532.88 29.1949 532.813 29.534C532.745 29.8731 532.78 30.2245 532.912 30.544C533.045 30.8634 533.269 31.1364 533.556 31.3285C533.844 31.5205 534.182 31.6231 534.527 31.6231C534.991 31.6231 535.436 31.4389 535.763 31.1111C536.091 30.7832 536.275 30.3386 536.275 29.875Z" fill="#FFC000" stroke="#263238" stroke-miterlimit="10"/>
<path d="M543.966 29.8753C543.967 29.527 543.866 29.186 543.673 28.8956C543.481 28.6052 543.207 28.3786 542.885 28.2444C542.564 28.1103 542.21 28.0747 541.868 28.1422C541.526 28.2097 541.212 28.3773 540.966 28.6236C540.72 28.8699 540.552 29.1838 540.484 29.5256C540.417 29.8673 540.453 30.2214 540.587 30.5428C540.721 30.8643 540.948 31.1387 541.238 31.3311C541.528 31.5234 541.869 31.6252 542.218 31.6234C542.681 31.6234 543.126 31.4392 543.454 31.1114C543.782 30.7836 543.966 30.3389 543.966 29.8753Z" fill="#FFC000" stroke="#263238" stroke-miterlimit="10"/>
<path d="M539.391 55.8451C541.221 48.7134 536.923 41.4488 529.791 39.619C522.659 37.7893 515.395 42.0873 513.565 49.2189C511.735 56.3505 516.033 63.6152 523.165 65.4449C530.297 67.2747 537.561 62.9767 539.391 55.8451Z" fill="#263238" stroke="#263238" stroke-miterlimit="10"/>
<path d="M529.099 59.6197H526.339V49.3982C525.336 50.3322 524.139 51.0328 522.834 51.4499V48.9842C523.705 48.6901 524.518 48.2447 525.235 47.6685C526.014 47.0969 526.609 46.3103 526.946 45.4053H529.145L529.099 59.6197Z" fill="white"/>
<path d="M527.057 0.811523V16.8476" stroke="#263238" stroke-miterlimit="10"/>
<path d="M458.238 49.582H474.274" stroke="#263238" stroke-miterlimit="10"/>
<path d="M493.521 81.7923L495.978 79.3267" stroke="#263238" stroke-miterlimit="10"/>
<path d="M484.635 90.6707L491.13 84.1753" stroke="#263238" stroke-miterlimit="10"/>
<path d="M569.378 86.5581L562.146 79.3267" stroke="#263238" stroke-miterlimit="10"/>
<path d="M573.48 90.6706L571.41 88.6006" stroke="#263238" stroke-miterlimit="10"/>
<path d="M493.871 21.0796L495.978 23.1865" stroke="#263238" stroke-miterlimit="10"/>
<path d="M484.635 11.8428L491.691 18.8994" stroke="#263238" stroke-miterlimit="10"/>
<path d="M573.481 11.8428L562.146 23.1867" stroke="#263238" stroke-miterlimit="10"/>
<path d="M590.75 49.582H593.869" stroke="#263238" stroke-miterlimit="10"/>
<path d="M577.832 49.582H587.63" stroke="#263238" stroke-miterlimit="10"/>
</svg>
