<svg width="639" height="738" viewBox="0 0 639 738" fill="none" xmlns="http://www.w3.org/2000/svg">
<path d="M132.649 695.617C238.655 750.992 410.522 750.992 516.528 695.617C622.534 640.242 622.551 550.448 516.528 495.073C410.506 439.698 238.655 439.681 132.649 495.073C26.6424 550.464 26.6752 640.275 132.649 695.617Z" fill="#FAFAFA"/>
<path d="M380.748 567.346C350.337 581.857 301.031 581.857 270.619 567.346C240.208 552.836 240.192 529.361 270.619 514.85C301.047 500.34 350.337 500.356 380.748 514.85C411.159 529.344 411.11 552.852 380.748 567.346Z" fill="#F0F0F0"/>
<path d="M462.494 629.723C485.118 640.52 521.811 640.52 544.436 629.723C567.06 618.926 567.06 601.455 544.436 590.674C521.811 579.894 485.118 579.894 462.494 590.674C439.869 601.455 439.869 618.943 462.494 629.723Z" fill="#F0F0F0"/>
<path d="M103.661 631.604C125.843 642.172 161.8 642.172 183.983 631.604C206.166 621.037 206.166 603.892 183.983 593.308C161.8 582.724 125.843 582.74 103.661 593.308C81.4777 603.876 81.4777 621.037 103.661 631.604Z" fill="#F0F0F0"/>
<path d="M559.568 121.008L565.834 123.429V109.606C565.834 98.6453 574.586 96.0279 584.074 101.426C593.562 106.89 601.251 120.223 601.251 131.167V133.179C602.585 132.769 603.995 132.666 605.375 132.878C606.755 133.091 608.069 133.613 609.218 134.406C612.816 136.753 615.811 139.915 617.959 143.636C620.108 147.356 621.35 151.53 621.585 155.82V156.736L630.321 161.775C632.698 163.315 634.678 165.396 636.099 167.846C637.52 170.296 638.343 173.048 638.5 175.876C638.5 181.078 634.852 183.172 630.321 180.587L559.568 139.69C557.193 138.151 555.215 136.073 553.794 133.626C552.372 131.179 551.548 128.43 551.389 125.605C551.421 120.517 555.069 118.423 559.568 121.008Z" fill="#F0F0F0"/>
<path d="M85.4685 120.599L70.9908 128.958C71.0751 128.324 71.1188 127.685 71.1217 127.044V122.856C71.1217 115.397 65.8705 112.37 59.4087 116.1C56.6284 117.806 54.2509 120.094 52.4397 122.807C51.3764 113.417 44.0149 109.917 35.0829 115.086C25.3984 120.664 17.5624 134.242 17.5624 145.416V151.681C17.5006 154.189 18.0097 156.678 19.0511 158.961L7.04359 165.897C5.14571 167.123 3.56399 168.78 2.42698 170.733C1.28997 172.686 0.629756 174.88 0.5 177.136C0.5 181.274 3.4119 182.959 7.04359 180.882L85.4849 135.6C87.3828 134.374 88.9645 132.717 90.1015 130.764C91.2385 128.811 91.8987 126.617 92.0285 124.362C91.963 120.223 89.0511 118.538 85.4685 120.599Z" fill="#F0F0F0"/>
<path d="M418.455 252.42C428.412 252.42 436.483 244.349 436.483 234.392C436.483 224.436 428.412 216.365 418.455 216.365C408.499 216.365 400.428 224.436 400.428 234.392C400.428 244.349 408.499 252.42 418.455 252.42Z" fill="#FFC000"/>
<path d="M305.348 293.547C319.948 293.547 331.784 281.711 331.784 267.11C331.784 252.51 319.948 240.674 305.348 240.674C290.748 240.674 278.912 252.51 278.912 267.11C278.912 281.711 290.748 293.547 305.348 293.547Z" fill="#FFC000"/>
<path d="M263.203 243.048C279.373 226.879 279.373 200.663 263.203 184.494C247.034 168.324 220.818 168.324 204.649 184.494C188.479 200.663 188.479 226.879 204.649 243.048C220.818 259.218 247.034 259.218 263.203 243.048Z" fill="#FFC000"/>
<path d="M279.485 176.138C294.691 176.138 307.017 163.811 307.017 148.606C307.017 133.4 294.691 121.074 279.485 121.074C264.28 121.074 251.953 133.4 251.953 148.606C251.953 163.811 264.28 176.138 279.485 176.138Z" fill="#FFC000"/>
<path d="M362.589 160.499C383.117 160.499 399.757 143.858 399.757 123.331C399.757 102.804 383.117 86.1636 362.589 86.1636C342.062 86.1636 325.422 102.804 325.422 123.331C325.422 143.858 342.062 160.499 362.589 160.499Z" fill="#FFC000"/>
<path d="M370.212 309.709L363.537 320.391C361.859 323.086 359.197 325.021 356.116 325.788C353.035 326.554 349.777 326.091 347.031 324.498L340.488 320.702C338.521 319.354 336.889 317.574 335.716 315.499C334.542 313.423 333.858 311.107 333.715 308.728L333.044 282.668C332.977 282.001 332.736 281.363 332.346 280.817C331.955 280.272 331.429 279.839 330.82 279.559C329.155 278.721 327.317 278.284 325.454 278.284C323.59 278.284 321.752 278.721 320.088 279.559C319.474 279.833 318.945 280.265 318.554 280.812C318.163 281.358 317.924 281.999 317.863 282.668L316.456 336.881C316.342 341.396 314.493 344.047 312.318 342.803L308.391 340.529C306.479 339.431 304.804 337.966 303.462 336.216C302.119 334.467 301.137 332.469 300.572 330.338L296.171 313.979C295.891 312.929 295.206 312.033 294.266 311.488C293.325 310.944 292.207 310.795 291.157 311.075C290.107 311.355 289.211 312.04 288.667 312.981C288.122 313.921 287.974 315.039 288.253 316.089L292.654 332.448C293.498 335.615 294.96 338.584 296.956 341.184C298.952 343.784 301.443 345.963 304.285 347.596L310.142 350.983C313.414 352.848 315.9 358.017 315.786 362.532L311.32 535.414C311.32 537.491 312.694 539.585 315.442 541.172C318.533 542.737 321.948 543.553 325.413 543.553C328.877 543.553 332.293 542.737 335.384 541.172C338.132 539.536 339.522 537.491 339.506 535.397L334.337 334.657C334.222 330.141 336.103 327.622 338.541 329.029L342.941 331.581C347.523 334.235 352.957 335.003 358.094 333.724C363.232 332.445 367.671 329.219 370.474 324.727L377.148 314.044C377.723 313.124 377.909 312.014 377.665 310.957C377.421 309.9 376.767 308.983 375.848 308.409C374.928 307.834 373.817 307.648 372.76 307.892C371.704 308.136 370.787 308.789 370.212 309.709Z" fill="#37474F"/>
<path d="M485.37 130.576C493.204 96.8065 472.178 63.0802 438.408 55.2465C404.639 47.4129 370.912 68.4383 363.079 102.208C355.245 135.978 376.27 169.704 410.04 177.538C443.81 185.372 477.537 164.346 485.37 130.576Z" fill="#FFC000"/>
<path opacity="0.2" d="M487.015 115.953V116.509C487.027 126.221 484.786 135.804 480.466 144.503C476.147 153.201 469.868 160.779 462.124 166.64C454.38 172.5 445.381 176.484 435.836 178.277C426.291 180.071 416.46 179.625 407.117 176.974C397.773 174.324 389.172 169.542 381.99 163.004C374.809 156.465 369.242 148.35 365.728 139.296C362.215 130.242 360.85 120.496 361.742 110.825C362.633 101.154 365.757 91.8216 370.867 83.5625C368.065 98.4479 370.947 113.843 378.943 126.707C386.938 139.572 399.466 148.971 414.053 153.049C428.641 157.127 444.227 155.588 457.735 148.736C471.243 141.883 481.69 130.215 487.015 116.035V115.953Z" fill="black"/>
<path d="M365.436 138.349C368.372 146.221 372.859 153.425 378.631 159.531C384.403 165.637 391.343 170.523 399.038 173.897C406.733 177.272 415.028 179.067 423.429 179.177C431.831 179.286 440.17 177.708 447.95 174.535C446.197 165.876 442.387 157.766 436.841 150.889C431.296 144.012 424.177 138.57 416.086 135.022C407.996 131.474 399.17 129.924 390.355 130.503C381.539 131.082 372.993 133.773 365.436 138.349Z" fill="#FFC000"/>
<path opacity="0.1" d="M365.436 138.349C368.372 146.221 372.859 153.425 378.631 159.531C384.403 165.637 391.343 170.523 399.038 173.897C406.733 177.272 415.028 179.067 423.429 179.177C431.831 179.286 440.17 177.708 447.95 174.535C446.197 165.876 442.387 157.766 436.841 150.889C431.296 144.012 424.177 138.57 416.086 135.022C407.996 131.474 399.17 129.924 390.355 130.503C381.539 131.082 372.993 133.773 365.436 138.349Z" fill="black"/>
<path d="M427.092 90.548C432.899 90.548 433.636 90.548 435.877 90.6789C437.256 90.6998 438.623 90.9542 439.917 91.4314C440.853 91.7947 441.703 92.349 442.412 93.0587C443.122 93.7684 443.676 94.6182 444.04 95.5538C444.51 96.8444 444.758 98.2049 444.776 99.5781C444.89 101.868 444.907 102.555 444.907 108.363C444.907 114.17 444.907 114.906 444.776 117.148C444.758 118.521 444.51 119.881 444.04 121.172C443.676 122.108 443.122 122.957 442.412 123.667C441.703 124.377 440.853 124.931 439.917 125.294C438.623 125.772 437.256 126.026 435.877 126.047C433.586 126.145 432.899 126.178 427.092 126.178C421.284 126.178 420.548 126.178 418.324 126.047C416.944 126.028 415.577 125.773 414.283 125.294C413.344 124.937 412.491 124.385 411.78 123.675C411.07 122.964 410.518 122.111 410.16 121.172C409.683 119.883 409.428 118.522 409.408 117.148C409.31 114.857 409.293 114.17 409.293 108.363C409.293 102.555 409.293 101.819 409.408 99.5781C409.428 98.2037 409.683 96.8428 410.16 95.5538C410.518 94.6146 411.07 93.7616 411.78 93.051C412.491 92.3405 413.344 91.7885 414.283 91.4314C415.577 90.9523 416.944 90.6979 418.324 90.6789C420.614 90.5807 421.301 90.548 427.092 90.548ZM427.092 86.6382C421.203 86.6382 420.548 86.6382 418.144 86.7691C416.337 86.8013 414.55 87.1444 412.86 87.7833C411.418 88.3406 410.108 89.1931 409.015 90.2862C407.922 91.3792 407.07 92.6887 406.512 94.1306C405.883 95.8175 405.54 97.598 405.498 99.3982C405.4 101.721 405.367 102.457 405.367 108.363C405.367 114.268 405.367 115.005 405.498 117.328C405.54 119.128 405.883 120.908 406.512 122.595C407.07 124.037 407.922 125.347 409.015 126.44C410.108 127.533 411.418 128.385 412.86 128.942C414.55 129.581 416.337 129.924 418.144 129.957C420.467 130.055 421.203 130.088 427.092 130.088C432.981 130.088 433.734 130.088 436.057 129.957C437.858 129.925 439.64 129.582 441.324 128.942C442.779 128.401 444.097 127.546 445.185 126.44C446.283 125.35 447.136 124.04 447.688 122.595C448.319 120.909 448.657 119.128 448.686 117.328C448.8 115.005 448.817 114.268 448.817 108.363C448.817 102.457 448.817 101.721 448.686 99.3982C448.657 97.5982 448.319 95.8165 447.688 94.1306C447.13 92.7036 446.277 91.4103 445.185 90.3353C444.097 89.2284 442.779 88.374 441.324 87.8324C439.64 87.1931 437.858 86.85 436.057 86.8181C433.734 86.72 432.997 86.6873 427.092 86.6873" fill="white"/>
<path d="M427.092 97.2061C424.884 97.2061 422.726 97.8612 420.891 99.0886C419.055 100.316 417.625 102.06 416.782 104.101C415.938 106.141 415.719 108.386 416.152 110.552C416.585 112.717 417.651 114.705 419.215 116.264C420.778 117.823 422.769 118.883 424.936 119.309C427.102 119.736 429.347 119.51 431.385 118.661C433.423 117.812 435.163 116.376 436.385 114.537C437.607 112.698 438.256 110.538 438.249 108.33C438.249 105.371 437.074 102.533 434.981 100.441C432.889 98.3488 430.051 97.1733 427.092 97.1733M427.092 115.577C425.659 115.577 424.258 115.152 423.066 114.356C421.874 113.56 420.945 112.428 420.397 111.103C419.848 109.779 419.705 108.322 419.985 106.916C420.264 105.511 420.954 104.219 421.968 103.206C422.981 102.192 424.273 101.502 425.679 101.222C427.084 100.943 428.541 101.086 429.866 101.635C431.19 102.183 432.322 103.112 433.118 104.304C433.914 105.496 434.339 106.897 434.339 108.33C434.339 110.252 433.576 112.096 432.217 113.455C430.858 114.814 429.014 115.577 427.092 115.577Z" fill="white"/>
<path d="M441.309 96.7642C441.312 97.2825 441.162 97.7902 440.876 98.2228C440.59 98.6553 440.183 98.9934 439.705 99.194C439.227 99.3946 438.7 99.4488 438.191 99.3497C437.682 99.2505 437.214 99.0025 436.847 98.6371C436.479 98.2717 436.228 97.8054 436.126 97.2972C436.023 96.789 436.074 96.2619 436.272 95.7827C436.47 95.3035 436.805 94.8937 437.236 94.6054C437.667 94.317 438.173 94.1631 438.692 94.1631C439.383 94.1631 440.046 94.4366 440.537 94.9239C441.027 95.4113 441.305 96.0728 441.309 96.7642Z" fill="white"/>
<path d="M511.462 222.296C516.644 196.594 500.01 171.558 474.308 166.375C448.606 161.193 423.57 177.827 418.387 203.529C413.205 229.231 429.839 254.267 455.541 259.449C481.243 264.632 506.279 247.998 511.462 222.296Z" fill="#FFC000"/>
<path d="M512.437 212.602V213.028C512.415 220.351 510.699 227.569 507.423 234.118C504.146 240.668 499.398 246.369 493.55 250.777C487.702 255.184 480.912 258.178 473.714 259.524C466.516 260.87 459.104 260.531 452.058 258.534C445.013 256.537 438.525 252.936 433.104 248.013C427.682 243.09 423.474 236.979 420.809 230.158C418.143 223.337 417.093 215.992 417.74 208.698C418.388 201.403 420.715 194.358 424.54 188.113C423.881 191.271 423.546 194.489 423.542 197.716C423.545 208.521 427.376 218.976 434.356 227.225C441.335 235.474 451.011 240.984 461.667 242.776C472.323 244.569 483.27 242.528 492.564 237.016C501.858 231.504 508.899 222.878 512.437 212.668V212.602Z" fill="#FFC000"/>
<path opacity="0.1" d="M512.437 212.602V213.028C512.415 220.351 510.699 227.569 507.423 234.118C504.146 240.668 499.398 246.369 493.55 250.777C487.702 255.184 480.912 258.178 473.714 259.524C466.516 260.87 459.104 260.531 452.058 258.534C445.013 256.537 438.525 252.936 433.104 248.013C427.682 243.09 423.474 236.979 420.809 230.158C418.143 223.337 417.093 215.992 417.74 208.698C418.388 201.403 420.715 194.358 424.54 188.113C423.881 191.271 423.546 194.489 423.542 197.716C423.545 208.521 427.376 218.976 434.356 227.225C441.335 235.474 451.011 240.984 461.667 242.776C472.323 244.569 483.27 242.528 492.564 237.016C501.858 231.504 508.899 222.878 512.437 212.668V212.602Z" fill="black"/>
<path d="M417.506 213.027C417.529 225.233 422.271 236.957 430.74 245.745C441.327 236.964 448.242 224.537 450.122 210.911C452.002 197.286 448.712 183.45 440.899 172.13C433.776 176.319 427.87 182.296 423.767 189.469C419.664 196.643 417.505 204.763 417.506 213.027Z" fill="#FFC000"/>
<path opacity="0.1" d="M417.506 213.027C417.529 225.233 422.271 236.957 430.74 245.745C441.327 236.964 448.242 224.537 450.122 210.911C452.002 197.286 448.712 183.45 440.899 172.13C433.776 176.319 427.87 182.296 423.767 189.469C419.664 196.643 417.505 204.763 417.506 213.027Z" fill="black"/>
<path d="M483.269 197.274C478.705 197.126 475.63 199.711 474.01 204.995C474.772 204.651 475.596 204.467 476.431 204.455C478.067 204.455 478.853 205.404 478.656 207.285C478.274 209.061 477.515 210.735 476.431 212.193C475.057 214.369 474.027 215.465 473.34 215.465C472.653 215.465 471.704 213.829 470.902 210.443C470.657 209.461 470.215 206.942 469.577 202.917C468.988 199.177 467.412 197.426 464.849 197.666C462.981 198.196 461.288 199.212 459.942 200.611C458.306 202.034 456.768 203.474 455.148 204.897L456.703 206.893C457.473 206.224 458.339 205.672 459.271 205.257C460.4 205.257 461.463 207.023 462.445 210.573L465.095 220.291C466.425 223.846 468.061 225.618 470.002 225.607C473.111 225.607 476.895 222.701 481.355 216.888C485.718 211.326 487.954 206.964 488.063 203.801C488.237 199.569 486.639 197.393 483.269 197.274Z" fill="white"/>
<path d="M305.496 133.948C342.249 133.948 372.044 104.153 372.044 67.3999C372.044 30.6463 342.249 0.851562 305.496 0.851562C268.742 0.851562 238.947 30.6463 238.947 67.3999C238.947 104.153 268.742 133.948 305.496 133.948Z" fill="#FFC000"/>
<path opacity="0.5" d="M372.028 66.9093V67.4328C372.023 77.7186 369.634 87.8631 365.047 97.07C360.461 106.277 353.804 114.295 345.597 120.496C337.39 126.696 327.858 130.91 317.748 132.806C307.639 134.703 297.227 134.23 287.331 131.424C277.435 128.619 268.324 123.559 260.714 116.639C253.103 109.72 247.2 101.131 243.467 91.5465C239.735 81.9617 238.275 71.6423 239.203 61.3984C240.13 51.1545 243.419 41.265 248.812 32.5063C247.869 36.9322 247.392 41.4446 247.389 45.9698C247.385 61.1255 252.753 75.7922 262.539 87.3648C272.325 98.9373 285.897 106.666 300.843 109.179C315.789 111.692 331.142 108.826 344.174 101.09C357.207 93.3544 367.076 81.2495 372.028 66.9256V66.9093Z" fill="#FFC000"/>
<path opacity="0.1" d="M372.028 66.9093V67.4328C372.023 77.7186 369.634 87.8631 365.047 97.07C360.461 106.277 353.804 114.295 345.597 120.496C337.39 126.696 327.858 130.91 317.748 132.806C307.639 134.703 297.227 134.23 287.331 131.424C277.435 128.619 268.324 123.559 260.714 116.639C253.103 109.72 247.2 101.131 243.467 91.5465C239.735 81.9617 238.275 71.6423 239.203 61.3984C240.13 51.1545 243.419 41.265 248.812 32.5063C247.869 36.9322 247.392 41.4446 247.389 45.9698C247.385 61.1255 252.753 75.7922 262.539 87.3648C272.325 98.9373 285.897 106.666 300.843 109.179C315.789 111.692 331.142 108.826 344.174 101.09C357.207 93.3544 367.076 81.2495 372.028 66.9256V66.9093Z" fill="black"/>
<path d="M361.493 103.422C357.221 94.7984 350.157 87.8734 341.45 83.7728C332.743 79.6722 322.905 78.6372 313.535 80.836C304.165 83.0349 295.815 88.3382 289.841 95.884C283.867 103.43 280.621 112.774 280.631 122.399C280.632 124.762 280.835 127.121 281.236 129.449C295.559 135.071 311.388 135.549 326.024 130.803C340.66 126.056 353.196 116.379 361.493 103.422Z" fill="#FFC000"/>
<path opacity="0.1" d="M361.493 103.422C357.221 94.7984 350.157 87.8734 341.45 83.7728C332.743 79.6722 322.905 78.6372 313.535 80.836C304.165 83.0349 295.815 88.3382 289.841 95.884C283.867 103.43 280.621 112.774 280.631 122.399C280.632 124.762 280.835 127.121 281.236 129.449C295.559 135.071 311.388 135.549 326.024 130.803C340.66 126.056 353.196 116.379 361.493 103.422Z" fill="black"/>
<path d="M300.277 75.4977H309.929V51.3355H316.653L317.372 43.2542H309.929V38.6573C309.929 36.7433 310.305 35.9908 312.154 35.9908H317.372V27.5986H310.698C303.516 27.5986 300.277 30.7559 300.277 36.8087V43.2542H295.271V51.4337H300.277V75.4977Z" fill="white"/>
<path d="M278.657 159.977C284.653 122.544 259.168 87.3385 221.735 81.3427C184.302 75.3469 149.096 100.832 143.1 138.265C137.105 175.698 162.59 210.904 200.022 216.899C237.455 222.895 272.661 197.41 278.657 159.977Z" fill="#FFC000"/>
<path opacity="0.7" d="M279.485 148.606V149.129C279.525 159.772 277.092 170.279 272.377 179.82C267.663 189.362 260.796 197.678 252.319 204.113C243.842 210.548 233.985 214.925 223.527 216.9C213.069 218.875 202.296 218.393 192.055 215.493C181.815 212.593 172.389 207.354 164.52 200.188C156.65 193.023 150.553 184.127 146.709 174.203C142.865 164.279 141.379 153.597 142.368 143C143.357 132.403 146.794 122.181 152.409 113.14C151.434 117.705 150.94 122.36 150.936 127.028C150.932 142.659 156.467 157.786 166.559 169.721C176.652 181.657 190.648 189.629 206.062 192.223C221.476 194.816 237.31 191.862 250.753 183.886C264.195 175.909 274.375 163.427 279.485 148.655V148.606Z" fill="#FFC000"/>
<path opacity="0.1" d="M279.485 148.606V149.129C279.525 159.772 277.092 170.279 272.377 179.82C267.663 189.362 260.796 197.678 252.319 204.113C243.842 210.548 233.985 214.925 223.527 216.9C213.069 218.875 202.296 218.393 192.055 215.493C181.815 212.593 172.389 207.354 164.52 200.188C156.65 193.023 150.553 184.127 146.709 174.203C142.865 164.279 141.379 153.597 142.368 143C143.357 132.403 146.794 122.181 152.409 113.14C151.434 117.705 150.94 122.36 150.936 127.028C150.932 142.659 156.467 157.786 166.559 169.721C176.652 181.657 190.648 189.629 206.062 192.223C221.476 194.816 237.31 191.862 250.753 183.886C264.195 175.909 274.375 163.427 279.485 148.655V148.606Z" fill="black"/>
<path d="M179.238 172.261C168.907 172.271 158.966 176.207 151.428 183.27C158.181 195.107 168.318 204.655 180.538 210.689C192.757 216.723 206.501 218.967 220.005 217.133C220.135 215.825 220.201 214.483 220.201 213.142C220.199 207.767 219.137 202.445 217.077 197.481C215.016 192.517 211.998 188.007 208.193 184.21C204.389 180.414 199.873 177.404 194.905 175.354C189.937 173.303 184.613 172.252 179.238 172.261Z" fill="#FFC000"/>
<path opacity="0.1" d="M179.238 172.261C168.907 172.271 158.966 176.207 151.428 183.27C158.181 195.107 168.318 204.655 180.538 210.689C192.757 216.723 206.501 218.967 220.005 217.133C220.135 215.825 220.201 214.483 220.201 213.142C220.199 207.767 219.137 202.445 217.077 197.481C215.016 192.517 211.998 188.007 208.193 184.21C204.389 180.414 199.873 177.404 194.905 175.354C189.937 173.303 184.613 172.252 179.238 172.261Z" fill="black"/>
<path d="M279.486 149.915C272.005 150.418 264.729 152.574 258.181 156.227C251.634 159.88 245.978 164.94 241.62 171.042C237.263 177.143 234.313 184.136 232.982 191.514C231.652 198.893 231.974 206.475 233.926 213.715C247.12 208.995 258.555 200.354 266.699 188.95C274.842 177.547 279.304 163.926 279.486 149.915Z" fill="#FFC000"/>
<path opacity="0.1" d="M279.486 149.915C272.005 150.418 264.729 152.574 258.181 156.227C251.634 159.88 245.978 164.94 241.62 171.042C237.263 177.143 234.313 184.136 232.982 191.514C231.652 198.893 231.974 206.475 233.926 213.715C247.12 208.995 258.555 200.354 266.699 188.95C274.842 177.547 279.304 163.926 279.486 149.915Z" fill="black"/>
<path d="M189.756 156.916C193.559 159.353 197.959 160.698 202.475 160.803C206.992 160.908 211.45 159.77 215.362 157.512C219.275 155.254 222.491 151.964 224.66 148.002C226.829 144.039 227.867 139.557 227.66 135.044C229.351 133.815 230.812 132.297 231.978 130.562C230.42 131.259 228.766 131.716 227.071 131.92C228.88 130.84 230.23 129.135 230.866 127.126C229.169 128.14 227.309 128.854 225.369 129.237C224.059 127.867 222.336 126.964 220.464 126.667C218.592 126.37 216.674 126.694 215.004 127.59C213.334 128.487 212.003 129.905 211.216 131.63C210.429 133.354 210.229 135.289 210.646 137.138C207.203 136.969 203.834 136.075 200.758 134.517C197.683 132.958 194.971 130.769 192.799 128.092C191.693 129.998 191.353 132.253 191.848 134.401C192.344 136.548 193.636 138.427 195.465 139.657C194.088 139.607 192.743 139.232 191.539 138.561C191.517 140.58 192.2 142.543 193.468 144.114C194.737 145.684 196.513 146.763 198.492 147.166C197.218 147.52 195.879 147.57 194.582 147.313C195.132 149.038 196.21 150.546 197.662 151.626C199.115 152.706 200.87 153.303 202.679 153.333C200.87 154.756 198.795 155.806 196.577 156.421C194.358 157.036 192.04 157.204 189.756 156.916Z" fill="white"/>
<path d="M269.889 310.292C290.927 289.255 290.927 255.146 269.889 234.108C248.851 213.071 214.743 213.071 193.705 234.108C172.668 255.146 172.668 289.255 193.705 310.292C214.743 331.33 248.851 331.33 269.889 310.292Z" fill="#FFC000"/>
<path opacity="0.3" d="M239.341 218.868C239.039 221.135 238.886 223.419 238.883 225.706C238.876 233.476 240.619 241.147 243.984 248.151C247.348 255.155 252.247 261.311 258.317 266.161C255.374 269.749 253.166 273.881 251.82 278.322C250.474 282.763 250.015 287.426 250.471 292.044C250.927 296.662 252.288 301.145 254.476 305.237C256.664 309.329 259.637 312.95 263.225 315.893C271.945 309.616 278.588 300.874 282.3 290.791C286.012 280.708 286.623 269.746 284.055 259.313C281.487 248.88 275.857 239.454 267.888 232.246C259.92 225.039 249.978 220.38 239.341 218.868Z" fill="#FFC000"/>
<path opacity="0.1" d="M239.341 218.868C239.039 221.135 238.886 223.419 238.883 225.706C238.876 233.476 240.619 241.147 243.984 248.151C247.348 255.155 252.247 261.311 258.317 266.161C255.374 269.749 253.166 273.881 251.82 278.322C250.474 282.763 250.015 287.426 250.471 292.044C250.927 296.662 252.288 301.145 254.476 305.237C256.664 309.329 259.637 312.95 263.225 315.893C271.945 309.616 278.588 300.874 282.3 290.791C286.012 280.708 286.623 269.746 284.055 259.313C281.487 248.88 275.857 239.454 267.888 232.246C259.92 225.039 249.978 220.38 239.341 218.868Z" fill="black"/>
<path d="M285.652 271.789V272.198C285.637 280.517 283.694 288.72 279.978 296.163C276.261 303.606 270.871 310.087 264.23 315.098C257.59 320.109 249.879 323.514 241.702 325.045C233.525 326.577 225.104 326.194 217.1 323.927C209.095 321.66 201.725 317.569 195.566 311.976C189.408 306.383 184.628 299.44 181.602 291.691C178.576 283.941 177.386 275.596 178.125 267.31C178.864 259.024 181.513 251.021 185.862 243.93C183.007 256.884 185.224 270.44 192.056 281.811C198.888 293.182 209.817 301.503 222.595 305.064C235.373 308.626 249.031 307.156 260.759 300.958C272.487 294.76 281.396 284.304 285.652 271.74V271.789Z" fill="#FFC000"/>
<path d="M285.652 271.789V272.198C285.637 280.517 283.694 288.72 279.978 296.163C276.261 303.606 270.871 310.087 264.23 315.098C257.59 320.109 249.879 323.514 241.702 325.045C233.525 326.577 225.104 326.194 217.1 323.927C209.095 321.66 201.725 317.569 195.566 311.976C189.408 306.383 184.628 299.44 181.602 291.691C178.576 283.941 177.386 275.596 178.125 267.31C178.864 259.024 181.513 251.021 185.862 243.93C183.007 256.884 185.224 270.44 192.056 281.811C198.888 293.182 209.817 301.503 222.595 305.064C235.373 308.626 249.031 307.156 260.759 300.958C272.487 294.76 281.396 284.304 285.652 271.74V271.789Z" fill="#FFC000"/>
<g opacity="0.1">
<path d="M285.652 271.789V272.198C285.637 280.517 283.694 288.72 279.978 296.163C276.261 303.606 270.871 310.087 264.23 315.098C257.59 320.109 249.879 323.514 241.702 325.045C233.525 326.577 225.104 326.194 217.1 323.927C209.095 321.66 201.725 317.569 195.566 311.976C189.408 306.383 184.628 299.44 181.602 291.691C178.576 283.941 177.386 275.596 178.125 267.31C178.864 259.024 181.513 251.021 185.862 243.93C183.007 256.884 185.224 270.44 192.056 281.811C198.888 293.182 209.817 301.503 222.595 305.064C235.373 308.626 249.031 307.156 260.759 300.958C272.487 294.76 281.396 284.304 285.652 271.74V271.789Z" fill="black"/>
<path d="M285.652 271.789V272.198C285.637 280.517 283.694 288.72 279.978 296.163C276.261 303.606 270.871 310.087 264.23 315.098C257.59 320.109 249.879 323.514 241.702 325.045C233.525 326.577 225.104 326.194 217.1 323.927C209.095 321.66 201.725 317.569 195.566 311.976C189.408 306.383 184.628 299.44 181.602 291.691C178.576 283.941 177.386 275.596 178.125 267.31C178.864 259.024 181.513 251.021 185.862 243.93C183.007 256.884 185.224 270.44 192.056 281.811C198.888 293.182 209.817 301.503 222.595 305.064C235.373 308.626 249.031 307.156 260.759 300.958C272.487 294.76 281.396 284.304 285.652 271.74V271.789Z" fill="black"/>
</g>
<path d="M221.884 281.392C222.903 281.191 223.864 280.767 224.698 280.148C225.594 279.444 226.318 278.545 226.814 277.518C227.31 276.492 227.566 275.366 227.561 274.226C227.598 272.943 227.263 271.676 226.596 270.578C225.907 269.547 224.894 268.776 223.717 268.386C224.436 268.047 225.081 267.569 225.614 266.979C226.42 265.933 226.826 264.634 226.759 263.315C226.795 261.962 226.4 260.633 225.631 259.52C224.842 258.601 223.846 257.881 222.726 257.421C221.606 256.96 220.392 256.771 219.185 256.87H207.178V281.735H218.367C219.548 281.743 220.727 281.628 221.884 281.392ZM212.069 261.188H217.468C218.464 261.16 219.458 261.293 220.412 261.581C220.849 261.771 221.214 262.095 221.452 262.508C221.691 262.92 221.791 263.398 221.737 263.871C221.784 264.293 221.715 264.719 221.54 265.104C221.364 265.49 221.088 265.822 220.739 266.063C219.932 266.5 219.022 266.709 218.106 266.669H212.069V261.188ZM212.069 277.416V270.791H218.187C219.03 270.758 219.871 270.897 220.658 271.2C221.176 271.416 221.614 271.789 221.908 272.268C222.201 272.747 222.336 273.306 222.293 273.867C222.364 274.489 222.245 275.118 221.954 275.672C221.662 276.227 221.21 276.68 220.658 276.975C219.867 277.307 219.011 277.457 218.155 277.416H212.069Z" fill="white"/>
<path d="M231.765 280.099C233.609 281.606 235.929 282.406 238.309 282.357C239.585 282.43 240.861 282.229 242.052 281.766C243.244 281.303 244.321 280.59 245.212 279.674C246.143 278.804 246.769 277.656 246.996 276.402H242.088C241.755 277.078 241.229 277.639 240.577 278.015C239.924 278.391 239.175 278.564 238.423 278.512C237.49 278.542 236.569 278.297 235.773 277.809C235.145 277.384 234.636 276.804 234.298 276.124C233.96 275.445 233.803 274.69 233.843 273.932H247.241C247.279 272.713 247.224 271.494 247.077 270.284C246.884 268.925 246.386 267.628 245.621 266.489C244.842 265.295 243.734 264.352 242.431 263.773C241.07 263.18 239.598 262.884 238.113 262.906C236.906 262.865 235.703 263.07 234.578 263.509C233.453 263.948 232.43 264.611 231.569 265.458C230.681 266.449 230 267.609 229.568 268.867C229.135 270.126 228.959 271.459 229.05 272.787C228.922 274.131 229.1 275.488 229.571 276.754C230.041 278.02 230.791 279.164 231.765 280.099ZM235.201 267.879C235.58 267.517 236.03 267.237 236.523 267.057C237.016 266.877 237.54 266.8 238.064 266.832C239.106 266.797 240.125 267.147 240.926 267.814C241.325 268.188 241.643 268.638 241.863 269.139C242.082 269.639 242.198 270.179 242.202 270.726H233.925C234.021 269.661 234.47 268.659 235.201 267.879Z" fill="white"/>
<path d="M243.152 258.309H232.355V260.812H243.152V258.309Z" fill="white"/>
<path d="M380.715 246.482C411.108 246.482 435.747 221.843 435.747 191.45C435.747 161.057 411.108 136.418 380.715 136.418C350.322 136.418 325.684 161.057 325.684 191.45C325.684 221.843 350.322 246.482 380.715 246.482Z" fill="#FFC000"/>
<path opacity="0.2" d="M435.729 191.041V191.45C435.726 199.957 433.75 208.347 429.958 215.961C426.166 223.576 420.66 230.208 413.872 235.336C407.085 240.464 399.201 243.949 390.84 245.517C382.48 247.085 373.869 246.693 365.685 244.372C357.501 242.052 349.966 237.865 343.673 232.142C337.379 226.419 332.498 219.314 329.413 211.387C326.328 203.459 325.122 194.924 325.891 186.453C326.661 177.981 329.383 169.802 333.845 162.56C333.069 166.223 332.674 169.956 332.668 173.701C332.664 186.232 337.101 198.36 345.193 207.929C353.284 217.499 364.505 223.891 376.863 225.97C389.221 228.049 401.916 225.681 412.693 219.286C423.47 212.892 431.632 202.884 435.729 191.041Z" fill="black"/>
<path d="M333.422 163.312C326.588 174.796 324.168 188.373 326.612 201.511C329.056 214.648 336.199 226.446 346.705 234.703C350.62 229.177 353.385 222.922 354.838 216.308C356.29 209.694 356.4 202.856 355.162 196.198C353.923 189.541 351.361 183.2 347.626 177.551C343.892 171.902 339.062 167.06 333.422 163.312Z" fill="#FFC000"/>
<path opacity="0.1" d="M333.422 163.312C326.588 174.796 324.168 188.373 326.612 201.511C329.056 214.648 336.199 226.446 346.705 234.703C350.62 229.177 353.385 222.922 354.838 216.308C356.29 209.694 356.4 202.856 355.162 196.198C353.923 189.541 351.361 183.2 347.626 177.551C343.892 171.902 339.062 167.06 333.422 163.312Z" fill="#FFC000"/>
<g opacity="0.1">
<path d="M333.422 163.312C326.588 174.796 324.168 188.373 326.612 201.511C329.056 214.648 336.199 226.446 346.705 234.703C350.62 229.177 353.385 222.922 354.838 216.308C356.29 209.694 356.4 202.856 355.162 196.198C353.923 189.541 351.361 183.2 347.626 177.551C343.892 171.902 339.062 167.06 333.422 163.312Z" fill="black"/>
<path opacity="0.1" d="M333.422 163.312C326.588 174.796 324.168 188.373 326.612 201.511C329.056 214.648 336.199 226.446 346.705 234.703C350.62 229.177 353.385 222.922 354.838 216.308C356.29 209.694 356.4 202.856 355.162 196.198C353.923 189.541 351.361 183.2 347.626 177.551C343.892 171.902 339.062 167.06 333.422 163.312Z" fill="black"/>
</g>
<path d="M374.384 189.961C374.515 190.031 374.66 190.068 374.808 190.07C374.956 190.072 375.103 190.039 375.235 189.974C375.368 189.908 375.483 189.812 375.571 189.693C375.659 189.574 375.718 189.436 375.742 189.29C375.873 188.816 376.167 187.654 376.298 187.115C376.402 186.855 376.421 186.568 376.35 186.297C376.279 186.027 376.124 185.785 375.906 185.61C374.678 184.123 374.043 182.235 374.123 180.309C374.101 178.572 374.434 176.849 375.1 175.244C375.767 173.64 376.753 172.188 377.999 170.977C379.245 169.766 380.725 168.822 382.348 168.201C383.971 167.581 385.703 167.298 387.439 167.369C394.686 167.369 398.677 171.803 398.677 177.725C398.677 185.528 395.226 192.104 390.105 192.104C389.45 192.137 388.796 192.016 388.196 191.75C387.597 191.484 387.068 191.081 386.652 190.574C386.237 190.066 385.946 189.467 385.804 188.827C385.663 188.186 385.673 187.521 385.836 186.886C386.654 183.467 388.224 179.769 388.224 177.299C388.287 176.786 388.24 176.265 388.084 175.772C387.929 175.279 387.67 174.824 387.324 174.44C386.978 174.055 386.554 173.749 386.08 173.543C385.606 173.336 385.093 173.234 384.576 173.242C381.697 173.242 379.374 176.236 379.374 180.244C379.355 181.713 379.65 183.169 380.241 184.514L376.756 199.237C376.142 202.626 376.115 206.095 376.675 209.494C376.686 209.563 376.717 209.627 376.764 209.678C376.812 209.73 376.873 209.766 376.94 209.784C377.008 209.801 377.079 209.798 377.145 209.776C377.211 209.753 377.269 209.712 377.313 209.657C379.462 207.022 381.124 204.025 382.22 200.807C382.547 199.613 384.118 193.38 384.118 193.38C384.841 194.443 385.818 195.308 386.961 195.897C388.104 196.486 389.376 196.779 390.662 196.75C399.364 196.75 405.254 188.832 405.254 178.232C405.254 170.199 398.465 162.74 388.142 162.74C375.3 162.74 368.822 171.95 368.822 179.622C368.855 184.285 370.622 188.489 374.384 189.961Z" fill="white"/>
<path d="M437.93 313.301C456.469 294.762 456.469 264.703 437.93 246.163C419.39 227.624 389.331 227.624 370.792 246.163C352.252 264.703 352.252 294.762 370.792 313.301C389.331 331.841 419.39 331.841 437.93 313.301Z" fill="#FFC000"/>
<path d="M451.812 279.38V279.739C451.79 287.062 450.074 294.281 446.798 300.83C443.521 307.379 438.773 313.081 432.925 317.489C427.077 321.896 420.287 324.89 413.089 326.236C405.891 327.582 398.479 327.243 391.433 325.246C384.388 323.249 377.9 319.648 372.479 314.725C367.057 309.802 362.849 303.691 360.184 296.87C357.518 290.049 356.468 282.704 357.115 275.409C357.763 268.115 360.09 261.07 363.915 254.825C363.242 257.981 362.902 261.2 362.901 264.427C362.892 275.241 366.719 285.708 373.699 293.967C380.68 302.226 390.363 307.743 401.027 309.536C411.692 311.329 422.646 309.284 431.945 303.762C441.243 298.241 448.282 289.601 451.812 279.38Z" fill="#FFC000"/>
<path opacity="0.2" d="M451.812 279.38V279.739C451.79 287.062 450.074 294.281 446.798 300.83C443.521 307.379 438.773 313.081 432.925 317.489C427.077 321.896 420.287 324.89 413.089 326.236C405.891 327.582 398.479 327.243 391.433 325.246C384.388 323.249 377.9 319.648 372.479 314.725C367.057 309.802 362.849 303.691 360.184 296.87C357.518 290.049 356.468 282.704 357.115 275.409C357.763 268.115 360.09 261.07 363.915 254.825C363.242 257.981 362.902 261.2 362.901 264.427C362.892 275.241 366.719 285.708 373.699 293.967C380.68 302.226 390.363 307.743 401.027 309.536C411.692 311.329 422.646 309.284 431.945 303.762C441.243 298.241 448.282 289.601 451.812 279.38Z" fill="black"/>
<path d="M356.864 279.739C356.828 289.271 359.68 298.59 365.043 306.47C371.83 304.493 377.959 300.726 382.789 295.564C387.619 290.403 390.971 284.037 392.493 277.134C394.016 270.231 393.653 263.045 391.442 256.331C389.232 249.617 385.255 243.621 379.93 238.973C372.886 243.191 367.058 249.165 363.015 256.311C358.972 263.456 356.852 271.529 356.864 279.739Z" fill="#FFC000"/>
<path opacity="0.1" d="M356.864 279.739C356.828 289.271 359.68 298.59 365.043 306.47C371.83 304.493 377.959 300.726 382.789 295.564C387.619 290.403 390.971 284.037 392.493 277.134C394.016 270.231 393.653 263.045 391.442 256.331C389.232 249.617 385.255 243.621 379.93 238.973C372.886 243.191 367.058 249.165 363.015 256.311C358.972 263.456 356.852 271.529 356.864 279.739Z" fill="black"/>
<path d="M407.461 269.352H401.064V290.029H407.461V269.352Z" fill="white"/>
<path d="M404.222 266.652C404.978 266.659 405.718 266.441 406.349 266.026C406.98 265.611 407.473 265.018 407.767 264.322C408.061 263.626 408.141 262.859 407.997 262.117C407.854 261.376 407.494 260.694 406.962 260.157C406.43 259.621 405.751 259.255 405.011 259.105C404.27 258.955 403.502 259.029 402.804 259.316C402.106 259.604 401.508 260.092 401.088 260.72C400.668 261.347 400.443 262.086 400.443 262.841C400.443 263.846 400.84 264.811 401.548 265.525C402.256 266.238 403.217 266.644 404.222 266.652Z" fill="white"/>
<path d="M417.654 279.183C417.654 276.271 418.996 274.537 421.564 274.537C424.132 274.537 425.032 276.173 425.032 279.183V290.029H431.412V276.942C431.412 271.413 428.271 268.762 423.887 268.762C422.641 268.746 421.412 269.052 420.32 269.651C419.228 270.25 418.309 271.122 417.654 272.181V269.384H411.52V290.062H417.654V279.183Z" fill="white"/>
<path d="M350.124 300.433C370.525 300.433 387.063 283.895 387.063 263.495C387.063 243.094 370.525 226.556 350.124 226.556C329.724 226.556 313.186 243.094 313.186 263.495C313.186 283.895 329.724 300.433 350.124 300.433Z" fill="#FFC000"/>
<path d="M387.063 263.217V263.495C387.059 269.203 385.732 274.834 383.186 279.943C380.64 285.053 376.945 289.503 372.39 292.944C367.835 296.385 362.544 298.723 356.933 299.776C351.322 300.828 345.544 300.565 340.052 299.009C334.559 297.452 329.502 294.644 325.278 290.804C321.054 286.964 317.777 282.197 315.705 276.878C313.633 271.558 312.822 265.831 313.335 260.146C313.849 254.46 315.674 248.971 318.666 244.109C318.144 246.567 317.881 249.073 317.881 251.585C317.897 259.987 320.887 268.112 326.319 274.521C331.751 280.93 339.277 285.21 347.562 286.603C355.847 287.996 364.359 286.412 371.588 282.132C378.818 277.851 384.299 271.151 387.063 263.217Z" fill="#FFC000"/>
<path opacity="0.2" d="M387.063 263.217V263.495C387.059 269.203 385.732 274.834 383.186 279.943C380.64 285.053 376.945 289.503 372.39 292.944C367.835 296.385 362.544 298.723 356.933 299.776C351.322 300.828 345.544 300.565 340.052 299.009C334.559 297.452 329.502 294.644 325.278 290.804C321.054 286.964 317.777 282.197 315.705 276.878C313.633 271.558 312.822 265.831 313.335 260.146C313.849 254.46 315.674 248.971 318.666 244.109C318.144 246.567 317.881 249.073 317.881 251.585C317.897 259.987 320.887 268.112 326.319 274.521C331.751 280.93 339.277 285.21 347.562 286.603C355.847 287.996 364.359 286.412 371.588 282.132C378.818 277.851 384.299 271.151 387.063 263.217Z" fill="black"/>
<path d="M332.373 251.046L341.256 256.69L350.123 251.046L341.256 245.386L332.373 251.046Z" fill="white"/>
<path d="M350.107 251.046L358.99 256.69L367.873 251.046L358.99 245.386L350.107 251.046Z" fill="white"/>
<path d="M332.373 262.268L341.256 267.928L350.123 262.268L341.256 256.608L332.373 262.268Z" fill="white"/>
<path d="M358.99 256.608L350.107 262.268L358.99 267.928L367.873 262.268L358.99 256.608Z" fill="white"/>
<path d="M341.307 269.793L350.19 275.453L359.056 269.793L350.19 264.149L341.307 269.793Z" fill="white"/>
<path d="M329.435 244.443C349.214 224.664 349.214 192.596 329.435 172.817C309.656 153.038 277.588 153.038 257.809 172.817C238.03 192.596 238.03 224.664 257.809 244.443C277.588 264.222 309.656 264.222 329.435 244.443Z" fill="#FFC000"/>
<path opacity="0.7" d="M344.267 208.251V208.627C344.3 216.485 342.505 224.243 339.026 231.289C335.547 238.336 330.478 244.477 324.219 249.228C317.96 253.98 310.682 257.212 302.96 258.669C295.238 260.127 287.283 259.77 279.723 257.627C272.162 255.483 265.204 251.612 259.395 246.319C253.587 241.026 249.089 234.455 246.255 227.126C243.421 219.796 242.329 211.909 243.065 204.085C243.801 196.261 246.346 188.715 250.497 182.043C247.886 194.19 250.009 206.875 256.432 217.509C262.856 228.143 273.096 235.925 285.063 239.265C297.029 242.605 309.819 241.252 320.822 235.482C331.825 229.712 340.21 219.961 344.267 208.218V208.251Z" fill="#FFC000"/>
<g opacity="0.1">
<path opacity="0.7" d="M344.267 208.251V208.627C344.3 216.485 342.505 224.243 339.026 231.289C335.547 238.336 330.478 244.477 324.219 249.228C317.96 253.98 310.682 257.212 302.96 258.669C295.238 260.127 287.283 259.77 279.723 257.627C272.162 255.483 265.204 251.612 259.395 246.319C253.587 241.026 249.089 234.455 246.255 227.126C243.421 219.796 242.329 211.909 243.065 204.085C243.801 196.261 246.346 188.715 250.497 182.043C247.886 194.19 250.009 206.875 256.432 217.509C262.856 228.143 273.096 235.925 285.063 239.265C297.029 242.605 309.819 241.252 320.822 235.482C331.825 229.712 340.21 219.961 344.267 208.218V208.251Z" fill="black"/>
</g>
<path d="M294.765 182.763C290.181 182.75 285.696 184.098 281.878 186.635C278.06 189.173 275.081 192.786 273.317 197.018C271.554 201.249 271.086 205.909 271.972 210.406C272.859 214.904 275.06 219.038 278.297 222.284C281.534 225.53 285.661 227.743 290.156 228.642C294.651 229.541 299.312 229.086 303.549 227.335C307.785 225.583 311.407 222.615 313.955 218.804C316.504 214.993 317.864 210.512 317.864 205.928C317.864 199.795 315.432 193.913 311.102 189.571C306.772 185.229 300.897 182.781 294.765 182.763ZM305.415 216.299C305.322 216.465 305.197 216.61 305.046 216.725C304.895 216.839 304.721 216.922 304.537 216.966C304.353 217.011 304.161 217.017 303.974 216.983C303.787 216.95 303.609 216.879 303.452 216.774C298.004 213.404 291.182 212.717 283.068 214.565C282.702 214.65 282.317 214.591 281.994 214.399C281.671 214.207 281.434 213.897 281.334 213.535C281.248 213.166 281.307 212.779 281.499 212.453C281.691 212.127 282.001 211.888 282.365 211.784C291.182 209.821 298.822 210.639 304.842 214.336C305.016 214.42 305.17 214.539 305.295 214.686C305.42 214.833 305.512 215.005 305.566 215.19C305.62 215.375 305.635 215.57 305.608 215.761C305.582 215.952 305.516 216.135 305.415 216.299ZM308.196 209.936C308.088 210.146 307.935 210.33 307.749 210.476C307.563 210.622 307.347 210.725 307.117 210.78C306.887 210.834 306.648 210.838 306.416 210.791C306.184 210.744 305.965 210.648 305.775 210.508C302.3 208.561 298.473 207.324 294.516 206.869C290.559 206.414 286.551 206.75 282.725 207.858C282.5 207.941 282.26 207.977 282.021 207.964C281.782 207.952 281.547 207.89 281.332 207.784C281.118 207.678 280.926 207.53 280.771 207.347C280.615 207.165 280.498 206.953 280.427 206.724C280.356 206.495 280.332 206.254 280.357 206.016C280.382 205.778 280.455 205.547 280.572 205.338C280.689 205.128 280.848 204.945 281.038 204.799C281.228 204.653 281.445 204.547 281.678 204.488C286.011 203.253 290.548 202.893 295.022 203.43C299.496 203.966 303.819 205.388 307.738 207.613C308.096 207.852 308.346 208.224 308.431 208.647C308.517 209.07 308.432 209.509 308.196 209.87V209.936ZM308.425 203.392C301.014 198.991 288.63 198.484 281.563 200.725C281.297 200.812 281.016 200.846 280.737 200.825C280.457 200.803 280.185 200.727 279.935 200.6C279.685 200.473 279.462 200.298 279.28 200.085C279.098 199.872 278.959 199.626 278.872 199.359C278.785 199.093 278.751 198.812 278.773 198.533C278.795 198.253 278.871 197.981 278.998 197.731C279.125 197.481 279.299 197.259 279.512 197.076C279.725 196.894 279.972 196.755 280.238 196.668C288.418 194.231 302.012 194.705 310.584 199.793C311.085 200.09 311.45 200.571 311.603 201.132C311.755 201.694 311.683 202.293 311.402 202.803C311.044 203.221 310.555 203.506 310.015 203.613C309.475 203.72 308.915 203.642 308.425 203.392Z" fill="white"/>
<path d="M292.196 327.05C311.268 327.05 326.73 311.588 326.73 292.516C326.73 273.443 311.268 257.982 292.196 257.982C273.123 257.982 257.662 273.443 257.662 292.516C257.662 311.588 273.123 327.05 292.196 327.05Z" fill="#FFC000"/>
<path d="M326.73 292.254V292.516C326.729 297.855 325.491 303.121 323.112 307.9C320.732 312.68 317.278 316.843 313.018 320.062C308.759 323.281 303.811 325.469 298.564 326.453C293.317 327.438 287.913 327.192 282.776 325.736C277.64 324.28 272.911 321.652 268.961 318.06C265.011 314.468 261.948 310.009 260.012 305.034C258.076 300.058 257.321 294.701 257.804 289.384C258.288 284.067 259.997 278.935 262.799 274.39C262.311 276.687 262.064 279.028 262.063 281.375C262.076 289.23 264.868 296.826 269.945 302.819C275.023 308.812 282.057 312.815 289.803 314.118C297.549 315.421 305.506 313.94 312.265 309.939C319.023 305.937 324.148 299.672 326.73 292.254Z" fill="#FFC000"/>
<path opacity="0.2" d="M326.73 292.254V292.516C326.729 297.855 325.491 303.121 323.112 307.9C320.732 312.68 317.278 316.843 313.018 320.062C308.759 323.281 303.811 325.469 298.564 326.453C293.317 327.438 287.913 327.192 282.776 325.736C277.64 324.28 272.911 321.652 268.961 318.06C265.011 314.468 261.948 310.009 260.012 305.034C258.076 300.058 257.321 294.701 257.804 289.384C258.288 284.067 259.997 278.935 262.799 274.39C262.311 276.687 262.064 279.028 262.063 281.375C262.076 289.23 264.868 296.826 269.945 302.819C275.023 308.812 282.057 312.815 289.803 314.118C297.549 315.421 305.506 313.94 312.265 309.939C319.023 305.937 324.148 299.672 326.73 292.254Z" fill="#FFC000"/>
<g opacity="0.1">
<path d="M326.73 292.254V292.516C326.729 297.855 325.491 303.121 323.112 307.9C320.732 312.68 317.278 316.843 313.018 320.062C308.759 323.281 303.811 325.469 298.564 326.453C293.317 327.438 287.913 327.192 282.776 325.736C277.64 324.28 272.911 321.652 268.961 318.06C265.011 314.468 261.948 310.009 260.012 305.034C258.076 300.058 257.321 294.701 257.804 289.384C258.288 284.067 259.997 278.935 262.799 274.39C262.311 276.687 262.064 279.028 262.063 281.375C262.076 289.23 264.868 296.826 269.945 302.819C275.023 308.812 282.057 312.815 289.803 314.118C297.549 315.421 305.506 313.94 312.265 309.939C319.023 305.937 324.148 299.672 326.73 292.254Z" fill="black"/>
<path opacity="0.2" d="M326.73 292.254V292.516C326.729 297.855 325.491 303.121 323.112 307.9C320.732 312.68 317.278 316.843 313.018 320.062C308.759 323.281 303.811 325.469 298.564 326.453C293.317 327.438 287.913 327.192 282.776 325.736C277.64 324.28 272.911 321.652 268.961 318.06C265.011 314.468 261.948 310.009 260.012 305.034C258.076 300.058 257.321 294.701 257.804 289.384C258.288 284.067 259.997 278.935 262.799 274.39C262.311 276.687 262.064 279.028 262.063 281.375C262.076 289.23 264.868 296.826 269.945 302.819C275.023 308.812 282.057 312.815 289.803 314.118C297.549 315.421 305.506 313.94 312.265 309.939C319.023 305.937 324.148 299.672 326.73 292.254Z" fill="black"/>
</g>
<path d="M278.291 289.915C278.289 291.952 278.689 293.969 279.467 295.852C280.246 297.734 281.388 299.445 282.829 300.885C284.269 302.326 285.98 303.468 287.862 304.247C289.745 305.025 291.762 305.425 293.799 305.423C294.771 305.423 295.741 305.33 296.695 305.145C298.068 305.974 299.637 306.424 301.241 306.448C302.845 306.471 304.427 306.068 305.823 305.279C307.22 304.489 308.382 303.343 309.19 301.957C309.998 300.571 310.422 298.995 310.42 297.391C310.428 295.707 309.957 294.056 309.062 292.63C309.22 291.733 309.302 290.825 309.308 289.915C309.303 285.803 307.668 281.861 304.761 278.953C301.853 276.046 297.911 274.411 293.799 274.406C292.838 274.407 291.88 274.5 290.937 274.684C289.204 273.67 287.183 273.261 285.192 273.522C283.201 273.783 281.354 274.698 279.94 276.125C278.527 277.551 277.629 279.407 277.386 281.4C277.144 283.393 277.572 285.41 278.602 287.134C278.414 288.049 278.31 288.98 278.291 289.915ZM293.963 278.905C298.969 279.199 301.897 281.392 302.142 283.453C302.186 283.77 302.158 284.092 302.058 284.396C301.959 284.7 301.792 284.978 301.57 285.208C301.348 285.438 301.076 285.615 300.776 285.724C300.475 285.834 300.154 285.874 299.836 285.841C297.578 285.841 297.349 282.815 293.456 282.815C291.705 282.815 290.184 283.551 290.184 285.138C290.184 288.41 302.666 286.528 302.666 293.808C302.666 298.012 299.296 300.761 294.274 300.761C289.857 300.761 285.424 298.765 285.44 295.313C285.426 294.81 285.608 294.322 285.946 293.949C286.285 293.577 286.754 293.351 287.256 293.317C289.857 293.317 289.841 297.194 293.979 297.194C296.891 297.194 297.873 295.558 297.873 294.495C297.873 290.503 285.325 292.957 285.325 285.449C285.391 281.359 288.728 278.561 293.963 278.872V278.905Z" fill="white"/>
<path d="M212.392 227.456C217.524 205.469 203.861 183.484 181.874 178.351C159.888 173.219 137.903 186.882 132.77 208.869C127.637 230.855 141.3 252.84 163.287 257.973C185.274 263.105 207.259 249.442 212.392 227.456Z" fill="#FFC000"/>
<path opacity="0.5" d="M213.461 217.935V218.246C213.447 224.567 211.969 230.798 209.142 236.452C206.315 242.105 202.216 247.026 197.167 250.829C192.118 254.631 186.256 257.212 180.042 258.367C173.828 259.523 167.43 259.223 161.352 257.49C155.273 255.757 149.679 252.639 145.008 248.38C140.337 244.122 136.717 238.838 134.432 232.945C132.147 227.052 131.259 220.709 131.838 214.415C132.417 208.121 134.446 202.046 137.768 196.668C137.194 199.39 136.904 202.164 136.901 204.946C136.897 214.256 140.193 223.266 146.204 230.376C152.215 237.485 160.552 242.234 169.733 243.778C178.914 245.321 188.346 243.561 196.352 238.809C204.357 234.056 210.419 226.62 213.461 217.821V217.935Z" fill="#FFC000"/>
<path opacity="0.1" d="M213.461 217.935V218.246C213.447 224.567 211.969 230.798 209.142 236.452C206.315 242.105 202.216 247.026 197.167 250.829C192.118 254.631 186.256 257.212 180.042 258.367C173.828 259.523 167.43 259.223 161.352 257.49C155.273 255.757 149.679 252.639 145.008 248.38C140.337 244.122 136.717 238.838 134.432 232.945C132.147 227.052 131.259 220.709 131.838 214.415C132.417 208.121 134.446 202.046 137.768 196.668C137.194 199.39 136.904 202.164 136.901 204.946C136.897 214.256 140.193 223.266 146.204 230.376C152.215 237.485 160.552 242.234 169.733 243.778C178.914 245.321 188.346 243.561 196.352 238.809C204.357 234.056 210.419 226.62 213.461 217.821V217.935Z" fill="black"/>
<path fill-rule="evenodd" clip-rule="evenodd" d="M188.235 220.961C187.915 220.792 187.574 220.666 187.221 220.585C185.558 220.018 184.105 218.963 183.049 217.559C182.459 216.805 181.985 215.966 181.643 215.072C181.557 214.908 181.512 214.726 181.512 214.54C181.512 214.355 181.557 214.173 181.643 214.009C182.019 213.576 182.514 213.263 183.066 213.109C183.768 212.906 184.424 212.567 184.996 212.111C185.116 212.022 185.212 211.904 185.274 211.768C185.277 211.719 185.277 211.669 185.274 211.62C185.307 211.543 185.323 211.459 185.323 211.375C185.323 211.291 185.307 211.207 185.274 211.13C185.12 210.849 184.879 210.625 184.587 210.492C184.412 210.393 184.218 210.333 184.018 210.313C183.819 210.293 183.617 210.315 183.426 210.377C183.089 210.502 182.745 210.606 182.395 210.688C182.01 210.796 181.602 210.796 181.217 210.688C181.223 210.606 181.223 210.524 181.217 210.443C181.217 209.739 181.217 209.003 181.217 208.25C181.314 207.08 181.314 205.904 181.217 204.733C180.803 202.736 179.63 200.977 177.945 199.826C176.759 198.966 175.364 198.44 173.905 198.304C173.425 198.28 172.945 198.28 172.465 198.304C170.491 198.27 168.56 198.885 166.969 200.055C165.801 200.974 164.884 202.172 164.302 203.539C163.85 204.914 163.7 206.37 163.86 207.809C163.933 208.74 163.933 209.675 163.86 210.606C163.401 210.695 162.929 210.695 162.47 210.606C162.11 210.53 161.755 210.432 161.407 210.312C161.228 210.273 161.044 210.273 160.866 210.313C160.688 210.353 160.521 210.43 160.376 210.541C160.221 210.622 160.089 210.741 159.991 210.887C159.894 211.033 159.835 211.201 159.82 211.375C159.875 211.6 160.001 211.8 160.18 211.948L160.54 212.209C161.221 212.603 161.945 212.916 162.699 213.142C162.92 213.218 163.121 213.341 163.291 213.502C163.46 213.663 163.593 213.858 163.68 214.074C163.731 214.648 163.593 215.222 163.288 215.71C162.529 217.214 161.404 218.502 160.016 219.456C159.277 219.961 158.459 220.337 157.595 220.569C157.256 220.621 156.947 220.796 156.728 221.06C156.735 221.092 156.735 221.125 156.728 221.158C156.692 221.272 156.686 221.393 156.709 221.51C156.731 221.627 156.783 221.736 156.859 221.828C156.959 221.955 157.088 222.056 157.235 222.123C157.937 222.485 158.686 222.75 159.46 222.908C159.932 222.986 160.397 223.101 160.85 223.252C160.85 223.252 160.85 223.415 160.998 223.628C161.145 223.841 161.178 224.495 161.325 224.986C161.348 225.054 161.389 225.114 161.444 225.16C161.498 225.206 161.565 225.236 161.636 225.247C161.805 225.309 161.99 225.309 162.159 225.247C163.311 224.969 164.507 224.925 165.676 225.117C166.84 225.565 167.94 226.164 168.948 226.9C169.73 227.451 170.645 227.784 171.598 227.865C172.344 227.914 173.093 227.914 173.839 227.865C174.461 227.798 175.06 227.591 175.59 227.26C176.695 226.537 177.836 225.871 179.009 225.264C179.457 225.145 179.919 225.09 180.383 225.1C181.345 225.067 182.308 225.116 183.262 225.247H183.36C183.489 225.223 183.605 225.153 183.687 225.051C183.716 225.027 183.74 224.997 183.757 224.963C183.774 224.929 183.783 224.892 183.786 224.855C183.786 224.708 183.786 224.757 183.786 224.855C183.794 224.828 183.794 224.8 183.786 224.773C183.885 224.269 184.073 223.787 184.342 223.35C184.516 223.22 184.73 223.156 184.947 223.17C185.731 223.041 186.499 222.827 187.237 222.532C187.6 222.416 187.924 222.201 188.17 221.91C188.221 221.836 188.257 221.751 188.275 221.663C188.293 221.574 188.293 221.483 188.274 221.394C188.256 221.305 188.22 221.221 188.168 221.147C188.116 221.073 188.05 221.009 187.974 220.961H188.235Z" fill="white"/>
<path d="M361 148.148C367.219 125.43 353.844 101.972 331.127 95.7529C308.409 89.5337 284.951 102.909 278.732 125.626C272.512 148.344 285.887 171.802 308.605 178.022C331.323 184.241 354.781 170.866 361 148.148Z" fill="#FFC000"/>
<path opacity="0.5" d="M362.491 136.549V136.876C362.481 143.465 360.945 149.962 358.003 155.857C355.061 161.752 350.793 166.885 345.534 170.854C340.275 174.823 334.168 177.52 327.692 178.732C321.216 179.945 314.548 179.641 308.209 177.843C301.87 176.046 296.034 172.805 291.159 168.373C286.283 163.942 282.5 158.441 280.107 152.302C277.715 146.164 276.777 139.554 277.367 132.992C277.957 126.43 280.06 120.094 283.51 114.481C281.34 124.698 283.144 135.358 288.554 144.292C293.965 153.227 302.575 159.765 312.635 162.576C322.694 165.387 333.447 164.261 342.706 159.426C351.964 154.591 359.033 146.411 362.475 136.549H362.491Z" fill="#FFC000"/>
<path opacity="0.1" d="M362.491 136.549V136.876C362.481 143.465 360.945 149.962 358.003 155.857C355.061 161.752 350.793 166.885 345.534 170.854C340.275 174.823 334.168 177.52 327.692 178.732C321.216 179.945 314.548 179.641 308.209 177.843C301.87 176.046 296.034 172.805 291.159 168.373C286.283 163.942 282.5 158.441 280.107 152.302C277.715 146.164 276.777 139.554 277.367 132.992C277.957 126.43 280.06 120.094 283.51 114.481C281.34 124.698 283.144 135.358 288.554 144.292C293.965 153.227 302.575 159.765 312.635 162.576C322.694 165.387 333.447 164.261 342.706 159.426C351.964 154.591 359.033 146.411 362.475 136.549H362.491Z" fill="#FFC000"/>
<g opacity="0.1">
<path opacity="0.5" d="M362.491 136.549V136.876C362.481 143.465 360.945 149.962 358.003 155.857C355.061 161.752 350.793 166.885 345.534 170.854C340.275 174.823 334.168 177.52 327.692 178.732C321.216 179.945 314.548 179.641 308.209 177.843C301.87 176.046 296.034 172.805 291.159 168.373C286.283 163.942 282.5 158.441 280.107 152.302C277.715 146.164 276.777 139.554 277.367 132.992C277.957 126.43 280.06 120.094 283.51 114.481C281.34 124.698 283.144 135.358 288.554 144.292C293.965 153.227 302.575 159.765 312.635 162.576C322.694 165.387 333.447 164.261 342.706 159.426C351.964 154.591 359.033 146.411 362.475 136.549H362.491Z" fill="black"/>
<path opacity="0.1" d="M362.491 136.549V136.876C362.481 143.465 360.945 149.962 358.003 155.857C355.061 161.752 350.793 166.885 345.534 170.854C340.275 174.823 334.168 177.52 327.692 178.732C321.216 179.945 314.548 179.641 308.209 177.843C301.87 176.046 296.034 172.805 291.159 168.373C286.283 163.942 282.5 158.441 280.107 152.302C277.715 146.164 276.777 139.554 277.367 132.992C277.957 126.43 280.06 120.094 283.51 114.481C281.34 124.698 283.144 135.358 288.554 144.292C293.965 153.227 302.575 159.765 312.635 162.576C322.694 165.387 333.447 164.261 342.706 159.426C351.964 154.591 359.033 146.411 362.475 136.549H362.491Z" fill="black"/>
</g>
<path fill-rule="evenodd" clip-rule="evenodd" d="M335.171 131.822C335.029 128.059 333.444 124.495 330.744 121.871C328.044 119.246 324.436 117.763 320.671 117.73C316.905 117.696 313.272 119.114 310.525 121.69C307.778 124.265 306.129 127.8 305.921 131.56C305.921 131.773 305.921 131.985 305.921 132.198C305.919 134.84 306.643 137.432 308.015 139.69L305.381 147.494L313.479 144.909C315.649 146.1 318.086 146.725 320.562 146.725C322.476 146.731 324.373 146.361 326.144 145.634C327.915 144.908 329.525 143.839 330.883 142.49C332.241 141.141 333.32 139.538 334.059 137.772C334.797 136.006 335.18 134.112 335.187 132.198L335.171 131.822ZM320.546 144.402C318.137 144.41 315.781 143.704 313.773 142.373L309.045 143.895L310.583 139.347C309.056 137.276 308.231 134.771 308.227 132.198C308.227 131.789 308.227 131.396 308.227 131.004C308.529 127.941 309.966 125.102 312.256 123.045C314.547 120.989 317.524 119.864 320.601 119.893C323.679 119.922 326.635 121.102 328.886 123.2C331.137 125.299 332.521 128.165 332.766 131.233C332.766 131.56 332.766 131.871 332.766 132.198C332.744 135.431 331.449 138.525 329.162 140.809C326.874 143.094 323.779 144.385 320.546 144.402Z" fill="white"/>
<path fill-rule="evenodd" clip-rule="evenodd" d="M327.254 135.126C326.894 134.946 325.127 134.079 324.8 133.965C324.473 133.85 324.228 133.785 323.982 134.145C323.737 134.505 323.05 135.306 322.854 135.535C322.657 135.764 322.428 135.797 322.068 135.617C321.008 135.211 320.031 134.612 319.189 133.85C318.4 133.141 317.727 132.313 317.193 131.396C317.154 131.34 317.127 131.276 317.113 131.209C317.099 131.142 317.099 131.072 317.113 131.005C317.126 130.938 317.154 130.874 317.193 130.817C317.232 130.761 317.282 130.713 317.341 130.677C317.52 130.513 317.7 130.251 317.897 130.039L318.028 129.875C318.109 129.744 318.159 129.613 318.24 129.45C318.293 129.355 318.321 129.248 318.321 129.139C318.321 129.03 318.293 128.923 318.24 128.828C318.142 128.648 317.422 126.898 317.128 126.178C316.833 125.458 316.523 125.589 316.31 125.589H315.639C315.457 125.595 315.278 125.637 315.112 125.713C314.947 125.789 314.798 125.897 314.674 126.031C314.27 126.413 313.949 126.875 313.732 127.387C313.515 127.9 313.407 128.452 313.414 129.008C313.422 129.419 313.488 129.826 313.611 130.218C313.884 131.112 314.317 131.948 314.887 132.689C316.379 135.023 318.5 136.888 321.005 138.071C324.669 139.494 324.669 139.02 325.324 138.954C325.821 138.87 326.294 138.68 326.711 138.398C327.129 138.116 327.481 137.748 327.745 137.318C327.964 136.803 328.038 136.237 327.958 135.682C327.843 135.388 327.679 135.306 327.254 135.126Z" fill="white"/>
<path d="M569.318 308.074C574.295 296.377 572.965 284.612 566.348 281.796C559.73 278.98 550.331 286.18 545.354 297.877C540.377 309.574 541.706 321.339 548.324 324.155C554.941 326.971 564.341 319.771 569.318 308.074Z" fill="#FFC000"/>
<path opacity="0.2" d="M569.318 308.074C574.295 296.377 572.965 284.612 566.348 281.796C559.73 278.98 550.331 286.18 545.354 297.877C540.377 309.574 541.706 321.339 548.324 324.155C554.941 326.971 564.341 319.771 569.318 308.074Z" fill="black"/>
<path d="M555.478 328.342L547.609 323.811L567.273 282.226L575.191 286.856L555.478 328.342Z" fill="#FFC000"/>
<path opacity="0.2" d="M555.478 328.342L547.609 323.811L567.273 282.226L575.191 286.856L555.478 328.342Z" fill="black"/>
<path d="M564.902 335.72L557.017 331.172L556.936 326.935H564.902V335.72Z" fill="#FFC000"/>
<path d="M564.902 335.72L557.017 331.172L556.936 326.935H564.902V335.72Z" fill="#FFC000"/>
<path d="M564.902 335.72L557.017 331.172L556.936 326.935H564.902V335.72Z" fill="#FFC000"/>
<path opacity="0.2" d="M564.902 335.72L557.017 331.172L556.936 326.935H564.902V335.72Z" fill="black"/>
<path d="M561.826 328.996L564.754 335.54C564.791 335.636 564.856 335.719 564.94 335.778C565.025 335.836 565.126 335.868 565.229 335.868C565.332 335.868 565.432 335.836 565.517 335.778C565.602 335.719 565.667 335.636 565.703 335.54L568.811 325.021V320.997L561.826 325.021V328.996Z" fill="#FFC000"/>
<path d="M553.859 324.383L556.788 330.927C556.824 331.023 556.889 331.106 556.974 331.165C557.058 331.223 557.159 331.255 557.262 331.255C557.365 331.255 557.466 331.223 557.55 331.165C557.635 331.106 557.7 331.023 557.736 330.927L560.828 320.424V316.4L553.859 320.424V324.383Z" fill="#FFC000"/>
<path opacity="0.2" d="M553.859 324.383L556.788 330.927C556.824 331.023 556.889 331.106 556.974 331.165C557.058 331.223 557.159 331.255 557.262 331.255C557.365 331.255 557.466 331.223 557.55 331.165C557.635 331.106 557.7 331.023 557.736 330.927L560.828 320.424V316.4L553.859 320.424V324.383Z" fill="black"/>
<path d="M580.312 298.928C580.312 309.971 573.605 322.796 565.311 327.573C557.017 332.35 550.326 327.278 550.326 316.236C550.326 305.194 557.033 292.385 565.311 287.592C573.589 282.798 580.312 287.886 580.312 298.928Z" fill="#FFC000"/>
<path d="M572.214 302.789C572.566 302.475 572.851 302.092 573.05 301.665C573.25 301.238 573.361 300.774 573.376 300.303C573.376 299.272 572.738 298.797 571.969 299.239L567.781 301.66C567.935 301.412 568.051 301.142 568.125 300.859L568.37 299.894C568.773 298.317 568.96 296.694 568.926 295.068C568.926 294.299 568.419 293.955 567.83 294.299C567.554 294.488 567.317 294.73 567.135 295.01C566.952 295.291 566.827 295.605 566.767 295.935L566.325 298.225C566.277 298.432 566.211 298.634 566.129 298.83L563.348 305.21C562.492 306.33 561.869 307.609 561.516 308.973V316.482C561.516 317.005 562.317 317.25 562.71 317.021L567.896 314.175L571.38 312.228C571.748 311.974 572.053 311.638 572.268 311.246C572.484 310.854 572.606 310.418 572.623 309.971C572.623 309.284 572.313 308.907 571.838 308.956C572.148 308.682 572.399 308.348 572.576 307.974C572.754 307.6 572.853 307.194 572.869 306.781C572.888 306.596 572.861 306.409 572.789 306.238C572.718 306.066 572.604 305.916 572.46 305.799C572.917 305.237 573.181 304.543 573.212 303.82C573.212 303.002 572.787 302.642 572.214 302.789Z" fill="white"/>
<path d="M556.363 321.765L559.634 319.77C559.777 319.644 559.889 319.487 559.96 319.311C560.031 319.135 560.06 318.945 560.043 318.755V309.398C560.043 309.005 559.749 308.825 559.454 308.989L556.314 311.001C556.019 311.165 556.117 311.623 556.117 312.015V321.356C556.183 321.749 556.068 321.929 556.363 321.765Z" fill="white"/>
<path d="M95.1467 324.173C101.764 321.357 103.094 309.592 98.1169 297.895C93.1397 286.198 83.7403 278.998 77.1228 281.814C70.5052 284.63 69.1754 296.395 74.1526 308.092C79.1298 319.789 88.5292 326.989 95.1467 324.173Z" fill="#FFC000"/>
<g opacity="0.2">
<path d="M95.1467 324.173C101.764 321.357 103.094 309.592 98.1169 297.895C93.1397 286.198 83.7403 278.998 77.1228 281.814C70.5052 284.629 69.1754 296.394 74.1526 308.092C79.1298 319.789 88.5292 326.988 95.1467 324.173Z" fill="black"/>
</g>
<path d="M88.0055 328.342L95.8742 323.811L76.2107 282.226L68.293 286.856L88.0055 328.342Z" fill="#FFC000"/>
<path opacity="0.2" d="M88.0055 328.342L95.8742 323.811L76.2107 282.226L68.293 286.856L88.0055 328.342Z" fill="black"/>
<path d="M78.582 335.72L86.4671 331.172L86.5488 326.935H78.582V335.72Z" fill="#FFC000"/>
<path d="M78.582 335.72L86.4671 331.172L86.5488 326.935H78.582V335.72Z" fill="#FFC000"/>
<path opacity="0.2" d="M78.582 335.72L86.4671 331.172L86.5488 326.935H78.582V335.72Z" fill="white"/>
<path d="M81.6572 328.996L78.7289 335.54C78.6925 335.636 78.6276 335.719 78.5429 335.778C78.4581 335.836 78.3575 335.868 78.2545 335.868C78.1515 335.868 78.0509 335.836 77.9661 335.778C77.8814 335.719 77.8165 335.636 77.7801 335.54L74.6719 325.021V320.997L81.6572 325.021V328.996Z" fill="#FFC000"/>
<path d="M89.6252 324.383L86.6969 330.927C86.6605 331.023 86.5956 331.106 86.5109 331.165C86.4261 331.223 86.3255 331.255 86.2225 331.255C86.1195 331.255 86.0189 331.223 85.9341 331.165C85.8494 331.106 85.7845 331.023 85.7481 330.927L82.6562 320.424V316.4L89.6252 320.424V324.383Z" fill="#FFC000"/>
<g opacity="0.2">
<path d="M89.6252 324.383L86.6969 330.927C86.6605 331.023 86.5956 331.106 86.5109 331.165C86.4261 331.223 86.3255 331.255 86.2225 331.255C86.1195 331.255 86.0189 331.223 85.9341 331.165C85.8494 331.106 85.7845 331.023 85.7481 330.927L82.6562 320.424V316.4L89.6252 320.424V324.383Z" fill="white"/>
</g>
<path d="M87.1977 328.819C93.8318 325.996 95.1665 314.205 90.1787 302.483C85.1909 290.761 75.7695 283.547 69.1353 286.37C62.5011 289.193 61.1665 300.984 66.1542 312.706C71.142 324.428 80.5635 331.642 87.1977 328.819Z" fill="#FFC000"/>
<path d="M88.4297 313.324C88.5572 315.9 87.7947 318.442 86.2703 320.522C84.3727 322.78 81.4608 323.32 78.0908 321.422C74.3778 318.915 71.523 315.329 69.9113 311.149C68.5617 308.1 67.8278 304.814 67.752 301.48L88.4297 313.324Z" fill="#FFC000"/>
<path opacity="0.3" d="M88.4297 313.324C88.5572 315.9 87.7947 318.442 86.2703 320.522C84.3727 322.78 81.4608 323.32 78.0908 321.422C74.3778 318.915 71.523 315.329 69.9113 311.149C68.5617 308.1 67.8278 304.814 67.752 301.48L88.4297 313.324Z" fill="black"/>
<path d="M86.2711 320.522C84.3734 322.78 81.4615 323.32 78.0916 321.422C74.3786 318.915 71.5238 315.329 69.9121 311.148C72.0061 309.643 74.8198 309.627 78.0916 311.427C81.5966 313.656 84.4252 316.801 86.2711 320.522Z" fill="#FFC000"/>
<path opacity="0.2" d="M86.2711 320.522C84.3734 322.78 81.4615 323.32 78.0916 321.422C74.3786 318.915 71.5238 315.329 69.9121 311.148C72.0061 309.643 74.8198 309.627 78.0916 311.427C81.5966 313.656 84.4252 316.801 86.2711 320.522Z" fill="white"/>
<path d="M87.6929 308.613C87.4675 308.61 87.2515 308.522 87.0876 308.367L81.7546 303.313C81.6319 303.198 81.5451 303.051 81.5044 302.888C81.4638 302.726 81.4711 302.555 81.5255 302.396C81.5855 302.241 81.6876 302.104 81.8205 302.003C81.9534 301.902 82.1118 301.84 82.2781 301.824L86.3842 301.448C86.6134 301.429 86.8408 301.501 87.018 301.648C87.1952 301.794 87.3082 302.004 87.333 302.233C87.3442 302.347 87.3328 302.462 87.2994 302.571C87.2659 302.681 87.2111 302.783 87.1381 302.871C87.0651 302.959 86.9753 303.032 86.874 303.085C86.7727 303.139 86.6618 303.171 86.5478 303.182L84.3393 303.378L88.2818 307.108C88.4104 307.226 88.5002 307.381 88.5395 307.551C88.5788 307.721 88.5658 307.899 88.5021 308.062C88.4384 308.225 88.3271 308.364 88.1827 308.462C88.0383 308.561 87.8676 308.613 87.6929 308.613Z" fill="#FFC000"/>
<g opacity="0.2">
<path d="M87.6929 308.613C87.4675 308.61 87.2515 308.522 87.0876 308.367L81.7546 303.313C81.6319 303.198 81.5451 303.051 81.5044 302.888C81.4638 302.726 81.4711 302.555 81.5255 302.396C81.5855 302.241 81.6876 302.104 81.8205 302.003C81.9534 301.902 82.1118 301.84 82.2781 301.824L86.3842 301.448C86.6134 301.429 86.8408 301.501 87.018 301.648C87.1952 301.794 87.3082 302.004 87.333 302.233C87.3442 302.347 87.3328 302.462 87.2994 302.571C87.2659 302.681 87.2111 302.783 87.1381 302.871C87.0651 302.959 86.9753 303.032 86.874 303.085C86.7727 303.139 86.6618 303.171 86.5478 303.182L84.3393 303.378L88.2818 307.108C88.4104 307.226 88.5002 307.381 88.5395 307.551C88.5788 307.721 88.5658 307.899 88.5021 308.062C88.4384 308.225 88.3271 308.364 88.1827 308.462C88.0383 308.561 87.8676 308.613 87.6929 308.613Z" fill="black"/>
</g>
<path d="M74.1164 298.83H73.9528L68.6034 297.718C68.4706 297.724 68.3381 297.699 68.2163 297.646C68.0945 297.592 67.9866 297.512 67.901 297.41C67.8153 297.308 67.7542 297.188 67.7224 297.059C67.6906 296.93 67.6889 296.795 67.7175 296.665C67.7461 296.535 67.8042 296.414 67.8872 296.31C67.9703 296.206 68.0761 296.123 68.1965 296.066C68.317 296.01 68.4488 295.982 68.5817 295.985C68.7147 295.987 68.8452 296.021 68.9633 296.082L71.9243 296.704L69.3232 293.432C69.1779 293.252 69.11 293.021 69.1345 292.791C69.1591 292.561 69.274 292.35 69.4541 292.205C69.6341 292.059 69.8645 291.992 70.0946 292.016C70.3247 292.041 70.5357 292.156 70.681 292.336L74.8035 297.472C74.904 297.619 74.9579 297.793 74.9579 297.971C74.9579 298.149 74.904 298.323 74.8035 298.47C74.7247 298.58 74.6217 298.669 74.5024 298.731C74.3831 298.794 74.251 298.828 74.1164 298.83Z" fill="#FFC000"/>
<g opacity="0.2">
<path d="M74.1164 298.83H73.9528L68.6034 297.718C68.4706 297.724 68.3381 297.699 68.2163 297.646C68.0945 297.592 67.9866 297.512 67.901 297.41C67.8153 297.308 67.7542 297.188 67.7224 297.059C67.6906 296.93 67.6889 296.795 67.7175 296.665C67.7461 296.535 67.8042 296.414 67.8872 296.31C67.9703 296.206 68.0761 296.123 68.1965 296.066C68.317 296.01 68.4488 295.982 68.5817 295.985C68.7147 295.987 68.8452 296.021 68.9633 296.082L71.9243 296.704L69.3232 293.432C69.1779 293.252 69.11 293.021 69.1345 292.791C69.1591 292.561 69.274 292.35 69.4541 292.205C69.6341 292.059 69.8645 291.992 70.0946 292.016C70.3247 292.041 70.5357 292.156 70.681 292.336L74.8035 297.472C74.904 297.619 74.9579 297.793 74.9579 297.971C74.9579 298.149 74.904 298.323 74.8035 298.47C74.7247 298.58 74.6217 298.669 74.5024 298.731C74.3831 298.794 74.251 298.828 74.1164 298.83Z" fill="black"/>
</g>
<path d="M531.969 422.586C532.722 424.467 537.417 434.397 543.666 429.653C551.208 423.928 560.679 398.048 560.679 398.048L553.711 394.776L540.345 416.484L531.953 422.586" fill="#F28F8F"/>
<path d="M532.411 380.838C535.683 392.028 542.455 416.942 542.455 416.942C542.455 416.942 539.674 432.156 534.783 426.921C533.147 425.155 532.28 423.519 530.546 419.265C529.008 415.437 524.411 399.831 524.411 399.831C524.411 399.831 525.393 377.403 521.892 374.442C520.011 372.762 517.83 371.452 515.463 370.581C521.041 371.023 529.352 370.581 532.411 380.838Z" fill="#F28F8F"/>
<path d="M515.398 370.532C518.215 370.361 521.042 370.515 523.823 370.99C527.095 371.775 530.629 374.818 532.215 380.249C533.802 385.68 540.657 410.3 540.657 410.3C540.657 410.3 537.876 415.208 527.373 415.306L515.398 370.532Z" fill="#37474F"/>
<path d="M548.1 382.441C549.949 379.006 550.407 378.842 551.503 378.09C552.599 377.337 559.355 376.339 562.153 376.094C565.424 375.816 566.602 376.421 565.686 379.251C563.166 386.389 560.081 393.315 556.46 399.962C555.593 401.123 555.413 402.203 551.699 402.563C548.247 402.906 543.912 403.103 542.636 403.168C541.36 403.233 539.594 403.561 540.739 399.814C542.194 395.565 543.882 391.398 545.794 387.333C547.217 384.241 548.1 382.441 548.1 382.441Z" fill="#263238"/>
<path d="M560.679 398.047C562.053 391.962 566.094 386.351 563.82 384.29L562.593 386.972C562.593 386.972 555.019 388.788 551.371 388.51C547.723 388.232 544.713 387.365 543.715 388.068C541.588 389.573 540.983 395.937 547.069 398.26C552.238 400.223 560.679 398.047 560.679 398.047Z" fill="#F28F8F"/>
<path d="M511.52 362.761H505.14C502.301 362.763 499.489 362.206 496.865 361.121C494.242 360.036 491.857 358.444 489.849 356.438C487.841 354.431 486.247 352.048 485.16 349.425C484.073 346.802 483.514 343.99 483.514 341.151C483.514 334.569 486.128 328.257 490.782 323.603C495.436 318.949 501.748 316.334 508.33 316.334C514.912 316.334 521.224 318.949 525.878 323.603C530.532 328.257 533.147 334.569 533.147 341.151C533.147 343.99 532.587 346.802 531.5 349.425C530.413 352.048 528.82 354.431 526.812 356.438C524.803 358.444 522.419 360.036 519.795 361.121C517.171 362.206 514.359 362.763 511.52 362.761Z" fill="#263238"/>
<path d="M471.639 376.028C475.662 376.028 479.521 374.431 482.368 371.588C485.214 368.744 486.815 364.887 486.82 360.864V332.072C482.794 332.072 478.932 333.671 476.085 336.518C473.238 339.365 471.639 343.227 471.639 347.253V376.028Z" fill="#263238"/>
<path d="M512.143 590.217C512.083 591.425 512.391 592.623 513.027 593.652C514.633 596.329 516.531 598.82 518.687 601.079C521.713 604.351 526.245 608.179 529.5 611.025C531.299 612.661 531.365 614.984 528.797 615.819C523.979 616.992 518.895 616.284 514.581 613.839C511.309 612.105 506.761 604.024 504.062 602.879C500.986 601.488 499.252 600.785 498.205 599.361C497.4 598.56 496.898 597.503 496.784 596.373C496.671 595.242 496.953 594.107 497.584 593.161C499.04 590.462 501.215 586.291 502.115 586.749L501.837 587.616C502.54 589.824 508.561 592.392 511.652 591.771L512.143 590.217Z" fill="#263238"/>
<path d="M514.858 579.567C513.677 583.05 512.774 586.622 512.159 590.249C512.069 591.445 512.367 592.638 513.009 593.652C514.635 596.325 516.538 598.82 518.686 601.095C520.158 602.731 521.958 604.367 523.872 606.003C524.031 606.234 524.122 606.507 524.133 606.788C524.133 608.424 520.027 608.931 517.59 608.227C514.569 607.157 511.964 605.159 510.147 602.518C508.756 600.67 505.631 597.103 503.603 594.453C502.92 593.631 502.338 592.731 501.869 591.77C501.323 590.567 501.235 589.206 501.623 587.942L501.738 587.55C502.814 584.242 503.473 580.813 503.701 577.342" fill="#FFA8A7"/>
<path d="M486.361 593.897C486.871 597.007 487.128 600.152 487.13 603.304V610.272H497.453V598.396C497.482 598.393 497.509 598.384 497.535 598.37C497.56 598.356 497.582 598.337 497.6 598.314C497.6 598.314 497.78 595.991 498.058 592.327" fill="#FFA8A7"/>
<path d="M514.859 579.567C520.568 561.114 533.263 528.085 534.997 522.31C536.862 516.143 534.211 462.109 532.706 444.818L479.311 442.053C475.221 459.59 479.212 483.229 480.619 497.985C481.977 512.364 483.662 529.148 483.662 529.148C483.662 529.148 479.458 543.79 480.57 555.454C481.29 562.799 484.758 584.507 486.329 593.979C488.287 594.521 490.335 594.655 492.347 594.374C494.358 594.092 496.291 593.401 498.025 592.343C498.68 584.033 499.939 568.852 501.101 558.938C502.884 544.051 503.473 533.189 505.011 524.486C506.925 513.64 507.595 471.123 507.595 471.123L513.795 519.349C511.337 523.875 509.468 528.696 508.233 533.696C506.467 540.551 504.569 566.283 503.8 577.424C506.516 579.289 510.246 579.976 514.859 579.567Z" fill="#37474F"/>
<path d="M507.627 471.107C507.627 471.107 517.442 467.655 523.053 462.518C520.238 466.899 516.239 470.393 511.52 472.595L511.439 500.831L507.627 471.107Z" fill="#263238"/>
<path d="M499.759 371.039C499.759 371.039 485.15 372.675 483.4 373.509C492.299 383.324 486.819 398.048 486.819 398.048L491.268 420.95C485.428 428.426 480.422 434.315 479.016 443.215C485.281 454.257 520.257 456.122 533.147 447.893C532.019 432.5 527.356 421.523 528.24 416.893C534.374 397.998 534.783 394.579 533.671 390.359C530.595 378.499 518.506 370.466 515.512 370.466L499.759 371.039Z" fill="#455A64"/>
<path d="M457.062 422.57C456.048 419.903 460.334 412.378 463.409 407.356L475.924 413.523L471.638 421.343C474.122 428.644 477.14 435.752 480.668 442.61C481.276 443.667 482.256 444.46 483.416 444.834C485.976 445.883 488.373 447.293 490.532 449.022C492.512 450.315 493.968 450.396 493.804 450.985C493.637 451.64 493.229 452.207 492.662 452.574C492.095 452.941 491.411 453.081 490.745 452.965C489.265 452.74 487.816 452.345 486.426 451.787C487.932 454.008 489.788 455.969 491.923 457.594C496.831 461.341 497.632 464.138 490.009 466.003C485.249 467.181 480.733 465.119 474.648 455.435C472.897 452.638 470.607 448.532 468.759 444.785C464.473 435.968 459.434 428.704 457.062 422.57Z" fill="#FFA8A7"/>
<path d="M483.401 373.509C479.017 374 475.974 378.417 471.95 386.008C468.498 392.551 460.188 409.908 460.188 409.908C461.952 412.211 464.154 414.143 466.666 415.595C469.178 417.046 471.952 417.987 474.829 418.366L486.754 398.13C486.754 398.13 493.314 382 483.401 373.509Z" fill="#455A64"/>
<path d="M497.436 605.169V603.696C498.705 608.588 501.251 613.053 504.814 616.636C508.086 619.597 512.519 623.033 513.648 626.337C514.777 629.642 508.397 631.147 504.176 630.738C500.088 630.234 496.321 628.263 493.576 625.192C490.909 622.117 490.942 620.023 489.698 618.321C488.455 616.62 485.56 614.739 484.889 612.792C484.68 610.96 484.881 609.105 485.478 607.361C485.952 605.529 486.476 603.533 487.114 603.696V604.825C488.586 605.983 490.41 606.601 492.283 606.576C493.772 606.625 497.436 606.33 497.436 605.169Z" fill="#263238"/>
<path d="M487.098 604.825C488.57 605.983 490.394 606.601 492.267 606.575C493.772 606.575 497.436 606.33 497.436 605.169V603.696C498.705 608.587 501.251 613.053 504.814 616.636L507.301 618.828C509.035 620.759 508.544 622.444 504.471 622.804C500.397 623.163 496.815 620.693 493.723 616.898C490.631 613.103 487.098 604.825 487.098 604.825Z" fill="#FFA8A7"/>
<path d="M524.985 326.379C527.619 328.015 530.841 334.558 530.531 348.333C530.252 360.046 526.457 362.941 524.559 363.776C522.662 364.61 518.981 364.103 515.398 363.497V370.532C515.398 370.532 520.306 376.274 520.028 379.497C519.75 382.719 512.896 383.472 508.282 380.331C504.936 377.738 502.054 374.596 499.759 371.039L499.841 354.876C499.841 354.876 497.731 356.921 494.164 353.813C491.236 351.228 490.238 346.893 492.529 344.57C493.123 344.011 493.843 343.602 494.628 343.378C495.413 343.153 496.24 343.12 497.04 343.28C497.84 343.44 498.591 343.789 499.229 344.298C499.867 344.807 500.374 345.461 500.708 346.206C500.708 346.206 502.688 340.693 510.932 338.027C518.343 335.556 522.351 332.759 524.985 326.379Z" fill="#FFA8A7"/>
<path d="M517.442 345.388C517.452 345.581 517.424 345.775 517.358 345.957C517.293 346.139 517.193 346.307 517.063 346.451C516.933 346.594 516.776 346.711 516.602 346.794C516.427 346.877 516.237 346.924 516.044 346.934C515.85 346.944 515.657 346.915 515.475 346.85C515.292 346.785 515.125 346.685 514.981 346.555C514.838 346.425 514.721 346.268 514.638 346.093C514.555 345.918 514.507 345.729 514.498 345.535C514.478 345.336 514.498 345.134 514.557 344.943C514.617 344.751 514.715 344.574 514.845 344.421C514.974 344.268 515.134 344.143 515.313 344.054C515.493 343.964 515.688 343.911 515.888 343.899C516.088 343.895 516.287 343.93 516.473 344.002C516.659 344.075 516.829 344.183 516.974 344.322C517.118 344.46 517.234 344.625 517.314 344.808C517.395 344.991 517.438 345.188 517.442 345.388Z" fill="#263238"/>
<path d="M517.851 355.351L521.27 356.447C521.208 356.675 521.101 356.889 520.955 357.076C520.808 357.262 520.626 357.418 520.418 357.532C520.211 357.646 519.982 357.718 519.746 357.742C519.51 357.767 519.272 357.743 519.046 357.674C518.585 357.516 518.202 357.186 517.98 356.753C517.757 356.32 517.711 355.817 517.851 355.351Z" fill="#F28F8F"/>
<path d="M529.532 340.873L526.555 338.812C526.679 338.611 526.843 338.438 527.036 338.303C527.23 338.167 527.449 338.073 527.68 338.026C527.912 337.978 528.15 337.978 528.381 338.026C528.613 338.074 528.832 338.169 529.025 338.305C529.423 338.586 529.698 339.009 529.792 339.487C529.887 339.965 529.794 340.462 529.532 340.873Z" fill="#263238"/>
<path d="M513.173 341.953L516.15 339.891C516.026 339.691 515.862 339.517 515.669 339.382C515.475 339.247 515.256 339.153 515.025 339.105C514.793 339.058 514.555 339.058 514.324 339.106C514.093 339.154 513.874 339.249 513.68 339.384C513.282 339.665 513.007 340.089 512.913 340.567C512.818 341.045 512.912 341.541 513.173 341.953Z" fill="#263238"/>
<path d="M528.894 344.324C528.913 344.715 528.777 345.097 528.514 345.387C528.252 345.677 527.885 345.851 527.495 345.87C527.302 345.88 527.108 345.852 526.926 345.786C526.744 345.721 526.576 345.621 526.432 345.491C526.142 345.229 525.969 344.862 525.949 344.472C525.929 344.272 525.949 344.071 526.009 343.879C526.068 343.688 526.166 343.51 526.296 343.358C526.426 343.205 526.585 343.08 526.764 342.99C526.944 342.901 527.139 342.848 527.339 342.836C527.539 342.831 527.738 342.867 527.924 342.939C528.11 343.011 528.281 343.12 528.425 343.258C528.569 343.396 528.685 343.562 528.765 343.745C528.846 343.928 528.889 344.125 528.894 344.324Z" fill="#263238"/>
<path d="M521.893 343.49L522.122 352.34L526.8 350.901L521.893 343.49Z" fill="#F28F8F"/>
<path d="M515.398 363.53C511.636 363.039 503.947 360.814 502.688 357.755C503.169 359.307 504.117 360.672 505.403 361.665C507.71 363.645 515.398 365.886 515.398 365.886V363.53Z" fill="#F28F8F"/>
<path d="M488.701 407.847L499.04 426.054L491.27 421.065L488.701 407.847Z" fill="#37474F"/>
<path d="M121.164 432.794C120.297 434.986 114.849 446.486 107.602 440.973C98.8663 434.348 87.873 404.329 87.873 404.329L95.938 400.583L111.43 425.694L121.164 432.777" fill="#F28F8F"/>
<path d="M120.642 384.387C116.781 397.36 108.994 426.266 108.994 426.266C108.994 426.266 112.266 443.885 117.893 437.832C119.824 435.771 120.805 433.873 122.801 428.949C124.601 424.516 129.934 406.423 129.934 406.423C129.934 406.423 128.772 380.412 132.846 376.977C135.032 375.036 137.562 373.521 140.305 372.511C133.827 373.002 124.192 372.494 120.642 384.387Z" fill="#F28F8F"/>
<path d="M102.466 386.252C100.323 382.261 99.7834 382.081 98.5074 381.214C97.2314 380.347 89.4118 379.169 86.1727 378.891C82.3447 378.564 81.0033 379.267 82.0666 382.555C84.3241 389.59 91.2276 404.509 92.7654 406.57C93.7796 407.912 93.9923 409.171 98.2783 409.597C102.286 409.989 107.325 410.202 108.797 410.284C110.269 410.366 112.331 410.742 111.006 406.39C109.313 401.461 107.353 396.628 105.133 391.913C103.562 388.33 102.466 386.252 102.466 386.252Z" fill="#263238"/>
<path d="M87.8731 404.428C86.2372 397.377 81.5913 390.866 84.2414 388.478L85.6646 391.602C85.6646 391.602 94.433 393.696 98.7518 393.369C103.071 393.042 106.457 392.044 107.618 392.862C110.072 394.596 110.792 401.99 103.741 404.673C97.6721 406.865 87.8731 404.428 87.8731 404.428Z" fill="#F28F8F"/>
<path d="M140.911 370.188C133.14 370.27 124.552 373.1 121.656 379.185C118.761 385.271 112.037 411.805 112.037 411.805C114.286 413.883 116.947 415.465 119.847 416.448C122.747 417.432 125.821 417.795 128.87 417.514L140.911 370.188Z" fill="#37474F"/>
<path d="M174.609 594.453H163.861V610.092H174.609V594.453Z" fill="#FFA8A7"/>
<path d="M136.827 575.089L126.086 575.458L126.624 591.088L137.365 590.719L136.827 575.089Z" fill="#FFA8A7"/>
<path d="M173.905 441.726C173.905 451.983 175.23 518.351 175.23 518.351C175.476 521.296 178.24 526.743 177.651 538.08C176.833 553.49 175.508 596.269 175.508 596.269C175.508 596.269 170.47 601.258 163.354 596.269C163.354 596.269 153.538 538.129 151.706 522.866C150.07 509.55 147.175 473.364 147.175 473.364L137.212 515.897C137.212 515.897 138.962 525.909 139.355 532.976C139.748 540.043 137.523 580.859 137.523 580.859C135.785 581.949 133.792 582.563 131.742 582.641C129.692 582.718 127.658 582.256 125.843 581.3C125.843 581.3 117.205 521.672 116.027 515.276C114.849 508.879 123.585 441.66 123.585 441.66L173.905 441.726Z" fill="#37474F"/>
<path d="M157.726 370.679H157.873C162.476 371.848 166.555 374.524 169.461 378.28C172.366 382.036 173.931 386.657 173.905 391.406V441.726C166.364 449.906 140.108 453.734 123.65 441.726V389.377C123.65 381.002 128.296 370.957 141.138 370.205L157.726 370.679Z" fill="#455A64"/>
<path d="M161.341 327.851C162.204 327.745 163.08 327.838 163.902 328.121C164.724 328.405 165.471 328.872 166.085 329.487C168.114 331.564 167.721 335.409 166.085 344.21L159.787 344.93L161.341 327.851Z" fill="#263238"/>
<path d="M124.682 325.282C123.332 325.288 121.996 325.015 120.756 324.481C118.826 323.385 118.318 325.577 119.382 327.475C120.07 328.853 121.104 330.03 122.383 330.89C123.661 331.751 125.141 332.265 126.678 332.382C126.678 332.121 128.477 327.475 128.477 327.475L124.682 325.282Z" fill="#263238"/>
<path d="M158.398 345.028C159.33 345.584 160.655 343.785 161.817 342.574C162.269 342.057 162.846 341.664 163.493 341.432C164.139 341.2 164.835 341.137 165.512 341.248C166.19 341.359 166.829 341.642 167.367 342.068C167.905 342.495 168.326 343.052 168.59 343.686C170.504 347.711 166.954 353.027 163.976 353.96C158.889 355.596 158.12 352.324 158.12 352.324L157.727 370.728C156.604 373.197 154.883 375.348 152.722 376.987C150.56 378.626 148.024 379.702 145.343 380.118C136.313 381.345 138.178 373.885 141.139 370.302V364.708C138.868 365.072 136.564 365.188 134.268 365.051C130.522 364.479 128.15 361.518 127.021 357.461C125.189 350.917 124.502 345.682 126.04 332.922C127.676 318.87 144.035 318.723 152.918 324.285C161.801 329.847 158.398 345.028 158.398 345.028Z" fill="#FFA8A7"/>
<path d="M158.397 346.598C158.871 346.598 160.655 343.637 161.816 342.574C163.452 341.118 161.342 327.851 161.342 327.851C161.342 327.851 162.978 322.812 159.788 319.475C156.598 316.138 150.447 316.711 145.931 316.547C140.394 316.564 134.91 315.451 129.818 313.275C123.405 310.494 122.931 310.167 122.129 312.981C121.328 315.794 121.05 322.224 124.861 326.542L128.051 327.72C128.051 327.72 129.769 329.242 135.74 329.961C141.25 330.384 146.788 330.279 152.279 329.65C154.013 329.421 154.389 331.09 155.322 335.671C156.139 339.744 156.81 346.566 158.397 346.598Z" fill="#263238"/>
<path d="M161.341 328.882L166.985 325.855C166.804 325.474 166.548 325.133 166.232 324.854C165.916 324.574 165.547 324.361 165.146 324.228C164.746 324.095 164.322 324.045 163.902 324.08C163.481 324.115 163.072 324.235 162.699 324.432C161.944 324.857 161.382 325.557 161.129 326.385C160.876 327.214 160.952 328.108 161.341 328.882Z" fill="#263238"/>
<path d="M141.188 364.593C141.188 364.593 149.564 362.957 152.475 361.321C154.2 360.424 155.614 359.027 156.532 357.313C156.086 359.027 155.301 360.634 154.226 362.041C152.083 364.773 141.139 366.785 141.139 366.785L141.188 364.593Z" fill="#F28F8F"/>
<path d="M143.168 342.934C143.19 343.252 143.305 343.556 143.498 343.81C143.69 344.063 143.953 344.255 144.253 344.361C144.553 344.468 144.878 344.484 145.188 344.409C145.497 344.333 145.778 344.169 145.995 343.936C146.213 343.704 146.357 343.413 146.412 343.099C146.466 342.785 146.428 342.462 146.301 342.17C146.175 341.878 145.966 341.629 145.7 341.453C145.434 341.278 145.122 341.184 144.804 341.184C144.579 341.183 144.357 341.229 144.15 341.318C143.944 341.407 143.758 341.538 143.605 341.703C143.451 341.867 143.333 342.061 143.258 342.273C143.183 342.485 143.152 342.71 143.168 342.934Z" fill="#263238"/>
<path d="M144.951 336.587L148.534 338.583C148.788 338.093 148.847 337.525 148.698 336.993C148.549 336.461 148.204 336.006 147.732 335.72C147.495 335.583 147.232 335.496 146.96 335.466C146.688 335.435 146.413 335.462 146.151 335.543C145.89 335.625 145.649 335.76 145.442 335.939C145.235 336.119 145.068 336.339 144.951 336.587Z" fill="#263238"/>
<path d="M141.908 354.516L138.08 355.956C138.163 356.213 138.296 356.451 138.474 356.655C138.651 356.859 138.868 357.025 139.111 357.143C139.354 357.261 139.619 357.328 139.888 357.34C140.158 357.353 140.428 357.31 140.681 357.215C141.197 357.014 141.613 356.619 141.843 356.115C142.072 355.611 142.095 355.037 141.908 354.516Z" fill="#F28F8F"/>
<path d="M128.216 337.993L131.487 335.474C131.335 335.252 131.138 335.063 130.91 334.92C130.681 334.776 130.426 334.68 130.159 334.639C129.893 334.598 129.621 334.611 129.36 334.679C129.098 334.747 128.854 334.867 128.641 335.033C128.201 335.376 127.912 335.876 127.832 336.427C127.753 336.979 127.89 337.54 128.216 337.993Z" fill="#263238"/>
<path d="M129.214 342.443C129.214 342.877 129.386 343.293 129.693 343.6C130 343.907 130.416 344.079 130.85 344.079C131.284 344.079 131.7 343.907 132.007 343.6C132.313 343.293 132.486 342.877 132.486 342.443C132.499 342.22 132.467 341.997 132.39 341.787C132.314 341.577 132.196 341.385 132.043 341.222C131.889 341.06 131.705 340.93 131.499 340.842C131.294 340.754 131.073 340.709 130.85 340.709C130.626 340.709 130.405 340.754 130.2 340.842C129.995 340.93 129.81 341.06 129.657 341.222C129.504 341.385 129.385 341.577 129.309 341.787C129.233 341.997 129.2 342.22 129.214 342.443Z" fill="#263238"/>
<path d="M137.769 340.856L137.213 350.95L131.945 349.15L137.769 340.856Z" fill="#F28F8F"/>
<path d="M163.862 604.792V603.254C162.831 603.713 160.443 612.824 156.189 616.702C152.803 619.793 148.173 623.376 146.996 626.811C145.818 630.247 153.441 632.373 156.598 631.817C160.279 631.163 166.659 628.545 168.262 626.173C169.865 623.801 170.602 620.235 171.91 618.468C173.219 616.702 176.213 614.738 176.9 612.71C177.118 610.807 176.911 608.879 176.295 607.066C175.787 605.168 175.248 603.075 174.659 603.254V604.432C173.124 605.633 171.225 606.273 169.276 606.248C167.657 606.314 163.845 606.003 163.862 604.792Z" fill="#263238"/>
<path d="M126.464 587.779C125.892 587.779 125.45 588.597 124.207 589.922C122.369 591.779 120.235 593.316 117.892 594.47C113.868 596.482 106.048 599.574 102.515 601.177C100.306 602.175 100.404 604.841 102.695 606.363C104.985 607.884 110.498 608.98 117.123 607.492C120.722 606.69 125.434 603.353 128.411 603.533C131.388 603.713 136.95 603.664 139.142 602.159C141.335 600.654 140.451 597.414 139.829 594.633C139.208 591.852 138.194 586.961 137.179 587.174V588.123C135.887 590.086 129.311 590.887 126.481 589.448L126.464 587.779Z" fill="#263238"/>
<path d="M193.652 434.217C194.322 430.945 187.108 398.947 184.262 388.805L171.714 403.528L179.436 435.15C177.993 443.993 175.887 452.715 173.137 461.242C172.63 462.565 171.659 463.658 170.405 464.318C167.134 466.101 165.645 468.064 163.06 470.436C161.032 472.285 159.396 472.661 159.592 473.315C159.922 474.023 160.503 474.583 161.223 474.885C161.943 475.188 162.749 475.211 163.486 474.951C165.135 474.417 166.716 473.692 168.197 472.792C166.892 475.616 165.141 478.212 163.011 480.48C158.104 485.683 157.711 489.052 166.774 489.74C172.467 490.181 177.227 486.975 182.348 474.738C183.836 471.221 185.619 466.084 187.075 461.455C190.38 450.462 192.114 441.677 193.652 434.217Z" fill="#FFA8A7"/>
<path d="M161.129 371.824C167.509 373.918 180.171 374.997 184.26 388.804C188.35 402.611 190.395 411.592 190.395 411.592C187.99 414.864 178.404 418.512 173.905 417.138L161.129 371.824Z" fill="#455A64"/>
<path d="M173.906 417.138L169.521 401.63L173.906 423.453V417.138Z" fill="#37474F"/>
<path d="M147.176 473.364C141.621 471.632 136.512 468.706 132.207 464.792C132.207 464.792 135.103 470.19 143.658 475.213L140.387 502.696L147.176 473.364Z" fill="#263238"/>
</svg>
