<svg width="214" height="188" viewBox="0 0 214 188" fill="none" xmlns="http://www.w3.org/2000/svg">
<path d="M189.477 187.499H190.844C190.867 183.146 191.022 151.772 191.022 146.252C191.022 140.349 190.844 117.886 190.839 117.663C190.84 117.573 190.822 117.484 190.787 117.402C190.753 117.319 190.703 117.244 190.639 117.181C190.575 117.118 190.5 117.068 190.417 117.034C190.334 117 190.245 116.983 190.156 116.983C190.066 116.984 189.977 117.002 189.894 117.037C189.812 117.072 189.737 117.123 189.674 117.187C189.611 117.251 189.561 117.327 189.527 117.41C189.493 117.493 189.476 117.582 189.477 117.672C189.477 117.9 189.659 140.353 189.659 146.252C189.668 151.772 189.499 183.173 189.477 187.499Z" fill="#263238"/>
<path d="M203.725 122.545L198.119 117.841L208.99 120.216L199.928 115.129L209.35 113.159L198.119 112.594L210.604 103.186L196.491 110.242L204.632 96.3122L193.775 108.793L197.576 90.5232L190.52 107.53L189.795 88.5312L188.35 107.89L180.647 90.7876L185.998 109.517L174.48 96.9549L184.549 112.412L170.295 102.242L183.646 115.129L168.531 106.869L182.379 116.213L169.853 114.582L182.014 118.023L172.278 119.646L182.379 119.29L176.408 123.27L190.52 119.468L203.725 122.545Z" fill="#263238" stroke="#263238" stroke-miterlimit="10" stroke-linecap="round"/>
<path d="M184.408 153.309C184.408 154.599 184.463 158.213 184.513 161.399C184.554 164.048 184.591 166.55 184.591 167.284C184.591 168.146 184.54 172.389 184.49 176.496C184.449 180.056 184.408 183.416 184.408 184.013V187.5H185.776V184.013C185.776 183.425 185.817 180.065 185.858 176.51C185.908 172.408 185.958 168.155 185.958 167.284C185.958 166.541 185.922 164.034 185.881 161.381C185.83 158.19 185.776 154.589 185.776 153.309C185.798 151.141 185.612 148.977 185.22 146.845C184.942 145.446 185.261 141.831 185.411 140.541C185.432 140.36 185.379 140.178 185.266 140.035C185.152 139.892 184.986 139.8 184.805 139.78C184.623 139.759 184.441 139.812 184.299 139.925C184.156 140.039 184.064 140.205 184.044 140.386C184.021 140.582 183.492 145.218 183.87 147.109C184.247 149.154 184.427 151.23 184.408 153.309Z" fill="#263238"/>
<path d="M185.275 164.567C185.275 164.567 186 150.769 186.72 148.96C187.441 147.15 187.988 147.692 188.17 145.523C188.352 143.353 188.352 142.446 188.712 141.721C189 141.077 189.243 140.412 189.437 139.734L189.797 138.284" stroke="#263238" stroke-width="3" stroke-linecap="round" stroke-linejoin="round"/>
<path d="M198.12 144.256L192.513 139.552L208.253 141.361L194.318 136.839L208.613 134.305H192.513L204.993 124.897L190.881 131.953L199.022 118.023L188.169 130.504L191.966 112.234L184.91 129.241L184.19 110.242L182.74 129.601L177.134 112.052L180.388 131.228L170.437 116.938L178.943 134.123L165.888 125.594L178.036 136.839L164.566 131.324L176.769 137.924L164.129 136.83L176.409 139.734L167.871 141.68L176.769 141.001L170.798 144.98L184.91 141.179L198.12 144.256Z" fill="#263238" stroke="#263238" stroke-miterlimit="10" stroke-linecap="round"/>
<path d="M198.493 175.279L192.886 170.575L208.626 172.38L194.691 167.858L208.986 165.329H192.886L205.366 155.916L191.254 162.972L199.395 149.042L188.542 161.527L192.339 143.253L185.283 160.26L184.563 141.266L183.113 160.62L177.507 143.071L180.761 162.252L170.811 147.957L179.316 165.146L166.261 156.618L178.409 167.858L164.94 162.347L177.142 168.943L164.502 167.854L176.782 170.753L168.244 172.699L177.142 172.02L171.171 175.999L185.283 172.202L198.493 175.279Z" fill="#263238" stroke="#263238" stroke-miterlimit="10" stroke-linecap="round"/>
<path d="M17.4498 159.872C17.4498 159.872 17.3449 157.137 16.1871 155.24C15.0293 153.344 10.8221 151.977 8.61135 152.925C7.49314 153.385 6.40332 153.912 5.34766 154.502C7.54388 155.192 9.63335 156.185 11.556 157.451C13.3338 158.654 15.34 159.477 17.4498 159.872Z" fill="#FFC410" stroke="#263238" stroke-linecap="round" stroke-linejoin="round"/>
<path d="M21.8675 161.24C21.8675 161.24 19.3422 158.82 18.9228 155.451C18.5035 152.082 22.0817 146.822 22.0817 146.822C23.2645 149.071 24.216 151.433 24.9215 153.874C25.9744 157.662 21.8675 161.24 21.8675 161.24Z" fill="#FFC410" stroke="#263238" stroke-linecap="round" stroke-linejoin="round"/>
<path d="M26.7077 160.187C26.7077 160.187 26.0787 157.028 27.2365 154.822C28.3942 152.616 31.4437 152.821 34.4932 153.769C37.5426 154.717 38.4953 154.717 38.4953 154.717C36.3912 156.128 34.1727 157.36 31.8631 158.4C30.1866 159.111 28.4642 159.708 26.7077 160.187Z" fill="#FFC410" stroke="#263238" stroke-linecap="round" stroke-linejoin="round"/>
<path d="M21.8985 171.528C21.826 171.528 21.7564 171.499 21.7051 171.448C21.6538 171.396 21.625 171.327 21.625 171.254V156.212C21.625 156.176 21.6321 156.14 21.6458 156.107C21.6596 156.074 21.6797 156.044 21.7051 156.019C21.7305 155.993 21.7607 155.973 21.7938 155.959C21.827 155.946 21.8626 155.938 21.8985 155.938C21.9342 155.938 21.9695 155.946 22.0025 155.959C22.0354 155.973 22.0653 155.993 22.0903 156.019C22.1153 156.044 22.135 156.075 22.1483 156.108C22.1615 156.141 22.168 156.176 22.1674 156.212V171.254C22.168 171.29 22.1615 171.325 22.1483 171.358C22.135 171.392 22.1153 171.422 22.0903 171.447C22.0653 171.473 22.0354 171.493 22.0025 171.507C21.9695 171.521 21.9342 171.528 21.8985 171.528Z" fill="#263238"/>
<path d="M23.1605 171.527H23.1194C23.0484 171.517 22.9841 171.48 22.9406 171.422C22.8971 171.365 22.8779 171.293 22.887 171.222C22.9417 170.844 24.2134 161.928 28.5301 156.978C28.5812 156.927 28.6499 156.899 28.7215 156.899C28.7931 156.899 28.8618 156.927 28.913 156.978C28.9402 157.001 28.9625 157.029 28.9787 157.061C28.9948 157.093 29.0044 157.128 29.007 157.163C29.0095 157.199 29.0049 157.235 28.9935 157.269C28.982 157.302 28.964 157.334 28.9403 157.36C24.7285 162.188 23.4385 171.227 23.4294 171.318C23.415 171.378 23.3805 171.432 23.3316 171.47C23.2828 171.508 23.2224 171.528 23.1605 171.527Z" fill="#263238"/>
<path d="M20.6352 171.313C20.5995 171.313 20.5641 171.306 20.5312 171.292C20.4983 171.279 20.4684 171.258 20.4434 171.233C20.4183 171.207 20.3986 171.177 20.3854 171.144C20.3721 171.111 20.3656 171.075 20.3662 171.04C20.3662 170.953 20.4073 162.379 15.3112 158.313C15.2624 158.266 15.2331 158.202 15.229 158.134C15.2249 158.066 15.2464 157.999 15.2891 157.946C15.3319 157.893 15.3929 157.857 15.4602 157.847C15.5275 157.837 15.5962 157.852 15.653 157.889C20.9543 162.133 20.9132 170.684 20.9087 171.044C20.9087 171.08 20.9016 171.115 20.8878 171.148C20.874 171.181 20.8538 171.211 20.8283 171.236C20.8028 171.261 20.7727 171.281 20.7395 171.294C20.7063 171.307 20.6709 171.314 20.6352 171.313Z" fill="#263238"/>
<path d="M24.8436 171.209C24.8195 171.213 24.7948 171.213 24.7707 171.209C24.7014 171.189 24.6426 171.144 24.6067 171.082C24.5709 171.019 24.561 170.945 24.5792 170.876C25.1149 169.041 25.9463 167.306 27.0407 165.739C27.083 165.678 27.1476 165.637 27.2202 165.624C27.2929 165.612 27.3677 165.628 27.4281 165.67C27.4886 165.713 27.5297 165.777 27.5425 165.85C27.5554 165.923 27.5388 165.997 27.4965 166.058C26.4451 167.571 25.6419 169.242 25.1171 171.008C25.1015 171.068 25.0657 171.12 25.0159 171.157C24.9661 171.193 24.9053 171.212 24.8436 171.209Z" fill="#263238"/>
<path d="M26.4845 167.024C26.4845 167.024 26.3797 164.079 27.6423 163.66C28.905 163.24 30.0628 164.289 31.0109 164.922C31.959 165.556 33.0074 166.185 33.0074 168.077C33.0074 169.968 32.2735 173.446 32.2735 173.446C32.2735 173.446 31.2206 170.183 29.4292 168.71C27.6378 167.238 26.4845 167.024 26.4845 167.024Z" fill="#FFC410" stroke="#263238" stroke-linecap="round" stroke-linejoin="round"/>
<path d="M18.7351 171.313C18.6776 171.313 18.6216 171.295 18.575 171.261C18.5283 171.228 18.4934 171.18 18.4752 171.126C18.4752 171.099 17.632 168.555 15.7403 167.046C15.7118 167.024 15.6879 166.997 15.6701 166.966C15.6523 166.935 15.6409 166.9 15.6367 166.864C15.6324 166.829 15.6354 166.793 15.6453 166.758C15.6553 166.723 15.6721 166.691 15.6947 166.663C15.7402 166.607 15.806 166.572 15.8777 166.564C15.9494 166.556 16.0213 166.577 16.0776 166.622C18.1151 168.231 18.9721 170.848 19.0086 170.962C19.0288 171.031 19.0216 171.105 18.9885 171.169C18.9554 171.232 18.8988 171.281 18.8308 171.304L18.7351 171.313Z" fill="#263238"/>
<path d="M17.4497 167.973C17.4497 167.973 17.869 166.081 16.8161 164.714C15.7631 163.346 13.2379 163.661 11.9752 165.133C10.7126 166.605 8.92578 171.036 8.92578 171.036C8.92578 171.036 11.451 169.035 14.3957 169.035C17.3403 169.035 17.4497 167.973 17.4497 167.973Z" fill="#FFC410" stroke="#263238" stroke-linecap="round" stroke-linejoin="round"/>
<path d="M25.8327 187.446H17.4364L13.2383 173.557H30.0308L25.8327 187.446Z" fill="white" stroke="#263238" stroke-linecap="round" stroke-linejoin="round"/>
<path d="M30.0757 171.255H13.1875V173.557H30.0757V171.255Z" fill="white" stroke="#263238" stroke-linecap="round" stroke-linejoin="round"/>
<path d="M185.111 9.21875H19.1914V132.747H185.111V9.21875Z" fill="white"/>
<path d="M185.111 18.5625H64.1855V132.705H185.111V18.5625Z" fill="#EDEDED"/>
<path d="M178.879 50.0508H69.7871V60.3843H178.879V50.0508Z" fill="#B2B2B2"/>
<path d="M178.879 33.7051H69.7871V40.6381H178.879V33.7051Z" fill="white"/>
<path d="M61.2785 50.0508H21.166V60.3843H61.2785V50.0508Z" fill="#FFC410"/>
<path d="M61.2785 74.0547H21.166V84.3882H61.2785V74.0547Z" fill="#B2B2B2"/>
<path d="M61.2785 98.0625H21.166V108.396H61.2785V98.0625Z" fill="#B2B2B2"/>
<path d="M160.917 42.2842H149.034C148.195 42.2842 147.516 42.9638 147.516 43.8021V46.9336C147.516 47.7719 148.195 48.4515 149.034 48.4515H160.917C161.755 48.4515 162.435 47.7719 162.435 46.9336V43.8021C162.435 42.9638 161.755 42.2842 160.917 42.2842Z" fill="#FFC410"/>
<path d="M150.363 46.2499L150.24 46.888H149.912L150.523 43.6973H151.033L151.64 46.888H151.289L151.166 46.2499H150.363ZM150.409 45.9445H151.115L150.755 44.1212L150.409 45.9445Z" fill="#263238"/>
<path d="M153.317 44.4816V44.7733H152.985V44.4679C152.985 44.1808 152.871 44.0121 152.611 44.0121C152.351 44.0121 152.237 44.1853 152.237 44.4679V46.1408C152.237 46.428 152.356 46.5966 152.611 46.5966C152.866 46.5966 152.985 46.428 152.985 46.1408V45.726H153.317V46.1408C153.317 46.5966 153.089 46.9385 152.602 46.9385C152.114 46.9385 151.891 46.6194 151.891 46.1408V44.4998C151.891 44.0167 152.119 43.7021 152.602 43.7021C153.085 43.7021 153.317 43.9984 153.317 44.4816Z" fill="#263238"/>
<path d="M155.026 44.4816V44.7733H154.694V44.4679C154.694 44.1808 154.58 44.0121 154.32 44.0121C154.06 44.0121 153.946 44.1853 153.946 44.4679V46.1408C153.946 46.428 154.065 46.5966 154.32 46.5966C154.575 46.5966 154.694 46.428 154.694 46.1408V45.726H155.026V46.1408C155.026 46.5966 154.798 46.9385 154.311 46.9385C153.823 46.9385 153.6 46.6194 153.6 46.1408V44.4998C153.6 44.0167 153.828 43.7021 154.311 43.7021C154.794 43.7021 155.026 43.9984 155.026 44.4816Z" fill="#263238"/>
<path d="M156.489 45.1194V45.4385H155.714V46.569H156.667V46.888H155.363V43.6973H156.667V44.0163H155.714V45.1012L156.489 45.1194Z" fill="#263238"/>
<path d="M157.689 43.7155C158.186 43.7155 158.4 44.0072 158.4 44.4904V44.8687C158.4 45.3747 158.163 45.6391 157.662 45.6391H157.347V46.888H156.996V43.6973L157.689 43.7155ZM157.662 45.32C157.926 45.32 158.049 45.1969 158.049 44.8915V44.4722C158.049 44.1804 157.949 44.0163 157.689 44.0163H157.347V45.3018L157.662 45.32Z" fill="#263238"/>
<path d="M159.128 46.8884V44.0349H158.545V43.7158H160.063V44.0349H159.479V46.8884H159.128Z" fill="#263238"/>
<path d="M177.362 42.2842H165.479C164.641 42.2842 163.961 42.9638 163.961 43.8021V46.9336C163.961 47.7719 164.641 48.4515 165.479 48.4515H177.362C178.2 48.4515 178.88 47.7719 178.88 46.9336V43.8021C178.88 42.9638 178.2 42.2842 177.362 42.2842Z" fill="#FFC410"/>
<path d="M167.192 43.7155C167.689 43.7155 167.912 44.0118 167.912 44.5041V46.104C167.912 46.5872 167.689 46.888 167.192 46.888H166.449V43.6973L167.192 43.7155ZM167.192 46.569C167.447 46.569 167.571 46.4094 167.571 46.1131V44.4813C167.571 44.1896 167.447 44.0255 167.188 44.0255H166.809V46.5598L167.192 46.569Z" fill="#263238"/>
<path d="M169.377 45.1194V45.4385H168.597V46.569H169.55V46.888H168.246V43.6973H169.55V44.0163H168.597V45.1012L169.377 45.1194Z" fill="#263238"/>
<path d="M171.278 44.4816V44.7733H170.946V44.4679C170.946 44.1808 170.832 44.0121 170.572 44.0121C170.312 44.0121 170.198 44.1853 170.198 44.4679V46.1408C170.198 46.428 170.317 46.5966 170.572 46.5966C170.827 46.5966 170.946 46.428 170.946 46.1408V45.726H171.278V46.1408C171.278 46.5966 171.05 46.9385 170.563 46.9385C170.075 46.9385 169.852 46.6194 169.852 46.1408V44.4998C169.852 44.0167 170.079 43.7021 170.563 43.7021C171.046 43.7021 171.278 43.9984 171.278 44.4816Z" fill="#263238"/>
<path d="M171.6 46.888V43.6973H171.951V46.5507H172.862V46.8698L171.6 46.888Z" fill="#263238"/>
<path d="M173.478 43.7158V46.9066H173.127V43.7158H173.478Z" fill="#263238"/>
<path d="M174.172 46.888H173.857V43.6973H174.313L175.052 45.9764V43.6973H175.362V46.888H174.997L174.172 44.3172V46.888Z" fill="#263238"/>
<path d="M176.825 45.1194V45.4385H176.05V46.569H177.003V46.888H175.699V43.6973H177.003V44.0163H176.05V45.1012L176.825 45.1194Z" fill="#263238"/>
<path d="M178.879 74.1826H69.7871V84.5161H178.879V74.1826Z" fill="#B2B2B2"/>
<path d="M160.917 66.4199H149.034C148.195 66.4199 147.516 67.0995 147.516 67.9378V71.0693C147.516 71.9076 148.195 72.5872 149.034 72.5872H160.917C161.755 72.5872 162.435 71.9076 162.435 71.0693V67.9378C162.435 67.0995 161.755 66.4199 160.917 66.4199Z" fill="#FFC410"/>
<path d="M150.363 70.3811L150.24 71.0238H149.912L150.523 67.833H151.033L151.64 71.0238H151.289L151.166 70.3811H150.363ZM150.409 70.0802H151.115L150.755 68.2569L150.409 70.0802Z" fill="#263238"/>
<path d="M153.317 68.6121V68.8993H152.985V68.5939C152.985 68.3113 152.871 68.1381 152.611 68.1381C152.351 68.1381 152.237 68.3113 152.237 68.5939V70.2987C152.237 70.5813 152.356 70.7545 152.611 70.7545C152.866 70.7545 152.985 70.5813 152.985 70.2987V69.8429H153.317V70.2394C153.317 70.718 153.089 71.0371 152.602 71.0371C152.114 71.0371 151.891 70.718 151.891 70.2394V68.6121C151.891 68.1335 152.119 67.8145 152.602 67.8145C153.085 67.8145 153.317 68.1335 153.317 68.6121Z" fill="#263238"/>
<path d="M155.026 68.6121V68.8993H154.694V68.5939C154.694 68.3113 154.58 68.1381 154.32 68.1381C154.06 68.1381 153.946 68.3113 153.946 68.5939V70.2987C153.946 70.5813 154.065 70.7545 154.32 70.7545C154.575 70.7545 154.694 70.5813 154.694 70.2987V69.8429H155.026V70.2394C155.026 70.718 154.798 71.0371 154.311 71.0371C153.823 71.0371 153.6 70.718 153.6 70.2394V68.6121C153.6 68.1335 153.828 67.8145 154.311 67.8145C154.794 67.8145 155.026 68.1335 155.026 68.6121Z" fill="#263238"/>
<path d="M156.489 69.2552V69.5697H155.714V70.7001H156.667V71.0238H155.363V67.833H156.667V68.1566H155.714V69.2415L156.489 69.2552Z" fill="#263238"/>
<path d="M157.689 67.8467C158.186 67.8467 158.4 68.143 158.4 68.6216V69.0045C158.4 69.5059 158.163 69.7703 157.662 69.7703H157.347V71.0238H156.996V67.833L157.689 67.8467ZM157.662 69.4557C157.926 69.4557 158.049 69.3327 158.049 69.0273V68.6033C158.049 68.3162 157.949 68.1703 157.689 68.1703H157.347V69.4557H157.662Z" fill="#263238"/>
<path d="M159.128 71.0238V68.1703H158.545V67.8467H160.063V68.1703H159.479V71.0238H159.128Z" fill="#263238"/>
<path d="M177.362 66.4199H165.479C164.641 66.4199 163.961 67.0995 163.961 67.9378V71.0693C163.961 71.9076 164.641 72.5872 165.479 72.5872H177.362C178.2 72.5872 178.88 71.9076 178.88 71.0693V67.9378C178.88 67.0995 178.2 66.4199 177.362 66.4199Z" fill="#FFC410"/>
<path d="M167.192 67.8467C167.689 67.8467 167.912 68.1475 167.912 68.6353V70.2398C167.912 70.7229 167.689 71.0238 167.192 71.0238H166.449V67.833L167.192 67.8467ZM167.192 70.7001C167.447 70.7001 167.571 70.5406 167.571 70.2443V68.6079C167.571 68.3207 167.447 68.1521 167.188 68.1521H166.809V70.6819L167.192 70.7001Z" fill="#263238"/>
<path d="M169.377 69.2552V69.5697H168.597V70.7001H169.55V71.0238H168.246V67.833H169.55V68.1566H168.597V69.2415L169.377 69.2552Z" fill="#263238"/>
<path d="M171.278 68.6121V68.8993H170.946V68.5939C170.946 68.3113 170.832 68.1381 170.572 68.1381C170.312 68.1381 170.198 68.3113 170.198 68.5939V70.2987C170.198 70.5813 170.317 70.7545 170.572 70.7545C170.827 70.7545 170.946 70.5813 170.946 70.2987V69.8429H171.278V70.2394C171.278 70.718 171.05 71.0371 170.563 71.0371C170.075 71.0371 169.852 70.718 169.852 70.2394V68.6121C169.852 68.1335 170.079 67.8145 170.563 67.8145C171.046 67.8145 171.278 68.1335 171.278 68.6121Z" fill="#263238"/>
<path d="M171.6 71.0238V67.833H171.951V70.6865H172.862V71.0101L171.6 71.0238Z" fill="#263238"/>
<path d="M173.478 67.8467V71.0374H173.127V67.8467H173.478Z" fill="#263238"/>
<path d="M174.172 71.0238H173.857V67.833H174.313L175.052 70.1121V67.833H175.362V71.0238H174.997L174.172 68.4757V71.0238Z" fill="#263238"/>
<path d="M176.825 69.2552V69.5697H176.05V70.7001H177.003V71.0238H175.699V67.833H177.003V68.1566H176.05V69.2415L176.825 69.2552Z" fill="#263238"/>
<path d="M178.879 98.3184H69.7871V108.652H178.879V98.3184Z" fill="#B2B2B2"/>
<path d="M72.6312 39.1977H72.2209L71.6101 36.1528V39.2068H71.2363V35.3779H71.8335L72.4625 38.4319L73.0687 35.3779H73.6659V39.2068H73.2602V36.1118L72.6312 39.1977Z" fill="#263238"/>
<path d="M74.5151 38.4319L74.3692 39.2068H73.9727L74.7065 35.3779H75.3219L76.0558 39.2068H75.6319L75.4814 38.4319H74.5151ZM74.5698 38.0673H75.4222L74.9664 35.8611L74.5698 38.0673Z" fill="#263238"/>
<path d="M76.7657 39.2068H76.3828V35.3779H76.9252L77.8095 38.1448V35.3779H78.1879V39.2068H77.732L76.7657 36.1118V39.2068Z" fill="#263238"/>
<path d="M79.06 38.4319L78.9141 39.2068H78.5176L79.2515 35.3779H79.8714L80.6007 39.2068H80.1768L80.0264 38.4319H79.06ZM79.1147 38.0673H79.9671L79.5386 35.8611L79.1147 38.0673Z" fill="#263238"/>
<path d="M82.6195 36.3036V36.6318H82.2138V36.2808C82.2138 35.9344 82.0771 35.7292 81.758 35.7292C81.4389 35.7292 81.3022 35.9344 81.3022 36.2808V38.3046C81.3022 38.6465 81.4435 38.8562 81.758 38.8562C82.0725 38.8562 82.2138 38.6465 82.2138 38.3046V37.5389H81.8218V37.156H82.6195V38.2819C82.6195 38.8608 82.346 39.2436 81.758 39.2436C81.17 39.2436 80.8965 38.8608 80.8965 38.2819V36.3036C80.8965 35.7247 81.17 35.3418 81.758 35.3418C82.346 35.3418 82.6195 35.7247 82.6195 36.3036Z" fill="#263238"/>
<path d="M84.3733 37.0749V37.4806H83.4617V38.848H84.6104V39.24H83.0059V35.4111H84.583V35.7986H83.4617V37.1068L84.3733 37.0749Z" fill="#263238"/>
<path d="M86.3934 39.2068V35.7654H85.6914V35.3779H87.5147V35.7654H86.8127V39.2068H86.3934Z" fill="#263238"/>
<path d="M88.0203 38.4319L87.8744 39.2068H87.4824L88.2117 35.3779H88.8317L89.5655 39.2068H89.1371L88.9912 38.4319H88.0203ZM88.075 38.0673H88.9319L88.5035 35.8611L88.075 38.0673Z" fill="#263238"/>
<path d="M91.5668 36.299V36.3993H91.1656V36.2762C91.1656 35.9298 91.0334 35.7292 90.7098 35.7292C90.3862 35.7292 90.254 35.9298 90.254 36.2717C90.254 37.1286 91.5394 37.2107 91.5394 38.2864C91.5394 38.8653 91.2568 39.2436 90.6734 39.2436C90.0899 39.2436 89.8438 38.8471 89.8438 38.2864V38.0676H90.2403V38.3092C90.2403 38.6511 90.3862 38.8562 90.6961 38.8562C91.0061 38.8562 91.152 38.6511 91.152 38.3092C91.152 37.4568 89.8711 37.3976 89.8711 36.299C89.8711 35.7065 90.1446 35.3418 90.7189 35.3418C91.2933 35.3418 91.5668 35.7156 91.5668 36.299Z" fill="#263238"/>
<path d="M92.5796 37.5431L92.3562 37.9214V39.2068H91.9277V35.3779H92.3562V37.2012L93.3727 35.3779H93.8057L92.8348 37.1237L93.8376 39.2068H93.3818L92.5796 37.5431Z" fill="#263238"/>
<path d="M95.8155 36.299V36.3993H95.4098V36.2762C95.4098 35.9298 95.2776 35.7292 94.954 35.7292C94.6303 35.7292 94.4981 35.9298 94.4981 36.2717C94.4981 37.1286 95.7836 37.2107 95.7836 38.2864C95.7836 38.8653 95.5055 39.2436 94.9175 39.2436C94.3295 39.2436 94.0605 38.8653 94.0605 38.2864V38.0676H94.4617V38.3092C94.4617 38.6511 94.603 38.8562 94.9175 38.8562C95.232 38.8562 95.3733 38.6511 95.3733 38.3092C95.3733 37.4568 94.097 37.3976 94.097 36.299C94.097 35.7065 94.3705 35.3418 94.9403 35.3418C95.5101 35.3418 95.8155 35.7156 95.8155 36.299Z" fill="#263238"/>
<path d="M24.5613 39.2068V35.7654H23.8594V35.3779H25.6827V35.7654H24.9853V39.2068H24.5613Z" fill="#263238"/>
<path d="M26.2019 38.4319L26.0561 39.2068H25.6641L26.3934 35.3779H27.0133L27.7472 39.2068H27.3187L27.1728 38.4319H26.2019ZM26.2566 38.0673H27.1136L26.6805 35.8611L26.2566 38.0673Z" fill="#263238"/>
<path d="M29.7393 36.299V36.3993H29.3336V36.2762C29.3336 35.9298 29.2014 35.7292 28.8778 35.7292C28.5542 35.7292 28.422 35.9298 28.422 36.2717C28.422 37.1286 29.7074 37.2107 29.7074 38.2864C29.7074 38.8653 29.4293 39.2436 28.8413 39.2436C28.2533 39.2436 27.9844 38.8653 27.9844 38.2864V38.0676H28.3809V38.3092C28.3809 38.6511 28.5268 38.8562 28.8368 38.8562C29.1467 38.8562 29.2926 38.6511 29.2926 38.3092C29.2926 37.4568 28.0163 37.3976 28.0163 36.299C28.0163 35.7065 28.2852 35.3418 28.8596 35.3418C29.4339 35.3418 29.7393 35.7156 29.7393 36.299Z" fill="#263238"/>
<path d="M30.7645 37.5431L30.5411 37.9214V39.2068H30.1309V35.3779H30.5593V37.2012L31.5758 35.3779H32.0316L31.0425 37.1237L32.0408 39.2068H31.5849L30.7645 37.5431Z" fill="#263238"/>
<path d="M34.0373 35.3789C34.639 35.3789 34.8942 35.7345 34.8942 36.2906V36.7464C34.8942 37.3526 34.6116 37.658 33.9826 37.658H33.6043V39.1668H33.1758V35.3379L34.0373 35.3789ZM34.0054 37.3162C34.3199 37.3162 34.4612 37.1657 34.4612 36.8011V36.2906C34.4612 35.9441 34.3336 35.7664 34.0054 35.7664H33.5951V37.3162H34.0054Z" fill="#263238"/>
<path d="M35.601 38.4319L35.4506 39.2068H35.0586L35.7925 35.3779H36.4078L37.1417 39.2068H36.7132L36.5674 38.4319H35.601ZM35.6557 38.0673H36.5127L36.0568 35.8611L35.6557 38.0673Z" fill="#263238"/>
<path d="M37.8438 39.2068H37.4609V35.3779H38.0034L38.8877 38.1448V35.3779H39.2478V39.2068H38.7919L37.8438 36.1118V39.2068Z" fill="#263238"/>
<path d="M41.0706 37.0749V37.4806H40.1589V38.848H41.3076V39.24H39.7031V35.4111H41.2803V35.7986H40.1316V37.1068L41.0706 37.0749Z" fill="#263238"/>
<path d="M41.6719 39.2068V35.3779H42.1003V38.8148H43.1943V39.2068H41.6719Z" fill="#263238"/>
<path d="M26.443 56.729H26.0282L25.3946 53.6841V56.7335H25.0254V52.9092H25.6225L26.2516 55.9632L26.8578 52.9092H27.4549V56.7335H27.0492V53.6567L26.443 56.729Z" fill="#263238"/>
<path d="M28.3081 55.9632L28.1576 56.7335H27.7656L28.4995 52.9092H29.1149L29.8487 56.7335H29.4203L29.2744 55.9632H28.3081ZM28.3628 55.5985H29.2197L28.7639 53.3878L28.3628 55.5985Z" fill="#263238"/>
<path d="M30.586 56.7335H30.2031V52.9092H30.7456L31.6299 55.676V52.9092H32.0082V56.7335H31.5524L30.586 53.6431V56.7335Z" fill="#263238"/>
<path d="M32.8666 55.9632L32.7208 56.7335H32.3242L33.0581 52.9092H33.6735L34.4073 56.7335H33.9834L33.833 55.9632H32.8666ZM32.9213 55.5985H33.7783L33.3225 53.3878L32.9213 55.5985Z" fill="#263238"/>
<path d="M36.4307 53.8345V54.1581H36.025V53.8117C36.025 53.4653 35.8883 53.2602 35.5692 53.2602C35.2501 53.2602 35.1134 53.4653 35.1134 53.8117V55.831C35.1134 56.1774 35.2592 56.3871 35.5692 56.3871C35.8792 56.3871 36.025 56.1774 36.025 55.831V55.0698H35.633V54.6869H36.4307V55.8128C36.4307 56.3917 36.1572 56.7746 35.5646 56.7746C34.9721 56.7746 34.6895 56.3917 34.6895 55.8128V53.8345C34.6895 53.2511 34.9629 52.8682 35.5464 52.8682C36.1299 52.8682 36.4307 53.2511 36.4307 53.8345Z" fill="#263238"/>
<path d="M38.1988 54.6045V54.9874H37.2599V56.3549H38.4085V56.7423H36.8359V52.918H38.4085V53.3054H37.2599V54.6136L38.1988 54.6045Z" fill="#263238"/>
<path d="M40.2046 56.7335V53.2966H39.498V52.9092H41.3213V53.2966H40.6148V56.7335H40.2046Z" fill="#263238"/>
<path d="M41.8452 55.9632L41.6993 56.7335H41.3027L42.0366 52.9092H42.6565L43.3858 56.7335H42.9619L42.8115 55.9632H41.8452ZM41.8999 55.5985H42.7523L42.2964 53.3878L41.8999 55.5985Z" fill="#263238"/>
<path d="M45.378 53.8254V53.9302H44.9723V53.8072C44.9723 53.4607 44.8447 53.2602 44.5165 53.2602C44.1883 53.2602 44.0606 53.4607 44.0606 53.798C44.0606 54.6596 45.3461 54.7416 45.3461 55.8173C45.3461 56.3962 45.068 56.7746 44.4846 56.7746C43.9011 56.7746 43.623 56.3962 43.623 55.8173V55.5985H44.0242V55.8401C44.0242 56.182 44.1655 56.3871 44.48 56.3871C44.7945 56.3871 44.9358 56.182 44.9358 55.8401C44.9358 54.9877 43.655 54.9057 43.655 53.8254C43.655 53.2374 43.9284 52.8682 44.5028 52.8682C45.0771 52.8682 45.378 53.2465 45.378 53.8254Z" fill="#263238"/>
<path d="M46.4096 55.0743L46.1863 55.4527V56.7335H45.7578V52.9092H46.1863V54.7553L47.2028 52.9092H47.6312L46.6649 54.6504L47.6677 56.7335H47.2119L46.4096 55.0743Z" fill="#263238"/>
<path d="M49.6234 53.8254V53.9302H49.2223V53.8072C49.2223 53.4607 49.0901 53.2602 48.7665 53.2602C48.4428 53.2602 48.3106 53.4607 48.3106 53.798C48.3106 54.6596 49.5915 54.7416 49.5915 55.8173C49.5915 56.3962 49.3135 56.7746 48.73 56.7746C48.1465 56.7746 47.873 56.3962 47.873 55.8173V55.5985H48.2696V55.8401C48.2696 56.182 48.4109 56.3871 48.7254 56.3871C49.04 56.3871 49.1813 56.182 49.1813 55.8401C49.1813 54.9877 47.9004 54.9057 47.9004 53.8254C47.9004 53.2374 48.1739 52.8682 48.7482 52.8682C49.3226 52.8682 49.6234 53.2465 49.6234 53.8254Z" fill="#263238"/>
<path d="M25.5718 80.4357V76.9988H24.8789V76.6113H26.7022V76.9988H26.0276V80.4357H25.5718Z" fill="#263238"/>
<path d="M27.2234 79.6653L27.0776 80.4357H26.6855L27.4149 76.6113H28.0348L28.7641 80.4357H28.3356L28.1898 79.6653H27.2234ZM27.2781 79.3007H28.1351L27.6792 77.0899L27.2781 79.3007Z" fill="#263238"/>
<path d="M30.7608 77.5285V77.6334H30.3551V77.5103C30.3551 77.1639 30.2229 76.9633 29.8993 76.9633C29.5756 76.9633 29.4434 77.1639 29.4434 77.5012C29.4434 78.3627 30.7289 78.4447 30.7289 79.5205C30.7289 80.0994 30.4508 80.4777 29.8628 80.4777C29.2748 80.4777 29.0059 80.0994 29.0059 79.5205V79.3017H29.4024V79.5433C29.4024 79.8851 29.5483 80.0902 29.8582 80.0902C30.1682 80.0902 30.3141 79.8851 30.3141 79.5433C30.3141 78.6909 29.0378 78.6088 29.0378 77.5285C29.0378 76.9405 29.3067 76.5713 29.881 76.5713C30.4554 76.5713 30.7608 76.9496 30.7608 77.5285Z" fill="#263238"/>
<path d="M31.7846 78.7765L31.5613 79.1548V80.4357H31.1328V76.6113H31.5613V78.4574L32.5778 76.6113H33.0108L32.0445 78.3526L33.0427 80.4357H32.5869L31.7846 78.7765Z" fill="#263238"/>
<path d="M35.003 77.5285V77.6334H34.5973V77.5103C34.5973 77.1639 34.4651 76.9633 34.1415 76.9633C33.8178 76.9633 33.6856 77.1639 33.6856 77.5012C33.6856 78.3627 34.9711 78.4447 34.9711 79.5205C34.9711 80.0994 34.693 80.4777 34.105 80.4777C33.517 80.4777 33.248 80.0994 33.248 79.5205V79.3017H33.6492V79.5433C33.6492 79.8851 33.7905 80.0902 34.105 80.0902C34.4195 80.0902 34.5608 79.8851 34.5608 79.5433C34.5608 78.6909 33.2845 78.6088 33.2845 77.5285C33.2845 76.9405 33.558 76.5713 34.1323 76.5713C34.7067 76.5713 35.003 76.9496 35.003 77.5285Z" fill="#263238"/>
<path d="M36.6544 76.6113V80.4357H36.2305V76.6113H36.6544Z" fill="#263238"/>
<path d="M37.4688 80.4357H37.0859V76.6113H37.6284L38.5127 79.3782V76.6113H38.891V80.4357H38.4352L37.4552 77.3452L37.4688 80.4357Z" fill="#263238"/>
<path d="M41.0151 76.6123C41.6123 76.6123 41.8721 76.9678 41.8721 77.5467V78.0026C41.8721 78.6088 41.5895 78.9142 40.9605 78.9142H40.614V80.423H40.1582V76.5986L41.0151 76.6123ZM40.9787 78.545C41.2978 78.545 41.4345 78.3991 41.4345 78.0345V77.524C41.4345 77.173 41.3069 76.9998 40.9787 76.9998H40.614V78.545H40.9787Z" fill="#263238"/>
<path d="M43.0588 76.6113C43.6605 76.6113 43.9112 76.9167 43.9112 77.4865V77.7965C43.9112 78.2158 43.7653 78.4802 43.4553 78.585C43.8063 78.6899 43.9385 78.9725 43.9385 79.3827V79.9799C43.9258 80.1355 43.9508 80.2918 44.0114 80.4357H43.583C43.5225 80.2918 43.4975 80.1354 43.51 79.9799V79.3691C43.51 78.9406 43.3095 78.8038 42.9539 78.8038H42.6531V80.4357H42.2246V76.6113H43.0588ZM42.9494 78.4346C43.2912 78.4346 43.4918 78.3252 43.4918 77.9059V77.5412C43.4918 77.1993 43.3687 77.017 43.036 77.017H42.6212V78.4346H42.9494Z" fill="#263238"/>
<path d="M44.3301 77.5376C44.3301 76.9496 44.6172 76.5713 45.2053 76.5713C45.7933 76.5713 46.085 76.9496 46.085 77.5376V79.5159C46.1027 79.6393 46.0928 79.7651 46.0561 79.8842C46.0193 80.0033 45.9566 80.1128 45.8725 80.2048C45.7884 80.2968 45.6849 80.3689 45.5695 80.4161C45.4541 80.4633 45.3297 80.4843 45.2053 80.4777C44.6172 80.4777 44.3301 80.0948 44.3301 79.5159V77.5376ZM44.7494 79.5341C44.7494 79.8851 44.8999 80.0902 45.2053 80.0902C45.5107 80.0902 45.6611 79.8851 45.6611 79.5341V77.5148C45.6611 77.1684 45.5198 76.9633 45.2053 76.9633C44.8907 76.9633 44.7494 77.1684 44.7494 77.5148V79.5341Z" fill="#263238"/>
<path d="M48.1774 77.5376V77.8613H47.7763V77.5148C47.7763 77.1684 47.6396 76.9633 47.3205 76.9633C47.0014 76.9633 46.8647 77.1684 46.8647 77.5148V79.5341C46.8647 79.8806 47.006 80.0902 47.3205 80.0902C47.635 80.0902 47.7763 79.8806 47.7763 79.5341V78.7729H47.3797V78.39H48.1774V79.5159C48.1774 80.0948 47.9039 80.4777 47.3159 80.4777C46.7279 80.4777 46.459 80.0948 46.459 79.5159V77.5376C46.459 76.9542 46.7325 76.5713 47.3159 76.5713C47.8994 76.5713 48.1774 76.9542 48.1774 77.5376Z" fill="#263238"/>
<path d="M49.4396 76.6113C50.0368 76.6113 50.292 76.9167 50.292 77.4865V77.7965C50.3185 77.9603 50.2876 78.1283 50.2046 78.272C50.1215 78.4157 49.9914 78.5262 49.8362 78.585C50.1872 78.6899 50.3194 78.9725 50.3194 79.3827V79.9799C50.3056 80.1359 50.3323 80.2929 50.3969 80.4357H49.9638C49.9034 80.2918 49.8784 80.1354 49.8909 79.9799V79.3691C49.8909 78.9406 49.6903 78.8038 49.3348 78.8038H49.0339V80.4357H48.6055V76.6113H49.4396ZM49.3302 78.4346C49.6675 78.4346 49.8681 78.3252 49.8681 77.9059V77.5412C49.8681 77.1993 49.745 77.017 49.4123 77.017H48.9975V78.4346H49.3302Z" fill="#263238"/>
<path d="M52.1018 78.3076V78.6905H51.1902V80.058H52.3389V80.4454H50.7617V76.6211H52.3389V77.0085H51.1902V78.3168L52.1018 78.3076Z" fill="#263238"/>
<path d="M54.3682 77.5285V77.6334H53.9625V77.5103C53.9625 77.1639 53.8303 76.9633 53.5067 76.9633C53.1831 76.9633 53.0509 77.1639 53.0509 77.5012C53.0509 78.3627 54.3363 78.4447 54.3363 79.5205C54.3363 80.0994 54.0582 80.4777 53.4702 80.4777C52.8822 80.4777 52.6133 80.0994 52.6133 79.5205V79.3017H53.0144V79.5433C53.0144 79.8851 53.1557 80.0902 53.4702 80.0902C53.7847 80.0902 53.926 79.8851 53.926 79.5433C53.926 78.6909 52.6497 78.6088 52.6497 77.5285C52.6497 76.9405 52.9232 76.5713 53.4976 76.5713C54.0719 76.5713 54.3682 76.9496 54.3682 77.5285Z" fill="#263238"/>
<path d="M56.4014 77.5285V77.6334H55.9957V77.5103C55.9957 77.1639 55.8681 76.9633 55.5399 76.9633C55.2117 76.9633 55.0841 77.1639 55.0841 77.5012C55.0841 78.3627 56.3695 78.4447 56.3695 79.5205C56.3695 80.0994 56.0914 80.4777 55.508 80.4777C54.9245 80.4777 54.6465 80.0994 54.6465 79.5205V79.3017H55.0476V79.5433C55.0476 79.8851 55.1889 80.0902 55.5034 80.0902C55.818 80.0902 55.9593 79.8851 55.9593 79.5433C55.9593 78.6909 54.6784 78.6088 54.6784 77.5285C54.6784 76.9405 54.9519 76.5713 55.5262 76.5713C56.1006 76.5713 56.4014 76.9496 56.4014 77.5285Z" fill="#263238"/>
<path d="M26.7211 102.153V102.495H26.3154V102.13C26.3154 101.784 26.1786 101.579 25.8596 101.579C25.5405 101.579 25.4037 101.784 25.4037 102.13V104.149C25.4037 104.496 25.5496 104.705 25.8596 104.705C26.1695 104.705 26.3154 104.496 26.3154 104.149V103.653H26.7211V104.131C26.7211 104.71 26.4476 105.093 25.855 105.093C25.2624 105.093 24.998 104.71 24.998 104.131V102.153C24.998 101.569 25.2715 101.187 25.855 101.187C26.4384 101.187 26.7211 101.569 26.7211 102.153Z" fill="#263238"/>
<path d="M27.0762 102.153C27.0762 101.565 27.3679 101.187 27.9514 101.187C28.5348 101.187 28.8311 101.565 28.8311 102.153V104.131C28.8311 104.71 28.5439 105.093 27.9514 105.093C27.3588 105.093 27.0762 104.71 27.0762 104.131V102.153ZM27.4955 104.149C27.4955 104.5 27.6459 104.705 27.9514 104.705C28.2568 104.705 28.4072 104.5 28.4072 104.149V102.13C28.4072 101.784 28.2613 101.579 27.9514 101.579C27.6414 101.579 27.4955 101.784 27.4955 102.13V104.149Z" fill="#263238"/>
<path d="M30.65 105.046H30.2398L29.6016 102.001V105.051H29.2188V101.227H29.8159L30.4449 104.281L31.0512 101.227H31.6437V105.051H31.2426V101.974L30.65 105.046Z" fill="#263238"/>
<path d="M32.9344 101.227C33.5361 101.227 33.7959 101.582 33.7959 102.139V102.594C33.8144 102.718 33.8035 102.845 33.7643 102.964C33.725 103.083 33.6583 103.191 33.5697 103.28C33.4811 103.368 33.3729 103.435 33.2539 103.474C33.1348 103.514 33.0083 103.524 32.8843 103.506H32.5059V105.015H32.082V101.19L32.9344 101.227ZM32.9025 103.16C33.2216 103.16 33.3583 103.014 33.3583 102.649V102.139C33.3583 101.788 33.2353 101.614 32.9025 101.614H32.4923V103.16H32.9025Z" fill="#263238"/>
<path d="M34.1289 105.051V101.227H34.5528V104.663H35.6468V105.051H34.1289Z" fill="#263238"/>
<path d="M37.3336 102.922V103.305H36.422V104.672H37.5706V105.06H35.9707V101.235H37.5479V101.623H36.3992V102.931L37.3336 102.922Z" fill="#263238"/>
<path d="M38.491 105.051V101.614H37.7891V101.227H39.6124V101.614H38.9104V105.051H38.491Z" fill="#263238"/>
<path d="M41.2718 102.922V103.305H40.3601V104.672H41.5088V105.06H39.9316V101.235H41.5088V101.623H40.3601V102.931L41.2718 102.922Z" fill="#263238"/>
<path d="M42.7749 101.227C43.3721 101.227 43.6456 101.587 43.6456 102.179V104.107C43.6456 104.691 43.3721 105.051 42.7749 105.051H41.8633V101.227H42.7749ZM42.7749 104.663C43.0803 104.663 43.2308 104.472 43.2308 104.121V102.156C43.2308 101.805 43.0849 101.614 42.7749 101.614H42.3191V104.663H42.7749Z" fill="#263238"/>
<path d="M45.4468 105.051V101.614H44.7402V101.227H46.5635V101.614H45.857V105.051H45.4468Z" fill="#263238"/>
<path d="M47.088 104.281L46.9376 105.051H46.541L47.2749 101.227H47.9085L48.6424 105.051H48.2139L48.068 104.281H47.088ZM47.1427 103.916H47.9951L47.5393 101.705L47.1427 103.916Z" fill="#263238"/>
<path d="M50.6436 102.144V102.249H50.2379V102.126C50.2379 101.779 50.1057 101.579 49.7821 101.579C49.4585 101.579 49.3263 101.779 49.3263 102.116C49.3263 102.978 50.6117 103.06 50.6117 104.136C50.6117 104.715 50.3336 105.093 49.7456 105.093C49.1576 105.093 48.8887 104.715 48.8887 104.136V103.917H49.2898V104.158C49.2898 104.5 49.4311 104.705 49.7456 104.705C50.0601 104.705 50.2014 104.5 50.2014 104.158C50.2014 103.306 48.9251 103.247 48.9251 102.144C48.9251 101.556 49.1986 101.187 49.7684 101.187C50.3382 101.187 50.6436 101.565 50.6436 102.144Z" fill="#263238"/>
<path d="M51.6453 103.392L51.422 103.77V105.051H50.998V101.227H51.422V103.05L52.4384 101.227H52.8715L51.9051 102.968L52.9034 105.051H52.4476L51.6453 103.392Z" fill="#263238"/>
<path d="M54.8643 102.144V102.249H54.4586V102.126C54.4586 101.779 54.3264 101.579 54.0028 101.579C53.6792 101.579 53.547 101.779 53.547 102.116C53.547 102.978 54.8324 103.06 54.8324 104.136C54.8324 104.715 54.5543 105.093 53.9709 105.093C53.3874 105.093 53.1094 104.715 53.1094 104.136V103.917H53.5105V104.158C53.5105 104.5 53.6518 104.705 53.9663 104.705C54.2808 104.705 54.4221 104.5 54.4221 104.158C54.4221 103.306 53.1458 103.247 53.1458 102.144C53.1458 101.556 53.4193 101.187 53.9937 101.187C54.568 101.187 54.8643 101.565 54.8643 102.144Z" fill="#263238"/>
<path d="M160.917 90.5518H149.034C148.195 90.5518 147.516 91.2313 147.516 92.0696V95.2012C147.516 96.0395 148.195 96.7191 149.034 96.7191H160.917C161.755 96.7191 162.435 96.0395 162.435 95.2012V92.0696C162.435 91.2313 161.755 90.5518 160.917 90.5518Z" fill="#FFC410"/>
<path d="M150.363 94.5165L150.24 95.1546H149.912L150.523 91.9639H151.033L151.64 95.1546H151.289L151.166 94.5165H150.363ZM150.409 94.2111H151.115L150.755 92.3878L150.409 94.2111Z" fill="#263238"/>
<path d="M153.317 92.7482V93.0354H152.985V92.73C152.985 92.4428 152.871 92.2742 152.611 92.2742C152.351 92.2742 152.237 92.4428 152.237 92.73V94.4074C152.237 94.6946 152.356 94.8632 152.611 94.8632C152.866 94.8632 152.985 94.69 152.985 94.4074V94.0017H153.317V94.3937C153.317 94.8769 153.089 95.1914 152.602 95.1914C152.114 95.1914 151.891 94.8769 151.891 94.3937V92.7528C151.891 92.2742 152.119 91.9551 152.602 91.9551C153.085 91.9551 153.317 92.2696 153.317 92.7482Z" fill="#263238"/>
<path d="M155.026 92.7482V93.0354H154.694V92.73C154.694 92.4428 154.58 92.2742 154.32 92.2742C154.06 92.2742 153.946 92.4428 153.946 92.73V94.4074C153.946 94.6946 154.065 94.8632 154.32 94.8632C154.575 94.8632 154.694 94.69 154.694 94.4074V94.0017H155.026V94.3937C155.026 94.8769 154.798 95.1914 154.311 95.1914C153.823 95.1914 153.6 94.8769 153.6 94.3937V92.7528C153.6 92.2742 153.828 91.9551 154.311 91.9551C154.794 91.9551 155.026 92.2696 155.026 92.7482Z" fill="#263238"/>
<path d="M156.489 93.386V93.7051H155.714V94.8356H156.667V95.1546H155.363V91.9639H156.667V92.2875H155.714V93.3678L156.489 93.386Z" fill="#263238"/>
<path d="M157.689 91.9821C158.186 91.9821 158.4 92.2784 158.4 92.757V93.1399C158.4 93.6413 158.163 93.9057 157.662 93.9057H157.347V95.1546H156.996V91.9639L157.689 91.9821ZM157.662 93.5866C157.926 93.5866 158.049 93.4635 158.049 93.1627V92.7388C158.049 92.447 157.949 92.3057 157.689 92.3057H157.347V93.5866H157.662Z" fill="#263238"/>
<path d="M159.128 95.1549V92.3061H158.545V91.9824H160.063V92.3061H159.479V95.1549H159.128Z" fill="#263238"/>
<path d="M177.362 90.5518H165.479C164.641 90.5518 163.961 91.2313 163.961 92.0696V95.2012C163.961 96.0395 164.641 96.7191 165.479 96.7191H177.362C178.2 96.7191 178.88 96.0395 178.88 95.2012V92.0696C178.88 91.2313 178.2 90.5518 177.362 90.5518Z" fill="#FFC410"/>
<path d="M167.192 91.9821C167.689 91.9821 167.912 92.2829 167.912 92.7707V94.3706C167.912 94.8583 167.689 95.1546 167.192 95.1546H166.449V91.9639L167.192 91.9821ZM167.192 94.8356C167.447 94.8356 167.571 94.676 167.571 94.3797V92.7479C167.571 92.4562 167.447 92.2921 167.188 92.2921H166.809V94.8219L167.192 94.8356Z" fill="#263238"/>
<path d="M169.377 93.386V93.7051H168.597V94.8356H169.55V95.1546H168.246V91.9639H169.55V92.2875H168.597V93.3678L169.377 93.386Z" fill="#263238"/>
<path d="M171.278 92.7482V93.0354H170.946V92.73C170.946 92.4428 170.832 92.2742 170.572 92.2742C170.312 92.2742 170.198 92.4428 170.198 92.73V94.4074C170.198 94.6946 170.317 94.8632 170.572 94.8632C170.827 94.8632 170.946 94.69 170.946 94.4074V94.0017H171.278V94.3937C171.278 94.8769 171.05 95.1914 170.563 95.1914C170.075 95.1914 169.852 94.8769 169.852 94.3937V92.7528C169.852 92.2742 170.079 91.9551 170.563 91.9551C171.046 91.9551 171.278 92.2696 171.278 92.7482Z" fill="#263238"/>
<path d="M171.6 95.1546V91.9639H171.951V94.8173H172.862V95.1364L171.6 95.1546Z" fill="#263238"/>
<path d="M173.478 91.9824V95.1732H173.127V91.9824H173.478Z" fill="#263238"/>
<path d="M174.172 95.1546H173.857V91.9639H174.313L175.052 94.243V91.9639H175.362V95.1546H174.997L174.172 92.5883V95.1546Z" fill="#263238"/>
<path d="M176.825 93.386V93.7051H176.05V94.8356H177.003V95.1546H175.699V91.9639H177.003V92.2875H176.05V93.3678L176.825 93.386Z" fill="#263238"/>
<path d="M185.111 18.5625H19.1914V27.679H185.111V18.5625Z" fill="#FFC410" stroke="#263238" stroke-miterlimit="10" stroke-linecap="round"/>
<path d="M185.111 9.21875H19.1914V132.747H185.111V9.21875Z" stroke="#263238" stroke-miterlimit="10" stroke-linecap="round"/>
<path d="M185.111 9.21875H19.1914V18.3352H185.111V9.21875Z" fill="#263238" stroke="#263238" stroke-miterlimit="10" stroke-linecap="round"/>
<path d="M164.599 15.6002C165.858 15.6002 166.879 14.5798 166.879 13.3211C166.879 12.0624 165.858 11.042 164.599 11.042C163.341 11.042 162.32 12.0624 162.32 13.3211C162.32 14.5798 163.341 15.6002 164.599 15.6002Z" fill="#FFC410" stroke="#263238" stroke-miterlimit="10" stroke-linecap="round"/>
<path d="M172.347 15.6002C173.606 15.6002 174.627 14.5798 174.627 13.3211C174.627 12.0624 173.606 11.042 172.347 11.042C171.089 11.042 170.068 12.0624 170.068 13.3211C170.068 14.5798 171.089 15.6002 172.347 15.6002Z" fill="#9C9C9C" stroke="#263238" stroke-miterlimit="10"/>
<path d="M180.096 15.6002C181.354 15.6002 182.375 14.5798 182.375 13.3211C182.375 12.0624 181.354 11.042 180.096 11.042C178.837 11.042 177.816 12.0624 177.816 13.3211C177.816 14.5798 178.837 15.6002 180.096 15.6002Z" fill="#9C9C9C" stroke="#263238" stroke-miterlimit="10"/>
<path d="M159.025 55.6624L157.598 54.3451C157.513 54.2653 157.411 54.2053 157.3 54.1694C157.189 54.1334 157.071 54.1225 156.955 54.1373C156.839 54.1521 156.728 54.1923 156.63 54.255C156.531 54.3177 156.448 54.4014 156.385 54.5001C156.29 54.6527 156.249 54.8334 156.27 55.0124C156.29 55.1913 156.371 55.3579 156.499 55.4847L159.316 58.2789C160.017 58.9592 160.935 59.3703 161.909 59.4395C162.883 59.5087 163.851 59.2316 164.64 58.6572C165.438 58.077 166.003 57.2315 166.233 56.2725C166.464 55.3135 166.345 54.3037 165.898 53.4243L163.897 49.7413C163.826 49.6055 163.721 49.4899 163.593 49.4055C163.464 49.321 163.317 49.2703 163.164 49.2581C162.872 49.2581 162.557 49.3584 162.475 49.8963C162.475 49.8963 161.39 48.9163 160.652 50.1014C160.652 50.1014 159.471 48.9846 158.692 50.3384L157.452 47.9226C157.343 47.6939 157.15 47.5163 156.913 47.4271C156.676 47.3378 156.413 47.3439 156.18 47.4439C156.06 47.4962 155.951 47.572 155.86 47.6671C155.77 47.7622 155.699 47.8745 155.653 47.9974C155.607 48.1203 155.585 48.2512 155.591 48.3824C155.596 48.5137 155.627 48.6425 155.683 48.7613L159.025 55.6624Z" fill="white"/>
<path d="M162.201 59.6595C161.064 59.6589 159.972 59.2158 159.156 58.4242L156.339 55.6254C156.165 55.4337 156.071 55.1831 156.075 54.9243C156.078 54.6655 156.18 54.4178 156.36 54.2313C156.54 54.0449 156.783 53.9335 157.042 53.9199C157.3 53.9062 157.554 53.9912 157.752 54.1577L158.308 54.6819L155.482 48.8382C155.413 48.6923 155.375 48.534 155.368 48.3728C155.362 48.2115 155.388 48.0506 155.445 47.8997C155.502 47.7487 155.588 47.6107 155.7 47.494C155.811 47.3772 155.945 47.2841 156.093 47.22C156.379 47.0949 156.703 47.0858 156.995 47.1947C157.288 47.3036 157.526 47.5218 157.661 47.8035L158.732 49.8729C158.921 49.6316 159.192 49.4691 159.494 49.4171C159.893 49.3807 160.292 49.4962 160.61 49.7407C160.802 49.4819 161.089 49.3097 161.408 49.2621C161.739 49.2328 162.07 49.3128 162.352 49.49C162.418 49.3279 162.535 49.1917 162.686 49.1021C162.836 49.0125 163.012 48.9742 163.186 48.9932C163.376 49.0083 163.56 49.0714 163.719 49.1766C163.878 49.2818 164.009 49.4257 164.097 49.5949L166.098 53.2779C166.441 53.9457 166.607 54.6905 166.579 55.4407C166.551 56.1909 166.331 56.9214 165.94 57.5621C165.549 58.2028 164.999 58.7322 164.345 59.0994C163.69 59.4667 162.952 59.6596 162.201 59.6595ZM157.055 54.3446H156.982C156.877 54.3574 156.778 54.3997 156.696 54.4663C156.614 54.533 156.553 54.6214 156.519 54.7214C156.485 54.8215 156.481 54.929 156.505 55.0316C156.53 55.1343 156.583 55.228 156.658 55.3018L159.475 58.1005C160.142 58.7452 161.015 59.1328 161.94 59.1945C162.865 59.2562 163.782 58.988 164.528 58.4376C165.274 57.8872 165.801 57.0902 166.015 56.1881C166.229 55.2861 166.117 54.3373 165.697 53.5104L163.687 49.8319C163.635 49.7289 163.557 49.641 163.461 49.5764C163.366 49.5118 163.255 49.4727 163.14 49.4627C162.953 49.4627 162.753 49.4992 162.684 49.9185L162.62 50.3379L162.306 50.0553C162.07 49.8437 161.762 49.7297 161.444 49.7362C161.314 49.7624 161.191 49.8167 161.084 49.8955C160.977 49.9742 160.888 50.0754 160.825 50.192L160.679 50.4245L160.496 50.2421C160.239 50.0061 159.902 49.8773 159.553 49.8821C159.407 49.9159 159.271 49.9828 159.156 50.0777C159.041 50.1726 158.949 50.2928 158.887 50.429L158.673 50.8028L157.246 47.9949C157.163 47.8192 157.015 47.6829 156.833 47.6148C156.65 47.5467 156.449 47.5523 156.271 47.6303C156.178 47.6697 156.094 47.7276 156.024 47.8005C155.955 47.8734 155.9 47.9597 155.865 48.0542C155.829 48.1487 155.813 48.2495 155.817 48.3505C155.821 48.4516 155.845 48.5508 155.888 48.6422L159.74 56.6237L157.461 54.4722C157.346 54.3801 157.201 54.3345 157.055 54.3446Z" fill="#263238"/>
<path d="M159.735 53.0191C159.69 53.0189 159.646 53.0054 159.608 52.9802C159.571 52.9551 159.542 52.9195 159.525 52.8778L158.477 50.4073C158.454 50.3522 158.453 50.2903 158.475 50.2349C158.497 50.1795 158.54 50.135 158.595 50.111C158.623 50.0989 158.652 50.0924 158.682 50.0918C158.712 50.0913 158.742 50.0966 158.77 50.1077C158.798 50.1187 158.824 50.1351 158.845 50.156C158.867 50.1769 158.884 50.2019 158.896 50.2295L159.944 52.7001C159.956 52.7279 159.962 52.7578 159.963 52.788C159.963 52.8183 159.957 52.8483 159.946 52.8763C159.934 52.9043 159.917 52.9297 159.896 52.9511C159.875 52.9725 159.849 52.9894 159.821 53.0009C159.793 53.0113 159.764 53.0174 159.735 53.0191Z" fill="#263238"/>
<path d="M161.564 52.4768C161.518 52.4762 161.474 52.4627 161.436 52.4376C161.398 52.4125 161.368 52.3771 161.349 52.3354L160.438 50.1703C160.421 50.1161 160.425 50.0577 160.45 50.0065C160.474 49.9552 160.516 49.9149 160.569 49.8932C160.621 49.8716 160.68 49.8703 160.733 49.8895C160.786 49.9087 160.83 49.947 160.857 49.9971L161.769 52.1577C161.79 52.2141 161.79 52.2766 161.767 52.3325C161.744 52.3884 161.701 52.4335 161.646 52.4585C161.62 52.4705 161.592 52.4767 161.564 52.4768Z" fill="#263238"/>
<path d="M163.354 52.0023C163.311 52.0018 163.268 51.9892 163.231 51.9658C163.194 51.9425 163.164 51.9094 163.145 51.8701L162.265 49.9785C162.241 49.9227 162.24 49.8599 162.261 49.8031C162.282 49.7463 162.324 49.6997 162.379 49.6731C162.433 49.6481 162.495 49.6456 162.552 49.6661C162.608 49.6865 162.654 49.7284 162.68 49.7825L163.559 51.6787C163.572 51.7056 163.58 51.7348 163.581 51.7646C163.583 51.7944 163.578 51.8242 163.568 51.8522C163.558 51.8803 163.542 51.906 163.522 51.9278C163.502 51.9497 163.477 51.9673 163.45 51.9795C163.42 51.9935 163.387 52.0013 163.354 52.0023Z" fill="#263238"/>
<path d="M111.015 126.173C111.015 126.173 110.911 132.099 110.911 135.194C110.911 138.289 109.899 161.317 109.899 161.317C109.899 161.317 107.433 161.317 106.813 162.553C106.193 163.788 105.787 166.464 105.787 166.464C105.787 166.464 101.261 168.109 99.8204 170.37C98.38 172.631 97.9697 174.281 97.5413 174.896C97.1128 175.512 93.2246 177.367 93.2246 177.367C93.2246 177.367 95.5037 178.392 96.3105 179.833C96.8598 180.827 97.3395 181.858 97.7464 182.919C97.7464 182.919 101.849 182.303 107.209 181.273C112.57 180.243 116.882 179.217 118.527 177.572C120.173 175.926 124.485 170.58 124.485 170.58C124.485 170.58 124.9 150.628 122.839 142.811C120.779 134.993 115.337 125.562 115.337 125.562" fill="white"/>
<path d="M111.015 126.173C111.015 126.173 110.911 132.099 110.911 135.194C110.911 138.289 109.899 161.317 109.899 161.317C109.899 161.317 107.433 161.317 106.813 162.553C106.193 163.788 105.787 166.464 105.787 166.464C105.787 166.464 101.261 168.109 99.8204 170.37C98.38 172.631 97.9697 174.281 97.5413 174.896C97.1128 175.512 93.2246 177.367 93.2246 177.367C93.2246 177.367 95.5037 178.392 96.3105 179.833C96.8598 180.827 97.3395 181.858 97.7464 182.919C97.7464 182.919 101.849 182.303 107.209 181.273C112.57 180.243 116.882 179.217 118.527 177.572C120.173 175.926 124.485 170.58 124.485 170.58C124.485 170.58 124.9 150.628 122.839 142.811C120.779 134.993 115.337 125.562 115.337 125.562" stroke="#263238" stroke-miterlimit="10"/>
<path d="M102.811 179.382C102.912 179.869 102.938 180.368 102.888 180.863" stroke="#263238" stroke-miterlimit="10"/>
<path d="M98.3613 175.308C98.3613 175.308 101.238 176.051 102.427 178.33" stroke="#263238" stroke-miterlimit="10"/>
<path d="M110.259 165.889C109.964 165.62 109.628 165.397 109.266 165.229" stroke="#263238" stroke-miterlimit="10"/>
<path d="M107 166.875C107 166.875 108.646 168.52 110.086 170.166C111.526 171.811 116.673 173.457 116.673 173.457C116.673 173.457 113.555 169.14 111.162 166.733" stroke="#263238" stroke-miterlimit="10"/>
<path d="M93.2206 177.368C93.2206 177.368 83.156 175.248 82.1259 175.453C81.0957 175.659 77.5996 177.113 74.9102 180.659C73.7661 182.168 74.7051 182.715 75.5256 182.51C76.346 182.304 77.75 180.454 78.5066 179.542C78.926 179.041 81.4102 177.878 81.4102 177.878C81.4102 177.878 77.9961 180.864 77.5859 182.51C77.1756 184.155 76.5557 185.39 77.3808 186.006C78.2058 186.621 79.3408 184.438 79.3408 184.438L81.2872 181.274L83.7577 179.424C83.7577 179.424 81.4786 181.024 80.2069 185.91C80.1827 186.029 80.195 186.153 80.2421 186.265C80.2893 186.377 80.3691 186.473 80.4712 186.539C80.6174 186.656 80.7875 186.74 80.9697 186.784C81.1518 186.828 81.3414 186.832 81.525 186.794C81.7086 186.757 81.8817 186.679 82.032 186.568C82.1824 186.456 82.3062 186.312 82.3948 186.147C82.9691 185.117 84.4825 182.355 85.1981 181.479C86.0824 180.395 88.3251 180.217 88.3251 180.217C88.3251 180.217 85.9821 182.081 85.5901 183.111C85.1981 184.141 84.7651 186.475 85.5901 186.68C86.4152 186.885 87.3359 184.082 88.5256 183.18C89.5144 182.554 90.5387 181.986 91.5933 181.479C91.5933 181.479 94.0593 181.069 93.6491 182.92C93.2388 184.77 89.9478 184.565 89.7381 185.801C89.5284 187.036 92.824 186.006 93.6491 186.006C94.4741 186.006 97.5555 185.185 97.7515 182.92C97.9475 180.654 94.857 177.983 93.2206 177.368Z" fill="white" stroke="#263238" stroke-miterlimit="10"/>
<path d="M83.7578 179.424C84.1892 179.03 84.646 178.664 85.1253 178.33C85.7478 178.176 86.3821 178.074 87.0215 178.024" fill="white"/>
<path d="M83.7578 179.424C84.1892 179.03 84.646 178.664 85.1253 178.33C85.7478 178.176 86.3821 178.074 87.0215 178.024" stroke="#263238" stroke-miterlimit="10"/>
<path d="M81.4102 177.874C81.4102 177.874 82.3811 176.962 82.8369 176.88C83.2927 176.798 84.5827 176.652 84.5827 176.652" fill="white"/>
<path d="M81.4102 177.874C81.4102 177.874 82.3811 176.962 82.8369 176.88C83.2927 176.798 84.5827 176.652 84.5827 176.652" stroke="#263238" stroke-miterlimit="10"/>
<path d="M115.643 139.927C115.643 139.927 122.831 167.24 123.255 170.576C123.679 173.913 122.635 187.442 122.635 187.442H171.805C172.629 183.727 173.042 179.933 173.035 176.128C173.035 169.747 168.619 131.111 167.999 128.846C167.379 126.58 165.118 121.648 162.652 119.998C160.186 118.348 141.05 110.125 141.05 110.125L126.241 116.707C126.241 116.707 111.199 124.73 111.016 126.17C110.834 127.61 111.841 133.372 111.841 133.372" fill="white"/>
<path d="M115.643 139.927C115.643 139.927 122.831 167.24 123.255 170.576C123.679 173.913 122.635 187.442 122.635 187.442H171.805C172.629 183.727 173.042 179.933 173.035 176.128C173.035 169.747 168.619 131.111 167.999 128.846C167.379 126.58 165.118 121.648 162.652 119.998C160.186 118.348 141.05 110.125 141.05 110.125L126.241 116.707C126.241 116.707 111.199 124.73 111.016 126.17C110.834 127.61 111.841 133.372 111.841 133.372" stroke="#263238" stroke-miterlimit="10"/>
<path d="M125.492 121.772L127.151 127.898L127.922 174.898L132.512 180.769L136.596 174.26L128.938 127.77L131.363 121.644L128.3 116.671L125.492 121.772Z" fill="#FFC410" stroke="#263238" stroke-miterlimit="10"/>
<path d="M135.102 176.643L131.072 178.922L132.513 180.768L135.102 176.643Z" fill="#263238" stroke="#263238" stroke-miterlimit="10"/>
<path d="M130.156 135.773L129.833 133.139L127.385 134.292L127.357 137.164L130.156 135.773Z" fill="#263238" stroke="#263238" stroke-miterlimit="10"/>
<path d="M125.492 121.771L126.714 126.274L130.347 124.223L131.363 121.643L129.544 118.685L126.13 120.617L125.492 121.771Z" fill="#263238" stroke="#263238" stroke-miterlimit="10"/>
<path d="M135.321 165.319L134.527 159.781L127.863 163.551L127.895 169.518L135.321 165.319Z" fill="#263238" stroke="#263238" stroke-miterlimit="10"/>
<path d="M132.607 150.251L131.632 144.776L127.502 147.005L127.529 152.977L132.607 150.251Z" fill="#263238" stroke="#263238" stroke-miterlimit="10"/>
<path d="M125.879 115.649L123.582 125.09L128.3 120.499L125.879 115.649Z" fill="white" stroke="#263238" stroke-miterlimit="10"/>
<path d="M107.461 88.1771C107.461 88.1771 107.757 90.5109 108.012 92.1701C108.267 93.8293 108.267 95.6162 108.395 97.1477C108.523 98.6793 111.203 100.083 111.203 100.083C111.073 101.539 110.86 102.987 110.565 104.418C110.182 105.95 110.109 105.877 110.615 106.387C111.121 106.898 113.295 107.299 113.295 107.299C113.295 107.299 116.436 114.392 117.074 115.157C117.712 115.923 118.733 116.561 120.648 116.434C122.562 116.306 125.115 114.774 125.115 114.774L128.305 120.518L138.789 108.01C138.789 108.01 135.726 100.995 135.599 97.8041C135.471 94.6134 136.191 89.4717 135.298 84.877C134.404 80.2823 127.9 76.2163 122.535 75.4369C117.17 74.6574 109.649 78.3678 106.713 80.5375C103.778 82.7073 104.16 86.7914 104.926 87.6848C105.692 88.5783 107.461 88.1771 107.461 88.1771Z" fill="white" stroke="#263238" stroke-miterlimit="10"/>
<path d="M125.115 114.757L128.301 120.5L128.342 120.45L130.052 110.928L125.115 114.757Z" fill="#263238" stroke="#263238" stroke-miterlimit="10"/>
<path d="M115.114 87.1646C118.177 86.0159 121.368 82.9528 123.665 83.4633C125.962 83.9738 123.328 87.0734 123.583 88.0944C123.838 89.1155 125.862 89.8813 127.152 90.1365C128.442 90.3918 128.556 91.6681 128.556 93.072C128.556 94.476 129.832 95.7523 130.598 94.8589C131.364 93.9654 131.109 90.1365 133.406 90.0089C135.703 89.8813 135.448 94.7312 135.065 96.3904C134.682 98.0496 133.023 99.8364 133.023 99.8364C133.023 99.8364 134.468 101.281 136.214 101.058C135.881 99.9969 135.666 98.9024 135.571 97.7944C135.444 94.6036 136.164 89.4619 135.27 84.8672C134.377 80.2725 127.872 76.2066 122.507 75.4271C117.142 74.6477 109.621 78.3581 106.686 80.5278C103.75 82.6975 104.133 86.7817 104.899 87.6751C105.665 88.5685 107.452 88.1856 107.452 88.1856C107.452 88.1856 112.051 88.3041 115.114 87.1646Z" fill="#263238" stroke="#263238" stroke-miterlimit="10"/>
<path d="M114.521 93.9562C114.521 93.9562 117.202 91.5312 120.52 92.297" stroke="#263238" stroke-miterlimit="10"/>
<path d="M110.308 96.1264C109.725 95.9693 109.125 95.8836 108.521 95.8711" stroke="#263238" stroke-miterlimit="10"/>
<path d="M119.156 97.512C119.443 98.0362 119.402 98.6105 119.061 98.7974C118.719 98.9843 118.213 98.7108 117.926 98.1866C117.638 97.6624 117.679 97.0835 118.017 96.8966C118.354 96.7097 118.869 96.9832 119.156 97.512Z" fill="#263238"/>
<path d="M122.945 93.0635C122.945 93.0635 117.968 93.8293 114.139 95.6161C114.139 95.6161 115.926 100.211 116.691 100.849C117.457 101.487 121.669 100.977 123.073 99.9373C124.477 98.898 122.945 93.0635 122.945 93.0635Z" stroke="#263238" stroke-miterlimit="10"/>
<path d="M122.943 93.0628L131.362 91.5312" stroke="#263238" stroke-miterlimit="10"/>
<path d="M114.139 95.6162L111.203 96.7649" stroke="#263238" stroke-miterlimit="10"/>
<path d="M111.841 96.6367C111.841 96.6367 108.267 97.2749 105.975 98.4236C105.975 98.4236 107.757 102.631 108.523 103.269C109.151 103.738 109.838 104.124 110.565 104.418L111.203 100.083L111.841 96.6367Z" stroke="#263238" stroke-miterlimit="10"/>
<path d="M111.723 98.0403C111.723 98.0403 112.999 96.5087 114.786 97.0192" stroke="#263238" stroke-miterlimit="10"/>
<path d="M116.59 108.133C116.59 108.133 120.036 108.005 121.823 106.091" stroke="#263238" stroke-miterlimit="10"/>
<path d="M133.405 99.9551C133.405 99.9551 134.317 104.491 133.56 105.881C132.873 107.047 132.112 108.167 131.281 109.236" stroke="#263238" stroke-miterlimit="10"/>
<path d="M139.277 106.46L128.301 120.499L132.768 126.366L142.851 110.034L139.277 106.46Z" fill="white" stroke="#263238" stroke-miterlimit="10"/>
<path d="M123.241 167.239H116.96C116.438 167.239 115.936 167.044 115.552 166.692C115.167 166.34 114.928 165.858 114.881 165.338L113.787 152.949H126.418L125.324 165.338C125.277 165.858 125.037 166.342 124.652 166.694C124.266 167.046 123.763 167.24 123.241 167.239Z" fill="white" stroke="#263238" stroke-miterlimit="10" stroke-linecap="round"/>
<path d="M162.876 120.207C163.897 121.055 167.156 123.854 168.802 126.652C169.745 128.248 172.179 131.99 174.103 134.916C175.834 137.554 177.03 140.506 177.622 143.604C178.966 150.647 181.446 163.392 182.267 166.218C183.415 170.174 182.649 173.876 181.501 174.514C180.352 175.152 172.184 174.386 165.679 173.365C159.175 172.344 144.255 167.622 144.255 167.622C144.255 167.622 140.153 168.005 137.619 168.132C135.084 168.26 130.599 167.366 129.706 166.856C128.812 166.345 127.923 163.155 127.923 163.155C127.255 162.638 126.655 162.039 126.137 161.372C125.371 160.351 126.009 158.437 126.009 158.437C126.009 158.437 125.243 156.65 125.754 155.501C126.264 154.353 132.386 154.353 132.386 154.353C132.386 154.353 135.321 154.353 136.215 155.119C137.108 155.884 145.532 160.588 145.532 160.588L161.353 161.354C161.353 161.354 159.439 157.398 159.311 155.994C159.184 154.59 160.077 151.399 160.077 151.016C160.077 150.633 155.738 138.641 155.61 137.492C155.172 134.814 155.62 132.066 156.886 129.665" fill="white"/>
<path d="M162.876 120.207C163.897 121.055 167.156 123.854 168.802 126.652C169.745 128.248 172.179 131.99 174.103 134.916C175.834 137.554 177.03 140.506 177.622 143.604C178.966 150.647 181.446 163.392 182.267 166.218C183.415 170.174 182.649 173.876 181.501 174.514C180.352 175.152 172.184 174.386 165.679 173.365C159.175 172.344 144.255 167.622 144.255 167.622C144.255 167.622 140.153 168.005 137.619 168.132C135.084 168.26 130.599 167.366 129.706 166.856C128.812 166.345 127.923 163.155 127.923 163.155C127.255 162.638 126.655 162.039 126.137 161.372C125.371 160.351 126.009 158.437 126.009 158.437C126.009 158.437 125.243 156.65 125.754 155.501C126.264 154.353 132.386 154.353 132.386 154.353C132.386 154.353 135.321 154.353 136.215 155.119C137.108 155.884 145.532 160.588 145.532 160.588L161.353 161.354C161.353 161.354 159.439 157.398 159.311 155.994C159.184 154.59 160.077 151.399 160.077 151.016C160.077 150.633 155.738 138.641 155.61 137.492C155.172 134.814 155.62 132.066 156.886 129.665" stroke="#263238" stroke-miterlimit="10" stroke-linecap="round"/>
<path d="M175.082 154.627C175.773 155.133 176.404 155.717 176.96 156.368" stroke="#263238" stroke-miterlimit="10" stroke-linecap="round"/>
<path d="M162.133 150.209C162.133 150.209 169.358 150.92 174.285 154.097" stroke="#263238" stroke-miterlimit="10" stroke-linecap="round"/>
<path d="M150.505 165.835C150.635 164.101 150.282 162.365 149.484 160.821L145.532 160.629C145.532 160.629 137.108 155.907 136.215 155.159C135.321 154.412 132.386 154.394 132.386 154.394C132.386 154.394 126.264 154.394 125.754 155.542C125.243 156.691 126.009 158.478 126.009 158.478C126.009 158.478 125.371 160.392 126.137 161.413C126.655 162.08 127.255 162.679 127.923 163.195C127.923 163.195 128.835 166.386 129.706 166.897C130.576 167.407 135.066 168.301 137.619 168.173C140.171 168.045 144.255 167.663 144.255 167.663C144.255 167.663 146.63 168.415 149.903 169.386C150.25 168.231 150.452 167.039 150.505 165.835Z" fill="white" stroke="#263238" stroke-miterlimit="10" stroke-linecap="round"/>
<path d="M153.913 168.584C153.722 169.056 153.477 169.504 153.184 169.92" stroke="#263238" stroke-miterlimit="10" stroke-linecap="round"/>
<path d="M153.949 161.883C154.53 163.656 154.648 165.548 154.291 167.38" stroke="#263238" stroke-miterlimit="10" stroke-linecap="round"/>
<path d="M173.221 161.008C174.205 161.199 174.875 161.359 174.875 161.359" stroke="#263238" stroke-miterlimit="10" stroke-linecap="round"/>
<path d="M161.352 161.373C161.352 161.373 164.925 160.352 167.733 160.352C168.892 160.373 170.049 160.478 171.193 160.666" stroke="#263238" stroke-miterlimit="10" stroke-linecap="round"/>
<path d="M114.854 151.472C114.854 150.56 115.679 150.56 115.679 149.649C115.679 148.737 114.854 148.737 114.854 147.825C114.854 146.914 115.679 146.914 115.679 146.002C115.679 145.09 114.854 145.09 114.854 144.179C114.854 143.267 115.679 143.267 115.679 142.355" stroke="#263238" stroke-miterlimit="10" stroke-linecap="round"/>
<path d="M120.949 151.636C120.949 150.962 121.77 150.962 121.77 150.269C121.77 149.576 120.949 149.594 120.949 148.901C120.949 148.208 121.77 148.227 121.77 147.534C121.77 146.841 120.949 146.859 120.949 146.166C120.949 145.473 121.77 145.487 121.77 144.799" stroke="#263238" stroke-miterlimit="10" stroke-linecap="round"/>
<path d="M124.244 151.472C124.244 150.419 125.065 150.419 125.065 149.366C125.065 148.313 124.244 148.313 124.244 147.26C124.244 146.207 125.065 146.207 125.065 145.15C125.065 144.092 124.244 144.097 124.244 143.044C124.244 141.991 125.065 141.987 125.065 140.934" stroke="#263238" stroke-miterlimit="10" stroke-linecap="round"/>
<path d="M120.78 185.394H37.5918V187.445H120.78V185.394Z" fill="#9C9C9C" stroke="#263238" stroke-miterlimit="10"/>
<path d="M68.2784 147.332H28.7631C28.5667 147.332 28.373 147.377 28.1968 147.463C28.0205 147.55 27.8666 147.676 27.7467 147.831C27.6269 147.987 27.5444 148.168 27.5057 148.36C27.4669 148.553 27.4729 148.751 27.5232 148.941L37.5924 187.444H79.756L69.5228 148.289C69.4503 148.015 69.2888 147.772 69.0637 147.599C68.8386 147.425 68.5624 147.332 68.2784 147.332Z" fill="#9C9C9C" stroke="#263238" stroke-miterlimit="10"/>
<path d="M37.5922 187.445H79.7558L73.0006 161.6C67.8498 163.906 60.9212 166.158 50.8111 170.124C42.7977 173.26 38.203 176.706 35.582 179.764L37.5922 187.445Z" fill="#828282" stroke="#263238" stroke-miterlimit="10"/>
<path d="M77.6504 183.661L78.0059 185.015" stroke="#263238" stroke-miterlimit="10"/>
<path d="M69.4141 152.52L77.0719 181.483" stroke="#263238" stroke-miterlimit="10"/>
<path d="M32.7285 148.244H67.2936C67.5764 148.244 67.8515 148.337 68.0757 148.509C68.3 148.682 68.461 148.923 68.5334 149.197L68.9892 150.952" stroke="#263238" stroke-miterlimit="10"/>
<path d="M203.344 187.444H208.814" stroke="#263238" stroke-miterlimit="10" stroke-linecap="round"/>
<path d="M6.42773 187.444H198.785" stroke="#263238" stroke-miterlimit="10" stroke-linecap="round"/>
</svg>
