<svg width="227" height="189" viewBox="0 0 227 189" fill="none" xmlns="http://www.w3.org/2000/svg">
<path d="M33.2428 171.394C77.5692 194.549 149.431 194.554 193.757 171.394C238.084 148.233 238.079 110.694 193.757 87.5392C149.436 64.3841 77.5692 64.3841 33.2428 87.5392C-11.0836 110.694 -11.0783 148.244 33.2428 171.394Z" fill="#F0F0F0"/>
<path d="M203.17 126.051C203.17 126.051 203.725 123.258 208.232 121.099C212.618 118.983 215.147 119.475 218.157 118.264C221.167 117.052 219.003 111.36 210.751 113.889C203.191 116.206 202.424 122.75 202.424 122.75L203.17 126.051Z" fill="#FFC000"/>
<path opacity="0.2" d="M203.17 126.051C203.17 126.051 203.725 123.258 208.232 121.099C212.618 118.983 215.147 119.475 218.157 118.264C221.167 117.052 219.003 111.36 210.751 113.889C203.191 116.206 202.424 122.75 202.424 122.75L203.17 126.051Z" fill="black"/>
<path d="M202.376 125.004C202.346 125.009 202.316 125.009 202.286 125.004C202.25 124.991 202.216 124.972 202.188 124.946C202.159 124.921 202.136 124.89 202.119 124.856C202.102 124.821 202.093 124.784 202.09 124.746C202.088 124.708 202.093 124.67 202.106 124.633C203.164 121.607 205.809 118.814 209.258 117.111C213.681 114.947 216.828 115.635 216.961 115.667C217.035 115.683 217.1 115.729 217.14 115.794C217.181 115.858 217.194 115.936 217.178 116.01C217.161 116.085 217.115 116.149 217.051 116.19C216.986 116.231 216.908 116.244 216.834 116.227C216.802 116.227 213.739 115.561 209.512 117.629C206.206 119.248 203.64 121.935 202.635 124.824C202.613 124.875 202.577 124.919 202.531 124.951C202.485 124.983 202.431 125.001 202.376 125.004Z" fill="#FAFAFA"/>
<path d="M202.519 122.57C202.519 122.57 203.048 120.983 205.085 117.878C208.598 112.492 214.327 110.138 216.834 107.059C219.532 103.737 214.867 101.685 210.671 102.827C208.27 103.494 206.08 105.684 204.932 107.16C202.5 110.37 201.106 114.246 200.938 118.269L202.519 122.57Z" fill="#FFC000"/>
<path d="M201.73 122.697C201.653 122.695 201.581 122.662 201.529 122.607C201.476 122.551 201.448 122.478 201.449 122.401C201.695 118.907 202.689 115.506 204.364 112.429C207.538 106.732 212.247 104.706 212.448 104.621C212.515 104.605 212.585 104.614 212.646 104.645C212.707 104.676 212.756 104.728 212.782 104.792C212.809 104.855 212.812 104.926 212.792 104.991C212.771 105.057 212.728 105.113 212.67 105.15C209.356 106.809 206.632 109.446 204.867 112.704C203.234 115.699 202.265 119.01 202.026 122.412C202.025 122.45 202.017 122.488 202.002 122.523C201.986 122.558 201.964 122.589 201.937 122.616C201.909 122.643 201.877 122.663 201.841 122.677C201.806 122.691 201.768 122.698 201.73 122.697Z" fill="#FAFAFA"/>
<path d="M47.9016 127.332C44.0979 124.777 43.9286 117.899 44.4788 113.577C45.3517 106.7 41.8337 105.113 40.0404 108.15C39.1728 109.626 38.083 112.831 38.2047 116.566C38.4004 122.417 40.9344 129.416 47.071 131.955L47.9016 127.332Z" fill="#FFC000"/>
<path opacity="0.2" d="M47.9016 127.332C44.0979 124.777 43.9286 117.899 44.4788 113.577C45.3517 106.7 41.8337 105.113 40.0404 108.15C39.1728 109.626 38.083 112.831 38.2047 116.566C38.4004 122.417 40.9344 129.416 47.071 131.955L47.9016 127.332Z" fill="black"/>
<path d="M47.1198 131.563C47.0576 131.563 46.9975 131.541 46.9505 131.5C40.5124 125.993 39.5019 116.158 41.29 109.339C41.2987 109.305 41.3141 109.272 41.3355 109.243C41.3568 109.214 41.3835 109.19 41.4142 109.172C41.4449 109.153 41.479 109.141 41.5144 109.136C41.5498 109.131 41.5859 109.132 41.6207 109.141C41.6554 109.15 41.6881 109.165 41.7168 109.186C41.7456 109.208 41.7699 109.234 41.7883 109.265C41.8067 109.296 41.8189 109.33 41.8242 109.365C41.8295 109.401 41.8277 109.437 41.819 109.472C40.0733 116.132 41.0414 125.739 47.3102 131.098C47.3367 131.12 47.3584 131.148 47.3741 131.178C47.3897 131.209 47.3991 131.243 47.4016 131.277C47.404 131.312 47.3995 131.347 47.3884 131.379C47.3773 131.412 47.3597 131.442 47.3367 131.468C47.311 131.5 47.2778 131.526 47.24 131.543C47.2022 131.559 47.161 131.566 47.1198 131.563Z" fill="#FAFAFA"/>
<path d="M53.6212 140.028C50.3095 142.408 42.697 144.466 40.2212 140.388C37.9199 136.595 39.4594 134.939 34.7882 135.595C30.1169 136.251 29.043 132.622 30.1487 129.553C31.2543 126.485 26.6519 122.047 30.0111 118.587C33.3704 115.127 35.3013 122.322 37.2481 123.099C39.1949 123.877 40.3852 122.2 42.6282 123.422C44.8712 124.644 45.0881 129.643 47.273 129.738C50.8491 129.902 56.8694 129.876 57.3243 133.066C57.7793 136.256 53.6212 140.028 53.6212 140.028Z" fill="#FFC000"/>
<path d="M54.9909 138.631H54.9644C37.6391 136.822 30.9364 121.703 30.5238 119.502C30.5175 119.467 30.5182 119.432 30.5257 119.397C30.5332 119.363 30.5474 119.33 30.5676 119.301C30.5877 119.272 30.6134 119.247 30.6431 119.228C30.6728 119.209 30.7059 119.196 30.7407 119.19C30.7754 119.184 30.811 119.184 30.8455 119.192C30.88 119.199 30.9127 119.213 30.9417 119.234C30.9706 119.254 30.9954 119.279 31.0144 119.309C31.0335 119.339 31.0465 119.372 31.0528 119.407C31.4549 121.57 38.02 136.335 55.0279 138.107C55.0627 138.111 55.0965 138.121 55.1273 138.137C55.1582 138.154 55.1855 138.176 55.2076 138.203C55.2297 138.23 55.2463 138.262 55.2563 138.295C55.2663 138.329 55.2696 138.364 55.266 138.398C55.2569 138.464 55.2237 138.525 55.173 138.567C55.1222 138.61 55.0573 138.633 54.9909 138.631Z" fill="#FAFAFA"/>
<path d="M36.0482 131.86C34.9548 131.86 33.8633 131.771 32.7841 131.595C32.7155 131.582 32.6548 131.543 32.6151 131.485C32.5755 131.428 32.5602 131.357 32.5725 131.288C32.5782 131.254 32.5908 131.221 32.6094 131.192C32.6281 131.163 32.6525 131.137 32.6811 131.117C32.7097 131.098 32.742 131.084 32.7761 131.077C32.8102 131.07 32.8453 131.07 32.8794 131.077C34.8552 131.402 36.8709 131.402 38.8467 131.077C38.9161 131.063 38.9883 131.076 39.0477 131.115C39.107 131.153 39.1489 131.214 39.1641 131.283C39.1711 131.317 39.1712 131.352 39.1646 131.386C39.158 131.42 39.1448 131.453 39.1256 131.482C39.1064 131.511 39.0818 131.536 39.053 131.555C39.0242 131.575 38.9918 131.588 38.9578 131.595C37.9996 131.783 37.0246 131.872 36.0482 131.86Z" fill="#FAFAFA"/>
<path d="M41.216 133.441H41.1578C41.09 133.426 41.0309 133.385 40.9933 133.326C40.9557 133.268 40.9426 133.197 40.9567 133.129C41.4911 130.773 41.6181 128.344 41.3324 125.945C41.3211 125.875 41.3382 125.803 41.3799 125.746C41.4216 125.688 41.4844 125.649 41.5545 125.638C41.6247 125.627 41.6964 125.644 41.754 125.686C41.8115 125.727 41.8501 125.79 41.8614 125.86C42.168 128.332 42.039 130.839 41.4805 133.267C41.4612 133.32 41.4249 133.366 41.3773 133.398C41.3296 133.429 41.273 133.445 41.216 133.441Z" fill="#FAFAFA"/>
<path d="M8.79194 112.741L17.0975 107.948C17.4972 107.747 17.9383 107.643 18.3857 107.643C18.833 107.643 19.2742 107.747 19.6738 107.948L20.7319 108.557C21.1079 108.801 21.4208 109.13 21.6452 109.518C21.8695 109.906 21.9989 110.342 22.0227 110.789V120.375C21.998 120.822 21.8683 121.257 21.6441 121.645C21.4198 122.033 21.1073 122.363 20.7319 122.607L12.4316 127.4C12.0319 127.601 11.5908 127.706 11.1434 127.706C10.6961 127.706 10.2549 127.601 9.85527 127.4L8.79723 126.792C8.42221 126.547 8.11028 126.218 7.88688 125.83C7.66348 125.442 7.53493 125.006 7.51172 124.559V114.974C7.53559 114.527 7.66385 114.093 7.8862 113.705C8.10855 113.317 8.41878 112.987 8.79194 112.741Z" fill="#FFC000"/>
<path opacity="0.5" d="M8.79194 112.741L17.0975 107.948C17.4972 107.747 17.9383 107.643 18.3857 107.643C18.833 107.643 19.2742 107.747 19.6738 107.948L20.7319 108.557C21.1079 108.801 21.4208 109.13 21.6452 109.518C21.8695 109.906 21.9989 110.342 22.0227 110.789V120.375C21.998 120.822 21.8683 121.257 21.6441 121.645C21.4198 122.033 21.1073 122.363 20.7319 122.607L12.4316 127.4C12.0319 127.601 11.5908 127.706 11.1434 127.706C10.6961 127.706 10.2549 127.601 9.85527 127.4L8.79723 126.792C8.42221 126.547 8.11028 126.218 7.88688 125.83C7.66348 125.442 7.53493 125.006 7.51172 124.559V114.974C7.53559 114.527 7.66385 114.093 7.8862 113.705C8.10855 113.317 8.41878 112.987 8.79194 112.741Z" fill="#FAFAFA"/>
<path d="M22.0128 110.789C22.0128 109.964 21.4361 109.631 20.722 110.043L12.4217 114.836C12.0462 115.081 11.7337 115.41 11.5095 115.798C11.2852 116.186 11.1555 116.621 11.1309 117.069V126.654C11.1309 127.474 11.7075 127.808 12.4217 127.4L20.722 122.607C21.0974 122.363 21.4099 122.033 21.6341 121.645C21.8584 121.258 21.9881 120.822 22.0128 120.375V110.789Z" fill="#FFC000"/>
<path d="M7.50781 124.559C7.52938 125.008 7.65715 125.446 7.88063 125.835C8.1041 126.225 8.4169 126.557 8.79333 126.802L9.85136 127.411C10.2143 127.593 10.6119 127.696 11.0176 127.713C11.4234 127.731 11.8283 127.662 12.2055 127.511C11.5971 127.744 11.1475 127.4 11.1475 126.665V117.068C11.1615 116.619 11.2928 116.181 11.5283 115.799L7.89929 113.683C7.66847 114.067 7.53922 114.504 7.52368 114.952L7.50781 124.559Z" fill="#FFC000"/>
<path opacity="0.1" d="M7.50781 124.559C7.52938 125.008 7.65715 125.446 7.88063 125.835C8.1041 126.225 8.4169 126.557 8.79333 126.802L9.85136 127.411C10.2143 127.593 10.6119 127.696 11.0176 127.713C11.4234 127.731 11.8283 127.662 12.2055 127.511C11.5971 127.744 11.1475 127.4 11.1475 126.665V117.068C11.1615 116.619 11.2928 116.181 11.5283 115.799L7.89929 113.683C7.66847 114.067 7.53922 114.504 7.52368 114.952L7.50781 124.559Z" fill="black"/>
<path d="M13.0568 117.724L20.1191 113.635C20.3043 113.524 20.4577 113.635 20.4577 113.831V118.592C20.4516 118.711 20.4179 118.827 20.3591 118.931C20.3003 119.035 20.2182 119.123 20.1191 119.19L13.0568 123.311C12.8663 123.422 12.7129 123.311 12.7129 123.11V118.348C12.7154 118.224 12.748 118.103 12.8079 117.994C12.8678 117.885 12.9532 117.793 13.0568 117.724Z" fill="#FAFAFA"/>
<path d="M12.7129 117.925L16.9292 119.295L20.4577 113.434L17.0455 119.787L12.7129 117.925Z" fill="#E0E0E0"/>
<path d="M8.79333 88.5487L17.0989 83.7558C17.4978 83.5524 17.9393 83.4463 18.3871 83.4463C18.8349 83.4463 19.2763 83.5524 19.6752 83.7558L20.7333 84.3642C21.1076 84.6089 21.4187 84.9388 21.6412 85.3268C21.8637 85.7148 21.9913 86.1499 22.0135 86.5966V96.1824C21.9897 96.6293 21.8603 97.0641 21.6359 97.4512C21.4116 97.8384 21.0986 98.1668 20.7227 98.4096L12.4224 103.202C12.0235 103.406 11.582 103.512 11.1342 103.512C10.6864 103.512 10.245 103.406 9.84607 103.202L8.78804 102.599C8.41278 102.352 8.10126 102.019 7.8788 101.628C7.65635 101.238 7.52924 100.8 7.50781 100.351V90.7811C7.53227 90.3343 7.66135 89.8995 7.88464 89.5118C8.10793 89.124 8.41918 88.7941 8.79333 88.5487Z" fill="#FFC000"/>
<path opacity="0.5" d="M8.79333 88.5487L17.0989 83.7558C17.4978 83.5524 17.9393 83.4463 18.3871 83.4463C18.8349 83.4463 19.2763 83.5524 19.6752 83.7558L20.7333 84.3642C21.1076 84.6089 21.4187 84.9388 21.6412 85.3268C21.8637 85.7148 21.9913 86.1499 22.0135 86.5966V96.1824C21.9897 96.6293 21.8603 97.0641 21.6359 97.4512C21.4116 97.8384 21.0986 98.1668 20.7227 98.4096L12.4224 103.202C12.0235 103.406 11.582 103.512 11.1342 103.512C10.6864 103.512 10.245 103.406 9.84607 103.202L8.78804 102.599C8.41278 102.352 8.10126 102.019 7.8788 101.628C7.65635 101.238 7.52924 100.8 7.50781 100.351V90.7811C7.53227 90.3343 7.66135 89.8995 7.88464 89.5118C8.10793 89.124 8.41918 88.7941 8.79333 88.5487Z" fill="#FAFAFA"/>
<path d="M22.0128 86.5967C22.0128 85.7715 21.4361 85.4382 20.722 85.8508L12.4217 90.6437C12.0457 90.8876 11.7327 91.2171 11.5084 91.6051C11.284 91.9931 11.1547 92.4286 11.1309 92.8762V102.467C11.1309 103.287 11.7075 103.621 12.4217 103.208L20.722 98.415C21.0979 98.1722 21.4108 97.8438 21.6352 97.4567C21.8596 97.0695 21.989 96.6347 22.0128 96.1878V86.5967Z" fill="#FFC000"/>
<path d="M7.50781 100.351C7.53227 100.798 7.66135 101.233 7.88464 101.62C8.10793 102.008 8.41918 102.338 8.79333 102.583L9.85136 103.187C10.2136 103.371 10.611 103.476 11.017 103.494C11.423 103.512 11.8282 103.443 12.2055 103.292C11.5971 103.52 11.1475 103.181 11.1475 102.446V92.8759C11.1615 92.4268 11.2928 91.9891 11.5283 91.6063L7.89929 89.4902C7.66847 89.8748 7.53922 90.3117 7.52368 90.7599L7.50781 100.351Z" fill="#FFC000"/>
<path opacity="0.1" d="M7.50781 100.351C7.53227 100.798 7.66135 101.233 7.88464 101.62C8.10793 102.008 8.41918 102.338 8.79333 102.583L9.85136 103.187C10.2136 103.371 10.611 103.476 11.017 103.494C11.423 103.512 11.8282 103.443 12.2055 103.292C11.5971 103.52 11.1475 103.181 11.1475 102.446V92.8759C11.1615 92.4268 11.2928 91.9891 11.5283 91.6063L7.89929 89.4902C7.66847 89.8748 7.53922 90.3117 7.52368 90.7599L7.50781 100.351Z" fill="black"/>
<path d="M16.4889 98.2355L15.6319 98.1403C14.4681 98.0451 13.082 97.6113 13.082 95.9237C13.1156 95.311 13.293 94.7149 13.6 94.1836C13.907 93.6524 14.3349 93.2009 14.849 92.866C15.6107 92.4269 16.2561 92.6067 16.5048 93.2416C16.7554 92.3 17.3451 91.4842 18.1606 90.9509C19.1393 90.3902 19.9275 90.8451 19.9275 91.9719C19.9275 93.6013 18.5521 95.675 17.3935 97.1087L16.4889 98.2355Z" fill="#FAFAFA"/>
<path d="M8.79194 64.3778L17.0975 59.5849C17.4964 59.3814 17.9379 59.2754 18.3857 59.2754C18.8335 59.2754 19.2749 59.3814 19.6738 59.5849L20.7319 60.1932C21.1078 60.436 21.4208 60.7644 21.6451 61.1516C21.8695 61.5387 21.9989 61.9736 22.0227 62.4204V72.0062C21.9993 72.4539 21.8701 72.8896 21.6457 73.2777C21.4214 73.6657 21.1082 73.9951 20.7319 74.2387L12.4316 79.0316C12.0327 79.235 11.5912 79.3411 11.1434 79.3411C10.6956 79.3411 10.2542 79.235 9.85527 79.0316L8.79723 78.4285C8.42309 78.1831 8.11183 77.8532 7.88854 77.4654C7.66525 77.0776 7.53618 76.6428 7.51172 76.196V66.5944C7.53801 66.1508 7.66743 65.7194 7.88967 65.3347C8.11191 64.9499 8.42086 64.6222 8.79194 64.3778Z" fill="#FFC000"/>
<path opacity="0.5" d="M8.79194 64.3778L17.0975 59.5849C17.4964 59.3814 17.9379 59.2754 18.3857 59.2754C18.8335 59.2754 19.2749 59.3814 19.6738 59.5849L20.7319 60.1932C21.1078 60.436 21.4208 60.7644 21.6451 61.1516C21.8695 61.5387 21.9989 61.9736 22.0227 62.4204V72.0062C21.9993 72.4539 21.8701 72.8896 21.6457 73.2777C21.4214 73.6657 21.1082 73.9951 20.7319 74.2387L12.4316 79.0316C12.0327 79.235 11.5912 79.3411 11.1434 79.3411C10.6956 79.3411 10.2542 79.235 9.85527 79.0316L8.79723 78.4285C8.42309 78.1831 8.11183 77.8532 7.88854 77.4654C7.66525 77.0776 7.53618 76.6428 7.51172 76.196V66.5944C7.53801 66.1508 7.66743 65.7194 7.88967 65.3347C8.11191 64.9499 8.42086 64.6222 8.79194 64.3778Z" fill="#FAFAFA"/>
<path d="M12.4217 79.0162C11.7075 79.4289 11.1309 79.0956 11.1309 78.2756V68.6898C11.1542 68.2421 11.2834 67.8064 11.5078 67.4183C11.7322 67.0303 12.0454 66.7009 12.4217 66.4573L20.722 61.6644C21.4361 61.2518 22.0128 61.5851 22.0128 62.4051V71.9909C21.9894 72.4385 21.8602 72.8742 21.6358 73.2623C21.4114 73.6504 21.0983 73.9797 20.722 74.2233" fill="#FFC000"/>
<path d="M7.50781 76.1803C7.53227 76.6271 7.66135 77.0619 7.88464 77.4497C8.10793 77.8374 8.41918 78.1673 8.79333 78.4128L9.85136 79.0159C10.2136 79.2002 10.611 79.3051 11.017 79.3233C11.423 79.3416 11.8282 79.2728 12.2055 79.1217C11.5971 79.3491 11.1475 79.0106 11.1475 78.2752V68.6894C11.1615 68.2402 11.2928 67.8025 11.5283 67.4198L7.89929 65.3037C7.66847 65.6882 7.53922 66.1251 7.52368 66.5734L7.50781 76.1803Z" fill="#FFC000"/>
<path opacity="0.1" d="M7.50781 76.1803C7.53227 76.6271 7.66135 77.0619 7.88464 77.4497C8.10793 77.8374 8.41918 78.1673 8.79333 78.4128L9.85136 79.0159C10.2136 79.2002 10.611 79.3051 11.017 79.3233C11.423 79.3416 11.8282 79.2728 12.2055 79.1217C11.5971 79.3491 11.1475 79.0106 11.1475 78.2752V68.6894C11.1615 68.2402 11.2928 67.8025 11.5283 67.4198L7.89929 65.3037C7.66847 65.6882 7.53922 66.1251 7.52368 66.5734L7.50781 76.1803Z" fill="black"/>
<path d="M15.0566 70.1979C15.0566 70.1979 16.0247 67.9655 16.1147 67.6428C16.1627 67.0901 16.1627 66.5343 16.1147 65.9816C16.1147 65.77 16.9981 65.1723 17.2838 65.7859C17.5586 66.4387 17.6107 67.1638 17.4319 67.8491L19.585 66.5953C20.04 66.3308 20.2251 66.7011 20.2304 66.9974C20.2157 67.3353 20.0933 67.6596 19.8813 67.9231C19.8813 67.9231 20.3151 67.7962 20.3151 68.3728C20.3022 68.5756 20.2487 68.7737 20.1578 68.9555C20.067 69.1372 19.9406 69.2989 19.7861 69.4308C19.7861 69.4308 19.9236 69.5367 19.9289 69.9599C19.8651 70.3748 19.6504 70.7516 19.3258 71.0179C19.3973 71.1847 19.4299 71.3656 19.421 71.5469C19.3944 71.8002 19.3094 72.0438 19.1726 72.2586C19.0358 72.4734 18.851 72.6536 18.6328 72.7848L15.1043 74.8533L15.0566 70.1979Z" fill="#FAFAFA"/>
<path d="M13.0147 76.6834L14.5648 75.7788L14.5436 70.3828L12.9883 71.2874L13.0147 76.6834Z" fill="#FAFAFA"/>
<path d="M4.24757 36.0546L16.9757 28.7066C17.5872 28.3962 18.2632 28.2344 18.949 28.2344C19.6347 28.2344 20.3108 28.3962 20.9222 28.7066L22.5093 29.6323C23.0855 30.0066 23.565 30.5117 23.9089 31.1065C24.2527 31.7013 24.4511 32.369 24.4878 33.0551V47.7512C24.4482 48.4337 24.2485 49.0973 23.9048 49.6883C23.561 50.2792 23.083 50.781 22.5093 51.1528L9.81284 58.5167C9.20046 58.8272 8.52354 58.989 7.83695 58.989C7.15037 58.989 6.47345 58.8272 5.86107 58.5167L4.27402 57.5909C3.6994 57.2155 3.22131 56.71 2.87849 56.1153C2.53566 55.5207 2.33775 54.8536 2.30078 54.1682V39.4721C2.33478 38.7897 2.52868 38.1249 2.86684 37.5313C3.20501 36.9377 3.67797 36.4319 4.24757 36.0546Z" fill="#FFC000"/>
<path opacity="0.1" d="M4.24757 36.0546L16.9757 28.7066C17.5872 28.3962 18.2632 28.2344 18.949 28.2344C19.6347 28.2344 20.3108 28.3962 20.9222 28.7066L22.5093 29.6323C23.0855 30.0066 23.565 30.5117 23.9089 31.1065C24.2527 31.7013 24.4511 32.369 24.4878 33.0551V47.7512C24.4482 48.4337 24.2485 49.0973 23.9048 49.6883C23.561 50.2792 23.083 50.781 22.5093 51.1528L9.81284 58.5167C9.20046 58.8272 8.52354 58.989 7.83695 58.989C7.15037 58.989 6.47345 58.8272 5.86107 58.5167L4.27402 57.5909C3.6994 57.2155 3.22131 56.71 2.87849 56.1153C2.53566 55.5207 2.33775 54.8536 2.30078 54.1682V39.4721C2.33478 38.7897 2.52868 38.1249 2.86684 37.5313C3.20501 36.9377 3.67797 36.4319 4.24757 36.0546Z" fill="black"/>
<path d="M24.5089 32.9655C24.5089 32.2302 24.1491 30.3998 22.2605 31.5583C20.372 32.7169 11.093 37.9595 9.81276 38.7212C8.9244 39.2086 8.22293 39.9771 7.81836 40.9061L8.82878 41.9218L24.5089 32.9655Z" fill="#FFC000"/>
<path opacity="0.2" d="M24.5089 32.9655C24.5089 32.2302 24.1491 30.3998 22.2605 31.5583C20.372 32.7169 11.093 37.9595 9.81276 38.7212C8.9244 39.2086 8.22293 39.9771 7.81836 40.9061L8.82878 41.9218L24.5089 32.9655Z" fill="black"/>
<path d="M9.81447 58.5169C8.7194 59.1465 7.83594 58.6386 7.83594 57.3796V42.6887C7.87184 42.0017 8.06982 41.333 8.4137 40.7372C8.75757 40.1414 9.23758 39.6354 9.81447 39.2607L22.5109 31.9126C23.606 31.2831 24.4894 31.7962 24.4894 33.0553V47.7514C24.4499 48.4339 24.2501 49.0975 23.9064 49.6885C23.5627 50.2795 23.0846 50.7812 22.5109 51.153" fill="#FFC000"/>
<path opacity="0.1" d="M9.81447 58.5169C8.7194 59.1465 7.83594 58.6386 7.83594 57.3796V42.6887C7.87184 42.0017 8.06982 41.333 8.4137 40.7372C8.75757 40.1414 9.23758 39.6354 9.81447 39.2607L22.5109 31.9126C23.606 31.2831 24.4894 31.7962 24.4894 33.0553V47.7514C24.4499 48.4339 24.2501 49.0975 23.9064 49.6885C23.5627 50.2795 23.0846 50.7812 22.5109 51.153" fill="black"/>
<path d="M2.27507 54.1679C2.31203 54.8533 2.50995 55.5203 2.85277 56.115C3.19559 56.7097 3.67369 57.2152 4.2483 57.5906L5.83536 58.5164C6.39212 58.797 7.00208 58.9562 7.62492 58.9835C8.24777 59.0109 8.86934 58.9058 9.44855 58.6751C8.51748 59.0296 7.8086 58.5058 7.8086 57.379V42.6882C7.83269 42.0001 8.03306 41.3298 8.39052 40.7414L2.83054 37.5303C2.4745 38.119 2.27592 38.7894 2.25391 39.4771L2.27507 54.1679Z" fill="#FFC000"/>
<path opacity="0.2" d="M2.27507 54.1679C2.31203 54.8533 2.50995 55.5203 2.85277 56.115C3.19559 56.7097 3.67369 57.2152 4.2483 57.5906L5.83536 58.5164C6.39212 58.797 7.00208 58.9562 7.62492 58.9835C8.24777 59.0109 8.86934 58.9058 9.44855 58.6751C8.51748 59.0296 7.8086 58.5058 7.8086 57.379V42.6882C7.83269 42.0001 8.03306 41.3298 8.39052 40.7414L2.83054 37.5303C2.4745 38.119 2.27592 38.7894 2.25391 39.4771L2.27507 54.1679Z" fill="black"/>
<path d="M16.5523 37.5468L18.2028 40.4564L21.906 38.9434C22.2551 38.8006 22.398 39.2132 22.144 39.647L19.4725 44.1966L20.102 48.0796C20.1602 48.4499 19.7952 48.963 19.4831 48.9577L16.1608 48.8572L12.8545 52.7719C12.5424 53.1423 12.1773 53.047 12.2355 52.6079L12.8756 47.979L10.2305 46.5137C9.97661 46.3761 10.1194 45.7995 10.4686 45.5403L14.1717 42.7894L15.8223 37.97C15.9439 37.5309 16.3936 37.2717 16.5523 37.5468Z" fill="#FAFAFA"/>
<path d="M195.497 104.68C189.149 107.7 178.886 107.7 172.548 104.68C166.211 101.659 166.2 96.7444 172.548 93.7449C178.896 90.7454 189.159 90.7242 195.497 93.7449C201.835 96.7656 201.813 101.659 195.497 104.68Z" fill="#E0E0E0"/>
<path d="M51.1816 139.748C51.2382 140.518 51.475 141.263 51.8729 141.924C52.2709 142.584 52.8188 143.142 53.4723 143.552L117.658 180.583C118.368 180.943 119.153 181.131 119.949 181.131C120.745 181.131 121.529 180.943 122.239 180.583L210.056 129.877C210.748 129.511 211.328 128.964 211.732 128.294C212.136 127.624 212.35 126.856 212.35 126.073C212.35 125.291 212.136 124.523 211.732 123.852C211.328 123.182 210.748 122.635 210.056 122.27L145.876 85.2383C145.166 84.8781 144.381 84.6904 143.585 84.6904C142.789 84.6904 142.004 84.8781 141.295 85.2383L53.4776 135.945C52.8231 136.354 52.2741 136.911 51.8753 137.572C51.4764 138.233 51.2388 138.979 51.1816 139.748Z" fill="#37474F"/>
<path d="M77.6651 121.979L53.4731 135.945C52.7809 136.31 52.2015 136.857 51.7974 137.527C51.3933 138.198 51.1797 138.966 51.1797 139.748C51.1797 140.531 51.3933 141.299 51.7974 141.969C52.2015 142.639 52.7809 143.187 53.4731 143.552L117.659 180.583C118.365 180.952 119.153 181.134 119.949 181.112V121.979H77.6651Z" fill="#263238"/>
<path d="M49.0345 136.024C48.3959 135.591 47.8684 135.014 47.4952 134.34C47.1219 133.665 46.9134 132.911 46.8867 132.141V55.5441C46.9289 54.749 47.1584 53.9752 47.5565 53.2857C47.9545 52.5962 48.5099 52.0105 49.1774 51.5764L136.994 0.896519C137.657 0.480735 138.421 0.253425 139.203 0.239012C139.986 0.224599 140.757 0.42363 141.435 0.814715C142.113 1.2058 142.671 1.77416 143.05 2.45873C143.429 3.14329 143.614 3.91819 143.586 4.70016V81.2702C143.543 82.0652 143.314 82.8389 142.916 83.5283C142.518 84.2177 141.962 84.8035 141.295 85.2379L53.4783 135.944C52.7962 136.306 52.0381 136.502 51.2659 136.516C50.4937 136.53 49.7292 136.361 49.0345 136.024Z" fill="#455A64"/>
<path d="M57.6308 59.0887L47.5794 53.2695C47.1688 53.9517 46.9394 54.7274 46.9129 55.5231V132.141C46.8852 132.922 47.0707 133.696 47.4495 134.38C47.8282 135.063 48.3859 135.631 49.0628 136.022C49.7397 136.413 50.5102 136.612 51.2917 136.599C52.0733 136.585 52.8363 136.359 53.4991 135.944L63.5134 130.162L57.6308 59.0887Z" fill="#263238"/>
<path d="M51.1816 58.0305V134.622C51.1816 136.082 52.2079 136.674 53.4723 135.944L141.289 85.2379C141.956 84.8035 142.512 84.2178 142.91 83.5283C143.308 82.8389 143.537 82.0652 143.58 81.2703V4.67905C143.58 3.21896 142.554 2.62646 141.289 3.3565L53.4723 54.0576C52.8053 54.4934 52.2504 55.0802 51.8524 55.7704C51.4545 56.4607 51.2247 57.2349 51.1816 58.0305Z" fill="#37474F"/>
<path d="M53.473 138.59L117.659 175.647C118.369 176.008 119.153 176.195 119.949 176.195C120.745 176.195 121.53 176.008 122.24 175.647L210.057 124.941C211.327 124.211 211.327 123.026 210.057 122.296L145.877 85.2383C145.167 84.8781 144.382 84.6904 143.586 84.6904C142.79 84.6904 142.005 84.8781 141.295 85.2383L53.4783 135.945C52.2086 136.675 52.2086 137.86 53.473 138.59Z" fill="#455A64"/>
<path d="M54.7055 58.3111L140.063 9.03311C140.819 8.59402 141.438 8.94846 141.438 9.82663V76.1285C141.411 76.6053 141.273 77.0692 141.034 77.4827C140.795 77.8962 140.462 78.2478 140.063 78.509L54.7055 127.787C53.9437 128.226 53.3301 127.872 53.3301 126.994V60.6758C53.3579 60.2015 53.4969 59.7403 53.7359 59.3295C53.9748 58.9187 54.307 58.5699 54.7055 58.3111Z" fill="#FAFAFA"/>
<path d="M60.9225 136.605L142.439 89.5226C142.794 89.3428 143.186 89.249 143.584 89.249C143.982 89.249 144.375 89.3428 144.729 89.5226L148.903 91.9297C149.042 91.9766 149.162 92.0655 149.247 92.1842C149.332 92.3028 149.377 92.445 149.377 92.5909C149.377 92.7369 149.332 92.8791 149.247 92.9977C149.162 93.1163 149.042 93.2053 148.903 93.2522L67.3712 140.33C67.0162 140.509 66.6238 140.603 66.2259 140.603C65.8279 140.603 65.4355 140.509 65.0806 140.33L60.9225 137.912C60.7897 137.862 60.6754 137.772 60.5946 137.656C60.5139 137.539 60.4707 137.4 60.4707 137.259C60.4707 137.117 60.5139 136.978 60.5946 136.861C60.6754 136.745 60.7897 136.655 60.9225 136.605Z" fill="#263238"/>
<path d="M71.6661 142.811L153.182 95.7287C153.537 95.5488 153.93 95.4551 154.328 95.4551C154.726 95.4551 155.118 95.5488 155.473 95.7287L181.12 110.541C181.258 110.588 181.378 110.677 181.463 110.796C181.548 110.914 181.594 111.057 181.594 111.202C181.594 111.348 181.548 111.491 181.463 111.609C181.378 111.728 181.258 111.817 181.12 111.864L99.6988 158.872C99.3428 159.052 98.9496 159.146 98.5508 159.146C98.152 159.146 97.7587 159.052 97.4028 158.872L71.6714 144.123C71.5343 144.077 71.415 143.989 71.3303 143.872C71.2456 143.755 71.1998 143.614 71.1992 143.469C71.1986 143.324 71.2433 143.183 71.3271 143.065C71.4108 142.947 71.5293 142.858 71.6661 142.811Z" fill="#263238"/>
<path d="M144.739 116.921L147.295 115.445C147.4 115.382 147.395 115.276 147.295 115.212L144.343 113.509C144.28 113.476 144.21 113.459 144.139 113.459C144.068 113.459 143.998 113.476 143.935 113.509L141.386 114.985C141.274 115.043 141.28 115.149 141.386 115.218L144.337 116.921C144.4 116.953 144.469 116.969 144.538 116.969C144.608 116.969 144.677 116.953 144.739 116.921ZM139.703 111.065L137.153 112.52C137.042 112.583 137.048 112.689 137.153 112.758L140.105 114.461C140.169 114.492 140.238 114.509 140.309 114.509C140.38 114.509 140.449 114.492 140.513 114.461L143.068 112.985C143.174 112.922 143.168 112.816 143.068 112.752L140.116 111.044C140.05 111.015 139.979 111.002 139.907 111.005C139.835 111.009 139.766 111.029 139.703 111.065ZM131.456 115.826L127.139 118.339C127.028 118.402 127.039 118.508 127.139 118.577L130.091 120.28C130.154 120.312 130.224 120.328 130.295 120.328C130.365 120.328 130.435 120.312 130.498 120.28L134.815 117.789C134.921 117.725 134.916 117.619 134.815 117.556L131.863 115.847C131.801 115.813 131.733 115.793 131.662 115.789C131.591 115.785 131.521 115.798 131.456 115.826ZM135.974 113.218L133.418 114.694C133.313 114.752 133.318 114.858 133.418 114.927L136.37 116.63C136.433 116.663 136.503 116.68 136.574 116.68C136.645 116.68 136.715 116.663 136.778 116.63L139.328 115.154C139.439 115.091 139.433 114.985 139.328 114.921L136.376 113.218C136.313 113.186 136.245 113.17 136.175 113.17C136.105 113.17 136.036 113.186 135.974 113.218ZM125.959 119L123.409 120.455C123.298 120.518 123.309 120.624 123.409 120.693L126.361 122.396C126.424 122.429 126.494 122.446 126.565 122.446C126.636 122.446 126.706 122.429 126.769 122.396L129.324 120.926C129.43 120.862 129.424 120.756 129.324 120.693L126.372 118.984C126.307 118.955 126.235 118.941 126.164 118.943C126.092 118.946 126.022 118.965 125.959 119ZM122.23 121.153L119.68 122.624C119.569 122.687 119.574 122.793 119.68 122.862L122.632 124.565C122.695 124.597 122.765 124.613 122.835 124.613C122.906 124.613 122.976 124.597 123.039 124.565L125.594 123.089C125.7 123.026 125.695 122.92 125.594 122.857L122.642 121.148C122.578 121.117 122.507 121.101 122.435 121.102C122.364 121.103 122.293 121.12 122.23 121.153ZM133.842 128.083L136.392 126.607C136.497 126.544 136.492 126.438 136.392 126.375L133.424 124.687C133.361 124.655 133.291 124.638 133.22 124.638C133.149 124.638 133.079 124.655 133.016 124.687L130.467 126.163C130.355 126.221 130.366 126.327 130.467 126.396L133.418 128.099C133.485 128.132 133.558 128.148 133.632 128.145C133.706 128.142 133.778 128.121 133.842 128.083ZM130.107 130.236L132.662 128.76C132.768 128.697 132.763 128.596 132.662 128.528L129.694 126.803C129.631 126.771 129.561 126.754 129.491 126.754C129.42 126.754 129.35 126.771 129.287 126.803L126.726 128.29C126.615 128.348 126.626 128.454 126.726 128.522L129.678 130.226C129.743 130.264 129.816 130.284 129.891 130.286C129.966 130.288 130.04 130.271 130.107 130.236ZM126.377 132.39L128.932 130.914C129.038 130.855 129.033 130.75 128.932 130.681L125.981 128.977C125.918 128.945 125.848 128.928 125.777 128.928C125.706 128.928 125.636 128.945 125.573 128.977L123.023 130.443C122.912 130.506 122.917 130.612 123.023 130.676L125.975 132.379C126.037 132.412 126.105 132.431 126.175 132.432C126.245 132.434 126.314 132.42 126.377 132.39ZM122.674 134.543L125.229 133.067C125.335 133.008 125.33 132.903 125.229 132.834L122.277 131.13C122.214 131.098 122.145 131.081 122.074 131.081C122.003 131.081 121.933 131.098 121.87 131.13L119.278 132.622C119.167 132.686 119.172 132.792 119.278 132.855L122.23 134.559C122.295 134.59 122.368 134.606 122.441 134.603C122.514 134.6 122.585 134.579 122.648 134.543H122.674ZM141.01 119.074L143.56 117.598C143.671 117.535 143.666 117.434 143.56 117.365L140.608 115.662C140.545 115.63 140.475 115.613 140.404 115.613C140.333 115.613 140.263 115.63 140.201 115.662L137.651 117.138C137.54 117.201 137.545 117.302 137.651 117.371L140.603 119.074C140.666 119.107 140.735 119.124 140.806 119.124C140.877 119.124 140.947 119.107 141.01 119.074ZM137.571 125.951L143.264 122.661C143.369 122.597 143.364 122.492 143.264 122.428L136.095 118.291C136.032 118.259 135.963 118.242 135.892 118.242C135.821 118.242 135.751 118.259 135.688 118.291L132.747 119.989C132.636 120.053 132.641 120.159 132.747 120.227L136.545 122.418C136.661 122.486 136.667 122.592 136.545 122.65L134.191 124.015C134.085 124.073 134.09 124.179 134.191 124.248L137.143 125.951C137.211 125.983 137.285 125.997 137.36 125.994C137.434 125.99 137.507 125.968 137.571 125.93V125.951ZM118.5 123.306L115.95 124.782C115.839 124.84 115.845 124.946 115.95 125.015L118.902 126.718C118.966 126.75 119.035 126.766 119.106 126.766C119.177 126.766 119.246 126.75 119.31 126.718L121.865 125.243C121.971 125.179 121.965 125.073 121.865 125.01L118.913 123.306C118.849 123.273 118.778 123.256 118.707 123.256C118.635 123.256 118.564 123.273 118.5 123.306ZM114.797 125.459L112.242 126.935C112.136 126.999 112.141 127.099 112.242 127.168L115.194 128.872C115.257 128.904 115.327 128.921 115.398 128.921C115.468 128.921 115.538 128.904 115.601 128.872L118.151 127.396C118.262 127.332 118.257 127.226 118.151 127.163L115.199 125.459C115.133 125.423 115.06 125.404 114.985 125.404C114.91 125.404 114.836 125.423 114.771 125.459H114.797ZM96.1545 149.609C96.2175 149.642 96.2873 149.659 96.3581 149.659C96.429 149.659 96.4988 149.642 96.5618 149.609L99.117 148.133C99.2228 148.07 99.2175 147.964 99.117 147.9L96.1651 146.197C96.1021 146.164 96.0322 146.147 95.9614 146.147C95.8905 146.147 95.8207 146.164 95.7577 146.197L93.2078 147.673C93.0968 147.736 93.102 147.837 93.2078 147.906L96.1545 149.609ZM84.934 142.674L82.3788 144.15C82.273 144.208 82.2783 144.314 82.3788 144.382L85.3308 146.086C85.3941 146.117 85.4638 146.133 85.5344 146.133C85.6051 146.133 85.6748 146.117 85.7381 146.086L88.288 144.61C88.3991 144.546 88.3938 144.441 88.288 144.377L85.3361 142.674C85.2738 142.642 85.2049 142.626 85.135 142.626C85.0652 142.626 84.9963 142.642 84.934 142.674ZM90.9384 147.726C91.0013 147.758 91.0712 147.775 91.142 147.775C91.2129 147.775 91.2827 147.758 91.3457 147.726L93.8956 146.25C94.0067 146.186 93.9961 146.086 93.8956 146.017L90.9489 144.314C90.886 144.281 90.8161 144.264 90.7453 144.264C90.6744 144.264 90.6046 144.281 90.5416 144.314L87.9864 145.79C87.8806 145.853 87.8859 145.954 87.9864 146.022L90.9384 147.726ZM102.72 150.9L105.275 149.424C105.381 149.36 105.375 149.255 105.275 149.191L102.323 147.482C102.259 147.451 102.19 147.435 102.119 147.435C102.049 147.435 101.979 147.451 101.915 147.482L99.3656 148.958C99.2545 149.017 99.2598 149.122 99.3656 149.191L102.318 150.895C102.377 150.93 102.444 150.95 102.513 150.955C102.582 150.959 102.651 150.948 102.714 150.921L102.72 150.9ZM98.5827 153.042C98.6456 153.075 98.7155 153.092 98.7863 153.092C98.8572 153.092 98.927 153.075 98.99 153.042L101.545 151.566C101.651 151.503 101.646 151.397 101.545 151.334L98.5933 149.63C98.5303 149.598 98.4604 149.581 98.3896 149.581C98.3187 149.581 98.2489 149.598 98.1859 149.63L95.6149 151.138C95.5038 151.196 95.5091 151.302 95.6149 151.371L98.5827 153.042ZM88.6371 140.558L86.082 142.028C85.9762 142.092 85.9815 142.198 86.082 142.266L89.0339 143.97C89.0972 144.001 89.1669 144.017 89.2376 144.017C89.3082 144.017 89.3779 144.001 89.4412 143.97L91.9911 142.494C92.1022 142.43 92.0969 142.325 91.9911 142.261L89.0656 140.558C88.9996 140.523 88.926 140.505 88.8514 140.505C88.7767 140.505 88.7032 140.523 88.6371 140.558ZM107.311 129.766L104.756 131.242C104.651 131.305 104.656 131.411 104.756 131.474L107.708 133.178C107.771 133.21 107.841 133.227 107.912 133.227C107.983 133.227 108.053 133.21 108.116 133.178L110.665 131.702C110.777 131.644 110.766 131.538 110.665 131.469L107.719 129.766C107.655 129.734 107.586 129.718 107.515 129.718C107.444 129.718 107.375 129.734 107.311 129.766ZM92.3879 138.383L89.838 139.854C89.7269 139.917 89.7322 140.023 89.838 140.092L92.7899 141.795C92.8533 141.827 92.923 141.843 92.9936 141.843C93.0642 141.843 93.1339 141.827 93.1973 141.795L95.7524 140.325C95.8582 140.261 95.8529 140.156 95.7524 140.087L92.8005 138.383C92.7365 138.351 92.6658 138.334 92.5942 138.334C92.5225 138.334 92.4519 138.351 92.3879 138.383ZM111.041 127.613L108.486 129.088C108.38 129.152 108.385 129.252 108.486 129.321L111.438 131.025C111.501 131.057 111.571 131.074 111.641 131.074C111.712 131.074 111.782 131.057 111.845 131.025L114.395 129.549C114.506 129.485 114.501 129.385 114.395 129.316L111.443 127.613C111.381 127.581 111.312 127.564 111.242 127.564C111.172 127.564 111.103 127.581 111.041 127.613ZM103.577 131.919L101.027 133.395C100.916 133.458 100.926 133.564 101.027 133.627L103.979 135.336C104.042 135.367 104.112 135.384 104.182 135.384C104.253 135.384 104.323 135.367 104.386 135.336L106.936 133.866C107.047 133.802 107.036 133.696 106.936 133.627L103.979 131.929C103.917 131.897 103.848 131.88 103.779 131.878C103.709 131.876 103.64 131.89 103.577 131.919ZM99.847 134.077L97.2971 135.548C97.1861 135.611 97.1966 135.717 97.2971 135.781L100.276 137.489C100.338 137.52 100.407 137.537 100.477 137.537C100.546 137.537 100.615 137.52 100.678 137.489L103.233 136.019C103.339 135.955 103.333 135.849 103.233 135.781L100.276 134.082C100.21 134.045 100.137 134.026 100.062 134.025C99.987 134.024 99.9131 134.042 99.847 134.077ZM96.1174 136.23L93.5676 137.701C93.4565 137.764 93.4671 137.87 93.5676 137.939L96.5195 139.642C96.5828 139.674 96.6525 139.69 96.7232 139.69C96.7938 139.69 96.8635 139.674 96.9268 139.642L99.482 138.172C99.5878 138.108 99.5825 138.002 99.482 137.934L96.5301 136.23C96.466 136.198 96.3954 136.181 96.3238 136.181C96.2521 136.181 96.1815 136.198 96.1174 136.23ZM115.189 138.849L117.733 137.383C117.844 137.32 117.839 137.214 117.733 137.145L114.781 135.442C114.718 135.409 114.648 135.393 114.578 135.393C114.507 135.393 114.437 135.409 114.374 135.442L111.819 136.913C111.713 136.976 111.718 137.082 111.819 137.151L114.771 138.854C114.836 138.886 114.908 138.903 114.98 138.902C115.053 138.901 115.124 138.883 115.189 138.849ZM147.951 106.304L145.395 107.758C145.29 107.817 145.295 107.922 145.395 107.991L148.347 109.695C148.411 109.726 148.48 109.742 148.551 109.742C148.622 109.742 148.691 109.726 148.755 109.695L151.305 108.219C151.416 108.155 151.41 108.049 151.305 107.986L148.353 106.282C148.289 106.254 148.219 106.241 148.149 106.245C148.079 106.249 148.011 106.269 147.951 106.304ZM143.433 108.912L140.883 110.404C140.772 110.467 140.777 110.573 140.883 110.642L143.83 112.345C143.893 112.378 143.962 112.394 144.033 112.394C144.104 112.394 144.174 112.378 144.237 112.345L146.792 110.874C146.898 110.811 146.893 110.705 146.792 110.642L143.84 108.933C143.778 108.898 143.71 108.878 143.639 108.875C143.568 108.871 143.498 108.884 143.433 108.912ZM151.68 104.151L149.125 105.642C149.019 105.706 149.025 105.812 149.125 105.88L152.077 107.584C152.14 107.615 152.21 107.631 152.281 107.631C152.351 107.631 152.421 107.615 152.484 107.584L155.034 106.108C155.145 106.044 155.14 105.939 155.034 105.875L152.082 104.166C152.021 104.134 151.953 104.115 151.883 104.112C151.813 104.109 151.744 104.123 151.68 104.151ZM132.371 124.063L134.926 122.571C135.032 122.507 135.027 122.402 134.926 122.338L131.974 120.635C131.911 120.602 131.841 120.585 131.771 120.585C131.7 120.585 131.63 120.602 131.567 120.635L129.012 122.105C128.906 122.169 128.911 122.275 129.012 122.343L131.964 124.047C132.026 124.081 132.095 124.1 132.166 124.102C132.236 124.105 132.306 124.092 132.371 124.063ZM155.822 102.003C155.759 101.971 155.689 101.955 155.619 101.955C155.548 101.955 155.478 101.971 155.415 102.003L152.865 103.473C152.754 103.537 152.759 103.643 152.865 103.711L155.817 105.415C155.88 105.447 155.95 105.464 156.021 105.464C156.092 105.464 156.161 105.447 156.224 105.415L158.78 103.944C158.885 103.881 158.88 103.775 158.78 103.706L155.822 102.003ZM118.918 136.696L121.468 135.225C121.579 135.162 121.574 135.056 121.468 134.987L118.516 133.284C118.453 133.252 118.383 133.236 118.312 133.236C118.242 133.236 118.172 133.252 118.109 133.284L115.543 134.738C115.437 134.802 115.442 134.908 115.543 134.971L118.495 136.68C118.559 136.716 118.631 136.737 118.705 136.739C118.778 136.742 118.851 136.727 118.918 136.696ZM164.662 110.287L167.217 108.811C167.323 108.748 167.318 108.642 167.217 108.578L164.266 106.875C164.203 106.843 164.133 106.826 164.062 106.826C163.991 106.826 163.921 106.843 163.858 106.875L161.303 108.351C161.197 108.409 161.203 108.515 161.303 108.584L164.255 110.287C164.318 110.32 164.388 110.337 164.459 110.337C164.53 110.337 164.599 110.32 164.662 110.287ZM156.727 110.007L159.277 108.531C159.388 108.467 159.383 108.362 159.277 108.298L156.325 106.595C156.262 106.562 156.192 106.545 156.121 106.545C156.05 106.545 155.981 106.562 155.918 106.595L153.362 108.071C153.257 108.129 153.262 108.235 153.362 108.303L156.314 110.007C156.377 110.038 156.446 110.055 156.515 110.055C156.585 110.055 156.654 110.038 156.716 110.007H156.727ZM160.055 104.436C159.991 104.405 159.922 104.389 159.851 104.389C159.78 104.389 159.711 104.405 159.647 104.436L157.097 105.912C156.986 105.97 156.992 106.076 157.097 106.145L160.049 107.848C160.113 107.88 160.182 107.896 160.253 107.896C160.324 107.896 160.393 107.88 160.457 107.848L163.012 106.372C163.118 106.309 163.112 106.203 163.012 106.14L160.055 104.436ZM160.838 103.987L167.99 108.123C168.053 108.155 168.123 108.171 168.194 108.171C168.264 108.171 168.334 108.155 168.397 108.123L170.952 106.648C171.058 106.584 171.053 106.478 170.952 106.415L163.758 102.283C163.694 102.252 163.625 102.236 163.554 102.236C163.483 102.236 163.414 102.252 163.35 102.283L160.8 103.754C160.695 103.812 160.7 103.918 160.816 103.987H160.838ZM152.188 108.748L149.633 110.224C149.527 110.282 149.532 110.388 149.633 110.456L152.585 112.16C152.648 112.192 152.718 112.209 152.789 112.209C152.859 112.209 152.929 112.192 152.992 112.16L155.542 110.684C155.653 110.62 155.648 110.515 155.542 110.451L152.59 108.748C152.526 108.711 152.454 108.691 152.38 108.689C152.306 108.687 152.233 108.704 152.167 108.737L152.188 108.748ZM124.081 124.946L121.526 126.422C121.42 126.486 121.426 126.586 121.526 126.655L124.478 128.358C124.541 128.391 124.611 128.408 124.682 128.408C124.753 128.408 124.822 128.391 124.885 128.358L127.435 126.882C127.546 126.819 127.541 126.718 127.435 126.65L124.483 124.946C124.421 124.915 124.352 124.898 124.282 124.898C124.213 124.898 124.144 124.915 124.081 124.946ZM160.515 112.43C160.578 112.462 160.648 112.479 160.718 112.479C160.789 112.479 160.859 112.462 160.922 112.43L163.472 110.954C163.583 110.89 163.578 110.79 163.472 110.721L160.52 109.018C160.457 108.985 160.387 108.968 160.316 108.968C160.246 108.968 160.176 108.985 160.113 109.018L157.558 110.493C157.452 110.557 157.457 110.657 157.558 110.726L160.515 112.43ZM127.811 122.793L125.256 124.269C125.15 124.327 125.155 124.433 125.256 124.502L128.208 126.205C128.271 126.238 128.34 126.255 128.411 126.255C128.482 126.255 128.552 126.238 128.615 126.205L131.165 124.729C131.276 124.666 131.271 124.56 131.165 124.497L128.213 122.793C128.152 122.763 128.085 122.748 128.017 122.748C127.949 122.748 127.882 122.763 127.821 122.793H127.811ZM99.8576 147.435C99.9209 147.466 99.9906 147.482 100.061 147.482C100.132 147.482 100.202 147.466 100.265 147.435L102.82 145.959C102.926 145.895 102.921 145.79 102.82 145.726L99.8682 144.023C99.8052 143.99 99.7354 143.973 99.6645 143.973C99.5936 143.973 99.5238 143.99 99.4608 144.023L96.911 145.499C96.7999 145.557 96.8052 145.663 96.911 145.731L99.8576 147.435ZM94.25 142.145L91.6949 143.621C91.589 143.679 91.5943 143.785 91.6949 143.853L94.6468 145.557C94.7101 145.588 94.7798 145.604 94.8504 145.604C94.9211 145.604 94.9908 145.588 95.0541 145.557L97.604 144.081C97.7151 144.017 97.7098 143.912 97.604 143.848L94.6521 142.145C94.5873 142.118 94.5171 142.107 94.4472 142.112C94.3774 142.118 94.3098 142.14 94.25 142.176V142.145ZM103.979 145.319L106.534 143.843C106.64 143.779 106.634 143.673 106.534 143.61L103.582 141.907C103.519 141.874 103.449 141.857 103.378 141.857C103.307 141.857 103.238 141.874 103.175 141.907L100.625 143.377C100.514 143.441 100.524 143.547 100.625 143.615L103.577 145.319C103.639 145.35 103.708 145.366 103.778 145.366C103.847 145.366 103.916 145.35 103.979 145.319ZM107.714 143.166L110.263 141.69C110.374 141.626 110.364 141.52 110.263 141.452L107.311 139.748C107.248 139.717 107.178 139.701 107.108 139.701C107.037 139.701 106.967 139.717 106.904 139.748L104.354 141.219C104.248 141.282 104.254 141.388 104.354 141.457L107.306 143.16C107.372 143.194 107.444 143.212 107.518 143.212C107.591 143.212 107.664 143.194 107.729 143.16L107.714 143.166ZM111.417 141.007L113.967 139.537C114.078 139.473 114.067 139.367 113.967 139.299L111.02 137.595C110.957 137.564 110.887 137.548 110.816 137.548C110.746 137.548 110.676 137.564 110.613 137.595L108.057 139.066C107.952 139.129 107.957 139.235 108.057 139.304L111.009 141.007C111.078 141.045 111.156 141.064 111.235 141.063C111.314 141.062 111.391 141.041 111.459 141.002L111.417 141.007ZM97.9796 140.029L95.4244 141.499C95.3186 141.563 95.3239 141.669 95.4244 141.737L98.3764 143.441C98.4397 143.472 98.5094 143.488 98.58 143.488C98.6507 143.488 98.7203 143.472 98.7837 143.441L101.334 141.965C101.445 141.901 101.439 141.795 101.334 141.732L98.3869 140.029C98.3236 139.997 98.2539 139.981 98.1833 139.981C98.1126 139.981 98.0429 139.997 97.9796 140.029ZM101.709 137.875L99.154 139.346C99.0482 139.41 99.0535 139.515 99.154 139.584L102.106 141.288C102.169 141.32 102.239 141.337 102.31 141.337C102.38 141.337 102.45 141.32 102.513 141.288L105.068 139.817C105.174 139.753 105.169 139.648 105.068 139.579L102.117 137.875C102.054 137.843 101.984 137.826 101.913 137.825C101.843 137.824 101.773 137.84 101.709 137.87V137.875ZM116.633 129.258L114.078 130.734C113.967 130.797 113.977 130.903 114.078 130.966L117.03 132.67C117.093 132.702 117.162 132.719 117.233 132.719C117.304 132.719 117.374 132.702 117.437 132.67L119.987 131.194C120.098 131.136 120.087 131.03 119.987 130.961L117.035 129.258C116.973 129.226 116.904 129.209 116.834 129.208C116.765 129.207 116.696 129.222 116.633 129.252V129.258ZM112.898 131.416L110.327 132.882C110.216 132.945 110.226 133.051 110.327 133.114L113.273 134.823C113.337 134.854 113.407 134.871 113.477 134.871C113.548 134.871 113.617 134.854 113.681 134.823L116.236 133.352C116.342 133.289 116.337 133.183 116.236 133.114L113.284 131.411C113.224 131.382 113.158 131.367 113.091 131.367C113.024 131.367 112.958 131.382 112.898 131.411V131.416ZM120.378 127.099L117.823 128.575C117.717 128.639 117.723 128.745 117.823 128.808L120.775 130.512C120.838 130.544 120.908 130.561 120.979 130.561C121.05 130.561 121.119 130.544 121.182 130.512L123.732 129.036C123.843 128.977 123.833 128.872 123.732 128.803L120.786 127.099C120.723 127.067 120.653 127.05 120.582 127.05C120.511 127.05 120.441 127.067 120.378 127.099ZM105.455 135.717L102.905 137.188C102.794 137.251 102.799 137.357 102.905 137.426L105.857 139.129C105.92 139.16 105.99 139.177 106.06 139.177C106.131 139.177 106.201 139.16 106.264 139.129L108.819 137.659C108.925 137.595 108.92 137.489 108.819 137.421L105.867 135.717C105.801 135.682 105.728 135.664 105.653 135.664C105.578 135.664 105.505 135.682 105.439 135.717H105.455ZM109.184 133.564L106.624 135.035C106.513 135.098 106.518 135.204 106.624 135.273L109.576 136.976C109.639 137.007 109.709 137.024 109.779 137.024C109.85 137.024 109.92 137.007 109.983 136.976L112.538 135.505C112.644 135.442 112.639 135.336 112.538 135.267L109.586 133.564C109.522 133.53 109.45 133.512 109.377 133.512C109.304 133.512 109.233 133.53 109.168 133.564H109.184ZM106.46 148.768L109.015 147.292C109.121 147.229 109.115 147.123 109.015 147.059L106.063 145.35C106 145.319 105.93 145.303 105.859 145.303C105.789 145.303 105.719 145.319 105.656 145.35L103.106 146.821C102.995 146.885 103.005 146.99 103.106 147.059L106.052 148.763C106.113 148.792 106.18 148.808 106.248 148.809C106.315 148.81 106.382 148.796 106.444 148.768H106.46ZM84.5743 146.557L81.6224 144.853C81.5594 144.821 81.4895 144.804 81.4187 144.804C81.3478 144.804 81.278 144.821 81.215 144.853L78.6598 146.329C78.554 146.387 78.5593 146.493 78.6598 146.562L81.6118 148.265C81.6747 148.298 81.7446 148.315 81.8154 148.315C81.8863 148.315 81.9561 148.298 82.0191 148.265L84.569 146.789C84.6801 146.726 84.6695 146.62 84.5584 146.557H84.5743ZM90.1607 148.197L87.2088 146.493C87.1458 146.461 87.076 146.444 87.0051 146.444C86.9342 146.444 86.8644 146.461 86.8014 146.493L82.8761 148.763C82.7703 148.826 82.7756 148.927 82.8761 148.995L85.828 150.699C85.891 150.731 85.9609 150.748 86.0317 150.748C86.1026 150.748 86.1724 150.731 86.2354 150.699L90.1607 148.429C90.2718 148.366 90.2612 148.265 90.1448 148.197H90.1607ZM80.0459 143.261L77.094 141.557C77.031 141.525 76.9611 141.508 76.8903 141.508C76.8194 141.508 76.7496 141.525 76.6866 141.557L73.5442 143.372C73.4332 143.435 73.4437 143.541 73.5442 143.61L76.4962 145.313C76.5595 145.345 76.6292 145.361 76.6998 145.361C76.7705 145.361 76.8402 145.345 76.9035 145.313L80.0406 143.499C80.1728 143.435 80.1728 143.33 80.03 143.261H80.0459ZM82.4529 141.87C82.5159 141.902 82.5857 141.919 82.6566 141.919C82.7274 141.919 82.7973 141.902 82.8603 141.87L85.4101 140.394C85.5212 140.33 85.5159 140.23 85.4101 140.161L82.4582 138.457C82.3952 138.425 82.3254 138.408 82.2545 138.408C82.1837 138.408 82.1138 138.425 82.0509 138.457L79.4957 139.933C79.3899 139.997 79.3952 140.097 79.4957 140.166L82.4529 141.87ZM95.3451 150.08L92.3932 148.376C92.3302 148.344 92.2603 148.327 92.1895 148.327C92.1186 148.327 92.0488 148.344 91.9858 148.376L87.0765 151.212C86.9707 151.275 86.976 151.381 87.0765 151.445L90.0284 153.148C90.0914 153.181 90.1613 153.198 90.2321 153.198C90.303 153.198 90.3728 153.181 90.4358 153.148L95.3451 150.313C95.4667 150.233 95.4615 150.133 95.3451 150.08ZM97.7944 153.534L94.8425 151.831C94.7795 151.798 94.7097 151.782 94.6388 151.782C94.568 151.782 94.4981 151.798 94.4352 151.831L91.2822 153.619C91.1764 153.683 91.1817 153.788 91.2822 153.852L94.2341 155.561C94.2975 155.592 94.3672 155.608 94.4378 155.608C94.5084 155.608 94.5781 155.592 94.6415 155.561L97.7838 153.746C97.9161 153.688 97.9108 153.587 97.7944 153.519V153.534ZM110.173 125.872C110.235 125.904 110.304 125.921 110.374 125.921C110.444 125.921 110.513 125.904 110.576 125.872L113.131 124.396C113.236 124.338 113.231 124.232 113.131 124.163L110.179 122.46C110.116 122.427 110.046 122.41 109.975 122.41C109.904 122.41 109.834 122.427 109.771 122.46L107.222 123.936C107.11 123.999 107.121 124.105 107.222 124.169L110.173 125.872ZM102.709 130.184C102.772 130.215 102.842 130.231 102.913 130.231C102.983 130.231 103.053 130.215 103.116 130.184L105.672 128.708C105.777 128.649 105.772 128.544 105.672 128.475L102.72 126.771C102.656 126.74 102.587 126.724 102.516 126.724C102.445 126.724 102.376 126.74 102.312 126.771L99.7465 128.226C99.6354 128.29 99.6407 128.395 99.7465 128.459L102.709 130.184ZM86.1666 139.732C86.23 139.764 86.2996 139.78 86.3703 139.78C86.4409 139.78 86.5106 139.764 86.574 139.732L89.1238 138.256C89.2349 138.193 89.2296 138.087 89.1238 138.024L86.1613 136.325C86.0983 136.293 86.0285 136.276 85.9577 136.276C85.8868 136.276 85.817 136.293 85.754 136.325L83.1988 137.801C83.093 137.86 83.0983 137.965 83.1988 138.034L86.1666 139.732ZM106.439 128.025C106.502 128.058 106.571 128.075 106.642 128.075C106.713 128.075 106.783 128.058 106.846 128.025L109.401 126.549C109.507 126.491 109.502 126.385 109.401 126.316L106.449 124.613C106.386 124.58 106.316 124.564 106.245 124.564C106.175 124.564 106.105 124.58 106.042 124.613L103.492 126.089C103.381 126.152 103.391 126.258 103.492 126.322L106.439 128.025ZM98.9794 132.337C99.0428 132.368 99.1125 132.384 99.1831 132.384C99.2537 132.384 99.3234 132.368 99.3868 132.337L101.942 130.866C102.048 130.802 102.042 130.697 101.942 130.628L98.9741 128.919C98.9112 128.887 98.8413 128.87 98.7705 128.87C98.6996 128.87 98.6298 128.887 98.5668 128.919L96.0434 130.379C95.9323 130.443 95.9376 130.549 96.0434 130.617L98.9794 132.337ZM99.8417 153.783C99.7787 153.751 99.7089 153.734 99.6381 153.734C99.5672 153.734 99.4974 153.751 99.4344 153.783L95.5144 156.053C95.4086 156.116 95.4138 156.222 95.5144 156.291L98.4769 158.015C98.5402 158.046 98.6099 158.063 98.6805 158.063C98.7512 158.063 98.8209 158.046 98.8842 158.015L102.81 155.751C102.915 155.687 102.91 155.582 102.81 155.513L99.8417 153.783ZM93.6258 135.4C93.6887 135.432 93.7586 135.449 93.8294 135.449C93.9003 135.449 93.9701 135.432 94.0331 135.4L96.5724 133.945C96.6782 133.881 96.6729 133.776 96.5724 133.707L93.6205 132.003C93.5571 131.972 93.4874 131.956 93.4168 131.956C93.3462 131.956 93.2765 131.972 93.2131 132.003L90.6633 133.474C90.5522 133.538 90.5575 133.643 90.6633 133.712L93.6258 135.4ZM89.8962 137.553C89.9595 137.584 90.0292 137.6 90.0999 137.6C90.1705 137.6 90.2402 137.584 90.3035 137.553L92.8587 136.077C92.9645 136.013 92.9592 135.908 92.8587 135.844L89.9068 134.141C89.8438 134.108 89.774 134.091 89.7031 134.091C89.6322 134.091 89.5624 134.108 89.4994 134.141L86.9443 135.611C86.8385 135.675 86.8438 135.781 86.9443 135.849L89.8962 137.553ZM168.953 113.895C168.889 113.864 168.82 113.848 168.749 113.848C168.678 113.848 168.609 113.864 168.545 113.895L162.261 117.524C162.155 117.588 162.16 117.693 162.261 117.757L165.212 119.466C165.276 119.497 165.346 119.513 165.416 119.513C165.487 119.513 165.556 119.497 165.62 119.466L171.899 115.837C172.01 115.778 172.005 115.673 171.899 115.604L168.953 113.895ZM160.705 118.656C160.642 118.624 160.572 118.607 160.502 118.607C160.431 118.607 160.361 118.624 160.298 118.656L157.748 120.132C157.637 120.196 157.642 120.301 157.748 120.365L160.7 122.068C160.763 122.101 160.833 122.118 160.904 122.118C160.975 122.118 161.044 122.101 161.107 122.068L163.662 120.592C163.768 120.534 163.763 120.428 163.662 120.36L160.705 118.656ZM110.179 146.61L112.729 145.139C112.834 145.075 112.829 144.97 112.729 144.901L109.761 143.203C109.697 143.171 109.628 143.155 109.557 143.155C109.487 143.155 109.417 143.171 109.353 143.203L106.804 144.673C106.693 144.737 106.703 144.843 106.804 144.911L109.756 146.615C109.821 146.649 109.894 146.667 109.968 146.666C110.042 146.665 110.114 146.646 110.179 146.61ZM153.246 122.962C153.183 122.93 153.113 122.913 153.042 122.913C152.972 122.913 152.902 122.93 152.839 122.962L150.284 124.433C150.178 124.497 150.183 124.602 150.284 124.671L153.236 126.375C153.299 126.406 153.369 126.422 153.439 126.422C153.51 126.422 153.58 126.406 153.643 126.375L156.193 124.904C156.304 124.84 156.299 124.735 156.193 124.666L153.246 122.962ZM172.682 111.742C172.619 111.709 172.549 111.693 172.479 111.693C172.408 111.693 172.338 111.709 172.275 111.742L169.72 113.218C169.614 113.281 169.619 113.387 169.72 113.451L172.672 115.154C172.735 115.187 172.804 115.204 172.875 115.204C172.946 115.204 173.016 115.187 173.079 115.154L175.629 113.678C175.74 113.62 175.735 113.514 175.629 113.445L172.682 111.742ZM179.364 111.292L172.222 107.155C172.159 107.123 172.089 107.106 172.018 107.106C171.947 107.106 171.878 107.123 171.815 107.155L169.265 108.631C169.154 108.69 169.159 108.795 169.265 108.864L176.433 113.001C176.496 113.034 176.566 113.05 176.637 113.05C176.707 113.05 176.777 113.034 176.84 113.001L179.395 111.525C179.485 111.462 179.48 111.361 179.364 111.292ZM139.306 131.035C139.243 131.004 139.173 130.988 139.103 130.988C139.032 130.988 138.962 131.004 138.899 131.035L135.757 132.85C135.651 132.908 135.656 133.014 135.757 133.083L138.709 134.786C138.772 134.818 138.841 134.835 138.912 134.835C138.983 134.835 139.053 134.818 139.116 134.786L142.253 132.971C142.364 132.908 142.359 132.802 142.253 132.733L139.306 131.035ZM148.728 125.597C148.665 125.566 148.595 125.549 148.525 125.549C148.454 125.549 148.384 125.566 148.321 125.597L144.396 127.866C144.29 127.93 144.295 128.036 144.396 128.099L147.358 129.766C147.421 129.798 147.491 129.815 147.562 129.815C147.633 129.815 147.702 129.798 147.765 129.766L151.691 127.496C151.797 127.438 151.791 127.332 151.691 127.263L148.728 125.597ZM130.668 136.024C130.605 135.991 130.535 135.974 130.464 135.974C130.393 135.974 130.323 135.991 130.26 136.024L109.269 148.117C109.158 148.181 109.168 148.287 109.269 148.355L112.221 150.059C112.284 150.09 112.354 150.106 112.424 150.106C112.495 150.106 112.565 150.09 112.628 150.059L133.63 137.934C133.741 137.87 133.736 137.764 133.63 137.696L130.668 136.024ZM108.481 148.831C108.417 148.8 108.348 148.784 108.277 148.784C108.206 148.784 108.137 148.8 108.073 148.831L104.931 150.609C104.825 150.672 104.83 150.773 104.931 150.842L107.883 152.545C107.946 152.578 108.016 152.595 108.086 152.595C108.157 152.595 108.227 152.578 108.29 152.545L111.433 150.731C111.538 150.667 111.533 150.561 111.433 150.498L108.481 148.831ZM134.984 133.532C134.921 133.5 134.852 133.483 134.781 133.483C134.71 133.483 134.64 133.5 134.577 133.532L131.44 135.347C131.329 135.41 131.334 135.516 131.44 135.585L134.392 137.288C134.455 137.32 134.525 137.336 134.596 137.336C134.666 137.336 134.736 137.32 134.799 137.288L137.942 135.474C138.047 135.41 138.042 135.31 137.942 135.241L134.984 133.532ZM104.164 151.328C104.101 151.296 104.031 151.279 103.96 151.279C103.889 151.279 103.819 151.296 103.756 151.328L100.614 153.143C100.503 153.206 100.514 153.312 100.614 153.381L103.566 155.084C103.629 155.116 103.699 155.132 103.77 155.132C103.84 155.132 103.91 155.116 103.973 155.084L107.153 153.254C107.264 153.191 107.259 153.09 107.153 153.021L104.164 151.328ZM143.623 128.544C143.56 128.512 143.49 128.496 143.42 128.496C143.349 128.496 143.279 128.512 143.216 128.544L140.074 130.358C139.968 130.422 139.973 130.527 140.074 130.596L143.025 132.3C143.088 132.332 143.158 132.349 143.229 132.349C143.3 132.349 143.37 132.332 143.433 132.3L146.575 130.49C146.681 130.427 146.676 130.321 146.575 130.252L143.623 128.544ZM156.976 120.836C156.912 120.805 156.843 120.788 156.772 120.788C156.701 120.788 156.632 120.805 156.568 120.836L154.013 122.312C153.907 122.375 153.913 122.481 154.013 122.545L156.965 124.253C157.028 124.285 157.098 124.301 157.169 124.301C157.239 124.301 157.309 124.285 157.372 124.253L159.928 122.783C160.033 122.719 160.028 122.613 159.928 122.545L156.976 120.836ZM165.149 114.9L167.699 113.424C167.81 113.361 167.805 113.26 167.699 113.191L164.736 111.462C164.673 111.429 164.604 111.412 164.533 111.412C164.462 111.412 164.392 111.429 164.329 111.462L161.774 112.938C161.668 113.001 161.673 113.107 161.774 113.17L164.726 114.874C164.791 114.909 164.864 114.927 164.937 114.927C165.011 114.927 165.084 114.909 165.149 114.874V114.9ZM148.469 114.794L151.024 113.318C151.13 113.255 151.125 113.149 151.024 113.086L148.072 111.382C148.009 111.35 147.939 111.333 147.869 111.333C147.798 111.333 147.728 111.35 147.665 111.382L145.115 112.858C145.004 112.916 145.009 113.022 145.115 113.091L148.067 114.794C148.132 114.821 148.201 114.832 148.271 114.828C148.341 114.823 148.408 114.803 148.469 114.768V114.794ZM140.005 129.411L147.464 125.1C147.57 125.041 147.564 124.936 147.464 124.867L144.512 123.163C144.449 123.131 144.379 123.114 144.308 123.114C144.237 123.114 144.168 123.131 144.105 123.163L136.646 127.47C136.534 127.533 136.545 127.639 136.646 127.708L139.597 129.411C139.665 129.441 139.739 129.454 139.812 129.45C139.886 129.445 139.957 129.423 140.021 129.385L140.005 129.411ZM160.996 117.043C161.059 117.075 161.129 117.092 161.2 117.092C161.271 117.092 161.341 117.075 161.404 117.043L163.953 115.572C164.065 115.509 164.054 115.403 163.953 115.334L161.002 113.631C160.938 113.599 160.868 113.583 160.798 113.583C160.727 113.583 160.657 113.599 160.594 113.631L158.039 115.107C157.933 115.17 157.938 115.276 158.039 115.339L160.996 117.043ZM157.187 114.62L159.737 113.144C159.848 113.086 159.843 112.98 159.737 112.911L156.785 111.208C156.722 111.175 156.652 111.158 156.582 111.158C156.511 111.158 156.441 111.175 156.378 111.208L153.823 112.684C153.717 112.747 153.722 112.853 153.823 112.916L156.775 114.62C156.842 114.652 156.917 114.666 156.992 114.662C157.067 114.657 157.14 114.634 157.203 114.593L157.187 114.62ZM136.27 131.548L138.825 130.072C138.931 130.009 138.926 129.903 138.825 129.84L135.873 128.136C135.81 128.104 135.74 128.087 135.669 128.087C135.599 128.087 135.529 128.104 135.466 128.136L132.916 129.612C132.805 129.67 132.815 129.776 132.916 129.845L135.863 131.548C135.927 131.585 135.999 131.605 136.072 131.608C136.146 131.611 136.219 131.596 136.286 131.564L136.27 131.548ZM152.749 121.788C152.812 121.82 152.882 121.837 152.952 121.837C153.023 121.837 153.093 121.82 153.156 121.788L155.711 120.312C155.817 120.254 155.812 120.148 155.711 120.079L152.759 118.376C152.696 118.343 152.627 118.326 152.556 118.326C152.485 118.326 152.415 118.343 152.352 118.376L149.802 119.852C149.691 119.915 149.696 120.021 149.802 120.085L152.749 121.788ZM117.622 142.314L120.172 140.843C120.283 140.78 120.272 140.674 120.172 140.605L117.204 138.891C117.141 138.86 117.071 138.844 117 138.844C116.93 138.844 116.86 138.86 116.797 138.891L114.242 140.367C114.136 140.431 114.141 140.536 114.242 140.605L117.194 142.309C117.262 142.345 117.339 142.364 117.416 142.363C117.494 142.362 117.57 142.342 117.638 142.303L117.622 142.314ZM121.352 140.161L123.901 138.69C124.013 138.627 124.007 138.521 123.901 138.452L120.95 136.749C120.886 136.717 120.817 136.701 120.746 136.701C120.675 136.701 120.606 136.717 120.542 136.749L117.987 138.225C117.881 138.288 117.887 138.394 117.987 138.457L120.939 140.161C121.005 140.195 121.08 140.212 121.155 140.211C121.229 140.209 121.303 140.188 121.367 140.15L121.352 140.161ZM113.892 144.467L116.442 142.996C116.553 142.933 116.543 142.827 116.442 142.758L113.501 141.044C113.438 141.012 113.368 140.995 113.297 140.995C113.226 140.995 113.157 141.012 113.094 141.044L110.538 142.515C110.433 142.578 110.438 142.684 110.538 142.753L113.49 144.456C113.555 144.489 113.627 144.507 113.699 144.507C113.772 144.507 113.844 144.489 113.908 144.456L113.892 144.467ZM128.842 135.844L131.398 134.368C131.503 134.305 131.498 134.204 131.398 134.135L128.446 132.432C128.383 132.399 128.313 132.382 128.242 132.382C128.171 132.382 128.101 132.399 128.038 132.432L125.489 133.908C125.377 133.971 125.383 134.072 125.489 134.141L128.44 135.844C128.503 135.876 128.572 135.892 128.641 135.892C128.711 135.892 128.78 135.876 128.842 135.844ZM125.113 137.997L127.668 136.521C127.774 136.463 127.769 136.357 127.668 136.288L124.716 134.585C124.653 134.552 124.583 134.536 124.512 134.536C124.442 134.536 124.372 134.552 124.309 134.585L121.754 136.061C121.648 136.124 121.653 136.23 121.754 136.294L124.706 137.997C124.766 138.027 124.833 138.043 124.901 138.043C124.969 138.043 125.036 138.027 125.097 137.997H125.113ZM132.546 133.68L135.101 132.204C135.207 132.141 135.201 132.04 135.101 131.972L132.149 130.268C132.086 130.236 132.016 130.219 131.945 130.219C131.874 130.219 131.804 130.236 131.742 130.268L129.192 131.744C129.081 131.808 129.091 131.908 129.192 131.977L132.144 133.68C132.206 133.712 132.275 133.728 132.345 133.728C132.414 133.728 132.483 133.712 132.546 133.68ZM149.612 101.818C149.675 101.85 149.745 101.867 149.815 101.867C149.886 101.867 149.956 101.85 150.019 101.818L152.574 100.342C152.68 100.278 152.675 100.178 152.574 100.109L151.786 99.6539C151.723 99.6214 151.653 99.6045 151.582 99.6045C151.511 99.6045 151.442 99.6214 151.379 99.6539L148.829 101.125C148.723 101.188 148.728 101.294 148.829 101.363L149.612 101.818ZM131.26 113.668C131.323 113.699 131.393 113.715 131.464 113.715C131.534 113.715 131.604 113.699 131.667 113.668L134.217 112.197C134.328 112.133 134.323 112.028 134.217 111.959L131.265 110.255C131.202 110.223 131.133 110.206 131.062 110.206C130.991 110.206 130.921 110.223 130.858 110.255L128.313 111.737C128.208 111.8 128.213 111.906 128.313 111.975L131.26 113.668ZM138.719 109.356C138.782 109.389 138.852 109.406 138.923 109.406C138.994 109.406 139.064 109.389 139.127 109.356L141.682 107.885C141.788 107.822 141.782 107.716 141.682 107.647L138.73 105.944C138.666 105.913 138.597 105.896 138.526 105.896C138.456 105.896 138.386 105.913 138.323 105.944L135.767 107.42C135.662 107.483 135.667 107.589 135.767 107.653L138.719 109.356ZM126.726 116.307C126.789 116.34 126.859 116.357 126.93 116.357C127.001 116.357 127.071 116.34 127.134 116.307L129.684 114.837C129.795 114.773 129.789 114.667 129.684 114.599L126.726 112.901C126.663 112.869 126.593 112.853 126.523 112.853C126.452 112.853 126.382 112.869 126.319 112.901L123.764 114.371C123.658 114.435 123.663 114.54 123.764 114.609L126.726 116.307ZM135.011 111.546C135.074 111.577 135.144 111.594 135.215 111.594C135.285 111.594 135.355 111.577 135.418 111.546L137.968 110.076C138.079 110.012 138.074 109.906 137.968 109.838L135.016 108.134C134.953 108.102 134.883 108.085 134.812 108.085C134.742 108.085 134.672 108.102 134.609 108.134L132.017 109.584C131.911 109.647 131.916 109.753 132.017 109.816L135.011 111.546ZM119.257 120.614C119.32 120.645 119.39 120.661 119.46 120.661C119.531 120.661 119.601 120.645 119.664 120.614L122.214 119.138C122.32 119.074 122.314 118.968 122.214 118.905L119.262 117.201C119.199 117.169 119.129 117.152 119.058 117.152C118.987 117.152 118.918 117.169 118.855 117.201L116.305 118.672C116.194 118.736 116.204 118.841 116.305 118.91L119.257 120.614ZM122.986 118.461C123.049 118.493 123.119 118.51 123.19 118.51C123.261 118.51 123.331 118.493 123.394 118.461L125.943 116.99C126.055 116.926 126.044 116.821 125.943 116.752L122.997 115.048C122.934 115.017 122.864 115.001 122.793 115.001C122.723 115.001 122.653 115.017 122.59 115.048L120.034 116.519C119.929 116.582 119.934 116.688 120.034 116.757L122.986 118.461ZM142.163 106.134C142.226 106.167 142.296 106.184 142.367 106.184C142.438 106.184 142.508 106.167 142.571 106.134L145.12 104.664C145.231 104.6 145.226 104.494 145.12 104.426L144.332 103.971C144.269 103.939 144.199 103.923 144.128 103.923C144.058 103.923 143.988 103.939 143.925 103.971L141.375 105.441C141.264 105.505 141.269 105.611 141.375 105.679L142.163 106.134ZM153.352 99.6751C153.415 99.7075 153.485 99.7245 153.556 99.7245C153.626 99.7245 153.696 99.7075 153.759 99.6751L156.314 98.1991C156.42 98.1356 156.415 98.0298 156.314 97.9663L155.531 97.5114C155.468 97.4801 155.398 97.4639 155.328 97.4639C155.257 97.4639 155.187 97.4801 155.124 97.5114L152.569 98.9874C152.463 99.0508 152.468 99.1566 152.569 99.2201L153.352 99.6751ZM159.552 103.257C159.615 103.288 159.685 103.304 159.756 103.304C159.826 103.304 159.896 103.288 159.959 103.257L162.514 101.786C162.62 101.722 162.615 101.617 162.514 101.548L159.526 99.8496C159.462 99.8184 159.393 99.8021 159.322 99.8021C159.251 99.8021 159.182 99.8184 159.118 99.8496L156.568 101.32C156.457 101.384 156.463 101.49 156.568 101.558L159.552 103.257ZM168.879 112.721L171.428 111.245C171.54 111.181 171.534 111.081 171.428 111.012L168.477 109.308C168.414 109.276 168.344 109.259 168.273 109.259C168.202 109.259 168.132 109.276 168.069 109.308L165.514 110.784C165.408 110.848 165.414 110.948 165.514 111.017L168.466 112.721C168.53 112.754 168.6 112.771 168.672 112.771C168.744 112.771 168.815 112.754 168.879 112.721ZM145.893 103.981C145.956 104.014 146.026 104.031 146.096 104.031C146.167 104.031 146.237 104.014 146.3 103.981L148.855 102.505C148.961 102.447 148.956 102.341 148.855 102.273L148.067 101.818C148.004 101.786 147.934 101.77 147.863 101.77C147.793 101.77 147.723 101.786 147.66 101.818L145.11 103.288C144.999 103.352 145.009 103.458 145.11 103.526L145.893 103.981ZM115.522 122.767C115.585 122.798 115.655 122.814 115.725 122.814C115.796 122.814 115.866 122.798 115.929 122.767L118.484 121.291C118.59 121.227 118.585 121.121 118.484 121.058L115.532 119.355C115.469 119.322 115.4 119.305 115.329 119.305C115.258 119.305 115.188 119.322 115.125 119.355L112.575 120.83C112.464 120.889 112.475 120.994 112.575 121.063L115.522 122.767Z" fill="#E0E0E0"/>
<path d="M130.688 145.953L158.625 129.823L175.818 139.748L147.881 155.877L130.688 145.953Z" fill="#263238"/>
<path d="M74.5744 50.3018L157.815 2.2405C159.445 1.29884 160.778 2.07121 160.778 3.94922V68.4259C160.75 68.9025 160.611 69.3659 160.372 69.7792C160.133 70.1925 159.801 70.5443 159.402 70.8065L74.0454 120.085C73.2889 120.518 72.6699 120.164 72.6699 119.291V53.5976C72.7079 52.9376 72.9 52.2958 73.2307 51.7235C73.5614 51.1511 74.0216 50.6642 74.5744 50.3018Z" fill="#F5F5F5"/>
<path d="M160.778 5.49359V3.94886C160.778 2.07084 159.445 1.30377 157.815 2.24013L74.5744 50.3014C74.0216 50.6639 73.5614 51.1508 73.2307 51.7231C72.9 52.2954 72.7079 52.9373 72.6699 53.5972V56.364L160.778 5.49359Z" fill="#263238"/>
<path d="M148.363 9.01152C148.069 9.20762 147.826 9.46943 147.651 9.77616C147.477 10.0829 147.376 10.4261 147.357 10.7784C147.357 11.4291 147.818 11.6936 148.378 11.3657C148.676 11.174 148.924 10.9143 149.101 10.608C149.279 10.3017 149.381 9.95758 149.399 9.60403C149.384 8.95333 148.944 8.68882 148.363 9.01152Z" fill="#E0E0E0"/>
<path d="M152.41 6.67854C152.112 6.87133 151.864 7.13201 151.687 7.43916C151.509 7.74632 151.407 8.09119 151.389 8.44546C151.389 9.09615 151.844 9.35537 152.41 9.03267C152.709 8.83685 152.958 8.57261 153.136 8.26173C153.313 7.95084 153.414 7.60221 153.431 7.24459C153.431 6.61506 152.97 6.35055 152.41 6.67854Z" fill="#E0E0E0"/>
<path d="M156.457 4.34063C156.159 4.53405 155.912 4.79488 155.735 5.1019C155.557 5.40892 155.455 5.75347 155.436 6.10754C155.436 6.75824 155.891 7.02275 156.457 6.69475C156.753 6.50189 156.999 6.24179 157.176 5.93566C157.352 5.62952 157.454 5.28601 157.472 4.93312C157.472 4.28243 157.017 4.01793 156.457 4.34063Z" fill="#E0E0E0"/>
<path d="M72.6699 56.3645V68.77L160.773 17.9049V5.49414L72.6699 56.3645Z" fill="#FFC000"/>
<path opacity="0.1" d="M72.6699 56.3645V68.77L160.773 17.9049V5.49414L72.6699 56.3645Z" fill="black"/>
<path d="M78.4427 62.3051C78.1464 62.3972 77.8318 62.4135 77.5275 62.3527V56.2743C77.5251 56.1588 77.5505 56.0445 77.6016 55.941C77.6646 55.8413 77.752 55.7594 77.8555 55.7029L78.3104 55.4437C78.4268 55.3749 78.5115 55.3538 78.5644 55.3855C78.6173 55.4173 78.6437 55.4966 78.6437 55.6289V57.6286C78.8125 57.3666 79.0153 57.1283 79.2468 56.9197C79.4926 56.6967 79.7623 56.5015 80.0509 56.3378C80.7175 55.9516 81.2306 55.8616 81.5957 56.0785C81.9607 56.2954 82.1247 56.7874 82.1247 57.5492C82.1336 58.4041 81.9145 59.2459 81.4898 59.988C81.0375 60.7527 80.3892 61.3828 79.6118 61.8131C79.2467 62.0303 78.8533 62.1959 78.4427 62.3051ZM80.654 59.824C80.9029 59.3329 81.0247 58.7872 81.0084 58.2369C81.0084 57.7079 80.9132 57.3905 80.7281 57.2582C80.5429 57.126 80.2308 57.1789 79.7917 57.4328C79.4785 57.617 79.2065 57.8637 78.9929 58.1576C78.7733 58.4311 78.6505 58.7697 78.6437 59.1204V61.2047C78.7835 61.2198 78.9249 61.2017 79.0564 61.1518C79.24 61.0919 79.4172 61.014 79.5854 60.9191C80.0383 60.6629 80.409 60.2831 80.654 59.824Z" fill="#FAFAFA"/>
<path d="M83.0816 59.57C83.0287 59.5329 83.0022 59.4589 83.0022 59.3319V53.1106C82.9989 52.9945 83.0263 52.8796 83.0816 52.7774C83.1417 52.6754 83.2298 52.5927 83.3355 52.5393L83.8063 52.2695C83.9227 52.2007 84.0074 52.1849 84.0603 52.2113C84.1132 52.2378 84.1396 52.3224 84.1396 52.4547V58.6759C84.1447 58.7882 84.1191 58.8998 84.0655 58.9986C84.0036 59.1024 83.9138 59.1867 83.8063 59.242L83.3355 59.5118C83.2138 59.5805 83.1292 59.6176 83.0816 59.57Z" fill="#FAFAFA"/>
<path d="M85.636 57.6342C85.2181 57.4067 85.0117 56.8936 85.0117 56.0842C85.0095 55.2833 85.2253 54.4969 85.636 53.8094C86.0679 53.0861 86.6828 52.4894 87.4188 52.0795C88.1858 51.6351 88.7836 51.5505 89.2016 51.7515C89.6195 51.9525 89.8311 52.4921 89.8311 53.3015C89.8342 54.1032 89.6164 54.8903 89.2016 55.5763C88.77 56.3012 88.1551 56.8997 87.4188 57.3115C86.6464 57.7559 86.0539 57.8617 85.636 57.6342ZM88.3763 55.37C88.6022 54.9322 88.715 54.4448 88.7043 53.9522C88.7043 53.4232 88.5932 53.0793 88.3763 52.9259C88.1594 52.7725 87.8473 52.8201 87.4188 53.0635C87.0154 53.2903 86.6837 53.6257 86.4612 54.0316C86.2324 54.4647 86.1177 54.949 86.128 55.4388C86.128 55.9748 86.2391 56.3275 86.4612 56.4968C86.6834 56.6555 86.9903 56.6132 87.4188 56.3751C87.8254 56.143 88.1575 55.7999 88.3763 55.3859V55.37Z" fill="#FAFAFA"/>
<path d="M91.9645 56.1637C91.728 56.2601 91.4738 56.3052 91.2186 56.296C91.1233 56.296 91.1022 56.2272 91.1498 56.1108L91.4037 55.4602C91.4237 55.397 91.4602 55.3404 91.5095 55.2962C91.539 55.2883 91.57 55.2883 91.5994 55.2962C92.0534 55.2615 92.4907 55.1103 92.8691 54.8571C93.2279 54.6616 93.5289 54.3752 93.742 54.0265C93.9417 53.6341 94.0365 53.1967 94.0171 52.7569C93.8606 53.047 93.6648 53.314 93.4351 53.5504C93.1964 53.7908 92.9259 53.9972 92.631 54.1641C91.9698 54.545 91.4513 54.6349 91.081 54.4339C90.7107 54.2328 90.5255 53.7461 90.5255 52.9896C90.5186 52.1548 90.7479 51.3351 91.1868 50.6249C91.6638 49.8739 92.3224 49.2553 93.1019 48.8263C93.455 48.6165 93.8362 48.4579 94.234 48.3554C94.5256 48.2688 94.8329 48.2489 95.1333 48.2973V51.8152C95.1416 52.5981 94.9601 53.3714 94.6043 54.0688C94.2291 54.7676 93.6594 55.3427 92.9643 55.7247C92.6444 55.8999 92.3099 56.0468 91.9645 56.1637ZM93.7049 52.249C93.9068 51.9486 94.0154 51.5952 94.0171 51.2333V49.4082C93.8695 49.4203 93.7248 49.4561 93.5886 49.514C93.4053 49.5855 93.2284 49.6723 93.0595 49.7732C92.6168 50.0083 92.2499 50.3643 92.0017 50.7998C91.7535 51.2353 91.6342 51.7324 91.6576 52.2331C91.6576 52.7622 91.7581 53.0584 91.9645 53.1907C92.1708 53.3229 92.4935 53.2594 92.9061 53.0214C93.2301 52.8312 93.5039 52.5664 93.7049 52.249Z" fill="#FAFAFA"/>
<path d="M87.711 65.5743V109.181C87.711 109.472 87.8645 109.62 88.0496 109.509C88.1569 109.419 88.2429 109.307 88.3014 109.18C88.36 109.052 88.3896 108.914 88.3882 108.774V65.167C88.3882 64.876 88.2348 64.7332 88.0496 64.8443C87.9419 64.9326 87.8555 65.0442 87.7969 65.1706C87.7382 65.297 87.7089 65.435 87.711 65.5743Z" fill="#FFC000"/>
<path d="M61.9259 82.4922L81.1239 71.3828C81.7588 71.0178 82.2719 71.3141 82.2719 72.0441V85.5499C82.2503 85.9477 82.1351 86.3346 81.9356 86.6794C81.7361 87.0241 81.458 87.3169 81.1239 87.5338L61.9259 98.6167C61.2963 98.9817 60.7832 98.6855 60.7832 97.9554V84.4813C60.8042 84.0834 60.9186 83.6959 61.1171 83.3504C61.3156 83.0048 61.5927 82.7108 61.9259 82.4922Z" fill="#E0E0E0"/>
<path d="M82.2875 72.0656C82.2875 71.3356 81.7585 71.0393 81.1396 71.4043L61.9415 82.5137C61.609 82.7318 61.3324 83.025 61.1339 83.3695C60.9354 83.7141 60.8207 84.1005 60.7988 84.4975V85.6455L82.2875 73.2189V72.0656Z" fill="#FFC000"/>
<path d="M62.9258 86.8675L71.5223 81.9053V90.5917L62.9258 95.5539V86.8675Z" fill="#FAFAFA"/>
<path d="M62.9316 94.2898L66.1534 88.5659C66.1787 88.5081 66.2188 88.458 66.2697 88.4207C66.3205 88.3833 66.3803 88.3599 66.443 88.353C66.5057 88.346 66.5691 88.3557 66.6269 88.381C66.6847 88.4062 66.7349 88.4463 66.7723 88.4971L67.8991 89.735L69.8406 85.2542C69.957 84.9844 70.1845 84.958 70.3696 85.2013L71.5441 86.8677V90.5708L62.9475 95.533L62.9316 94.2898Z" fill="#FFC000"/>
<path d="M73.6758 81.4133C73.6758 81.8259 73.9826 81.9846 74.3635 81.7625L79.4315 78.837C79.6279 78.7127 79.7924 78.5441 79.9118 78.3448C80.0313 78.1454 80.1023 77.9208 80.1192 77.689C80.1192 77.2764 79.8124 77.1177 79.4368 77.3399L74.3529 80.2495C74.1555 80.3755 73.9911 80.5469 73.8733 80.7493C73.7556 80.9518 73.6878 81.1794 73.6758 81.4133Z" fill="#FAFAFA"/>
<path d="M73.6758 85.0106C73.6758 85.4232 73.9826 85.5819 74.3635 85.365L79.4315 82.4343C79.6285 82.3106 79.7934 82.1422 79.9129 81.9427C80.0324 81.7432 80.1031 81.5183 80.1192 81.2863C80.1192 80.8737 79.8124 80.7202 79.4368 80.9371L74.3529 83.8362C74.155 83.9642 73.9904 84.1375 73.8727 84.3417C73.7549 84.5459 73.6875 84.7752 73.6758 85.0106Z" fill="#FAFAFA"/>
<path d="M73.6758 88.5553C73.6758 88.9732 73.9826 89.1266 74.3635 88.9097L79.4315 85.979C79.6284 85.8565 79.7933 85.6891 79.9129 85.4904C80.0324 85.2918 80.1032 85.0676 80.1192 84.8363C80.1192 84.4237 79.8124 84.265 79.4368 84.4819L74.3529 87.4126C74.158 87.5363 73.9951 87.7043 73.8774 87.9028C73.7598 88.1014 73.6907 88.325 73.6758 88.5553Z" fill="#FAFAFA"/>
<path d="M61.9259 103.399L81.1239 92.3164C81.7588 91.9514 82.2719 92.2477 82.2719 92.9777V106.484C82.2503 106.881 82.1351 107.268 81.9356 107.613C81.7361 107.958 81.458 108.25 81.1239 108.467L61.9259 119.577C61.2963 119.942 60.7832 119.646 60.7832 118.915V105.383C60.805 104.986 60.9198 104.6 61.1183 104.255C61.3168 103.911 61.5934 103.617 61.9259 103.399Z" fill="#E0E0E0"/>
<path d="M82.2875 92.9777C82.2875 92.2477 81.7585 91.9514 81.1396 92.3164L61.9415 103.399C61.609 103.617 61.3324 103.911 61.1339 104.255C60.9354 104.6 60.8207 104.986 60.7988 105.383V106.536L82.2875 94.1257V92.9777Z" fill="#FFC000"/>
<path d="M62.9258 107.775L71.5223 102.812V111.499L62.9258 116.461V107.775Z" fill="#FAFAFA"/>
<path d="M62.9316 115.202L66.1534 109.478C66.1787 109.42 66.2188 109.37 66.2697 109.333C66.3205 109.296 66.3803 109.272 66.443 109.265C66.5057 109.258 66.5691 109.268 66.6269 109.293C66.6847 109.319 66.7349 109.359 66.7723 109.409L67.8991 110.642L69.8406 106.161C69.957 105.891 70.1845 105.87 70.3696 106.108L71.5441 107.775V111.478L62.9475 116.44L62.9316 115.202Z" fill="#FFC000"/>
<path d="M73.6758 102.32C73.6758 102.733 73.9826 102.891 74.3635 102.674L79.4315 99.7437C79.6284 99.6212 79.7933 99.4538 79.9129 99.2551C80.0324 99.0565 80.1032 98.8323 80.1192 98.601C80.1192 98.1831 79.8124 98.0297 79.4368 98.2466L74.3529 101.177C74.158 101.301 73.9951 101.469 73.8774 101.668C73.7598 101.866 73.6907 102.09 73.6758 102.32Z" fill="#FAFAFA"/>
<path d="M73.6758 105.891C73.6758 106.309 73.9826 106.463 74.3635 106.246L79.4315 103.315C79.6284 103.192 79.7933 103.025 79.9129 102.826C80.0324 102.628 80.1032 102.404 80.1192 102.172C80.1192 101.76 79.8124 101.601 79.4368 101.818L74.3529 104.749C74.158 104.872 73.9951 105.04 73.8774 105.239C73.7598 105.437 73.6907 105.661 73.6758 105.891Z" fill="#FAFAFA"/>
<path d="M73.6758 109.467C73.6758 109.88 73.9826 110.038 74.3635 109.816L79.4315 106.891C79.6279 106.766 79.7924 106.598 79.9118 106.398C80.0313 106.199 80.1023 105.975 80.1192 105.743C80.1192 105.33 79.8124 105.171 79.4368 105.394L74.3529 108.319C74.1585 108.444 73.996 108.614 73.8785 108.813C73.7609 109.012 73.6915 109.236 73.6758 109.467Z" fill="#FAFAFA"/>
<path d="M95.3062 82.995L154.329 48.9209C154.958 48.5559 155.471 48.8522 155.471 49.5822V66.7912C155.45 67.1882 155.335 67.5746 155.136 67.9191C154.938 68.2637 154.661 68.5569 154.329 68.775L95.3062 102.849C94.6713 103.214 94.1582 102.918 94.1582 102.188V84.9788C94.1798 84.5811 94.295 84.1941 94.4945 83.8493C94.694 83.5046 94.9721 83.2119 95.3062 82.995Z" fill="#E0E0E0"/>
<path d="M155.471 49.5666C155.471 48.8365 154.942 48.5403 154.329 48.9053L95.3062 82.9952C94.9721 83.2121 94.694 83.5049 94.4945 83.8496C94.295 84.1943 94.1798 84.5813 94.1582 84.979V86.127L155.471 50.7304V49.5666Z" fill="#FFC000"/>
<path d="M108.738 79.4191L96.8136 86.2963C96.548 86.4713 96.327 86.7059 96.1681 86.9815C96.0092 87.257 95.9168 87.5659 95.8984 87.8834V99.6699C95.8984 100.252 96.3111 100.49 96.8136 100.199L108.738 93.3217C109.004 93.147 109.225 92.9125 109.384 92.6369C109.543 92.3613 109.635 92.0523 109.653 91.7346V79.9481C109.632 79.3662 109.219 79.1281 108.738 79.4191Z" fill="#FAFAFA"/>
<path d="M100.085 89.7718L95.8789 98.7651V99.6962C95.8789 100.278 96.2915 100.516 96.7941 100.225L108.718 93.348C108.984 93.1733 109.205 92.9387 109.364 92.6631C109.523 92.3875 109.615 92.0785 109.633 91.7609V87.6557L107.38 83.4236C107.105 82.8946 106.697 82.921 106.47 83.4606L102.92 91.7927L101.196 89.6448C101.138 89.5393 101.051 89.4533 100.944 89.3979C100.837 89.3425 100.717 89.3202 100.597 89.3338C100.478 89.3474 100.365 89.3964 100.274 89.4745C100.183 89.5525 100.117 89.656 100.085 89.7718Z" fill="#FFC000"/>
<path d="M97.2596 89.6656C97.8588 89.2749 98.3574 88.7484 98.715 88.1289C99.0725 87.5094 99.279 86.8143 99.3175 86.1C99.3325 85.7226 99.2228 85.3508 99.0054 85.042L96.7941 86.3169C96.5285 86.4919 96.3074 86.7265 96.1485 87.0021C95.9896 87.2776 95.8973 87.5864 95.8789 87.904V89.8666C96.1082 89.9473 96.3535 89.9711 96.594 89.9361C96.8345 89.9011 97.0629 89.8083 97.2596 89.6656Z" fill="#FFC000"/>
<path d="M115.019 76.8267L151.87 55.5549C152.399 55.2586 152.785 55.4596 152.785 55.9992C152.761 56.3038 152.666 56.5984 152.507 56.8594C152.348 57.1203 152.13 57.3403 151.87 57.5016L115.019 78.7787C114.49 79.0697 114.104 78.8687 114.104 78.3291C114.128 78.0245 114.223 77.7299 114.382 77.4689C114.541 77.208 114.759 76.988 115.019 76.8267Z" fill="#FAFAFA"/>
<path d="M115.019 81.7886L151.87 60.5168C152.399 60.2205 152.785 60.4216 152.785 60.9611C152.761 61.2657 152.666 61.5603 152.507 61.8213C152.348 62.0822 152.13 62.3022 151.87 62.4636L115.019 83.7407C114.49 84.0316 114.104 83.8306 114.104 83.291C114.128 82.9865 114.224 82.6921 114.383 82.4312C114.542 82.1703 114.76 81.9502 115.019 81.7886Z" fill="#FAFAFA"/>
<path d="M115.019 86.7515L151.87 65.4797C152.399 65.1834 152.785 65.3844 152.785 65.924C152.761 66.2292 152.665 66.5244 152.506 66.7862C152.347 67.0479 152.129 67.269 151.87 67.4317L115.019 88.7141C114.49 89.0051 114.104 88.8041 114.104 88.2645C114.127 87.9582 114.222 87.6616 114.381 87.3987C114.54 87.1359 114.758 86.9142 115.019 86.7515Z" fill="#FAFAFA"/>
<path d="M175.312 28.57L169.905 28.406C169.54 28.0992 163.859 21.6875 163.859 21.6875C163.859 21.6875 161.817 24.9092 161.779 25.1155C161.742 25.3219 167.35 31.3156 167.906 31.9187C168.061 32.1213 168.262 32.2854 168.491 32.3982C168.72 32.5111 168.972 32.5696 169.228 32.5694C170.693 32.654 176.179 33.0402 176.179 33.0402L175.312 28.57Z" fill="#F28F8F"/>
<path d="M182.997 34.7853L174.66 34.1663L175.306 28.5693L183.913 28.7598L182.997 34.7853Z" fill="#FFC000"/>
<path opacity="0.2" d="M182.997 34.7853L174.66 34.1663L175.306 28.5693L183.913 28.7598L182.997 34.7853Z" fill="black"/>
<path d="M106.052 53.1952L165.075 19.1211C165.704 18.7561 166.217 19.0524 166.217 19.7824V36.9966C166.195 37.3936 166.08 37.7798 165.882 38.1243C165.683 38.4688 165.407 38.762 165.075 38.9805L106.052 73.0545C105.417 73.4195 104.904 73.1233 104.904 72.3932V55.179C104.926 54.7813 105.041 54.3943 105.241 54.0495C105.44 53.7048 105.718 53.4121 106.052 53.1952Z" fill="#E0E0E0"/>
<path d="M166.217 19.7824C166.217 19.0524 165.688 18.7561 165.075 19.1211L106.052 53.1952C105.718 53.4121 105.44 53.7048 105.241 54.0495C105.041 54.3943 104.926 54.7813 104.904 55.179V56.327L166.217 20.9304V19.7824Z" fill="#FFC000"/>
<path d="M119.462 49.6242L107.538 56.5014C107.272 56.6754 107.05 56.9098 106.891 57.1856C106.732 57.4613 106.64 57.7706 106.623 58.0884V69.8697C106.623 70.4516 107.036 70.6896 107.538 70.3987L119.462 63.5215C119.729 63.3474 119.951 63.113 120.11 62.8373C120.269 62.5615 120.36 62.2522 120.378 61.9344V50.1532C120.378 49.566 119.965 49.3332 119.462 49.6242Z" fill="#FAFAFA"/>
<path d="M110.855 59.9771L106.623 68.9439V69.875C106.623 70.4569 107.036 70.695 107.538 70.404L119.462 63.5268C119.729 63.3527 119.951 63.1183 120.11 62.8426C120.269 62.5669 120.36 62.2576 120.378 61.9397V57.8716L118.124 53.6394C117.849 53.1104 117.441 53.1422 117.214 53.6765L113.664 62.0244L111.94 59.8713C111.88 59.7752 111.794 59.6978 111.692 59.6478C111.591 59.5978 111.477 59.5771 111.365 59.5881C111.252 59.5991 111.145 59.6413 111.055 59.7101C110.965 59.7788 110.895 59.8712 110.855 59.9771Z" fill="#FFC000"/>
<path d="M108.004 59.8721C108.603 59.4799 109.101 58.9524 109.459 58.3321C109.816 57.7118 110.023 57.0161 110.062 56.3012C110.076 55.9239 109.966 55.5523 109.75 55.2432L107.538 56.5234C107.272 56.6974 107.05 56.9318 106.891 57.2076C106.732 57.4833 106.64 57.7926 106.623 58.1104V60.0678C106.852 60.1492 107.097 60.1739 107.337 60.1398C107.578 60.1058 107.807 60.0139 108.004 59.8721Z" fill="#FFC000"/>
<path d="M125.763 47.027L162.614 25.7605C163.143 25.4696 163.529 25.6653 163.529 26.2049C163.505 26.5102 163.41 26.8055 163.251 27.0673C163.092 27.3291 162.874 27.5501 162.614 27.7126L125.763 48.9844C125.26 49.2754 124.848 49.0796 124.848 48.54C124.872 48.2339 124.967 47.9377 125.126 47.675C125.285 47.4123 125.503 47.1904 125.763 47.027Z" fill="#FAFAFA"/>
<path d="M125.763 51.9893L162.614 30.7175C163.143 30.4265 163.529 30.6275 163.529 31.1618C163.505 31.4671 163.41 31.7625 163.251 32.0243C163.092 32.2861 162.874 32.5071 162.614 32.6695L125.763 53.9414C125.26 54.2376 124.848 54.0366 124.848 53.497C124.872 53.1918 124.968 52.8966 125.127 52.6349C125.286 52.3731 125.504 52.1521 125.763 51.9893Z" fill="#FAFAFA"/>
<path d="M125.763 56.9727L162.614 35.7009C163.143 35.4099 163.529 35.6109 163.529 36.1452C163.505 36.4505 163.41 36.7459 163.251 37.0077C163.092 37.2695 162.874 37.4905 162.614 37.6529L125.763 58.9248C125.26 59.221 124.848 59.02 124.848 58.4804C124.872 58.1752 124.968 57.88 125.127 57.6183C125.286 57.3565 125.504 57.1355 125.763 56.9727Z" fill="#FAFAFA"/>
<path d="M193.643 93.9619H190.521V98.5115H193.643V93.9619Z" fill="#FFA8A7"/>
<path d="M182.664 88.3204L179.545 88.4277L179.701 92.9746L182.821 92.8673L182.664 88.3204Z" fill="#FFA8A7"/>
<path d="M193.441 49.5664C193.441 52.5501 193.827 71.8434 193.827 71.8434C193.901 72.7004 194.705 74.2821 194.531 77.5832C194.298 82.0587 193.907 94.5118 193.907 94.5118C193.907 94.5118 192.446 95.9666 190.378 94.5118C190.378 94.5118 187.548 77.6096 186.987 73.1765C186.5 69.3041 185.67 58.7819 185.67 58.7819L182.802 71.1398C182.802 71.1398 183.332 74.0494 183.427 76.1072C183.522 78.1651 182.898 90.0257 182.898 90.0257C182.393 90.3431 181.813 90.5224 181.217 90.5456C180.621 90.5688 180.03 90.4351 179.501 90.1579C179.501 90.1579 176.983 72.8432 176.639 70.9599C176.296 69.0766 178.835 49.5664 178.835 49.5664H193.441Z" fill="#455A64"/>
<path d="M188.742 28.8977H188.785C190.121 29.2396 191.305 30.0182 192.149 31.1099C192.992 32.2016 193.447 33.5437 193.44 34.9232V49.5664C191.25 51.947 183.616 53.058 178.834 49.5664V34.3307C178.834 31.8972 180.183 28.9718 183.918 28.7549L188.742 28.8977Z" fill="#FFC000"/>
<path d="M189.791 16.4448C190.043 16.4154 190.299 16.444 190.538 16.5284C190.777 16.6127 190.994 16.7506 191.172 16.9315C191.765 17.5345 191.638 18.6561 191.172 21.2271L189.342 21.4387L189.791 16.4448Z" fill="#263238"/>
<path d="M179.137 15.7088C178.742 15.7104 178.351 15.6312 177.989 15.476C177.428 15.1533 177.285 15.7882 177.592 16.3436C177.794 16.7405 178.095 17.0787 178.466 17.326C178.836 17.5733 179.264 17.7214 179.708 17.7561C179.708 17.6768 180.237 16.3278 180.237 16.3278L179.137 15.7088Z" fill="#263238"/>
<path d="M188.934 21.4384C189.209 21.6024 189.595 21.0787 189.929 20.7295C190.061 20.5795 190.229 20.4655 190.417 20.3982C190.605 20.3309 190.807 20.3125 191.005 20.3447C191.202 20.377 191.388 20.4588 191.545 20.5826C191.702 20.7063 191.825 20.8679 191.902 21.0522C192.457 22.2213 191.198 23.7767 190.458 24.2898C190.25 24.4698 189.991 24.5796 189.717 24.6033C189.444 24.6271 189.17 24.5636 188.934 24.4221L188.744 28.8976C188.416 29.6154 187.916 30.2407 187.287 30.7172C186.658 31.1937 185.921 31.5064 185.141 31.6273C182.496 31.987 183.057 29.818 183.919 28.7547V27.1306C183.262 27.2703 182.587 27.3043 181.919 27.2311C181.576 27.1412 180.761 26.1731 180.232 25.0463C179.639 23.8031 178.645 21.5971 179.528 17.8675C180.475 13.8629 184.776 13.7412 187.342 15.3547C189.908 16.9682 188.934 21.4384 188.934 21.4384Z" fill="#FFA8A7"/>
<path d="M188.934 21.8987C189.072 21.8987 189.59 21.0364 189.929 20.7296C190.399 20.3064 189.791 16.4445 189.791 16.4445C189.791 16.4445 190.267 14.9845 189.341 14.0111C188.416 13.0377 186.622 13.207 185.31 13.1593C183.7 13.1691 182.105 12.8486 180.623 12.2177C178.766 11.4083 178.623 11.3131 178.396 12.1331C178.168 12.953 178.073 14.8205 179.189 16.0795L180.11 16.4181C180.11 16.4181 180.613 16.8625 182.348 17.0741C183.95 17.195 185.56 17.1631 187.156 16.9789C187.659 16.9101 187.77 17.4021 188.04 18.7352C188.278 19.9043 188.479 21.8881 188.934 21.8987Z" fill="#263238"/>
<path d="M189.791 16.767L191.431 15.8888C191.378 15.778 191.304 15.679 191.212 15.5978C191.121 15.5165 191.014 15.4548 190.897 15.4162C190.781 15.3776 190.658 15.363 190.536 15.3733C190.414 15.3836 190.295 15.4186 190.187 15.4762C189.968 15.5992 189.805 15.8019 189.731 16.0422C189.657 16.2825 189.678 16.542 189.791 16.767Z" fill="#263238"/>
<path d="M183.924 27.1309C185.045 26.9168 186.145 26.6017 187.209 26.1892C187.707 25.9255 188.115 25.5206 188.383 25.0254C188.255 25.5221 188.029 25.9881 187.717 26.3955C187.093 27.1891 183.924 27.7763 183.924 27.7763V27.1309Z" fill="#F28F8F"/>
<path d="M184.507 20.8298C184.514 20.9254 184.549 21.0169 184.607 21.0929C184.666 21.1688 184.745 21.2261 184.836 21.2575C184.926 21.289 185.024 21.2933 185.117 21.2699C185.21 21.2465 185.294 21.1964 185.359 21.1259C185.424 21.0553 185.467 20.9673 185.483 20.8727C185.498 20.7781 185.486 20.6809 185.447 20.5933C185.408 20.5056 185.344 20.4312 185.264 20.3793C185.183 20.3273 185.089 20.3 184.993 20.3008C184.926 20.3028 184.86 20.3182 184.8 20.346C184.739 20.3739 184.684 20.4136 184.639 20.4629C184.593 20.5122 184.558 20.57 184.536 20.633C184.513 20.696 184.503 20.7629 184.507 20.8298Z" fill="#263238"/>
<path d="M185.023 18.9895L186.081 19.5662C186.156 19.4231 186.172 19.2567 186.127 19.1019C186.082 18.947 185.978 18.8158 185.838 18.7356C185.769 18.6949 185.692 18.6692 185.612 18.66C185.532 18.6508 185.451 18.6585 185.375 18.6824C185.298 18.7063 185.227 18.746 185.167 18.7988C185.106 18.8517 185.057 18.9167 185.023 18.9895Z" fill="#263238"/>
<path d="M184.543 24.1367L183.432 24.5546C183.455 24.6297 183.494 24.6992 183.546 24.7589C183.597 24.8185 183.66 24.8671 183.731 24.9018C183.801 24.9364 183.878 24.9563 183.957 24.9603C184.036 24.9643 184.114 24.9522 184.188 24.925C184.337 24.8647 184.458 24.749 184.524 24.6021C184.59 24.4552 184.597 24.2885 184.543 24.1367Z" fill="#F28F8F"/>
<path d="M180.158 19.412L181.11 18.6767C181.065 18.6126 181.008 18.5583 180.942 18.517C180.876 18.4757 180.802 18.4483 180.724 18.4364C180.647 18.4245 180.568 18.4284 180.493 18.4479C180.417 18.4674 180.346 18.502 180.285 18.5497C180.157 18.6501 180.073 18.7953 180.05 18.9556C180.026 19.1159 180.065 19.2792 180.158 19.412Z" fill="#263238"/>
<path d="M180.453 20.6924C180.447 20.7597 180.455 20.8276 180.477 20.8916C180.499 20.9557 180.534 21.0144 180.58 21.0642C180.625 21.114 180.681 21.1537 180.743 21.1807C180.805 21.2078 180.872 21.2216 180.94 21.2214C181.046 21.2299 181.152 21.2062 181.244 21.1535C181.337 21.1008 181.411 21.0215 181.458 20.9259C181.504 20.8302 181.521 20.7228 181.505 20.6176C181.49 20.5123 181.443 20.4142 181.371 20.3359C181.299 20.2576 181.205 20.2029 181.102 20.1788C180.998 20.1547 180.89 20.1624 180.791 20.2009C180.691 20.2394 180.606 20.3069 180.546 20.3945C180.486 20.4822 180.453 20.586 180.453 20.6924Z" fill="#263238"/>
<path d="M182.935 20.2324L182.776 23.1632L181.242 22.6447L182.935 20.2324Z" fill="#F28F8F"/>
<path d="M190.525 96.9661V96.5217C190.223 96.6486 189.53 99.299 188.292 100.431C187.303 101.33 185.959 102.367 185.621 103.367C185.282 104.367 187.494 104.986 188.414 104.822C189.472 104.632 191.334 103.88 191.8 103.182C192.265 102.484 192.482 101.452 192.858 100.944C193.233 100.436 194.106 99.8598 194.313 99.2673C194.374 98.7141 194.313 98.1541 194.133 97.6273C193.99 97.0983 193.831 96.4688 193.641 96.5217V96.8602C193.198 97.2119 192.646 97.3989 192.08 97.3893C191.631 97.4051 190.52 97.3152 190.525 96.9661Z" fill="#263238"/>
<path d="M179.665 92.0205C179.501 92.0205 179.369 92.2533 179.009 92.6447C178.475 93.185 177.855 93.6321 177.173 93.9673C176.004 94.5492 173.729 95.4485 172.703 95.9141C172.058 96.205 172.089 96.9721 172.751 97.4218C173.412 97.8714 175.02 98.1835 176.951 97.7497C178.009 97.517 179.363 96.5489 180.231 96.6018C181.098 96.6547 182.712 96.6388 183.352 96.1997C183.992 95.7606 183.733 94.819 183.553 94.0149C183.357 93.1314 183.072 91.7824 182.781 91.8459V92.121C182.405 92.6871 180.495 92.9198 179.67 92.5019L179.665 92.0205Z" fill="#263238"/>
<path d="M189.68 30.9287L180.031 40.906C180.031 40.906 171.566 39.393 168.678 38.5624C167.768 38.3032 167.133 36.9436 166.932 35.9173C166.881 35.383 166.62 34.8905 166.207 34.5472C166.207 34.5472 166.207 35.2931 166.017 36.5151C165.943 37.0442 165.107 37.1129 164.361 37.2769C161.716 37.8483 160.817 37.2769 159.722 38.0387C158.875 38.6418 159.939 40.2077 161.869 40.7367C164.583 41.4826 166.102 41.1123 167.731 41.5196C169.006 41.8371 178.179 44.6938 179.925 45.0958C180.845 45.2968 181.549 45.2334 182.57 44.2441C183.591 43.2548 191.188 36.6104 191.188 36.6104L189.68 30.9287Z" fill="#FFA8A7"/>
<path d="M190.108 30.5851C189.05 30.3153 182.596 37.9913 182.596 37.9913L186.151 40.975C186.151 40.975 190.753 37.9596 191.568 36.7428C192.383 35.5261 193.308 31.3839 190.108 30.5851Z" fill="#FFC000"/>
<path d="M186.384 41.1759C186.384 41.1759 191.24 36.8273 191.467 36.3512C191.906 35.436 191.785 33.7432 191.785 33.7432C191.785 33.7432 192.314 35.2138 191.785 36.3512C191.256 37.4886 187.553 40.7209 186.965 41.2764L186.368 41.8371L185.791 41.3081L186.135 41.0066L186.384 41.1759Z" fill="#FFC000"/>
<path opacity="0.2" d="M186.384 41.1759C186.384 41.1759 191.24 36.8273 191.467 36.3512C191.906 35.436 191.785 33.7432 191.785 33.7432C191.785 33.7432 192.314 35.2138 191.785 36.3512C191.256 37.4886 187.553 40.7209 186.965 41.2764L186.368 41.8371L185.791 41.3081L186.135 41.0066L186.384 41.1759Z" fill="black"/>
<path d="M161.985 19.645C163.043 19.5286 163.747 18.7457 163.985 18.9626C164.081 19.0653 164.138 19.1994 164.144 19.3402C164.149 19.481 164.104 19.6193 164.017 19.7296C163.529 20.1005 162.995 20.408 162.43 20.6449C162.297 21.1826 162.202 21.7287 162.144 22.2795C162.054 23.0889 162.086 24.7077 161.393 25.2579C159.324 26.919 158.795 24.2845 158.875 22.5176C158.996 20.3222 160.88 19.7667 161.985 19.645Z" fill="#F28F8F"/>
</svg>
