<svg width="263" height="196" viewBox="0 0 263 196" fill="none" xmlns="http://www.w3.org/2000/svg">
<path d="M131.502 195.983C187.827 195.983 233.488 193.317 233.488 190.029C233.488 186.74 187.827 184.074 131.502 184.074C75.1764 184.074 29.5156 186.74 29.5156 190.029C29.5156 193.317 75.1764 195.983 131.502 195.983Z" fill="#F5F5F5"/>
<path d="M263 172.229H0V172.361H263V172.229Z" fill="#EBEBEB"/>
<path d="M71.0832 180.692H53.6621V180.824H71.0832V180.692Z" fill="#EBEBEB"/>
<path d="M112.927 176.711H90.0195V176.842H112.927V176.711Z" fill="#EBEBEB"/>
<path d="M53.1363 175.812H27.5938V175.943H53.1363V175.812Z" fill="#EBEBEB"/>
<path d="M148.279 177.589H130.242V177.72H148.279V177.589Z" fill="#EBEBEB"/>
<path d="M178.509 177.589H152.961V177.72H178.509V177.589Z" fill="#EBEBEB"/>
<path d="M221.076 179.809H171.801V179.94H221.076V179.809Z" fill="#EBEBEB"/>
<path d="M124.661 148.769H23.0959C22.3002 148.768 21.5376 148.451 20.9755 147.888C20.4134 147.325 20.0977 146.562 20.0977 145.766V2.99376C20.1046 2.20267 20.4234 1.44626 20.9847 0.888824C21.5461 0.331391 22.3047 0.0179567 23.0959 0.0166016H124.661C125.458 0.0166016 126.222 0.333037 126.785 0.896295C127.348 1.45955 127.665 2.22349 127.665 3.02006V145.766C127.665 146.563 127.348 147.326 126.785 147.89C126.222 148.453 125.458 148.769 124.661 148.769ZM23.0959 0.121802C22.3351 0.123195 21.6059 0.42639 21.0685 0.964836C20.531 1.50328 20.2292 2.23298 20.2292 2.99376V145.766C20.2292 146.527 20.531 147.256 21.0685 147.795C21.6059 148.333 22.3351 148.637 23.0959 148.638H124.661C125.422 148.635 126.151 148.332 126.689 147.794C127.227 147.256 127.53 146.527 127.533 145.766V2.99376C127.53 2.23292 127.227 1.50404 126.689 0.966042C126.151 0.428044 125.422 0.124574 124.661 0.121802H23.0959Z" fill="#EBEBEB"/>
<path d="M238.441 148.769H136.871C136.075 148.767 135.313 148.449 134.75 147.887C134.187 147.324 133.87 146.562 133.867 145.766V2.99376C133.875 2.20219 134.195 1.44578 134.758 0.888495C135.32 0.331207 136.079 0.017942 136.871 0.0166016H238.441C239.231 0.0193391 239.989 0.333385 240.549 0.89067C241.109 1.44796 241.427 2.20358 241.434 2.99376V145.766C241.435 146.16 241.358 146.55 241.208 146.914C241.058 147.278 240.838 147.609 240.56 147.888C240.282 148.166 239.952 148.388 239.588 148.539C239.225 148.69 238.835 148.769 238.441 148.769ZM136.871 0.121802C136.11 0.124574 135.381 0.428044 134.843 0.966042C134.305 1.50404 134.001 2.23292 133.999 2.99376V145.766C134.001 146.527 134.305 147.256 134.843 147.794C135.381 148.332 136.11 148.635 136.871 148.638H238.441C239.202 148.635 239.931 148.332 240.469 147.794C241.007 147.256 241.31 146.527 241.313 145.766V2.99376C241.31 2.23292 241.007 1.50404 240.469 0.966042C239.931 0.428044 239.202 0.124574 238.441 0.121802H136.871Z" fill="#EBEBEB"/>
<path d="M115.73 52.2168H64.3027V172.229H115.73V52.2168Z" fill="#E0E0E0"/>
<path d="M107.945 52.2168H56.5176V172.229H107.945V52.2168Z" fill="#F0F0F0"/>
<path d="M103.349 143.588H61.5059V165.312H103.349V143.588Z" fill="#E0E0E0"/>
<path d="M103.349 115.095H61.5059V136.824H103.349V115.095Z" fill="#E0E0E0"/>
<path d="M103.349 86.6064H61.5059V108.336H103.349V86.6064Z" fill="#E0E0E0"/>
<path d="M103.349 58.1182H61.5059V79.8472H103.349V58.1182Z" fill="#E0E0E0"/>
<path opacity="0.05" d="M70.248 58.1182H61.5059V79.8472H70.248V58.1182Z" fill="black"/>
<path opacity="0.05" d="M70.248 86.6064H61.5059V108.336H70.248V86.6064Z" fill="black"/>
<path opacity="0.05" d="M70.248 115.095H61.5059V136.824H70.248V115.095Z" fill="black"/>
<path opacity="0.05" d="M70.248 143.588H61.5059V165.312H70.248V143.588Z" fill="black"/>
<path d="M68.3017 12.5195H31.5605V49.2606H68.3017V12.5195Z" fill="#E0E0E0"/>
<path d="M66.3759 12.5195H29.6348V49.2606H66.3759V12.5195Z" fill="#EBEBEB"/>
<path d="M62.1516 16.749H33.8633V45.0373H62.1516V16.749Z" fill="#F5F5F5"/>
<path d="M34.7996 16.749H33.8633V45.0373H34.7996V16.749Z" fill="#E0E0E0"/>
<path d="M52.2818 34.8994C54.4997 32.7381 54.5455 29.1882 52.3843 26.9703C50.223 24.7525 46.673 24.7067 44.4552 26.8679C42.2374 29.0292 42.1915 32.5792 44.3528 34.797C46.514 37.0148 50.064 37.0607 52.2818 34.8994Z" fill="#FAFAFA"/>
<path d="M29.5392 163.335C29.5392 163.335 26.641 160.836 24.6369 155.119C22.6329 149.401 17.9883 142.847 17.9883 142.847C17.9883 142.847 24.0636 145.719 26.2044 151.184C26.2044 151.184 23.5744 140.106 17.9883 136.056C17.9883 136.056 27.9823 139.275 30.4913 149.695C30.4913 149.695 32.1587 141.422 29.4393 133.2C29.4393 133.2 34.5573 139.633 35.1569 147.613C35.1569 147.613 35.867 133.794 40.4169 129.729C40.4169 129.729 38.9862 142.237 40.4169 148.549C40.4169 148.549 42.442 137.471 51.4945 135.925C51.4945 135.925 45.6559 142.952 45.8978 149.143C46.9161 147.005 48.4724 145.167 50.4143 143.811C52.3561 142.454 54.617 141.626 56.9754 141.406C56.9754 141.406 50.4951 145.945 49.9112 153.33C49.3274 160.715 49.3116 162.977 45.3824 164.05C41.4531 165.123 29.5392 163.335 29.5392 163.335Z" fill="#F5F5F5"/>
<path d="M23.2539 156.575V170.967C23.2539 170.967 25.1054 176.121 36.9983 176.784C48.8911 177.447 51.6684 171.098 51.6684 171.098V156.575H23.2539Z" fill="#E6E6E6"/>
<path d="M234.387 115.884H159.879V172.665H234.387V115.884Z" fill="#E0E0E0"/>
<path d="M215.834 115.884H141.326V172.665H215.834V115.884Z" fill="#EBEBEB"/>
<path d="M212.126 121.139H143.988V142.173H212.126V121.139Z" stroke="#E0E0E0" stroke-miterlimit="10"/>
<path d="M212.126 145.677H143.988V166.711H212.126V145.677Z" stroke="#E0E0E0" stroke-miterlimit="10"/>
<path d="M178.056 133.563C179.11 133.563 179.965 132.708 179.965 131.654C179.965 130.599 179.11 129.744 178.056 129.744C177.001 129.744 176.146 130.599 176.146 131.654C176.146 132.708 177.001 133.563 178.056 133.563Z" fill="#E0E0E0"/>
<path d="M178.056 159.705C179.11 159.705 179.965 158.851 179.965 157.796C179.965 156.742 179.11 155.887 178.056 155.887C177.001 155.887 176.146 156.742 176.146 157.796C176.146 158.851 177.001 159.705 178.056 159.705Z" fill="#E0E0E0"/>
<path d="M237.157 112.854H138.043V115.884H237.157V112.854Z" fill="#E0E0E0"/>
<path opacity="0.05" d="M237.156 112.854H218.646V115.884H237.156V112.854Z" fill="black"/>
<path d="M236.083 28.168H153.564V74.8242H236.083V28.168Z" fill="#E0E0E0"/>
<path d="M233.927 28.168H151.408V74.8242H233.927V28.168Z" fill="#F0F0F0"/>
<path d="M230.455 31.6924H154.627V71.5264H230.455V31.6924Z" fill="#F5F5F5"/>
<path d="M155.453 31.6924H154.627V71.5264H155.453V31.6924Z" fill="#E0E0E0"/>
<path d="M226.429 44.3119L216.842 40.7119L213.9 48.5465L223.488 52.1464L226.429 44.3119Z" fill="#FAFAFA"/>
<path d="M217.564 42.6751C217.765 42.6751 217.927 42.5126 217.927 42.3122C217.927 42.1117 217.765 41.9492 217.564 41.9492C217.364 41.9492 217.201 42.1117 217.201 42.3122C217.201 42.5126 217.364 42.6751 217.564 42.6751Z" fill="#E6E6E6"/>
<path d="M180.313 54.5791L200.712 56.6305L199.465 64.7414L179.824 62.3902L180.313 54.5791Z" fill="#FAFAFA"/>
<path d="M199.644 58.1188C199.644 58.1906 199.623 58.2607 199.583 58.3204C199.543 58.3801 199.486 58.4266 199.42 58.4541C199.353 58.4816 199.281 58.4888 199.21 58.4748C199.14 58.4608 199.075 58.4262 199.024 58.3754C198.974 58.3247 198.939 58.26 198.925 58.1896C198.911 58.1192 198.918 58.0462 198.946 57.9799C198.973 57.9136 199.02 57.8569 199.079 57.817C199.139 57.7771 199.209 57.7559 199.281 57.7559C199.377 57.7559 199.469 57.7941 199.538 57.8622C199.606 57.9302 199.644 58.0225 199.644 58.1188Z" fill="#E6E6E6"/>
<path d="M191.465 112.854L195.973 89.8154H217.081L212.694 112.854H191.465Z" fill="#EBEBEB"/>
<path d="M194.678 109.966L198.055 92.7031H213.871L210.584 109.966H194.678Z" fill="#FAFAFA"/>
<path d="M198.87 92.7031L195.598 109.966H194.678L198.055 92.7031H198.87Z" fill="#E6E6E6"/>
<path d="M217.08 89.8154H217.953L213.872 112.854H212.693L217.08 89.8154Z" fill="#E6E6E6"/>
<path d="M216.459 98.2207L219.452 112.854H213.871L216.459 98.2207Z" fill="#E0E0E0"/>
<path d="M170.529 23.834V86.8435C170.529 87.867 170.328 88.8805 169.937 89.8263C169.546 90.772 168.972 91.6314 168.249 92.3553C167.525 93.0793 166.666 93.6535 165.721 94.0454C164.775 94.4372 163.762 94.6388 162.739 94.6388H156.484V23.834H170.529Z" fill="#FFC000"/>
<path opacity="0.8" d="M170.529 23.834V86.8435C170.529 87.867 170.328 88.8805 169.937 89.8263C169.546 90.772 168.972 91.6314 168.249 92.3553C167.525 93.0793 166.666 93.6535 165.721 94.0454C164.775 94.4372 163.762 94.6388 162.739 94.6388H156.484V23.834H170.529Z" fill="white"/>
<path d="M170.529 19.0473V86.8434C170.53 87.8669 170.329 88.8804 169.937 89.8262C169.546 90.7719 168.973 91.6313 168.249 92.3552C167.526 93.0792 166.667 93.6534 165.721 94.0452C164.776 94.4371 163.762 94.6387 162.739 94.6387H52.6313C50.5638 94.6387 48.581 93.8174 47.1191 92.3555C45.6572 90.8936 44.8359 88.9109 44.8359 86.8434V19.0473C44.8352 18.0234 45.0364 17.0094 45.4279 16.0633C45.8194 15.1172 46.3936 14.2576 47.1176 13.5336C47.8416 12.8096 48.7012 12.2354 49.6473 11.8439C50.5934 11.4524 51.6074 11.2513 52.6313 11.252H162.739C163.762 11.252 164.776 11.4536 165.721 11.8454C166.667 12.2373 167.526 12.8115 168.249 13.5355C168.973 14.2594 169.546 15.1188 169.937 16.0645C170.329 17.0103 170.53 18.0238 170.529 19.0473Z" fill="white" stroke="#FFC000" stroke-miterlimit="10"/>
<path d="M170.171 16.7066H45.1934C45.6914 15.1243 46.6813 13.7422 48.0189 12.7612C49.3565 11.7802 50.9722 11.2515 52.631 11.252H162.739C164.396 11.2526 166.011 11.7819 167.348 12.7628C168.684 13.7437 169.673 15.1252 170.171 16.7066Z" fill="#FFC000"/>
<path d="M60.7218 15.0862C61.3318 15.0862 61.8264 14.5916 61.8264 13.9816C61.8264 13.3715 61.3318 12.877 60.7218 12.877C60.1117 12.877 59.6172 13.3715 59.6172 13.9816C59.6172 14.5916 60.1117 15.0862 60.7218 15.0862Z" fill="white"/>
<path d="M64.6652 15.0862C65.2752 15.0862 65.7697 14.5916 65.7697 13.9816C65.7697 13.3715 65.2752 12.877 64.6652 12.877C64.0551 12.877 63.5605 13.3715 63.5605 13.9816C63.5605 14.5916 64.0551 15.0862 64.6652 15.0862Z" fill="white"/>
<path d="M69.71 13.9819C69.71 14.2017 69.6447 14.4165 69.5225 14.5991C69.4003 14.7817 69.2267 14.924 69.0236 15.0078C68.8205 15.0917 68.5971 15.1133 68.3816 15.0701C68.1662 15.0268 67.9684 14.9206 67.8134 14.7649C67.6584 14.6091 67.5532 14.4109 67.5109 14.1952C67.4687 13.9796 67.4914 13.7563 67.5762 13.5536C67.661 13.3509 67.8041 13.1779 67.9873 13.0566C68.1705 12.9352 68.3856 12.871 68.6054 12.8721C68.7509 12.8721 68.8949 12.9008 69.0293 12.9567C69.1636 13.0125 69.2856 13.0943 69.3883 13.1975C69.4909 13.3006 69.5722 13.423 69.6274 13.5576C69.6826 13.6922 69.7106 13.8364 69.71 13.9819Z" fill="white"/>
<path d="M170.528 19.0477V23.8343H44.8145V19.0477C44.8144 18.2539 44.935 17.4646 45.1721 16.707H170.15C170.394 17.4635 170.522 18.2528 170.528 19.0477Z" fill="#FFC000"/>
<path opacity="0.5" d="M170.528 19.0477V23.8343H44.8145V19.0477C44.8144 18.2539 44.935 17.4646 45.1721 16.707H170.15C170.394 17.4635 170.522 18.2528 170.528 19.0477Z" fill="white"/>
<path d="M59.6218 23.834V94.6388H52.4577C50.7729 94.6527 49.1271 94.1316 47.7575 93.1504C46.3878 92.1692 45.3648 90.7787 44.8359 89.179V23.834H59.6218Z" fill="#FFC000"/>
<path opacity="0.1" d="M59.6218 23.834V94.6388H52.4577C50.7729 94.6527 49.1271 94.1316 47.7575 93.1504C46.3878 92.1692 45.3648 90.7787 44.8359 89.179V23.834H59.6218Z" fill="black"/>
<path opacity="0.1" d="M151.556 28.8516H64.666V87.4953H151.556V28.8516Z" fill="#FFC000"/>
<path opacity="0.2" d="M50.8362 31.8076H47.1016V35.5422H50.8362V31.8076Z" fill="black"/>
<path opacity="0.2" d="M56.4905 31.8076H52.7559V35.5422H56.4905V31.8076Z" fill="black"/>
<path d="M116.803 57.9394C119.985 53.8156 122.063 48.4031 121.631 43.1168C121.226 38.1566 117.223 35.1321 112.363 36.3208C110.312 36.8468 108.434 37.8463 106.54 38.7878C103.384 40.3658 100.06 41.7123 96.5464 42.1384C93.0328 42.5645 89.5559 42.1384 86.1316 43.4797C80.1721 45.8046 78.5152 53.4211 80.8138 58.9441C82.8547 63.8464 87.7149 67.6336 92.8855 68.6856" stroke="#263238" stroke-linecap="round" stroke-linejoin="round"/>
<path opacity="0.2" d="M50.8362 37.7305H47.1016V41.4651H50.8362V37.7305Z" fill="black"/>
<path opacity="0.2" d="M56.4905 37.7305H52.7559V41.4651H56.4905V37.7305Z" fill="black"/>
<path opacity="0.2" d="M50.8362 43.6533H47.1016V47.3879H50.8362V43.6533Z" fill="black"/>
<path opacity="0.2" d="M56.4905 43.6533H52.7559V47.3879H56.4905V43.6533Z" fill="black"/>
<path opacity="0.2" d="M50.8362 49.5762H47.1016V53.3108H50.8362V49.5762Z" fill="black"/>
<path opacity="0.2" d="M56.4905 49.5762H52.7559V53.3108H56.4905V49.5762Z" fill="black"/>
<path opacity="0.2" d="M50.8362 55.4941H47.1016V59.2287H50.8362V55.4941Z" fill="black"/>
<path opacity="0.2" d="M56.4905 55.4941H52.7559V59.2287H56.4905V55.4941Z" fill="black"/>
<path opacity="0.2" d="M50.8362 61.416H47.1016V65.1506H50.8362V61.416Z" fill="black"/>
<path opacity="0.2" d="M56.4905 61.416H52.7559V65.1506H56.4905V61.416Z" fill="black"/>
<path d="M50.7154 67.1712C50.7154 67.2557 50.6903 67.3383 50.6432 67.4085C50.5962 67.4786 50.5293 67.5332 50.4511 67.5653C50.373 67.5974 50.2871 67.6055 50.2043 67.5887C50.1215 67.5718 50.0456 67.5307 49.9862 67.4706C49.9268 67.4105 49.8867 67.3341 49.8708 67.2511C49.855 67.1681 49.8642 67.0822 49.8972 67.0045C49.9303 66.9267 49.9857 66.8606 50.0565 66.8144C50.1272 66.7682 50.2101 66.7441 50.2946 66.7451C50.3503 66.7451 50.4055 66.7562 50.4569 66.7777C50.5083 66.7992 50.5549 66.8306 50.594 66.8703C50.6332 66.9099 50.6641 66.9569 50.6849 67.0086C50.7057 67.0602 50.7161 67.1155 50.7154 67.1712Z" fill="#263238"/>
<path d="M52.2467 67.1712C52.2467 67.2555 52.2217 67.3379 52.1748 67.4079C52.128 67.478 52.0615 67.5326 51.9836 67.5648C51.9058 67.5971 51.8201 67.6055 51.7375 67.5891C51.6548 67.5726 51.5789 67.5321 51.5193 67.4725C51.4597 67.4129 51.4192 67.337 51.4027 67.2543C51.3863 67.1717 51.3947 67.086 51.427 67.0082C51.4592 66.9303 51.5138 66.8638 51.5839 66.817C51.6539 66.7701 51.7363 66.7452 51.8206 66.7452C51.8767 66.7444 51.9325 66.755 51.9845 66.7761C52.0365 66.7973 52.0837 66.8287 52.1234 66.8684C52.1631 66.9081 52.1945 66.9553 52.2157 67.0073C52.2368 67.0593 52.2474 67.1151 52.2467 67.1712Z" fill="#263238"/>
<path d="M53.772 67.1712C53.772 67.2557 53.7469 67.3383 53.6999 67.4085C53.6528 67.4786 53.5859 67.5332 53.5078 67.5653C53.4296 67.5974 53.3437 67.6055 53.2609 67.5887C53.1781 67.5718 53.1022 67.5307 53.0428 67.4706C52.9835 67.4105 52.9433 67.3341 52.9275 67.2511C52.9116 67.1681 52.9208 67.0822 52.9539 67.0045C52.9869 66.9267 53.0424 66.8606 53.1131 66.8144C53.1839 66.7682 53.2668 66.7441 53.3512 66.7451C53.4069 66.7451 53.4621 66.7562 53.5135 66.7777C53.5649 66.7992 53.6115 66.8306 53.6507 66.8703C53.6898 66.9099 53.7207 66.9569 53.7415 67.0086C53.7624 67.0602 53.7727 67.1155 53.772 67.1712Z" fill="#263238"/>
<path d="M105.779 63.1787L105.111 63.6468L104.711 60.7275L107.146 62.2109L106.541 62.6211L107.483 64.0098L106.741 64.6199L105.779 63.1787Z" fill="#263238"/>
<path d="M156.801 95.2699C156.801 95.2699 154.118 108.22 152.303 111.529C150.489 114.837 140.084 114.685 140.084 114.685L128.039 114.085C128.039 114.085 125.746 106.579 135.566 110.471C135.566 110.471 143.851 108.893 147.012 106.263L150.326 92.6768L156.801 95.2699Z" fill="#FF8B7B"/>
<path d="M192.647 191.812H189.433L180.712 144.372L180.412 142.736L183.516 142.163L183.921 144.372L192.647 191.812Z" fill="#FFC000"/>
<path opacity="0.5" d="M192.647 191.812H189.433L180.712 144.372L180.412 142.736L183.516 142.163L183.921 144.372L192.647 191.812Z" fill="white"/>
<path d="M178.787 191.812H175.615L171.259 144.372L170.797 139.323L170.691 138.202L173.832 137.913L173.963 139.323L174.426 144.372L178.787 191.812Z" fill="#FFC000"/>
<path opacity="0.5" d="M178.787 191.812H175.615L171.259 144.372L170.797 139.323L170.691 138.202L173.832 137.913L173.963 139.323L174.426 144.372L178.787 191.812Z" fill="white"/>
<path d="M146.354 139.922L146.017 144.372L142.409 191.812H139.242L142.845 144.372L143.203 139.686L146.354 139.922Z" fill="#FFC000"/>
<path opacity="0.5" d="M146.354 139.922L146.017 144.372L142.409 191.812H139.242L142.845 144.372L143.203 139.686L146.354 139.922Z" fill="white"/>
<path d="M137.206 140.064L136.496 144.372L128.675 191.812H125.477L133.303 144.372L134.098 139.549L137.206 140.064Z" fill="#FFC000"/>
<path opacity="0.5" d="M137.206 140.064L136.496 144.372L128.675 191.812H125.477L133.303 144.372L134.098 139.549L137.206 140.064Z" fill="white"/>
<path d="M188.792 138.581L188.503 139.322L187.12 142.82C186.942 143.279 186.629 143.673 186.222 143.95C185.815 144.227 185.334 144.374 184.842 144.372H132.737C132.231 144.373 131.737 144.218 131.323 143.928C130.909 143.638 130.594 143.227 130.422 142.752L129.197 139.322L128.907 138.507C128.775 138.137 128.733 137.741 128.786 137.352C128.839 136.963 128.985 136.592 129.211 136.271C129.438 135.95 129.738 135.688 130.087 135.508C130.436 135.328 130.824 135.234 131.216 135.235H186.515C186.914 135.235 187.307 135.332 187.66 135.518C188.013 135.705 188.315 135.975 188.54 136.305C188.764 136.635 188.905 137.015 188.949 137.411C188.993 137.808 188.939 138.21 188.792 138.581Z" fill="#FFC000"/>
<path opacity="0.3" d="M188.502 139.322L187.118 142.82C186.941 143.279 186.628 143.673 186.221 143.95C185.814 144.227 185.333 144.374 184.841 144.372H132.735C132.23 144.373 131.736 144.218 131.322 143.928C130.908 143.638 130.593 143.227 130.421 142.752L129.195 139.322H188.502Z" fill="black"/>
<path d="M135.735 169.567L138.197 163.976C138.34 163.65 138.596 163.387 138.918 163.236C139.24 163.085 139.606 163.057 139.948 163.155L143.841 164.26C144.044 164.318 144.233 164.42 144.394 164.557C144.555 164.695 144.684 164.866 144.774 165.058C144.863 165.25 144.91 165.459 144.911 165.67C144.913 165.882 144.869 166.092 144.782 166.285C143.73 168.663 141.731 173.092 141.1 174.675C140.243 176.879 139.522 179.535 138.376 180.277C138.305 180.323 138.231 180.363 138.155 180.398C137.913 180.497 137.649 180.53 137.391 180.492C137.132 180.454 136.889 180.348 136.686 180.184C136.482 180.02 136.327 179.804 136.236 179.56C136.144 179.315 136.12 179.05 136.166 178.793C136.471 176.942 136.803 173.481 135.688 170.688C135.62 170.507 135.589 170.315 135.597 170.123C135.605 169.93 135.652 169.741 135.735 169.567Z" fill="#263238"/>
<path d="M156.99 116.42C156.99 116.42 130.4 112.791 122.368 120.344C122.368 120.344 117.392 127.135 119.786 140.427C121.351 148.63 124.751 156.373 129.732 163.077L136.712 157.143C136.712 157.143 130.5 141.842 132.604 132.374L142.262 131.801L156.111 122.333L157.563 118.409L156.99 116.42Z" fill="#263238"/>
<path d="M130.373 165.748L127.77 162.587L137.311 154.739L139.115 156.617L130.373 165.748Z" fill="#FFC000"/>
<path d="M183.128 116.131C183.128 116.131 183.864 123.705 181.46 129.249C179.056 134.793 170.561 136.824 164.833 136.455C159.105 136.087 151.715 135.614 148.575 136.497C148.575 136.497 144.509 159.552 137.486 176.363L128.986 175.627C128.986 175.627 133.605 143.088 134.346 135.53C135.088 127.971 134.714 126.845 139.333 123.153C143.951 119.46 167.605 114.469 183.128 116.131Z" fill="#263238"/>
<path d="M135.323 179.409L134.518 182.928L127.77 185.289L129.732 177.794L135.323 179.409Z" fill="#FF8B7B"/>
<path d="M127.68 185.068L133.413 182.938C133.747 182.815 134.114 182.816 134.447 182.943C134.78 183.07 135.055 183.313 135.223 183.627L137.137 187.188C137.241 187.375 137.303 187.583 137.318 187.797C137.334 188.011 137.302 188.225 137.226 188.425C137.15 188.626 137.031 188.807 136.878 188.957C136.724 189.106 136.54 189.221 136.338 189.292C133.892 190.181 129.331 191.843 127.769 192.506C125.592 193.431 123.182 194.762 121.852 194.452C121.77 194.435 121.689 194.412 121.61 194.383C121.37 194.278 121.163 194.111 121.01 193.899C120.857 193.686 120.764 193.437 120.74 193.176C120.717 192.916 120.763 192.654 120.876 192.417C120.988 192.181 121.161 191.979 121.378 191.832C122.919 190.78 125.634 188.592 126.859 185.846C126.936 185.668 127.049 185.507 127.19 185.373C127.331 185.239 127.497 185.135 127.68 185.068Z" fill="#263238"/>
<path d="M156.799 118.162C156.799 118.162 153.338 95.27 152.591 89.6997C151.844 84.1294 152.591 81.2837 154.695 79.4585C156.799 77.6333 166.446 73.7356 172.921 74.7876C179.396 75.8396 182.557 81.2627 183.441 87.4116L181.936 88.1638C181.936 88.1638 183.862 109.498 183.162 116.878L156.799 118.162Z" fill="#FFC000"/>
<path d="M154.69 79.4424C154.69 79.4424 149.572 83.9607 149.572 92.6923L157.552 95.7484L154.69 79.4424Z" fill="#FFC000"/>
<path d="M182.058 88.0791C182.058 88.0791 184.956 98.3256 184.162 102.56C183.368 106.794 176.156 112.475 166.131 114.369C166.131 114.369 161.675 115.147 159.109 113.033L155.211 111.917L156.326 108.462C159.297 108.514 162.222 109.201 164.905 110.476C164.905 110.476 174.484 106.131 177.492 102.791C177.492 102.791 177.156 95.9954 175.488 91.2193L182.058 88.0791Z" fill="#FF8B7B"/>
<path d="M138.667 176.363L127.479 174.68L127.074 178.199L137.226 180.271L138.667 176.363Z" fill="#FFC000"/>
<path d="M149.083 65.3348C148.39 67.3567 148.476 69.5643 149.325 71.5259C148.931 69.9612 149.004 68.3154 149.535 66.7919C150.061 65.3506 150.929 64.083 151.602 62.7154C152.276 61.3478 152.733 59.754 152.286 58.297C152.191 58.0077 151.981 57.671 151.681 57.7184C151.381 57.7657 151.318 58.0182 151.234 58.2444C150.944 58.8437 150.722 59.4735 150.571 60.1222C150.498 60.6219 150.571 61.1163 150.498 61.6265C150.25 62.91 149.519 64.0777 149.083 65.3348Z" fill="#263238"/>
<path d="M152.182 60.9016C151.778 61.054 151.425 61.3167 151.162 61.6598C150.9 62.0029 150.739 62.4126 150.698 62.8425C149.914 62.3374 149.331 61.5742 149.05 60.6849C148.768 59.7956 148.806 58.836 149.157 57.9717C150.372 54.8157 152.019 50.3395 156.921 50.9917C161.823 51.644 172.101 53.0957 168.419 64.047C164.737 74.9984 161.087 61.6222 161.087 61.6222L152.182 60.9016Z" fill="#263238"/>
<path d="M162.907 81.3675C158.441 81.0887 160.335 77.2384 160.54 75.8129C160.594 75.1912 160.459 74.5675 160.151 74.0245C159.943 73.6213 159.688 73.2435 159.393 72.8989C157.437 72.8989 155.269 72.6359 153.718 71.3209C151.982 69.8744 151.293 67.176 151.009 65.0352C150.786 63.0548 150.747 61.0579 150.893 59.0704C150.893 58.7758 150.935 58.4865 150.946 58.1972C151.014 57.0558 151.088 55.9196 151.13 54.8045C151.13 54.8045 155.459 53.8524 159.325 54.7361C162.186 55.3884 164.196 57.7659 165.064 61.5057C165.383 62.9301 165.544 64.3855 165.542 65.8452C165.621 72.0626 168.056 73.1514 169.009 74.9766C169.961 76.8018 167.383 81.6305 162.907 81.3675Z" fill="#FF8B7B"/>
<path d="M154.927 66.3818L153.875 62.3789L153.154 66.5869C153.154 66.5869 153.738 67.0656 154.927 66.3818Z" fill="#FF5652"/>
<path d="M158.021 67.0654C158.021 67.0654 157.363 68.4751 155.27 68.7223" stroke="#263238" stroke-width="0.5" stroke-linecap="round" stroke-linejoin="round"/>
<path d="M157.799 60.2851C157.513 59.971 157.138 59.7521 156.724 59.658C156.31 59.5639 155.878 59.5992 155.484 59.7591" stroke="#263238" stroke-width="0.75" stroke-linecap="round" stroke-linejoin="round"/>
<path d="M156.136 62.2479C156.173 62.6529 156.41 62.9632 156.662 62.9422C156.915 62.9211 157.094 62.574 157.062 62.169C157.031 61.7639 156.789 61.4536 156.536 61.4746C156.284 61.4957 156.105 61.8428 156.136 62.2479Z" fill="#263238"/>
<path d="M151.486 63.3939C151.523 63.7989 151.76 64.1092 152.012 64.0882C152.265 64.0672 152.444 63.72 152.412 63.315C152.381 62.91 152.139 62.5944 151.886 62.6207C151.634 62.647 151.486 62.9889 151.486 63.3939Z" fill="#263238"/>
<path d="M150.814 58.2602C152.501 57.8747 154.086 57.1302 155.459 56.0773C157.005 61.1901 163.591 61.3742 165.237 61.3742C164.375 57.6343 162.302 55.0359 159.451 54.3836C155.591 53.4999 151.035 54.5204 151.035 54.5204C150.993 55.6408 150.878 57.1241 150.814 58.2602Z" fill="#263238"/>
<path d="M156.537 61.4747L155.459 61.2695C155.459 61.2695 155.738 62.0533 156.537 61.4747Z" fill="#263238"/>
<path d="M152.102 62.6423L151.023 62.4424C151.023 62.4424 151.302 63.2209 152.102 62.6423Z" fill="#263238"/>
<path d="M166.336 51.8078C166.873 49.5853 165.417 47.3273 163.084 46.7643C160.751 46.2013 158.426 47.5465 157.889 49.7689C157.353 51.9913 158.809 54.2494 161.141 54.8124C163.474 55.3754 165.8 54.0302 166.336 51.8078Z" fill="#263238"/>
<path d="M154.049 56.8249L153.176 57.9716C153.176 57.9716 155.485 57.5718 155.995 55.9938C156.505 54.4158 154.58 55.6519 154.58 55.6519L154.049 56.8249Z" fill="#263238"/>
<path opacity="0.1" d="M162.343 71.6475C161.778 72.5782 161.032 73.3865 160.15 74.025C159.942 73.6217 159.688 73.244 159.393 72.8993C160.433 72.6318 161.428 72.2099 162.343 71.6475Z" fill="black"/>
<path d="M150.498 61.5952C150.618 61.221 150.867 60.9012 151.2 60.6923C151.533 60.4835 151.929 60.399 152.318 60.4538" stroke="#263238" stroke-width="0.75" stroke-linecap="round" stroke-linejoin="round"/>
<path d="M163.89 62.0164C164.034 61.8017 164.198 61.6009 164.379 61.4168C164.995 60.7909 166 59.9703 166.931 60.4279C168.056 60.9539 167.82 62.5582 167.504 63.5261C167.25 64.3923 166.669 65.126 165.884 65.5722C164.774 66.1455 163.122 65.8405 163.133 64.3466C163.15 63.5123 163.414 62.7017 163.89 62.0164Z" fill="#FF8B7B"/>
<path d="M165.064 60.2957C165.064 60.2957 163.223 63.3991 163.975 66.1448C164.727 68.8905 164.312 70.1845 163.791 71.6415C163.791 71.6415 163.996 67.4703 163.134 65.966C161.819 63.6673 163.66 60.2852 163.66 60.2852L165.064 60.2957Z" fill="#263238"/>
<path d="M157.951 51.0388C157.951 51.0388 162.717 51.6069 165.583 53.5636C165.583 53.5373 163.095 50.2288 157.951 51.0388Z" fill="#FFC000"/>
<path d="M99.1184 112.854H129.1C129.405 112.854 129.705 112.785 129.979 112.651C130.253 112.518 130.493 112.324 130.68 112.084C130.868 111.844 130.998 111.565 131.062 111.267C131.125 110.969 131.12 110.661 131.047 110.366L125.713 89.11C125.605 88.6757 125.355 88.29 125.002 88.0145C124.649 87.739 124.214 87.5895 123.767 87.5898H93.7848C93.4803 87.5896 93.1798 87.6588 92.906 87.7921C92.6323 87.9254 92.3925 88.1193 92.2049 88.3591C92.0173 88.599 91.8868 88.8784 91.8233 89.1762C91.7598 89.474 91.7651 89.7823 91.8386 90.0778L97.1407 111.333C97.25 111.773 97.5051 112.163 97.8642 112.439C98.2234 112.715 98.6655 112.861 99.1184 112.854Z" fill="#263238"/>
<path d="M148.443 112.781H128.065V111.203H147.401C147.68 111.203 147.948 111.314 148.145 111.511C148.342 111.708 148.453 111.976 148.453 112.255V112.812L148.443 112.781Z" fill="#263238"/>
<path opacity="0.3" d="M99.1184 112.854H129.1C129.405 112.854 129.705 112.785 129.979 112.651C130.253 112.518 130.493 112.324 130.68 112.084C130.868 111.844 130.998 111.565 131.062 111.267C131.125 110.969 131.12 110.661 131.047 110.366L125.713 89.11C125.605 88.6757 125.355 88.29 125.002 88.0145C124.649 87.739 124.214 87.5895 123.767 87.5898H93.7848C93.4803 87.5896 93.1798 87.6588 92.906 87.7921C92.6323 87.9254 92.3925 88.1193 92.2049 88.3591C92.0173 88.599 91.8868 88.8784 91.8233 89.1762C91.7598 89.474 91.7651 89.7823 91.8386 90.0778L97.1407 111.333C97.25 111.773 97.5051 112.163 97.8642 112.439C98.2234 112.715 98.6655 112.861 99.1184 112.854Z" fill="black"/>
<path d="M97.5456 112.854H127.528C127.832 112.854 128.133 112.785 128.406 112.651C128.68 112.518 128.92 112.324 129.108 112.084C129.295 111.844 129.426 111.565 129.489 111.267C129.553 110.969 129.547 110.661 129.474 110.366L124.135 89.11C124.027 88.6757 123.776 88.29 123.424 88.0145C123.071 87.739 122.636 87.5895 122.189 87.5898H92.2067C91.9022 87.5896 91.6016 87.6588 91.3279 87.7921C91.0541 87.9254 90.8143 88.1193 90.6267 88.3591C90.4391 88.599 90.3087 88.8784 90.2452 89.1762C90.1817 89.474 90.187 89.7823 90.2605 90.0778L95.5625 111.333C95.6729 111.774 95.929 112.163 96.289 112.439C96.6491 112.715 97.092 112.861 97.5456 112.854Z" fill="#263238"/>
<path opacity="0.2" d="M97.5456 112.854H127.528C127.832 112.854 128.133 112.785 128.406 112.651C128.68 112.518 128.92 112.324 129.108 112.084C129.295 111.844 129.426 111.565 129.489 111.267C129.553 110.969 129.547 110.661 129.474 110.366L124.135 89.11C124.027 88.6757 123.776 88.29 123.424 88.0145C123.071 87.739 122.636 87.5895 122.189 87.5898H92.2067C91.9022 87.5896 91.6016 87.6588 91.3279 87.7921C91.0541 87.9254 90.8143 88.1193 90.6267 88.3591C90.4391 88.599 90.3087 88.8784 90.2452 89.1762C90.1817 89.474 90.187 89.7823 90.2605 90.0778L95.5625 111.333C95.6729 111.774 95.929 112.163 96.289 112.439C96.6491 112.715 97.092 112.861 97.5456 112.854Z" fill="white"/>
<path opacity="0.3" d="M111.199 99.599C111.615 101.372 110.778 103.092 109.327 103.434C107.875 103.775 106.35 102.618 105.929 100.846C105.508 99.073 106.35 97.353 107.801 97.0111C109.253 96.6692 110.778 97.8527 111.199 99.599Z" fill="black"/>
<path d="M90.2708 114.7L79.209 183.301H76.7578L87.8827 114.311L90.2708 114.7Z" fill="#FFC000"/>
<path opacity="0.5" d="M90.2708 114.7L79.209 183.301H76.7578L87.8827 114.311L90.2708 114.7Z" fill="white"/>
<path d="M106.545 183.301H104.089L93.4004 114.695L95.7937 114.321L106.545 183.301Z" fill="#FFC000"/>
<path opacity="0.5" d="M106.545 183.301H104.089L93.4004 114.695L95.7937 114.321L106.545 183.301Z" fill="white"/>
<path d="M132.067 114.7L121.005 183.301H118.549L129.674 114.311L132.067 114.7Z" fill="#FFC000"/>
<path opacity="0.5" d="M132.067 114.7L121.005 183.301H118.549L129.674 114.311L132.067 114.7Z" fill="white"/>
<path d="M168.987 183.301H166.535L155.842 114.695L158.235 114.321L168.987 183.301Z" fill="#FFC000"/>
<path opacity="0.5" d="M168.987 183.301H166.535L155.842 114.695L158.235 114.321L168.987 183.301Z" fill="white"/>
<path d="M172.001 112.359H70.3516V115.552H172.001V112.359Z" fill="#FFC000"/>
<path opacity="0.3" d="M172.048 112.359H131.078V115.552H172.048V112.359Z" fill="black"/>
<path d="M168.356 112.359H151.566C151.566 112.111 151.665 111.873 151.841 111.697C152.016 111.522 152.254 111.423 152.503 111.423H167.415C167.664 111.423 167.902 111.521 168.079 111.697C168.255 111.872 168.355 112.11 168.356 112.359Z" fill="#263238"/>
<path d="M162.259 103.412L159.997 108.84C159.582 108.756 159.208 108.698 158.945 108.662L161.302 103.007C161.356 102.878 161.458 102.776 161.587 102.722C161.717 102.669 161.862 102.669 161.991 102.723C162.12 102.777 162.222 102.88 162.276 103.009C162.329 103.138 162.329 103.283 162.275 103.412H162.259Z" fill="#263238"/>
<path d="M163.858 99.1626C166.763 99.1626 169.118 96.4356 169.118 93.0715C169.118 89.7075 166.763 86.9805 163.858 86.9805C160.953 86.9805 158.598 89.7075 158.598 93.0715C158.598 96.4356 160.953 99.1626 163.858 99.1626Z" fill="#263238"/>
<path d="M175.489 91.199L175.131 89.9314L183.184 85.918L183.457 87.4381L175.489 91.199Z" fill="#263238"/>
<path opacity="0.1" d="M175.13 89.9311L172.689 86.2754L176.566 95.3331L175.13 89.9311Z" fill="black"/>
<path d="M153.207 94.0813L152.986 92.7084L149.572 91.4092V92.7084L153.207 94.0813Z" fill="#263238"/>
<path opacity="0.1" d="M153.207 94.0808C153.139 93.8178 152.303 88.0791 152.303 88.0791V93.7389L153.207 94.0808Z" fill="black"/>
<path d="M160.007 76.7807C160.007 76.7807 157.703 81.9249 163.132 81.7619C168.56 81.5988 169.927 77.5907 170.201 74.6083L168.507 74.0244C168.507 74.0244 167.529 78.2324 163.857 79.0688C160.186 79.9051 160.491 76.0758 160.491 76.0758L160.007 76.7807Z" fill="#263238"/>
<path opacity="0.1" d="M129.164 179.956L134.892 181.302L135.218 179.866L129.495 178.693L129.164 179.956Z" fill="black"/>
</svg>
