<svg width="313" height="232" viewBox="0 0 313 232" fill="none" xmlns="http://www.w3.org/2000/svg">
<path d="M312.178 203.878H0.820312V204.034H312.178V203.878Z" fill="#EBEBEB"/>
<path d="M280.98 213.897H260.355V214.053H280.98V213.897Z" fill="#EBEBEB"/>
<path d="M207.075 215.592H201.664V215.747H207.075V215.592Z" fill="#EBEBEB"/>
<path d="M259.733 208.119H247.783V208.275H259.733V208.119Z" fill="#EBEBEB"/>
<path d="M60.3834 209.165H33.4883V209.321H60.3834V209.165Z" fill="#EBEBEB"/>
<path d="M69.8734 209.165H65.9316V209.321H69.8734V209.165Z" fill="#EBEBEB"/>
<path d="M141.025 211.793H82.6895V211.949H141.025V211.793Z" fill="#EBEBEB"/>
<path d="M148.405 176.105H28.1647C27.2228 176.103 26.32 175.728 25.6545 175.061C24.989 174.395 24.6152 173.491 24.6152 172.549V3.52555C24.6234 2.589 25.0008 1.6935 25.6654 1.03357C26.33 0.373646 27.2281 0.00258092 28.1647 0.000976562H148.405C149.348 0.000976563 150.252 0.375595 150.919 1.04242C151.586 1.70924 151.961 2.61365 151.961 3.55668V172.549C151.961 173.492 151.586 174.397 150.919 175.063C150.252 175.73 149.348 176.105 148.405 176.105ZM28.1647 0.12552C27.264 0.12717 26.4008 0.486113 25.7646 1.12356C25.1283 1.76101 24.7709 2.62488 24.7709 3.52555V172.549C24.7709 173.45 25.1283 174.314 25.7646 174.951C26.4008 175.589 27.264 175.948 28.1647 175.949H148.405C149.306 175.948 150.17 175.589 150.807 174.952C151.444 174.314 151.803 173.45 151.805 172.549V3.52555C151.803 2.62431 151.444 1.76045 150.807 1.12318C150.17 0.48591 149.306 0.127166 148.405 0.12552H28.1647Z" fill="#EBEBEB"/>
<path d="M283.103 176.105H162.856C161.914 176.103 161.011 175.728 160.344 175.062C159.678 174.395 159.302 173.492 159.301 172.549V3.52555C159.311 2.58843 159.689 1.69294 160.355 1.03319C161.021 0.373428 161.919 0.00256342 162.856 0.000976562H283.103C284.038 0.00421748 284.935 0.376006 285.598 1.03576C286.261 1.69551 286.638 2.59007 286.646 3.52555V172.549C286.646 173.49 286.273 174.393 285.609 175.059C284.945 175.726 284.044 176.102 283.103 176.105ZM162.856 0.12552C161.955 0.127166 161.091 0.48591 160.454 1.12318C159.817 1.76045 159.458 2.62431 159.456 3.52555V172.549C159.458 173.45 159.817 174.314 160.454 174.952C161.091 175.589 161.955 175.948 162.856 175.949H283.103C284.004 175.948 284.868 175.589 285.505 174.952C286.142 174.314 286.501 173.45 286.503 172.549V3.52555C286.501 2.62431 286.142 1.76045 285.505 1.12318C284.868 0.48591 284.004 0.127166 283.103 0.12552H162.856Z" fill="#EBEBEB"/>
<path d="M148.404 78.532V89.4668L154.009 89.9961C154.761 93.5998 156.187 97.0288 158.212 100.103L154.594 104.462L162.328 112.196L166.687 108.578C169.759 110.601 173.186 112.025 176.788 112.775L177.317 118.38H188.32L188.85 112.775C192.453 112.025 195.882 110.601 198.956 108.578L203.315 112.196L211.049 104.462L207.432 100.103C209.455 97.0285 210.879 93.5994 211.629 89.9961L217.264 89.4668V78.532L211.629 77.9964C210.884 74.3898 209.464 70.9565 207.444 67.8773L211.062 63.5183L203.328 55.7904L198.969 59.4084C195.899 57.3877 192.477 55.9619 188.881 55.205L188.351 49.6006H177.379L176.85 55.205C173.249 55.9597 169.823 57.3856 166.749 59.4084L162.39 55.7904L154.631 63.5183L158.249 67.8773C156.226 70.95 154.8 74.3767 154.046 77.9777L148.404 78.532ZM182.828 69.1912C185.757 69.1912 188.62 70.0597 191.055 71.6868C193.49 73.314 195.388 75.6267 196.509 78.3326C197.63 81.0384 197.923 84.0158 197.352 86.8883C196.78 89.7608 195.37 92.3994 193.299 94.4704C191.228 96.5413 188.589 97.9517 185.717 98.523C182.844 99.0944 179.867 98.8012 177.161 97.6804C174.455 96.5596 172.143 94.6616 170.515 92.2264C168.888 89.7912 168.02 86.9282 168.02 83.9994C168.02 82.0527 168.404 80.125 169.149 78.3268C169.895 76.5286 170.988 74.895 172.366 73.5196C173.744 72.1442 175.379 71.054 177.178 70.3113C178.978 69.5686 180.906 69.1879 182.853 69.1912H182.828Z" fill="#F0F0F0"/>
<path d="M129.947 127.477L133.061 130.08L138.622 124.52L136.019 121.406C137.487 119.193 138.52 116.72 139.064 114.12L143.112 113.74V105.863L139.064 105.483C138.525 102.894 137.5 100.43 136.044 98.2223L138.647 95.1087L133.086 89.5479L129.972 92.1508C127.763 90.697 125.3 89.6724 122.711 89.1307L122.332 85.083H114.448L114.068 89.1307C111.479 89.6763 109.015 90.7051 106.807 92.1633L103.694 89.5603L98.1328 95.1212L100.736 98.2348C99.2795 100.443 98.2547 102.906 97.7156 105.496L93.668 105.875V113.734L97.7156 114.114C98.2547 116.703 99.2795 119.167 100.736 121.375L98.1328 124.488L103.694 130.049L106.807 127.446C109.016 128.9 111.48 129.925 114.068 130.467L114.448 134.514H122.307L122.687 130.467C125.273 129.934 127.736 128.92 129.947 127.477ZM107.741 109.811C107.741 107.706 108.366 105.648 109.535 103.898C110.705 102.148 112.367 100.784 114.312 99.9783C116.257 99.173 118.397 98.9626 120.462 99.3738C122.527 99.7849 124.423 100.799 125.911 102.288C127.399 103.777 128.412 105.674 128.822 107.739C129.232 109.803 129.02 111.943 128.214 113.888C127.407 115.832 126.042 117.494 124.292 118.663C122.541 119.831 120.482 120.454 118.377 120.453C116.98 120.453 115.596 120.178 114.306 119.643C113.015 119.108 111.842 118.324 110.854 117.336C109.867 116.348 109.083 115.174 108.549 113.883C108.015 112.592 107.741 111.208 107.741 109.811Z" fill="#F5F5F5"/>
<path d="M164.874 180.713C167.956 180.072 170.889 178.853 173.517 177.12L177.254 180.233L183.898 173.601L180.784 169.865C182.518 167.237 183.737 164.304 184.378 161.222L189.197 160.773V151.433L184.378 150.978C183.74 147.887 182.52 144.946 180.784 142.31L183.898 138.574L177.26 131.954L173.524 135.068C170.894 133.338 167.962 132.119 164.88 131.475L164.426 126.661H155.085L154.63 131.456C151.549 132.1 148.617 133.319 145.987 135.049L142.251 131.936L135.631 138.555L138.745 142.291C137.015 144.921 135.796 147.853 135.152 150.935L130.332 151.389V160.73L135.152 161.178C135.795 164.26 137.014 167.192 138.745 169.822L135.631 173.558L142.251 180.171L145.987 177.058C148.611 178.813 151.544 180.053 154.63 180.713L155.085 185.533H164.426L164.874 180.713ZM147.077 156.084C147.078 153.58 147.822 151.131 149.214 149.049C150.607 146.967 152.586 145.345 154.9 144.387C157.215 143.429 159.761 143.179 162.218 143.669C164.674 144.158 166.931 145.365 168.701 147.137C170.472 148.908 171.678 151.165 172.166 153.622C172.654 156.079 172.403 158.625 171.444 160.939C170.485 163.253 168.862 165.231 166.779 166.623C164.696 168.014 162.248 168.757 159.743 168.757C158.079 168.757 156.431 168.429 154.894 167.792C153.357 167.155 151.961 166.222 150.784 165.045C149.608 163.868 148.675 162.471 148.039 160.933C147.403 159.396 147.076 157.748 147.077 156.084Z" fill="#FAFAFA"/>
<path d="M88.9122 67.4832L60.2656 63.5693L56.3517 92.2159L84.9983 96.1298L88.9122 67.4832Z" fill="#F5F5F5"/>
<path d="M64.4795 71.4244L64.2266 73.2754L82.878 75.8237L83.1309 73.9727L64.4795 71.4244Z" fill="#E0E0E0"/>
<path d="M63.6826 77.235L63.4297 79.0859L82.0811 81.6342L82.334 79.7833L63.6826 77.235Z" fill="#E0E0E0"/>
<path d="M62.8662 83.2408L62.6133 85.0918L73.5956 86.5923L73.8485 84.7413L62.8662 83.2408Z" fill="#E0E0E0"/>
<path d="M249.295 35.6618L220.383 35.7627L220.484 64.6752L249.396 64.5743L249.295 35.6618Z" fill="#F0F0F0"/>
<path d="M244.491 42.847L225.666 42.916L225.673 44.7841L244.497 44.7152L244.491 42.847Z" fill="#E0E0E0"/>
<path d="M244.518 48.7132L225.693 48.7822L225.7 50.6504L244.525 50.5814L244.518 48.7132Z" fill="#E0E0E0"/>
<path d="M236.793 54.8061L225.709 54.8467L225.716 56.7148L236.8 56.6742L236.793 54.8061Z" fill="#E0E0E0"/>
<path d="M266.646 106.174L237.963 109.808L241.597 138.491L270.28 134.857L266.646 106.174Z" fill="#F5F5F5"/>
<path d="M262.763 113.922L244.088 116.288L244.323 118.141L262.998 115.776L262.763 113.922Z" fill="#E0E0E0"/>
<path d="M263.502 119.738L244.826 122.104L245.061 123.957L263.736 121.591L263.502 119.738Z" fill="#E0E0E0"/>
<path d="M256.582 126.724L245.586 128.117L245.821 129.971L256.817 128.577L256.582 126.724Z" fill="#E0E0E0"/>
<path d="M112.852 152.728L83.9395 152.829L84.0404 181.742L112.953 181.641L112.852 152.728Z" fill="#F0F0F0"/>
<path d="M108.078 159.937L89.2539 160.006L89.2608 161.874L108.085 161.805L108.078 159.937Z" fill="#E0E0E0"/>
<path d="M108.1 165.803L89.2754 165.872L89.2822 167.74L108.107 167.671L108.1 165.803Z" fill="#E0E0E0"/>
<path d="M100.381 171.897L89.2969 171.938L89.3037 173.806L100.388 173.765L100.381 171.897Z" fill="#E0E0E0"/>
<path d="M240.551 166.884L211.639 166.985L211.74 195.898L240.652 195.797L240.551 166.884Z" fill="#F0F0F0"/>
<path d="M235.774 174.072L216.949 174.141L216.956 176.009L235.781 175.94L235.774 174.072Z" fill="#E0E0E0"/>
<path d="M235.801 179.938L216.977 180.007L216.983 181.875L235.808 181.806L235.801 179.938Z" fill="#E0E0E0"/>
<path d="M228.076 186.031L216.992 186.071L216.999 187.939L228.083 187.899L228.076 186.031Z" fill="#E0E0E0"/>
<path d="M118.715 33.7733L90.4902 40.041L96.7579 68.2662L124.983 61.9985L118.715 33.7733Z" fill="#F0F0F0"/>
<path d="M115.555 41.8635L97.1777 45.9443L97.5827 47.7681L115.96 43.6872L115.555 41.8635Z" fill="#E0E0E0"/>
<path d="M116.83 47.5911L98.4531 51.6719L98.8581 53.4956L117.235 49.4148L116.83 47.5911Z" fill="#E0E0E0"/>
<path d="M110.586 55.187L99.7656 57.5898L100.171 59.4136L110.991 57.0107L110.586 55.187Z" fill="#E0E0E0"/>
<path d="M62.6177 66.6939H62.1009L61.3848 63.3936H63.3276L62.6177 66.6939Z" fill="#E0E0E0"/>
<path d="M62.3564 65.8777C63.8077 65.8777 64.9842 64.9494 64.9842 63.8041C64.9842 62.6589 63.8077 61.7305 62.3564 61.7305C60.905 61.7305 59.7285 62.6589 59.7285 63.8041C59.7285 64.9494 60.905 65.8777 62.3564 65.8777Z" fill="#E6E6E6"/>
<path d="M115.444 37.8811H114.927L114.217 34.5869H116.16L115.444 37.8811Z" fill="#E0E0E0"/>
<path d="M115.189 37.0711C116.644 37.0711 117.823 36.1427 117.823 34.9975C117.823 33.8522 116.644 32.9238 115.189 32.9238C113.734 32.9238 112.555 33.8522 112.555 34.9975C112.555 36.1427 113.734 37.0711 115.189 37.0711Z" fill="#E6E6E6"/>
<path d="M234.426 38.7092H233.909L233.193 35.415H235.136L234.426 38.7092Z" fill="#E0E0E0"/>
<path d="M234.165 37.8992C235.616 37.8992 236.793 36.9708 236.793 35.8256C236.793 34.6804 235.616 33.752 234.165 33.752C232.714 33.752 231.537 34.6804 231.537 35.8256C231.537 36.9708 232.714 37.8992 234.165 37.8992Z" fill="#E6E6E6"/>
<path d="M263.981 110.315H263.464L262.754 107.021H264.697L263.981 110.315Z" fill="#E0E0E0"/>
<path d="M263.726 109.506C265.177 109.506 266.353 108.577 266.353 107.432C266.353 106.287 265.177 105.358 263.726 105.358C262.274 105.358 261.098 106.287 261.098 107.432C261.098 108.577 262.274 109.506 263.726 109.506Z" fill="#E6E6E6"/>
<path d="M226.61 170.171H226.087L225.377 166.87H227.32L226.61 170.171Z" fill="#E0E0E0"/>
<path d="M226.349 169.354C227.8 169.354 228.976 168.426 228.976 167.281C228.976 166.135 227.8 165.207 226.349 165.207C224.897 165.207 223.721 166.135 223.721 167.281C223.721 168.426 224.897 169.354 226.349 169.354Z" fill="#E6E6E6"/>
<path d="M97.6408 155.35H97.124L96.4141 152.05H98.3569L97.6408 155.35Z" fill="#E0E0E0"/>
<path d="M97.3857 154.534C98.837 154.534 100.014 153.606 100.014 152.46C100.014 151.315 98.837 150.387 97.3857 150.387C95.9343 150.387 94.7578 151.315 94.7578 152.46C94.7578 153.606 95.9343 154.534 97.3857 154.534Z" fill="#E6E6E6"/>
<path d="M156.5 232C223.182 232 277.238 228.844 277.238 224.95C277.238 221.057 223.182 217.901 156.5 217.901C89.8181 217.901 35.7617 221.057 35.7617 224.95C35.7617 228.844 89.8181 232 156.5 232Z" fill="#F5F5F5"/>
<path d="M90.2871 120.708C90.2871 116.604 92.9835 113.235 96.3025 113.235C99.6216 113.235 102.318 116.573 102.318 120.708C102.318 124.843 99.6216 128.143 96.3025 128.143C92.9835 128.143 90.2871 124.812 90.2871 120.708ZM91.5325 120.708C91.5325 124.12 93.6747 126.898 96.3025 126.898C98.9304 126.898 101.073 124.12 101.073 120.708C101.073 117.295 98.9366 114.481 96.3025 114.481C93.6685 114.481 91.5325 117.295 91.5325 120.708Z" fill="#263238"/>
<path d="M78.4492 120.708C78.4492 116.604 81.1456 113.235 84.4647 113.235C87.7837 113.235 90.4801 116.573 90.4801 120.708C90.4801 124.843 87.7837 128.143 84.4647 128.143C81.1456 128.143 78.4492 124.812 78.4492 120.708ZM79.6946 120.708C79.6946 124.12 81.8306 126.898 84.4647 126.898C87.0987 126.898 89.2346 124.12 89.2346 120.708C89.2346 117.295 87.0925 114.481 84.4647 114.481C81.8368 114.481 79.6946 117.295 79.6946 120.708Z" fill="#263238"/>
<path d="M66.6055 120.708C66.6055 116.604 69.3081 113.235 72.6271 113.235C75.9462 113.235 78.6426 116.573 78.6426 120.708C78.6426 124.843 75.94 128.143 72.6271 128.143C69.3143 128.143 66.6055 124.812 66.6055 120.708ZM67.8509 120.708C67.8509 124.12 69.993 126.898 72.6271 126.898C75.2612 126.898 77.3971 124.12 77.3971 120.708C77.3971 117.295 75.255 114.481 72.6271 114.481C69.9993 114.481 67.8509 117.295 67.8509 120.708Z" fill="#263238"/>
<path d="M54.7676 120.708C54.7676 116.604 57.4702 113.235 60.7892 113.235C64.1083 113.235 66.8047 116.573 66.8047 120.708C66.8047 124.843 64.1021 128.143 60.7892 128.143C57.4764 128.143 54.7676 124.812 54.7676 120.708ZM56.013 120.708C56.013 124.12 58.1552 126.898 60.7892 126.898C63.4233 126.898 65.5592 124.12 65.5592 120.708C65.5592 117.295 63.4171 114.481 60.7892 114.481C58.1614 114.481 56.013 117.295 56.013 120.708Z" fill="#263238"/>
<path d="M102.125 120.708C102.125 116.604 104.821 113.235 108.14 113.235C111.46 113.235 114.162 116.573 114.162 120.708C114.162 124.843 111.46 128.143 108.14 128.143C104.821 128.143 102.125 124.812 102.125 120.708ZM103.37 120.708C103.37 124.12 105.513 126.898 108.14 126.898C110.768 126.898 112.917 124.12 112.917 120.708C112.917 117.295 110.775 114.481 108.14 114.481C105.506 114.481 103.37 117.295 103.37 120.708Z" fill="#263238"/>
<path d="M46.9388 223.425H121.092L121.092 120.851L46.9388 120.851L46.9388 223.425Z" fill="#263238"/>
<path opacity="0.7" d="M46.9388 223.425H121.092L121.092 120.851L46.9388 120.851L46.9388 223.425Z" fill="white"/>
<path opacity="0.6" d="M53.6206 223.425H121.092L121.092 120.851L53.6206 120.851L53.6206 223.425Z" fill="white"/>
<path opacity="0.2" d="M49.1618 223.425L48.8504 127.564L48.5391 223.425H49.1618Z" fill="black"/>
<path opacity="0.2" d="M52.2633 223.425L51.952 133.536L51.6406 223.425H52.2633Z" fill="black"/>
<path opacity="0.2" d="M50.0898 120.926L50.4012 192.993L50.7126 120.926H50.0898Z" fill="black"/>
<path d="M109.933 125.727C109.997 126.059 110.154 126.366 110.386 126.612C110.618 126.858 110.915 127.033 111.243 127.116C111.57 127.2 111.915 127.188 112.236 127.083C112.557 126.978 112.842 126.783 113.057 126.523C113.272 126.262 113.408 125.945 113.45 125.609C113.491 125.274 113.437 124.933 113.292 124.628C113.147 124.322 112.918 124.064 112.632 123.884C112.346 123.704 112.015 123.608 111.677 123.609C111.167 123.663 110.698 123.915 110.372 124.311C110.046 124.707 109.888 125.216 109.933 125.727Z" fill="#263238"/>
<path d="M111.789 126.356C111.878 126.355 111.966 126.335 112.047 126.298C112.127 126.26 112.199 126.206 112.257 126.138C113.511 124.609 114.186 122.686 114.162 120.708C114.162 116.604 111.459 113.235 108.14 113.235C105.699 113.235 103.514 115.041 102.58 117.825C102.553 117.902 102.543 117.985 102.548 118.066C102.554 118.148 102.575 118.228 102.612 118.301C102.648 118.375 102.699 118.44 102.761 118.494C102.822 118.548 102.894 118.589 102.972 118.616C103.05 118.642 103.132 118.652 103.213 118.647C103.295 118.641 103.375 118.62 103.449 118.583C103.522 118.547 103.587 118.496 103.641 118.435C103.695 118.373 103.737 118.301 103.763 118.223C104.522 115.95 106.254 114.487 108.122 114.487C110.756 114.487 112.898 117.271 112.898 120.714C112.924 122.393 112.358 124.027 111.298 125.328C111.218 125.419 111.167 125.53 111.149 125.649C111.132 125.768 111.149 125.889 111.199 125.999C111.249 126.108 111.33 126.201 111.431 126.265C111.533 126.329 111.651 126.363 111.771 126.362L111.789 126.356Z" fill="#263238"/>
<g opacity="0.4">
<path d="M111.789 126.356C111.878 126.355 111.966 126.335 112.047 126.298C112.127 126.26 112.199 126.206 112.257 126.138C113.511 124.609 114.186 122.686 114.162 120.708C114.162 116.604 111.459 113.235 108.14 113.235C105.699 113.235 103.514 115.041 102.58 117.825C102.553 117.902 102.543 117.985 102.548 118.066C102.554 118.148 102.575 118.228 102.612 118.301C102.648 118.375 102.699 118.44 102.761 118.494C102.822 118.548 102.894 118.589 102.972 118.616C103.05 118.642 103.132 118.652 103.213 118.647C103.295 118.641 103.375 118.62 103.449 118.583C103.522 118.547 103.587 118.496 103.641 118.435C103.695 118.373 103.737 118.301 103.763 118.223C104.522 115.95 106.254 114.487 108.122 114.487C110.756 114.487 112.898 117.271 112.898 120.714C112.924 122.393 112.358 124.027 111.298 125.328C111.218 125.419 111.167 125.53 111.149 125.649C111.132 125.768 111.149 125.889 111.199 125.999C111.249 126.108 111.33 126.201 111.431 126.265C111.533 126.329 111.651 126.363 111.771 126.362L111.789 126.356Z" fill="white"/>
</g>
<path d="M98.0955 125.727C98.1604 126.057 98.3177 126.361 98.5491 126.605C98.7804 126.849 99.0763 127.023 99.4024 127.105C99.7284 127.187 100.071 127.175 100.391 127.07C100.71 126.965 100.993 126.772 101.207 126.512C101.421 126.253 101.556 125.938 101.598 125.604C101.64 125.271 101.586 124.932 101.442 124.628C101.299 124.324 101.072 124.066 100.788 123.886C100.505 123.706 100.175 123.61 99.8391 123.609C99.3288 123.663 98.86 123.915 98.5338 124.311C98.2077 124.707 98.0502 125.216 98.0955 125.727Z" fill="#263238"/>
<path d="M99.9454 126.356C100.035 126.356 100.124 126.336 100.206 126.299C100.288 126.261 100.36 126.206 100.419 126.138C101.672 124.608 102.344 122.685 102.318 120.708C102.318 116.604 99.6216 113.235 96.3025 113.235C93.8552 113.235 91.6757 115.041 90.7416 117.825C90.6888 117.982 90.7004 118.153 90.774 118.301C90.8476 118.45 90.9771 118.563 91.134 118.616C91.2909 118.668 91.4623 118.657 91.6106 118.583C91.7589 118.51 91.872 118.38 91.9248 118.223C92.6845 115.95 94.4157 114.487 96.2838 114.487C98.9179 114.487 101.054 117.271 101.054 120.714C101.082 122.392 100.518 124.026 99.4597 125.328C99.3807 125.418 99.3293 125.529 99.3116 125.648C99.2939 125.766 99.3107 125.887 99.36 125.996C99.4093 126.105 99.4889 126.197 99.5894 126.262C99.6899 126.327 99.807 126.362 99.9267 126.362L99.9454 126.356Z" fill="#263238"/>
<g opacity="0.4">
<path d="M99.9454 126.356C100.035 126.356 100.124 126.336 100.206 126.299C100.288 126.261 100.36 126.206 100.419 126.138C101.672 124.608 102.344 122.685 102.318 120.708C102.318 116.604 99.6216 113.235 96.3025 113.235C93.8552 113.235 91.6757 115.041 90.7416 117.825C90.6888 117.982 90.7004 118.153 90.774 118.301C90.8476 118.45 90.9771 118.563 91.134 118.616C91.2909 118.668 91.4623 118.657 91.6106 118.583C91.7589 118.51 91.872 118.38 91.9248 118.223C92.6845 115.95 94.4157 114.487 96.2838 114.487C98.9179 114.487 101.054 117.271 101.054 120.714C101.082 122.392 100.518 124.026 99.4597 125.328C99.3807 125.418 99.3293 125.529 99.3116 125.648C99.2939 125.766 99.3107 125.887 99.36 125.996C99.4093 126.105 99.4889 126.197 99.5894 126.262C99.6899 126.327 99.807 126.362 99.9267 126.362L99.9454 126.356Z" fill="white"/>
</g>
<path d="M86.2512 125.727C86.315 126.058 86.4718 126.365 86.7034 126.611C86.9349 126.857 87.2316 127.032 87.5589 127.116C87.8862 127.199 88.2305 127.188 88.5517 127.084C88.8729 126.979 89.1577 126.785 89.3729 126.525C89.5881 126.265 89.7249 125.948 89.7671 125.613C89.8094 125.278 89.7555 124.938 89.6116 124.632C89.4678 124.326 89.24 124.068 88.9548 123.887C88.6696 123.706 88.3389 123.61 88.001 123.609C87.4903 123.663 87.0209 123.915 86.6937 124.311C86.3665 124.706 86.2077 125.215 86.2512 125.727Z" fill="#263238"/>
<path d="M88.1078 126.356C88.1977 126.356 88.2866 126.336 88.3683 126.299C88.45 126.261 88.5226 126.206 88.581 126.138C89.8228 124.604 90.4842 122.681 90.4492 120.708C90.4492 116.604 87.7528 113.235 84.4338 113.235C81.9865 113.235 79.807 115.041 78.8729 117.825C78.8465 117.902 78.8358 117.985 78.8412 118.066C78.8467 118.148 78.8683 118.228 78.9047 118.302C78.9412 118.375 78.9918 118.441 79.0537 118.495C79.1155 118.549 79.1874 118.59 79.2652 118.616C79.3429 118.642 79.425 118.653 79.5069 118.647C79.5887 118.642 79.6687 118.62 79.7422 118.584C79.8157 118.547 79.8812 118.497 79.9351 118.435C79.989 118.373 80.0301 118.301 80.0561 118.223C80.8158 115.95 82.5469 114.487 84.4151 114.487C87.0429 114.487 89.1851 117.271 89.1851 120.714C89.2147 122.393 88.6476 124.028 87.5847 125.328C87.5054 125.419 87.4539 125.53 87.4364 125.649C87.4189 125.768 87.4363 125.889 87.4863 125.999C87.5364 126.108 87.617 126.201 87.7184 126.265C87.8198 126.329 87.9378 126.363 88.058 126.362L88.1078 126.356Z" fill="#263238"/>
<g opacity="0.4">
<path d="M88.1078 126.356C88.1977 126.356 88.2866 126.336 88.3683 126.299C88.45 126.261 88.5226 126.206 88.581 126.138C89.8228 124.604 90.4842 122.681 90.4492 120.708C90.4492 116.604 87.7528 113.235 84.4338 113.235C81.9865 113.235 79.807 115.041 78.8729 117.825C78.8465 117.902 78.8358 117.985 78.8412 118.066C78.8467 118.148 78.8683 118.228 78.9047 118.302C78.9412 118.375 78.9918 118.441 79.0537 118.495C79.1155 118.549 79.1874 118.59 79.2652 118.616C79.3429 118.642 79.425 118.653 79.5069 118.647C79.5887 118.642 79.6687 118.62 79.7422 118.584C79.8157 118.547 79.8812 118.497 79.9351 118.435C79.989 118.373 80.0301 118.301 80.0561 118.223C80.8158 115.95 82.5469 114.487 84.4151 114.487C87.0429 114.487 89.1851 117.271 89.1851 120.714C89.2147 122.393 88.6476 124.028 87.5847 125.328C87.5054 125.419 87.4539 125.53 87.4364 125.649C87.4189 125.768 87.4363 125.889 87.4863 125.999C87.5364 126.108 87.617 126.201 87.7184 126.265C87.8198 126.329 87.9378 126.363 88.058 126.362L88.1078 126.356Z" fill="white"/>
</g>
<path d="M74.4133 125.727C74.4771 126.058 74.6339 126.365 74.8655 126.611C75.097 126.857 75.3937 127.032 75.721 127.116C76.0483 127.199 76.3926 127.188 76.7138 127.084C77.035 126.979 77.3198 126.785 77.5351 126.525C77.7503 126.265 77.887 125.948 77.9292 125.613C77.9715 125.278 77.9176 124.938 77.7737 124.632C77.6299 124.326 77.4021 124.068 77.1169 123.887C76.8318 123.706 76.501 123.61 76.1632 123.609C75.6524 123.663 75.183 123.915 74.8558 124.311C74.5286 124.706 74.3698 125.215 74.4133 125.727Z" fill="#263238"/>
<path d="M76.269 126.356C76.3589 126.356 76.4478 126.336 76.5295 126.299C76.6112 126.261 76.6838 126.206 76.7422 126.138C77.9839 124.604 78.6454 122.681 78.6104 120.708C78.6104 116.604 75.9078 113.235 72.5949 113.235C70.1477 113.235 67.9682 115.041 67.0341 117.825C67.0013 117.904 66.9851 117.988 66.9864 118.074C66.9877 118.159 67.0066 118.243 67.0417 118.321C67.0769 118.398 67.1277 118.468 67.1909 118.525C67.2542 118.583 67.3285 118.626 67.4093 118.654C67.4901 118.681 67.5757 118.692 67.6607 118.684C67.7458 118.677 67.8284 118.653 67.9036 118.613C67.9788 118.572 68.0449 118.517 68.0977 118.45C68.1506 118.383 68.1892 118.306 68.211 118.223C68.9707 115.95 70.7019 114.487 72.57 114.487C75.1979 114.487 77.34 117.271 77.34 120.714C77.3664 122.393 76.7997 124.027 75.7396 125.328C75.6603 125.419 75.6088 125.53 75.5913 125.649C75.5739 125.768 75.5912 125.889 75.6413 125.999C75.6913 126.108 75.7719 126.201 75.8733 126.265C75.9748 126.329 76.0927 126.363 76.2129 126.362L76.269 126.356Z" fill="#263238"/>
<g opacity="0.4">
<path d="M76.269 126.356C76.3589 126.356 76.4478 126.336 76.5295 126.299C76.6112 126.261 76.6838 126.206 76.7422 126.138C77.9839 124.604 78.6454 122.681 78.6104 120.708C78.6104 116.604 75.9078 113.235 72.5949 113.235C70.1477 113.235 67.9682 115.041 67.0341 117.825C67.0013 117.904 66.9851 117.988 66.9864 118.074C66.9877 118.159 67.0066 118.243 67.0417 118.321C67.0769 118.398 67.1277 118.468 67.1909 118.525C67.2542 118.583 67.3285 118.626 67.4093 118.654C67.4901 118.681 67.5757 118.692 67.6607 118.684C67.7458 118.677 67.8284 118.653 67.9036 118.613C67.9788 118.572 68.0449 118.517 68.0977 118.45C68.1506 118.383 68.1892 118.306 68.211 118.223C68.9707 115.95 70.7019 114.487 72.57 114.487C75.1979 114.487 77.34 117.271 77.34 120.714C77.3664 122.393 76.7997 124.027 75.7396 125.328C75.6603 125.419 75.6088 125.53 75.5913 125.649C75.5739 125.768 75.5912 125.889 75.6413 125.999C75.6913 126.108 75.7719 126.201 75.8733 126.265C75.9748 126.329 76.0927 126.363 76.2129 126.362L76.269 126.356Z" fill="white"/>
</g>
<path d="M62.5762 125.727C62.5762 126.897 63.3608 127.844 64.3198 127.844C64.8132 127.751 65.2586 127.488 65.579 127.102C65.8995 126.715 66.0749 126.229 66.0749 125.727C66.0749 125.224 65.8995 124.738 65.579 124.352C65.2586 123.965 64.8132 123.702 64.3198 123.609C63.3608 123.609 62.5762 124.543 62.5762 125.727Z" fill="#263238"/>
<path d="M64.4311 126.356C64.521 126.356 64.6099 126.336 64.6916 126.299C64.7733 126.261 64.8459 126.206 64.9043 126.138C66.1437 124.603 66.8048 122.681 66.7725 120.708C66.7725 116.604 64.0699 113.235 60.757 113.235C58.3098 113.235 56.124 115.041 55.1962 117.825C55.1634 117.904 55.1472 117.988 55.1485 118.074C55.1498 118.159 55.1687 118.243 55.2039 118.321C55.239 118.398 55.2898 118.468 55.353 118.525C55.4163 118.583 55.4906 118.626 55.5714 118.654C55.6522 118.681 55.7378 118.692 55.8229 118.684C55.9079 118.677 55.9905 118.653 56.0657 118.613C56.1409 118.572 56.207 118.517 56.2599 118.45C56.3127 118.383 56.3513 118.306 56.3731 118.223C57.1328 115.95 58.864 114.487 60.7321 114.487C63.36 114.487 65.5021 117.271 65.5021 120.714C65.5285 122.393 64.9618 124.027 63.9018 125.328C63.8473 125.39 63.8056 125.463 63.7792 125.541C63.7529 125.619 63.7423 125.701 63.748 125.784C63.7538 125.866 63.7759 125.946 63.813 126.02C63.8501 126.094 63.9014 126.159 63.964 126.213C64.0282 126.267 64.1027 126.307 64.1829 126.332C64.2632 126.357 64.3476 126.365 64.4311 126.356Z" fill="#263238"/>
<g opacity="0.4">
<path d="M64.4311 126.356C64.521 126.356 64.6099 126.336 64.6916 126.299C64.7733 126.261 64.8459 126.206 64.9043 126.138C66.1437 124.603 66.8048 122.681 66.7725 120.708C66.7725 116.604 64.0699 113.235 60.757 113.235C58.3098 113.235 56.124 115.041 55.1962 117.825C55.1634 117.904 55.1472 117.988 55.1485 118.074C55.1498 118.159 55.1687 118.243 55.2039 118.321C55.239 118.398 55.2898 118.468 55.353 118.525C55.4163 118.583 55.4906 118.626 55.5714 118.654C55.6522 118.681 55.7378 118.692 55.8229 118.684C55.9079 118.677 55.9905 118.653 56.0657 118.613C56.1409 118.572 56.207 118.517 56.2599 118.45C56.3127 118.383 56.3513 118.306 56.3731 118.223C57.1328 115.95 58.864 114.487 60.7321 114.487C63.36 114.487 65.5021 117.271 65.5021 120.714C65.5285 122.393 64.9618 124.027 63.9018 125.328C63.8473 125.39 63.8056 125.463 63.7792 125.541C63.7529 125.619 63.7423 125.701 63.748 125.784C63.7538 125.866 63.7759 125.946 63.813 126.02C63.8501 126.094 63.9014 126.159 63.964 126.213C64.0282 126.267 64.1027 126.307 64.1829 126.332C64.2632 126.357 64.3476 126.365 64.4311 126.356Z" fill="white"/>
</g>
<path d="M73.1051 168.041H67.8867V176.94H73.1051V168.041Z" fill="#FFC000"/>
<path d="M81.5562 161.564H76.3379V176.939H81.5562V161.564Z" fill="#FFC000"/>
<path d="M90.0133 163.993H84.7949V176.939H90.0133V163.993Z" fill="#FFC000"/>
<path d="M98.4684 157.517H93.25V176.939H98.4684V157.517Z" fill="#FFC000"/>
<path d="M106.92 151.04H101.701V176.939H106.92V151.04Z" fill="#FFC000"/>
<path opacity="0.5" d="M73.1051 168.041H67.8867V176.94H73.1051V168.041Z" fill="white"/>
<path opacity="0.5" d="M81.5562 161.564H76.3379V176.939H81.5562V161.564Z" fill="white"/>
<path opacity="0.5" d="M90.0133 163.993H84.7949V176.939H90.0133V163.993Z" fill="white"/>
<path opacity="0.5" d="M98.4684 157.517H93.25V176.939H98.4684V157.517Z" fill="white"/>
<path opacity="0.5" d="M106.92 151.04H101.701V176.939H106.92V151.04Z" fill="white"/>
<path d="M113.882 175.706H60.7207V178.172H113.882V175.706Z" fill="#263238"/>
<path d="M62.9622 169.871L61.8164 168.427L78.8664 154.858L87.3042 159.752L110.083 140.336L111.279 141.737L87.5097 162.006L79.0345 157.087L62.9622 169.871Z" fill="#FFC000"/>
<path d="M112.038 139.894L108.576 140.429L111.017 143.032L112.038 139.894Z" fill="#FFC000"/>
<g opacity="0.3">
<path d="M90.8663 186.193H60.7829C60.6177 186.193 60.4593 186.127 60.3425 186.01C60.2258 185.894 60.1602 185.735 60.1602 185.57C60.1602 185.405 60.2258 185.246 60.3425 185.13C60.4593 185.013 60.6177 184.947 60.7829 184.947H90.8663C91.0314 184.947 91.1898 185.013 91.3066 185.13C91.4234 185.246 91.489 185.405 91.489 185.57C91.489 185.735 91.4234 185.894 91.3066 186.01C91.1898 186.127 91.0314 186.193 90.8663 186.193Z" fill="black"/>
</g>
<g opacity="0.3">
<path d="M114.106 191.742H65.0797C64.9146 191.742 64.7562 191.676 64.6394 191.559C64.5226 191.442 64.457 191.284 64.457 191.119C64.457 190.954 64.5226 190.795 64.6394 190.678C64.7562 190.562 64.9146 190.496 65.0797 190.496H114.106C114.271 190.496 114.43 190.562 114.546 190.678C114.663 190.795 114.729 190.954 114.729 191.119C114.729 191.284 114.663 191.442 114.546 191.559C114.43 191.676 114.271 191.742 114.106 191.742Z" fill="black"/>
<path d="M114.156 194.862H60.7829C60.6177 194.862 60.4593 194.796 60.3425 194.679C60.2258 194.562 60.1602 194.404 60.1602 194.239C60.1602 194.074 60.2258 193.915 60.3425 193.799C60.4593 193.682 60.6177 193.616 60.7829 193.616H114.156C114.321 193.616 114.479 193.682 114.596 193.799C114.713 193.915 114.779 194.074 114.779 194.239C114.779 194.404 114.713 194.562 114.596 194.679C114.479 194.796 114.321 194.862 114.156 194.862Z" fill="black"/>
<path d="M114.243 197.981H60.8512C60.6861 197.981 60.5277 197.915 60.4109 197.798C60.2941 197.682 60.2285 197.523 60.2285 197.358C60.2285 197.193 60.2941 197.035 60.4109 196.918C60.5277 196.801 60.6861 196.735 60.8512 196.735H114.243C114.408 196.735 114.566 196.801 114.683 196.918C114.8 197.035 114.866 197.193 114.866 197.358C114.866 197.523 114.8 197.682 114.683 197.798C114.566 197.915 114.408 197.981 114.243 197.981Z" fill="black"/>
<path d="M105.587 201.101H60.9196C60.7544 201.101 60.596 201.035 60.4793 200.919C60.3625 200.802 60.2969 200.643 60.2969 200.478C60.2969 200.313 60.3625 200.155 60.4793 200.038C60.596 199.921 60.7544 199.855 60.9196 199.855H105.587C105.752 199.855 105.911 199.921 106.027 200.038C106.144 200.155 106.21 200.313 106.21 200.478C106.21 200.643 106.144 200.802 106.027 200.919C105.911 201.035 105.752 201.101 105.587 201.101Z" fill="black"/>
</g>
<g opacity="0.3">
<path d="M114.106 206.699H65.0797C64.9146 206.699 64.7562 206.633 64.6394 206.516C64.5226 206.399 64.457 206.241 64.457 206.076C64.457 205.911 64.5226 205.752 64.6394 205.636C64.7562 205.519 64.9146 205.453 65.0797 205.453H114.106C114.271 205.453 114.43 205.519 114.546 205.636C114.663 205.752 114.729 205.911 114.729 206.076C114.729 206.241 114.663 206.399 114.546 206.516C114.43 206.633 114.271 206.699 114.106 206.699Z" fill="black"/>
<path d="M114.156 209.819H60.7829C60.6177 209.819 60.4593 209.753 60.3425 209.636C60.2258 209.519 60.1602 209.361 60.1602 209.196C60.1602 209.031 60.2258 208.872 60.3425 208.756C60.4593 208.639 60.6177 208.573 60.7829 208.573H114.156C114.321 208.573 114.479 208.639 114.596 208.756C114.713 208.872 114.779 209.031 114.779 209.196C114.779 209.361 114.713 209.519 114.596 209.636C114.479 209.753 114.321 209.819 114.156 209.819Z" fill="black"/>
<path d="M114.243 212.969H60.8512C60.6861 212.969 60.5277 212.903 60.4109 212.787C60.2941 212.67 60.2285 212.512 60.2285 212.346C60.2285 212.181 60.2941 212.023 60.4109 211.906C60.5277 211.789 60.6861 211.724 60.8512 211.724H114.243C114.408 211.724 114.566 211.789 114.683 211.906C114.8 212.023 114.866 212.181 114.866 212.346C114.866 212.512 114.8 212.67 114.683 212.787C114.566 212.903 114.408 212.969 114.243 212.969Z" fill="black"/>
<path d="M105.587 216.083H60.9196C60.7544 216.083 60.596 216.018 60.4793 215.901C60.3625 215.784 60.2969 215.626 60.2969 215.461C60.2969 215.295 60.3625 215.137 60.4793 215.02C60.596 214.904 60.7544 214.838 60.9196 214.838H105.587C105.752 214.838 105.911 214.904 106.027 215.02C106.144 215.137 106.21 215.295 106.21 215.461C106.21 215.626 106.144 215.784 106.027 215.901C105.911 216.018 105.752 216.083 105.587 216.083Z" fill="black"/>
</g>
<g opacity="0.3">
<path d="M90.8663 134.457H60.7829C60.6177 134.457 60.4593 134.392 60.3425 134.275C60.2258 134.158 60.1602 134 60.1602 133.835C60.1602 133.669 60.2258 133.511 60.3425 133.394C60.4593 133.278 60.6177 133.212 60.7829 133.212H90.8663C91.0314 133.212 91.1898 133.278 91.3066 133.394C91.4234 133.511 91.489 133.669 91.489 133.835C91.489 134 91.4234 134.158 91.3066 134.275C91.1898 134.392 91.0314 134.457 90.8663 134.457Z" fill="black"/>
</g>
<path d="M256.407 72.3848H184.901C183.711 72.3848 182.746 73.3494 182.746 74.5394V192.669C182.746 193.858 183.711 194.823 184.901 194.823H256.407C257.597 194.823 258.562 193.858 258.562 192.669V74.5394C258.562 73.3494 257.597 72.3848 256.407 72.3848Z" fill="#FFC000"/>
<path d="M200.612 71.7999H240.702C240.808 71.7999 240.909 71.8418 240.984 71.9166C241.059 71.9913 241.101 72.0927 241.101 72.1984V76.2087H200.207V72.1984C200.207 72.1455 200.218 72.0932 200.238 72.0444C200.258 71.9957 200.288 71.9515 200.326 71.9144C200.364 71.8773 200.408 71.848 200.457 71.8284C200.506 71.8087 200.559 71.799 200.612 71.7999Z" fill="#263238"/>
<path opacity="0.9" d="M255.567 76.209H185.748V190.982H255.567V76.209Z" fill="white"/>
<path d="M234.338 81.4896H222.064L221.921 81.0599C221.834 80.7939 221.665 80.5621 221.439 80.3977C221.212 80.2334 220.94 80.1449 220.66 80.1449C220.38 80.1449 220.107 80.2334 219.881 80.3977C219.654 80.5621 219.486 80.7939 219.399 81.0599L219.256 81.4896H206.97C206.493 81.4896 206.037 81.3008 205.699 80.9647C205.362 80.6285 205.172 80.1724 205.17 79.6962V75.1753C205.173 74.6996 205.364 74.2443 205.701 73.9085C206.038 73.5727 206.494 73.3835 206.97 73.3818H234.369C234.844 73.3835 235.299 73.573 235.635 73.9089C235.971 74.2449 236.161 74.7001 236.162 75.1753V79.7086C236.161 79.9457 236.112 80.1802 236.019 80.3984C235.927 80.6166 235.791 80.8142 235.622 80.9798C235.452 81.1454 235.251 81.2758 235.031 81.3633C234.811 81.4508 234.575 81.4937 234.338 81.4896ZM222.917 80.2442H234.338C234.41 80.245 234.482 80.2314 234.549 80.2042C234.615 80.1769 234.676 80.1366 234.727 80.0855C234.778 80.0345 234.819 79.9737 234.846 79.9069C234.873 79.84 234.887 79.7684 234.886 79.6962V75.1753C234.886 75.0299 234.828 74.8905 234.725 74.7878C234.623 74.685 234.483 74.6273 234.338 74.6273H206.938C206.866 74.6264 206.794 74.64 206.727 74.6672C206.66 74.6944 206.598 74.7346 206.547 74.7855C206.495 74.8365 206.454 74.8972 206.427 74.9641C206.399 75.031 206.384 75.1028 206.384 75.1753V79.7086C206.384 79.7811 206.399 79.8529 206.427 79.9198C206.454 79.9867 206.495 80.0474 206.547 80.0983C206.598 80.1493 206.66 80.1895 206.727 80.2167C206.794 80.2439 206.866 80.2574 206.938 80.2566H218.396C218.617 79.8482 218.943 79.5069 219.342 79.2691C219.74 79.0312 220.196 78.9057 220.66 78.9057C221.124 78.9057 221.579 79.0312 221.978 79.2691C222.377 79.5069 222.703 79.8482 222.924 80.2566L222.917 80.2442Z" fill="#263238"/>
<g opacity="0.5">
<path d="M234.338 81.4896H222.064L221.921 81.0599C221.834 80.7939 221.665 80.5621 221.439 80.3977C221.212 80.2334 220.94 80.1449 220.66 80.1449C220.38 80.1449 220.107 80.2334 219.881 80.3977C219.654 80.5621 219.486 80.7939 219.399 81.0599L219.256 81.4896H206.97C206.493 81.4896 206.037 81.3008 205.699 80.9647C205.362 80.6285 205.172 80.1724 205.17 79.6962V75.1753C205.173 74.6996 205.364 74.2443 205.701 73.9085C206.038 73.5727 206.494 73.3835 206.97 73.3818H234.369C234.844 73.3835 235.299 73.573 235.635 73.9089C235.971 74.2449 236.161 74.7001 236.162 75.1753V79.7086C236.161 79.9457 236.112 80.1802 236.019 80.3984C235.927 80.6166 235.791 80.8142 235.622 80.9798C235.452 81.1454 235.251 81.2758 235.031 81.3633C234.811 81.4508 234.575 81.4937 234.338 81.4896ZM222.917 80.2442H234.338C234.41 80.245 234.482 80.2314 234.549 80.2042C234.615 80.1769 234.676 80.1366 234.727 80.0855C234.778 80.0345 234.819 79.9737 234.846 79.9069C234.873 79.84 234.887 79.7684 234.886 79.6962V75.1753C234.886 75.0299 234.828 74.8905 234.725 74.7878C234.623 74.685 234.483 74.6273 234.338 74.6273H206.938C206.866 74.6264 206.794 74.64 206.727 74.6672C206.66 74.6944 206.598 74.7346 206.547 74.7855C206.495 74.8365 206.454 74.8972 206.427 74.9641C206.399 75.031 206.384 75.1028 206.384 75.1753V79.7086C206.384 79.7811 206.399 79.8529 206.427 79.9198C206.454 79.9867 206.495 80.0474 206.547 80.0983C206.598 80.1493 206.66 80.1895 206.727 80.2167C206.794 80.2439 206.866 80.2574 206.938 80.2566H218.396C218.617 79.8482 218.943 79.5069 219.342 79.2691C219.74 79.0312 220.196 78.9057 220.66 78.9057C221.124 78.9057 221.579 79.0312 221.978 79.2691C222.377 79.5069 222.703 79.8482 222.924 80.2566L222.917 80.2442Z" fill="white"/>
</g>
<path d="M232.42 72.6592H208.894C208.553 72.6592 208.277 72.9352 208.277 73.2757V74.7515C208.277 75.092 208.553 75.368 208.894 75.368H232.42C232.761 75.368 233.037 75.092 233.037 74.7515V73.2757C233.037 72.9352 232.761 72.6592 232.42 72.6592Z" fill="#263238"/>
<path opacity="0.2" d="M232.42 72.6592H208.894C208.553 72.6592 208.277 72.9352 208.277 73.2757V74.7515C208.277 75.092 208.553 75.368 208.894 75.368H232.42C232.761 75.368 233.037 75.092 233.037 74.7515V73.2757C233.037 72.9352 232.761 72.6592 232.42 72.6592Z" fill="white"/>
<path d="M250.106 172.36C251.787 165.237 247.375 158.1 240.253 156.419C233.13 154.738 225.993 159.149 224.312 166.272C222.63 173.395 227.042 180.532 234.165 182.213C241.287 183.894 248.424 179.483 250.106 172.36Z" fill="#FFC000"/>
<path opacity="0.3" d="M237.214 169.33H250.466C250.466 171.95 249.688 174.512 248.232 176.692C246.776 178.871 244.707 180.569 242.285 181.572C239.864 182.575 237.2 182.838 234.629 182.326C232.059 181.815 229.697 180.553 227.844 178.7C225.991 176.846 224.729 174.485 224.218 171.915C223.706 169.344 223.969 166.68 224.972 164.258C225.975 161.837 227.673 159.767 229.852 158.311C232.031 156.855 234.593 156.078 237.214 156.078H237.264L237.214 169.33Z" fill="white"/>
<path opacity="0.3" d="M237.214 169.33L244.363 180.482C242.63 181.594 240.661 182.287 238.614 182.506C236.566 182.725 234.496 182.463 232.567 181.742C230.638 181.021 228.904 179.861 227.502 178.353C226.1 176.845 225.068 175.031 224.489 173.055C223.911 171.079 223.8 168.995 224.167 166.969C224.534 164.942 225.368 163.03 226.603 161.382C227.838 159.734 229.44 158.397 231.282 157.476C233.124 156.556 235.155 156.077 237.214 156.078H237.258L237.214 169.33Z" fill="white"/>
<path opacity="0.3" d="M237.214 169.33L226.043 176.453C224.766 174.45 224.051 172.141 223.972 169.767C223.894 167.393 224.455 165.042 225.597 162.959C226.739 160.876 228.42 159.138 230.463 157.928C232.507 156.717 234.839 156.079 237.214 156.078H237.258L237.214 169.33Z" fill="white"/>
<g opacity="0.5">
<path d="M190.779 96.7646V128.037H250.56V96.7646H190.779ZM250.068 101.647H239.725V97.2317H250.068V101.647ZM217.033 101.647H206.385V97.2317H217.033V101.647ZM217.5 97.2317H228.142V101.647H217.525L217.5 97.2317ZM217.033 102.114V127.57H206.385V102.126L217.033 102.114ZM217.5 102.114H228.142V127.57H217.525L217.5 102.114ZM228.609 102.114H239.258V127.57H228.609V102.114ZM228.609 101.647V97.2317H239.258V101.647H228.609ZM205.918 97.2317V101.647H191.246V97.2317H205.918ZM191.246 102.126H205.918V127.583H191.246V102.126ZM239.725 127.583V102.126H250.068V127.583H239.725Z" fill="black"/>
<path d="M209.779 106.486H214.088C214.253 106.486 214.412 106.42 214.528 106.303C214.645 106.186 214.711 106.028 214.711 105.863C214.711 105.698 214.645 105.539 214.528 105.423C214.412 105.306 214.253 105.24 214.088 105.24H209.779C209.614 105.24 209.455 105.306 209.339 105.423C209.222 105.539 209.156 105.698 209.156 105.863C209.156 106.028 209.222 106.186 209.339 106.303C209.455 106.42 209.614 106.486 209.779 106.486Z" fill="black"/>
<path d="M220.638 112.133H225.315C225.48 112.133 225.638 112.068 225.755 111.951C225.872 111.834 225.938 111.676 225.938 111.51C225.938 111.345 225.872 111.187 225.755 111.07C225.638 110.953 225.48 110.888 225.315 110.888H220.638C220.473 110.888 220.315 110.953 220.198 111.07C220.081 111.187 220.016 111.345 220.016 111.51C220.016 111.676 220.081 111.834 220.198 111.951C220.315 112.068 220.473 112.133 220.638 112.133Z" fill="black"/>
<path d="M225.539 122.19H220.638C220.473 122.19 220.315 122.256 220.198 122.373C220.081 122.49 220.016 122.648 220.016 122.813C220.016 122.978 220.081 123.137 220.198 123.253C220.315 123.37 220.473 123.436 220.638 123.436H225.52C225.686 123.436 225.844 123.37 225.961 123.253C226.078 123.137 226.143 122.978 226.143 122.813C226.143 122.648 226.078 122.49 225.961 122.373C225.844 122.256 225.686 122.19 225.52 122.19H225.539Z" fill="black"/>
<path d="M236.374 116.536H231.224C231.059 116.536 230.901 116.602 230.784 116.719C230.667 116.835 230.602 116.994 230.602 117.159C230.602 117.324 230.667 117.482 230.784 117.599C230.901 117.716 231.059 117.782 231.224 117.782H236.387C236.552 117.782 236.71 117.716 236.827 117.599C236.944 117.482 237.009 117.324 237.009 117.159C237.009 116.994 236.944 116.835 236.827 116.719C236.71 116.602 236.552 116.536 236.387 116.536H236.374Z" fill="black"/>
<path d="M247.516 105.24H242.285C242.12 105.24 241.961 105.306 241.844 105.423C241.728 105.539 241.662 105.698 241.662 105.863C241.662 106.028 241.728 106.186 241.844 106.303C241.961 106.42 242.12 106.486 242.285 106.486H247.516C247.681 106.486 247.839 106.42 247.956 106.303C248.073 106.186 248.138 106.028 248.138 105.863C248.138 105.698 248.073 105.539 247.956 105.423C247.839 105.306 247.681 105.24 247.516 105.24Z" fill="black"/>
<path d="M246.843 122.19H242.285C242.12 122.19 241.961 122.256 241.844 122.373C241.728 122.49 241.662 122.648 241.662 122.813C241.662 122.978 241.728 123.137 241.844 123.253C241.961 123.37 242.12 123.436 242.285 123.436H246.843C247.008 123.436 247.167 123.37 247.283 123.253C247.4 123.137 247.466 122.978 247.466 122.813C247.466 122.648 247.4 122.49 247.283 122.373C247.167 122.256 247.008 122.19 246.843 122.19Z" fill="black"/>
<path d="M209.779 117.782H213.472C213.637 117.782 213.795 117.716 213.912 117.599C214.029 117.482 214.094 117.324 214.094 117.159C214.094 116.994 214.029 116.835 213.912 116.719C213.795 116.602 213.637 116.536 213.472 116.536H209.779C209.614 116.536 209.455 116.602 209.339 116.719C209.222 116.835 209.156 116.994 209.156 117.159C209.156 117.324 209.222 117.482 209.339 117.599C209.455 117.716 209.614 117.782 209.779 117.782Z" fill="black"/>
<path d="M214.088 122.19H209.779C209.614 122.19 209.455 122.256 209.339 122.373C209.222 122.49 209.156 122.648 209.156 122.813C209.156 122.978 209.222 123.137 209.339 123.253C209.455 123.37 209.614 123.436 209.779 123.436H214.088C214.253 123.436 214.412 123.37 214.528 123.253C214.645 123.137 214.711 122.978 214.711 122.813C214.711 122.648 214.645 122.49 214.528 122.373C214.412 122.256 214.253 122.19 214.088 122.19Z" fill="black"/>
<path d="M193.494 106.486H203.345C203.51 106.486 203.669 106.42 203.785 106.303C203.902 106.186 203.968 106.028 203.968 105.863C203.968 105.698 203.902 105.539 203.785 105.423C203.669 105.306 203.51 105.24 203.345 105.24H193.494C193.329 105.24 193.17 105.306 193.053 105.423C192.937 105.539 192.871 105.698 192.871 105.863C192.871 106.028 192.937 106.186 193.053 106.303C193.17 106.42 193.329 106.486 193.494 106.486Z" fill="black"/>
<path d="M193.494 112.133H200.051C200.216 112.133 200.375 112.068 200.491 111.951C200.608 111.834 200.674 111.676 200.674 111.51C200.674 111.345 200.608 111.187 200.491 111.07C200.375 110.953 200.216 110.888 200.051 110.888H193.494C193.329 110.888 193.17 110.953 193.053 111.07C192.937 111.187 192.871 111.345 192.871 111.51C192.871 111.676 192.937 111.834 193.053 111.951C193.17 112.068 193.329 112.133 193.494 112.133Z" fill="black"/>
<path d="M203.345 116.536H193.494C193.329 116.536 193.17 116.602 193.053 116.719C192.937 116.835 192.871 116.994 192.871 117.159C192.871 117.324 192.937 117.482 193.053 117.599C193.17 117.716 193.329 117.782 193.494 117.782H203.345C203.51 117.782 203.669 117.716 203.785 117.599C203.902 117.482 203.968 117.324 203.968 117.159C203.968 116.994 203.902 116.835 203.785 116.719C203.669 116.602 203.51 116.536 203.345 116.536Z" fill="black"/>
<path d="M198.419 122.19H193.494C193.329 122.19 193.17 122.256 193.053 122.373C192.937 122.49 192.871 122.648 192.871 122.813C192.871 122.978 192.937 123.137 193.053 123.253C193.17 123.37 193.329 123.436 193.494 123.436H198.419C198.585 123.436 198.743 123.37 198.86 123.253C198.977 123.137 199.042 122.978 199.042 122.813C199.042 122.648 198.977 122.49 198.86 122.373C198.743 122.256 198.585 122.19 198.419 122.19Z" fill="black"/>
</g>
<g opacity="0.5">
<path d="M214.716 90.2073H191.402C191.237 90.2073 191.078 90.1417 190.962 90.025C190.845 89.9082 190.779 89.7498 190.779 89.5846C190.779 89.4195 190.845 89.2611 190.962 89.1443C191.078 89.0275 191.237 88.9619 191.402 88.9619H214.716C214.882 88.9619 215.04 89.0275 215.157 89.1443C215.274 89.2611 215.339 89.4195 215.339 89.5846C215.339 89.7498 215.274 89.9082 215.157 90.025C215.04 90.1417 214.882 90.2073 214.716 90.2073Z" fill="black"/>
</g>
<g opacity="0.5">
<path d="M206.54 93.7005H191.402C191.237 93.7005 191.078 93.6349 190.962 93.5181C190.845 93.4013 190.779 93.2429 190.779 93.0778C190.779 92.9126 190.845 92.7542 190.962 92.6375C191.078 92.5207 191.237 92.4551 191.402 92.4551H206.54C206.705 92.4551 206.864 92.5207 206.981 92.6375C207.097 92.7542 207.163 92.9126 207.163 93.0778C207.163 93.2429 207.097 93.4013 206.981 93.5181C206.864 93.6349 206.705 93.7005 206.54 93.7005Z" fill="black"/>
</g>
<g opacity="0.5">
<path d="M221.485 133.436H191.402C191.237 133.436 191.078 133.37 190.962 133.253C190.845 133.137 190.779 132.978 190.779 132.813C190.779 132.648 190.845 132.49 190.962 132.373C191.078 132.256 191.237 132.19 191.402 132.19H221.485C221.651 132.19 221.809 132.256 221.926 132.373C222.043 132.49 222.108 132.648 222.108 132.813C222.108 132.978 222.043 133.137 221.926 133.253C221.809 133.37 221.651 133.436 221.485 133.436Z" fill="black"/>
</g>
<path d="M194.497 158.121H190.779V161.839H194.497V158.121Z" fill="#FFC000"/>
<g opacity="0.5">
<path d="M215.656 160.606H197.199C197.034 160.606 196.875 160.54 196.759 160.423C196.642 160.307 196.576 160.148 196.576 159.983C196.576 159.818 196.642 159.66 196.759 159.543C196.875 159.426 197.034 159.36 197.199 159.36H215.656C215.821 159.36 215.98 159.426 216.097 159.543C216.213 159.66 216.279 159.818 216.279 159.983C216.279 160.148 216.213 160.307 216.097 160.423C215.98 160.54 215.821 160.606 215.656 160.606Z" fill="black"/>
</g>
<path d="M194.497 164.354H190.779V168.072H194.497V164.354Z" fill="#FFC000"/>
<g opacity="0.5">
<path d="M215.656 166.832H197.199C197.034 166.832 196.875 166.767 196.759 166.65C196.642 166.533 196.576 166.375 196.576 166.21C196.576 166.044 196.642 165.886 196.759 165.769C196.875 165.653 197.034 165.587 197.199 165.587H215.656C215.821 165.587 215.98 165.653 216.097 165.769C216.213 165.886 216.279 166.044 216.279 166.21C216.279 166.375 216.213 166.533 216.097 166.65C215.98 166.767 215.821 166.832 215.656 166.832Z" fill="black"/>
</g>
<path d="M194.497 170.581H190.779V174.299H194.497V170.581Z" fill="#FFC000"/>
<g opacity="0.5">
<path d="M215.656 173.066H197.199C197.034 173.066 196.875 173 196.759 172.883C196.642 172.767 196.576 172.608 196.576 172.443C196.576 172.278 196.642 172.119 196.759 172.003C196.875 171.886 197.034 171.82 197.199 171.82H215.656C215.821 171.82 215.98 171.886 216.097 172.003C216.213 172.119 216.279 172.278 216.279 172.443C216.279 172.608 216.213 172.767 216.097 172.883C215.98 173 215.821 173.066 215.656 173.066Z" fill="black"/>
</g>
<path d="M194.497 176.814H190.779V180.532H194.497V176.814Z" fill="#FFC000"/>
<g opacity="0.5">
<path d="M215.656 179.299H197.199C197.034 179.299 196.875 179.234 196.759 179.117C196.642 179 196.576 178.842 196.576 178.676C196.576 178.511 196.642 178.353 196.759 178.236C196.875 178.119 197.034 178.054 197.199 178.054H215.656C215.821 178.054 215.98 178.119 216.097 178.236C216.213 178.353 216.279 178.511 216.279 178.676C216.279 178.842 216.213 179 216.097 179.117C215.98 179.234 215.821 179.299 215.656 179.299Z" fill="black"/>
</g>
<g opacity="0.5">
<path d="M249.707 139.003H195.693C195.528 139.003 195.369 138.938 195.253 138.821C195.136 138.704 195.07 138.546 195.07 138.381C195.07 138.215 195.136 138.057 195.253 137.94C195.369 137.823 195.528 137.758 195.693 137.758H249.707C249.873 137.758 250.031 137.823 250.148 137.94C250.264 138.057 250.33 138.215 250.33 138.381C250.33 138.546 250.264 138.704 250.148 138.821C250.031 138.938 249.873 139.003 249.707 139.003Z" fill="black"/>
<path d="M249.775 142.123H191.402C191.237 142.123 191.078 142.058 190.962 141.941C190.845 141.824 190.779 141.666 190.779 141.501C190.779 141.335 190.845 141.177 190.962 141.06C191.078 140.944 191.237 140.878 191.402 140.878H249.775C249.941 140.878 250.099 140.944 250.216 141.06C250.332 141.177 250.398 141.335 250.398 141.501C250.398 141.666 250.332 141.824 250.216 141.941C250.099 142.058 249.941 142.123 249.775 142.123Z" fill="black"/>
<path d="M249.844 145.243H191.47C191.305 145.243 191.147 145.177 191.03 145.06C190.913 144.943 190.848 144.785 190.848 144.62C190.848 144.455 190.913 144.296 191.03 144.179C191.147 144.063 191.305 143.997 191.47 143.997H249.844C250.009 143.997 250.167 144.063 250.284 144.179C250.401 144.296 250.466 144.455 250.466 144.62C250.466 144.785 250.401 144.943 250.284 145.06C250.167 145.177 250.009 145.243 249.844 145.243Z" fill="black"/>
<path d="M241.188 148.363H191.539C191.374 148.363 191.215 148.297 191.098 148.18C190.982 148.063 190.916 147.905 190.916 147.74C190.916 147.575 190.982 147.416 191.098 147.3C191.215 147.183 191.374 147.117 191.539 147.117H241.188C241.353 147.117 241.511 147.183 241.628 147.3C241.745 147.416 241.811 147.575 241.811 147.74C241.811 147.905 241.745 148.063 241.628 148.18C241.511 148.297 241.353 148.363 241.188 148.363Z" fill="black"/>
</g>
<path opacity="0.3" d="M194.497 164.354H190.779V168.072H194.497V164.354Z" fill="white"/>
<path opacity="0.5" d="M194.497 170.581H190.779V174.299H194.497V170.581Z" fill="white"/>
<path opacity="0.7" d="M194.497 176.814H190.779V180.532H194.497V176.814Z" fill="white"/>
<path d="M254.521 210.634C254.521 210.634 251.564 204.183 254.945 197.819C258.326 191.454 259.304 189.96 257.149 188.658C254.995 187.357 254.005 193.746 254.005 193.746C252.939 190.855 252.83 187.699 253.693 184.742C255.188 180.14 256.128 172.642 254.086 171.839C252.043 171.036 253.693 181.18 251.912 184.654C251.009 182.222 250.425 179.683 250.175 177.101C249.932 173.408 250.312 167.505 248.699 165.992C247.086 164.478 246.046 165.525 247.634 173.682C248.589 178.557 249.116 183.505 249.21 188.472C249.21 188.472 245.704 177.767 243.344 177.456C240.984 177.144 240.99 180.613 243.007 183.621C245.025 186.628 248.917 192.009 249.552 194.78C249.552 194.78 245.698 186.728 242.235 189.175C238.773 191.623 245.249 196.511 248.139 198.267C251.028 200.023 253.021 211.064 253.021 211.064L254.521 210.634Z" fill="#FFC000"/>
<path opacity="0.2" d="M254.521 210.634C254.521 210.634 251.564 204.183 254.945 197.819C258.326 191.454 259.304 189.96 257.149 188.658C254.995 187.357 254.005 193.746 254.005 193.746C252.939 190.855 252.83 187.699 253.693 184.742C255.188 180.14 256.128 172.642 254.086 171.839C252.043 171.036 253.693 181.18 251.912 184.654C251.009 182.222 250.425 179.683 250.175 177.101C249.932 173.408 250.312 167.505 248.699 165.992C247.086 164.478 246.046 165.525 247.634 173.682C248.589 178.557 249.116 183.505 249.21 188.472C249.21 188.472 245.704 177.767 243.344 177.456C240.984 177.144 240.99 180.613 243.007 183.621C245.025 186.628 248.917 192.009 249.552 194.78C249.552 194.78 245.698 186.728 242.235 189.175C238.773 191.623 245.249 196.511 248.139 198.267C251.028 200.023 253.021 211.064 253.021 211.064L254.521 210.634Z" fill="black"/>
<path d="M252.186 213.281C252.186 213.281 255.069 206.786 251.613 200.478C248.157 194.17 247.16 192.681 249.296 191.343C251.432 190.004 252.503 196.387 252.503 196.387C253.535 193.485 253.607 190.328 252.709 187.382C251.158 182.799 250.125 175.32 252.161 174.486C254.197 173.651 252.665 183.826 254.484 187.264C255.359 184.822 255.914 182.276 256.134 179.692C256.333 175.986 255.879 170.089 257.479 168.551C259.079 167.013 260.125 168.047 258.631 176.229C257.736 181.118 257.269 186.074 257.236 191.044C257.236 191.044 260.617 180.289 262.984 179.966C265.35 179.642 265.375 183.079 263.395 186.118C261.414 189.157 257.591 194.599 256.987 197.377C256.987 197.377 260.723 189.281 264.235 191.685C267.747 194.089 261.309 199.064 258.444 200.864C255.58 202.664 253.699 213.711 253.699 213.711L252.186 213.281Z" fill="#FFC000"/>
<path d="M265.476 208.654H241.682L243.606 225.679H263.545L265.476 208.654Z" fill="#263238"/>
<path d="M121.788 62.6279H139.685C141.145 62.6279 142.545 63.2079 143.578 64.2403C144.61 65.2726 145.19 66.6728 145.19 68.1327V83.7006C145.19 85.1606 144.61 86.5608 143.578 87.5931C142.545 88.6255 141.145 89.2054 139.685 89.2054H134.454L136.323 95.993L130.718 89.2054H121.788C121.065 89.2062 120.348 89.0645 119.68 88.7882C119.011 88.5119 118.404 88.1066 117.892 87.5953C117.38 87.0841 116.974 86.4769 116.697 85.8087C116.42 85.1404 116.277 84.424 116.277 83.7006V68.1327C116.277 67.4093 116.42 66.693 116.697 66.0247C116.974 65.3564 117.38 64.7493 117.892 64.238C118.404 63.7268 119.011 63.3214 119.68 63.0452C120.348 62.7689 121.065 62.6271 121.788 62.6279Z" fill="#FFC000"/>
<path opacity="0.7" d="M121.788 62.6279H139.685C141.145 62.6279 142.545 63.2079 143.578 64.2403C144.61 65.2726 145.19 66.6728 145.19 68.1327V83.7006C145.19 85.1606 144.61 86.5608 143.578 87.5931C142.545 88.6255 141.145 89.2054 139.685 89.2054H134.454L136.323 95.993L130.718 89.2054H121.788C121.065 89.2062 120.348 89.0645 119.68 88.7882C119.011 88.5119 118.404 88.1066 117.892 87.5953C117.38 87.0841 116.974 86.4769 116.697 85.8087C116.42 85.1404 116.277 84.424 116.277 83.7006V68.1327C116.277 67.4093 116.42 66.693 116.697 66.0247C116.974 65.3564 117.38 64.7493 117.892 64.238C118.404 63.7268 119.011 63.3214 119.68 63.0452C120.348 62.7689 121.065 62.6271 121.788 62.6279Z" fill="white"/>
<path opacity="0.7" d="M128.028 79.3107C131.106 79.3107 133.602 76.8154 133.602 73.7374C133.602 70.6593 131.106 68.1641 128.028 68.1641C124.95 68.1641 122.455 70.6593 122.455 73.7374C122.455 76.8154 124.95 79.3107 128.028 79.3107Z" fill="white"/>
<path d="M128.028 80.1136C126.553 80.1123 125.124 79.5998 123.984 78.6633C122.845 77.7267 122.065 76.4241 121.778 74.9773C121.491 73.5304 121.715 72.0289 122.411 70.7284C123.107 69.4279 124.232 68.4088 125.595 67.8449C126.958 67.2809 128.474 67.2069 129.885 67.6354C131.297 68.0639 132.516 68.9684 133.335 70.195C134.155 71.4215 134.523 72.8941 134.379 74.362C134.234 75.8299 133.585 77.2023 132.542 78.2454C131.95 78.8389 131.246 79.3094 130.471 79.63C129.697 79.9506 128.866 80.1149 128.028 80.1136ZM128.028 68.9732C126.925 68.9734 125.858 69.3557 125.006 70.055C124.154 70.7543 123.571 71.7273 123.356 72.8083C123.141 73.8893 123.308 75.0113 123.827 75.9832C124.347 76.9551 125.188 77.7168 126.206 78.1384C127.224 78.56 128.357 78.6155 129.412 78.2954C130.466 77.9753 131.377 77.2995 131.99 76.3831C132.602 75.4666 132.877 74.3662 132.769 73.2694C132.661 72.1726 132.176 71.1473 131.396 70.3681C130.955 69.9241 130.43 69.5721 129.852 69.3327C129.274 69.0932 128.654 68.971 128.028 68.9732Z" fill="#FFC000"/>
<path d="M132.545 77.1061L131.4 78.251L137.754 84.6049L138.899 83.46L132.545 77.1061Z" fill="#FFC000"/>
<path d="M139.007 85.9357C138.685 85.9328 138.377 85.8056 138.148 85.5808L133.297 80.7298C133.175 80.6193 133.078 80.4854 133.01 80.3362C132.942 80.187 132.905 80.0255 132.901 79.8616C132.897 79.6976 132.926 79.5346 132.987 79.3823C133.048 79.23 133.139 79.0916 133.254 78.9754C133.37 78.8592 133.508 78.7677 133.66 78.7063C133.813 78.645 133.975 78.6151 134.139 78.6184C134.303 78.6218 134.465 78.6583 134.614 78.7258C134.764 78.7933 134.898 78.8903 135.009 79.0111L139.866 83.8683C140.034 84.0384 140.148 84.2544 140.194 84.4891C140.24 84.7238 140.215 84.9667 140.123 85.1875C140.032 85.4083 139.877 85.5971 139.678 85.7302C139.479 85.8633 139.246 85.9348 139.007 85.9357Z" fill="#FFC000"/>
<path d="M128.893 71.2152C128.893 71.4615 128.82 71.7023 128.683 71.9071C128.546 72.1119 128.352 72.2715 128.124 72.3658C127.897 72.4601 127.646 72.4847 127.405 72.4367C127.163 72.3886 126.941 72.27 126.767 72.0958C126.593 71.9216 126.474 71.6997 126.426 71.4581C126.378 71.2165 126.403 70.9661 126.497 70.7386C126.591 70.511 126.751 70.3165 126.956 70.1796C127.161 70.0428 127.401 69.9697 127.648 69.9697C127.978 69.9697 128.295 70.1009 128.528 70.3345C128.762 70.5681 128.893 70.8848 128.893 71.2152Z" fill="white"/>
<path d="M130.743 72.1247C130.743 72.2478 130.707 72.3682 130.639 72.4706C130.57 72.573 130.473 72.6528 130.359 72.7C130.245 72.7471 130.12 72.7594 129.999 72.7354C129.878 72.7114 129.768 72.6521 129.68 72.565C129.593 72.4779 129.534 72.3669 129.51 72.2462C129.486 72.1254 129.498 72.0001 129.545 71.8864C129.593 71.7726 129.672 71.6753 129.775 71.6069C129.877 71.5385 129.998 71.502 130.121 71.502C130.286 71.502 130.444 71.5676 130.561 71.6843C130.678 71.8011 130.743 71.9595 130.743 72.1247Z" fill="white"/>
<path d="M180.648 177.139H87.9004V192.065H180.648V177.139Z" fill="#FFC000"/>
<path opacity="0.8" d="M180.648 177.139H87.9004V192.065H180.648V177.139Z" fill="white"/>
<path opacity="0.2" d="M180.649 181.086V179.872L117.15 180.376L180.649 181.086Z" fill="black"/>
<path opacity="0.2" d="M180.649 186.317V185.377L152.141 186.398L180.649 186.317Z" fill="black"/>
<path opacity="0.2" d="M180.648 189.817V188.603L134.686 189.306L180.648 189.817Z" fill="black"/>
<path opacity="0.2" d="M108.637 177.139L107.305 188.267L108.893 186.573C109.426 188.604 110.424 190.484 111.807 192.065C112.799 190.766 113.588 189.323 114.148 187.787L157.464 187.289L114.559 186.349C114.693 185.735 114.761 185.109 114.765 184.48C114.763 183.96 114.713 183.441 114.615 182.93L178.17 182.768L114.466 182.27C114.242 181.431 113.929 180.619 113.532 179.847C114.448 179.039 115.629 178.596 116.851 178.602H180.648V177.139H108.637Z" fill="black"/>
<path d="M110.07 184.518C110.075 186.307 110.789 188.022 112.055 189.286C113.321 190.55 115.037 191.261 116.826 191.262H181.719C181.785 191.262 181.85 191.275 181.91 191.3C181.97 191.325 182.025 191.362 182.072 191.408C182.118 191.454 182.155 191.509 182.18 191.57C182.205 191.63 182.218 191.695 182.218 191.76V192.296C182.218 192.428 182.165 192.555 182.072 192.648C181.978 192.742 181.852 192.794 181.719 192.794H85.8586C84.7652 192.794 83.6826 192.578 82.6732 192.157C81.6639 191.737 80.7478 191.12 79.9779 190.344C79.2079 189.568 78.5993 188.647 78.1871 187.634C77.775 186.621 77.5674 185.537 77.5765 184.443C77.6303 182.233 78.5513 180.133 80.1405 178.596C81.7297 177.06 83.8597 176.21 86.0703 176.23H181.719C181.852 176.23 181.978 176.282 182.072 176.376C182.165 176.469 182.218 176.596 182.218 176.728V177.257C182.218 177.389 182.165 177.516 182.072 177.61C181.978 177.703 181.852 177.756 181.719 177.756H117.025C115.213 177.752 113.47 178.457 112.171 179.721C110.871 180.984 110.117 182.706 110.07 184.518Z" fill="#FFC000"/>
<path opacity="0.4" d="M110.07 184.518C110.075 186.307 110.789 188.022 112.055 189.286C113.321 190.55 115.037 191.261 116.826 191.262H181.719C181.785 191.262 181.85 191.275 181.91 191.3C181.97 191.325 182.025 191.362 182.072 191.408C182.118 191.454 182.155 191.509 182.18 191.57C182.205 191.63 182.218 191.695 182.218 191.76V192.296C182.218 192.428 182.165 192.555 182.072 192.648C181.978 192.742 181.852 192.794 181.719 192.794H85.8586C84.7652 192.794 83.6826 192.578 82.6732 192.157C81.6639 191.737 80.7478 191.12 79.9779 190.344C79.2079 189.568 78.5993 188.647 78.1871 187.634C77.775 186.621 77.5674 185.537 77.5765 184.443C77.6303 182.233 78.5513 180.133 80.1405 178.596C81.7297 177.06 83.8597 176.21 86.0703 176.23H181.719C181.852 176.23 181.978 176.282 182.072 176.376C182.165 176.469 182.218 176.596 182.218 176.728V177.257C182.218 177.389 182.165 177.516 182.072 177.61C181.978 177.703 181.852 177.756 181.719 177.756H117.025C115.213 177.752 113.47 178.457 112.171 179.721C110.871 180.984 110.117 182.706 110.07 184.518Z" fill="white"/>
<path d="M110.07 184.518C110.075 186.307 110.789 188.022 112.055 189.286C113.321 190.55 115.037 191.26 116.826 191.262H181.719C181.785 191.262 181.85 191.275 181.91 191.3C181.97 191.325 182.025 191.362 182.072 191.408C182.118 191.454 182.155 191.509 182.18 191.57C182.205 191.63 182.218 191.695 182.218 191.76V192.296C182.218 192.428 182.165 192.555 182.072 192.648C181.978 192.741 181.852 192.794 181.719 192.794H116.453C115.359 192.793 114.277 192.576 113.267 192.155C112.258 191.735 111.342 191.119 110.572 190.342C109.801 189.566 109.192 188.646 108.779 187.633C108.366 186.621 108.157 185.537 108.164 184.443C108.221 182.236 109.142 180.14 110.727 178.604C112.313 177.068 114.438 176.216 116.646 176.23H181.719C181.852 176.23 181.978 176.282 182.072 176.376C182.165 176.469 182.218 176.596 182.218 176.728V177.257C182.218 177.389 182.165 177.516 182.072 177.609C181.978 177.703 181.852 177.755 181.719 177.755H117.025C115.213 177.751 113.47 178.457 112.171 179.72C110.871 180.984 110.117 182.706 110.07 184.518Z" fill="#FFC000"/>
<path d="M122.287 180.495V186.479L124.454 184.312L126.553 186.411V180.495H122.287Z" fill="#263238"/>
<path opacity="0.6" d="M110.07 184.518C110.075 186.307 110.789 188.022 112.055 189.286C113.321 190.55 115.037 191.26 116.826 191.262H181.719C181.785 191.262 181.85 191.275 181.91 191.3C181.97 191.325 182.025 191.362 182.072 191.408C182.118 191.454 182.155 191.509 182.18 191.57C182.205 191.63 182.218 191.695 182.218 191.76V192.296C182.218 192.428 182.165 192.555 182.072 192.648C181.978 192.741 181.852 192.794 181.719 192.794H116.453C115.359 192.793 114.277 192.576 113.267 192.155C112.258 191.735 111.342 191.119 110.572 190.342C109.801 189.566 109.192 188.646 108.779 187.633C108.366 186.621 108.157 185.537 108.164 184.443C108.221 182.236 109.142 180.14 110.727 178.604C112.313 177.068 114.438 176.216 116.646 176.23H181.719C181.852 176.23 181.978 176.282 182.072 176.376C182.165 176.469 182.218 176.596 182.218 176.728V177.257C182.218 177.389 182.165 177.516 182.072 177.609C181.978 177.703 181.852 177.755 181.719 177.755H117.025C115.213 177.751 113.47 178.457 112.171 179.72C110.871 180.984 110.117 182.706 110.07 184.518Z" fill="white"/>
<path d="M185.126 210.03H92.3789V224.957H185.126V210.03Z" fill="#FFC000"/>
<path opacity="0.7" d="M185.126 210.03H92.3789V224.957H185.126V210.03Z" fill="white"/>
<path opacity="0.2" d="M185.125 213.972V212.758L121.627 213.268L185.125 213.972Z" fill="black"/>
<path opacity="0.2" d="M185.125 219.204V218.27L156.617 219.285L185.125 219.204Z" fill="black"/>
<path opacity="0.2" d="M185.125 222.703V221.495L139.162 222.193L185.125 222.703Z" fill="black"/>
<path opacity="0.2" d="M113.115 210.03L111.77 221.158L113.357 219.464C113.897 221.495 114.896 223.374 116.278 224.957C117.266 223.653 118.053 222.209 118.613 220.672L161.929 220.174L119.024 219.24C119.159 218.626 119.23 218 119.236 217.372C119.232 216.852 119.179 216.333 119.08 215.822L182.653 215.678L118.943 215.18C118.719 214.344 118.406 213.534 118.009 212.764C118.921 211.945 120.102 211.49 121.328 211.487H185.144V210.03H113.115Z" fill="black"/>
<path d="M114.547 217.403C114.543 218.293 114.716 219.173 115.054 219.996C115.392 220.818 115.889 221.565 116.517 222.195C117.145 222.824 117.891 223.324 118.712 223.664C119.534 224.005 120.414 224.179 121.303 224.179H186.196C186.328 224.179 186.455 224.231 186.549 224.324C186.642 224.418 186.694 224.545 186.694 224.677V225.212C186.694 225.344 186.642 225.471 186.549 225.565C186.455 225.658 186.328 225.71 186.196 225.71H85.2354C84.143 225.709 83.0616 225.491 82.0535 225.071C81.0453 224.65 80.1302 224.034 79.3606 223.259C78.5911 222.484 77.9822 221.564 77.5691 220.553C77.156 219.541 76.9467 218.458 76.9533 217.366C77.0055 215.153 77.9265 213.05 79.517 211.511C81.1076 209.971 83.24 209.12 85.4533 209.14H186.196C186.328 209.14 186.455 209.192 186.549 209.286C186.642 209.379 186.694 209.506 186.694 209.638V210.174C186.694 210.306 186.642 210.433 186.549 210.526C186.455 210.619 186.328 210.672 186.196 210.672H121.502C119.695 210.668 117.957 211.369 116.658 212.626C115.359 213.883 114.602 215.597 114.547 217.403Z" fill="#263238"/>
<path opacity="0.2" d="M114.547 217.403C114.543 218.293 114.716 219.173 115.054 219.996C115.392 220.818 115.889 221.565 116.517 222.195C117.145 222.824 117.891 223.324 118.712 223.664C119.534 224.005 120.414 224.179 121.303 224.179H186.196C186.328 224.179 186.455 224.231 186.549 224.324C186.642 224.418 186.694 224.545 186.694 224.677V225.212C186.694 225.344 186.642 225.471 186.549 225.565C186.455 225.658 186.328 225.71 186.196 225.71H85.2354C84.143 225.709 83.0616 225.491 82.0535 225.071C81.0453 224.65 80.1302 224.034 79.3606 223.259C78.5911 222.484 77.9822 221.564 77.5691 220.553C77.156 219.541 76.9467 218.458 76.9533 217.366C77.0055 215.153 77.9265 213.05 79.517 211.511C81.1076 209.971 83.24 209.12 85.4533 209.14H186.196C186.328 209.14 186.455 209.192 186.549 209.286C186.642 209.379 186.694 209.506 186.694 209.638V210.174C186.694 210.306 186.642 210.433 186.549 210.526C186.455 210.619 186.328 210.672 186.196 210.672H121.502C119.695 210.668 117.957 211.369 116.658 212.626C115.359 213.883 114.602 215.597 114.547 217.403Z" fill="white"/>
<path d="M114.546 217.403C114.543 218.293 114.715 219.173 115.053 219.996C115.391 220.818 115.889 221.565 116.516 222.195C117.144 222.824 117.89 223.324 118.712 223.664C119.533 224.005 120.413 224.179 121.302 224.179H186.196C186.328 224.179 186.454 224.231 186.548 224.324C186.641 224.418 186.694 224.545 186.694 224.677V225.212C186.694 225.344 186.641 225.471 186.548 225.565C186.454 225.658 186.328 225.71 186.196 225.71H120.929C119.836 225.71 118.754 225.494 117.745 225.074C116.736 224.654 115.82 224.038 115.05 223.263C114.28 222.487 113.672 221.567 113.259 220.555C112.847 219.543 112.639 218.459 112.647 217.366C112.697 215.154 113.617 213.05 115.207 211.511C116.796 209.972 118.928 209.12 121.141 209.14H186.196C186.328 209.14 186.454 209.192 186.548 209.286C186.641 209.379 186.694 209.506 186.694 209.638V210.174C186.694 210.306 186.641 210.433 186.548 210.526C186.454 210.619 186.328 210.672 186.196 210.672H121.502C119.694 210.668 117.956 211.369 116.657 212.626C115.359 213.883 114.601 215.597 114.546 217.403Z" fill="#263238"/>
<path d="M121.627 215.511V221.495L123.788 219.328L125.886 221.427V215.511H121.627Z" fill="#FFC000"/>
<path opacity="0.4" d="M114.546 217.403C114.543 218.293 114.715 219.173 115.053 219.996C115.391 220.818 115.889 221.565 116.516 222.195C117.144 222.824 117.89 223.324 118.712 223.664C119.533 224.005 120.413 224.179 121.302 224.179H186.196C186.328 224.179 186.454 224.231 186.548 224.324C186.641 224.418 186.694 224.545 186.694 224.677V225.212C186.694 225.344 186.641 225.471 186.548 225.565C186.454 225.658 186.328 225.71 186.196 225.71H120.929C119.836 225.71 118.754 225.494 117.745 225.074C116.736 224.654 115.82 224.038 115.05 223.263C114.28 222.487 113.672 221.567 113.259 220.555C112.847 219.543 112.639 218.459 112.647 217.366C112.697 215.154 113.617 213.05 115.207 211.511C116.796 209.972 118.928 209.12 121.141 209.14H186.196C186.328 209.14 186.454 209.192 186.548 209.286C186.641 209.379 186.694 209.506 186.694 209.638V210.174C186.694 210.306 186.641 210.433 186.548 210.526C186.454 210.619 186.328 210.672 186.196 210.672H121.502C119.694 210.668 117.956 211.369 116.657 212.626C115.359 213.883 114.601 215.597 114.546 217.403Z" fill="white"/>
<path d="M84.0331 208.486H118.395V193.579H84.0331V208.486Z" fill="#FFC000"/>
<path opacity="0.8" d="M84.0331 208.486H118.395V193.579H84.0331V208.486Z" fill="white"/>
<path opacity="0.2" d="M115.642 195.042H84.0332V193.585H115.605L115.642 195.042Z" fill="black"/>
<path opacity="0.2" d="M115.643 196.312L87.1289 196.923L115.643 197.527V196.312Z" fill="black"/>
<path opacity="0.2" d="M115.643 201.823L85.4473 202.334L115.643 202.764V201.823Z" fill="black"/>
<path opacity="0.2" d="M115.643 205.049L85.7148 205.653L115.643 206.257V205.049Z" fill="black"/>
<path opacity="0.2" d="M84.0332 198.436L112.983 199.307L84.0332 199.918V198.436Z" fill="black"/>
<path d="M160.727 200.958C160.724 202.748 160.011 204.464 158.744 205.73C157.478 206.995 155.761 207.707 153.971 207.708H82.4454C82.3133 207.708 82.1866 207.761 82.0932 207.854C81.9998 207.948 81.9473 208.074 81.9473 208.206V208.736C81.9473 208.868 81.9998 208.995 82.0932 209.088C82.1866 209.181 82.3133 209.234 82.4454 209.234H154.344C155.438 209.236 156.52 209.02 157.53 208.601C158.54 208.181 159.456 207.566 160.226 206.79C160.997 206.014 161.605 205.093 162.017 204.08C162.429 203.067 162.636 201.983 162.626 200.89C162.576 198.677 161.656 196.574 160.066 195.034C158.477 193.495 156.345 192.643 154.132 192.663H82.4454C82.3133 192.663 82.1866 192.716 82.0932 192.809C81.9998 192.903 81.9473 193.029 81.9473 193.162V193.697C81.9473 193.829 81.9998 193.956 82.0932 194.049C82.1866 194.143 82.3133 194.195 82.4454 194.195H153.771C155.584 194.191 157.326 194.897 158.626 196.16C159.926 197.424 160.68 199.146 160.727 200.958Z" fill="#263238"/>
<path opacity="0.4" d="M160.727 200.958C160.724 202.748 160.011 204.464 158.744 205.73C157.478 206.995 155.761 207.707 153.971 207.708H82.4454C82.3133 207.708 82.1866 207.761 82.0932 207.854C81.9998 207.948 81.9473 208.074 81.9473 208.206V208.736C81.9473 208.868 81.9998 208.995 82.0932 209.088C82.1866 209.181 82.3133 209.234 82.4454 209.234H154.344C155.438 209.236 156.52 209.02 157.53 208.601C158.54 208.181 159.456 207.566 160.226 206.79C160.997 206.014 161.605 205.093 162.017 204.08C162.429 203.067 162.636 201.983 162.626 200.89C162.576 198.677 161.656 196.574 160.066 195.034C158.477 193.495 156.345 192.643 154.132 192.663H82.4454C82.3133 192.663 82.1866 192.716 82.0932 192.809C81.9998 192.903 81.9473 193.029 81.9473 193.162V193.697C81.9473 193.829 81.9998 193.956 82.0932 194.049C82.1866 194.143 82.3133 194.195 82.4454 194.195H153.771C155.584 194.191 157.326 194.897 158.626 196.16C159.926 197.424 160.68 199.146 160.727 200.958Z" fill="white"/>
<path d="M186.813 201.045C186.813 203.027 186.025 204.927 184.624 206.329C183.223 207.73 181.322 208.517 179.34 208.517H115.643V193.572H179.346C181.327 193.574 183.226 194.362 184.626 195.763C186.026 197.164 186.813 199.064 186.813 201.045Z" fill="#FFC000"/>
<path opacity="0.7" d="M115.643 193.585V208.53H179.353C181.334 208.53 183.235 207.743 184.637 206.341C186.038 204.94 186.825 203.039 186.825 201.058C186.825 199.076 186.038 197.175 184.637 195.774C183.235 194.372 181.334 193.585 179.353 193.585H115.643Z" fill="white"/>
<path opacity="0.2" d="M115.643 197.527V196.312L179.141 196.823L115.643 197.527Z" fill="black"/>
<path opacity="0.2" d="M115.643 202.764V201.823L144.15 202.844L115.643 202.764Z" fill="black"/>
<path opacity="0.2" d="M115.643 206.257V205.049L161.605 205.746L115.643 206.257Z" fill="black"/>
<path opacity="0.2" d="M179.452 195.042C180.678 195.044 181.86 195.499 182.771 196.318C182.374 197.091 182.059 197.903 181.831 198.741L118.127 199.239L181.688 199.394C181.589 199.908 181.536 200.429 181.532 200.951C181.533 201.58 181.606 202.207 181.75 202.819L138.839 203.753L182.149 204.258C182.524 205.291 183.006 206.282 183.587 207.216C184.891 206.309 185.871 205.01 186.387 203.507C186.903 202.005 186.926 200.378 186.454 198.861C185.982 197.345 185.039 196.018 183.762 195.074C182.485 194.129 180.941 193.617 179.353 193.609H115.643V195.067L179.452 195.042Z" fill="black"/>
<path d="M186.222 200.958C186.219 202.748 185.506 204.464 184.239 205.73C182.973 206.995 181.256 207.707 179.466 207.708H114.572C114.44 207.708 114.314 207.761 114.22 207.854C114.127 207.948 114.074 208.074 114.074 208.206V208.736C114.074 208.868 114.127 208.995 114.22 209.088C114.314 209.181 114.44 209.234 114.572 209.234H179.839C180.933 209.236 182.015 209.02 183.025 208.601C184.035 208.181 184.951 207.566 185.721 206.79C186.492 206.014 187.1 205.093 187.512 204.08C187.924 203.067 188.131 201.983 188.121 200.89C188.071 198.677 187.151 196.574 185.562 195.034C183.972 193.495 181.84 192.643 179.627 192.663H114.572C114.44 192.663 114.314 192.716 114.22 192.809C114.127 192.903 114.074 193.029 114.074 193.162V193.697C114.074 193.829 114.127 193.956 114.22 194.049C114.314 194.143 114.44 194.195 114.572 194.195H179.266C181.079 194.191 182.821 194.897 184.121 196.16C185.421 197.424 186.175 199.146 186.222 200.958Z" fill="#263238"/>
<path d="M179.141 199.064V205.049L176.974 202.882L174.875 204.98V199.064H179.141Z" fill="#FFC000"/>
<path d="M195.972 114.948H194.415C194.126 114.954 193.842 115.029 193.588 115.166C193.333 115.304 193.115 115.5 192.952 115.739L191.407 117.993C191.101 118.438 190.906 118.951 190.839 119.487C190.771 120.024 190.834 120.568 191.021 121.076L191.258 121.698C193.842 121.823 196.732 120.054 196.732 120.054L197.616 119.643C197.799 119.564 197.964 119.449 198.102 119.305C198.239 119.161 198.347 118.991 198.419 118.805C198.491 118.619 198.525 118.421 198.52 118.222C198.515 118.022 198.47 117.826 198.388 117.644L197.597 115.932C197.45 115.629 197.218 115.375 196.93 115.2C196.641 115.026 196.309 114.938 195.972 114.948Z" fill="#EEC1BB"/>
<path d="M166.462 117.694C170.46 120.926 174.775 124.04 179.539 125.945L178.947 125.82C179.383 125.926 180.529 125.49 181.127 125.198C184.452 123.579 187.603 121.15 190.592 118.933C190.898 118.712 191.273 118.607 191.65 118.638C192.026 118.669 192.379 118.834 192.644 119.102C192.91 119.371 193.071 119.726 193.097 120.102C193.124 120.479 193.015 120.853 192.79 121.156C189.807 124.893 183.095 132.484 177.777 131.375C171.948 129.638 166.798 126.393 162.209 122.427C159.232 119.562 163.224 115.085 166.462 117.694Z" fill="#EBC0BB"/>
<path d="M158.074 113.292C156.617 117.352 158.965 121.387 164.613 126.139C167.421 125.722 171.214 119.961 171.214 119.961C171.214 119.961 163.268 112.016 158.074 113.292Z" fill="#FFC000"/>
<path d="M162.932 88.0717C162.932 88.0717 157.371 82.3801 150.123 89.5227C142.874 96.6652 141.461 120.328 141.461 120.328L160.379 124.002C160.379 124.002 162.826 121.194 164.084 113.092C165.342 104.991 166.008 97.2443 167.603 95.4385C169.197 93.6326 162.932 88.0717 162.932 88.0717Z" fill="#263238"/>
<path d="M179.178 207.907L175.08 206.276L176.68 200.304L178.156 194.824L183.337 195.97L181.139 202.291L179.178 207.907Z" fill="#EEC1BB"/>
<path opacity="0.2" d="M181.089 202.421L176.637 200.416L178.137 194.88L183.325 196.001L181.089 202.421Z" fill="black"/>
<path d="M148.173 154.098C148.173 154.098 182.422 149.478 191.937 155.556C201.453 161.633 183.026 198.648 183.026 198.648L177.26 197.402C177.26 197.402 181.582 168.06 181.258 166.833C180.934 165.606 164.806 173.608 142.73 174.368L148.173 154.098Z" fill="#263238"/>
<path opacity="0.2" d="M148.173 154.098C148.173 154.098 182.422 149.478 191.937 155.556C201.453 161.633 183.026 198.648 183.026 198.648L177.26 197.402C177.26 197.402 181.582 168.06 181.258 166.833C180.934 165.606 164.806 173.608 142.73 174.368L148.173 154.098Z" fill="black"/>
<path d="M176.942 195.534L184.197 197.888L182.895 201.195L176.232 198.928L176.942 195.534Z" fill="#263238"/>
<path d="M182.971 208.828C182.187 208.828 180.804 207.583 180.518 207.284C180.501 207.268 180.489 207.249 180.481 207.228V207.191C180.479 207.151 180.49 207.112 180.512 207.078C180.549 207.035 181.458 205.833 182.33 205.796C182.462 205.782 182.595 205.798 182.72 205.842C182.845 205.886 182.958 205.958 183.052 206.051C183.27 206.256 183.345 206.456 183.27 206.643C183.152 206.941 182.648 207.103 182.081 207.203C182.54 207.268 182.971 207.46 183.326 207.757C183.389 207.82 183.437 207.895 183.468 207.978C183.499 208.06 183.513 208.149 183.507 208.237C183.507 208.598 183.314 208.741 183.177 208.791C183.111 208.816 183.042 208.829 182.971 208.828ZM181.041 207.352C181.763 207.975 182.722 208.648 183.065 208.511C183.065 208.511 183.189 208.467 183.202 208.218C183.205 208.171 183.197 208.124 183.18 208.08C183.163 208.035 183.136 207.996 183.102 207.963C182.766 207.589 181.726 207.415 181.041 207.365V207.352ZM182.399 206.107H182.343C181.792 206.252 181.304 206.573 180.954 207.022C181.907 206.979 182.878 206.798 182.978 206.543C183.009 206.462 182.903 206.344 182.834 206.281C182.716 206.173 182.559 206.115 182.399 206.119V206.107Z" fill="#577AFA"/>
<path d="M174.315 203.728C174.477 203.267 180.038 205.478 180.038 205.478C180.038 205.478 182.379 210.167 185.518 212.073C188.656 213.978 186.091 215.398 182.298 214.159L172.908 211.101C170.199 210.229 172.64 208.486 174.315 203.728Z" fill="#2E353A"/>
<path opacity="0.4" d="M176.942 195.534L184.197 197.888L182.895 201.195L176.232 198.928L176.942 195.534Z" fill="white"/>
<path d="M197.051 219.757L192.804 220.953L190.438 215.236L188.283 209.993L193.091 207.751L195.189 214.109L197.051 219.757Z" fill="#EEC1BB"/>
<path d="M190.917 217.951C190.917 217.466 196.907 217.995 196.907 217.995C196.907 217.995 200.488 221.825 204.037 222.752C207.587 223.68 205.538 225.773 201.546 225.679L191.676 225.43C188.843 225.362 190.674 222.989 190.917 217.951Z" fill="#2E353A"/>
<path d="M200.051 219.596C199.178 219.477 198.334 219.201 197.56 218.78L197.517 218.749C197.514 218.732 197.514 218.715 197.517 218.699C197.514 218.684 197.514 218.67 197.517 218.655C197.51 218.635 197.51 218.613 197.517 218.593C197.517 218.524 198.071 217.154 198.887 216.837C199.01 216.787 199.142 216.764 199.275 216.772C199.407 216.779 199.536 216.817 199.653 216.88C199.92 217.011 200.045 217.179 200.032 217.385C200.001 217.702 199.553 218.008 199.055 218.257C199.517 218.188 199.99 218.25 200.419 218.437C200.495 218.48 200.562 218.537 200.614 218.607C200.667 218.677 200.704 218.757 200.724 218.842C200.764 218.949 200.77 219.066 200.743 219.178C200.715 219.289 200.654 219.389 200.568 219.465C200.417 219.568 200.234 219.615 200.051 219.596ZM198.077 218.699C198.955 219.091 200.057 219.458 200.35 219.228C200.35 219.228 200.456 219.147 200.4 218.911C200.39 218.864 200.369 218.82 200.34 218.783C200.311 218.745 200.274 218.714 200.232 218.693C199.796 218.431 198.75 218.574 198.077 218.699ZM199.198 217.073C199.119 217.073 199.041 217.088 198.968 217.117C198.487 217.408 198.112 217.844 197.897 218.363C198.8 218.051 199.678 217.597 199.702 217.329C199.702 217.242 199.572 217.154 199.491 217.117C199.398 217.081 199.298 217.066 199.198 217.073Z" fill="#577AFA"/>
<path opacity="0.2" d="M195.226 214.24L190.474 215.354L188.295 210.049L193.096 207.782L195.226 214.24Z" fill="black"/>
<path d="M157.887 158.526C157.887 158.526 157.395 151.751 157.165 150.368C156.974 148.998 156.694 147.641 156.324 146.308C154.823 141.793 134.691 147.105 134.691 147.105L134.118 150.219C134.118 150.219 125.033 167.35 131.104 173.521C132.972 175.389 136.565 176.236 140.258 176.211C140.258 176.211 151.548 176.753 172.546 175.775C172.546 175.775 170.989 188.005 188.294 211.967L194.086 210.099C194.086 210.099 182.653 166.596 181.681 165.824C173.312 159.061 157.887 158.526 157.887 158.526Z" fill="#263238"/>
<path d="M187.248 211.675L194.44 209.128L195.418 212.547L188.749 214.801L187.248 211.675Z" fill="#263238"/>
<path d="M164.656 116.536C164.656 116.536 163.934 118.304 162.925 121.393C162.682 122.115 162.433 122.912 162.172 123.772C161.829 124.899 161.462 126.138 161.095 127.508C160.827 128.48 160.559 129.495 160.297 130.566C160.036 131.637 159.756 132.795 159.488 133.972C159.488 134.109 159.426 134.252 159.401 134.389C158.262 139.207 157.43 144.093 156.91 149.017L134.791 147.086C134.788 142.232 135.039 137.38 135.545 132.552C135.943 128.369 136.716 124.23 137.855 120.185C138.733 117.271 139.866 114.767 141.323 113.13C141.323 113.155 153.317 109.219 164.656 116.536Z" fill="#FFC000"/>
<path d="M153.386 109.979C146.729 107.849 144.145 113.092 144.145 113.092L147.688 112.743L154.88 121.773L159.096 116.312L161.749 117.738C161.749 117.738 159.152 111.822 153.386 109.979Z" fill="#FFC000"/>
<path opacity="0.6" d="M153.386 109.979C146.729 107.849 144.145 113.092 144.145 113.092L147.688 112.743L154.88 121.773L159.096 116.312L161.749 117.738C161.749 117.738 159.152 111.822 153.386 109.979Z" fill="white"/>
<path d="M154.692 121.281L148.59 112.146C151.467 110.844 153.372 105.339 153.79 102.238L158.099 108.752C156.691 110.844 155.751 113.235 158.977 115.041C158.989 115.041 154.686 121.262 154.692 121.281Z" fill="#EEC1BB"/>
<path opacity="0.2" d="M155.547 104.897L158.1 108.752C157.765 109.23 157.475 109.739 157.234 110.271C155.958 109.699 154.6 107.781 154.918 106.454C155.026 105.9 155.24 105.371 155.547 104.897Z" fill="black"/>
<path d="M134.448 147.79L141.367 148.245L141.118 150.2L133.77 149.671L134.448 147.79Z" fill="black"/>
<path d="M157.465 151.365L141.953 150.256L142.202 148.301L157.216 149.291L157.465 151.365Z" fill="black"/>
<path d="M151.779 151.358H151.717L149.849 151.234C149.626 151.219 149.417 151.118 149.268 150.952C149.119 150.785 149.041 150.567 149.052 150.343L149.101 149.098C149.101 148.98 149.126 148.864 149.174 148.756C149.222 148.649 149.293 148.553 149.382 148.475C149.464 148.397 149.562 148.336 149.669 148.297C149.777 148.259 149.891 148.243 150.004 148.251L151.947 148.363C152.061 148.37 152.171 148.398 152.273 148.448C152.375 148.498 152.466 148.567 152.541 148.652C152.616 148.738 152.673 148.837 152.709 148.944C152.745 149.052 152.759 149.166 152.751 149.279L152.657 150.574C152.637 150.791 152.535 150.993 152.372 151.138C152.209 151.284 151.998 151.363 151.779 151.358ZM149.699 149.092L149.643 150.337C149.641 150.398 149.663 150.457 149.704 150.502C149.744 150.547 149.801 150.575 149.861 150.58L151.729 150.711C151.791 150.714 151.852 150.693 151.898 150.653C151.945 150.612 151.974 150.555 151.978 150.493L152.072 149.204C152.075 149.173 152.072 149.141 152.062 149.111C152.052 149.081 152.037 149.053 152.016 149.03C151.995 149.007 151.97 148.989 151.942 148.976C151.915 148.963 151.884 148.956 151.854 148.955L149.911 148.843C149.849 148.841 149.789 148.863 149.743 148.905C149.719 148.925 149.701 148.95 149.688 148.978C149.675 149.006 149.668 149.036 149.668 149.067L149.699 149.092Z" fill="white"/>
<path opacity="0.5" d="M187.248 211.675L194.44 209.128L195.418 212.547L188.749 214.801L187.248 211.675Z" fill="white"/>
<path d="M168.91 100.563C168.878 100.564 168.846 100.556 168.818 100.539C168.791 100.523 168.769 100.499 168.754 100.47C168.582 100.134 168.335 99.8416 168.033 99.615C167.731 99.3885 167.381 99.2336 167.011 99.162C166.987 99.1613 166.965 99.1558 166.944 99.1458C166.923 99.1358 166.904 99.1216 166.889 99.1041C166.874 99.0865 166.862 99.066 166.855 99.0438C166.848 99.0216 166.846 98.9983 166.849 98.9752C166.855 98.9306 166.877 98.89 166.912 98.8612C166.947 98.8324 166.991 98.8175 167.036 98.8195C167.466 98.8932 167.874 99.0667 168.225 99.3263C168.576 99.5858 168.862 99.9241 169.059 100.314C169.07 100.334 169.077 100.356 169.079 100.378C169.081 100.401 169.078 100.424 169.071 100.445C169.064 100.467 169.053 100.487 169.038 100.504C169.023 100.521 169.005 100.535 168.985 100.544L168.91 100.563Z" fill="#263238"/>
<path d="M166.83 103.26C166.897 104.124 167.069 104.977 167.34 105.8C167.12 105.935 166.867 106.007 166.609 106.007C166.35 106.007 166.097 105.935 165.877 105.8L166.83 103.26Z" fill="#D4827D"/>
<path d="M168.205 102.332C168.043 102.718 167.707 102.955 167.446 102.842C167.184 102.73 167.103 102.332 167.265 101.946C167.427 101.56 167.763 101.323 168.025 101.435C168.286 101.547 168.361 101.94 168.205 102.332Z" fill="#263238"/>
<path d="M167.906 101.41H168.884C168.884 101.41 168.174 101.964 167.906 101.41Z" fill="#263238"/>
<path d="M153.871 105.683C153.895 105.746 153.926 105.807 153.965 105.863C154.027 105.988 154.096 106.1 154.164 106.224C154.564 106.991 155.107 107.674 155.765 108.236C157.888 109.998 159.719 110.558 161.369 110.104C161.45 110.104 161.525 110.054 161.606 110.029C164.047 109.107 165.965 106.293 167.59 102.494C168.294 101.023 168.754 99.4483 168.954 97.8301C168.954 97.8301 168.954 97.774 168.954 97.7616C168.954 97.7491 168.954 97.6308 168.954 97.5747C169.033 96.6441 168.879 95.7082 168.505 94.8523C168.131 93.9964 167.549 93.2476 166.811 92.674C166.182 92.1557 165.497 91.7088 164.769 91.3414C157.695 87.6673 150.453 98.8451 153.871 105.683Z" fill="#EEC1BB"/>
<path d="M168.954 97.7675C168.954 97.7675 166.824 102.973 160.996 102.749C160.996 102.749 156.338 106.928 153.305 105.489C149.164 103.528 148.491 95.8932 152.894 90.681C158.617 83.9183 170.573 89.1616 168.954 97.7675Z" fill="#263238"/>
<path d="M164.139 102.525C164.531 101.74 164.562 100.115 163.261 99.679C161.959 99.2431 159.649 101.977 162.389 104.225C162.781 104.549 163.348 104.156 164.139 102.525Z" fill="#EEC1BB"/>
<path d="M162.932 88.0714C162.932 88.0714 168.319 89.267 169.988 92.5176C171.943 96.3161 171.943 99.2242 166.475 100.986C166.475 100.986 159.769 94.3483 156.823 93.5575C155.106 93.0856 153.352 92.7586 151.58 92.5798C153.691 87.0003 160.809 85.6428 162.932 88.0714Z" fill="#263238"/>
<path d="M161.007 102.749C157.62 109.518 150.172 121.02 142.232 112.906C142.232 112.906 145.084 103.727 150.845 99.9411C156.605 96.1549 161.007 102.749 161.007 102.749Z" fill="#263238"/>
<path d="M159.781 114.039C162.677 116.181 158.972 123.23 162.627 124.799C162.284 124.325 162.068 123.769 162 123.187C161.932 122.605 162.015 122.015 162.241 121.474C163.007 119.556 166.114 114.487 164.875 107.625L159.781 114.039Z" fill="#263238"/>
<path opacity="0.2" d="M144.78 128.903C144.78 128.903 140.048 132.11 135.57 132.508C135.963 128.341 136.728 124.216 137.856 120.185C138.429 119.862 139.067 119.675 139.724 119.637C143.049 119.699 144.263 122.819 144.263 122.819C144.623 124.826 144.796 126.863 144.78 128.903Z" fill="black"/>
<path d="M162.054 151.116L161.057 149.92C160.87 149.702 160.633 149.531 160.367 149.423C160.1 149.315 159.812 149.272 159.525 149.297L156.798 149.497C156.259 149.536 155.737 149.704 155.277 149.987C154.816 150.27 154.43 150.659 154.151 151.122L153.803 151.701C155.322 153.799 158.504 154.952 158.504 154.952L159.376 155.381C159.551 155.476 159.743 155.535 159.942 155.555C160.14 155.574 160.34 155.555 160.53 155.497C160.721 155.439 160.898 155.344 161.051 155.217C161.205 155.091 161.332 154.935 161.425 154.758L162.297 153.04C162.453 152.731 162.513 152.383 162.47 152.04C162.427 151.698 162.282 151.375 162.054 151.116Z" fill="#EEC1BB"/>
<path d="M142.88 122.489C142.804 126.411 143.085 130.332 143.721 134.202C143.954 135.441 144.255 136.665 144.624 137.87L144.35 137.329C145.788 139.527 147.893 141.563 149.73 143.556L152.806 146.732L155.92 149.926C156.194 150.202 156.356 150.57 156.375 150.959C156.394 151.348 156.269 151.73 156.023 152.032C155.777 152.333 155.428 152.533 155.043 152.593C154.658 152.653 154.265 152.568 153.939 152.355C152.65 151.539 151.448 150.68 150.203 149.808C146.405 146.949 142.575 144.278 139.617 140.467C137.039 134.757 136.41 128.411 136.628 122.209C136.995 118.068 142.998 118.373 142.948 122.527L142.88 122.489Z" fill="#EBC0BB"/>
<path d="M141.111 113.192C137.032 114.593 135.345 118.952 135.164 126.325C137.25 128.262 144.112 127.621 144.112 127.621C144.112 127.621 145.352 116.449 141.111 113.192Z" fill="#FFC000"/>
<path d="M185.063 156.845V158.794C185.063 159.298 184.44 159.504 183.967 159.504H144.667C144.163 159.504 143.553 159.298 143.553 158.794V156.826L185.063 156.845Z" fill="#263238"/>
<path opacity="0.4" d="M185.063 156.845V158.794C185.063 159.298 184.44 159.504 183.967 159.504H144.667C144.163 159.504 143.553 159.298 143.553 158.794V156.826L185.063 156.845Z" fill="white"/>
<path opacity="0.2" d="M185.063 156.845V158.794C185.063 159.298 184.44 159.504 183.967 159.504H158.049C157.545 159.504 156.947 159.298 156.947 158.794V156.826L185.063 156.845Z" fill="black"/>
<path d="M191.639 136.431L186.956 157.647C186.873 157.989 186.679 158.293 186.404 158.512C186.129 158.731 185.788 158.851 185.437 158.855H159.906C159.747 158.851 159.591 158.81 159.451 158.735C159.311 158.661 159.19 158.555 159.097 158.426C159.004 158.297 158.942 158.148 158.916 157.992C158.89 157.835 158.901 157.675 158.947 157.523L163.623 136.463C163.718 136.142 163.92 135.864 164.195 135.674C164.471 135.485 164.803 135.396 165.136 135.423H190.699C191.371 135.423 191.789 135.753 191.639 136.431Z" fill="#263238"/>
<path opacity="0.4" d="M191.638 136.432L186.956 157.648C186.872 157.989 186.678 158.294 186.403 158.512C186.128 158.731 185.788 158.852 185.436 158.856H160.752C160.592 158.852 160.436 158.812 160.295 158.738C160.154 158.663 160.032 158.558 159.939 158.429C159.845 158.3 159.783 158.151 159.757 157.994C159.73 157.837 159.74 157.676 159.786 157.523L164.463 136.463C164.558 136.141 164.761 135.862 165.038 135.673C165.314 135.483 165.648 135.395 165.982 135.423H190.673C191.371 135.423 191.788 135.753 191.638 136.432Z" fill="white"/>
<path opacity="0.2" d="M179.036 147.218C179.036 149.03 177.087 150.506 175.661 150.506C174.235 150.506 173.388 149.03 173.793 147.218C174.197 145.406 175.623 143.98 177.018 143.93C176.614 145.742 177.485 147.218 178.886 147.218H179.036Z" fill="black"/>
</svg>
