<svg width="313" height="230" viewBox="0 0 313 230" fill="none" xmlns="http://www.w3.org/2000/svg">
<path d="M280.98 214.096H260.355V214.251H280.98V214.096Z" fill="#EBEBEB"/>
<path d="M207.075 215.79H201.664V215.946H207.075V215.79Z" fill="#EBEBEB"/>
<path d="M259.733 208.317H247.783V208.473H259.733V208.317Z" fill="#EBEBEB"/>
<path d="M60.3834 209.363H33.4883V209.519H60.3834V209.363Z" fill="#EBEBEB"/>
<path d="M69.8734 209.363H65.9316V209.519H69.8734V209.363Z" fill="#EBEBEB"/>
<path d="M141.025 211.991H82.6895V212.147H141.025V211.991Z" fill="#EBEBEB"/>
<path d="M148.405 176.303H28.1709C27.2279 176.303 26.3235 175.929 25.6567 175.262C24.9899 174.595 24.6152 173.69 24.6152 172.747V3.72379C24.6234 2.78616 25.0017 1.88973 25.6676 1.22963C26.3336 0.569524 27.2333 0.199183 28.1709 0.199219H148.405C149.348 0.199219 150.252 0.573837 150.919 1.24066C151.586 1.90749 151.961 2.81189 151.961 3.75492V172.747C151.961 173.69 151.586 174.595 150.919 175.262C150.252 175.929 149.348 176.303 148.405 176.303ZM28.1709 0.323762C27.2697 0.325408 26.4059 0.684152 25.7686 1.32142C25.1313 1.9587 24.7726 2.82255 24.7709 3.72379V172.747C24.7726 173.649 25.1313 174.513 25.7686 175.15C26.4059 175.787 27.2697 176.146 28.1709 176.147H148.405C149.306 176.146 150.17 175.787 150.807 175.15C151.444 174.513 151.803 173.649 151.805 172.747V3.72379C151.803 2.82255 151.444 1.9587 150.807 1.32142C150.17 0.684152 149.306 0.325408 148.405 0.323762H28.1709Z" fill="#EBEBEB"/>
<path d="M283.103 176.303H162.856C161.914 176.302 161.011 175.926 160.344 175.26C159.678 174.593 159.302 173.69 159.301 172.747V3.72379C159.311 2.78667 159.689 1.89118 160.355 1.23143C161.021 0.57167 161.919 0.200806 162.856 0.199219H283.103C284.038 0.20246 284.935 0.574249 285.598 1.234C286.261 1.89376 286.638 2.78832 286.646 3.72379V172.747C286.646 173.688 286.273 174.591 285.609 175.257C284.945 175.924 284.044 176.3 283.103 176.303ZM162.856 0.323762C161.955 0.325408 161.091 0.684152 160.454 1.32142C159.817 1.9587 159.458 2.82255 159.456 3.72379V172.747C159.458 173.649 159.817 174.513 160.454 175.15C161.091 175.787 161.955 176.146 162.856 176.147H283.103C284.004 176.146 284.868 175.787 285.505 175.15C286.142 174.513 286.501 173.649 286.503 172.747V3.72379C286.501 2.82255 286.142 1.9587 285.505 1.32142C284.868 0.684152 284.004 0.325408 283.103 0.323762H162.856Z" fill="#EBEBEB"/>
<path d="M312.178 204.076H0.820312V204.232H312.178V204.076Z" fill="#EBEBEB"/>
<path d="M108.526 158.668H63.2109V203.983H108.526V158.668Z" fill="#F5F5F5"/>
<path d="M136.361 158.668H108.525V203.983H136.361V158.668Z" fill="#EBEBEB"/>
<path d="M119.66 158.668V175.818L120.383 175.164L121.653 175.961L122.768 175.164L124.2 175.961L125.707 175.164L126.659 175.961L127.768 175.375V158.668H119.66Z" fill="#E0E0E0"/>
<path opacity="0.7" d="M119.66 158.668V175.818L120.383 175.164L121.653 175.961L122.768 175.164L124.2 175.961L125.707 175.164L126.659 175.961L127.768 175.375V158.668H119.66Z" fill="#E0E0E0"/>
<path d="M62.5819 177.001H35.5996V203.983H62.5819V177.001Z" fill="#F5F5F5"/>
<path d="M79.1587 177.001H62.582V203.983H79.1587V177.001Z" fill="#E6E6E6"/>
<path d="M57.4256 170.226H30.4434L35.5994 177.001H62.5817L57.4256 170.226Z" fill="#E6E6E6"/>
<path d="M67.4641 170.226H84.0408L79.1587 177.001H62.582L67.4641 170.226Z" fill="#EBEBEB"/>
<path d="M79.2569 129.849H101.83C102.284 129.849 102.652 129.481 102.652 129.027V124.176C102.652 123.722 102.284 123.354 101.83 123.354H79.2569C78.8029 123.354 78.4349 123.722 78.4349 124.176V129.027C78.4349 129.481 78.8029 129.849 79.2569 129.849Z" fill="#EBEBEB"/>
<path d="M53.8624 129.849H76.4358C76.8898 129.849 77.2578 129.481 77.2578 129.027V124.176C77.2578 123.722 76.8898 123.354 76.4358 123.354H53.8624C53.4084 123.354 53.0404 123.722 53.0404 124.176V129.027C53.0404 129.481 53.4084 129.849 53.8624 129.849Z" fill="#F5F5F5"/>
<path d="M65.171 121.791H87.7444C88.1984 121.791 88.5664 121.423 88.5664 120.969V116.118C88.5664 115.664 88.1984 115.296 87.7444 115.296H65.171C64.717 115.296 64.349 115.664 64.349 116.118V120.969C64.349 121.423 64.717 121.791 65.171 121.791Z" fill="#F5F5F5"/>
<path d="M39.8272 121.791H62.4007C62.8546 121.791 63.2227 121.423 63.2227 120.969V116.118C63.2227 115.664 62.8546 115.296 62.4007 115.296H39.8272C39.3733 115.296 39.0052 115.664 39.0052 116.118V120.969C39.0052 121.423 39.3733 121.791 39.8272 121.791Z" fill="#F0F0F0"/>
<path d="M230.628 34.1377H253.201C253.655 34.1377 254.023 33.7697 254.023 33.3157V28.4585C254.023 28.0046 253.655 27.6365 253.201 27.6365L230.628 27.6365C230.174 27.6365 229.806 28.0046 229.806 28.4585V33.3157C229.806 33.7697 230.174 34.1377 230.628 34.1377Z" fill="#EBEBEB"/>
<path d="M205.228 34.1377H227.801C228.255 34.1377 228.623 33.7697 228.623 33.3157V28.4585C228.623 28.0046 228.255 27.6365 227.801 27.6365L205.228 27.6365C204.774 27.6365 204.406 28.0046 204.406 28.4585V33.3157C204.406 33.7697 204.774 34.1377 205.228 34.1377Z" fill="#F5F5F5"/>
<path d="M216.542 26.0859L239.116 26.0859C239.569 26.0859 239.938 25.7179 239.938 25.264V20.4068C239.938 19.9528 239.569 19.5848 239.116 19.5848L216.542 19.5848C216.088 19.5848 215.72 19.9528 215.72 20.4068V25.264C215.72 25.7179 216.088 26.0859 216.542 26.0859Z" fill="#F5F5F5"/>
<path d="M191.196 26.0859L213.77 26.0859C214.224 26.0859 214.592 25.7179 214.592 25.264V20.4068C214.592 19.9528 214.224 19.5848 213.77 19.5848L191.196 19.5848C190.742 19.5848 190.374 19.9528 190.374 20.4068V25.264C190.374 25.7179 190.742 26.0859 191.196 26.0859Z" fill="#F0F0F0"/>
<path d="M60.7631 35.6064H85.6468C86.1007 35.6064 86.4688 35.2384 86.4688 34.7845V29.3108C86.4688 28.8568 86.1007 28.4888 85.6468 28.4888L60.7631 28.4888C60.3091 28.4888 59.9411 28.8568 59.9411 29.3108V34.7845C59.9411 35.2384 60.3091 35.6064 60.7631 35.6064Z" fill="#F5F5F5"/>
<path d="M73.1478 26.7832L98.0315 26.7832C98.4855 26.7832 98.8535 26.4152 98.8535 25.9612V20.4875C98.8535 20.0336 98.4855 19.6656 98.0315 19.6656L73.1478 19.6656C72.6939 19.6656 72.3258 20.0336 72.3258 20.4875V25.9612C72.3258 26.4152 72.6939 26.7832 73.1478 26.7832Z" fill="#F5F5F5"/>
<path d="M45.3881 26.7832L70.2718 26.7832C70.7257 26.7832 71.0938 26.4152 71.0938 25.9612V20.4875C71.0938 20.0336 70.7257 19.6656 70.2718 19.6656L45.3881 19.6656C44.9341 19.6656 44.5661 20.0336 44.5661 20.4875V25.9612C44.5661 26.4152 44.9341 26.7832 45.3881 26.7832Z" fill="#F0F0F0"/>
<path d="M236.736 191.429H261.619C262.073 191.429 262.441 191.061 262.441 190.607V185.133C262.441 184.679 262.073 184.311 261.619 184.311H236.736C236.282 184.311 235.914 184.679 235.914 185.133V190.607C235.914 191.061 236.282 191.429 236.736 191.429Z" fill="#F5F5F5"/>
<path d="M249.122 182.605H274.006C274.46 182.605 274.828 182.237 274.828 181.783V176.31C274.828 175.856 274.46 175.488 274.006 175.488H249.122C248.668 175.488 248.3 175.856 248.3 176.31V181.783C248.3 182.237 248.668 182.605 249.122 182.605Z" fill="#F5F5F5"/>
<path d="M221.361 182.605H246.244C246.698 182.605 247.066 182.237 247.066 181.783V176.31C247.066 175.856 246.698 175.488 246.244 175.488H221.361C220.907 175.488 220.539 175.856 220.539 176.31V181.783C220.539 182.237 220.907 182.605 221.361 182.605Z" fill="#F0F0F0"/>
<path d="M153.498 229.8C220.18 229.8 274.236 226.644 274.236 222.751C274.236 218.858 220.18 215.702 153.498 215.702C86.8161 215.702 32.7598 218.858 32.7598 222.751C32.7598 226.644 86.8161 229.8 153.498 229.8Z" fill="#F5F5F5"/>
<path d="M83.0171 156.501C83.0171 156.501 87.6065 173.501 90.4897 173.464C93.3728 173.426 97.8003 164.59 100.845 162.286C101.941 161.458 105.584 160.897 105.584 160.897L107.116 159.129C107.346 158.863 107.655 158.678 107.998 158.6C108.34 158.521 108.699 158.554 109.022 158.693C109.356 158.837 109.633 159.087 109.811 159.404C109.989 159.722 110.057 160.089 110.006 160.449L109.539 163.731C109.488 164.091 109.321 164.424 109.062 164.68C108.803 164.935 108.467 165.099 108.106 165.144L102.321 165.873C102.321 165.873 94.419 182.568 89.8669 181.628C85.3149 180.687 80.6445 167.616 80.6445 167.616L83.0171 156.501Z" fill="#CE7A63"/>
<path d="M83.1363 155.879L88.174 169.093C88.174 169.093 87.0718 172.922 82.252 175.899C82.252 175.899 78.6652 169.51 79.537 165.151C80.2665 161.992 81.2345 158.892 82.4326 155.879C82.4585 155.806 82.5063 155.743 82.5692 155.699C82.6322 155.655 82.7074 155.631 82.7844 155.631C82.8615 155.631 82.9366 155.655 82.9996 155.699C83.0626 155.743 83.1103 155.806 83.1363 155.879Z" fill="#263238"/>
<path opacity="0.3" d="M82.1586 156.576C81.0778 159.365 80.2016 162.229 79.537 165.145C78.6652 169.504 82.252 175.893 82.252 175.893C82.7878 175.56 83.3054 175.198 83.8026 174.809C84.1887 175.544 84.6059 176.273 85.048 176.97C85.2002 170.284 84.5183 163.604 83.018 157.087L82.1586 156.576Z" fill="black"/>
<path d="M81.772 193.036C81.772 193.036 79.2313 197.669 92.5823 193.59C105.933 189.511 114.346 191.722 114.832 194.736C115.318 197.75 107.011 218.542 76.6969 221.55C76.6969 221.55 56.4773 224.857 46.6384 213.666C36.7995 202.476 41.6567 198.503 45.6607 196.473C49.6648 194.443 55.5806 198.123 55.7736 194.157L81.772 193.036Z" fill="#FFC000"/>
<path opacity="0.1" d="M110.205 202.483C110.205 202.483 97.6636 214.974 82.3448 215.454C69.137 215.871 47.5786 203.865 41.8683 200.509C41.8247 200.608 41.7874 200.708 41.75 200.814L42.1859 203.218C42.1859 203.218 41.8372 208.156 51.0596 214.096H47.0306C56.9941 224.726 76.6657 221.525 76.6657 221.525C96.0259 219.601 106.4 210.429 111.251 203.261L110.205 202.483Z" fill="black"/>
<path opacity="0.1" d="M55.6191 199.636C63.2936 200.573 70.8092 202.527 77.9684 205.446C77.9684 205.446 95.4044 196.84 99.7012 197.189C103.998 197.538 82.4146 211.474 82.4146 211.474L57.1697 204.325L55.6191 199.636Z" fill="black"/>
<path d="M82.2527 193.746C82.2527 193.746 84.6937 169.802 83.1868 156.507C83.1442 156.14 82.9936 155.794 82.7542 155.512C82.5148 155.231 82.1972 155.027 81.8417 154.926C78.4728 154.016 68.0236 151.93 51.8953 155.386C51.4139 155.494 50.9946 155.787 50.7286 156.202C50.4626 156.618 50.3716 157.121 50.4755 157.603C51.4843 161.962 53.8942 174.217 54.71 194.786C54.71 194.786 73.1548 197.899 82.2527 193.746Z" fill="#263238"/>
<path opacity="0.4" d="M51.5645 163.021C52.1374 166.246 52.8099 170.555 53.3641 175.979C55.7429 167.597 55.1139 162.205 55.1139 162.205L53.4637 161.482L51.5645 163.021Z" fill="black"/>
<path d="M50.8858 156.215C50.8858 156.215 34.4461 173.968 34.0039 180.358C33.6552 185.526 40.0505 193.522 42.504 196.386C42.7867 196.713 43.1468 196.964 43.5514 197.117C43.956 197.269 44.3923 197.318 44.8205 197.258L48.3824 196.766L51.029 197.875C51.2202 197.955 51.4279 197.988 51.6346 197.971C51.8413 197.954 52.0408 197.887 52.2162 197.777C52.3916 197.666 52.5378 197.515 52.6422 197.335C52.7467 197.156 52.8063 196.955 52.8162 196.747L52.9407 194.088C52.9556 193.791 52.8669 193.497 52.6898 193.258C52.5127 193.018 52.2581 192.847 51.9693 192.774L47.6539 191.678L44.6088 192.457C44.6088 192.457 39.2721 182.836 41.6509 179.349C44.0297 175.862 49.5781 170.45 52.3056 167.554C54.2671 165.468 56.8638 162.903 50.8858 156.215Z" fill="#CE7A63"/>
<path d="M50.842 156.034C50.842 156.034 46.3522 160.605 41.4141 166.801C41.4141 166.801 45.4306 172.71 48.9614 173.775C48.9614 173.775 55.6431 167.237 55.1138 162.205C54.9448 160.911 54.4689 159.675 53.7259 158.602C52.9828 157.529 51.9941 156.648 50.842 156.034Z" fill="#263238"/>
<path d="M89.339 212.066L101.351 214.925L99.6014 220.61L87.3027 218.225L89.339 212.066Z" fill="#CE7A63"/>
<path d="M42.5417 199.269C45.9542 194.636 54.2861 198.646 65.0964 202.575C87.3211 210.708 95.8835 213.13 95.8835 213.13L93.3926 219.98C93.3926 219.98 58.8568 215.142 49.3729 210.683C39.8889 206.225 40.9662 201.405 42.5417 199.269Z" fill="#FFC000"/>
<path d="M100.703 214.682L98.0005 220.66C97.9554 220.767 97.9468 220.886 97.976 220.999C98.0053 221.111 98.0708 221.211 98.1625 221.282L102.521 224.564C102.614 224.635 102.72 224.688 102.833 224.718C102.946 224.748 103.063 224.755 103.179 224.74C103.295 224.724 103.407 224.686 103.507 224.627C103.608 224.568 103.697 224.489 103.767 224.396C103.804 224.346 103.835 224.291 103.86 224.234C104.801 222.067 105.548 220.099 106.762 217.384C108.194 214.221 108.207 215.199 109.944 211.5C110.984 209.276 108.624 207.713 108.076 208.604C105.585 212.708 104.047 212.564 101.731 213.536C101.256 213.774 100.889 214.184 100.703 214.682Z" fill="#263238"/>
<path opacity="0.1" d="M98.5048 214.246L95.7213 213.586L95.8894 213.131C95.8894 213.131 94.4821 212.732 91.3436 211.724L87.3022 213.131L80.2344 215.834L82.2644 218.324C83.7403 218.567 85.1289 218.785 86.3868 218.984L98.5048 214.246Z" fill="black"/>
<path d="M104.719 164.16L105.367 164.372L105.878 163.911L109.215 153.58L108.948 152.186L107.914 153.157L104.576 163.494L104.719 164.16Z" fill="#FFC000"/>
<path opacity="0.2" d="M109.216 153.58L108.948 152.186L107.914 153.157L109.216 153.58Z" fill="black"/>
<path d="M64.8278 154.01C66.1418 154.994 68.7634 157.983 72.3004 157.516C74.5858 157.217 73.8634 154.982 74.1686 153.848C71.7151 152.84 71.2418 150.953 71.4784 148.63L64.0059 143.916C64.9586 146.718 65.6311 150.897 64.8278 154.01Z" fill="#CE7A63"/>
<path opacity="0.2" d="M67.0396 145.84L71.4609 148.605C71.4048 149.259 71.4048 149.918 71.4609 150.572C69.9477 150.572 67.8553 149.595 67.0396 148.082C66.5165 147.116 66.6722 146.014 67.0396 145.84Z" fill="black"/>
<path d="M71.0859 139.277C67.8291 137.041 66.2412 132.738 66.5774 131.804C66.9137 130.87 71.2105 128.965 71.9141 129.394C75.4325 131.462 73.9691 136.991 73.9691 136.991L75.1211 138.729L71.0859 139.277Z" fill="#263238"/>
<path opacity="0.3" d="M71.0859 139.277C67.8291 137.041 66.2412 132.738 66.5774 131.804C66.9137 130.87 71.2105 128.965 71.9141 129.394C75.4325 131.462 73.9691 136.991 73.9691 136.991L75.1211 138.729L71.0859 139.277Z" fill="white"/>
<path d="M61.8465 138.517C62.8366 143.188 63.1791 145.99 65.9253 148.032C70.0477 151.146 75.5525 148.101 75.9697 143.238C76.3495 138.829 74.6558 131.948 69.7425 130.783C68.668 130.523 67.5449 130.54 66.4788 130.833C65.4128 131.126 64.439 131.686 63.6491 132.46C62.8592 133.234 62.2793 134.196 61.9639 135.255C61.6486 136.315 61.6082 137.438 61.8465 138.517Z" fill="#CE7A63"/>
<path d="M61.3597 141.78C58.3395 139.239 56.0978 135.347 56.571 134.506C57.8165 132.283 61.8517 130.851 64.274 132.234C67.8297 134.226 64.4546 139.837 64.4546 139.837C64.4546 139.837 65.7 141.244 65.4447 141.705C64.959 142.577 61.3597 141.78 61.3597 141.78Z" fill="#263238"/>
<path opacity="0.3" d="M61.3597 141.78C58.3395 139.239 56.0978 135.347 56.571 134.506C57.8165 132.283 61.8517 130.851 64.274 132.234C67.8297 134.226 64.4546 139.837 64.4546 139.837C64.4546 139.837 65.7 141.244 65.4447 141.705C64.959 142.577 61.3597 141.78 61.3597 141.78Z" fill="white"/>
<path d="M69.4063 138.778C69.4685 139.164 69.7176 139.444 69.9667 139.401C70.2158 139.357 70.3715 139.021 70.3154 138.635C70.2594 138.249 70.0103 137.975 69.755 138.012C69.4997 138.05 69.3502 138.398 69.4063 138.778Z" fill="#263238"/>
<path d="M73.7458 138.131C73.8019 138.511 74.051 138.791 74.3063 138.754C74.5616 138.717 74.7111 138.374 74.655 137.994C74.599 137.614 74.3437 137.328 74.0946 137.372C73.8455 137.415 73.6774 137.745 73.7458 138.131Z" fill="#263238"/>
<path d="M72.1582 138.517C72.7925 139.62 73.5762 140.63 74.4872 141.518C74.2525 141.746 73.971 141.919 73.6623 142.027C73.3536 142.134 73.0252 142.173 72.7 142.141L72.1582 138.517Z" fill="#BA4D3C"/>
<path d="M67.6501 137.197C67.6112 137.206 67.5707 137.206 67.5318 137.197C67.4805 137.166 67.4429 137.116 67.4267 137.058C67.4105 137 67.4169 136.939 67.4446 136.885C67.6111 136.565 67.8516 136.289 68.1462 136.08C68.4408 135.871 68.7809 135.735 69.1384 135.684C69.1706 135.676 69.204 135.676 69.2363 135.682C69.2687 135.689 69.2992 135.703 69.3259 135.722C69.3525 135.742 69.3747 135.767 69.3908 135.796C69.4069 135.824 69.4167 135.856 69.4194 135.889C69.4221 135.922 69.4177 135.955 69.4065 135.986C69.3953 136.017 69.3775 136.046 69.3544 136.069C69.3313 136.093 69.3034 136.111 69.2726 136.123C69.2417 136.135 69.2087 136.14 69.1758 136.138C68.893 136.184 68.625 136.296 68.3934 136.465C68.1619 136.633 67.9734 136.854 67.8431 137.11C67.821 137.139 67.7917 137.163 67.7579 137.178C67.7242 137.193 67.687 137.2 67.6501 137.197Z" fill="#263238"/>
<path d="M75.1713 136.126C75.1331 136.128 75.095 136.12 75.061 136.103C75.027 136.085 74.9984 136.059 74.9782 136.026C74.8248 135.788 74.6176 135.588 74.3731 135.445C74.1287 135.301 73.8539 135.216 73.5709 135.198C73.5379 135.203 73.5041 135.202 73.4718 135.193C73.4396 135.184 73.4097 135.168 73.3842 135.146C73.3586 135.125 73.3381 135.098 73.3241 135.067C73.31 135.037 73.3027 135.004 73.3027 134.971C73.3027 134.937 73.31 134.904 73.3241 134.874C73.3381 134.843 73.3586 134.817 73.3842 134.795C73.4097 134.773 73.4396 134.757 73.4718 134.749C73.5041 134.74 73.5379 134.738 73.5709 134.743C73.9335 134.758 74.2873 134.86 74.6025 135.04C74.9178 135.22 75.1854 135.473 75.383 135.777C75.4007 135.8 75.4135 135.826 75.4206 135.854C75.4277 135.883 75.4289 135.912 75.4243 135.94C75.4196 135.969 75.4091 135.996 75.3934 136.021C75.3778 136.045 75.3573 136.066 75.3332 136.082C75.311 136.101 75.285 136.114 75.257 136.122C75.2291 136.129 75.1998 136.131 75.1713 136.126Z" fill="#263238"/>
<path d="M74.0942 143.474C72.4712 143.356 70.8405 143.394 69.2246 143.586C69.729 144.633 70.5821 145.455 72.4129 145.28C72.855 145.284 73.2806 145.112 73.5967 144.803C73.9128 144.494 74.0939 144.072 74.1005 143.63C74.1015 143.578 74.0994 143.526 74.0942 143.474Z" fill="#263238"/>
<path d="M72.4312 145.292C71.7287 145.384 71.0151 145.255 70.3887 144.925C70.6937 144.726 71.0462 144.612 71.4099 144.595C72.1172 144.5 72.8367 144.617 73.4773 144.931C73.178 145.163 72.8102 145.29 72.4312 145.292Z" fill="#BA4D3C"/>
<path d="M70.2824 144.047C70.1146 144.044 69.9498 144.001 69.8024 143.921C69.6549 143.84 69.529 143.726 69.4355 143.586C70.4257 143.505 71.2352 143.462 71.8828 143.443C72.5304 143.424 73.2839 143.443 73.9876 143.48C73.9628 143.615 73.9014 143.74 73.8103 143.842C73.7191 143.944 73.6017 144.019 73.4707 144.059C72.4094 144.142 71.3431 144.138 70.2824 144.047Z" fill="white"/>
<path d="M72.637 142.528C72.637 142.528 72.0142 141.905 70.3267 142.528C68.6391 143.15 67.8047 142.858 67.8047 142.858C67.8047 142.858 68.7886 144.309 72.637 142.528Z" fill="#263238"/>
<path d="M72.998 142.528C72.998 142.528 73.409 141.905 74.5237 142.528C75.6384 143.15 76.1926 142.858 76.1926 142.858C76.1926 142.858 75.545 144.309 72.998 142.528Z" fill="#263238"/>
<path d="M76.3925 137.197C76.2119 136.076 75.365 135.578 74.0012 135.796C73.4821 135.858 72.9936 136.075 72.6001 136.419C72.4509 136.561 72.3338 136.734 72.2565 136.925C72.1792 137.116 72.1435 137.321 72.1518 137.527L71.691 137.59C71.4107 136.967 70.7507 136.506 69.2562 136.743C68.6966 136.807 68.165 137.023 67.718 137.365L67.6558 137.44L66.5785 138.219C65.7316 138.841 63.3653 140.709 63.2656 140.79L63.5396 141.133C63.5396 141.133 65.9931 139.165 66.8276 138.573L67.2261 138.287C67.1981 138.479 67.1981 138.674 67.2261 138.866C67.3148 139.415 67.596 139.914 68.0193 140.275C68.4426 140.636 68.9803 140.834 69.5364 140.834C69.6607 140.843 69.7856 140.843 69.91 140.834C70.5231 140.733 71.0712 140.393 71.4342 139.889C71.7972 139.385 71.9455 138.757 71.8466 138.144C71.8496 138.113 71.8496 138.081 71.8466 138.05L72.2078 138.001C72.2892 138.522 72.5481 138.998 72.9408 139.35C73.3335 139.702 73.8357 139.907 74.3624 139.931C74.4661 139.937 74.5701 139.937 74.6738 139.931C74.9573 139.882 75.2274 139.774 75.4666 139.615C75.7058 139.455 75.9088 139.246 76.0624 139.003C76.4032 138.467 76.5216 137.819 76.3925 137.197ZM69.8415 140.311C69.3427 140.392 68.8323 140.271 68.4224 139.976C68.0125 139.68 67.7368 139.234 67.6558 138.735C67.6081 138.538 67.6154 138.332 67.6769 138.139C67.7383 137.945 67.8517 137.773 68.0045 137.639C68.3974 137.382 68.8498 137.23 69.3184 137.197C69.5244 137.164 69.7325 137.145 69.9411 137.141C71.1866 137.141 71.336 137.92 71.3796 138.206C71.4215 138.449 71.4149 138.698 71.3601 138.938C71.3054 139.179 71.2036 139.406 71.0606 139.607C70.9176 139.808 70.7363 139.978 70.527 140.109C70.3178 140.239 70.0848 140.327 69.8415 140.367V140.311ZM75.6763 138.654C75.5565 138.847 75.3975 139.011 75.2097 139.138C75.022 139.264 74.8096 139.35 74.5866 139.389C74.1105 139.436 73.635 139.293 73.2641 138.991C72.8931 138.689 72.6567 138.252 72.6064 137.776C72.5564 137.584 72.5572 137.382 72.6084 137.19C72.6597 136.998 72.7598 136.822 72.899 136.68C73.2331 136.407 73.6403 136.238 74.0697 136.195C74.251 136.166 74.4342 136.151 74.6177 136.151C74.7778 136.13 74.9404 136.142 75.0957 136.186C75.251 136.23 75.3959 136.304 75.5216 136.406C75.6473 136.507 75.7512 136.633 75.827 136.775C75.9028 136.918 75.949 137.074 75.9628 137.235C76.0623 137.745 75.9596 138.274 75.6763 138.71V138.654Z" fill="#FFC000"/>
<path d="M60.177 143.256C60.967 144.169 62.0867 144.731 63.2906 144.819C64.8785 144.925 65.3518 143.43 64.6419 142.098C64.0192 140.902 62.4001 139.408 60.9367 139.918C59.4734 140.429 59.2243 142.129 60.177 143.256Z" fill="#CE7A63"/>
<path d="M59.2744 134.743C57.2443 134.432 54.7846 132.477 57.9355 129.245C59.4674 127.676 61.541 127.196 63.266 126.524C64.3936 126.083 65.4864 125.559 66.5352 124.954L65.103 126.991C65.103 126.991 70.0847 126.007 71.0748 123.578C71.4439 124.268 71.5962 125.053 71.5117 125.831C71.4273 126.608 71.1101 127.343 70.6016 127.937C70.6016 127.937 74.1261 126.847 75.1225 128.267C75.1225 128.267 72.999 128.846 70.832 131.692C68.8517 134.289 62.3194 135.21 59.2744 134.743Z" fill="#263238"/>
<path d="M77.5249 213.131L68.7695 218.748L71.4223 222.708L80.626 218.748L77.5249 213.131Z" fill="#CE7A63"/>
<path d="M69.6601 217.49L73.0913 223.094C73.1541 223.197 73.1804 223.318 73.1657 223.438C73.151 223.558 73.0962 223.669 73.0103 223.754L69.081 227.553C68.9154 227.717 68.6915 227.809 68.4583 227.809C68.225 227.809 68.0012 227.717 67.8356 227.553C67.7914 227.508 67.7537 227.458 67.7235 227.403C66.5216 225.367 65.5315 223.511 63.9872 221.008C62.1751 218.044 62.2809 219.015 60.0952 215.565C58.7813 213.485 60.9296 211.642 61.5897 212.452C64.5974 216.188 66.0857 215.877 68.5081 216.549C68.9934 216.713 69.4029 217.047 69.6601 217.49Z" fill="#263238"/>
<path d="M77.4144 220.641C117.299 207.882 119.722 198.447 114.497 193.702C109.41 189.088 102.572 194.711 96.7746 199.114C92.8328 202.109 80.4595 210.204 73.6719 214.713L77.4144 220.641Z" fill="#FFC000"/>
<path d="M40.418 193.958C41.7548 193.198 42.9736 192.248 44.0359 191.137L44.5279 192.102C44.5279 192.102 44.3971 192.905 41.0594 194.755L40.418 193.958Z" fill="#263238"/>
<path d="M44.2908 192.55C44.2933 192.786 44.2256 193.017 44.0964 193.214C43.9673 193.411 43.7824 193.566 43.5653 193.658C43.3482 193.75 43.1087 193.775 42.8771 193.73C42.6456 193.686 42.4325 193.574 42.2649 193.408C42.0973 193.242 41.9828 193.03 41.9359 192.799C41.889 192.568 41.9118 192.328 42.0014 192.11C42.0911 191.892 42.2435 191.706 42.4394 191.574C42.6352 191.443 42.8657 191.373 43.1014 191.373C43.4147 191.373 43.7154 191.497 43.9381 191.717C44.1608 191.937 44.2875 192.237 44.2908 192.55Z" fill="#FFC000"/>
<path opacity="0.8" d="M44.2171 192.512C44.2183 192.716 44.1589 192.916 44.0465 193.086C43.9341 193.256 43.7737 193.388 43.5857 193.467C43.3977 193.545 43.1906 193.566 42.9907 193.527C42.7908 193.487 42.6071 193.389 42.4631 193.245C42.319 193.101 42.221 192.918 42.1816 192.718C42.1421 192.518 42.163 192.311 42.2415 192.123C42.3201 191.935 42.4527 191.774 42.6226 191.662C42.7925 191.549 42.9921 191.49 43.1958 191.491C43.4667 191.491 43.7264 191.599 43.9179 191.79C44.1095 191.982 44.2171 192.242 44.2171 192.512Z" fill="white"/>
<path d="M115.09 41.2177C115.027 40.3829 114.651 39.6026 114.037 39.0332C113.423 38.4638 112.617 38.1475 111.78 38.1475C110.943 38.1475 110.136 38.4638 109.523 39.0332C108.909 39.6026 108.533 40.3829 108.47 41.2177L108.115 45.4895H115.438L115.09 41.2177ZM111.777 43.447C111.457 43.447 111.144 43.3521 110.877 43.1742C110.611 42.9963 110.404 42.7434 110.281 42.4476C110.158 42.1517 110.126 41.8262 110.189 41.5121C110.251 41.198 110.406 40.9095 110.632 40.6831C110.858 40.4567 111.147 40.3025 111.461 40.24C111.775 40.1775 112.101 40.2096 112.396 40.3321C112.692 40.4547 112.945 40.6622 113.123 40.9285C113.301 41.1947 113.396 41.5077 113.396 41.828C113.397 42.0408 113.355 42.2517 113.274 42.4485C113.193 42.6453 113.074 42.8241 112.923 42.9747C112.773 43.1252 112.594 43.2444 112.397 43.3255C112.201 43.4065 111.99 43.4478 111.777 43.447Z" fill="#FFC000"/>
<path d="M233.037 41.2175C232.965 40.3884 232.585 39.6165 231.971 39.0541C231.358 38.4917 230.556 38.1797 229.724 38.1797C228.892 38.1797 228.09 38.4917 227.477 39.0541C226.863 39.6165 226.483 40.3884 226.411 41.2175L226.062 45.4893H233.386L233.037 41.2175ZM229.724 43.4468C229.404 43.4468 229.091 43.3518 228.825 43.1739C228.558 42.996 228.351 42.7432 228.228 42.4473C228.106 42.1515 228.074 41.8259 228.136 41.5119C228.199 41.1978 228.353 40.9093 228.579 40.6829C228.806 40.4564 229.094 40.3022 229.408 40.2398C229.722 40.1773 230.048 40.2094 230.344 40.3319C230.64 40.4544 230.892 40.662 231.07 40.9282C231.248 41.1945 231.343 41.5075 231.343 41.8277C231.343 42.2571 231.173 42.6689 230.869 42.9726C230.565 43.2762 230.153 43.4468 229.724 43.4468Z" fill="#FFC000"/>
<path d="M252.086 44.8545H88.1934V146.401H252.086V44.8545Z" fill="#263238"/>
<path opacity="0.9" d="M247.895 49.0518H92.3906V142.21H247.895V49.0518Z" fill="white"/>
<path d="M254.023 143.617H86.2637V148.487H254.023V143.617Z" fill="#263238"/>
<path opacity="0.4" d="M254.023 143.617H86.2637V148.487H254.023V143.617Z" fill="white"/>
<path d="M133.186 123.995H99.9082V66.0451L100.207 65.74C104.544 61.4145 110.419 58.9854 116.544 58.9854C122.669 58.9854 128.544 61.4145 132.881 65.74L133.186 66.0451V123.995ZM101.976 121.921H131.112V66.9107C127.194 63.1524 121.974 61.054 116.544 61.054C111.114 61.054 105.895 63.1524 101.976 66.9107V121.921Z" fill="#263238"/>
<g opacity="0.8">
<path d="M133.186 123.995H99.9082V66.0451L100.207 65.74C104.544 61.4145 110.419 58.9854 116.544 58.9854C122.669 58.9854 128.544 61.4145 132.881 65.74L133.186 66.0451V123.995ZM101.976 121.921H131.112V66.9107C127.194 63.1524 121.974 61.054 116.544 61.054C111.114 61.054 105.895 63.1524 101.976 66.9107V121.921Z" fill="white"/>
</g>
<path d="M132.152 122.962H100.941V66.469L101.259 66.1638C105.364 62.2088 110.846 60.0048 116.547 60.0176C122.247 60.0048 127.729 62.2088 131.834 66.1638L132.152 66.469V122.962ZM103.009 120.888H130.078V67.3345C126.383 63.9502 121.554 62.073 116.544 62.073C111.533 62.073 106.704 63.9502 103.009 67.3345V120.888Z" fill="#263238"/>
<g opacity="0.7">
<path d="M132.152 122.962H100.941V66.469L101.259 66.1638C105.364 62.2088 110.846 60.0048 116.547 60.0176C122.247 60.0048 127.729 62.2088 131.834 66.1638L132.152 66.469V122.962ZM103.009 120.888H130.078V67.3345C126.383 63.9502 121.554 62.073 116.544 62.073C111.533 62.073 106.704 63.9502 103.009 67.3345V120.888Z" fill="white"/>
</g>
<path d="M130.469 76.5256V74.9688H117.324V61.8232H115.767V74.9688H102.615V76.5256H115.767V90.7048H102.615V92.2616H115.767V106.447H102.615V107.998H115.767V121.149H117.324V107.998H130.469V106.447H117.324V92.2616H130.469V90.7048H117.324V76.5256H130.469Z" fill="#263238"/>
<path opacity="0.9" d="M130.469 76.5256V74.9688H117.324V61.8232H115.767V74.9688H102.615V76.5256H115.767V90.7048H102.615V92.2616H115.767V106.447H102.615V107.998H115.767V121.149H117.324V107.998H130.469V106.447H117.324V92.2616H130.469V90.7048H117.324V76.5256H130.469Z" fill="white"/>
<path d="M147.919 72.5586H146.936V129.282H147.919V72.5586Z" fill="#263238"/>
<path opacity="0.7" d="M147.919 72.5586H146.936V129.282H147.919V72.5586Z" fill="white"/>
<path d="M146.131 65.2852C146.137 64.9538 146.015 64.6328 145.792 64.3878C145.569 64.1427 145.26 63.9922 144.93 63.9667C144.599 63.9413 144.272 64.043 144.013 64.2509C143.755 64.4589 143.586 64.7576 143.541 65.086C143.005 69.856 142.466 74.6301 141.922 79.4084C141.841 80.0934 142.619 80.741 143.659 80.822C144.699 80.9029 145.565 80.3736 145.59 79.6824L146.131 65.2852Z" fill="#FFC000"/>
<path d="M151.319 65.086C151.274 64.7576 151.105 64.4589 150.847 64.2509C150.588 64.043 150.261 63.9413 149.93 63.9667C149.6 63.9922 149.291 64.1427 149.068 64.3878C148.845 64.6328 148.723 64.9538 148.729 65.2852L149.27 79.6762C149.27 80.3674 150.161 80.9216 151.201 80.8158C152.241 80.7099 153.019 80.0872 152.938 79.4022C152.407 74.6322 151.867 69.8601 151.319 65.086Z" fill="#FFC000"/>
<g opacity="0.7">
<path d="M146.131 65.2852C146.137 64.9538 146.015 64.6328 145.792 64.3878C145.569 64.1427 145.26 63.9922 144.93 63.9667C144.599 63.9413 144.272 64.043 144.013 64.2509C143.755 64.4589 143.586 64.7576 143.541 65.086C143.005 69.856 142.466 74.6301 141.922 79.4084C141.841 80.0934 142.619 80.741 143.659 80.822C144.699 80.9029 145.565 80.3736 145.59 79.6824L146.131 65.2852Z" fill="white"/>
<path d="M151.319 65.086C151.274 64.7576 151.105 64.4589 150.847 64.2509C150.588 64.043 150.261 63.9413 149.93 63.9667C149.6 63.9922 149.291 64.1427 149.068 64.3878C148.845 64.6328 148.723 64.9538 148.729 65.2852L149.27 79.6762C149.27 80.3674 150.161 80.9216 151.201 80.8158C152.241 80.7099 153.019 80.0872 152.938 79.4022C152.407 74.6322 151.867 69.8601 151.319 65.086Z" fill="white"/>
</g>
<path d="M143.541 65.0867C143.577 64.753 143.482 64.4183 143.277 64.1526C143.072 63.8869 142.772 63.7107 142.44 63.6609C142.108 63.6111 141.77 63.6914 141.495 63.8852C141.221 64.0789 141.033 64.3711 140.969 64.7006C140.072 69.4125 139.173 74.1285 138.273 78.8487C138.142 79.5213 138.895 80.2311 139.904 80.3931C140.913 80.555 141.841 80.0879 141.922 79.4029C142.466 74.6329 143.005 69.8609 143.541 65.0867Z" fill="#FFC000"/>
<path d="M148.728 65.2857C148.706 64.9569 148.559 64.649 148.318 64.4241C148.077 64.1993 147.76 64.0742 147.43 64.0742C147.1 64.0742 146.783 64.1993 146.542 64.4241C146.301 64.649 146.154 64.9569 146.132 65.2857L145.59 79.6767C145.59 80.3679 146.387 80.9595 147.458 80.9595C148.529 80.9595 149.326 80.3679 149.326 79.6767L148.728 65.2857Z" fill="#FFC000"/>
<path d="M153.89 64.7006C153.826 64.3711 153.637 64.0789 153.363 63.8852C153.089 63.6914 152.751 63.6111 152.419 63.6609C152.087 63.7107 151.787 63.8869 151.582 64.1526C151.377 64.4183 151.282 64.753 151.318 65.0867C151.854 69.8567 152.393 74.6309 152.937 79.4092C153.018 80.0942 153.921 80.555 154.955 80.3993C155.988 80.2436 156.717 79.5275 156.586 78.8549C155.698 74.1306 154.799 69.4125 153.89 64.7006Z" fill="#FFC000"/>
<g opacity="0.4">
<path d="M143.541 65.0867C143.577 64.753 143.482 64.4183 143.277 64.1526C143.072 63.8869 142.772 63.7107 142.44 63.6609C142.108 63.6111 141.77 63.6914 141.495 63.8852C141.221 64.0789 141.033 64.3711 140.969 64.7006C140.072 69.4125 139.173 74.1285 138.273 78.8487C138.142 79.5213 138.895 80.2311 139.904 80.3931C140.913 80.555 141.841 80.0879 141.922 79.4029C142.466 74.6329 143.005 69.8609 143.541 65.0867Z" fill="white"/>
<path d="M148.728 65.2857C148.706 64.9569 148.559 64.649 148.318 64.4241C148.077 64.1993 147.76 64.0742 147.43 64.0742C147.1 64.0742 146.783 64.1993 146.542 64.4241C146.301 64.649 146.154 64.9569 146.132 65.2857L145.59 79.6767C145.59 80.3679 146.387 80.9595 147.458 80.9595C148.529 80.9595 149.326 80.3679 149.326 79.6767L148.728 65.2857Z" fill="white"/>
<path d="M153.89 64.7006C153.826 64.3711 153.637 64.0789 153.363 63.8852C153.089 63.6914 152.751 63.6111 152.419 63.6609C152.087 63.7107 151.787 63.8869 151.582 64.1526C151.377 64.4183 151.282 64.753 151.318 65.0867C151.854 69.8567 152.393 74.6309 152.937 79.4092C153.018 80.0942 153.921 80.555 154.955 80.3993C155.988 80.2436 156.717 79.5275 156.586 78.8549C155.698 74.1306 154.799 69.4125 153.89 64.7006Z" fill="white"/>
</g>
<path d="M154.674 129.344C154.693 129.146 154.669 128.947 154.605 128.759C154.541 128.57 154.439 128.398 154.303 128.252C154.168 128.106 154.004 127.991 153.821 127.913C153.638 127.835 153.441 127.797 153.242 127.8H141.616C141.417 127.797 141.22 127.835 141.037 127.913C140.854 127.991 140.69 128.106 140.555 128.252C140.42 128.398 140.317 128.57 140.253 128.759C140.189 128.947 140.165 129.146 140.184 129.344H154.674Z" fill="#263238"/>
<path opacity="0.5" d="M154.674 129.344C154.693 129.146 154.669 128.947 154.605 128.759C154.541 128.57 154.439 128.398 154.303 128.252C154.168 128.106 154.004 127.991 153.821 127.913C153.638 127.835 153.441 127.797 153.242 127.8H141.616C141.417 127.797 141.22 127.835 141.037 127.913C140.854 127.991 140.69 128.106 140.555 128.252C140.42 128.398 140.317 128.57 140.253 128.759C140.189 128.947 140.165 129.146 140.184 129.344H154.674Z" fill="white"/>
<path d="M212.058 93.9805H196.583C196.288 93.9898 196.005 94.1039 195.786 94.3024C195.567 94.5009 195.426 94.7709 195.388 95.064L192.897 118.522C192.879 118.659 192.891 118.798 192.932 118.93C192.972 119.062 193.041 119.184 193.134 119.287C193.226 119.39 193.339 119.471 193.466 119.526C193.593 119.581 193.73 119.608 193.868 119.605H209.368L212.058 93.9805Z" fill="#FFC000"/>
<path opacity="0.6" d="M212.058 93.9805H196.583C196.288 93.9898 196.005 94.1039 195.786 94.3024C195.567 94.5009 195.426 94.7709 195.388 95.064L192.897 118.522C192.879 118.659 192.891 118.798 192.932 118.93C192.972 119.062 193.041 119.184 193.134 119.287C193.226 119.39 193.339 119.471 193.466 119.526C193.593 119.581 193.73 119.608 193.868 119.605H209.368L212.058 93.9805Z" fill="white"/>
<path d="M176.515 117.463C176.595 116.722 178.682 96.8639 178.756 96.1166C178.828 95.5356 179.107 94.9999 179.541 94.6076C179.976 94.2153 180.537 93.9928 181.123 93.9807H194.424C194.562 93.9776 194.699 94.0045 194.825 94.0595C194.952 94.1146 195.065 94.1964 195.157 94.2995C195.249 94.4025 195.317 94.5243 195.357 94.6563C195.397 94.7884 195.408 94.9275 195.389 95.0642L192.898 118.522C192.86 118.815 192.719 119.085 192.5 119.283C192.28 119.482 191.998 119.596 191.703 119.605H178.426C178.152 119.615 177.88 119.564 177.628 119.456C177.376 119.348 177.151 119.187 176.968 118.982C176.786 118.778 176.651 118.536 176.572 118.273C176.494 118.011 176.474 117.734 176.515 117.463Z" fill="#FFC000"/>
<path opacity="0.5" d="M176.515 117.463C176.595 116.722 178.682 96.8639 178.756 96.1166C178.828 95.5356 179.107 94.9999 179.541 94.6076C179.976 94.2153 180.537 93.9928 181.123 93.9807H194.424C194.562 93.9776 194.699 94.0045 194.825 94.0595C194.952 94.1146 195.065 94.1964 195.157 94.2995C195.249 94.4025 195.317 94.5243 195.357 94.6563C195.397 94.7884 195.408 94.9275 195.389 95.0642L192.898 118.522C192.86 118.815 192.719 119.085 192.5 119.283C192.28 119.482 191.998 119.596 191.703 119.605H178.426C178.152 119.615 177.88 119.564 177.628 119.456C177.376 119.348 177.151 119.187 176.968 118.982C176.786 118.778 176.651 118.536 176.572 118.273C176.494 118.011 176.474 117.734 176.515 117.463Z" fill="white"/>
<path d="M209.698 96.0979C209.769 95.5179 210.047 94.983 210.48 94.5909C210.914 94.1987 211.474 93.9755 212.058 93.962C212.331 93.9528 212.603 94.0036 212.854 94.111C213.106 94.2183 213.331 94.3795 213.513 94.5832C213.695 94.7869 213.831 95.0281 213.909 95.2898C213.988 95.5515 214.009 95.8274 213.97 96.0979C213.876 97.0195 211.827 116.529 211.728 117.445C211.658 118.026 211.38 118.562 210.947 118.956C210.513 119.349 209.953 119.573 209.368 119.587C209.094 119.596 208.821 119.545 208.569 119.437C208.317 119.33 208.092 119.168 207.91 118.964C207.727 118.759 207.592 118.517 207.514 118.255C207.435 117.992 207.416 117.716 207.456 117.445C207.562 116.722 209.617 96.8639 209.698 96.0979Z" fill="#FFC000"/>
<path opacity="0.4" d="M209.698 96.0979C209.769 95.5179 210.047 94.983 210.48 94.5909C210.914 94.1987 211.474 93.9755 212.058 93.962C212.331 93.9528 212.603 94.0036 212.854 94.111C213.106 94.2183 213.331 94.3795 213.513 94.5832C213.695 94.7869 213.831 95.0281 213.909 95.2898C213.988 95.5515 214.009 95.8274 213.97 96.0979C213.876 97.0195 211.827 116.529 211.728 117.445C211.658 118.026 211.38 118.562 210.947 118.956C210.513 119.349 209.953 119.573 209.368 119.587C209.094 119.596 208.821 119.545 208.569 119.437C208.317 119.33 208.092 119.168 207.91 118.964C207.727 118.759 207.592 118.517 207.514 118.255C207.435 117.992 207.416 117.716 207.456 117.445C207.562 116.722 209.617 96.8639 209.698 96.0979Z" fill="white"/>
<path d="M173.313 103.707H159.084C157.978 103.749 156.932 104.218 156.165 105.015C155.397 105.812 154.969 106.876 154.969 107.982C154.969 109.089 155.397 110.152 156.165 110.949C156.932 111.746 157.978 112.215 159.084 112.257V128.124C159.085 128.442 159.212 128.747 159.437 128.972C159.662 129.197 159.967 129.324 160.285 129.326H176.426C176.584 129.326 176.74 129.295 176.886 129.234C177.032 129.174 177.164 129.085 177.276 128.974C177.388 128.862 177.476 128.73 177.537 128.584C177.597 128.438 177.628 128.282 177.628 128.124V107.979C177.628 107.414 177.516 106.855 177.299 106.334C177.081 105.813 176.763 105.34 176.362 104.943C175.96 104.546 175.484 104.232 174.961 104.02C174.437 103.808 173.877 103.701 173.313 103.707Z" fill="#FFC000"/>
<path opacity="0.3" d="M173.313 103.707H159.084C157.978 103.749 156.932 104.218 156.165 105.015C155.397 105.812 154.969 106.876 154.969 107.982C154.969 109.089 155.397 110.152 156.165 110.949C156.932 111.746 157.978 112.215 159.084 112.257V128.124C159.085 128.442 159.212 128.747 159.437 128.972C159.662 129.197 159.967 129.324 160.285 129.326H176.426C176.584 129.326 176.74 129.295 176.886 129.234C177.032 129.174 177.164 129.085 177.276 128.974C177.388 128.862 177.476 128.73 177.537 128.584C177.597 128.438 177.628 128.282 177.628 128.124V107.979C177.628 107.414 177.516 106.855 177.299 106.334C177.081 105.813 176.763 105.34 176.362 104.943C175.96 104.546 175.484 104.232 174.961 104.02C174.437 103.808 173.877 103.701 173.313 103.707Z" fill="white"/>
<path d="M159.084 103.707C157.978 103.749 156.932 104.218 156.165 105.015C155.397 105.812 154.969 106.876 154.969 107.982C154.969 109.088 155.397 110.152 156.165 110.949C156.932 111.746 157.978 112.215 159.084 112.257V128.124C159.085 128.442 159.212 128.747 159.437 128.972C159.662 129.197 159.967 129.324 160.285 129.326H162.154C162.472 129.324 162.777 129.197 163.002 128.972C163.227 128.747 163.354 128.442 163.355 128.124V107.979C163.354 106.846 162.903 105.761 162.102 104.96C161.302 104.159 160.216 103.709 159.084 103.707Z" fill="#FFC000"/>
<path opacity="0.7" d="M159.084 103.707C157.978 103.749 156.932 104.218 156.165 105.015C155.397 105.812 154.969 106.876 154.969 107.982C154.969 109.088 155.397 110.152 156.165 110.949C156.932 111.746 157.978 112.215 159.084 112.257V128.124C159.085 128.442 159.212 128.747 159.437 128.972C159.662 129.197 159.967 129.324 160.285 129.326H162.154C162.472 129.324 162.777 129.197 163.002 128.972C163.227 128.747 163.354 128.442 163.355 128.124V107.979C163.354 106.846 162.903 105.761 162.102 104.96C161.302 104.159 160.216 103.709 159.084 103.707Z" fill="white"/>
<path d="M170.355 129.326H204.181C206.578 129.326 208.521 127.383 208.521 124.986V121.592C208.521 119.195 206.578 117.252 204.181 117.252H170.355C167.958 117.252 166.015 119.195 166.015 121.592V124.986C166.015 127.383 167.958 129.326 170.355 129.326Z" fill="#FFC000"/>
<path opacity="0.4" d="M170.355 129.326H204.181C206.578 129.326 208.521 127.383 208.521 124.986V121.592C208.521 119.195 206.578 117.252 204.181 117.252H170.355C167.958 117.252 166.015 119.195 166.015 121.592V124.986C166.015 127.383 167.958 129.326 170.355 129.326Z" fill="white"/>
<path d="M196.472 117.27C196.472 116.646 196.224 116.047 195.783 115.606C195.341 115.164 194.742 114.916 194.118 114.916H182.287C181.976 114.914 181.668 114.973 181.38 115.09C181.092 115.207 180.831 115.38 180.61 115.599C180.39 115.818 180.214 116.078 180.095 116.365C179.976 116.652 179.914 116.959 179.914 117.27C179.914 117.894 180.162 118.493 180.603 118.934C181.045 119.376 181.644 119.624 182.268 119.624H194.1C194.41 119.626 194.718 119.567 195.006 119.45C195.294 119.333 195.555 119.16 195.776 118.941C195.997 118.722 196.172 118.462 196.291 118.175C196.411 117.888 196.472 117.581 196.472 117.27Z" fill="#FFC000"/>
<path opacity="0.5" d="M196.472 117.27C196.472 116.646 196.224 116.047 195.783 115.606C195.341 115.164 194.742 114.916 194.118 114.916H182.287C181.976 114.914 181.668 114.973 181.38 115.09C181.092 115.207 180.831 115.38 180.61 115.599C180.39 115.818 180.214 116.078 180.095 116.365C179.976 116.652 179.914 116.959 179.914 117.27C179.914 117.894 180.162 118.493 180.603 118.934C181.045 119.376 181.644 119.624 182.268 119.624H194.1C194.41 119.626 194.718 119.567 195.006 119.45C195.294 119.333 195.555 119.16 195.776 118.941C195.997 118.722 196.172 118.462 196.291 118.175C196.411 117.888 196.472 117.581 196.472 117.27Z" fill="white"/>
<path d="M179.914 117.27C179.914 116.646 179.666 116.047 179.224 115.606C178.783 115.164 178.184 114.916 177.56 114.916H165.728C165.417 114.912 165.108 114.97 164.819 115.086C164.53 115.203 164.267 115.376 164.046 115.595C163.825 115.814 163.649 116.075 163.529 116.363C163.41 116.65 163.349 116.959 163.35 117.27C163.349 117.579 163.409 117.885 163.527 118.17C163.644 118.456 163.817 118.715 164.035 118.934C164.253 119.153 164.512 119.326 164.797 119.445C165.083 119.563 165.388 119.624 165.697 119.624H177.529C177.841 119.628 178.15 119.57 178.439 119.454C178.728 119.337 178.992 119.165 179.213 118.946C179.435 118.727 179.612 118.466 179.732 118.178C179.852 117.89 179.914 117.582 179.914 117.27Z" fill="#FFC000"/>
<path opacity="0.6" d="M179.914 117.27C179.914 116.646 179.666 116.047 179.224 115.606C178.783 115.164 178.184 114.916 177.56 114.916H165.728C165.417 114.912 165.108 114.97 164.819 115.086C164.53 115.203 164.267 115.376 164.046 115.595C163.825 115.814 163.649 116.075 163.529 116.363C163.41 116.65 163.349 116.959 163.35 117.27C163.349 117.579 163.409 117.885 163.527 118.17C163.644 118.456 163.817 118.715 164.035 118.934C164.253 119.153 164.512 119.326 164.797 119.445C165.083 119.563 165.388 119.624 165.697 119.624H177.529C177.841 119.628 178.15 119.57 178.439 119.454C178.728 119.337 178.992 119.165 179.213 118.946C179.435 118.727 179.612 118.466 179.732 118.178C179.852 117.89 179.914 117.582 179.914 117.27Z" fill="white"/>
<path d="M200.744 103.707H214.986C215.561 103.685 216.135 103.78 216.673 103.985C217.21 104.189 217.701 104.501 218.116 104.9C218.531 105.299 218.86 105.778 219.086 106.307C219.311 106.837 219.427 107.407 219.427 107.982C219.427 108.558 219.311 109.127 219.086 109.657C218.86 110.187 218.531 110.665 218.116 111.064C217.701 111.463 217.21 111.775 216.673 111.98C216.135 112.185 215.561 112.279 214.986 112.257V128.124C214.986 128.443 214.859 128.748 214.634 128.974C214.409 129.199 214.103 129.326 213.784 129.326H197.668C197.351 129.324 197.047 129.197 196.822 128.972C196.598 128.746 196.473 128.442 196.473 128.124V107.979C196.473 107.418 196.583 106.863 196.798 106.344C197.013 105.826 197.327 105.355 197.724 104.958C198.121 104.562 198.591 104.247 199.11 104.032C199.628 103.818 200.183 103.707 200.744 103.707Z" fill="#FFC000"/>
<path opacity="0.3" d="M200.744 103.707H214.986C215.561 103.685 216.135 103.78 216.673 103.985C217.21 104.189 217.701 104.501 218.116 104.9C218.531 105.299 218.86 105.778 219.086 106.307C219.311 106.837 219.427 107.407 219.427 107.982C219.427 108.558 219.311 109.127 219.086 109.657C218.86 110.187 218.531 110.665 218.116 111.064C217.701 111.463 217.21 111.775 216.673 111.98C216.135 112.185 215.561 112.279 214.986 112.257V128.124C214.986 128.443 214.859 128.748 214.634 128.974C214.409 129.199 214.103 129.326 213.784 129.326H197.668C197.351 129.324 197.047 129.197 196.822 128.972C196.598 128.746 196.473 128.442 196.473 128.124V107.979C196.473 107.418 196.583 106.863 196.798 106.344C197.013 105.826 197.327 105.355 197.724 104.958C198.121 104.562 198.591 104.247 199.11 104.032C199.628 103.818 200.183 103.707 200.744 103.707Z" fill="white"/>
<path d="M200.744 103.707C201.85 103.749 202.896 104.218 203.663 105.015C204.43 105.812 204.859 106.876 204.859 107.982C204.859 109.088 204.43 110.152 203.663 110.949C202.896 111.746 201.85 112.215 200.744 112.257V128.124C200.744 128.442 200.617 128.748 200.392 128.974C200.167 129.199 199.861 129.326 199.542 129.326H197.674C197.356 129.324 197.052 129.197 196.828 128.971C196.604 128.746 196.479 128.441 196.479 128.124V107.979C196.479 106.847 196.928 105.761 197.728 104.96C198.527 104.159 199.612 103.709 200.744 103.707Z" fill="#FFC000"/>
<path opacity="0.7" d="M200.744 103.707C201.85 103.749 202.896 104.218 203.663 105.015C204.43 105.812 204.859 106.876 204.859 107.982C204.859 109.088 204.43 110.152 203.663 110.949C202.896 111.746 201.85 112.215 200.744 112.257V128.124C200.744 128.442 200.617 128.748 200.392 128.974C200.167 129.199 199.861 129.326 199.542 129.326H197.674C197.356 129.324 197.052 129.197 196.828 128.971C196.604 128.746 196.479 128.441 196.479 128.124V107.979C196.479 106.847 196.928 105.761 197.728 104.96C198.527 104.159 199.612 103.709 200.744 103.707Z" fill="white"/>
<path d="M205.016 107.979H219.264C219.262 109.114 218.811 110.201 218.009 111.003C217.207 111.805 216.12 112.256 214.986 112.258H200.744C201.878 112.256 202.964 111.804 203.765 111.002C204.566 110.2 205.016 109.113 205.016 107.979Z" fill="#FFC000"/>
<g opacity="0.2">
<path d="M205.016 107.979H219.264C219.262 109.114 218.811 110.201 218.009 111.003C217.207 111.805 216.12 112.256 214.986 112.258H200.744C201.878 112.256 202.964 111.804 203.765 111.002C204.566 110.2 205.016 109.113 205.016 107.979Z" fill="white"/>
</g>
<path d="M195.071 80.2432H209.506V62.4771H195.071V80.2432Z" fill="#FFC000"/>
<path d="M178.949 76.4824H193.377V66.2325H178.949V76.4824Z" fill="#FFC000"/>
<path d="M223.827 66.9238H211.342V75.7913H223.827V66.9238Z" fill="#FFC000"/>
<path opacity="0.3" d="M195.071 80.2432H209.506V62.4771H195.071V80.2432Z" fill="white"/>
<path opacity="0.3" d="M178.949 76.4824H193.377V66.2325H178.949V76.4824Z" fill="white"/>
<path opacity="0.3" d="M223.827 66.9238H211.342V75.7913H223.827V66.9238Z" fill="white"/>
<path opacity="0.8" d="M197.131 77.7021H207.443V65.0112H197.131V77.7021Z" fill="#EBEBEB"/>
<path opacity="0.8" d="M180.051 75.417H192.281V67.2968H180.051V75.417Z" fill="#FAFAFA"/>
<path opacity="0.8" d="M221.555 68.7168H213.609V73.9912H221.555V68.7168Z" fill="#FAFAFA"/>
<path d="M225.447 117.146L222.29 110.782C222.29 110.782 225.796 112.749 225.441 110.122C225.086 107.494 223.903 109.717 223.28 108.808C222.657 107.898 224.581 107.668 223.716 106.279C222.85 104.891 221.225 107.4 220.727 106.136C220.229 104.872 219.593 104.268 218.236 104.573C218.236 104.573 217.7 106.385 218.784 107.512C219.867 108.639 216.53 108.048 217.015 109.256C217.501 110.464 218.709 111.417 219.07 110.501C219.432 109.586 220.247 111.174 219.494 111.709C218.74 112.245 220.845 113.889 221.125 112.849C221.325 112.158 221.596 111.491 221.935 110.856L224.974 117.706L225.447 117.146Z" fill="#FFC000"/>
<path d="M227.152 116.647L230.484 109.225C230.484 109.225 226.561 111.634 226.853 108.602C227.146 105.569 228.591 108.072 229.263 107.008C229.936 105.943 227.725 105.762 228.641 104.131C229.556 102.499 231.536 105.301 232.059 103.832C232.582 102.362 233.267 101.659 234.862 101.964C234.862 101.964 235.553 104.012 234.363 105.351C233.174 106.69 236.966 105.862 236.462 107.269C235.958 108.677 234.594 109.816 234.164 108.757C233.734 107.699 232.856 109.573 233.741 110.159C234.625 110.744 232.29 112.712 231.922 111.535C231.661 110.753 231.321 110 230.907 109.287L227.744 117.27L227.152 116.647Z" fill="#FFC000"/>
<path opacity="0.2" d="M227.152 116.647L230.484 109.225C230.484 109.225 226.561 111.634 226.853 108.602C227.146 105.569 228.591 108.072 229.263 107.008C229.936 105.943 227.725 105.762 228.641 104.131C229.556 102.499 231.536 105.301 232.059 103.832C232.582 102.362 233.267 101.659 234.862 101.964C234.862 101.964 235.553 104.012 234.363 105.351C233.174 106.69 236.966 105.862 236.462 107.269C235.958 108.677 234.594 109.816 234.164 108.757C233.734 107.699 232.856 109.573 233.741 110.159C234.625 110.744 232.29 112.712 231.922 111.535C231.661 110.753 231.321 110 230.907 109.287L227.744 117.27L227.152 116.647Z" fill="white"/>
<path d="M225.622 117.351L226.138 106.023C226.138 106.023 222.284 111.155 221.107 107.082C219.93 103.01 223.093 105.507 223.417 103.775C223.741 102.044 220.783 102.941 221.144 100.357C221.505 97.7725 225.503 100.394 225.422 98.2208C225.341 96.0476 225.877 94.7772 228.081 94.3164C228.081 94.3164 230.03 96.6267 229.177 98.9681C228.324 101.31 232.814 98.3018 232.882 100.375C232.951 102.449 231.799 104.629 230.672 103.489C229.545 102.349 229.389 105.22 230.827 105.519C232.266 105.818 230.267 109.579 229.184 108.24C228.438 107.359 227.603 106.558 226.693 105.849V117.811L225.622 117.351Z" fill="#FFC000"/>
<path opacity="0.5" d="M225.622 117.351L226.138 106.023C226.138 106.023 222.284 111.155 221.107 107.082C219.93 103.01 223.093 105.507 223.417 103.775C223.741 102.044 220.783 102.941 221.144 100.357C221.505 97.7725 225.503 100.394 225.422 98.2208C225.341 96.0476 225.877 94.7772 228.081 94.3164C228.081 94.3164 230.03 96.6267 229.177 98.9681C228.324 101.31 232.814 98.3018 232.882 100.375C232.951 102.449 231.799 104.629 230.672 103.489C229.545 102.349 229.389 105.22 230.827 105.519C232.266 105.818 230.267 109.579 229.184 108.24C228.438 107.359 227.603 106.558 226.693 105.849V117.811L225.622 117.351Z" fill="white"/>
<path d="M222.793 129.326H229.462C229.687 129.325 229.903 129.239 230.067 129.085C230.231 128.932 230.331 128.722 230.347 128.498L231.05 116.99C231.057 116.87 231.039 116.75 230.998 116.637C230.957 116.525 230.894 116.422 230.812 116.334C230.73 116.247 230.631 116.177 230.521 116.129C230.411 116.081 230.292 116.056 230.172 116.056H222.077C221.957 116.055 221.837 116.08 221.727 116.127C221.616 116.175 221.516 116.245 221.433 116.332C221.351 116.419 221.287 116.523 221.245 116.636C221.204 116.749 221.186 116.869 221.193 116.99L221.915 128.479C221.923 128.706 222.019 128.922 222.183 129.08C222.347 129.238 222.566 129.326 222.793 129.326Z" fill="#FFC000"/>
<path opacity="0.5" d="M222.793 129.326H229.462C229.687 129.325 229.903 129.239 230.067 129.085C230.231 128.932 230.331 128.722 230.347 128.498L231.05 116.99C231.057 116.87 231.039 116.75 230.998 116.637C230.957 116.525 230.894 116.422 230.812 116.334C230.73 116.247 230.631 116.177 230.521 116.129C230.411 116.081 230.292 116.056 230.172 116.056H222.077C221.957 116.055 221.837 116.08 221.727 116.127C221.616 116.175 221.516 116.245 221.433 116.332C221.351 116.419 221.287 116.523 221.245 116.636C221.204 116.749 221.186 116.869 221.193 116.99L221.915 128.479C221.923 128.706 222.019 128.922 222.183 129.08C222.347 129.238 222.566 129.326 222.793 129.326Z" fill="white"/>
<path d="M231.052 115.589H221.294C220.809 115.589 220.416 115.982 220.416 116.467V116.473C220.416 116.958 220.809 117.351 221.294 117.351H231.052C231.537 117.351 231.93 116.958 231.93 116.473V116.467C231.93 115.982 231.537 115.589 231.052 115.589Z" fill="#263238"/>
<path opacity="0.5" d="M231.052 115.589H221.294C220.809 115.589 220.416 115.982 220.416 116.467V116.473C220.416 116.958 220.809 117.351 221.294 117.351H231.052C231.537 117.351 231.93 116.958 231.93 116.473V116.467C231.93 115.982 231.537 115.589 231.052 115.589Z" fill="white"/>
<path d="M173.388 185.021H145.098V221.58H173.388V185.021Z" fill="#FFC000"/>
<path opacity="0.4" d="M173.388 185.021H145.098V221.58H173.388V185.021Z" fill="white"/>
<path d="M162.341 203.976C162.384 204.409 162.336 204.846 162.2 205.26C162.064 205.673 161.843 206.053 161.551 206.376C161.26 206.698 160.903 206.956 160.506 207.133C160.108 207.309 159.678 207.401 159.242 207.401C158.807 207.401 158.377 207.309 157.979 207.133C157.582 206.956 157.225 206.698 156.934 206.376C156.642 206.053 156.421 205.673 156.285 205.26C156.149 204.846 156.101 204.409 156.144 203.976C156.144 202.264 159.258 195.47 159.258 195.47C159.258 195.47 162.341 202.264 162.341 203.976Z" fill="#263238"/>
<path opacity="0.8" d="M161.593 203.988C161.612 204.089 161.609 204.193 161.586 204.292C161.562 204.392 161.519 204.486 161.457 204.568C161.396 204.649 161.318 204.718 161.229 204.768C161.14 204.818 161.041 204.85 160.939 204.86C160.837 204.87 160.735 204.86 160.637 204.828C160.54 204.797 160.45 204.746 160.373 204.678C160.296 204.61 160.235 204.527 160.192 204.434C160.149 204.341 160.126 204.24 160.123 204.138C160.086 203.733 160.503 200.514 160.503 200.514C160.503 200.514 161.556 203.584 161.593 203.988Z" fill="white"/>
<path d="M175.181 186.621L173.225 187.717C172.746 187.986 172.208 188.134 171.659 188.147C171.11 188.16 170.566 188.038 170.074 187.792C169.607 187.555 169.091 187.432 168.567 187.432C168.044 187.432 167.527 187.555 167.06 187.792L166.973 187.835C166.505 188.069 165.989 188.191 165.466 188.191C164.943 188.191 164.427 188.069 163.959 187.835L163.878 187.792C163.41 187.555 162.893 187.432 162.368 187.432C161.844 187.432 161.326 187.555 160.858 187.792L160.777 187.835C160.309 188.069 159.793 188.191 159.27 188.191C158.747 188.191 158.231 188.069 157.763 187.835L157.676 187.792C157.209 187.555 156.693 187.432 156.169 187.432C155.645 187.432 155.129 187.555 154.662 187.792L154.575 187.835C154.107 188.069 153.591 188.191 153.068 188.191C152.545 188.191 152.029 188.069 151.561 187.835L151.474 187.792C151.007 187.555 150.49 187.432 149.967 187.432C149.443 187.432 148.927 187.555 148.46 187.792C147.968 188.038 147.424 188.16 146.875 188.147C146.326 188.134 145.788 187.986 145.309 187.717L143.354 186.621V183.396H175.181V186.621Z" fill="#263238"/>
<path d="M173.387 194.063V196.354C177.229 204.879 176.463 205.695 176.351 205.763C175.174 206.498 166.798 197.519 158.08 186.173L157.314 186.758C157.358 186.814 161.462 192.145 165.821 197.22C172.901 205.452 175.261 206.779 176.257 206.779C176.48 206.783 176.699 206.716 176.88 206.585C177.833 206.006 178.07 204.051 173.387 194.063Z" fill="#263238"/>
<path opacity="0.5" d="M173.387 194.063V196.354C177.229 204.879 176.463 205.695 176.351 205.763C175.174 206.498 166.798 197.519 158.08 186.173L157.314 186.758C157.358 186.814 161.462 192.145 165.821 197.22C172.901 205.452 175.261 206.779 176.257 206.779C176.48 206.783 176.699 206.716 176.88 206.585C177.833 206.006 178.07 204.051 173.387 194.063Z" fill="white"/>
<path d="M141.404 219.239H118.015C117.85 219.239 117.692 219.173 117.575 219.057C117.458 218.94 117.393 218.782 117.393 218.616C117.393 218.451 117.458 218.293 117.575 218.176C117.692 218.059 117.85 217.994 118.015 217.994H141.404C141.643 217.992 141.871 217.896 142.039 217.727C142.207 217.558 142.301 217.329 142.301 217.091V215.658C142.3 214.377 141.792 213.148 140.888 212.24L132.014 203.366C130.877 202.224 130.238 200.68 130.233 199.069H131.478C131.484 200.35 131.991 201.578 132.892 202.488L141.766 211.356C142.905 212.498 143.545 214.045 143.547 215.658V217.072C143.549 217.355 143.496 217.636 143.389 217.898C143.283 218.161 143.125 218.4 142.926 218.601C142.727 218.802 142.49 218.963 142.229 219.072C141.968 219.181 141.688 219.238 141.404 219.239Z" fill="#263238"/>
<g opacity="0.5">
<path d="M141.404 219.239H118.015C117.85 219.239 117.692 219.173 117.575 219.057C117.458 218.94 117.393 218.782 117.393 218.616C117.393 218.451 117.458 218.293 117.575 218.176C117.692 218.059 117.85 217.994 118.015 217.994H141.404C141.643 217.992 141.871 217.896 142.039 217.727C142.207 217.558 142.301 217.329 142.301 217.091V215.658C142.3 214.377 141.792 213.148 140.888 212.24L132.014 203.366C130.877 202.224 130.238 200.68 130.233 199.069H131.478C131.484 200.35 131.991 201.578 132.892 202.488L141.766 211.356C142.905 212.498 143.545 214.045 143.547 215.658V217.072C143.549 217.355 143.496 217.636 143.389 217.898C143.283 218.161 143.125 218.4 142.926 218.601C142.727 218.802 142.49 218.963 142.229 219.072C141.968 219.181 141.688 219.238 141.404 219.239Z" fill="white"/>
</g>
<path d="M131.459 185.227H130.251C129.897 185.227 129.609 185.514 129.609 185.868V198.441C129.609 198.795 129.897 199.082 130.251 199.082H131.459C131.813 199.082 132.1 198.795 132.1 198.441V185.868C132.1 185.514 131.813 185.227 131.459 185.227Z" fill="#263238"/>
<path d="M140.215 215.646H120.194C119.383 215.646 118.725 216.304 118.725 217.116V220.118C118.725 220.929 119.383 221.587 120.194 221.587H140.215C141.026 221.587 141.684 220.929 141.684 220.118V217.116C141.684 216.304 141.026 215.646 140.215 215.646Z" fill="#FFC000"/>
<path opacity="0.7" d="M140.215 215.646H120.194C119.383 215.646 118.725 216.304 118.725 217.116V220.118C118.725 220.929 119.383 221.587 120.194 221.587H140.215C141.026 221.587 141.684 220.929 141.684 220.118V217.116C141.684 216.304 141.026 215.646 140.215 215.646Z" fill="white"/>
<path d="M92.0488 113.31L121.746 142.97H92.0675L92.0488 113.31ZM109.715 137.994L97.0368 125.365V138.031L109.715 137.994Z" fill="#FFC000"/>
<g opacity="0.5">
<path d="M92.0488 113.31L121.746 142.97H92.0675L92.0488 113.31ZM109.715 137.994L97.0368 125.365V138.031L109.715 137.994Z" fill="white"/>
</g>
<path d="M247.496 130.727H212.107V135.086H247.496V130.727Z" fill="#FFC000"/>
<path d="M247.504 138.822H212.115V143.181H247.504V138.822Z" fill="#FFC000"/>
<g opacity="0.5">
<path d="M247.496 130.727H212.107V135.086H247.496V130.727Z" fill="white"/>
</g>
<g opacity="0.5">
<path d="M247.504 138.822H212.115V143.181H247.504V138.822Z" fill="white"/>
</g>
<path d="M220.932 137.11C221.732 136.19 222.445 135.198 223.061 134.146C223.307 134.215 223.568 134.201 223.804 134.105C224.041 134.01 224.239 133.839 224.367 133.619C224.496 133.399 224.548 133.143 224.516 132.89C224.483 132.637 224.368 132.402 224.188 132.222C224.008 132.042 223.773 131.927 223.52 131.894C223.267 131.862 223.011 131.914 222.791 132.043C222.571 132.171 222.4 132.37 222.305 132.606C222.21 132.842 222.195 133.103 222.264 133.349C221.213 133.968 220.221 134.683 219.3 135.485C219.394 135.696 219.421 135.93 219.379 136.157C219.337 136.384 219.227 136.593 219.064 136.757C218.901 136.92 218.693 137.031 218.466 137.074C218.239 137.117 218.005 137.09 217.793 136.998C216.992 137.918 216.277 138.911 215.657 139.962C215.412 139.893 215.151 139.907 214.914 140.003C214.678 140.098 214.48 140.269 214.351 140.489C214.223 140.709 214.17 140.965 214.203 141.218C214.235 141.471 214.351 141.705 214.531 141.886C214.711 142.066 214.946 142.181 215.199 142.214C215.451 142.246 215.708 142.194 215.928 142.065C216.147 141.936 216.318 141.738 216.414 141.502C216.509 141.266 216.523 141.004 216.454 140.759C217.507 140.141 218.499 139.426 219.419 138.623C219.328 138.411 219.302 138.177 219.346 137.951C219.389 137.725 219.499 137.517 219.662 137.354C219.825 137.191 220.033 137.081 220.26 137.037C220.486 136.994 220.72 137.019 220.932 137.11Z" fill="#263238"/>
<path opacity="0.5" d="M220.932 137.11C221.732 136.19 222.445 135.198 223.061 134.146C223.307 134.215 223.568 134.201 223.804 134.105C224.041 134.01 224.239 133.839 224.367 133.619C224.496 133.399 224.548 133.143 224.516 132.89C224.483 132.637 224.368 132.402 224.188 132.222C224.008 132.042 223.773 131.927 223.52 131.894C223.267 131.862 223.011 131.914 222.791 132.043C222.571 132.171 222.4 132.37 222.305 132.606C222.21 132.842 222.195 133.103 222.264 133.349C221.213 133.968 220.221 134.683 219.3 135.485C219.394 135.696 219.421 135.93 219.379 136.157C219.337 136.384 219.227 136.593 219.064 136.757C218.901 136.92 218.693 137.031 218.466 137.074C218.239 137.117 218.005 137.09 217.793 136.998C216.992 137.918 216.277 138.911 215.657 139.962C215.412 139.893 215.151 139.907 214.914 140.003C214.678 140.098 214.48 140.269 214.351 140.489C214.223 140.709 214.17 140.965 214.203 141.218C214.235 141.471 214.351 141.705 214.531 141.886C214.711 142.066 214.946 142.181 215.199 142.214C215.451 142.246 215.708 142.194 215.928 142.065C216.147 141.936 216.318 141.738 216.414 141.502C216.509 141.266 216.523 141.004 216.454 140.759C217.507 140.141 218.499 139.426 219.419 138.623C219.328 138.411 219.302 138.177 219.346 137.951C219.389 137.725 219.499 137.517 219.662 137.354C219.825 137.191 220.033 137.081 220.26 137.037C220.486 136.994 220.72 137.019 220.932 137.11Z" fill="white"/>
<path d="M223.753 133.423C223.678 133.498 223.582 133.548 223.479 133.569C223.375 133.589 223.267 133.578 223.17 133.538C223.072 133.497 222.989 133.429 222.93 133.341C222.871 133.253 222.84 133.149 222.84 133.043C222.84 132.938 222.871 132.834 222.93 132.746C222.989 132.658 223.072 132.59 223.17 132.549C223.267 132.508 223.375 132.497 223.479 132.518C223.582 132.538 223.678 132.589 223.753 132.663C223.803 132.713 223.843 132.772 223.87 132.838C223.897 132.903 223.911 132.973 223.911 133.043C223.911 133.114 223.897 133.184 223.87 133.249C223.843 133.314 223.803 133.373 223.753 133.423Z" fill="#263238"/>
<path d="M215.702 141.475C215.627 141.55 215.532 141.6 215.428 141.621C215.324 141.641 215.217 141.63 215.119 141.59C215.021 141.549 214.938 141.48 214.879 141.392C214.82 141.304 214.789 141.201 214.789 141.095C214.789 140.989 214.82 140.886 214.879 140.798C214.938 140.71 215.021 140.641 215.119 140.601C215.217 140.56 215.324 140.549 215.428 140.57C215.532 140.59 215.627 140.641 215.702 140.715C215.752 140.765 215.792 140.824 215.819 140.889C215.846 140.955 215.86 141.025 215.86 141.095C215.86 141.166 215.846 141.236 215.819 141.301C215.792 141.366 215.752 141.425 215.702 141.475Z" fill="#263238"/>
<path d="M240.74 137.103C241.539 136.182 242.252 135.19 242.87 134.139C243.115 134.208 243.377 134.194 243.613 134.098C243.849 134.003 244.047 133.832 244.176 133.612C244.305 133.392 244.357 133.136 244.325 132.883C244.292 132.63 244.177 132.396 243.997 132.215C243.816 132.035 243.581 131.92 243.329 131.887C243.076 131.855 242.82 131.907 242.6 132.036C242.38 132.165 242.209 132.363 242.114 132.599C242.018 132.835 242.004 133.097 242.073 133.342C241.022 133.962 240.029 134.677 239.109 135.478C239.202 135.689 239.23 135.923 239.187 136.15C239.145 136.377 239.036 136.586 238.873 136.75C238.71 136.913 238.501 137.024 238.275 137.067C238.048 137.11 237.813 137.083 237.602 136.991C236.798 137.909 236.083 138.902 235.466 139.955C235.221 139.886 234.959 139.9 234.723 139.996C234.487 140.091 234.289 140.262 234.16 140.482C234.031 140.702 233.979 140.958 234.011 141.211C234.044 141.464 234.159 141.699 234.339 141.879C234.52 142.059 234.754 142.174 235.007 142.207C235.26 142.239 235.516 142.187 235.736 142.058C235.956 141.929 236.127 141.731 236.222 141.495C236.318 141.259 236.332 140.997 236.263 140.752C237.314 140.132 238.307 139.418 239.227 138.616C239.136 138.405 239.111 138.17 239.154 137.944C239.198 137.718 239.308 137.51 239.471 137.347C239.634 137.184 239.842 137.074 240.068 137.03C240.294 136.987 240.529 137.012 240.74 137.103Z" fill="#263238"/>
<path opacity="0.5" d="M240.74 137.103C241.539 136.182 242.252 135.19 242.87 134.139C243.115 134.208 243.377 134.194 243.613 134.098C243.849 134.003 244.047 133.832 244.176 133.612C244.305 133.392 244.357 133.136 244.325 132.883C244.292 132.63 244.177 132.396 243.997 132.215C243.816 132.035 243.581 131.92 243.329 131.887C243.076 131.855 242.82 131.907 242.6 132.036C242.38 132.165 242.209 132.363 242.114 132.599C242.018 132.835 242.004 133.097 242.073 133.342C241.022 133.962 240.029 134.677 239.109 135.478C239.202 135.689 239.23 135.923 239.187 136.15C239.145 136.377 239.036 136.586 238.873 136.75C238.71 136.913 238.501 137.024 238.275 137.067C238.048 137.11 237.813 137.083 237.602 136.991C236.798 137.909 236.083 138.902 235.466 139.955C235.221 139.886 234.959 139.9 234.723 139.996C234.487 140.091 234.289 140.262 234.16 140.482C234.031 140.702 233.979 140.958 234.011 141.211C234.044 141.464 234.159 141.699 234.339 141.879C234.52 142.059 234.754 142.174 235.007 142.207C235.26 142.239 235.516 142.187 235.736 142.058C235.956 141.929 236.127 141.731 236.222 141.495C236.318 141.259 236.332 140.997 236.263 140.752C237.314 140.132 238.307 139.418 239.227 138.616C239.136 138.405 239.111 138.17 239.154 137.944C239.198 137.718 239.308 137.51 239.471 137.347C239.634 137.184 239.842 137.074 240.068 137.03C240.294 136.987 240.529 137.012 240.74 137.103Z" fill="white"/>
<path d="M243.555 133.411C243.48 133.487 243.385 133.538 243.281 133.559C243.177 133.581 243.069 133.57 242.971 133.53C242.872 133.489 242.788 133.421 242.729 133.333C242.67 133.244 242.639 133.141 242.639 133.035C242.639 132.928 242.67 132.825 242.729 132.736C242.788 132.648 242.872 132.58 242.971 132.539C243.069 132.499 243.177 132.489 243.281 132.51C243.385 132.531 243.48 132.582 243.555 132.658C243.605 132.707 243.644 132.766 243.671 132.83C243.698 132.895 243.712 132.964 243.712 133.035C243.712 133.105 243.698 133.174 243.671 133.239C243.644 133.303 243.605 133.362 243.555 133.411Z" fill="#263238"/>
<path d="M235.509 141.463C235.462 141.521 235.403 141.568 235.336 141.602C235.269 141.636 235.196 141.655 235.121 141.659C235.046 141.663 234.972 141.651 234.902 141.624C234.832 141.597 234.768 141.556 234.715 141.503C234.662 141.45 234.621 141.387 234.594 141.317C234.567 141.247 234.555 141.172 234.559 141.097C234.563 141.023 234.583 140.949 234.616 140.883C234.65 140.816 234.698 140.757 234.756 140.709C234.858 140.626 234.989 140.583 235.121 140.59C235.254 140.596 235.379 140.652 235.473 140.746C235.567 140.84 235.622 140.965 235.629 141.097C235.636 141.23 235.593 141.36 235.509 141.463Z" fill="#263238"/>
<path d="M75.19 110.14L50.2129 80.6608L58.1089 73.9541L83.0798 103.433C83.5198 103.954 83.8528 104.556 84.0597 105.206C84.2666 105.855 84.3434 106.539 84.2855 107.218C84.2277 107.897 84.0364 108.558 83.7226 109.163C83.4089 109.768 82.9788 110.306 82.4571 110.744C81.4107 111.621 80.0602 112.05 78.6993 111.937C77.3384 111.824 76.0772 111.178 75.19 110.14Z" fill="#FFC000"/>
<path opacity="0.5" d="M75.19 110.14L50.2129 80.6608L58.1089 73.9541L83.0798 103.433C83.5198 103.954 83.8528 104.556 84.0597 105.206C84.2666 105.855 84.3434 106.539 84.2855 107.218C84.2277 107.897 84.0364 108.558 83.7226 109.163C83.4089 109.768 82.9788 110.306 82.4571 110.744C81.4107 111.621 80.0602 112.05 78.6993 111.937C77.3384 111.824 76.0772 111.178 75.19 110.14Z" fill="white"/>
<path d="M61.9278 80.9708L57.8945 76.21L52.4875 80.7906L56.5207 85.5515L61.9278 80.9708Z" fill="#FFC000"/>
<path opacity="0.7" d="M61.9278 80.9708L57.8945 76.21L52.4875 80.7906L56.5207 85.5515L61.9278 80.9708Z" fill="white"/>
<path d="M67.0957 87.0704L63.0625 82.3096L57.6554 86.8902L61.6887 91.6511L67.0957 87.0704Z" fill="#FFC000"/>
<path opacity="0.3" d="M67.0957 87.0704L63.0625 82.3096L57.6554 86.8902L61.6887 91.6511L67.0957 87.0704Z" fill="white"/>
<path d="M72.2676 93.1798L68.2344 88.4189L62.8273 92.9996L66.8605 97.7605L72.2676 93.1798Z" fill="#FFC000"/>
<path d="M77.4512 99.2863L73.418 94.5254L68.0109 99.106L72.0441 103.867L77.4512 99.2863Z" fill="#FFC000"/>
<path opacity="0.2" d="M77.4512 99.2863L73.418 94.5254L68.0109 99.106L72.0441 103.867L77.4512 99.2863Z" fill="black"/>
<path d="M83.1054 103.434L80.6768 100.557L72.7559 107.27L75.1907 110.14C75.6291 110.666 76.1673 111.1 76.7743 111.417C77.3813 111.734 78.045 111.928 78.7272 111.987C79.4094 112.046 80.0966 111.97 80.7491 111.762C81.4016 111.554 82.0065 111.219 82.5289 110.777C83.0514 110.334 83.481 109.792 83.793 109.183C84.105 108.573 84.2932 107.908 84.3468 107.225C84.4004 106.543 84.3183 105.856 84.1052 105.205C83.8922 104.555 83.5523 103.952 83.1054 103.434Z" fill="#FFC000"/>
<path d="M80.6891 108.602C80.4373 108.816 80.128 108.95 79.8001 108.987C79.4723 109.025 79.1407 108.964 78.8472 108.813C78.5538 108.662 78.3116 108.428 78.1514 108.139C77.9911 107.851 77.92 107.522 77.947 107.193C77.974 106.864 78.0978 106.55 78.3029 106.292C78.508 106.033 78.7851 105.841 79.0992 105.74C79.4134 105.639 79.7504 105.634 80.0677 105.724C80.3851 105.815 80.6685 105.997 80.8821 106.248C81.0242 106.416 81.1318 106.609 81.199 106.818C81.2662 107.027 81.2915 107.247 81.2736 107.465C81.2556 107.684 81.1948 107.897 81.0945 108.092C80.9942 108.287 80.8564 108.461 80.6891 108.602Z" fill="#263238"/>
<path d="M76.2868 110.589L45.9668 86.6393L52.3994 78.4941L82.7195 102.444C83.7987 103.297 84.4949 104.544 84.6549 105.91C84.8149 107.276 84.4256 108.65 83.5726 109.73C83.1506 110.264 82.6275 110.711 82.033 111.044C81.4385 111.376 80.7842 111.588 80.1077 111.668C79.4311 111.748 78.7455 111.694 78.0899 111.509C77.4343 111.323 76.8216 111.011 76.2868 110.589Z" fill="#FFC000"/>
<path opacity="0.6" d="M76.2868 110.589L45.9668 86.6393L52.3994 78.4941L82.7195 102.444C83.7987 103.297 84.4949 104.544 84.6549 105.91C84.8149 107.276 84.4256 108.65 83.5726 109.73C83.1506 110.264 82.6275 110.711 82.033 111.044C81.4385 111.376 80.7842 111.588 80.1077 111.668C79.4311 111.748 78.7455 111.694 78.0899 111.509C77.4343 111.323 76.8216 111.011 76.2868 110.589Z" fill="white"/>
<path d="M57.4944 84.6182L52.5977 80.751L48.2056 86.3123L53.1023 90.1795L57.4944 84.6182Z" fill="#FFC000"/>
<path opacity="0.5" d="M57.4944 84.6182L52.5977 80.751L48.2056 86.3123L53.1023 90.1795L57.4944 84.6182Z" fill="white"/>
<path d="M63.7815 89.581L58.8848 85.7139L54.4927 91.2752L59.3894 95.1424L63.7815 89.581Z" fill="#FFC000"/>
<path opacity="0.3" d="M63.7815 89.581L58.8848 85.7139L54.4927 91.2752L59.3894 95.1424L63.7815 89.581Z" fill="white"/>
<path d="M70.051 94.5391L65.1543 90.6719L60.7622 96.2332L65.6589 100.1L70.051 94.5391Z" fill="#FFC000"/>
<path d="M76.3381 99.4961L71.4414 95.6289L67.0493 101.19L71.946 105.057L76.3381 99.4961Z" fill="#FFC000"/>
<path opacity="0.2" d="M76.3381 99.4961L71.4414 95.6289L67.0493 101.19L71.946 105.057L76.3381 99.4961Z" fill="black"/>
<path d="M82.7187 102.444L79.7608 100.108L73.3281 108.254L76.286 110.589C77.3661 111.442 78.7409 111.831 80.1078 111.67C81.4747 111.51 82.7219 110.813 83.5749 109.732C84.4279 108.652 84.8169 107.278 84.6564 105.911C84.4958 104.544 83.7988 103.297 82.7187 102.444Z" fill="#FFC000"/>
<path d="M81.3689 107.992C81.1639 108.251 80.8869 108.443 80.5729 108.544C80.2589 108.645 79.922 108.65 79.6047 108.56C79.2874 108.47 79.004 108.288 78.7903 108.036C78.5765 107.785 78.4421 107.476 78.4038 107.148C78.3656 106.821 78.4253 106.489 78.5754 106.195C78.7256 105.902 78.9594 105.659 79.2473 105.498C79.5353 105.337 79.8645 105.265 80.1933 105.291C80.5221 105.317 80.8359 105.44 81.0949 105.645C81.268 105.78 81.4125 105.948 81.5201 106.14C81.6277 106.332 81.6962 106.543 81.7217 106.761C81.7472 106.98 81.7291 107.201 81.6685 107.412C81.608 107.623 81.5061 107.821 81.3689 107.992Z" fill="#263238"/>
<path d="M75.7759 113.216L41.6387 95.1199L46.5021 85.9473L80.6393 104.043C81.8491 104.69 82.7543 105.788 83.1579 107.099C83.5615 108.41 83.4306 109.828 82.7939 111.043C82.1506 112.261 81.0502 113.174 79.7345 113.581C78.4187 113.988 76.995 113.857 75.7759 113.216Z" fill="#FFC000"/>
<path opacity="0.7" d="M75.7759 113.216L41.6387 95.1199L46.5021 85.9473L80.6393 104.043C81.8491 104.69 82.7543 105.788 83.1579 107.099C83.5615 108.41 83.4306 109.828 82.7939 111.043C82.1506 112.261 81.0502 113.174 79.7345 113.581C78.4187 113.988 76.995 113.857 75.7759 113.216Z" fill="white"/>
<path d="M52.6183 91.0515L47.1055 88.1289L43.7862 94.39L49.299 97.3126L52.6183 91.0515Z" fill="#FFC000"/>
<path opacity="0.5" d="M52.6183 91.0515L47.1055 88.1289L43.7862 94.39L49.299 97.3126L52.6183 91.0515Z" fill="white"/>
<path d="M59.6906 94.8005L54.1777 91.8779L50.8585 98.139L56.3713 101.062L59.6906 94.8005Z" fill="#FFC000"/>
<path opacity="0.3" d="M59.6906 94.8005L54.1777 91.8779L50.8585 98.139L56.3713 101.062L59.6906 94.8005Z" fill="white"/>
<path d="M66.7648 98.5525L61.252 95.6299L57.9327 101.891L63.4455 104.814L66.7648 98.5525Z" fill="#FFC000"/>
<path d="M73.837 102.301L68.3242 99.3779L65.005 105.639L70.5178 108.562L73.837 102.301Z" fill="#FFC000"/>
<path opacity="0.2" d="M73.837 102.301L68.3242 99.3779L65.005 105.639L70.5178 108.562L73.837 102.301Z" fill="black"/>
<path d="M80.639 104.044L77.3137 102.281L72.4316 111.454L75.7569 113.216C76.361 113.56 77.0281 113.779 77.7185 113.861C78.4089 113.942 79.1087 113.884 79.7762 113.69C80.4438 113.496 81.0657 113.17 81.6049 112.732C82.1442 112.293 82.5898 111.75 82.9155 111.136C83.2412 110.522 83.4402 109.849 83.5008 109.156C83.5614 108.463 83.4823 107.766 83.2683 107.104C83.0543 106.443 82.7096 105.831 82.2547 105.305C81.7999 104.78 81.2441 104.351 80.6203 104.044H80.639Z" fill="#FFC000"/>
<path d="M80.3092 109.748C80.1539 110.039 79.9159 110.277 79.6251 110.433C79.3344 110.589 79.004 110.655 78.6757 110.623C78.3474 110.591 78.0359 110.463 77.7805 110.254C77.5251 110.045 77.3374 109.765 77.2409 109.45C77.1445 109.134 77.1436 108.797 77.2386 108.482C77.3335 108.166 77.5199 107.885 77.7743 107.675C78.0286 107.465 78.3395 107.335 78.6676 107.302C78.9958 107.268 79.3265 107.333 79.618 107.487C79.812 107.59 79.9839 107.73 80.1237 107.899C80.2635 108.069 80.3686 108.264 80.4328 108.474C80.497 108.684 80.5191 108.904 80.4979 109.123C80.4767 109.342 80.4126 109.554 80.3092 109.748Z" fill="#263238"/>
<path d="M276.645 74.9131H245.254V116.897H276.645V74.9131Z" fill="#FFC000"/>
<path opacity="0.3" d="M276.645 74.9131H245.254V116.897H276.645V74.9131Z" fill="white"/>
<path opacity="0.9" d="M274.216 77.3477H247.682V114.468H274.216V77.3477Z" fill="white"/>
<path d="M269.671 96.2785H267.267V81.8564H251.002V108.552H252.347V106.485C252.817 106.548 253.253 106.766 253.586 107.104C253.918 107.442 254.129 107.882 254.184 108.353L254.215 108.583H259.334V107.189H269.671V96.2785ZM251.519 82.3982H258.817V84.011C258.236 84.144 257.716 84.4688 257.342 84.9331C256.968 85.3975 256.762 85.9742 256.756 86.5704V86.8257H258.842V88.37H251.519V82.3982ZM251.519 88.9118H259.334V86.3275H257.266C257.323 85.8517 257.538 85.4088 257.877 85.07C258.216 84.7312 258.659 84.5161 259.135 84.4594H259.359V82.3982H266.719V96.2972H258.817V100.202H251.519V88.9118ZM259.334 97.4804H260.916C260.86 97.9013 260.68 98.296 260.398 98.6135C260.116 98.931 259.745 99.1566 259.334 99.2613V97.4804ZM258.817 108.017H254.664C254.535 107.428 254.209 106.902 253.74 106.524C253.271 106.145 252.688 105.938 252.085 105.937H251.824V108.017H251.519V100.706H258.817V107.998V108.017ZM269.148 106.628H259.334V99.7782C259.93 99.6565 260.466 99.3331 260.852 98.8624C261.237 98.3917 261.449 97.8024 261.451 97.1939V96.9324H259.334V96.7892H269.148V106.628Z" fill="#263238"/>
<path opacity="0.4" d="M269.671 96.2785H267.267V81.8564H251.002V108.552H252.347V106.485C252.817 106.548 253.253 106.766 253.586 107.104C253.918 107.442 254.129 107.882 254.184 108.353L254.215 108.583H259.334V107.189H269.671V96.2785ZM251.519 82.3982H258.817V84.011C258.236 84.144 257.716 84.4688 257.342 84.9331C256.968 85.3975 256.762 85.9742 256.756 86.5704V86.8257H258.842V88.37H251.519V82.3982ZM251.519 88.9118H259.334V86.3275H257.266C257.323 85.8517 257.538 85.4088 257.877 85.07C258.216 84.7312 258.659 84.5161 259.135 84.4594H259.359V82.3982H266.719V96.2972H258.817V100.202H251.519V88.9118ZM259.334 97.4804H260.916C260.86 97.9013 260.68 98.296 260.398 98.6135C260.116 98.931 259.745 99.1566 259.334 99.2613V97.4804ZM258.817 108.017H254.664C254.535 107.428 254.209 106.902 253.74 106.524C253.271 106.145 252.688 105.938 252.085 105.937H251.824V108.017H251.519V100.706H258.817V107.998V108.017ZM269.148 106.628H259.334V99.7782C259.93 99.6565 260.466 99.3331 260.852 98.8624C261.237 98.3917 261.449 97.8024 261.451 97.1939V96.9324H259.334V96.7892H269.148V106.628Z" fill="white"/>
<path d="M177.896 204.45C177.896 204.45 174.446 216.381 177.448 216.624C177.448 216.624 202.443 212.72 215.402 213.729C228.361 214.737 244.302 217.845 244.302 217.845C244.971 215.781 245.279 213.618 245.212 211.45L198.701 210.154L182.815 206.891L177.896 204.45Z" fill="#FFC000"/>
<path opacity="0.3" d="M177.896 204.45C177.896 204.45 174.446 216.381 177.448 216.624C177.448 216.624 202.443 212.72 215.402 213.729C228.361 214.737 244.302 217.845 244.302 217.845C244.971 215.781 245.279 213.618 245.212 211.45L198.701 210.154L182.815 206.891L177.896 204.45Z" fill="white"/>
<path d="M177.858 215.423C177.858 215.423 176.071 213.878 178.101 208.729L185.025 208.984L184.82 214.644L177.858 215.423Z" fill="#FFC000"/>
<path d="M177.895 204.45C177.895 204.45 181.419 206.723 177.857 215.435C177.857 215.435 220.482 209.756 244.295 216.518C245.325 213.414 245.516 210.093 244.849 206.891C244.849 206.891 190.872 206.785 177.895 204.45Z" fill="#FFC000"/>
<path opacity="0.6" d="M177.895 204.45C177.895 204.45 181.419 206.723 177.857 215.435C177.857 215.435 220.482 209.756 244.295 216.518C245.325 213.414 245.516 210.093 244.849 206.891C244.849 206.891 190.872 206.785 177.895 204.45Z" fill="white"/>
<path d="M203.202 206.282C203.649 208.722 203.568 211.229 202.966 213.636C202.943 213.713 202.939 213.794 202.955 213.872C202.971 213.951 203.006 214.024 203.057 214.086C203.108 214.147 203.174 214.195 203.248 214.226C203.323 214.256 203.403 214.267 203.483 214.259C206.483 213.998 209.496 213.911 212.506 213.997C212.707 214.007 212.904 213.94 213.059 213.811C213.214 213.682 213.314 213.499 213.34 213.3C213.651 211.151 213.731 208.976 213.577 206.811C213.563 206.61 213.475 206.421 213.331 206.28C213.186 206.14 212.994 206.058 212.792 206.051L203.707 205.696C203.632 205.692 203.558 205.704 203.489 205.734C203.42 205.763 203.359 205.807 203.31 205.864C203.261 205.921 203.226 205.988 203.207 206.06C203.189 206.133 203.187 206.208 203.202 206.282Z" fill="#FFC000"/>
<path opacity="0.8" d="M203.202 206.282C203.649 208.722 203.568 211.229 202.966 213.636C202.943 213.713 202.939 213.794 202.955 213.872C202.971 213.951 203.006 214.024 203.057 214.086C203.108 214.147 203.174 214.195 203.248 214.226C203.323 214.256 203.403 214.267 203.483 214.259C206.483 213.998 209.496 213.911 212.506 213.997C212.707 214.007 212.904 213.94 213.059 213.811C213.214 213.682 213.314 213.499 213.34 213.3C213.651 211.151 213.731 208.976 213.577 206.811C213.563 206.61 213.475 206.421 213.331 206.28C213.186 206.14 212.994 206.058 212.792 206.051L203.707 205.696C203.632 205.692 203.558 205.704 203.489 205.734C203.42 205.763 203.359 205.807 203.31 205.864C203.261 205.921 203.226 205.988 203.207 206.06C203.189 206.133 203.187 206.208 203.202 206.282Z" fill="white"/>
<path d="M175.697 221.357C175.697 221.357 172.584 208.716 175.741 208.592C175.741 208.592 201.745 213.717 215.352 213.2C228.958 212.683 245.796 210.086 245.796 210.086C246.411 212.276 246.645 214.555 246.487 216.824L197.741 216.245L180.965 218.991L175.697 221.357Z" fill="#FFC000"/>
<path opacity="0.3" d="M175.697 221.357C175.697 221.357 172.584 208.716 175.741 208.592C175.741 208.592 201.745 213.717 215.352 213.2C228.958 212.683 245.796 210.086 245.796 210.086C246.411 212.276 246.645 214.555 246.487 216.824L197.741 216.245L180.965 218.991L175.697 221.357Z" fill="white"/>
<path d="M176.12 209.855C176.12 209.855 174.184 211.387 176.12 216.867H183.381V210.927L176.12 209.855Z" fill="#FFC000"/>
<path d="M175.697 221.357C175.697 221.357 179.49 219.121 176.121 209.855C176.121 209.855 220.514 217.571 245.722 211.481C246.671 214.773 246.733 218.257 245.902 221.581C245.902 221.581 189.385 219.433 175.697 221.357Z" fill="#FFC000"/>
<path opacity="0.7" d="M175.697 221.357C175.697 221.357 179.49 219.121 176.121 209.855C176.121 209.855 220.514 217.571 245.722 211.481C246.671 214.773 246.733 218.257 245.902 221.581C245.902 221.581 189.385 219.433 175.697 221.357Z" fill="white"/>
<path d="M202.275 220.473C202.846 217.937 202.867 215.308 202.337 212.763C202.318 212.683 202.319 212.6 202.34 212.52C202.36 212.44 202.4 212.367 202.455 212.306C202.51 212.245 202.579 212.198 202.656 212.169C202.733 212.14 202.816 212.13 202.897 212.141C206.027 212.539 209.177 212.757 212.332 212.794C212.543 212.792 212.748 212.868 212.906 213.009C213.063 213.149 213.163 213.344 213.185 213.554C213.426 215.817 213.426 218.098 213.185 220.36C213.162 220.571 213.062 220.765 212.905 220.907C212.747 221.048 212.543 221.126 212.332 221.126L202.804 221.095C202.725 221.099 202.647 221.084 202.574 221.053C202.502 221.021 202.438 220.974 202.387 220.914C202.336 220.854 202.299 220.783 202.28 220.706C202.26 220.63 202.259 220.55 202.275 220.473Z" fill="#FFC000"/>
<path opacity="0.9" d="M202.275 220.473C202.846 217.937 202.867 215.308 202.337 212.763C202.318 212.683 202.319 212.6 202.34 212.52C202.36 212.44 202.4 212.367 202.455 212.306C202.51 212.245 202.579 212.198 202.656 212.169C202.733 212.14 202.816 212.13 202.897 212.141C206.027 212.539 209.177 212.757 212.332 212.794C212.543 212.792 212.748 212.868 212.906 213.009C213.063 213.149 213.163 213.344 213.185 213.554C213.426 215.817 213.426 218.098 213.185 220.36C213.162 220.571 213.062 220.765 212.905 220.907C212.747 221.048 212.543 221.126 212.332 221.126L202.804 221.095C202.725 221.099 202.647 221.084 202.574 221.053C202.502 221.021 202.438 220.974 202.387 220.914C202.336 220.854 202.299 220.783 202.28 220.706C202.26 220.63 202.259 220.55 202.275 220.473Z" fill="white"/>
<path d="M178.873 151.214C178.873 151.214 191.271 147.248 191.614 150.386C191.614 150.386 188.264 176.677 189.702 190.24C191.141 203.803 194.883 220.398 194.883 220.398C192.74 221.161 190.482 221.551 188.208 221.55L185.48 172.872L181.594 156.321L178.873 151.214Z" fill="#FFC000"/>
<path opacity="0.3" d="M178.873 151.214C178.873 151.214 191.271 147.248 191.614 150.386C191.614 150.386 188.264 176.677 189.702 190.24C191.141 203.803 194.883 220.398 194.883 220.398C192.74 221.161 190.482 221.551 188.208 221.55L185.48 172.872L181.594 156.321L178.873 151.214Z" fill="white"/>
<path d="M190.381 150.847C190.381 150.847 188.712 149.022 183.375 151.301L183.848 158.55L189.77 158.164L190.381 150.847Z" fill="#FFC000"/>
<path d="M178.873 151.214C178.873 151.214 181.364 154.838 190.381 150.847C190.381 150.847 185.692 195.682 193.494 220.404C190.269 221.578 186.79 221.874 183.413 221.263C183.413 221.263 181.719 164.733 178.873 151.214Z" fill="#FFC000"/>
<path opacity="0.8" d="M178.873 151.214C178.873 151.214 181.364 154.838 190.381 150.847C190.381 150.847 185.692 195.682 193.494 220.404C190.269 221.578 186.79 221.874 183.413 221.263C183.413 221.263 181.719 164.733 178.873 151.214Z" fill="white"/>
<path d="M181.557 177.674C184.127 178.069 186.751 177.91 189.254 177.207C189.331 177.19 189.41 177.19 189.487 177.209C189.564 177.227 189.635 177.263 189.695 177.314C189.755 177.365 189.803 177.429 189.835 177.501C189.866 177.573 189.88 177.651 189.877 177.73C189.694 180.88 189.694 184.039 189.877 187.189C189.893 187.4 189.83 187.609 189.7 187.775C189.57 187.941 189.381 188.052 189.173 188.086C186.933 188.475 184.657 188.623 182.385 188.528C182.174 188.516 181.974 188.429 181.823 188.281C181.672 188.133 181.58 187.935 181.563 187.725L180.941 178.216C180.935 178.137 180.948 178.057 180.979 177.984C181.009 177.91 181.056 177.845 181.115 177.793C181.175 177.74 181.246 177.702 181.322 177.682C181.399 177.661 181.479 177.658 181.557 177.674Z" fill="#FFC000"/>
<path opacity="0.9" d="M181.557 177.674C184.127 178.069 186.751 177.91 189.254 177.207C189.331 177.19 189.41 177.19 189.487 177.209C189.564 177.227 189.635 177.263 189.695 177.314C189.755 177.365 189.803 177.429 189.835 177.501C189.866 177.573 189.88 177.651 189.877 177.73C189.694 180.88 189.694 184.039 189.877 187.189C189.893 187.4 189.83 187.609 189.7 187.775C189.57 187.941 189.381 188.052 189.173 188.086C186.933 188.475 184.657 188.623 182.385 188.528C182.174 188.516 181.974 188.429 181.823 188.281C181.672 188.133 181.58 187.935 181.563 187.725L180.941 178.216C180.935 178.137 180.948 178.057 180.979 177.984C181.009 177.91 181.056 177.845 181.115 177.793C181.175 177.74 181.246 177.702 181.322 177.682C181.399 177.661 181.479 177.658 181.557 177.674Z" fill="white"/>
</svg>
