<svg width="312" height="232" viewBox="0 0 312 232" fill="none" xmlns="http://www.w3.org/2000/svg">
<path d="M311.678 203.878H0.320312V204.034H311.678V203.878Z" fill="#EBEBEB"/>
<path d="M280.48 213.897H259.855V214.053H280.48V213.897Z" fill="#EBEBEB"/>
<path d="M206.575 215.592H201.164V215.747H206.575V215.592Z" fill="#EBEBEB"/>
<path d="M259.233 208.119H247.283V208.275H259.233V208.119Z" fill="#EBEBEB"/>
<path d="M59.8834 209.165H32.9883V209.321H59.8834V209.165Z" fill="#EBEBEB"/>
<path d="M69.3734 209.165H65.4316V209.321H69.3734V209.165Z" fill="#EBEBEB"/>
<path d="M140.525 211.793H82.1895V211.949H140.525V211.793Z" fill="#EBEBEB"/>
<path d="M147.905 176.105H27.6647C26.7228 176.103 25.82 175.728 25.1545 175.061C24.489 174.395 24.1152 173.491 24.1152 172.549V3.52555C24.1234 2.589 24.5008 1.6935 25.1654 1.03357C25.83 0.373646 26.7281 0.00258092 27.6647 0.000976562H147.905C148.848 0.000976563 149.752 0.375595 150.419 1.04242C151.086 1.70924 151.461 2.61365 151.461 3.55668V172.549C151.461 173.492 151.086 174.397 150.419 175.063C149.752 175.73 148.848 176.105 147.905 176.105ZM27.6647 0.12552C26.764 0.12717 25.9008 0.486113 25.2646 1.12356C24.6283 1.76101 24.2709 2.62488 24.2709 3.52555V172.549C24.2709 173.45 24.6283 174.314 25.2646 174.951C25.9008 175.589 26.764 175.948 27.6647 175.949H147.905C148.806 175.948 149.67 175.589 150.307 174.952C150.944 174.314 151.303 173.45 151.305 172.549V3.52555C151.303 2.62431 150.944 1.76045 150.307 1.12318C149.67 0.48591 148.806 0.127166 147.905 0.12552H27.6647Z" fill="#EBEBEB"/>
<path d="M282.603 176.105H162.356C161.414 176.103 160.511 175.728 159.844 175.062C159.178 174.395 158.802 173.492 158.801 172.549V3.52555C158.811 2.58843 159.189 1.69294 159.855 1.03319C160.521 0.373428 161.419 0.00256342 162.356 0.000976562H282.603C283.538 0.00421748 284.435 0.376006 285.098 1.03576C285.761 1.69551 286.138 2.59007 286.146 3.52555V172.549C286.146 173.49 285.773 174.393 285.109 175.059C284.445 175.726 283.544 176.102 282.603 176.105ZM162.356 0.12552C161.455 0.127166 160.591 0.48591 159.954 1.12318C159.317 1.76045 158.958 2.62431 158.956 3.52555V172.549C158.958 173.45 159.317 174.314 159.954 174.952C160.591 175.589 161.455 175.948 162.356 175.949H282.603C283.504 175.948 284.368 175.589 285.005 174.952C285.642 174.314 286.001 173.45 286.003 172.549V3.52555C286.001 2.62431 285.642 1.76045 285.005 1.12318C284.368 0.48591 283.504 0.127166 282.603 0.12552H162.356Z" fill="#EBEBEB"/>
<path d="M147.904 78.532V89.4668L153.509 89.9961C154.261 93.5998 155.687 97.0288 157.712 100.103L154.094 104.462L161.828 112.196L166.187 108.578C169.259 110.601 172.686 112.025 176.288 112.775L176.817 118.38H187.82L188.35 112.775C191.953 112.025 195.382 110.601 198.456 108.578L202.815 112.196L210.549 104.462L206.932 100.103C208.955 97.0285 210.379 93.5994 211.129 89.9961L216.764 89.4668V78.532L211.129 77.9964C210.384 74.3898 208.964 70.9565 206.944 67.8773L210.562 63.5183L202.828 55.7904L198.469 59.4084C195.399 57.3877 191.977 55.9619 188.381 55.205L187.851 49.6006H176.879L176.35 55.205C172.749 55.9597 169.323 57.3856 166.249 59.4084L161.89 55.7904L154.131 63.5183L157.749 67.8773C155.726 70.95 154.3 74.3767 153.546 77.9777L147.904 78.532ZM182.328 69.1912C185.257 69.1912 188.12 70.0597 190.555 71.6868C192.99 73.314 194.888 75.6267 196.009 78.3326C197.13 81.0384 197.423 84.0158 196.852 86.8883C196.28 89.7608 194.87 92.3994 192.799 94.4704C190.728 96.5413 188.089 97.9517 185.217 98.523C182.344 99.0944 179.367 98.8012 176.661 97.6804C173.955 96.5596 171.643 94.6616 170.015 92.2264C168.388 89.7912 167.52 86.9282 167.52 83.9994C167.52 82.0527 167.904 80.125 168.649 78.3268C169.395 76.5286 170.488 74.895 171.866 73.5196C173.244 72.1442 174.879 71.054 176.678 70.3113C178.478 69.5686 180.406 69.1879 182.353 69.1912H182.328Z" fill="#F0F0F0"/>
<path d="M129.447 127.477L132.561 130.08L138.122 124.52L135.519 121.406C136.987 119.193 138.02 116.72 138.564 114.12L142.612 113.74V105.863L138.564 105.483C138.025 102.894 137 100.43 135.544 98.2223L138.147 95.1087L132.586 89.5479L129.472 92.1508C127.263 90.697 124.8 89.6724 122.211 89.1307L121.832 85.083H113.948L113.568 89.1307C110.979 89.6763 108.515 90.7051 106.307 92.1633L103.194 89.5603L97.6328 95.1212L100.236 98.2348C98.7795 100.443 97.7547 102.906 97.2156 105.496L93.168 105.875V113.734L97.2156 114.114C97.7547 116.703 98.7795 119.167 100.236 121.375L97.6328 124.488L103.194 130.049L106.307 127.446C108.516 128.9 110.98 129.925 113.568 130.467L113.948 134.514H121.807L122.187 130.467C124.773 129.934 127.236 128.92 129.447 127.477ZM107.241 109.811C107.241 107.706 107.866 105.648 109.035 103.898C110.205 102.148 111.867 100.784 113.812 99.9783C115.757 99.173 117.897 98.9626 119.962 99.3738C122.027 99.7849 123.923 100.799 125.411 102.288C126.899 103.777 127.912 105.674 128.322 107.739C128.732 109.803 128.52 111.943 127.714 113.888C126.907 115.832 125.542 117.494 123.792 118.663C122.041 119.831 119.982 120.454 117.877 120.453C116.48 120.453 115.096 120.178 113.806 119.643C112.515 119.108 111.342 118.324 110.354 117.336C109.367 116.348 108.583 115.174 108.049 113.883C107.515 112.592 107.241 111.208 107.241 109.811Z" fill="#F5F5F5"/>
<path d="M164.374 180.713C167.456 180.072 170.389 178.853 173.017 177.12L176.754 180.233L183.398 173.601L180.284 169.865C182.018 167.237 183.237 164.304 183.878 161.222L188.697 160.773V151.433L183.878 150.978C183.24 147.887 182.02 144.946 180.284 142.31L183.398 138.574L176.76 131.954L173.024 135.068C170.394 133.338 167.462 132.119 164.38 131.475L163.926 126.661H154.585L154.13 131.456C151.049 132.1 148.117 133.319 145.487 135.049L141.751 131.936L135.131 138.555L138.245 142.291C136.515 144.921 135.296 147.853 134.652 150.935L129.832 151.389V160.73L134.652 161.178C135.295 164.26 136.514 167.192 138.245 169.822L135.131 173.558L141.751 180.171L145.487 177.058C148.111 178.813 151.044 180.053 154.13 180.713L154.585 185.533H163.926L164.374 180.713ZM146.577 156.084C146.578 153.58 147.322 151.131 148.714 149.049C150.107 146.967 152.086 145.345 154.4 144.387C156.715 143.429 159.261 143.179 161.718 143.669C164.174 144.158 166.431 145.365 168.201 147.137C169.972 148.908 171.178 151.165 171.666 153.622C172.154 156.079 171.903 158.625 170.944 160.939C169.985 163.253 168.362 165.231 166.279 166.623C164.196 168.014 161.748 168.757 159.243 168.757C157.579 168.757 155.931 168.429 154.394 167.792C152.857 167.155 151.461 166.222 150.284 165.045C149.108 163.868 148.175 162.471 147.539 160.933C146.903 159.396 146.576 157.748 146.577 156.084Z" fill="#FAFAFA"/>
<path d="M88.4122 67.4832L59.7656 63.5693L55.8517 92.2159L84.4983 96.1298L88.4122 67.4832Z" fill="#F5F5F5"/>
<path d="M63.9795 71.4244L63.7266 73.2754L82.378 75.8237L82.6309 73.9727L63.9795 71.4244Z" fill="#E0E0E0"/>
<path d="M63.1826 77.235L62.9297 79.0859L81.5811 81.6342L81.834 79.7833L63.1826 77.235Z" fill="#E0E0E0"/>
<path d="M62.3662 83.2408L62.1133 85.0918L73.0956 86.5923L73.3485 84.7413L62.3662 83.2408Z" fill="#E0E0E0"/>
<path d="M248.795 35.6618L219.883 35.7627L219.984 64.6752L248.896 64.5743L248.795 35.6618Z" fill="#F0F0F0"/>
<path d="M243.991 42.847L225.166 42.916L225.173 44.7841L243.997 44.7152L243.991 42.847Z" fill="#E0E0E0"/>
<path d="M244.018 48.7132L225.193 48.7822L225.2 50.6504L244.025 50.5814L244.018 48.7132Z" fill="#E0E0E0"/>
<path d="M236.293 54.8061L225.209 54.8467L225.216 56.7148L236.3 56.6742L236.293 54.8061Z" fill="#E0E0E0"/>
<path d="M266.146 106.174L237.463 109.808L241.097 138.491L269.78 134.857L266.146 106.174Z" fill="#F5F5F5"/>
<path d="M262.263 113.922L243.588 116.288L243.823 118.141L262.498 115.776L262.263 113.922Z" fill="#E0E0E0"/>
<path d="M263.002 119.738L244.326 122.104L244.561 123.957L263.236 121.591L263.002 119.738Z" fill="#E0E0E0"/>
<path d="M256.082 126.724L245.086 128.117L245.321 129.971L256.317 128.577L256.082 126.724Z" fill="#E0E0E0"/>
<path d="M112.352 152.728L83.4395 152.829L83.5404 181.742L112.453 181.641L112.352 152.728Z" fill="#F0F0F0"/>
<path d="M107.578 159.937L88.7539 160.006L88.7608 161.874L107.585 161.805L107.578 159.937Z" fill="#E0E0E0"/>
<path d="M107.6 165.803L88.7754 165.872L88.7822 167.74L107.607 167.671L107.6 165.803Z" fill="#E0E0E0"/>
<path d="M99.8811 171.897L88.7969 171.938L88.8037 173.806L99.888 173.765L99.8811 171.897Z" fill="#E0E0E0"/>
<path d="M240.051 166.884L211.139 166.985L211.24 195.898L240.152 195.797L240.051 166.884Z" fill="#F0F0F0"/>
<path d="M235.274 174.072L216.449 174.141L216.456 176.009L235.281 175.94L235.274 174.072Z" fill="#E0E0E0"/>
<path d="M235.301 179.938L216.477 180.007L216.483 181.875L235.308 181.806L235.301 179.938Z" fill="#E0E0E0"/>
<path d="M227.576 186.031L216.492 186.071L216.499 187.939L227.583 187.899L227.576 186.031Z" fill="#E0E0E0"/>
<path d="M118.215 33.7733L89.9902 40.041L96.2579 68.2662L124.483 61.9985L118.215 33.7733Z" fill="#F0F0F0"/>
<path d="M115.055 41.8635L96.6777 45.9443L97.0827 47.7681L115.46 43.6872L115.055 41.8635Z" fill="#E0E0E0"/>
<path d="M116.33 47.5911L97.9531 51.6719L98.3581 53.4956L116.735 49.4148L116.33 47.5911Z" fill="#E0E0E0"/>
<path d="M110.086 55.187L99.2656 57.5898L99.6706 59.4136L110.491 57.0107L110.086 55.187Z" fill="#E0E0E0"/>
<path d="M62.1177 66.6939H61.6009L60.8848 63.3936H62.8276L62.1177 66.6939Z" fill="#E0E0E0"/>
<path d="M61.8564 65.8777C63.3077 65.8777 64.4842 64.9494 64.4842 63.8041C64.4842 62.6589 63.3077 61.7305 61.8564 61.7305C60.405 61.7305 59.2285 62.6589 59.2285 63.8041C59.2285 64.9494 60.405 65.8777 61.8564 65.8777Z" fill="#E6E6E6"/>
<path d="M114.944 37.8811H114.427L113.717 34.5869H115.66L114.944 37.8811Z" fill="#E0E0E0"/>
<path d="M114.689 37.0711C116.144 37.0711 117.323 36.1427 117.323 34.9975C117.323 33.8522 116.144 32.9238 114.689 32.9238C113.234 32.9238 112.055 33.8522 112.055 34.9975C112.055 36.1427 113.234 37.0711 114.689 37.0711Z" fill="#E6E6E6"/>
<path d="M233.926 38.7092H233.409L232.693 35.415H234.636L233.926 38.7092Z" fill="#E0E0E0"/>
<path d="M233.665 37.8992C235.116 37.8992 236.293 36.9708 236.293 35.8256C236.293 34.6804 235.116 33.752 233.665 33.752C232.214 33.752 231.037 34.6804 231.037 35.8256C231.037 36.9708 232.214 37.8992 233.665 37.8992Z" fill="#E6E6E6"/>
<path d="M263.481 110.315H262.964L262.254 107.021H264.197L263.481 110.315Z" fill="#E0E0E0"/>
<path d="M263.226 109.506C264.677 109.506 265.853 108.577 265.853 107.432C265.853 106.287 264.677 105.358 263.226 105.358C261.774 105.358 260.598 106.287 260.598 107.432C260.598 108.577 261.774 109.506 263.226 109.506Z" fill="#E6E6E6"/>
<path d="M226.11 170.171H225.587L224.877 166.87H226.82L226.11 170.171Z" fill="#E0E0E0"/>
<path d="M225.849 169.354C227.3 169.354 228.476 168.426 228.476 167.281C228.476 166.135 227.3 165.207 225.849 165.207C224.397 165.207 223.221 166.135 223.221 167.281C223.221 168.426 224.397 169.354 225.849 169.354Z" fill="#E6E6E6"/>
<path d="M97.1408 155.35H96.624L95.9141 152.05H97.8569L97.1408 155.35Z" fill="#E0E0E0"/>
<path d="M96.8857 154.534C98.337 154.534 99.5135 153.606 99.5135 152.46C99.5135 151.315 98.337 150.387 96.8857 150.387C95.4343 150.387 94.2578 151.315 94.2578 152.46C94.2578 153.606 95.4343 154.534 96.8857 154.534Z" fill="#E6E6E6"/>
<path d="M156 232C222.682 232 276.738 228.844 276.738 224.95C276.738 221.057 222.682 217.901 156 217.901C89.3181 217.901 35.2617 221.057 35.2617 224.95C35.2617 228.844 89.3181 232 156 232Z" fill="#F5F5F5"/>
<path d="M89.7871 120.708C89.7871 116.604 92.4835 113.235 95.8025 113.235C99.1216 113.235 101.818 116.573 101.818 120.708C101.818 124.843 99.1216 128.143 95.8025 128.143C92.4835 128.143 89.7871 124.812 89.7871 120.708ZM91.0325 120.708C91.0325 124.12 93.1747 126.898 95.8025 126.898C98.4304 126.898 100.573 124.12 100.573 120.708C100.573 117.295 98.4366 114.481 95.8025 114.481C93.1685 114.481 91.0325 117.295 91.0325 120.708Z" fill="#263238"/>
<path d="M77.9492 120.708C77.9492 116.604 80.6456 113.235 83.9647 113.235C87.2837 113.235 89.9801 116.573 89.9801 120.708C89.9801 124.843 87.2837 128.143 83.9647 128.143C80.6456 128.143 77.9492 124.812 77.9492 120.708ZM79.1946 120.708C79.1946 124.12 81.3306 126.898 83.9647 126.898C86.5987 126.898 88.7346 124.12 88.7346 120.708C88.7346 117.295 86.5925 114.481 83.9647 114.481C81.3368 114.481 79.1946 117.295 79.1946 120.708Z" fill="#263238"/>
<path d="M66.1055 120.708C66.1055 116.604 68.8081 113.235 72.1271 113.235C75.4462 113.235 78.1426 116.573 78.1426 120.708C78.1426 124.843 75.44 128.143 72.1271 128.143C68.8143 128.143 66.1055 124.812 66.1055 120.708ZM67.3509 120.708C67.3509 124.12 69.493 126.898 72.1271 126.898C74.7612 126.898 76.8971 124.12 76.8971 120.708C76.8971 117.295 74.755 114.481 72.1271 114.481C69.4993 114.481 67.3509 117.295 67.3509 120.708Z" fill="#263238"/>
<path d="M54.2676 120.708C54.2676 116.604 56.9702 113.235 60.2892 113.235C63.6083 113.235 66.3047 116.573 66.3047 120.708C66.3047 124.843 63.6021 128.143 60.2892 128.143C56.9764 128.143 54.2676 124.812 54.2676 120.708ZM55.513 120.708C55.513 124.12 57.6552 126.898 60.2892 126.898C62.9233 126.898 65.0592 124.12 65.0592 120.708C65.0592 117.295 62.9171 114.481 60.2892 114.481C57.6614 114.481 55.513 117.295 55.513 120.708Z" fill="#263238"/>
<path d="M101.625 120.708C101.625 116.604 104.321 113.235 107.64 113.235C110.96 113.235 113.662 116.573 113.662 120.708C113.662 124.843 110.96 128.143 107.64 128.143C104.321 128.143 101.625 124.812 101.625 120.708ZM102.87 120.708C102.87 124.12 105.013 126.898 107.64 126.898C110.268 126.898 112.417 124.12 112.417 120.708C112.417 117.295 110.275 114.481 107.64 114.481C105.006 114.481 102.87 117.295 102.87 120.708Z" fill="#263238"/>
<path d="M46.4388 223.425H120.592L120.592 120.851L46.4388 120.851L46.4388 223.425Z" fill="#263238"/>
<path opacity="0.7" d="M46.4388 223.425H120.592L120.592 120.851L46.4388 120.851L46.4388 223.425Z" fill="white"/>
<path opacity="0.6" d="M53.1206 223.425H120.592L120.592 120.851L53.1206 120.851L53.1206 223.425Z" fill="white"/>
<path opacity="0.2" d="M48.6618 223.425L48.3504 127.564L48.0391 223.425H48.6618Z" fill="black"/>
<path opacity="0.2" d="M51.7633 223.425L51.452 133.536L51.1406 223.425H51.7633Z" fill="black"/>
<path opacity="0.2" d="M49.5898 120.926L49.9012 192.993L50.2126 120.926H49.5898Z" fill="black"/>
<path d="M109.433 125.727C109.497 126.059 109.654 126.366 109.886 126.612C110.118 126.858 110.415 127.033 110.743 127.116C111.07 127.2 111.415 127.188 111.736 127.083C112.057 126.978 112.342 126.783 112.557 126.523C112.772 126.262 112.908 125.945 112.95 125.609C112.991 125.274 112.937 124.933 112.792 124.628C112.647 124.322 112.418 124.064 112.132 123.884C111.846 123.704 111.515 123.608 111.177 123.609C110.667 123.663 110.198 123.915 109.872 124.311C109.546 124.707 109.388 125.216 109.433 125.727Z" fill="#263238"/>
<path d="M111.289 126.356C111.378 126.355 111.466 126.335 111.547 126.298C111.627 126.26 111.699 126.206 111.757 126.138C113.011 124.609 113.686 122.686 113.662 120.708C113.662 116.604 110.959 113.235 107.64 113.235C105.199 113.235 103.014 115.041 102.08 117.825C102.053 117.902 102.043 117.985 102.048 118.066C102.054 118.148 102.075 118.228 102.112 118.301C102.148 118.375 102.199 118.44 102.261 118.494C102.322 118.548 102.394 118.589 102.472 118.616C102.55 118.642 102.632 118.652 102.713 118.647C102.795 118.641 102.875 118.62 102.949 118.583C103.022 118.547 103.087 118.496 103.141 118.435C103.195 118.373 103.237 118.301 103.263 118.223C104.022 115.95 105.754 114.487 107.622 114.487C110.256 114.487 112.398 117.271 112.398 120.714C112.424 122.393 111.858 124.027 110.798 125.328C110.718 125.419 110.667 125.53 110.649 125.649C110.632 125.768 110.649 125.889 110.699 125.999C110.749 126.108 110.83 126.201 110.931 126.265C111.033 126.329 111.151 126.363 111.271 126.362L111.289 126.356Z" fill="#263238"/>
<g opacity="0.4">
<path d="M111.289 126.356C111.378 126.355 111.466 126.335 111.547 126.298C111.627 126.26 111.699 126.206 111.757 126.138C113.011 124.609 113.686 122.686 113.662 120.708C113.662 116.604 110.959 113.235 107.64 113.235C105.199 113.235 103.014 115.041 102.08 117.825C102.053 117.902 102.043 117.985 102.048 118.066C102.054 118.148 102.075 118.228 102.112 118.301C102.148 118.375 102.199 118.44 102.261 118.494C102.322 118.548 102.394 118.589 102.472 118.616C102.55 118.642 102.632 118.652 102.713 118.647C102.795 118.641 102.875 118.62 102.949 118.583C103.022 118.547 103.087 118.496 103.141 118.435C103.195 118.373 103.237 118.301 103.263 118.223C104.022 115.95 105.754 114.487 107.622 114.487C110.256 114.487 112.398 117.271 112.398 120.714C112.424 122.393 111.858 124.027 110.798 125.328C110.718 125.419 110.667 125.53 110.649 125.649C110.632 125.768 110.649 125.889 110.699 125.999C110.749 126.108 110.83 126.201 110.931 126.265C111.033 126.329 111.151 126.363 111.271 126.362L111.289 126.356Z" fill="white"/>
</g>
<path d="M97.5955 125.727C97.6604 126.057 97.8177 126.361 98.0491 126.605C98.2804 126.849 98.5763 127.023 98.9024 127.105C99.2284 127.187 99.5711 127.175 99.8905 127.07C100.21 126.965 100.493 126.772 100.707 126.512C100.921 126.253 101.056 125.938 101.098 125.604C101.14 125.271 101.086 124.932 100.942 124.628C100.799 124.324 100.572 124.066 100.288 123.886C100.005 123.706 99.6754 123.61 99.3391 123.609C98.8288 123.663 98.36 123.915 98.0338 124.311C97.7077 124.707 97.5502 125.216 97.5955 125.727Z" fill="#263238"/>
<path d="M99.4454 126.356C99.5353 126.356 99.6242 126.336 99.7059 126.299C99.7876 126.261 99.8602 126.206 99.9186 126.138C101.172 124.608 101.844 122.685 101.818 120.708C101.818 116.604 99.1216 113.235 95.8025 113.235C93.3552 113.235 91.1757 115.041 90.2416 117.825C90.1888 117.982 90.2004 118.153 90.274 118.301C90.3476 118.45 90.4771 118.563 90.634 118.616C90.7909 118.668 90.9623 118.657 91.1106 118.583C91.2589 118.51 91.372 118.38 91.4248 118.223C92.1845 115.95 93.9157 114.487 95.7838 114.487C98.4179 114.487 100.554 117.271 100.554 120.714C100.582 122.392 100.018 124.026 98.9597 125.328C98.8807 125.418 98.8293 125.529 98.8116 125.648C98.7939 125.766 98.8107 125.887 98.86 125.996C98.9093 126.105 98.9889 126.197 99.0894 126.262C99.1899 126.327 99.307 126.362 99.4267 126.362L99.4454 126.356Z" fill="#263238"/>
<g opacity="0.4">
<path d="M99.4454 126.356C99.5353 126.356 99.6242 126.336 99.7059 126.299C99.7876 126.261 99.8602 126.206 99.9186 126.138C101.172 124.608 101.844 122.685 101.818 120.708C101.818 116.604 99.1216 113.235 95.8025 113.235C93.3552 113.235 91.1757 115.041 90.2416 117.825C90.1888 117.982 90.2004 118.153 90.274 118.301C90.3476 118.45 90.4771 118.563 90.634 118.616C90.7909 118.668 90.9623 118.657 91.1106 118.583C91.2589 118.51 91.372 118.38 91.4248 118.223C92.1845 115.95 93.9157 114.487 95.7838 114.487C98.4179 114.487 100.554 117.271 100.554 120.714C100.582 122.392 100.018 124.026 98.9597 125.328C98.8807 125.418 98.8293 125.529 98.8116 125.648C98.7939 125.766 98.8107 125.887 98.86 125.996C98.9093 126.105 98.9889 126.197 99.0894 126.262C99.1899 126.327 99.307 126.362 99.4267 126.362L99.4454 126.356Z" fill="white"/>
</g>
<path d="M85.7512 125.727C85.815 126.058 85.9718 126.365 86.2034 126.611C86.4349 126.857 86.7316 127.032 87.0589 127.116C87.3862 127.199 87.7305 127.188 88.0517 127.084C88.3729 126.979 88.6577 126.785 88.8729 126.525C89.0881 126.265 89.2249 125.948 89.2671 125.613C89.3094 125.278 89.2555 124.938 89.1116 124.632C88.9678 124.326 88.74 124.068 88.4548 123.887C88.1696 123.706 87.8389 123.61 87.501 123.609C86.9903 123.663 86.5209 123.915 86.1937 124.311C85.8665 124.706 85.7077 125.215 85.7512 125.727Z" fill="#263238"/>
<path d="M87.6078 126.356C87.6977 126.356 87.7866 126.336 87.8683 126.299C87.95 126.261 88.0226 126.206 88.081 126.138C89.3228 124.604 89.9842 122.681 89.9492 120.708C89.9492 116.604 87.2528 113.235 83.9338 113.235C81.4865 113.235 79.307 115.041 78.3729 117.825C78.3465 117.902 78.3358 117.985 78.3412 118.066C78.3467 118.148 78.3683 118.228 78.4047 118.302C78.4412 118.375 78.4918 118.441 78.5537 118.495C78.6155 118.549 78.6874 118.59 78.7652 118.616C78.8429 118.642 78.925 118.653 79.0069 118.647C79.0887 118.642 79.1687 118.62 79.2422 118.584C79.3157 118.547 79.3812 118.497 79.4351 118.435C79.489 118.373 79.5301 118.301 79.5561 118.223C80.3158 115.95 82.0469 114.487 83.9151 114.487C86.5429 114.487 88.6851 117.271 88.6851 120.714C88.7147 122.393 88.1476 124.028 87.0847 125.328C87.0054 125.419 86.9539 125.53 86.9364 125.649C86.9189 125.768 86.9363 125.889 86.9863 125.999C87.0364 126.108 87.117 126.201 87.2184 126.265C87.3198 126.329 87.4378 126.363 87.558 126.362L87.6078 126.356Z" fill="#263238"/>
<g opacity="0.4">
<path d="M87.6078 126.356C87.6977 126.356 87.7866 126.336 87.8683 126.299C87.95 126.261 88.0226 126.206 88.081 126.138C89.3228 124.604 89.9842 122.681 89.9492 120.708C89.9492 116.604 87.2528 113.235 83.9338 113.235C81.4865 113.235 79.307 115.041 78.3729 117.825C78.3465 117.902 78.3358 117.985 78.3412 118.066C78.3467 118.148 78.3683 118.228 78.4047 118.302C78.4412 118.375 78.4918 118.441 78.5537 118.495C78.6155 118.549 78.6874 118.59 78.7652 118.616C78.8429 118.642 78.925 118.653 79.0069 118.647C79.0887 118.642 79.1687 118.62 79.2422 118.584C79.3157 118.547 79.3812 118.497 79.4351 118.435C79.489 118.373 79.5301 118.301 79.5561 118.223C80.3158 115.95 82.0469 114.487 83.9151 114.487C86.5429 114.487 88.6851 117.271 88.6851 120.714C88.7147 122.393 88.1476 124.028 87.0847 125.328C87.0054 125.419 86.9539 125.53 86.9364 125.649C86.9189 125.768 86.9363 125.889 86.9863 125.999C87.0364 126.108 87.117 126.201 87.2184 126.265C87.3198 126.329 87.4378 126.363 87.558 126.362L87.6078 126.356Z" fill="white"/>
</g>
<path d="M73.9133 125.727C73.9771 126.058 74.1339 126.365 74.3655 126.611C74.597 126.857 74.8937 127.032 75.221 127.116C75.5483 127.199 75.8926 127.188 76.2138 127.084C76.535 126.979 76.8198 126.785 77.0351 126.525C77.2503 126.265 77.387 125.948 77.4292 125.613C77.4715 125.278 77.4176 124.938 77.2737 124.632C77.1299 124.326 76.9021 124.068 76.6169 123.887C76.3318 123.706 76.001 123.61 75.6632 123.609C75.1524 123.663 74.683 123.915 74.3558 124.311C74.0286 124.706 73.8698 125.215 73.9133 125.727Z" fill="#263238"/>
<path d="M75.769 126.356C75.8589 126.356 75.9478 126.336 76.0295 126.299C76.1112 126.261 76.1838 126.206 76.2422 126.138C77.4839 124.604 78.1454 122.681 78.1104 120.708C78.1104 116.604 75.4078 113.235 72.0949 113.235C69.6477 113.235 67.4682 115.041 66.5341 117.825C66.5013 117.904 66.4851 117.988 66.4864 118.074C66.4877 118.159 66.5066 118.243 66.5417 118.321C66.5769 118.398 66.6277 118.468 66.6909 118.525C66.7542 118.583 66.8285 118.626 66.9093 118.654C66.9901 118.681 67.0757 118.692 67.1607 118.684C67.2458 118.677 67.3284 118.653 67.4036 118.613C67.4788 118.572 67.5449 118.517 67.5977 118.45C67.6506 118.383 67.6892 118.306 67.711 118.223C68.4707 115.95 70.2019 114.487 72.07 114.487C74.6979 114.487 76.84 117.271 76.84 120.714C76.8664 122.393 76.2997 124.027 75.2396 125.328C75.1603 125.419 75.1088 125.53 75.0913 125.649C75.0739 125.768 75.0912 125.889 75.1413 125.999C75.1913 126.108 75.2719 126.201 75.3733 126.265C75.4748 126.329 75.5927 126.363 75.7129 126.362L75.769 126.356Z" fill="#263238"/>
<g opacity="0.4">
<path d="M75.769 126.356C75.8589 126.356 75.9478 126.336 76.0295 126.299C76.1112 126.261 76.1838 126.206 76.2422 126.138C77.4839 124.604 78.1454 122.681 78.1104 120.708C78.1104 116.604 75.4078 113.235 72.0949 113.235C69.6477 113.235 67.4682 115.041 66.5341 117.825C66.5013 117.904 66.4851 117.988 66.4864 118.074C66.4877 118.159 66.5066 118.243 66.5417 118.321C66.5769 118.398 66.6277 118.468 66.6909 118.525C66.7542 118.583 66.8285 118.626 66.9093 118.654C66.9901 118.681 67.0757 118.692 67.1607 118.684C67.2458 118.677 67.3284 118.653 67.4036 118.613C67.4788 118.572 67.5449 118.517 67.5977 118.45C67.6506 118.383 67.6892 118.306 67.711 118.223C68.4707 115.95 70.2019 114.487 72.07 114.487C74.6979 114.487 76.84 117.271 76.84 120.714C76.8664 122.393 76.2997 124.027 75.2396 125.328C75.1603 125.419 75.1088 125.53 75.0913 125.649C75.0739 125.768 75.0912 125.889 75.1413 125.999C75.1913 126.108 75.2719 126.201 75.3733 126.265C75.4748 126.329 75.5927 126.363 75.7129 126.362L75.769 126.356Z" fill="white"/>
</g>
<path d="M62.0762 125.727C62.0762 126.897 62.8608 127.844 63.8198 127.844C64.3132 127.751 64.7586 127.488 65.079 127.102C65.3995 126.715 65.5749 126.229 65.5749 125.727C65.5749 125.224 65.3995 124.738 65.079 124.352C64.7586 123.965 64.3132 123.702 63.8198 123.609C62.8608 123.609 62.0762 124.543 62.0762 125.727Z" fill="#263238"/>
<path d="M63.9311 126.356C64.021 126.356 64.1099 126.336 64.1916 126.299C64.2733 126.261 64.3459 126.206 64.4043 126.138C65.6437 124.603 66.3048 122.681 66.2725 120.708C66.2725 116.604 63.5699 113.235 60.257 113.235C57.8098 113.235 55.624 115.041 54.6962 117.825C54.6634 117.904 54.6472 117.988 54.6485 118.074C54.6498 118.159 54.6687 118.243 54.7039 118.321C54.739 118.398 54.7898 118.468 54.853 118.525C54.9163 118.583 54.9906 118.626 55.0714 118.654C55.1522 118.681 55.2378 118.692 55.3229 118.684C55.4079 118.677 55.4905 118.653 55.5657 118.613C55.6409 118.572 55.707 118.517 55.7599 118.45C55.8127 118.383 55.8513 118.306 55.8731 118.223C56.6328 115.95 58.364 114.487 60.2321 114.487C62.86 114.487 65.0021 117.271 65.0021 120.714C65.0285 122.393 64.4618 124.027 63.4018 125.328C63.3473 125.39 63.3056 125.463 63.2792 125.541C63.2529 125.619 63.2423 125.701 63.248 125.784C63.2538 125.866 63.2759 125.946 63.313 126.02C63.3501 126.094 63.4014 126.159 63.464 126.213C63.5282 126.267 63.6027 126.307 63.6829 126.332C63.7632 126.357 63.8476 126.365 63.9311 126.356Z" fill="#263238"/>
<g opacity="0.4">
<path d="M63.9311 126.356C64.021 126.356 64.1099 126.336 64.1916 126.299C64.2733 126.261 64.3459 126.206 64.4043 126.138C65.6437 124.603 66.3048 122.681 66.2725 120.708C66.2725 116.604 63.5699 113.235 60.257 113.235C57.8098 113.235 55.624 115.041 54.6962 117.825C54.6634 117.904 54.6472 117.988 54.6485 118.074C54.6498 118.159 54.6687 118.243 54.7039 118.321C54.739 118.398 54.7898 118.468 54.853 118.525C54.9163 118.583 54.9906 118.626 55.0714 118.654C55.1522 118.681 55.2378 118.692 55.3229 118.684C55.4079 118.677 55.4905 118.653 55.5657 118.613C55.6409 118.572 55.707 118.517 55.7599 118.45C55.8127 118.383 55.8513 118.306 55.8731 118.223C56.6328 115.95 58.364 114.487 60.2321 114.487C62.86 114.487 65.0021 117.271 65.0021 120.714C65.0285 122.393 64.4618 124.027 63.4018 125.328C63.3473 125.39 63.3056 125.463 63.2792 125.541C63.2529 125.619 63.2423 125.701 63.248 125.784C63.2538 125.866 63.2759 125.946 63.313 126.02C63.3501 126.094 63.4014 126.159 63.464 126.213C63.5282 126.267 63.6027 126.307 63.6829 126.332C63.7632 126.357 63.8476 126.365 63.9311 126.356Z" fill="white"/>
</g>
<path d="M72.6051 168.041H67.3867V176.94H72.6051V168.041Z" fill="#FFC000"/>
<path d="M81.0562 161.564H75.8379V176.939H81.0562V161.564Z" fill="#FFC000"/>
<path d="M89.5133 163.993H84.2949V176.939H89.5133V163.993Z" fill="#FFC000"/>
<path d="M97.9684 157.517H92.75V176.939H97.9684V157.517Z" fill="#FFC000"/>
<path d="M106.42 151.04H101.201V176.939H106.42V151.04Z" fill="#FFC000"/>
<path opacity="0.5" d="M72.6051 168.041H67.3867V176.94H72.6051V168.041Z" fill="white"/>
<path opacity="0.5" d="M81.0562 161.564H75.8379V176.939H81.0562V161.564Z" fill="white"/>
<path opacity="0.5" d="M89.5133 163.993H84.2949V176.939H89.5133V163.993Z" fill="white"/>
<path opacity="0.5" d="M97.9684 157.517H92.75V176.939H97.9684V157.517Z" fill="white"/>
<path opacity="0.5" d="M106.42 151.04H101.201V176.939H106.42V151.04Z" fill="white"/>
<path d="M113.382 175.706H60.2207V178.172H113.382V175.706Z" fill="#263238"/>
<path d="M62.4622 169.871L61.3164 168.427L78.3664 154.858L86.8042 159.752L109.583 140.336L110.779 141.737L87.0097 162.006L78.5345 157.087L62.4622 169.871Z" fill="#FFC000"/>
<path d="M111.538 139.894L108.076 140.429L110.517 143.032L111.538 139.894Z" fill="#FFC000"/>
<g opacity="0.3">
<path d="M90.3663 186.193H60.2829C60.1177 186.193 59.9593 186.127 59.8425 186.01C59.7258 185.894 59.6602 185.735 59.6602 185.57C59.6602 185.405 59.7258 185.246 59.8425 185.13C59.9593 185.013 60.1177 184.947 60.2829 184.947H90.3663C90.5314 184.947 90.6898 185.013 90.8066 185.13C90.9234 185.246 90.989 185.405 90.989 185.57C90.989 185.735 90.9234 185.894 90.8066 186.01C90.6898 186.127 90.5314 186.193 90.3663 186.193Z" fill="black"/>
</g>
<g opacity="0.3">
<path d="M113.606 191.742H64.5797C64.4146 191.742 64.2562 191.676 64.1394 191.559C64.0226 191.442 63.957 191.284 63.957 191.119C63.957 190.954 64.0226 190.795 64.1394 190.678C64.2562 190.562 64.4146 190.496 64.5797 190.496H113.606C113.771 190.496 113.93 190.562 114.046 190.678C114.163 190.795 114.229 190.954 114.229 191.119C114.229 191.284 114.163 191.442 114.046 191.559C113.93 191.676 113.771 191.742 113.606 191.742Z" fill="black"/>
<path d="M113.656 194.862H60.2829C60.1177 194.862 59.9593 194.796 59.8425 194.679C59.7258 194.562 59.6602 194.404 59.6602 194.239C59.6602 194.074 59.7258 193.915 59.8425 193.799C59.9593 193.682 60.1177 193.616 60.2829 193.616H113.656C113.821 193.616 113.979 193.682 114.096 193.799C114.213 193.915 114.279 194.074 114.279 194.239C114.279 194.404 114.213 194.562 114.096 194.679C113.979 194.796 113.821 194.862 113.656 194.862Z" fill="black"/>
<path d="M113.743 197.981H60.3512C60.1861 197.981 60.0277 197.915 59.9109 197.798C59.7941 197.682 59.7285 197.523 59.7285 197.358C59.7285 197.193 59.7941 197.035 59.9109 196.918C60.0277 196.801 60.1861 196.735 60.3512 196.735H113.743C113.908 196.735 114.066 196.801 114.183 196.918C114.3 197.035 114.366 197.193 114.366 197.358C114.366 197.523 114.3 197.682 114.183 197.798C114.066 197.915 113.908 197.981 113.743 197.981Z" fill="black"/>
<path d="M105.087 201.101H60.4196C60.2544 201.101 60.096 201.035 59.9793 200.919C59.8625 200.802 59.7969 200.643 59.7969 200.478C59.7969 200.313 59.8625 200.155 59.9793 200.038C60.096 199.921 60.2544 199.855 60.4196 199.855H105.087C105.252 199.855 105.411 199.921 105.527 200.038C105.644 200.155 105.71 200.313 105.71 200.478C105.71 200.643 105.644 200.802 105.527 200.919C105.411 201.035 105.252 201.101 105.087 201.101Z" fill="black"/>
</g>
<g opacity="0.3">
<path d="M113.606 206.699H64.5797C64.4146 206.699 64.2562 206.633 64.1394 206.516C64.0226 206.399 63.957 206.241 63.957 206.076C63.957 205.911 64.0226 205.752 64.1394 205.636C64.2562 205.519 64.4146 205.453 64.5797 205.453H113.606C113.771 205.453 113.93 205.519 114.046 205.636C114.163 205.752 114.229 205.911 114.229 206.076C114.229 206.241 114.163 206.399 114.046 206.516C113.93 206.633 113.771 206.699 113.606 206.699Z" fill="black"/>
<path d="M113.656 209.819H60.2829C60.1177 209.819 59.9593 209.753 59.8425 209.636C59.7258 209.519 59.6602 209.361 59.6602 209.196C59.6602 209.031 59.7258 208.872 59.8425 208.756C59.9593 208.639 60.1177 208.573 60.2829 208.573H113.656C113.821 208.573 113.979 208.639 114.096 208.756C114.213 208.872 114.279 209.031 114.279 209.196C114.279 209.361 114.213 209.519 114.096 209.636C113.979 209.753 113.821 209.819 113.656 209.819Z" fill="black"/>
<path d="M113.743 212.969H60.3512C60.1861 212.969 60.0277 212.903 59.9109 212.787C59.7941 212.67 59.7285 212.512 59.7285 212.346C59.7285 212.181 59.7941 212.023 59.9109 211.906C60.0277 211.789 60.1861 211.724 60.3512 211.724H113.743C113.908 211.724 114.066 211.789 114.183 211.906C114.3 212.023 114.366 212.181 114.366 212.346C114.366 212.512 114.3 212.67 114.183 212.787C114.066 212.903 113.908 212.969 113.743 212.969Z" fill="black"/>
<path d="M105.087 216.083H60.4196C60.2544 216.083 60.096 216.018 59.9793 215.901C59.8625 215.784 59.7969 215.626 59.7969 215.461C59.7969 215.295 59.8625 215.137 59.9793 215.02C60.096 214.904 60.2544 214.838 60.4196 214.838H105.087C105.252 214.838 105.411 214.904 105.527 215.02C105.644 215.137 105.71 215.295 105.71 215.461C105.71 215.626 105.644 215.784 105.527 215.901C105.411 216.018 105.252 216.083 105.087 216.083Z" fill="black"/>
</g>
<g opacity="0.3">
<path d="M90.3663 134.457H60.2829C60.1177 134.457 59.9593 134.392 59.8425 134.275C59.7258 134.158 59.6602 134 59.6602 133.835C59.6602 133.669 59.7258 133.511 59.8425 133.394C59.9593 133.278 60.1177 133.212 60.2829 133.212H90.3663C90.5314 133.212 90.6898 133.278 90.8066 133.394C90.9234 133.511 90.989 133.669 90.989 133.835C90.989 134 90.9234 134.158 90.8066 134.275C90.6898 134.392 90.5314 134.457 90.3663 134.457Z" fill="black"/>
</g>
<path d="M255.907 72.3848H184.401C183.211 72.3848 182.246 73.3494 182.246 74.5394V192.669C182.246 193.858 183.211 194.823 184.401 194.823H255.907C257.097 194.823 258.062 193.858 258.062 192.669V74.5394C258.062 73.3494 257.097 72.3848 255.907 72.3848Z" fill="#FFC000"/>
<path d="M200.112 71.7999H240.202C240.308 71.7999 240.409 71.8418 240.484 71.9166C240.559 71.9913 240.601 72.0927 240.601 72.1984V76.2087H199.707V72.1984C199.707 72.1455 199.718 72.0932 199.738 72.0444C199.758 71.9957 199.788 71.9515 199.826 71.9144C199.864 71.8773 199.908 71.848 199.957 71.8284C200.006 71.8087 200.059 71.799 200.112 71.7999Z" fill="#263238"/>
<path opacity="0.9" d="M255.067 76.209H185.248V190.982H255.067V76.209Z" fill="white"/>
<path d="M233.838 81.4896H221.564L221.421 81.0599C221.334 80.7939 221.165 80.5621 220.939 80.3977C220.712 80.2334 220.44 80.1449 220.16 80.1449C219.88 80.1449 219.607 80.2334 219.381 80.3977C219.154 80.5621 218.986 80.7939 218.899 81.0599L218.756 81.4896H206.47C205.993 81.4896 205.537 81.3008 205.199 80.9647C204.862 80.6285 204.672 80.1724 204.67 79.6962V75.1753C204.673 74.6996 204.864 74.2443 205.201 73.9085C205.538 73.5727 205.994 73.3835 206.47 73.3818H233.869C234.344 73.3835 234.799 73.573 235.135 73.9089C235.471 74.2449 235.661 74.7001 235.662 75.1753V79.7086C235.661 79.9457 235.612 80.1802 235.519 80.3984C235.427 80.6166 235.291 80.8142 235.122 80.9798C234.952 81.1454 234.751 81.2758 234.531 81.3633C234.311 81.4508 234.075 81.4937 233.838 81.4896ZM222.417 80.2442H233.838C233.91 80.245 233.982 80.2314 234.049 80.2042C234.115 80.1769 234.176 80.1366 234.227 80.0855C234.278 80.0345 234.319 79.9737 234.346 79.9069C234.373 79.84 234.387 79.7684 234.386 79.6962V75.1753C234.386 75.0299 234.328 74.8905 234.225 74.7878C234.123 74.685 233.983 74.6273 233.838 74.6273H206.438C206.366 74.6264 206.294 74.64 206.227 74.6672C206.16 74.6944 206.098 74.7346 206.047 74.7855C205.995 74.8365 205.954 74.8972 205.927 74.9641C205.899 75.031 205.884 75.1028 205.884 75.1753V79.7086C205.884 79.7811 205.899 79.8529 205.927 79.9198C205.954 79.9867 205.995 80.0474 206.047 80.0983C206.098 80.1493 206.16 80.1895 206.227 80.2167C206.294 80.2439 206.366 80.2574 206.438 80.2566H217.896C218.117 79.8482 218.443 79.5069 218.842 79.2691C219.24 79.0312 219.696 78.9057 220.16 78.9057C220.624 78.9057 221.079 79.0312 221.478 79.2691C221.877 79.5069 222.203 79.8482 222.424 80.2566L222.417 80.2442Z" fill="#263238"/>
<g opacity="0.5">
<path d="M233.838 81.4896H221.564L221.421 81.0599C221.334 80.7939 221.165 80.5621 220.939 80.3977C220.712 80.2334 220.44 80.1449 220.16 80.1449C219.88 80.1449 219.607 80.2334 219.381 80.3977C219.154 80.5621 218.986 80.7939 218.899 81.0599L218.756 81.4896H206.47C205.993 81.4896 205.537 81.3008 205.199 80.9647C204.862 80.6285 204.672 80.1724 204.67 79.6962V75.1753C204.673 74.6996 204.864 74.2443 205.201 73.9085C205.538 73.5727 205.994 73.3835 206.47 73.3818H233.869C234.344 73.3835 234.799 73.573 235.135 73.9089C235.471 74.2449 235.661 74.7001 235.662 75.1753V79.7086C235.661 79.9457 235.612 80.1802 235.519 80.3984C235.427 80.6166 235.291 80.8142 235.122 80.9798C234.952 81.1454 234.751 81.2758 234.531 81.3633C234.311 81.4508 234.075 81.4937 233.838 81.4896ZM222.417 80.2442H233.838C233.91 80.245 233.982 80.2314 234.049 80.2042C234.115 80.1769 234.176 80.1366 234.227 80.0855C234.278 80.0345 234.319 79.9737 234.346 79.9069C234.373 79.84 234.387 79.7684 234.386 79.6962V75.1753C234.386 75.0299 234.328 74.8905 234.225 74.7878C234.123 74.685 233.983 74.6273 233.838 74.6273H206.438C206.366 74.6264 206.294 74.64 206.227 74.6672C206.16 74.6944 206.098 74.7346 206.047 74.7855C205.995 74.8365 205.954 74.8972 205.927 74.9641C205.899 75.031 205.884 75.1028 205.884 75.1753V79.7086C205.884 79.7811 205.899 79.8529 205.927 79.9198C205.954 79.9867 205.995 80.0474 206.047 80.0983C206.098 80.1493 206.16 80.1895 206.227 80.2167C206.294 80.2439 206.366 80.2574 206.438 80.2566H217.896C218.117 79.8482 218.443 79.5069 218.842 79.2691C219.24 79.0312 219.696 78.9057 220.16 78.9057C220.624 78.9057 221.079 79.0312 221.478 79.2691C221.877 79.5069 222.203 79.8482 222.424 80.2566L222.417 80.2442Z" fill="white"/>
</g>
<path d="M231.92 72.6592H208.394C208.053 72.6592 207.777 72.9352 207.777 73.2757V74.7515C207.777 75.092 208.053 75.368 208.394 75.368H231.92C232.261 75.368 232.537 75.092 232.537 74.7515V73.2757C232.537 72.9352 232.261 72.6592 231.92 72.6592Z" fill="#263238"/>
<path opacity="0.2" d="M231.92 72.6592H208.394C208.053 72.6592 207.777 72.9352 207.777 73.2757V74.7515C207.777 75.092 208.053 75.368 208.394 75.368H231.92C232.261 75.368 232.537 75.092 232.537 74.7515V73.2757C232.537 72.9352 232.261 72.6592 231.92 72.6592Z" fill="white"/>
<path d="M249.606 172.36C251.287 165.237 246.875 158.1 239.753 156.419C232.63 154.738 225.493 159.149 223.812 166.272C222.13 173.395 226.542 180.532 233.665 182.213C240.787 183.894 247.924 179.483 249.606 172.36Z" fill="#FFC000"/>
<path opacity="0.3" d="M236.714 169.33H249.966C249.966 171.95 249.188 174.512 247.732 176.692C246.276 178.871 244.207 180.569 241.785 181.572C239.364 182.575 236.7 182.838 234.129 182.326C231.559 181.815 229.197 180.553 227.344 178.7C225.491 176.846 224.229 174.485 223.718 171.915C223.206 169.344 223.469 166.68 224.472 164.258C225.475 161.837 227.173 159.767 229.352 158.311C231.531 156.855 234.093 156.078 236.714 156.078H236.764L236.714 169.33Z" fill="white"/>
<path opacity="0.3" d="M236.714 169.33L243.863 180.482C242.13 181.594 240.161 182.287 238.114 182.506C236.066 182.725 233.996 182.463 232.067 181.742C230.138 181.021 228.404 179.861 227.002 178.353C225.6 176.845 224.568 175.031 223.989 173.055C223.411 171.079 223.3 168.995 223.667 166.969C224.034 164.942 224.868 163.03 226.103 161.382C227.338 159.734 228.94 158.397 230.782 157.476C232.624 156.556 234.655 156.077 236.714 156.078H236.758L236.714 169.33Z" fill="white"/>
<path opacity="0.3" d="M236.714 169.33L225.543 176.453C224.266 174.45 223.551 172.141 223.472 169.767C223.394 167.393 223.955 165.042 225.097 162.959C226.239 160.876 227.92 159.138 229.963 157.928C232.007 156.717 234.339 156.079 236.714 156.078H236.758L236.714 169.33Z" fill="white"/>
<g opacity="0.5">
<path d="M190.279 96.7646V128.037H250.06V96.7646H190.279ZM249.568 101.647H239.225V97.2317H249.568V101.647ZM216.533 101.647H205.885V97.2317H216.533V101.647ZM217 97.2317H227.642V101.647H217.025L217 97.2317ZM216.533 102.114V127.57H205.885V102.126L216.533 102.114ZM217 102.114H227.642V127.57H217.025L217 102.114ZM228.109 102.114H238.758V127.57H228.109V102.114ZM228.109 101.647V97.2317H238.758V101.647H228.109ZM205.418 97.2317V101.647H190.746V97.2317H205.418ZM190.746 102.126H205.418V127.583H190.746V102.126ZM239.225 127.583V102.126H249.568V127.583H239.225Z" fill="black"/>
<path d="M209.279 106.486H213.588C213.753 106.486 213.912 106.42 214.028 106.303C214.145 106.186 214.211 106.028 214.211 105.863C214.211 105.698 214.145 105.539 214.028 105.423C213.912 105.306 213.753 105.24 213.588 105.24H209.279C209.114 105.24 208.955 105.306 208.839 105.423C208.722 105.539 208.656 105.698 208.656 105.863C208.656 106.028 208.722 106.186 208.839 106.303C208.955 106.42 209.114 106.486 209.279 106.486Z" fill="black"/>
<path d="M220.138 112.133H224.815C224.98 112.133 225.138 112.068 225.255 111.951C225.372 111.834 225.438 111.676 225.438 111.51C225.438 111.345 225.372 111.187 225.255 111.07C225.138 110.953 224.98 110.888 224.815 110.888H220.138C219.973 110.888 219.815 110.953 219.698 111.07C219.581 111.187 219.516 111.345 219.516 111.51C219.516 111.676 219.581 111.834 219.698 111.951C219.815 112.068 219.973 112.133 220.138 112.133Z" fill="black"/>
<path d="M225.039 122.19H220.138C219.973 122.19 219.815 122.256 219.698 122.373C219.581 122.49 219.516 122.648 219.516 122.813C219.516 122.978 219.581 123.137 219.698 123.253C219.815 123.37 219.973 123.436 220.138 123.436H225.02C225.186 123.436 225.344 123.37 225.461 123.253C225.578 123.137 225.643 122.978 225.643 122.813C225.643 122.648 225.578 122.49 225.461 122.373C225.344 122.256 225.186 122.19 225.02 122.19H225.039Z" fill="black"/>
<path d="M235.874 116.536H230.724C230.559 116.536 230.401 116.602 230.284 116.719C230.167 116.835 230.102 116.994 230.102 117.159C230.102 117.324 230.167 117.482 230.284 117.599C230.401 117.716 230.559 117.782 230.724 117.782H235.887C236.052 117.782 236.21 117.716 236.327 117.599C236.444 117.482 236.509 117.324 236.509 117.159C236.509 116.994 236.444 116.835 236.327 116.719C236.21 116.602 236.052 116.536 235.887 116.536H235.874Z" fill="black"/>
<path d="M247.016 105.24H241.785C241.62 105.24 241.461 105.306 241.344 105.423C241.228 105.539 241.162 105.698 241.162 105.863C241.162 106.028 241.228 106.186 241.344 106.303C241.461 106.42 241.62 106.486 241.785 106.486H247.016C247.181 106.486 247.339 106.42 247.456 106.303C247.573 106.186 247.638 106.028 247.638 105.863C247.638 105.698 247.573 105.539 247.456 105.423C247.339 105.306 247.181 105.24 247.016 105.24Z" fill="black"/>
<path d="M246.343 122.19H241.785C241.62 122.19 241.461 122.256 241.344 122.373C241.228 122.49 241.162 122.648 241.162 122.813C241.162 122.978 241.228 123.137 241.344 123.253C241.461 123.37 241.62 123.436 241.785 123.436H246.343C246.508 123.436 246.667 123.37 246.783 123.253C246.9 123.137 246.966 122.978 246.966 122.813C246.966 122.648 246.9 122.49 246.783 122.373C246.667 122.256 246.508 122.19 246.343 122.19Z" fill="black"/>
<path d="M209.279 117.782H212.972C213.137 117.782 213.295 117.716 213.412 117.599C213.529 117.482 213.594 117.324 213.594 117.159C213.594 116.994 213.529 116.835 213.412 116.719C213.295 116.602 213.137 116.536 212.972 116.536H209.279C209.114 116.536 208.955 116.602 208.839 116.719C208.722 116.835 208.656 116.994 208.656 117.159C208.656 117.324 208.722 117.482 208.839 117.599C208.955 117.716 209.114 117.782 209.279 117.782Z" fill="black"/>
<path d="M213.588 122.19H209.279C209.114 122.19 208.955 122.256 208.839 122.373C208.722 122.49 208.656 122.648 208.656 122.813C208.656 122.978 208.722 123.137 208.839 123.253C208.955 123.37 209.114 123.436 209.279 123.436H213.588C213.753 123.436 213.912 123.37 214.028 123.253C214.145 123.137 214.211 122.978 214.211 122.813C214.211 122.648 214.145 122.49 214.028 122.373C213.912 122.256 213.753 122.19 213.588 122.19Z" fill="black"/>
<path d="M192.994 106.486H202.845C203.01 106.486 203.169 106.42 203.285 106.303C203.402 106.186 203.468 106.028 203.468 105.863C203.468 105.698 203.402 105.539 203.285 105.423C203.169 105.306 203.01 105.24 202.845 105.24H192.994C192.829 105.24 192.67 105.306 192.553 105.423C192.437 105.539 192.371 105.698 192.371 105.863C192.371 106.028 192.437 106.186 192.553 106.303C192.67 106.42 192.829 106.486 192.994 106.486Z" fill="black"/>
<path d="M192.994 112.133H199.551C199.716 112.133 199.875 112.068 199.991 111.951C200.108 111.834 200.174 111.676 200.174 111.51C200.174 111.345 200.108 111.187 199.991 111.07C199.875 110.953 199.716 110.888 199.551 110.888H192.994C192.829 110.888 192.67 110.953 192.553 111.07C192.437 111.187 192.371 111.345 192.371 111.51C192.371 111.676 192.437 111.834 192.553 111.951C192.67 112.068 192.829 112.133 192.994 112.133Z" fill="black"/>
<path d="M202.845 116.536H192.994C192.829 116.536 192.67 116.602 192.553 116.719C192.437 116.835 192.371 116.994 192.371 117.159C192.371 117.324 192.437 117.482 192.553 117.599C192.67 117.716 192.829 117.782 192.994 117.782H202.845C203.01 117.782 203.169 117.716 203.285 117.599C203.402 117.482 203.468 117.324 203.468 117.159C203.468 116.994 203.402 116.835 203.285 116.719C203.169 116.602 203.01 116.536 202.845 116.536Z" fill="black"/>
<path d="M197.919 122.19H192.994C192.829 122.19 192.67 122.256 192.553 122.373C192.437 122.49 192.371 122.648 192.371 122.813C192.371 122.978 192.437 123.137 192.553 123.253C192.67 123.37 192.829 123.436 192.994 123.436H197.919C198.085 123.436 198.243 123.37 198.36 123.253C198.477 123.137 198.542 122.978 198.542 122.813C198.542 122.648 198.477 122.49 198.36 122.373C198.243 122.256 198.085 122.19 197.919 122.19Z" fill="black"/>
</g>
<g opacity="0.5">
<path d="M214.216 90.2073H190.902C190.737 90.2073 190.578 90.1417 190.462 90.025C190.345 89.9082 190.279 89.7498 190.279 89.5846C190.279 89.4195 190.345 89.2611 190.462 89.1443C190.578 89.0275 190.737 88.9619 190.902 88.9619H214.216C214.382 88.9619 214.54 89.0275 214.657 89.1443C214.774 89.2611 214.839 89.4195 214.839 89.5846C214.839 89.7498 214.774 89.9082 214.657 90.025C214.54 90.1417 214.382 90.2073 214.216 90.2073Z" fill="black"/>
</g>
<g opacity="0.5">
<path d="M206.04 93.7005H190.902C190.737 93.7005 190.578 93.6349 190.462 93.5181C190.345 93.4013 190.279 93.2429 190.279 93.0778C190.279 92.9126 190.345 92.7542 190.462 92.6375C190.578 92.5207 190.737 92.4551 190.902 92.4551H206.04C206.205 92.4551 206.364 92.5207 206.481 92.6375C206.597 92.7542 206.663 92.9126 206.663 93.0778C206.663 93.2429 206.597 93.4013 206.481 93.5181C206.364 93.6349 206.205 93.7005 206.04 93.7005Z" fill="black"/>
</g>
<g opacity="0.5">
<path d="M220.985 133.436H190.902C190.737 133.436 190.578 133.37 190.462 133.253C190.345 133.137 190.279 132.978 190.279 132.813C190.279 132.648 190.345 132.49 190.462 132.373C190.578 132.256 190.737 132.19 190.902 132.19H220.985C221.151 132.19 221.309 132.256 221.426 132.373C221.543 132.49 221.608 132.648 221.608 132.813C221.608 132.978 221.543 133.137 221.426 133.253C221.309 133.37 221.151 133.436 220.985 133.436Z" fill="black"/>
</g>
<path d="M193.997 158.121H190.279V161.839H193.997V158.121Z" fill="#FFC000"/>
<g opacity="0.5">
<path d="M215.156 160.606H196.699C196.534 160.606 196.375 160.54 196.259 160.423C196.142 160.307 196.076 160.148 196.076 159.983C196.076 159.818 196.142 159.66 196.259 159.543C196.375 159.426 196.534 159.36 196.699 159.36H215.156C215.321 159.36 215.48 159.426 215.597 159.543C215.713 159.66 215.779 159.818 215.779 159.983C215.779 160.148 215.713 160.307 215.597 160.423C215.48 160.54 215.321 160.606 215.156 160.606Z" fill="black"/>
</g>
<path d="M193.997 164.354H190.279V168.072H193.997V164.354Z" fill="#FFC000"/>
<g opacity="0.5">
<path d="M215.156 166.832H196.699C196.534 166.832 196.375 166.767 196.259 166.65C196.142 166.533 196.076 166.375 196.076 166.21C196.076 166.044 196.142 165.886 196.259 165.769C196.375 165.653 196.534 165.587 196.699 165.587H215.156C215.321 165.587 215.48 165.653 215.597 165.769C215.713 165.886 215.779 166.044 215.779 166.21C215.779 166.375 215.713 166.533 215.597 166.65C215.48 166.767 215.321 166.832 215.156 166.832Z" fill="black"/>
</g>
<path d="M193.997 170.581H190.279V174.299H193.997V170.581Z" fill="#FFC000"/>
<g opacity="0.5">
<path d="M215.156 173.066H196.699C196.534 173.066 196.375 173 196.259 172.883C196.142 172.767 196.076 172.608 196.076 172.443C196.076 172.278 196.142 172.119 196.259 172.003C196.375 171.886 196.534 171.82 196.699 171.82H215.156C215.321 171.82 215.48 171.886 215.597 172.003C215.713 172.119 215.779 172.278 215.779 172.443C215.779 172.608 215.713 172.767 215.597 172.883C215.48 173 215.321 173.066 215.156 173.066Z" fill="black"/>
</g>
<path d="M193.997 176.814H190.279V180.532H193.997V176.814Z" fill="#FFC000"/>
<g opacity="0.5">
<path d="M215.156 179.299H196.699C196.534 179.299 196.375 179.234 196.259 179.117C196.142 179 196.076 178.842 196.076 178.676C196.076 178.511 196.142 178.353 196.259 178.236C196.375 178.119 196.534 178.054 196.699 178.054H215.156C215.321 178.054 215.48 178.119 215.597 178.236C215.713 178.353 215.779 178.511 215.779 178.676C215.779 178.842 215.713 179 215.597 179.117C215.48 179.234 215.321 179.299 215.156 179.299Z" fill="black"/>
</g>
<g opacity="0.5">
<path d="M249.207 139.003H195.193C195.028 139.003 194.869 138.938 194.753 138.821C194.636 138.704 194.57 138.546 194.57 138.381C194.57 138.215 194.636 138.057 194.753 137.94C194.869 137.823 195.028 137.758 195.193 137.758H249.207C249.373 137.758 249.531 137.823 249.648 137.94C249.764 138.057 249.83 138.215 249.83 138.381C249.83 138.546 249.764 138.704 249.648 138.821C249.531 138.938 249.373 139.003 249.207 139.003Z" fill="black"/>
<path d="M249.275 142.123H190.902C190.737 142.123 190.578 142.058 190.462 141.941C190.345 141.824 190.279 141.666 190.279 141.501C190.279 141.335 190.345 141.177 190.462 141.06C190.578 140.944 190.737 140.878 190.902 140.878H249.275C249.441 140.878 249.599 140.944 249.716 141.06C249.832 141.177 249.898 141.335 249.898 141.501C249.898 141.666 249.832 141.824 249.716 141.941C249.599 142.058 249.441 142.123 249.275 142.123Z" fill="black"/>
<path d="M249.344 145.243H190.97C190.805 145.243 190.647 145.177 190.53 145.06C190.413 144.943 190.348 144.785 190.348 144.62C190.348 144.455 190.413 144.296 190.53 144.179C190.647 144.063 190.805 143.997 190.97 143.997H249.344C249.509 143.997 249.667 144.063 249.784 144.179C249.901 144.296 249.966 144.455 249.966 144.62C249.966 144.785 249.901 144.943 249.784 145.06C249.667 145.177 249.509 145.243 249.344 145.243Z" fill="black"/>
<path d="M240.688 148.363H191.039C190.874 148.363 190.715 148.297 190.598 148.18C190.482 148.063 190.416 147.905 190.416 147.74C190.416 147.575 190.482 147.416 190.598 147.3C190.715 147.183 190.874 147.117 191.039 147.117H240.688C240.853 147.117 241.011 147.183 241.128 147.3C241.245 147.416 241.311 147.575 241.311 147.74C241.311 147.905 241.245 148.063 241.128 148.18C241.011 148.297 240.853 148.363 240.688 148.363Z" fill="black"/>
</g>
<path opacity="0.3" d="M193.997 164.354H190.279V168.072H193.997V164.354Z" fill="white"/>
<path opacity="0.5" d="M193.997 170.581H190.279V174.299H193.997V170.581Z" fill="white"/>
<path opacity="0.7" d="M193.997 176.814H190.279V180.532H193.997V176.814Z" fill="white"/>
<path d="M254.021 210.634C254.021 210.634 251.064 204.183 254.445 197.819C257.826 191.454 258.804 189.96 256.649 188.658C254.495 187.357 253.505 193.746 253.505 193.746C252.439 190.855 252.33 187.699 253.193 184.742C254.688 180.14 255.628 172.642 253.586 171.839C251.543 171.036 253.193 181.18 251.412 184.654C250.509 182.222 249.925 179.683 249.675 177.101C249.432 173.408 249.812 167.505 248.199 165.992C246.586 164.478 245.546 165.525 247.134 173.682C248.089 178.557 248.616 183.505 248.71 188.472C248.71 188.472 245.204 177.767 242.844 177.456C240.484 177.144 240.49 180.613 242.507 183.621C244.525 186.628 248.417 192.009 249.052 194.78C249.052 194.78 245.198 186.728 241.735 189.175C238.273 191.623 244.749 196.511 247.639 198.267C250.528 200.023 252.521 211.064 252.521 211.064L254.021 210.634Z" fill="#FFC000"/>
<path opacity="0.2" d="M254.021 210.634C254.021 210.634 251.064 204.183 254.445 197.819C257.826 191.454 258.804 189.96 256.649 188.658C254.495 187.357 253.505 193.746 253.505 193.746C252.439 190.855 252.33 187.699 253.193 184.742C254.688 180.14 255.628 172.642 253.586 171.839C251.543 171.036 253.193 181.18 251.412 184.654C250.509 182.222 249.925 179.683 249.675 177.101C249.432 173.408 249.812 167.505 248.199 165.992C246.586 164.478 245.546 165.525 247.134 173.682C248.089 178.557 248.616 183.505 248.71 188.472C248.71 188.472 245.204 177.767 242.844 177.456C240.484 177.144 240.49 180.613 242.507 183.621C244.525 186.628 248.417 192.009 249.052 194.78C249.052 194.78 245.198 186.728 241.735 189.175C238.273 191.623 244.749 196.511 247.639 198.267C250.528 200.023 252.521 211.064 252.521 211.064L254.021 210.634Z" fill="black"/>
<path d="M251.686 213.281C251.686 213.281 254.569 206.786 251.113 200.478C247.657 194.17 246.66 192.681 248.796 191.343C250.932 190.004 252.003 196.387 252.003 196.387C253.035 193.485 253.107 190.328 252.209 187.382C250.658 182.799 249.625 175.32 251.661 174.486C253.697 173.651 252.165 183.826 253.984 187.264C254.859 184.822 255.414 182.276 255.634 179.692C255.833 175.986 255.379 170.089 256.979 168.551C258.579 167.013 259.625 168.047 258.131 176.229C257.236 181.118 256.769 186.074 256.736 191.044C256.736 191.044 260.117 180.289 262.484 179.966C264.85 179.642 264.875 183.079 262.895 186.118C260.914 189.157 257.091 194.599 256.487 197.377C256.487 197.377 260.223 189.281 263.735 191.685C267.247 194.089 260.809 199.064 257.944 200.864C255.08 202.664 253.199 213.711 253.199 213.711L251.686 213.281Z" fill="#FFC000"/>
<path d="M264.976 208.654H241.182L243.106 225.679H263.045L264.976 208.654Z" fill="#263238"/>
<path d="M121.288 62.6279H139.185C140.645 62.6279 142.045 63.2079 143.078 64.2403C144.11 65.2726 144.69 66.6728 144.69 68.1327V83.7006C144.69 85.1606 144.11 86.5608 143.078 87.5931C142.045 88.6255 140.645 89.2054 139.185 89.2054H133.954L135.823 95.993L130.218 89.2054H121.288C120.565 89.2062 119.848 89.0645 119.18 88.7882C118.511 88.5119 117.904 88.1066 117.392 87.5953C116.88 87.0841 116.474 86.4769 116.197 85.8087C115.92 85.1404 115.777 84.424 115.777 83.7006V68.1327C115.777 67.4093 115.92 66.693 116.197 66.0247C116.474 65.3564 116.88 64.7493 117.392 64.238C117.904 63.7268 118.511 63.3214 119.18 63.0452C119.848 62.7689 120.565 62.6271 121.288 62.6279Z" fill="#FFC000"/>
<path opacity="0.7" d="M121.288 62.6279H139.185C140.645 62.6279 142.045 63.2079 143.078 64.2403C144.11 65.2726 144.69 66.6728 144.69 68.1327V83.7006C144.69 85.1606 144.11 86.5608 143.078 87.5931C142.045 88.6255 140.645 89.2054 139.185 89.2054H133.954L135.823 95.993L130.218 89.2054H121.288C120.565 89.2062 119.848 89.0645 119.18 88.7882C118.511 88.5119 117.904 88.1066 117.392 87.5953C116.88 87.0841 116.474 86.4769 116.197 85.8087C115.92 85.1404 115.777 84.424 115.777 83.7006V68.1327C115.777 67.4093 115.92 66.693 116.197 66.0247C116.474 65.3564 116.88 64.7493 117.392 64.238C117.904 63.7268 118.511 63.3214 119.18 63.0452C119.848 62.7689 120.565 62.6271 121.288 62.6279Z" fill="white"/>
<path opacity="0.7" d="M127.528 79.3107C130.606 79.3107 133.102 76.8154 133.102 73.7374C133.102 70.6593 130.606 68.1641 127.528 68.1641C124.45 68.1641 121.955 70.6593 121.955 73.7374C121.955 76.8154 124.45 79.3107 127.528 79.3107Z" fill="white"/>
<path d="M127.528 80.1136C126.053 80.1123 124.624 79.5998 123.484 78.6633C122.345 77.7267 121.565 76.4241 121.278 74.9773C120.991 73.5304 121.215 72.0289 121.911 70.7284C122.607 69.4279 123.732 68.4088 125.095 67.8449C126.458 67.2809 127.974 67.2069 129.385 67.6354C130.797 68.0639 132.016 68.9684 132.835 70.195C133.655 71.4215 134.023 72.8941 133.879 74.362C133.734 75.8299 133.085 77.2023 132.042 78.2454C131.45 78.8389 130.746 79.3094 129.971 79.63C129.197 79.9506 128.366 80.1149 127.528 80.1136ZM127.528 68.9732C126.425 68.9734 125.358 69.3557 124.506 70.055C123.654 70.7543 123.071 71.7273 122.856 72.8083C122.641 73.8893 122.808 75.0113 123.327 75.9832C123.847 76.9551 124.688 77.7168 125.706 78.1384C126.724 78.56 127.857 78.6155 128.912 78.2954C129.966 77.9753 130.877 77.2995 131.49 76.3831C132.102 75.4666 132.377 74.3662 132.269 73.2694C132.161 72.1726 131.676 71.1473 130.896 70.3681C130.455 69.9241 129.93 69.5721 129.352 69.3327C128.774 69.0932 128.154 68.971 127.528 68.9732Z" fill="#FFC000"/>
<path d="M132.045 77.1061L130.9 78.251L137.254 84.6049L138.399 83.46L132.045 77.1061Z" fill="#FFC000"/>
<path d="M138.507 85.9357C138.185 85.9328 137.877 85.8056 137.648 85.5808L132.797 80.7298C132.675 80.6193 132.578 80.4854 132.51 80.3362C132.442 80.187 132.405 80.0255 132.401 79.8616C132.397 79.6976 132.426 79.5346 132.487 79.3823C132.548 79.23 132.639 79.0916 132.754 78.9754C132.87 78.8592 133.008 78.7677 133.16 78.7063C133.313 78.645 133.475 78.6151 133.639 78.6184C133.803 78.6218 133.965 78.6583 134.114 78.7258C134.264 78.7933 134.398 78.8903 134.509 79.0111L139.366 83.8683C139.534 84.0384 139.648 84.2544 139.694 84.4891C139.74 84.7238 139.715 84.9667 139.623 85.1875C139.532 85.4083 139.377 85.5971 139.178 85.7302C138.979 85.8633 138.746 85.9348 138.507 85.9357Z" fill="#FFC000"/>
<path d="M128.393 71.2152C128.393 71.4615 128.32 71.7023 128.183 71.9071C128.046 72.1119 127.852 72.2715 127.624 72.3658C127.397 72.4601 127.146 72.4847 126.905 72.4367C126.663 72.3886 126.441 72.27 126.267 72.0958C126.093 71.9216 125.974 71.6997 125.926 71.4581C125.878 71.2165 125.903 70.9661 125.997 70.7386C126.091 70.511 126.251 70.3165 126.456 70.1796C126.661 70.0428 126.901 69.9697 127.148 69.9697C127.478 69.9697 127.795 70.1009 128.028 70.3345C128.262 70.5681 128.393 70.8848 128.393 71.2152Z" fill="white"/>
<path d="M130.243 72.1247C130.243 72.2478 130.207 72.3682 130.139 72.4706C130.07 72.573 129.973 72.6528 129.859 72.7C129.745 72.7471 129.62 72.7594 129.499 72.7354C129.378 72.7114 129.268 72.6521 129.18 72.565C129.093 72.4779 129.034 72.3669 129.01 72.2462C128.986 72.1254 128.998 72.0001 129.045 71.8864C129.093 71.7726 129.172 71.6753 129.275 71.6069C129.377 71.5385 129.498 71.502 129.621 71.502C129.786 71.502 129.944 71.5676 130.061 71.6843C130.178 71.8011 130.243 71.9595 130.243 72.1247Z" fill="white"/>
<path d="M180.148 177.139H87.4004V192.065H180.148V177.139Z" fill="#FFC000"/>
<path opacity="0.8" d="M180.148 177.139H87.4004V192.065H180.148V177.139Z" fill="white"/>
<path opacity="0.2" d="M180.149 181.086V179.872L116.65 180.376L180.149 181.086Z" fill="black"/>
<path opacity="0.2" d="M180.149 186.317V185.377L151.641 186.398L180.149 186.317Z" fill="black"/>
<path opacity="0.2" d="M180.148 189.817V188.603L134.186 189.306L180.148 189.817Z" fill="black"/>
<path opacity="0.2" d="M108.137 177.139L106.805 188.267L108.393 186.573C108.926 188.604 109.924 190.484 111.307 192.065C112.299 190.766 113.088 189.323 113.648 187.787L156.964 187.289L114.059 186.349C114.193 185.735 114.261 185.109 114.265 184.48C114.263 183.96 114.213 183.441 114.115 182.93L177.67 182.768L113.966 182.27C113.742 181.431 113.429 180.619 113.032 179.847C113.948 179.039 115.129 178.596 116.351 178.602H180.148V177.139H108.137Z" fill="black"/>
<path d="M109.57 184.518C109.575 186.307 110.289 188.022 111.555 189.286C112.821 190.55 114.537 191.261 116.326 191.262H181.219C181.285 191.262 181.35 191.275 181.41 191.3C181.47 191.325 181.525 191.362 181.572 191.408C181.618 191.454 181.655 191.509 181.68 191.57C181.705 191.63 181.718 191.695 181.718 191.76V192.296C181.718 192.428 181.665 192.555 181.572 192.648C181.478 192.742 181.352 192.794 181.219 192.794H85.3586C84.2652 192.794 83.1826 192.578 82.1732 192.157C81.1639 191.737 80.2478 191.12 79.4779 190.344C78.7079 189.568 78.0993 188.647 77.6871 187.634C77.275 186.621 77.0674 185.537 77.0765 184.443C77.1303 182.233 78.0513 180.133 79.6405 178.596C81.2297 177.06 83.3597 176.21 85.5703 176.23H181.219C181.352 176.23 181.478 176.282 181.572 176.376C181.665 176.469 181.718 176.596 181.718 176.728V177.257C181.718 177.389 181.665 177.516 181.572 177.61C181.478 177.703 181.352 177.756 181.219 177.756H116.525C114.713 177.752 112.97 178.457 111.671 179.721C110.371 180.984 109.617 182.706 109.57 184.518Z" fill="#FFC000"/>
<path opacity="0.4" d="M109.57 184.518C109.575 186.307 110.289 188.022 111.555 189.286C112.821 190.55 114.537 191.261 116.326 191.262H181.219C181.285 191.262 181.35 191.275 181.41 191.3C181.47 191.325 181.525 191.362 181.572 191.408C181.618 191.454 181.655 191.509 181.68 191.57C181.705 191.63 181.718 191.695 181.718 191.76V192.296C181.718 192.428 181.665 192.555 181.572 192.648C181.478 192.742 181.352 192.794 181.219 192.794H85.3586C84.2652 192.794 83.1826 192.578 82.1732 192.157C81.1639 191.737 80.2478 191.12 79.4779 190.344C78.7079 189.568 78.0993 188.647 77.6871 187.634C77.275 186.621 77.0674 185.537 77.0765 184.443C77.1303 182.233 78.0513 180.133 79.6405 178.596C81.2297 177.06 83.3597 176.21 85.5703 176.23H181.219C181.352 176.23 181.478 176.282 181.572 176.376C181.665 176.469 181.718 176.596 181.718 176.728V177.257C181.718 177.389 181.665 177.516 181.572 177.61C181.478 177.703 181.352 177.756 181.219 177.756H116.525C114.713 177.752 112.97 178.457 111.671 179.721C110.371 180.984 109.617 182.706 109.57 184.518Z" fill="white"/>
<path d="M109.57 184.518C109.575 186.307 110.289 188.022 111.555 189.286C112.821 190.55 114.537 191.26 116.326 191.262H181.219C181.285 191.262 181.35 191.275 181.41 191.3C181.47 191.325 181.525 191.362 181.572 191.408C181.618 191.454 181.655 191.509 181.68 191.57C181.705 191.63 181.718 191.695 181.718 191.76V192.296C181.718 192.428 181.665 192.555 181.572 192.648C181.478 192.741 181.352 192.794 181.219 192.794H115.953C114.859 192.793 113.777 192.576 112.767 192.155C111.758 191.735 110.842 191.119 110.072 190.342C109.301 189.566 108.692 188.646 108.279 187.633C107.866 186.621 107.657 185.537 107.664 184.443C107.721 182.236 108.642 180.14 110.227 178.604C111.813 177.068 113.938 176.216 116.146 176.23H181.219C181.352 176.23 181.478 176.282 181.572 176.376C181.665 176.469 181.718 176.596 181.718 176.728V177.257C181.718 177.389 181.665 177.516 181.572 177.609C181.478 177.703 181.352 177.755 181.219 177.755H116.525C114.713 177.751 112.97 178.457 111.671 179.72C110.371 180.984 109.617 182.706 109.57 184.518Z" fill="#FFC000"/>
<path d="M121.787 180.495V186.479L123.954 184.312L126.053 186.411V180.495H121.787Z" fill="#263238"/>
<path opacity="0.6" d="M109.57 184.518C109.575 186.307 110.289 188.022 111.555 189.286C112.821 190.55 114.537 191.26 116.326 191.262H181.219C181.285 191.262 181.35 191.275 181.41 191.3C181.47 191.325 181.525 191.362 181.572 191.408C181.618 191.454 181.655 191.509 181.68 191.57C181.705 191.63 181.718 191.695 181.718 191.76V192.296C181.718 192.428 181.665 192.555 181.572 192.648C181.478 192.741 181.352 192.794 181.219 192.794H115.953C114.859 192.793 113.777 192.576 112.767 192.155C111.758 191.735 110.842 191.119 110.072 190.342C109.301 189.566 108.692 188.646 108.279 187.633C107.866 186.621 107.657 185.537 107.664 184.443C107.721 182.236 108.642 180.14 110.227 178.604C111.813 177.068 113.938 176.216 116.146 176.23H181.219C181.352 176.23 181.478 176.282 181.572 176.376C181.665 176.469 181.718 176.596 181.718 176.728V177.257C181.718 177.389 181.665 177.516 181.572 177.609C181.478 177.703 181.352 177.755 181.219 177.755H116.525C114.713 177.751 112.97 178.457 111.671 179.72C110.371 180.984 109.617 182.706 109.57 184.518Z" fill="white"/>
<path d="M184.626 210.03H91.8789V224.957H184.626V210.03Z" fill="#FFC000"/>
<path opacity="0.7" d="M184.626 210.03H91.8789V224.957H184.626V210.03Z" fill="white"/>
<path opacity="0.2" d="M184.625 213.972V212.758L121.127 213.268L184.625 213.972Z" fill="black"/>
<path opacity="0.2" d="M184.625 219.204V218.27L156.117 219.285L184.625 219.204Z" fill="black"/>
<path opacity="0.2" d="M184.625 222.703V221.495L138.662 222.193L184.625 222.703Z" fill="black"/>
<path opacity="0.2" d="M112.615 210.03L111.27 221.158L112.857 219.464C113.397 221.495 114.396 223.374 115.778 224.957C116.766 223.653 117.553 222.209 118.113 220.672L161.429 220.174L118.524 219.24C118.659 218.626 118.73 218 118.736 217.372C118.732 216.852 118.679 216.333 118.58 215.822L182.153 215.678L118.443 215.18C118.219 214.344 117.906 213.534 117.509 212.764C118.421 211.945 119.602 211.49 120.828 211.487H184.644V210.03H112.615Z" fill="black"/>
<path d="M114.047 217.403C114.043 218.293 114.216 219.173 114.554 219.996C114.892 220.818 115.389 221.565 116.017 222.195C116.645 222.824 117.391 223.324 118.212 223.664C119.034 224.005 119.914 224.179 120.803 224.179H185.696C185.828 224.179 185.955 224.231 186.049 224.324C186.142 224.418 186.194 224.545 186.194 224.677V225.212C186.194 225.344 186.142 225.471 186.049 225.565C185.955 225.658 185.828 225.71 185.696 225.71H84.7354C83.643 225.709 82.5616 225.491 81.5535 225.071C80.5453 224.65 79.6302 224.034 78.8606 223.259C78.0911 222.484 77.4822 221.564 77.0691 220.553C76.656 219.541 76.4467 218.458 76.4533 217.366C76.5055 215.153 77.4265 213.05 79.017 211.511C80.6076 209.971 82.74 209.12 84.9533 209.14H185.696C185.828 209.14 185.955 209.192 186.049 209.286C186.142 209.379 186.194 209.506 186.194 209.638V210.174C186.194 210.306 186.142 210.433 186.049 210.526C185.955 210.619 185.828 210.672 185.696 210.672H121.002C119.195 210.668 117.457 211.369 116.158 212.626C114.859 213.883 114.102 215.597 114.047 217.403Z" fill="#263238"/>
<path opacity="0.2" d="M114.047 217.403C114.043 218.293 114.216 219.173 114.554 219.996C114.892 220.818 115.389 221.565 116.017 222.195C116.645 222.824 117.391 223.324 118.212 223.664C119.034 224.005 119.914 224.179 120.803 224.179H185.696C185.828 224.179 185.955 224.231 186.049 224.324C186.142 224.418 186.194 224.545 186.194 224.677V225.212C186.194 225.344 186.142 225.471 186.049 225.565C185.955 225.658 185.828 225.71 185.696 225.71H84.7354C83.643 225.709 82.5616 225.491 81.5535 225.071C80.5453 224.65 79.6302 224.034 78.8606 223.259C78.0911 222.484 77.4822 221.564 77.0691 220.553C76.656 219.541 76.4467 218.458 76.4533 217.366C76.5055 215.153 77.4265 213.05 79.017 211.511C80.6076 209.971 82.74 209.12 84.9533 209.14H185.696C185.828 209.14 185.955 209.192 186.049 209.286C186.142 209.379 186.194 209.506 186.194 209.638V210.174C186.194 210.306 186.142 210.433 186.049 210.526C185.955 210.619 185.828 210.672 185.696 210.672H121.002C119.195 210.668 117.457 211.369 116.158 212.626C114.859 213.883 114.102 215.597 114.047 217.403Z" fill="white"/>
<path d="M114.046 217.403C114.043 218.293 114.215 219.173 114.553 219.996C114.891 220.818 115.389 221.565 116.016 222.195C116.644 222.824 117.39 223.324 118.212 223.664C119.033 224.005 119.913 224.179 120.802 224.179H185.696C185.828 224.179 185.954 224.231 186.048 224.324C186.141 224.418 186.194 224.545 186.194 224.677V225.212C186.194 225.344 186.141 225.471 186.048 225.565C185.954 225.658 185.828 225.71 185.696 225.71H120.429C119.336 225.71 118.254 225.494 117.245 225.074C116.236 224.654 115.32 224.038 114.55 223.263C113.78 222.487 113.172 221.567 112.759 220.555C112.347 219.543 112.139 218.459 112.147 217.366C112.197 215.154 113.117 213.05 114.707 211.511C116.296 209.972 118.428 209.12 120.641 209.14H185.696C185.828 209.14 185.954 209.192 186.048 209.286C186.141 209.379 186.194 209.506 186.194 209.638V210.174C186.194 210.306 186.141 210.433 186.048 210.526C185.954 210.619 185.828 210.672 185.696 210.672H121.002C119.194 210.668 117.456 211.369 116.157 212.626C114.859 213.883 114.101 215.597 114.046 217.403Z" fill="#263238"/>
<path d="M121.127 215.511V221.495L123.288 219.328L125.386 221.427V215.511H121.127Z" fill="#FFC000"/>
<path opacity="0.4" d="M114.046 217.403C114.043 218.293 114.215 219.173 114.553 219.996C114.891 220.818 115.389 221.565 116.016 222.195C116.644 222.824 117.39 223.324 118.212 223.664C119.033 224.005 119.913 224.179 120.802 224.179H185.696C185.828 224.179 185.954 224.231 186.048 224.324C186.141 224.418 186.194 224.545 186.194 224.677V225.212C186.194 225.344 186.141 225.471 186.048 225.565C185.954 225.658 185.828 225.71 185.696 225.71H120.429C119.336 225.71 118.254 225.494 117.245 225.074C116.236 224.654 115.32 224.038 114.55 223.263C113.78 222.487 113.172 221.567 112.759 220.555C112.347 219.543 112.139 218.459 112.147 217.366C112.197 215.154 113.117 213.05 114.707 211.511C116.296 209.972 118.428 209.12 120.641 209.14H185.696C185.828 209.14 185.954 209.192 186.048 209.286C186.141 209.379 186.194 209.506 186.194 209.638V210.174C186.194 210.306 186.141 210.433 186.048 210.526C185.954 210.619 185.828 210.672 185.696 210.672H121.002C119.194 210.668 117.456 211.369 116.157 212.626C114.859 213.883 114.101 215.597 114.046 217.403Z" fill="white"/>
<path d="M83.5331 208.486H117.895V193.579H83.5331V208.486Z" fill="#FFC000"/>
<path opacity="0.8" d="M83.5331 208.486H117.895V193.579H83.5331V208.486Z" fill="white"/>
<path opacity="0.2" d="M115.142 195.042H83.5332V193.585H115.105L115.142 195.042Z" fill="black"/>
<path opacity="0.2" d="M115.143 196.312L86.6289 196.923L115.143 197.527V196.312Z" fill="black"/>
<path opacity="0.2" d="M115.143 201.823L84.9473 202.334L115.143 202.764V201.823Z" fill="black"/>
<path opacity="0.2" d="M115.143 205.049L85.2148 205.653L115.143 206.257V205.049Z" fill="black"/>
<path opacity="0.2" d="M83.5332 198.436L112.483 199.307L83.5332 199.918V198.436Z" fill="black"/>
<path d="M160.227 200.958C160.224 202.748 159.511 204.464 158.244 205.73C156.978 206.995 155.261 207.707 153.471 207.708H81.9454C81.8133 207.708 81.6866 207.761 81.5932 207.854C81.4998 207.948 81.4473 208.074 81.4473 208.206V208.736C81.4473 208.868 81.4998 208.995 81.5932 209.088C81.6866 209.181 81.8133 209.234 81.9454 209.234H153.844C154.938 209.236 156.02 209.02 157.03 208.601C158.04 208.181 158.956 207.566 159.726 206.79C160.497 206.014 161.105 205.093 161.517 204.08C161.929 203.067 162.136 201.983 162.126 200.89C162.076 198.677 161.156 196.574 159.566 195.034C157.977 193.495 155.845 192.643 153.632 192.663H81.9454C81.8133 192.663 81.6866 192.716 81.5932 192.809C81.4998 192.903 81.4473 193.029 81.4473 193.162V193.697C81.4473 193.829 81.4998 193.956 81.5932 194.049C81.6866 194.143 81.8133 194.195 81.9454 194.195H153.271C155.084 194.191 156.826 194.897 158.126 196.16C159.426 197.424 160.18 199.146 160.227 200.958Z" fill="#263238"/>
<path opacity="0.4" d="M160.227 200.958C160.224 202.748 159.511 204.464 158.244 205.73C156.978 206.995 155.261 207.707 153.471 207.708H81.9454C81.8133 207.708 81.6866 207.761 81.5932 207.854C81.4998 207.948 81.4473 208.074 81.4473 208.206V208.736C81.4473 208.868 81.4998 208.995 81.5932 209.088C81.6866 209.181 81.8133 209.234 81.9454 209.234H153.844C154.938 209.236 156.02 209.02 157.03 208.601C158.04 208.181 158.956 207.566 159.726 206.79C160.497 206.014 161.105 205.093 161.517 204.08C161.929 203.067 162.136 201.983 162.126 200.89C162.076 198.677 161.156 196.574 159.566 195.034C157.977 193.495 155.845 192.643 153.632 192.663H81.9454C81.8133 192.663 81.6866 192.716 81.5932 192.809C81.4998 192.903 81.4473 193.029 81.4473 193.162V193.697C81.4473 193.829 81.4998 193.956 81.5932 194.049C81.6866 194.143 81.8133 194.195 81.9454 194.195H153.271C155.084 194.191 156.826 194.897 158.126 196.16C159.426 197.424 160.18 199.146 160.227 200.958Z" fill="white"/>
<path d="M186.313 201.045C186.313 203.027 185.525 204.927 184.124 206.329C182.723 207.73 180.822 208.517 178.84 208.517H115.143V193.572H178.846C180.827 193.574 182.726 194.362 184.126 195.763C185.526 197.164 186.313 199.064 186.313 201.045Z" fill="#FFC000"/>
<path opacity="0.7" d="M115.143 193.585V208.53H178.853C180.834 208.53 182.735 207.743 184.137 206.341C185.538 204.94 186.325 203.039 186.325 201.058C186.325 199.076 185.538 197.175 184.137 195.774C182.735 194.372 180.834 193.585 178.853 193.585H115.143Z" fill="white"/>
<path opacity="0.2" d="M115.143 197.527V196.312L178.641 196.823L115.143 197.527Z" fill="black"/>
<path opacity="0.2" d="M115.143 202.764V201.823L143.65 202.844L115.143 202.764Z" fill="black"/>
<path opacity="0.2" d="M115.143 206.257V205.049L161.105 205.746L115.143 206.257Z" fill="black"/>
<path opacity="0.2" d="M178.952 195.042C180.178 195.044 181.36 195.499 182.271 196.318C181.874 197.091 181.559 197.903 181.331 198.741L117.627 199.239L181.188 199.394C181.089 199.908 181.036 200.429 181.032 200.951C181.033 201.58 181.106 202.207 181.25 202.819L138.339 203.753L181.649 204.258C182.024 205.291 182.506 206.282 183.087 207.216C184.391 206.309 185.371 205.01 185.887 203.507C186.403 202.005 186.426 200.378 185.954 198.861C185.482 197.345 184.539 196.018 183.262 195.074C181.985 194.129 180.441 193.617 178.853 193.609H115.143V195.067L178.952 195.042Z" fill="black"/>
<path d="M185.722 200.958C185.719 202.748 185.006 204.464 183.739 205.73C182.473 206.995 180.756 207.707 178.966 207.708H114.072C113.94 207.708 113.814 207.761 113.72 207.854C113.627 207.948 113.574 208.074 113.574 208.206V208.736C113.574 208.868 113.627 208.995 113.72 209.088C113.814 209.181 113.94 209.234 114.072 209.234H179.339C180.433 209.236 181.515 209.02 182.525 208.601C183.535 208.181 184.451 207.566 185.221 206.79C185.992 206.014 186.6 205.093 187.012 204.08C187.424 203.067 187.631 201.983 187.621 200.89C187.571 198.677 186.651 196.574 185.062 195.034C183.472 193.495 181.34 192.643 179.127 192.663H114.072C113.94 192.663 113.814 192.716 113.72 192.809C113.627 192.903 113.574 193.029 113.574 193.162V193.697C113.574 193.829 113.627 193.956 113.72 194.049C113.814 194.143 113.94 194.195 114.072 194.195H178.766C180.579 194.191 182.321 194.897 183.621 196.16C184.921 197.424 185.675 199.146 185.722 200.958Z" fill="#263238"/>
<path d="M178.641 199.064V205.049L176.474 202.882L174.375 204.98V199.064H178.641Z" fill="#FFC000"/>
<path d="M195.472 114.948H193.915C193.626 114.954 193.342 115.029 193.088 115.166C192.833 115.304 192.615 115.5 192.452 115.739L190.907 117.993C190.601 118.438 190.406 118.951 190.339 119.487C190.271 120.024 190.334 120.568 190.521 121.076L190.758 121.698C193.342 121.823 196.232 120.054 196.232 120.054L197.116 119.643C197.299 119.564 197.464 119.449 197.602 119.305C197.739 119.161 197.847 118.991 197.919 118.805C197.991 118.619 198.025 118.421 198.02 118.222C198.015 118.022 197.97 117.826 197.888 117.644L197.097 115.932C196.95 115.629 196.718 115.375 196.43 115.2C196.141 115.026 195.809 114.938 195.472 114.948Z" fill="#EEC1BB"/>
<path d="M165.962 117.694C169.96 120.926 174.275 124.04 179.039 125.945L178.447 125.82C178.883 125.926 180.029 125.49 180.627 125.198C183.952 123.579 187.103 121.15 190.092 118.933C190.398 118.712 190.773 118.607 191.15 118.638C191.526 118.669 191.879 118.834 192.144 119.102C192.41 119.371 192.571 119.726 192.597 120.102C192.624 120.479 192.515 120.853 192.29 121.156C189.307 124.893 182.595 132.484 177.277 131.375C171.448 129.638 166.298 126.393 161.709 122.427C158.732 119.562 162.724 115.085 165.962 117.694Z" fill="#EBC0BB"/>
<path d="M157.574 113.292C156.117 117.352 158.465 121.387 164.113 126.139C166.921 125.722 170.714 119.961 170.714 119.961C170.714 119.961 162.768 112.016 157.574 113.292Z" fill="#FFC000"/>
<path d="M162.432 88.0717C162.432 88.0717 156.871 82.3801 149.623 89.5227C142.374 96.6652 140.961 120.328 140.961 120.328L159.879 124.002C159.879 124.002 162.326 121.194 163.584 113.092C164.842 104.991 165.508 97.2443 167.103 95.4385C168.697 93.6326 162.432 88.0717 162.432 88.0717Z" fill="#263238"/>
<path d="M178.678 207.907L174.58 206.276L176.18 200.304L177.656 194.824L182.837 195.97L180.639 202.291L178.678 207.907Z" fill="#EEC1BB"/>
<path opacity="0.2" d="M180.589 202.421L176.137 200.416L177.637 194.88L182.825 196.001L180.589 202.421Z" fill="black"/>
<path d="M147.673 154.098C147.673 154.098 181.922 149.478 191.437 155.556C200.953 161.633 182.526 198.648 182.526 198.648L176.76 197.402C176.76 197.402 181.082 168.06 180.758 166.833C180.434 165.606 164.306 173.608 142.23 174.368L147.673 154.098Z" fill="#263238"/>
<path opacity="0.2" d="M147.673 154.098C147.673 154.098 181.922 149.478 191.437 155.556C200.953 161.633 182.526 198.648 182.526 198.648L176.76 197.402C176.76 197.402 181.082 168.06 180.758 166.833C180.434 165.606 164.306 173.608 142.23 174.368L147.673 154.098Z" fill="black"/>
<path d="M176.442 195.534L183.697 197.888L182.395 201.195L175.732 198.928L176.442 195.534Z" fill="#263238"/>
<path d="M182.471 208.828C181.687 208.828 180.304 207.583 180.018 207.284C180.001 207.268 179.989 207.249 179.981 207.228V207.191C179.979 207.151 179.99 207.112 180.012 207.078C180.049 207.035 180.958 205.833 181.83 205.796C181.962 205.782 182.095 205.798 182.22 205.842C182.345 205.886 182.458 205.958 182.552 206.051C182.77 206.256 182.845 206.456 182.77 206.643C182.652 206.941 182.148 207.103 181.581 207.203C182.04 207.268 182.471 207.46 182.826 207.757C182.889 207.82 182.937 207.895 182.968 207.978C182.999 208.06 183.013 208.149 183.007 208.237C183.007 208.598 182.814 208.741 182.677 208.791C182.611 208.816 182.542 208.829 182.471 208.828ZM180.541 207.352C181.263 207.975 182.222 208.648 182.565 208.511C182.565 208.511 182.689 208.467 182.702 208.218C182.705 208.171 182.697 208.124 182.68 208.08C182.663 208.035 182.636 207.996 182.602 207.963C182.266 207.589 181.226 207.415 180.541 207.365V207.352ZM181.899 206.107H181.843C181.292 206.252 180.804 206.573 180.454 207.022C181.407 206.979 182.378 206.798 182.478 206.543C182.509 206.462 182.403 206.344 182.334 206.281C182.216 206.173 182.059 206.115 181.899 206.119V206.107Z" fill="#577AFA"/>
<path d="M173.815 203.728C173.977 203.267 179.538 205.478 179.538 205.478C179.538 205.478 181.879 210.167 185.018 212.073C188.156 213.978 185.591 215.398 181.798 214.159L172.408 211.101C169.699 210.229 172.14 208.486 173.815 203.728Z" fill="#2E353A"/>
<path opacity="0.4" d="M176.442 195.534L183.697 197.888L182.395 201.195L175.732 198.928L176.442 195.534Z" fill="white"/>
<path d="M196.551 219.757L192.304 220.953L189.938 215.236L187.783 209.993L192.591 207.751L194.689 214.109L196.551 219.757Z" fill="#EEC1BB"/>
<path d="M190.417 217.951C190.417 217.466 196.407 217.995 196.407 217.995C196.407 217.995 199.988 221.825 203.537 222.752C207.087 223.68 205.038 225.773 201.046 225.679L191.176 225.43C188.343 225.362 190.174 222.989 190.417 217.951Z" fill="#2E353A"/>
<path d="M199.551 219.596C198.678 219.477 197.834 219.201 197.06 218.78L197.017 218.749C197.014 218.732 197.014 218.715 197.017 218.699C197.014 218.684 197.014 218.67 197.017 218.655C197.01 218.635 197.01 218.613 197.017 218.593C197.017 218.524 197.571 217.154 198.387 216.837C198.51 216.787 198.642 216.764 198.775 216.772C198.907 216.779 199.036 216.817 199.153 216.88C199.42 217.011 199.545 217.179 199.532 217.385C199.501 217.702 199.053 218.008 198.555 218.257C199.017 218.188 199.49 218.25 199.919 218.437C199.995 218.48 200.062 218.537 200.114 218.607C200.167 218.677 200.204 218.757 200.224 218.842C200.264 218.949 200.27 219.066 200.243 219.178C200.215 219.289 200.154 219.389 200.068 219.465C199.917 219.568 199.734 219.615 199.551 219.596ZM197.577 218.699C198.455 219.091 199.557 219.458 199.85 219.228C199.85 219.228 199.956 219.147 199.9 218.911C199.89 218.864 199.869 218.82 199.84 218.783C199.811 218.745 199.774 218.714 199.732 218.693C199.296 218.431 198.25 218.574 197.577 218.699ZM198.698 217.073C198.619 217.073 198.541 217.088 198.468 217.117C197.987 217.408 197.612 217.844 197.397 218.363C198.3 218.051 199.178 217.597 199.202 217.329C199.202 217.242 199.072 217.154 198.991 217.117C198.898 217.081 198.798 217.066 198.698 217.073Z" fill="#577AFA"/>
<path opacity="0.2" d="M194.726 214.24L189.974 215.354L187.795 210.049L192.596 207.782L194.726 214.24Z" fill="black"/>
<path d="M157.387 158.526C157.387 158.526 156.895 151.751 156.665 150.368C156.474 148.998 156.194 147.641 155.824 146.308C154.323 141.793 134.191 147.105 134.191 147.105L133.618 150.219C133.618 150.219 124.533 167.35 130.604 173.521C132.472 175.389 136.065 176.236 139.758 176.211C139.758 176.211 151.048 176.753 172.046 175.775C172.046 175.775 170.489 188.005 187.794 211.967L193.586 210.099C193.586 210.099 182.153 166.596 181.181 165.824C172.812 159.061 157.387 158.526 157.387 158.526Z" fill="#263238"/>
<path d="M186.748 211.675L193.94 209.128L194.918 212.547L188.249 214.801L186.748 211.675Z" fill="#263238"/>
<path d="M164.156 116.536C164.156 116.536 163.434 118.304 162.425 121.393C162.182 122.115 161.933 122.912 161.672 123.772C161.329 124.899 160.962 126.138 160.595 127.508C160.327 128.48 160.059 129.495 159.797 130.566C159.536 131.637 159.256 132.795 158.988 133.972C158.988 134.109 158.926 134.252 158.901 134.389C157.762 139.207 156.93 144.093 156.41 149.017L134.291 147.086C134.288 142.232 134.539 137.38 135.045 132.552C135.443 128.369 136.216 124.23 137.355 120.185C138.233 117.271 139.366 114.767 140.823 113.13C140.823 113.155 152.817 109.219 164.156 116.536Z" fill="#FFC000"/>
<path d="M152.886 109.979C146.229 107.849 143.645 113.092 143.645 113.092L147.188 112.743L154.38 121.773L158.596 116.312L161.249 117.738C161.249 117.738 158.652 111.822 152.886 109.979Z" fill="#FFC000"/>
<path opacity="0.6" d="M152.886 109.979C146.229 107.849 143.645 113.092 143.645 113.092L147.188 112.743L154.38 121.773L158.596 116.312L161.249 117.738C161.249 117.738 158.652 111.822 152.886 109.979Z" fill="white"/>
<path d="M154.192 121.281L148.09 112.146C150.967 110.844 152.872 105.339 153.29 102.238L157.599 108.752C156.191 110.844 155.251 113.235 158.477 115.041C158.489 115.041 154.186 121.262 154.192 121.281Z" fill="#EEC1BB"/>
<path opacity="0.2" d="M155.047 104.897L157.6 108.752C157.265 109.23 156.975 109.739 156.734 110.271C155.458 109.699 154.1 107.781 154.418 106.454C154.526 105.9 154.74 105.371 155.047 104.897Z" fill="black"/>
<path d="M133.948 147.79L140.867 148.245L140.618 150.2L133.27 149.671L133.948 147.79Z" fill="black"/>
<path d="M156.965 151.365L141.453 150.256L141.702 148.301L156.716 149.291L156.965 151.365Z" fill="black"/>
<path d="M151.279 151.358H151.217L149.349 151.234C149.126 151.219 148.917 151.118 148.768 150.952C148.619 150.785 148.541 150.567 148.552 150.343L148.601 149.098C148.601 148.98 148.626 148.864 148.674 148.756C148.722 148.649 148.793 148.553 148.882 148.475C148.964 148.397 149.062 148.336 149.169 148.297C149.277 148.259 149.391 148.243 149.504 148.251L151.447 148.363C151.561 148.37 151.671 148.398 151.773 148.448C151.875 148.498 151.966 148.567 152.041 148.652C152.116 148.738 152.173 148.837 152.209 148.944C152.245 149.052 152.259 149.166 152.251 149.279L152.157 150.574C152.137 150.791 152.035 150.993 151.872 151.138C151.709 151.284 151.498 151.363 151.279 151.358ZM149.199 149.092L149.143 150.337C149.141 150.398 149.163 150.457 149.204 150.502C149.244 150.547 149.301 150.575 149.361 150.58L151.229 150.711C151.291 150.714 151.352 150.693 151.398 150.653C151.445 150.612 151.474 150.555 151.478 150.493L151.572 149.204C151.575 149.173 151.572 149.141 151.562 149.111C151.552 149.081 151.537 149.053 151.516 149.03C151.495 149.007 151.47 148.989 151.442 148.976C151.415 148.963 151.384 148.956 151.354 148.955L149.411 148.843C149.349 148.841 149.289 148.863 149.243 148.905C149.219 148.925 149.201 148.95 149.188 148.978C149.175 149.006 149.168 149.036 149.168 149.067L149.199 149.092Z" fill="white"/>
<path opacity="0.5" d="M186.748 211.675L193.94 209.128L194.918 212.547L188.249 214.801L186.748 211.675Z" fill="white"/>
<path d="M168.41 100.563C168.378 100.564 168.346 100.556 168.318 100.539C168.291 100.523 168.269 100.499 168.254 100.47C168.082 100.134 167.835 99.8416 167.533 99.615C167.231 99.3885 166.881 99.2336 166.511 99.162C166.487 99.1613 166.465 99.1558 166.444 99.1458C166.423 99.1358 166.404 99.1216 166.389 99.1041C166.374 99.0865 166.362 99.066 166.355 99.0438C166.348 99.0216 166.346 98.9983 166.349 98.9752C166.355 98.9306 166.377 98.89 166.412 98.8612C166.447 98.8324 166.491 98.8175 166.536 98.8195C166.966 98.8932 167.374 99.0667 167.725 99.3263C168.076 99.5858 168.362 99.9241 168.559 100.314C168.57 100.334 168.577 100.356 168.579 100.378C168.581 100.401 168.578 100.424 168.571 100.445C168.564 100.467 168.553 100.487 168.538 100.504C168.523 100.521 168.505 100.535 168.485 100.544L168.41 100.563Z" fill="#263238"/>
<path d="M166.33 103.26C166.397 104.124 166.569 104.977 166.84 105.8C166.62 105.935 166.367 106.007 166.109 106.007C165.85 106.007 165.597 105.935 165.377 105.8L166.33 103.26Z" fill="#D4827D"/>
<path d="M167.705 102.332C167.543 102.718 167.207 102.955 166.946 102.842C166.684 102.73 166.603 102.332 166.765 101.946C166.927 101.56 167.263 101.323 167.525 101.435C167.786 101.547 167.861 101.94 167.705 102.332Z" fill="#263238"/>
<path d="M167.406 101.41H168.384C168.384 101.41 167.674 101.964 167.406 101.41Z" fill="#263238"/>
<path d="M153.371 105.683C153.395 105.746 153.426 105.807 153.465 105.863C153.527 105.988 153.596 106.1 153.664 106.224C154.064 106.991 154.607 107.674 155.265 108.236C157.388 109.998 159.219 110.558 160.869 110.104C160.95 110.104 161.025 110.054 161.106 110.029C163.547 109.107 165.465 106.293 167.09 102.494C167.794 101.023 168.254 99.4483 168.454 97.8301C168.454 97.8301 168.454 97.774 168.454 97.7616C168.454 97.7491 168.454 97.6308 168.454 97.5747C168.533 96.6441 168.379 95.7082 168.005 94.8523C167.631 93.9964 167.049 93.2476 166.311 92.674C165.682 92.1557 164.997 91.7088 164.269 91.3414C157.195 87.6673 149.953 98.8451 153.371 105.683Z" fill="#EEC1BB"/>
<path d="M168.454 97.7675C168.454 97.7675 166.324 102.973 160.496 102.749C160.496 102.749 155.838 106.928 152.805 105.489C148.664 103.528 147.991 95.8932 152.394 90.681C158.117 83.9183 170.073 89.1616 168.454 97.7675Z" fill="#263238"/>
<path d="M163.639 102.525C164.031 101.74 164.062 100.115 162.761 99.679C161.459 99.2431 159.149 101.977 161.889 104.225C162.281 104.549 162.848 104.156 163.639 102.525Z" fill="#EEC1BB"/>
<path d="M162.432 88.0714C162.432 88.0714 167.819 89.267 169.488 92.5176C171.443 96.3161 171.443 99.2242 165.975 100.986C165.975 100.986 159.269 94.3483 156.323 93.5575C154.606 93.0856 152.852 92.7586 151.08 92.5798C153.191 87.0003 160.309 85.6428 162.432 88.0714Z" fill="#263238"/>
<path d="M160.507 102.749C157.12 109.518 149.672 121.02 141.732 112.906C141.732 112.906 144.584 103.727 150.345 99.9411C156.105 96.1549 160.507 102.749 160.507 102.749Z" fill="#263238"/>
<path d="M159.281 114.039C162.177 116.181 158.472 123.23 162.127 124.799C161.784 124.325 161.568 123.769 161.5 123.187C161.432 122.605 161.515 122.015 161.741 121.474C162.507 119.556 165.614 114.487 164.375 107.625L159.281 114.039Z" fill="#263238"/>
<path opacity="0.2" d="M144.28 128.903C144.28 128.903 139.548 132.11 135.07 132.508C135.463 128.341 136.228 124.216 137.356 120.185C137.929 119.862 138.567 119.675 139.224 119.637C142.549 119.699 143.763 122.819 143.763 122.819C144.123 124.826 144.296 126.863 144.28 128.903Z" fill="black"/>
<path d="M161.554 151.116L160.557 149.92C160.37 149.702 160.133 149.531 159.867 149.423C159.6 149.315 159.312 149.272 159.025 149.297L156.298 149.497C155.759 149.536 155.237 149.704 154.777 149.987C154.316 150.27 153.93 150.659 153.651 151.122L153.303 151.701C154.822 153.799 158.004 154.952 158.004 154.952L158.876 155.381C159.051 155.476 159.243 155.535 159.442 155.555C159.64 155.574 159.84 155.555 160.03 155.497C160.221 155.439 160.398 155.344 160.551 155.217C160.705 155.091 160.832 154.935 160.925 154.758L161.797 153.04C161.953 152.731 162.013 152.383 161.97 152.04C161.927 151.698 161.782 151.375 161.554 151.116Z" fill="#EEC1BB"/>
<path d="M142.38 122.489C142.304 126.411 142.585 130.332 143.221 134.202C143.454 135.441 143.755 136.665 144.124 137.87L143.85 137.329C145.288 139.527 147.393 141.563 149.23 143.556L152.306 146.732L155.42 149.926C155.694 150.202 155.856 150.57 155.875 150.959C155.894 151.348 155.769 151.73 155.523 152.032C155.277 152.333 154.928 152.533 154.543 152.593C154.158 152.653 153.765 152.568 153.439 152.355C152.15 151.539 150.948 150.68 149.703 149.808C145.905 146.949 142.075 144.278 139.117 140.467C136.539 134.757 135.91 128.411 136.128 122.209C136.495 118.068 142.498 118.373 142.448 122.527L142.38 122.489Z" fill="#EBC0BB"/>
<path d="M140.611 113.192C136.532 114.593 134.845 118.952 134.664 126.325C136.75 128.262 143.612 127.621 143.612 127.621C143.612 127.621 144.852 116.449 140.611 113.192Z" fill="#FFC000"/>
<path d="M184.563 156.845V158.794C184.563 159.298 183.94 159.504 183.467 159.504H144.167C143.663 159.504 143.053 159.298 143.053 158.794V156.826L184.563 156.845Z" fill="#263238"/>
<path opacity="0.4" d="M184.563 156.845V158.794C184.563 159.298 183.94 159.504 183.467 159.504H144.167C143.663 159.504 143.053 159.298 143.053 158.794V156.826L184.563 156.845Z" fill="white"/>
<path opacity="0.2" d="M184.563 156.845V158.794C184.563 159.298 183.94 159.504 183.467 159.504H157.549C157.045 159.504 156.447 159.298 156.447 158.794V156.826L184.563 156.845Z" fill="black"/>
<path d="M191.139 136.431L186.456 157.647C186.373 157.989 186.179 158.293 185.904 158.512C185.629 158.731 185.288 158.851 184.937 158.855H159.406C159.247 158.851 159.091 158.81 158.951 158.735C158.811 158.661 158.69 158.555 158.597 158.426C158.504 158.297 158.442 158.148 158.416 157.992C158.39 157.835 158.401 157.675 158.447 157.523L163.123 136.463C163.218 136.142 163.42 135.864 163.695 135.674C163.971 135.485 164.303 135.396 164.636 135.423H190.199C190.871 135.423 191.289 135.753 191.139 136.431Z" fill="#263238"/>
<path opacity="0.4" d="M191.138 136.432L186.456 157.648C186.372 157.989 186.178 158.294 185.903 158.512C185.628 158.731 185.288 158.852 184.936 158.856H160.252C160.092 158.852 159.936 158.812 159.795 158.738C159.654 158.663 159.532 158.558 159.439 158.429C159.345 158.3 159.283 158.151 159.257 157.994C159.23 157.837 159.24 157.676 159.286 157.523L163.963 136.463C164.058 136.141 164.261 135.862 164.538 135.673C164.814 135.483 165.148 135.395 165.482 135.423H190.173C190.871 135.423 191.288 135.753 191.138 136.432Z" fill="white"/>
<path opacity="0.2" d="M178.536 147.218C178.536 149.03 176.587 150.506 175.161 150.506C173.735 150.506 172.888 149.03 173.293 147.218C173.697 145.406 175.123 143.98 176.518 143.93C176.114 145.742 176.985 147.218 178.386 147.218H178.536Z" fill="black"/>
</svg>
