<svg width="313" height="239" viewBox="0 0 313 239" fill="none" xmlns="http://www.w3.org/2000/svg">
<path d="M312.178 210.008H0.820312V210.163H312.178V210.008Z" fill="#E0E0E0"/>
<path d="M237.035 215.749H215.613V215.905H237.035V215.749Z" fill="#E0E0E0"/>
<path d="M262.235 215.308H250.18V215.463H262.235V215.308Z" fill="#E0E0E0"/>
<path d="M154.843 215.675H138.852V215.83H154.843V215.675Z" fill="#E0E0E0"/>
<path d="M166.395 217.885H155.473V218.04H166.395V217.885Z" fill="#E0E0E0"/>
<path d="M90.9078 214.1H57.9102V214.255H90.9078V214.1Z" fill="#E0E0E0"/>
<path d="M148.405 182.235H28.1647C27.2228 182.233 26.32 181.858 25.6545 181.191C24.989 180.525 24.6152 179.621 24.6152 178.679V9.65543C24.6234 8.71888 25.0008 7.82339 25.6654 7.16346C26.33 6.50353 27.2281 6.13246 28.1647 6.13086H148.405C149.348 6.13086 150.252 6.50548 150.919 7.1723C151.586 7.83913 151.961 8.74353 151.961 9.68656V178.679C151.961 179.622 151.586 180.527 150.919 181.193C150.252 181.86 149.348 182.235 148.405 182.235ZM28.1647 6.2554C27.264 6.25705 26.4008 6.616 25.7646 7.25345C25.1283 7.8909 24.7709 8.75476 24.7709 9.65543V178.679C24.7709 179.58 25.1283 180.444 25.7646 181.081C26.4008 181.719 27.264 182.077 28.1647 182.079H148.405C149.306 182.077 150.17 181.719 150.807 181.081C151.444 180.444 151.803 179.58 151.805 178.679V9.65543C151.803 8.75419 151.444 7.89034 150.807 7.25307C150.17 6.61579 149.306 6.25705 148.405 6.2554H28.1647Z" fill="#E0E0E0"/>
<path d="M283.103 182.235H162.856C161.914 182.233 161.011 181.858 160.344 181.192C159.678 180.525 159.302 179.622 159.301 178.679V9.65543C159.311 8.71831 159.689 7.82283 160.355 7.16307C161.021 6.50331 161.919 6.13245 162.856 6.13086H283.103C284.038 6.1341 284.935 6.50589 285.598 7.16564C286.261 7.8254 286.638 8.71996 286.646 9.65543V178.679C286.646 179.62 286.273 180.522 285.609 181.189C284.945 181.855 284.044 182.231 283.103 182.235ZM162.856 6.2554C161.955 6.25705 161.091 6.61579 160.454 7.25307C159.817 7.89034 159.458 8.75419 159.456 9.65543V178.679C159.458 179.58 159.817 180.444 160.454 181.081C161.091 181.719 161.955 182.077 162.856 182.079H283.103C284.004 182.077 284.868 181.719 285.505 181.081C286.142 180.444 286.501 179.58 286.503 178.679V9.65543C286.501 8.75419 286.142 7.89034 285.505 7.25307C284.868 6.61579 284.004 6.25705 283.103 6.2554H162.856Z" fill="#E0E0E0"/>
<path d="M271.097 21.2441H177.254V101.923H271.097V21.2441Z" fill="#E0E0E0"/>
<path d="M273.183 21.2441H179.34V101.923H273.183V21.2441Z" fill="#F0F0F0"/>
<path d="M269.441 98.1371V25.0303L183.083 25.0303V98.1371H269.441Z" fill="#FAFAFA"/>
<path d="M241.842 98.1371V25.0303H236.2V98.1371H241.842Z" fill="#E0E0E0"/>
<path d="M212.164 98.1371V25.0303H206.522V98.1371H212.164Z" fill="#E0E0E0"/>
<path d="M243.828 100.534V22.209H238.186V100.534H243.828Z" fill="#F0F0F0"/>
<path d="M214.145 100.541V22.2158H208.503V100.541H214.145Z" fill="#F0F0F0"/>
<path d="M269.441 98.1312V25.0244H267.866V98.1312H269.441Z" fill="#E0E0E0"/>
<path d="M111.252 84.9603C111.252 84.9603 99.8314 65.2887 115.68 49.6025C115.68 49.6025 119.814 52.2989 119.752 55.9231C119.69 59.5473 115.318 60.4627 116.259 63.4891C117.199 66.5155 121.315 69.4734 118.613 71.9767C115.91 74.48 119.048 76.6969 118.868 79.7607C118.687 82.8244 111.252 84.9603 111.252 84.9603Z" fill="#E0E0E0"/>
<path d="M113.046 88.1795C113.046 88.1795 117.679 65.8987 97.702 56.0225C97.702 56.0225 94.6258 59.8833 95.8339 63.302C97.0419 66.7207 101.469 66.2101 101.532 69.3797C101.594 72.5493 98.6236 76.6593 101.974 78.1787C105.324 79.6981 103.051 82.7992 104.191 85.6513C105.33 88.5033 113.046 88.1795 113.046 88.1795Z" fill="#E6E6E6"/>
<path d="M102.877 82.5195C102.877 82.5195 103.076 101.755 110.767 101.755C118.457 101.755 118.65 82.5195 118.65 82.5195H102.877Z" fill="#F0F0F0"/>
<path d="M56.6719 94.5195C56.6719 94.5195 57.1015 101.755 73.5226 101.755C89.9436 101.755 90.3795 94.5195 90.3795 94.5195H56.6719Z" fill="#E6E6E6"/>
<path d="M229.793 138.146H221.125C220.045 138.146 219.17 139.022 219.17 140.102V154.437C219.17 155.517 220.045 156.392 221.125 156.392H229.793C230.873 156.392 231.749 155.517 231.749 154.437V140.102C231.749 139.022 230.873 138.146 229.793 138.146Z" fill="#F0F0F0"/>
<path d="M252.784 144.112H246.949C246.223 144.112 245.635 144.701 245.635 145.426V155.078C245.635 155.804 246.223 156.392 246.949 156.392H252.784C253.509 156.392 254.097 155.804 254.097 155.078V145.426C254.097 144.701 253.509 144.112 252.784 144.112Z" fill="#E6E6E6"/>
<path d="M253.655 142.923H246.077C245.833 142.923 245.635 143.121 245.635 143.365V143.863C245.635 144.107 245.833 144.305 246.077 144.305H253.655C253.9 144.305 254.097 144.107 254.097 143.863V143.365C254.097 143.121 253.9 142.923 253.655 142.923Z" fill="#F0F0F0"/>
<path d="M199.105 146.242C199.105 146.242 199.417 156.392 211.304 156.392C223.192 156.392 223.51 146.242 223.51 146.242H199.105Z" fill="#E6E6E6"/>
<path d="M169.539 132.835H187.529V129.285H169.539V132.835Z" fill="#E0E0E0"/>
<path d="M276.97 129.292H187.529V132.841H276.97V129.292Z" fill="#F0F0F0"/>
<path d="M169.539 159.941H187.529V156.392H169.539V159.941Z" fill="#E0E0E0"/>
<path d="M276.97 156.393H187.529V159.942H276.97V156.393Z" fill="#F0F0F0"/>
<path d="M176.022 132.835H172.703V210.002H176.022V132.835Z" fill="#E0E0E0"/>
<path d="M190.848 132.835H187.529V210.002H190.848V132.835Z" fill="#F0F0F0"/>
<path d="M265.462 132.835H262.143V210.002H265.462V132.835Z" fill="#E0E0E0"/>
<path d="M276.969 132.835H273.65V210.002H276.969V132.835Z" fill="#F0F0F0"/>
<path d="M56.6708 106.27H39.6582V205.337H56.6708V106.27Z" fill="#E6E6E6"/>
<path d="M126.82 205.331H42.9277V210.008H126.82V205.331Z" fill="#E6E6E6"/>
<path d="M56.6721 205.331H130.084V106.263L56.6721 106.263L56.6721 205.331Z" fill="#F0F0F0"/>
<path d="M63.3605 167.899H123.396V143.701H63.3605V167.899Z" fill="#E6E6E6"/>
<path d="M63.3605 196.508H123.396V172.309H63.3605V196.508Z" fill="#E6E6E6"/>
<path d="M100.119 146.354H86.6369C86.1981 146.353 85.7777 146.178 85.4674 145.867C85.1572 145.557 84.9821 145.137 84.9805 144.698C84.9805 144.258 85.1548 143.836 85.4652 143.524C85.7757 143.213 86.197 143.037 86.6369 143.035H100.119C100.559 143.037 100.98 143.213 101.29 143.524C101.601 143.836 101.775 144.258 101.775 144.698C101.773 145.137 101.598 145.557 101.288 145.867C100.978 146.178 100.557 146.353 100.119 146.354Z" fill="#F0F0F0"/>
<path d="M63.3605 139.286H123.396V115.087H63.3605V139.286Z" fill="#E6E6E6"/>
<path d="M100.119 117.747H86.6369C86.197 117.745 85.7757 117.569 85.4652 117.258C85.1548 116.946 84.9805 116.524 84.9805 116.084C84.9821 115.645 85.1572 115.225 85.4674 114.915C85.7777 114.604 86.1981 114.429 86.6369 114.428H100.119C100.557 114.429 100.978 114.604 101.288 114.915C101.598 115.225 101.773 115.645 101.775 116.084C101.775 116.524 101.601 116.946 101.29 117.258C100.98 117.569 100.559 117.745 100.119 117.747Z" fill="#F0F0F0"/>
<path d="M100.119 174.962H86.6369C86.1981 174.96 85.7777 174.785 85.4674 174.475C85.1572 174.164 84.9821 173.744 84.9805 173.305C84.9805 172.865 85.1548 172.443 85.4652 172.132C85.7757 171.82 86.197 171.644 86.6369 171.643H100.119C100.559 171.644 100.98 171.82 101.29 172.132C101.601 172.443 101.775 172.865 101.775 173.305C101.773 173.744 101.598 174.164 101.288 174.475C100.978 174.785 100.557 174.96 100.119 174.962Z" fill="#F0F0F0"/>
<path d="M132.35 101.755H56.6719V106.27H132.35V101.755Z" fill="#E6E6E6"/>
<path d="M37.2805 106.264H56.6719V101.749H37.2805V106.264Z" fill="#E0E0E0"/>
<path d="M75.6334 25.0303H48.1094V55.2569H75.6334V25.0303Z" fill="#E6E6E6"/>
<path d="M78.6168 25.0303H50.1836V55.2569H78.6168V25.0303Z" fill="#F0F0F0"/>
<path d="M76.2305 52.872V27.4092H52.5611V52.872H76.2305Z" fill="#FAFAFA"/>
<path d="M70.4961 46.7007V33.5801H58.3033V46.7007H70.4961Z" fill="#F0F0F0"/>
<path d="M104.653 16.1064H83.7793V38.5304H104.653V16.1064Z" fill="#E6E6E6"/>
<path d="M106.869 16.1064H85.7773V38.5304H106.869V16.1064Z" fill="#F0F0F0"/>
<path d="M105.1 36.762V17.875H87.5453V36.762H105.1Z" fill="#FAFAFA"/>
<path d="M96.3207 22.5391L91.5195 30.8585H101.122L96.3207 22.5391Z" fill="#F0F0F0"/>
<path d="M156.5 238.13C223.182 238.13 277.238 234.974 277.238 231.08C277.238 227.187 223.182 224.031 156.5 224.031C89.8181 224.031 35.7617 227.187 35.7617 231.08C35.7617 234.974 89.8181 238.13 156.5 238.13Z" fill="#F5F5F5"/>
<path d="M262.236 62.6865H201.147C197.925 62.6865 195.312 65.2989 195.312 68.5214V85.1354C195.312 88.3579 197.925 90.9703 201.147 90.9703H262.236C265.458 90.9703 268.071 88.3579 268.071 85.1354V68.5214C268.071 65.2989 265.458 62.6865 262.236 62.6865Z" fill="#FFC000"/>
<path d="M250.119 67.4561H202.4C201.836 67.4561 201.379 67.9133 201.379 68.4773V69.5982C201.379 70.1622 201.836 70.6195 202.4 70.6195H250.119C250.683 70.6195 251.14 70.1622 251.14 69.5982V68.4773C251.14 67.9133 250.683 67.4561 250.119 67.4561Z" fill="#FFC000"/>
<path d="M235.006 75.0781H202.4C201.836 75.0781 201.379 75.5354 201.379 76.0994V77.2203C201.379 77.7843 201.836 78.2415 202.4 78.2415H235.006C235.57 78.2415 236.027 77.7843 236.027 77.2203V76.0994C236.027 75.5354 235.57 75.0781 235.006 75.0781Z" fill="#FFC000"/>
<path d="M226.263 82.7002H202.4C201.836 82.7002 201.379 83.1574 201.379 83.7214V84.8423C201.379 85.4064 201.836 85.8636 202.4 85.8636H226.263C226.827 85.8636 227.284 85.4064 227.284 84.8423V83.7214C227.284 83.1574 226.827 82.7002 226.263 82.7002Z" fill="#FFC000"/>
<path d="M255.835 82.7002H231.972C231.408 82.7002 230.951 83.1574 230.951 83.7214V84.8423C230.951 85.4064 231.408 85.8636 231.972 85.8636H255.835C256.399 85.8636 256.856 85.4064 256.856 84.8423V83.7214C256.856 83.1574 256.399 82.7002 255.835 82.7002Z" fill="#FFC000"/>
<g opacity="0.5">
<path d="M250.119 67.4561H202.4C201.836 67.4561 201.379 67.9133 201.379 68.4773V69.5982C201.379 70.1622 201.836 70.6195 202.4 70.6195H250.119C250.683 70.6195 251.14 70.1622 251.14 69.5982V68.4773C251.14 67.9133 250.683 67.4561 250.119 67.4561Z" fill="white"/>
<path d="M235.006 75.0781H202.4C201.836 75.0781 201.379 75.5354 201.379 76.0994V77.2203C201.379 77.7843 201.836 78.2415 202.4 78.2415H235.006C235.57 78.2415 236.027 77.7843 236.027 77.2203V76.0994C236.027 75.5354 235.57 75.0781 235.006 75.0781Z" fill="white"/>
<path d="M226.263 82.7002H202.4C201.836 82.7002 201.379 83.1574 201.379 83.7214V84.8423C201.379 85.4064 201.836 85.8636 202.4 85.8636H226.263C226.827 85.8636 227.284 85.4064 227.284 84.8423V83.7214C227.284 83.1574 226.827 82.7002 226.263 82.7002Z" fill="white"/>
<path d="M255.835 82.7002H231.972C231.408 82.7002 230.951 83.1574 230.951 83.7214V84.8423C230.951 85.4064 231.408 85.8636 231.972 85.8636H255.835C256.399 85.8636 256.856 85.4064 256.856 84.8423V83.7214C256.856 83.1574 256.399 82.7002 255.835 82.7002Z" fill="white"/>
</g>
<path d="M213.304 56.0918H143.964C139.239 56.0918 135.408 59.9225 135.408 64.6479V89.0085C135.408 93.7339 139.239 97.5647 143.964 97.5647H213.304C218.029 97.5647 221.86 93.7339 221.86 89.0085V64.6479C221.86 59.9225 218.029 56.0918 213.304 56.0918Z" fill="#FFC000"/>
<path d="M215.757 63.085H145.802C144.973 63.085 144.301 63.7569 144.301 64.5857V66.2234C144.301 67.0523 144.973 67.7242 145.802 67.7242H215.757C216.586 67.7242 217.258 67.0523 217.258 66.2234V64.5857C217.258 63.7569 216.586 63.085 215.757 63.085Z" fill="#FFC000"/>
<path d="M193.595 74.2627H145.802C144.973 74.2627 144.301 74.9346 144.301 75.7634V77.4012C144.301 78.23 144.973 78.9019 145.802 78.9019H193.595C194.424 78.9019 195.096 78.23 195.096 77.4012V75.7634C195.096 74.9346 194.424 74.2627 193.595 74.2627Z" fill="#FFC000"/>
<path d="M180.779 85.4404H145.802C144.973 85.4404 144.301 86.1123 144.301 86.9412V88.5789C144.301 89.4078 144.973 90.0797 145.802 90.0797H180.779C181.608 90.0797 182.28 89.4078 182.28 88.5789V86.9412C182.28 86.1123 181.608 85.4404 180.779 85.4404Z" fill="#FFC000"/>
<path d="M218.304 85.4404H189.161C188.332 85.4404 187.66 86.1123 187.66 86.9412V88.5789C187.66 89.4078 188.332 90.0797 189.161 90.0797H218.304C219.133 90.0797 219.805 89.4078 219.805 88.5789V86.9412C219.805 86.1123 219.133 85.4404 218.304 85.4404Z" fill="#FFC000"/>
<g opacity="0.5">
<path d="M215.757 63.085H145.802C144.973 63.085 144.301 63.7569 144.301 64.5857V66.2234C144.301 67.0523 144.973 67.7242 145.802 67.7242H215.757C216.586 67.7242 217.258 67.0523 217.258 66.2234V64.5857C217.258 63.7569 216.586 63.085 215.757 63.085Z" fill="white"/>
<path d="M193.595 74.2627H145.802C144.973 74.2627 144.301 74.9346 144.301 75.7634V77.4012C144.301 78.23 144.973 78.9019 145.802 78.9019H193.595C194.424 78.9019 195.096 78.23 195.096 77.4012V75.7634C195.096 74.9346 194.424 74.2627 193.595 74.2627Z" fill="white"/>
<path d="M180.779 85.4404H145.802C144.973 85.4404 144.301 86.1123 144.301 86.9412V88.5789C144.301 89.4078 144.973 90.0797 145.802 90.0797H180.779C181.608 90.0797 182.28 89.4078 182.28 88.5789V86.9412C182.28 86.1123 181.608 85.4404 180.779 85.4404Z" fill="white"/>
<path d="M218.304 85.4404H189.161C188.332 85.4404 187.66 86.1123 187.66 86.9412V88.5789C187.66 89.4078 188.332 90.0797 189.161 90.0797H218.304C219.133 90.0797 219.805 89.4078 219.805 88.5789V86.9412C219.805 86.1123 219.133 85.4404 218.304 85.4404Z" fill="white"/>
</g>
<path d="M170.193 105.081H136.797C134.589 105.081 132.799 106.871 132.799 109.079V159.108C132.799 161.316 134.589 163.106 136.797 163.106H170.193C172.401 163.106 174.191 161.316 174.191 159.108V109.079C174.191 106.871 172.401 105.081 170.193 105.081Z" fill="#FFC000"/>
<path opacity="0.4" d="M170.193 105.081H136.797C134.589 105.081 132.799 106.871 132.799 109.079V159.108C132.799 161.316 134.589 163.106 136.797 163.106H170.193C172.401 163.106 174.191 161.316 174.191 159.108V109.079C174.191 106.871 172.401 105.081 170.193 105.081Z" fill="black"/>
<path d="M168.661 111.134H138.323C137.917 111.134 137.588 111.463 137.588 111.869V112.971C137.588 113.377 137.917 113.706 138.323 113.706H168.661C169.067 113.706 169.396 113.377 169.396 112.971V111.869C169.396 111.463 169.067 111.134 168.661 111.134Z" fill="#FAFAFA"/>
<path d="M159.003 117.323H138.323C137.917 117.323 137.588 117.652 137.588 118.058V119.16C137.588 119.566 137.917 119.895 138.323 119.895H159.003C159.409 119.895 159.738 119.566 159.738 119.16V118.058C159.738 117.652 159.409 117.323 159.003 117.323Z" fill="#FAFAFA"/>
<path d="M168.661 123.52H138.323C137.917 123.52 137.588 123.849 137.588 124.254V125.357C137.588 125.762 137.917 126.091 138.323 126.091H168.661C169.067 126.091 169.396 125.762 169.396 125.357V124.254C169.396 123.849 169.067 123.52 168.661 123.52Z" fill="#FAFAFA"/>
<path d="M149.6 129.709H138.323C137.917 129.709 137.588 130.038 137.588 130.444V131.546C137.588 131.952 137.917 132.281 138.323 132.281H149.6C150.006 132.281 150.335 131.952 150.335 131.546V130.444C150.335 130.038 150.006 129.709 149.6 129.709Z" fill="#FAFAFA"/>
<path d="M165.379 129.709H154.102C153.696 129.709 153.367 130.038 153.367 130.444V131.546C153.367 131.952 153.696 132.281 154.102 132.281H165.379C165.785 132.281 166.114 131.952 166.114 131.546V130.444C166.114 130.038 165.785 129.709 165.379 129.709Z" fill="#FAFAFA"/>
<path d="M168.661 135.905H138.323C137.917 135.905 137.588 136.234 137.588 136.64V137.742C137.588 138.148 137.917 138.477 138.323 138.477H168.661C169.067 138.477 169.396 138.148 169.396 137.742V136.64C169.396 136.234 169.067 135.905 168.661 135.905Z" fill="#FAFAFA"/>
<path d="M168.661 142.095H138.323C137.917 142.095 137.588 142.424 137.588 142.83V143.932C137.588 144.338 137.917 144.667 138.323 144.667H168.661C169.067 144.667 169.396 144.338 169.396 143.932V142.83C169.396 142.424 169.067 142.095 168.661 142.095Z" fill="#FAFAFA"/>
<path d="M163.281 148.291H138.323C137.917 148.291 137.588 148.62 137.588 149.026V150.128C137.588 150.534 137.917 150.863 138.323 150.863H163.281C163.687 150.863 164.016 150.534 164.016 150.128V149.026C164.016 148.62 163.687 148.291 163.281 148.291Z" fill="#FAFAFA"/>
<path d="M149.967 154.48H138.323C137.917 154.48 137.588 154.809 137.588 155.215V156.317C137.588 156.723 137.917 157.052 138.323 157.052H149.967C150.373 157.052 150.702 156.723 150.702 156.317V155.215C150.702 154.809 150.373 154.48 149.967 154.48Z" fill="#FAFAFA"/>
<path d="M179.228 104.726H132.904L153.385 121.022L184.789 132.854V110.274C184.786 108.801 184.198 107.39 183.156 106.35C182.113 105.31 180.701 104.726 179.228 104.726Z" fill="#FFC000"/>
<path opacity="0.4" d="M179.228 104.726H132.904L153.385 121.022L184.789 132.854V110.274C184.786 108.801 184.198 107.39 183.156 106.35C182.113 105.31 180.701 104.726 179.228 104.726Z" fill="black"/>
<path d="M177.205 113.12H143.31C142.801 113.12 142.389 113.533 142.389 114.042V115.76C142.389 116.269 142.801 116.682 143.31 116.682H177.205C177.714 116.682 178.126 116.269 178.126 115.76V114.042C178.126 113.533 177.714 113.12 177.205 113.12Z" fill="#FAFAFA"/>
<path d="M259.34 148.839V116.258C259.34 113.761 257.316 111.737 254.819 111.737H198.245C195.748 111.737 193.724 113.761 193.724 116.258V148.839C193.724 151.336 195.748 153.36 198.245 153.36H254.819C257.316 153.36 259.34 151.336 259.34 148.839Z" fill="#FFC000"/>
<path d="M269.672 138.514V105.934C269.672 103.437 267.648 101.413 265.151 101.413H208.577C206.08 101.413 204.056 103.437 204.056 105.934V138.514C204.056 141.011 206.08 143.035 208.577 143.035H265.151C267.648 143.035 269.672 141.011 269.672 138.514Z" fill="#FFC000"/>
<path opacity="0.5" d="M269.672 138.514V105.934C269.672 103.437 267.648 101.413 265.151 101.413H208.577C206.08 101.413 204.056 103.437 204.056 105.934V138.514C204.056 141.011 206.08 143.035 208.577 143.035H265.151C267.648 143.035 269.672 141.011 269.672 138.514Z" fill="white"/>
<path d="M263.93 127.349V107.292C263.93 106.181 263.029 105.28 261.918 105.28H243.43C242.319 105.28 241.419 106.181 241.419 107.292V127.349C241.419 128.46 242.319 129.361 243.43 129.361H261.918C263.029 129.361 263.93 128.46 263.93 127.349Z" fill="#FFC000"/>
<path opacity="0.7" d="M263.93 127.349V107.292C263.93 106.181 263.029 105.28 261.918 105.28H243.43C242.319 105.28 241.419 106.181 241.419 107.292V127.349C241.419 128.46 242.319 129.361 243.43 129.361H261.918C263.029 129.361 263.93 128.46 263.93 127.349Z" fill="white"/>
<path d="M237.895 137.051V121.682C237.895 120.829 237.203 120.138 236.35 120.138H222.183C221.331 120.138 220.639 120.829 220.639 121.682V137.051C220.639 137.904 221.331 138.595 222.183 138.595H236.35C237.203 138.595 237.895 137.904 237.895 137.051Z" fill="#FFC000"/>
<path opacity="0.3" d="M237.895 137.051V121.682C237.895 120.829 237.203 120.138 236.35 120.138H222.183C221.331 120.138 220.639 120.829 220.639 121.682V137.051C220.639 137.904 221.331 138.595 222.183 138.595H236.35C237.203 138.595 237.895 137.904 237.895 137.051Z" fill="white"/>
<path d="M229.264 39.6084V31.3076C229.264 28.7695 227.206 26.7119 224.668 26.7119L72.6445 26.7119C70.1064 26.7119 68.0488 28.7695 68.0488 31.3076V39.6084C68.0488 42.1465 70.1064 44.204 72.6445 44.204L224.668 44.204C227.206 44.204 229.264 42.1465 229.264 39.6084Z" fill="#FFC000"/>
<path opacity="0.5" d="M229.264 39.6084V31.3076C229.264 28.7695 227.206 26.7119 224.668 26.7119L72.6445 26.7119C70.1064 26.7119 68.0488 28.7695 68.0488 31.3076V39.6084C68.0488 42.1465 70.1064 44.204 72.6445 44.204L224.668 44.204C227.206 44.204 229.264 42.1465 229.264 39.6084Z" fill="white"/>
<path d="M200.5 47.131V41.1094H156.754V47.131H200.5Z" fill="#FFC000"/>
<path opacity="0.5" d="M200.5 47.131V41.1094H156.754V47.131H200.5Z" fill="white"/>
<path d="M244.949 13.7656V5.46478C244.949 2.92668 242.892 0.869141 240.354 0.869141L88.33 0.869141C85.7919 0.869141 83.7344 2.92668 83.7344 5.46478V13.7656C83.7344 16.3037 85.7919 18.3612 88.33 18.3612L240.354 18.3612C242.892 18.3612 244.949 16.3037 244.949 13.7656Z" fill="#FFC000"/>
<path d="M81.9981 92.8506C81.4502 94.0961 80.8461 95.4411 80.3168 96.755C79.7875 98.069 79.2395 99.4203 78.76 100.765C77.7762 103.387 76.9873 106.079 76.3999 108.817L76.2193 109.813L76.1571 110.187C76.1571 110.293 76.1571 110.43 76.1197 110.554C76.096 111.161 76.1085 111.768 76.1571 112.373C76.2754 113.687 76.4871 115.094 76.7798 116.501C77.3029 119.322 77.9692 122.23 78.6479 125.095L75.4534 126.34C73.9643 123.626 72.6961 120.796 71.6611 117.878C71.1158 116.359 70.6747 114.805 70.3409 113.226C70.1539 112.352 70.0373 111.465 69.9922 110.573C69.9922 110.324 69.9922 110.087 69.9922 109.82C69.9922 109.552 69.9922 109.253 70.0358 109.079L70.1603 107.833C70.3464 106.229 70.6313 104.638 71.0134 103.069C71.3622 101.513 71.8105 99.9994 72.2589 98.5049C72.7072 97.0104 73.2677 95.5408 73.8593 94.0961C74.1519 93.3737 74.482 92.6576 74.7684 91.9415C75.0549 91.2253 75.3911 90.5404 75.7897 89.7744L81.9981 92.8506Z" fill="#E4897B"/>
<path d="M78.48 124.254L80.9086 126.626L75.6093 129.117C75.6093 129.117 74.3265 126.869 75.2169 124.839L78.48 124.254Z" fill="#E4897B"/>
<path d="M82.8699 130.157L78.3925 131.988L75.6152 129.092L80.9083 126.626L82.8699 130.157Z" fill="#E4897B"/>
<path opacity="0.4" d="M173.567 127.604C164.756 126.615 156.437 123.035 149.66 117.318C142.883 111.601 137.953 104.004 135.494 95.4853C133.034 86.967 133.156 77.9108 135.843 69.4615C138.529 61.0122 143.661 53.5492 150.589 48.0159C157.516 42.4826 165.929 39.1276 174.763 38.3748C183.597 37.6221 192.457 39.5054 200.221 43.7868C207.984 48.0682 214.305 54.5554 218.382 62.4283C222.46 70.3013 224.112 79.2064 223.129 88.018C222.476 93.8724 220.676 99.5407 217.832 104.699C214.987 109.857 211.154 114.405 206.551 118.081C201.948 121.757 196.666 124.491 191.007 126.125C185.347 127.759 179.421 128.261 173.567 127.604Z" fill="#FAFAFA"/>
<path opacity="0.4" d="M206.186 47.722L137.998 102.203C137.712 101.581 137.432 100.958 137.17 100.335C135.461 96.2691 134.367 91.9708 133.926 87.5821L192.822 40.5234C197.658 42.1364 202.178 44.5716 206.186 47.722Z" fill="#FAFAFA"/>
<path opacity="0.4" d="M221.922 71.5903L157.813 122.809C151.723 119.634 146.445 115.1 142.389 109.557L212.388 53.625C216.9 58.8041 220.162 64.9506 221.922 71.5903Z" fill="#FAFAFA"/>
<path d="M128.097 65.9112L127.506 65.7119C128.53 62.6887 129.818 59.7611 131.354 56.9628L131.896 57.2617C130.38 60.0287 129.109 62.9229 128.097 65.9112ZM135.657 51.377L135.153 51.0096C140.27 44.0899 146.968 38.4939 154.687 34.6883L154.968 35.2487C147.336 39.0151 140.715 44.5513 135.657 51.3957V51.377ZM203.901 36.1018C201.866 35.0104 199.76 34.0555 197.599 33.2436L197.823 32.6582C200.006 33.4892 202.132 34.4627 204.187 35.5725L203.901 36.1018Z" fill="#FFC000"/>
<path opacity="0.3" d="M128.097 65.9112L127.506 65.7119C128.53 62.6887 129.818 59.7611 131.354 56.9628L131.896 57.2617C130.38 60.0287 129.109 62.9229 128.097 65.9112ZM135.657 51.377L135.153 51.0096C140.27 44.0899 146.968 38.4939 154.687 34.6883L154.968 35.2487C147.336 39.0151 140.715 44.5513 135.657 51.3957V51.377ZM203.901 36.1018C201.866 35.0104 199.76 34.0555 197.599 33.2436L197.823 32.6582C200.006 33.4892 202.132 34.4627 204.187 35.5725L203.901 36.1018Z" fill="black"/>
<path d="M224.916 60.1451C219.15 48.1861 209.003 38.9046 196.579 34.2247C184.154 29.5448 170.406 29.8255 158.183 35.0086C145.959 40.1916 136.2 49.8796 130.926 62.064C125.653 74.2485 125.271 87.9949 129.859 100.454C125.699 101.911 121.589 103.474 117.504 105.087C111.613 107.424 105.776 109.865 99.9935 112.41C94.2147 114.969 88.4608 117.578 82.763 120.306C79.9047 121.645 77.0838 123.058 74.238 124.428C72.7576 125.064 71.4162 125.985 70.29 127.137C69.6805 127.775 69.1438 128.479 68.6896 129.235C68.1355 130.13 67.7158 131.102 67.4442 132.119C66.9756 133.951 67.1782 135.891 68.0154 137.587C68.8526 139.283 70.2691 140.623 72.0087 141.366C72.9747 141.771 73.9939 142.035 75.0351 142.151C75.9145 142.25 76.8023 142.25 77.6816 142.151C79.2797 141.957 80.8241 141.451 82.2274 140.662C85.0483 139.236 87.8879 137.86 90.6902 136.397C96.2946 133.538 101.899 130.556 107.435 127.529C112.971 124.503 118.513 121.333 123.918 118.083C127.655 115.822 131.428 113.512 135.127 111.096C142.23 122.309 153.374 130.359 166.251 133.579C179.128 136.799 192.75 134.942 204.295 128.392C215.84 121.842 224.422 111.101 228.263 98.3958C232.105 85.6904 230.911 71.9942 224.929 60.1451H224.916ZM196.608 119.633C189.371 123.205 181.238 124.551 173.236 123.501C165.234 122.451 157.723 119.051 151.654 113.733C145.584 108.414 141.227 101.415 139.135 93.6208C137.043 85.8264 137.308 77.5866 139.899 69.9433C142.489 62.3 147.288 55.5964 153.688 50.6802C160.088 45.764 167.802 42.8559 175.855 42.3237C183.908 41.7915 191.938 43.6591 198.929 47.6903C205.921 51.7215 211.56 57.7352 215.134 64.9712C217.507 69.7766 218.91 75.0026 219.264 80.3505C219.617 85.6984 218.914 91.0636 217.193 96.1396C215.473 101.216 212.77 105.903 209.238 109.934C205.705 113.965 201.414 117.261 196.608 119.633Z" fill="#FFC000"/>
<path opacity="0.3" d="M224.916 60.1451C219.15 48.1861 209.003 38.9046 196.579 34.2247C184.154 29.5448 170.406 29.8255 158.183 35.0086C145.959 40.1916 136.2 49.8796 130.926 62.064C125.653 74.2485 125.271 87.9949 129.859 100.454C125.699 101.911 121.589 103.474 117.504 105.087C111.613 107.424 105.776 109.865 99.9935 112.41C94.2147 114.969 88.4608 117.578 82.763 120.306C79.9047 121.645 77.0838 123.058 74.238 124.428C72.7576 125.064 71.4162 125.985 70.29 127.137C69.6805 127.775 69.1438 128.479 68.6896 129.235C68.1355 130.13 67.7158 131.102 67.4442 132.119C66.9756 133.951 67.1782 135.891 68.0154 137.587C68.8526 139.283 70.2691 140.623 72.0087 141.366C72.9747 141.771 73.9939 142.035 75.0351 142.151C75.9145 142.25 76.8023 142.25 77.6816 142.151C79.2797 141.957 80.8241 141.451 82.2274 140.662C85.0483 139.236 87.8879 137.86 90.6902 136.397C96.2946 133.538 101.899 130.556 107.435 127.529C112.971 124.503 118.513 121.333 123.918 118.083C127.655 115.822 131.428 113.512 135.127 111.096C142.23 122.309 153.374 130.359 166.251 133.579C179.128 136.799 192.75 134.942 204.295 128.392C215.84 121.842 224.422 111.101 228.263 98.3958C232.105 85.6904 230.911 71.9942 224.929 60.1451H224.916ZM196.608 119.633C189.371 123.205 181.238 124.551 173.236 123.501C165.234 122.451 157.723 119.051 151.654 113.733C145.584 108.414 141.227 101.415 139.135 93.6208C137.043 85.8264 137.308 77.5866 139.899 69.9433C142.489 62.3 147.288 55.5964 153.688 50.6802C160.088 45.764 167.802 42.8559 175.855 42.3237C183.908 41.7915 191.938 43.6591 198.929 47.6903C205.921 51.7215 211.56 57.7352 215.134 64.9712C217.507 69.7766 218.91 75.0026 219.264 80.3505C219.617 85.6984 218.914 91.0636 217.193 96.1396C215.473 101.216 212.77 105.903 209.238 109.934C205.705 113.965 201.414 117.261 196.608 119.633Z" fill="black"/>
<path d="M99.209 70.6126C99.209 70.98 99.402 71.2789 99.6449 71.2789C99.8877 71.2789 100.081 70.98 100.081 70.6126C100.081 70.2452 99.8877 69.9463 99.6449 69.9463C99.402 69.9463 99.209 70.2701 99.209 70.6126Z" fill="#263238"/>
<path d="M99.3848 71.2793C99.8255 72.4071 100.418 73.4693 101.147 74.4365C100.895 74.6167 100.607 74.7396 100.302 74.7966C99.998 74.8536 99.6848 74.8433 99.3848 74.7665V71.2793Z" fill="#DE5753"/>
<path d="M97.9208 68.5646C97.8861 68.5647 97.8518 68.5568 97.8205 68.5417C97.7892 68.5266 97.7618 68.5047 97.7402 68.4775C97.7078 68.4299 97.6948 68.3718 97.7041 68.3149C97.7134 68.2581 97.7441 68.2071 97.79 68.1723C98.0643 67.9644 98.3847 67.8257 98.7241 67.7683C99.0635 67.7108 99.4117 67.7362 99.7391 67.8423C99.7685 67.8503 99.7959 67.8644 99.8196 67.8837C99.8432 67.9029 99.8625 67.9269 99.8763 67.9541C99.89 67.9813 99.898 68.0111 99.8995 68.0415C99.9011 68.072 99.8962 68.1024 99.8853 68.1308C99.8743 68.1593 99.8575 68.1851 99.836 68.2067C99.8144 68.2282 99.7886 68.245 99.7602 68.256C99.7317 68.2669 99.7013 68.2718 99.6709 68.2703C99.6404 68.2687 99.6106 68.2608 99.5835 68.2471C99.3234 68.1673 99.0479 68.1511 98.7803 68.1999C98.5126 68.2486 98.2606 68.3609 98.0453 68.5273C98.0084 68.5518 97.9651 68.5648 97.9208 68.5646Z" fill="#263238"/>
<path d="M86.6314 73.3838C87.2541 76.7278 87.9391 82.8615 85.5977 85.0971C85.5977 85.0971 86.5131 88.4909 92.734 88.4909C99.5839 88.4909 95.997 85.0971 95.997 85.0971C92.2607 84.2004 92.3666 81.4355 93.0142 78.8325L86.6314 73.3838Z" fill="#E4897B"/>
<path d="M82.8013 86.8595C83.5423 85.7075 82.2969 82.9115 82.2969 82.9115C82.2969 82.9115 93.3065 80.1404 97.8087 84.3936C98.7428 85.2716 97.7091 86.5669 97.7091 86.5669L82.8013 86.8595Z" fill="#FFC000"/>
<path opacity="0.1" d="M82.8013 86.8595C83.5423 85.7075 82.2969 82.9115 82.2969 82.9115C82.2969 82.9115 93.3065 80.1404 97.8087 84.3936C98.7428 85.2716 97.7091 86.5669 97.7091 86.5669L82.8013 86.8595Z" fill="black"/>
<path d="M64.5861 213.912C64.007 213.912 63.0792 212.947 62.8052 212.586C62.7934 212.568 62.7871 212.547 62.7871 212.526C62.7871 212.505 62.7934 212.485 62.8052 212.467C62.8152 212.45 62.8298 212.435 62.8473 212.426C62.8648 212.416 62.8847 212.411 62.9048 212.411C62.9733 212.411 64.499 212.548 64.9162 213.09C64.9616 213.147 64.994 213.214 65.0112 213.284C65.0284 213.355 65.0299 213.429 65.0158 213.501C65.0104 213.594 64.9763 213.682 64.9183 213.755C64.8603 213.827 64.7813 213.88 64.692 213.906L64.5861 213.912ZM63.1414 212.666C63.596 213.19 64.3246 213.781 64.636 213.706C64.636 213.706 64.7605 213.675 64.7979 213.476C64.8061 213.434 64.8047 213.392 64.7939 213.351C64.7831 213.31 64.7632 213.272 64.7356 213.239C64.2743 212.89 63.7192 212.686 63.1414 212.654V212.666Z" fill="#FFC000"/>
<path d="M63.2102 212.654C63.0984 212.666 62.9857 212.666 62.8739 212.654C62.8543 212.653 62.8355 212.645 62.8199 212.633C62.8044 212.621 62.7929 212.605 62.7868 212.586C62.778 212.568 62.7734 212.549 62.7734 212.53C62.7734 212.51 62.778 212.491 62.7868 212.474C62.8303 212.436 63.7457 211.484 64.437 211.484C64.5197 211.482 64.6018 211.497 64.678 211.53C64.7543 211.562 64.8228 211.61 64.8791 211.67C64.9411 211.722 64.9835 211.794 64.9994 211.873C65.0152 211.952 65.0035 212.035 64.9663 212.106C64.7857 212.455 63.8329 212.654 63.2102 212.654ZM63.1292 212.436C63.752 212.436 64.6549 212.243 64.8044 211.969C64.8044 211.969 64.8479 211.888 64.7483 211.789C64.7121 211.749 64.6677 211.718 64.6182 211.698C64.5687 211.677 64.5153 211.668 64.4619 211.67C63.9514 211.788 63.4874 212.054 63.1292 212.436Z" fill="#FFC000"/>
<path d="M105.679 228.048C105.207 228.045 104.736 228.001 104.272 227.917C104.249 227.913 104.228 227.9 104.213 227.882C104.198 227.864 104.19 227.841 104.191 227.817C104.187 227.796 104.19 227.774 104.199 227.754C104.208 227.734 104.222 227.717 104.241 227.705C104.309 227.668 105.903 226.753 106.669 226.964C106.74 226.98 106.807 227.011 106.866 227.054C106.925 227.096 106.975 227.151 107.012 227.213C107.061 227.283 107.087 227.365 107.087 227.45C107.087 227.535 107.061 227.617 107.012 227.687C106.831 227.967 106.265 228.048 105.679 228.048ZM104.627 227.755C105.474 227.88 106.632 227.874 106.844 227.575C106.875 227.537 106.9 227.469 106.844 227.338C106.796 227.26 106.72 227.205 106.632 227.182C106.146 227.058 105.181 227.469 104.627 227.755Z" fill="#FFC000"/>
<path d="M104.298 227.923C104.277 227.929 104.256 227.929 104.235 227.923C104.218 227.912 104.205 227.896 104.197 227.877C104.189 227.858 104.187 227.837 104.192 227.818C104.234 227.169 104.483 226.552 104.902 226.055C104.986 225.982 105.086 225.928 105.193 225.897C105.301 225.866 105.414 225.858 105.524 225.875C105.823 225.875 105.911 226.055 105.929 226.174C106.01 226.69 104.92 227.681 104.366 227.93L104.298 227.923ZM105.412 226.055C105.275 226.054 105.143 226.103 105.039 226.192C104.687 226.586 104.469 227.081 104.416 227.606C104.977 227.263 105.724 226.491 105.661 226.18C105.661 226.18 105.661 226.074 105.45 226.055H105.412Z" fill="#FFC000"/>
<path d="M99.2656 227.811H103.843L104.297 217.219H99.7202L99.2656 227.811Z" fill="#E4897B"/>
<path d="M58.5098 209.628L62.3332 212.131L70.7773 205.001L66.9476 202.491L58.5098 209.628Z" fill="#E4897B"/>
<path d="M62.9612 211.895L58.9883 208.638C58.9181 208.58 58.8301 208.549 58.7392 208.549C58.6484 208.549 58.5603 208.58 58.4901 208.638L55.2146 211.21C55.1355 211.273 55.0716 211.353 55.0277 211.444C54.9837 211.535 54.9609 211.635 54.9609 211.736C54.9609 211.837 54.9837 211.937 55.0277 212.028C55.0716 212.119 55.1355 212.199 55.2146 212.262C56.622 213.377 57.363 213.85 59.1128 215.282C60.1901 216.16 62.8491 218.851 64.3499 220.065C65.8506 221.279 67.2268 219.971 66.7286 219.343C64.4931 216.509 63.6151 214.087 63.3598 212.586C63.3156 212.315 63.1739 212.069 62.9612 211.895Z" fill="#263238"/>
<path d="M103.812 227.282H98.8298C98.739 227.283 98.6509 227.313 98.5797 227.37C98.5086 227.426 98.4585 227.505 98.4375 227.594L97.5346 231.66C97.5119 231.758 97.5119 231.861 97.5347 231.959C97.5574 232.058 97.6023 232.15 97.6659 232.229C97.7295 232.307 97.8102 232.37 97.9018 232.413C97.9934 232.456 98.0935 232.477 98.1947 232.476C99.9943 232.445 102.597 232.339 104.864 232.339C107.51 232.339 109.802 232.482 112.903 232.482C114.771 232.482 115.307 230.583 114.516 230.414C110.942 229.63 108.015 229.549 104.926 227.637C104.595 227.418 104.209 227.295 103.812 227.282Z" fill="#263238"/>
<path d="M76.5807 86.4611C72.614 88.3292 70.3535 100.846 70.3535 100.846L80.0492 104.713C81.4684 101.247 82.6156 97.6768 83.4804 94.0333C84.813 88.267 80.6408 84.5307 76.5807 86.4611Z" fill="#263238"/>
<path d="M81.7229 93.5166C79.3255 95.9452 78.2295 100.703 77.75 103.798L80.0727 104.725C81.4516 101.358 82.5756 97.8926 83.4354 94.3572C83.2299 93.0371 82.7193 92.5078 81.7229 93.5166Z" fill="#203048"/>
<path d="M103.033 86.3734C103.033 86.3734 107.903 91.8782 103.307 125.916H78.8405C78.6723 122.18 81.0324 103.841 77.4082 86.143C80.1121 85.6188 82.8476 85.2734 85.5969 85.1093C89.0603 84.9037 92.5329 84.9037 95.9963 85.1093C98.371 85.3483 100.724 85.7709 103.033 86.3734Z" fill="#263238"/>
<path d="M105.268 99.5876L101.146 92.4824C100.35 95.7976 100.025 99.2082 100.18 102.614C100.292 105.055 102.528 114.097 104.539 115.417C105.073 110.158 105.316 104.873 105.268 99.5876Z" fill="#203048"/>
<path d="M105.841 91.2373C106.464 94.2637 107.087 97.3648 107.753 100.404C108.419 103.443 109.11 106.494 109.914 109.439C110.119 110.168 110.312 110.915 110.536 111.613L110.704 112.148L110.785 112.416V112.385C110.742 112.329 110.692 112.322 110.729 112.385C110.985 112.664 111.313 112.869 111.676 112.976C112.265 113.195 112.871 113.364 113.488 113.481C116.432 113.947 119.413 114.141 122.393 114.06L122.984 117.447C122.15 117.715 121.372 117.908 120.55 118.101C119.728 118.294 118.918 118.456 118.09 118.581C116.376 118.866 114.639 118.983 112.903 118.929C111.938 118.903 110.978 118.778 110.038 118.556C108.844 118.295 107.721 117.774 106.75 117.03C106.116 116.518 105.593 115.883 105.212 115.162C105.112 114.975 105.025 114.763 104.944 114.583L104.832 114.29L104.602 113.668C104.284 112.877 104.023 112.098 103.736 111.32C102.684 108.206 101.806 105.062 101.034 101.923C100.262 98.7846 99.5952 95.6524 99.041 92.4329L105.841 91.2373Z" fill="#E4897B"/>
<path d="M96.9233 89.7117C95.6343 93.8901 100.859 106.351 100.859 106.351L111.264 103.735C111.264 103.735 110.866 97.259 108.493 92.1216C104.919 84.375 98.4676 84.6988 96.9233 89.7117Z" fill="#263238"/>
<path d="M122.307 114.059L127.488 113.929L124.997 119.321C124.997 119.321 122.886 119.602 121.155 116.756L119.33 114.576L121.429 114.159C121.718 114.098 122.011 114.065 122.307 114.059Z" fill="#E4897B"/>
<path d="M130.756 114.931L127.792 119.402L124.996 119.321L127.487 113.929L130.756 114.931Z" fill="#E4897B"/>
<path d="M104.298 217.219L104.061 222.68H99.4844L99.721 217.219H104.298Z" fill="#CE6F64"/>
<path d="M66.9465 202.491L70.7762 205.001L66.4172 208.675L62.5938 206.171L66.9465 202.491Z" fill="#CE6F64"/>
<path d="M86.9166 69.8225C87.1906 74.3496 87.1221 77.0211 89.4075 79.3438C92.8449 82.8497 98.4431 80.7761 99.5266 76.2302C100.504 72.1577 99.894 65.4324 95.4603 63.6265C94.482 63.2316 93.4194 63.0918 92.3722 63.22C91.3251 63.3483 90.3277 63.7406 89.4736 64.3599C88.6196 64.9793 87.9369 65.8055 87.4897 66.761C87.0424 67.7165 86.8452 68.7699 86.9166 69.8225Z" fill="#E4897B"/>
<path d="M81.5861 69.0251C82.7132 73.1537 85.366 77.9112 88.7972 78.2164C93.0565 78.59 94.9807 74.1874 95.5412 69.6416C98.0943 67.8918 96.7555 65.9676 99.3148 65.7247C102.603 65.4133 101.55 59.3979 97.2225 58.4327C97.2225 58.4327 98.6734 61.1415 95.6284 59.7715C92.7324 58.3953 89.5152 57.8375 86.325 58.1587C86.325 58.1587 90.2107 60.1016 86.4122 60.9672C82.6136 61.8327 81.4803 64.1741 83.2301 65.5877C83.2301 65.5939 80.8451 66.3101 81.5861 69.0251Z" fill="#263238"/>
<path d="M92.9442 70.5755C93.0278 71.7009 93.481 72.767 94.2332 73.6082C95.2295 74.7104 96.2695 74.0254 96.4438 72.6865C96.6057 71.4847 96.2757 69.4609 95.0552 68.8506C93.8347 68.2404 92.8632 69.218 92.9442 70.5755Z" fill="#E4897B"/>
<path d="M94.6261 125.916C94.6261 125.916 99.0848 158.204 95.5727 171.144C90.0056 191.632 68.7212 208.924 68.7212 208.924L61.5039 204.192C61.5039 204.192 79.6312 189.589 81.848 172.433C83.8407 157.033 78.8403 138.408 78.8403 125.91L94.6261 125.916Z" fill="#FFC000"/>
<path opacity="0.1" d="M94.6261 125.916C94.6261 125.916 99.0848 158.204 95.5727 171.144C90.0056 191.632 68.7212 208.924 68.7212 208.924L61.5039 204.192C61.5039 204.192 79.6312 189.589 81.848 172.433C83.8407 157.033 78.8403 138.408 78.8403 125.91L94.6261 125.916Z" fill="black"/>
<path d="M96.4689 144.374C95.2819 143.014 93.9752 141.764 92.5645 140.638C93.3242 151.118 93.9469 166.642 93.2557 177.671C94.185 175.556 94.9592 173.377 95.5722 171.151C97.2846 164.83 97.1041 153.914 96.4689 144.374Z" fill="#FFC000"/>
<path opacity="0.3" d="M96.4689 144.374C95.2819 143.014 93.9752 141.764 92.5645 140.638C93.3242 151.118 93.9469 166.642 93.2557 177.671C94.185 175.556 94.9592 173.377 95.5722 171.151C97.2846 164.83 97.1041 153.914 96.4689 144.374Z" fill="black"/>
<path d="M71.6288 207.312C71.6599 207.312 68.8328 209.18 68.8328 209.18L60.9492 204.011L63.4401 201.95L71.6288 207.312Z" fill="#FFC000"/>
<path opacity="0.3" d="M71.6288 207.312C71.6599 207.312 68.8328 209.18 68.8328 209.18L60.9492 204.011L63.4401 201.95L71.6288 207.312Z" fill="black"/>
<path d="M103.307 125.916C103.307 125.916 110.195 155.121 110.68 169.076C111.228 184.719 105.767 221.621 105.767 221.621H98.0143C98.0143 221.621 97.0616 184.433 96.7191 170.185C96.3392 154.648 87.2227 125.916 87.2227 125.916H103.307Z" fill="#FFC000"/>
<path opacity="0.1" d="M103.307 125.916C103.307 125.916 110.195 155.121 110.68 169.076C111.228 184.719 105.767 221.621 105.767 221.621H98.0143C98.0143 221.621 97.0616 184.433 96.7191 170.185C96.3392 154.648 87.2227 125.916 87.2227 125.916H103.307Z" fill="black"/>
<path d="M107.256 218.539C107.293 218.539 106.82 221.752 106.82 221.752H97.392L97.1367 218.882L107.256 218.539Z" fill="#FFC000"/>
<path opacity="0.3" d="M107.256 218.539C107.293 218.539 106.82 221.752 106.82 221.752H97.392L97.1367 218.882L107.256 218.539Z" fill="black"/>
<path d="M222.507 97.8506C223.036 98.3488 223.454 98.7722 223.89 99.2455C224.325 99.7187 224.736 100.18 225.135 100.659C225.945 101.612 226.704 102.614 227.439 103.623C228.907 105.647 230.212 107.783 231.343 110.012L231.574 110.467C231.686 110.687 231.78 110.916 231.854 111.152C232.005 111.607 232.097 112.08 232.128 112.559C232.169 113.403 232.052 114.248 231.786 115.05C231.331 116.382 230.655 117.628 229.787 118.736C228.222 120.746 226.376 122.52 224.307 124.005L222.756 122.224C223.485 121.371 224.245 120.455 224.923 119.54C225.614 118.653 226.238 117.716 226.791 116.738C227.308 115.884 227.69 114.955 227.925 113.985C228.005 113.638 228.02 113.279 227.968 112.927C227.946 112.808 227.908 112.693 227.856 112.584C227.833 112.536 227.806 112.49 227.775 112.447L227.576 112.111C226.375 110.153 225.072 108.259 223.672 106.438C222.98 105.522 222.239 104.644 221.492 103.779C221.125 103.343 220.745 102.919 220.365 102.496C219.985 102.073 219.574 101.649 219.244 101.319L222.507 97.8506Z" fill="#E4897B"/>
<path d="M223.353 121.7L218.701 120.94L221.136 125.013C221.136 125.013 224.131 124.907 224.984 123.145L223.353 121.7Z" fill="#E4897B"/>
<path d="M215.264 122.821L217.481 126.128L221.136 125.013L218.701 120.94L215.264 122.821Z" fill="#E4897B"/>
<path d="M223.128 227.992C222.812 228.019 222.497 227.933 222.238 227.749C222.16 227.676 222.102 227.583 222.071 227.48C222.039 227.378 222.034 227.269 222.057 227.164C222.062 227.097 222.084 227.033 222.123 226.978C222.161 226.923 222.214 226.88 222.275 226.853C222.817 226.61 224.237 227.519 224.399 227.625C224.417 227.636 224.431 227.653 224.439 227.673C224.447 227.694 224.448 227.716 224.442 227.737C224.44 227.758 224.431 227.778 224.416 227.794C224.402 227.81 224.382 227.82 224.361 227.824C223.958 227.926 223.544 227.983 223.128 227.992ZM222.506 227.027C222.46 227.02 222.414 227.02 222.369 227.027C222.341 227.04 222.318 227.06 222.302 227.085C222.285 227.111 222.276 227.14 222.275 227.17C222.259 227.24 222.26 227.312 222.28 227.381C222.3 227.45 222.337 227.512 222.387 227.562C222.624 227.774 223.234 227.805 224.05 227.643C223.583 227.335 223.057 227.125 222.506 227.027Z" fill="#FFC000"/>
<path d="M224.374 227.817H224.318C223.875 227.562 223.022 226.572 223.128 226.03C223.148 225.945 223.196 225.868 223.263 225.812C223.33 225.756 223.414 225.723 223.502 225.719C223.586 225.707 223.672 225.714 223.753 225.74C223.833 225.765 223.907 225.809 223.969 225.868C224.479 226.316 224.486 227.661 224.486 227.736C224.484 227.755 224.479 227.773 224.469 227.79C224.459 227.806 224.446 227.82 224.43 227.83L224.374 227.817ZM223.577 225.949H223.527C223.39 225.949 223.359 226.024 223.346 226.08C223.284 226.397 223.813 227.157 224.255 227.512C224.266 226.99 224.116 226.477 223.826 226.042C223.788 226.008 223.744 225.981 223.696 225.965C223.647 225.949 223.596 225.944 223.545 225.949H223.577Z" fill="#FFC000"/>
<path d="M201.907 227.991C201.509 228.029 201.111 227.928 200.78 227.705C200.705 227.639 200.647 227.555 200.612 227.462C200.576 227.369 200.563 227.269 200.574 227.169C200.578 227.109 200.598 227.05 200.63 226.999C200.663 226.948 200.708 226.906 200.761 226.877C201.34 226.553 203.196 227.499 203.408 227.618C203.427 227.63 203.443 227.648 203.452 227.669C203.462 227.69 203.466 227.713 203.464 227.736C203.46 227.758 203.45 227.778 203.434 227.794C203.418 227.809 203.398 227.82 203.376 227.823C202.893 227.926 202.401 227.982 201.907 227.991ZM201.079 227.026C201.007 227.021 200.936 227.036 200.873 227.07C200.851 227.08 200.832 227.097 200.819 227.118C200.805 227.139 200.798 227.163 200.798 227.188C200.789 227.253 200.795 227.319 200.817 227.381C200.839 227.443 200.875 227.498 200.923 227.543C201.209 227.798 201.975 227.842 203.009 227.668C202.406 227.347 201.754 227.13 201.079 227.026Z" fill="#FFC000"/>
<path d="M203.358 227.817H203.309C202.754 227.568 201.652 226.572 201.739 226.03C201.739 225.905 201.851 225.75 202.156 225.719C202.268 225.707 202.381 225.718 202.488 225.751C202.595 225.784 202.694 225.839 202.779 225.912C203.365 226.397 203.477 227.655 203.477 227.711C203.479 227.73 203.476 227.75 203.469 227.767C203.461 227.785 203.449 227.8 203.433 227.811C203.409 227.821 203.383 227.823 203.358 227.817ZM202.244 225.949H202.175C201.976 225.949 201.963 226.049 201.957 226.074C201.907 226.391 202.655 227.182 203.203 227.524C203.149 226.992 202.931 226.49 202.58 226.086C202.485 226.005 202.368 225.957 202.244 225.949Z" fill="#FFC000"/>
<path d="M210.718 83.5342C210.537 86.3489 210.052 92.0654 212.212 93.6471C212.212 93.6471 211.82 96.5302 206.72 97.2028C201.116 97.9314 203.675 94.768 203.675 94.768C206.645 93.6346 206.265 91.3742 205.456 89.3068L210.718 83.5342Z" fill="#E4897B"/>
<path d="M199.117 78.5591C199.086 78.5591 199.055 78.5525 199.027 78.5396C198.999 78.5267 198.975 78.5078 198.955 78.4844C198.777 78.2731 198.551 78.1067 198.297 77.9985C198.043 77.8904 197.767 77.8435 197.491 77.8616C197.462 77.8669 197.432 77.8663 197.403 77.8596C197.375 77.853 197.347 77.8406 197.323 77.8231C197.3 77.8056 197.28 77.7835 197.264 77.758C197.249 77.7325 197.24 77.7042 197.236 77.6748C197.229 77.6163 197.245 77.5573 197.281 77.5106C197.317 77.464 197.371 77.4335 197.429 77.4257C197.781 77.396 198.134 77.4519 198.46 77.5885C198.785 77.7251 199.072 77.9385 199.297 78.2104C199.324 78.2428 199.341 78.2823 199.347 78.3241C199.353 78.3659 199.346 78.4085 199.329 78.4469C199.311 78.4853 199.283 78.5179 199.248 78.5411C199.212 78.5642 199.171 78.5769 199.129 78.5778L199.117 78.5591Z" fill="#263238"/>
<path d="M198.146 81.3174C197.925 82.2105 197.583 83.0695 197.131 83.8705C197.339 83.9824 197.569 84.0471 197.804 84.06C198.04 84.0729 198.276 84.0337 198.495 83.9452L198.146 81.3174Z" fill="#DE5753"/>
<path d="M198.395 80.6328C198.445 81.0064 198.289 81.3302 198.047 81.3676C197.804 81.405 197.561 81.1185 197.517 80.7449C197.474 80.3712 197.623 80.0474 197.866 80.0163C198.109 79.9852 198.352 80.2342 198.395 80.6328Z" fill="#263238"/>
<path d="M197.977 80.0221L197.049 79.8789C197.049 79.8789 197.597 80.5203 197.977 80.0221Z" fill="#263238"/>
<path d="M208.49 227.718H203.819L203.508 216.914H208.178L208.49 227.718Z" fill="#E4897B"/>
<path d="M229.693 227.718H225.022L223.521 216.914H228.192L229.693 227.718Z" fill="#E4897B"/>
<path d="M224.736 227.194H229.979C230.069 227.194 230.155 227.225 230.223 227.284C230.291 227.342 230.335 227.423 230.347 227.512L230.969 231.665C230.981 231.77 230.97 231.876 230.938 231.976C230.905 232.077 230.852 232.169 230.781 232.247C230.711 232.325 230.625 232.388 230.528 232.43C230.432 232.473 230.328 232.494 230.222 232.494C228.398 232.463 227.513 232.357 225.209 232.357C223.79 232.357 221.716 232.5 219.761 232.5C217.805 232.5 217.699 230.563 218.515 230.389C222.171 229.604 222.75 228.521 223.976 227.481C224.191 227.303 224.458 227.202 224.736 227.194Z" fill="#263238"/>
<path d="M203.662 227.194H208.899C208.989 227.193 209.077 227.225 209.145 227.283C209.214 227.342 209.259 227.423 209.273 227.512L209.896 231.665C209.907 231.77 209.896 231.876 209.864 231.976C209.831 232.077 209.778 232.169 209.708 232.247C209.637 232.325 209.551 232.388 209.454 232.43C209.358 232.473 209.254 232.494 209.148 232.494C207.324 232.463 206.44 232.357 204.135 232.357C202.716 232.357 199.776 232.5 197.821 232.5C195.866 232.5 195.76 230.563 196.576 230.389C200.231 229.604 201.67 228.521 202.903 227.481C203.117 227.303 203.384 227.202 203.662 227.194Z" fill="#263238"/>
<path d="M203.508 216.914L203.67 222.487H208.34L208.178 216.914H203.508Z" fill="#CE6F64"/>
<path d="M228.192 216.914H223.521L224.3 222.487H228.964L228.192 216.914Z" fill="#CE6F64"/>
<path d="M210.78 77.7055C211.098 82.326 211.328 84.2751 209.323 86.9341C206.303 90.9257 200.562 90.3092 198.868 85.8755C197.342 81.8839 197.081 75.0029 201.328 72.5867C202.262 72.0513 203.318 71.7634 204.394 71.7505C205.471 71.7375 206.533 71.9998 207.48 72.5126C208.427 73.0253 209.227 73.7715 209.805 74.6803C210.382 75.5891 210.718 76.6304 210.78 77.7055Z" fill="#E4897B"/>
<path d="M213.47 81.9961C216.061 83.4408 217.985 79.8788 217.985 79.8788C217.985 79.8788 213.339 80.3832 213.757 77.6184C214.305 73.9506 211.677 69.4919 205.089 70.0648C204.721 70.096 204.372 70.1396 204.03 70.1956C203.34 69.8687 202.56 69.7843 201.816 69.9561C201.073 70.1279 200.409 70.5458 199.932 71.1421C198.064 71.2978 195.542 73.5271 197.255 76.4726C197.375 76.1341 197.561 75.823 197.803 75.5572C197.946 77.2821 199.453 80.022 201.334 80.2026C201.738 82.5627 200.169 85.2964 200.711 87.7624C201.514 91.3181 207.511 92.1214 207.511 92.1214C207.304 91.6774 207.227 91.1839 207.289 90.698C207.35 90.212 207.548 89.7535 207.86 89.3752C211.932 91.2434 214.616 89.4188 214.616 89.4188C211.839 88.3851 212.679 86.5419 212.679 86.5419C213.638 86.9677 214.725 87.0051 215.711 86.6462C216.697 86.2874 217.505 85.5602 217.966 84.6177C217.044 84.6615 216.128 84.4372 215.33 83.972C214.533 83.5068 213.886 82.8205 213.47 81.9961Z" fill="#263238"/>
<path d="M202.96 80.9125C202.971 81.356 202.894 81.7972 202.734 82.2108C202.573 82.6244 202.333 83.0022 202.026 83.3224C201.204 84.1756 200.195 83.5778 199.921 82.488C199.678 81.5041 199.815 79.8788 200.886 79.4305C201.122 79.3378 201.377 79.3056 201.629 79.3367C201.88 79.3678 202.119 79.4612 202.326 79.6085C202.532 79.7557 202.698 79.9522 202.808 80.1799C202.919 80.4077 202.971 80.6595 202.96 80.9125Z" fill="#E4897B"/>
<path d="M206.838 123.961C206.838 123.961 208.021 154.698 210.836 172.744C213.102 187.328 223.172 221.403 223.172 221.403H229.536C229.536 221.403 224.286 188.493 223.134 174.077C220.22 137.592 227.786 129.758 220.644 122.161L206.838 123.961Z" fill="#263238"/>
<path d="M212.156 133.682C212.156 133.682 209.279 133.184 207.598 138.663C208.22 149.044 209.285 162.819 210.836 172.745C211.178 174.955 211.701 177.621 212.343 180.541C211.128 163.005 212.156 133.682 212.156 133.682Z" fill="#161F33"/>
<path d="M201.875 124.608C201.875 124.608 196.632 158.615 196.937 172.844C197.254 187.646 202.678 221.416 202.678 221.416H208.986C208.986 221.416 207.99 188.524 208.544 173.99C209.167 158.142 215.637 122.821 215.637 122.821L201.875 124.608Z" fill="#263238"/>
<path d="M230.459 221.702H221.996L221.336 218.862L230.396 218.925L230.459 221.702Z" fill="#FFC000"/>
<path opacity="0.2" d="M230.459 221.702H221.996L221.336 218.862L230.396 218.925L230.459 221.702Z" fill="black"/>
<path d="M220.327 93.6529C222.762 93.8895 226.461 100.808 226.461 100.808L220.315 105.522C220.315 105.522 215.227 101.057 215.831 98.5475C216.46 95.9383 217.992 93.435 220.327 93.6529Z" fill="#FFC000"/>
<path opacity="0.1" d="M220.327 93.6529C222.762 93.8895 226.461 100.808 226.461 100.808L220.315 105.522C220.315 105.522 215.227 101.057 215.831 98.5475C216.46 95.9383 217.992 93.435 220.327 93.6529Z" fill="black"/>
<path d="M218.489 96.6303C217.868 96.4631 217.226 96.3917 216.583 96.4186C216.257 97.0994 216.004 97.8134 215.83 98.5483C215.207 101.039 220.314 105.523 220.314 105.523L220.768 105.174L218.489 96.6303Z" fill="#FFC000"/>
<path opacity="0.3" d="M218.489 96.6303C217.868 96.4631 217.226 96.3917 216.583 96.4186C216.257 97.0994 216.004 97.8134 215.83 98.5483C215.207 101.039 220.314 105.523 220.314 105.523L220.768 105.174L218.489 96.6303Z" fill="black"/>
<path d="M199.79 103.274C198.015 107.764 196.147 112.329 194.658 116.831C194.559 117.117 194.478 117.391 194.391 117.672L194.179 118.363C194.121 118.566 194.121 118.782 194.179 118.986C194.53 119.764 195.088 120.432 195.792 120.916C197.654 122.252 199.682 123.338 201.826 124.148L201.265 126.439C198.628 126.092 196.078 125.26 193.743 123.986C192.306 123.218 191.136 122.033 190.387 120.586C189.957 119.661 189.807 118.631 189.957 117.622C189.971 117.498 189.992 117.376 190.019 117.254L190.082 116.993L190.187 116.52C190.262 116.202 190.337 115.897 190.418 115.585C191.04 113.095 191.838 110.728 192.678 108.381C193.519 106.033 194.397 103.717 195.387 101.406L199.79 103.274Z" fill="#E4897B"/>
<path d="M196.009 96.9726C196.009 96.9726 193.904 98.0374 201.875 124.609L220.669 122.155C219.349 114.546 218.726 109.832 220.326 93.6535C217.631 93.4605 214.926 93.4605 212.231 93.6535C209.362 93.8204 206.509 94.195 203.694 94.7744C200.088 95.5777 196.009 96.9726 196.009 96.9726Z" fill="#FFC000"/>
<path opacity="0.1" d="M196.009 96.9726C196.009 96.9726 193.904 98.0374 201.875 124.609L220.669 122.155C219.349 114.546 218.726 109.832 220.326 93.6535C217.631 93.4605 214.926 93.4605 212.231 93.6535C209.362 93.8204 206.509 94.195 203.694 94.7744C200.088 95.5777 196.009 96.9726 196.009 96.9726Z" fill="black"/>
<path d="M220.807 121.016L221.884 122.579C221.965 122.703 221.828 122.853 221.616 122.884L201.907 125.462C201.739 125.462 201.583 125.418 201.558 125.313L201.172 123.65C201.141 123.538 201.278 123.419 201.465 123.395L220.495 120.904C220.552 120.895 220.611 120.9 220.665 120.92C220.72 120.939 220.768 120.972 220.807 121.016Z" fill="#FFC000"/>
<path opacity="0.2" d="M220.807 121.016L221.884 122.579C221.965 122.703 221.828 122.853 221.616 122.884L201.907 125.462C201.739 125.462 201.583 125.418 201.558 125.313L201.172 123.65C201.141 123.538 201.278 123.419 201.465 123.395L220.495 120.904C220.552 120.895 220.611 120.9 220.665 120.92C220.72 120.939 220.768 120.972 220.807 121.016Z" fill="black"/>
<path d="M218.527 123.475L219.038 123.406C219.137 123.406 219.206 123.331 219.193 123.269L218.67 121.115C218.65 121.078 218.618 121.049 218.58 121.033C218.541 121.017 218.498 121.015 218.458 121.027L217.948 121.09C217.842 121.09 217.773 121.164 217.792 121.233L218.315 123.381C218.328 123.45 218.427 123.487 218.527 123.475Z" fill="#263238"/>
<path d="M206.173 125.069L206.684 125C206.783 125 206.858 124.926 206.84 124.863L206.316 122.709C206.296 122.672 206.264 122.644 206.226 122.627C206.188 122.61 206.145 122.606 206.105 122.615L205.594 122.684C205.494 122.684 205.42 122.759 205.438 122.821L205.962 124.975C205.974 125.069 206.074 125.106 206.173 125.069Z" fill="#263238"/>
<path d="M196.889 105.989C197.406 108.393 198.134 111.438 199.199 115.293L199.429 105.522L196.889 105.989Z" fill="#FFC000"/>
<path opacity="0.3" d="M196.889 105.989C197.406 108.393 198.134 111.438 199.199 115.293L199.429 105.522L196.889 105.989Z" fill="black"/>
<path d="M196.009 96.9726C193.674 97.913 191.65 105.902 191.65 105.902L199.683 109.813C199.683 109.813 203.563 100.043 201.826 98.1371C200.088 96.2316 198.7 95.8954 196.009 96.9726Z" fill="#FFC000"/>
<path opacity="0.1" d="M196.009 96.9726C193.674 97.913 191.65 105.902 191.65 105.902L199.683 109.813C199.683 109.813 203.563 100.043 201.826 98.1371C200.088 96.2316 198.7 95.8954 196.009 96.9726Z" fill="black"/>
<path d="M210.064 221.702H201.601L200.941 218.862L210.363 218.925L210.064 221.702Z" fill="#FFC000"/>
<path opacity="0.2" d="M210.064 221.702H201.601L200.941 218.862L210.363 218.925L210.064 221.702Z" fill="black"/>
<path d="M201.956 123.376L201.277 123.096C201.11 123.028 200.928 123.005 200.75 123.03C200.572 123.056 200.403 123.127 200.261 123.239C200.12 123.35 200.01 123.497 199.943 123.664C199.877 123.832 199.856 124.014 199.882 124.192L200.374 127.436C200.398 127.598 200.457 127.754 200.548 127.89C200.639 128.027 200.759 128.142 200.9 128.226C201.04 128.311 201.198 128.363 201.361 128.379C201.524 128.396 201.689 128.376 201.844 128.32C202.091 128.231 202.322 128.102 202.529 127.94C202.754 127.754 202.932 127.517 203.049 127.248C203.166 126.98 203.218 126.688 203.201 126.396L203.133 125.051C203.121 124.688 203.003 124.336 202.794 124.038C202.585 123.74 202.294 123.51 201.956 123.376Z" fill="#E4897B"/>
</svg>
