<svg width="227" height="170" viewBox="0 0 227 170" fill="none" xmlns="http://www.w3.org/2000/svg">
<path d="M227 149.068H0V149.182H227V149.068Z" fill="#EBEBEB"/>
<path d="M204.253 156.373H189.217V156.487H204.253V156.373Z" fill="#EBEBEB"/>
<path d="M150.373 157.608H146.428V157.722H150.373V157.608Z" fill="#EBEBEB"/>
<path d="M188.763 152.16H180.051V152.274H188.763V152.16Z" fill="#EBEBEB"/>
<path d="M43.4247 152.923H23.8164V153.036H43.4247V152.923Z" fill="#EBEBEB"/>
<path d="M50.3426 152.923H47.4688V153.036H50.3426V152.923Z" fill="#EBEBEB"/>
<path d="M102.218 154.839H59.6875V154.952H102.218V154.839Z" fill="#EBEBEB"/>
<path d="M107.598 128.82H19.9355C19.2487 128.819 18.5905 128.545 18.1053 128.059C17.6202 127.573 17.3477 126.914 17.3477 126.228V2.99835C17.3536 2.31555 17.6288 1.66267 18.1133 1.18154C18.5978 0.700411 19.2526 0.429881 19.9355 0.428711H107.598C108.286 0.428711 108.945 0.701832 109.431 1.18799C109.918 1.67415 110.191 2.33352 110.191 3.02105V126.228C110.191 126.915 109.918 127.575 109.431 128.061C108.945 128.547 108.286 128.82 107.598 128.82ZM19.9355 0.519511C19.2788 0.520714 18.6495 0.782407 18.1856 1.24715C17.7217 1.71189 17.4612 2.34171 17.4612 2.99835V126.228C17.4612 126.884 17.7217 127.514 18.1856 127.979C18.6495 128.444 19.2788 128.705 19.9355 128.707H107.598C108.255 128.705 108.885 128.444 109.35 127.979C109.815 127.515 110.076 126.885 110.077 126.228V2.99835C110.076 2.34129 109.815 1.71149 109.35 1.24687C108.885 0.782259 108.255 0.520712 107.598 0.519511H19.9355Z" fill="#EBEBEB"/>
<path d="M205.801 128.82H118.133C117.446 128.819 116.788 128.545 116.302 128.059C115.816 127.574 115.542 126.915 115.541 126.228V2.99835C115.548 2.31513 115.824 1.66227 116.31 1.18126C116.795 0.700253 117.45 0.429868 118.133 0.428711H205.801C206.483 0.431074 207.137 0.702132 207.62 1.18314C208.104 1.66414 208.378 2.31633 208.384 2.99835V126.228C208.384 126.914 208.112 127.572 207.628 128.058C207.144 128.543 206.487 128.818 205.801 128.82ZM118.133 0.519511C117.476 0.520712 116.846 0.782259 116.382 1.24687C115.917 1.71149 115.656 2.34129 115.655 2.99835V126.228C115.656 126.885 115.917 127.515 116.382 127.979C116.846 128.444 117.476 128.705 118.133 128.707H205.801C206.458 128.705 207.088 128.444 207.552 127.979C208.017 127.515 208.279 126.885 208.28 126.228V2.99835C208.279 2.34129 208.017 1.71149 207.552 1.24687C207.088 0.782259 206.458 0.520712 205.801 0.519511H118.133Z" fill="#EBEBEB"/>
<path d="M132.499 13.876H91.2305V65.3324H132.499V13.876Z" fill="#F5F5F5"/>
<path d="M98.7886 20.5908C103.987 16.868 104 14.8249 107.723 18.9972C111.446 23.1695 114.038 28.218 120.794 25.5848C127.549 22.9516 131.313 29.7661 126.987 36.0268C122.66 42.2874 124.263 50.8681 126.987 54.9677C129.711 59.0673 128.448 64.5925 124.081 61.5007C119.713 58.409 113.802 58.4135 109.576 60.5927C105.349 62.7719 100.405 68.1609 100.782 58.7404C101.158 49.3199 96.3142 52.2709 95.0657 47.5084C93.8172 42.746 99.8418 45.7651 98.7886 35.3322C97.7353 24.8992 94.1804 23.8959 98.7886 20.5908Z" fill="#E0E0E0"/>
<path d="M124.213 18.9975C117.893 16.1963 115.215 14.8161 112.255 21.0587C109.295 27.3012 103.329 35.6094 99.0251 33.3167C94.7212 31.024 96.0242 41.4887 104.292 38.8646C112.559 36.2404 114.552 37.5661 117.458 43.8586C120.363 50.151 119.678 53.665 123.187 51.3677C126.696 49.0705 121.852 41.9972 123.841 36.2858C125.829 30.5745 129.888 21.5127 124.213 18.9975Z" fill="#EBEBEB"/>
<path d="M102.069 50.8641C104.616 45.9745 101.161 38.1521 107.826 41.439C114.49 44.726 111.698 57.329 117.428 54.3417C123.157 51.3544 119.275 42.7329 124.165 42.3107C129.055 41.8885 128.523 61.1199 121.391 61.5104C114.259 61.9008 108.102 55.5675 105.955 57.7558C103.808 59.9441 97.8148 64.9472 96.5709 58.7501C95.3269 52.553 100.108 54.6141 102.069 50.8641Z" fill="#EBEBEB"/>
<path d="M143.587 66.499H183.693V12.7045L143.587 12.7045V66.499Z" fill="#F5F5F5"/>
<path d="M149.253 18.1077C150.411 15.9557 179.108 26.7745 178.336 29.1126C177.564 31.4507 155.913 33.3893 154.006 36.5537C152.099 39.7181 176.938 43.9357 176.488 46.0877C176.039 48.2397 152.544 46.3238 152.09 48.4621C151.636 50.6005 176.852 54.3142 175.172 57.5421C173.492 60.7701 152.558 58.4501 150.256 53.0021C147.954 47.5541 160.626 47.9264 160.989 44.3171C161.352 40.7078 147.482 40.0041 149.244 34.2065C151.005 28.4089 169.22 32.5903 167.522 27.5327C165.824 22.4751 147.055 22.18 149.253 18.1077Z" fill="#E6E6E6"/>
<path d="M171.203 18.3976C174.948 17.5168 179.275 24.2133 174.835 22.7151C170.395 21.2169 167.457 19.2738 171.203 18.3976Z" fill="#EBEBEB"/>
<path d="M154.302 26.8651C154.488 24.9992 148.963 25.3306 148.899 26.8651C148.835 28.3996 154.106 28.8128 154.302 26.8651Z" fill="#EBEBEB"/>
<path d="M175.181 38.1106C173.156 34.7737 167.205 36.2174 167.268 37.7565C167.332 39.2956 177.365 41.7018 175.181 38.1106Z" fill="#EBEBEB"/>
<path d="M80.7255 12.7051H40.6191V66.4996H80.7255V12.7051Z" fill="#F5F5F5"/>
<path d="M48.0836 51.981C48.0836 51.981 44.2973 22.6753 46.6354 19.1658C48.9735 15.6564 53.7768 28.3321 54.6394 25.363C55.502 22.3938 56.0468 16.0741 59.1476 16.6234C62.2484 17.1728 61.1589 22.6253 63.556 22.8387C65.9531 23.0521 68.8814 15.8653 69.9165 16.6234C70.9516 17.3816 70.0845 22.4119 72.0412 22.8387C73.998 23.2655 73.4623 17.9582 76.0137 19.6335C78.5652 21.3087 74.5337 51.981 74.5337 51.981C74.5337 51.981 76.0637 27.8373 73.3987 27.8373C70.7337 27.8373 69.6487 35.3328 67.9053 31.8007C66.1619 28.2686 68.0869 25.7216 66.911 25.363C65.7352 25.0043 63.279 31.3285 61.463 30.4523C59.647 29.5761 60.4052 25.9395 59.1522 25.363C57.8991 24.7864 62.6616 33.989 55.7108 31.8779C48.7601 29.7668 49.8815 24.0418 48.9008 26.1575C47.9202 28.2731 48.0836 51.981 48.0836 51.981Z" fill="#EBEBEB"/>
<path d="M68.6541 43.976C65.9301 40.3803 64.2139 47.3446 61.1267 49.6373C58.0395 51.9301 59.1382 41.1748 55.1566 43.6945C51.175 46.2142 54.0125 52.7246 51.3748 54.6904C48.7371 56.6562 49.1774 63.7068 52.1375 60.1021C55.0976 56.4973 55.0431 46.9814 57.2723 53.0469C59.5014 59.1123 60.4775 65.028 62.4388 59.7843C64.4001 54.5406 62.6749 46.5365 65.5759 51.1083C68.477 55.6801 68.5451 61.85 71.4507 59.3348C74.3563 56.8196 69.7164 55.2079 69.8299 52.4249C69.9434 49.6419 69.8027 45.4969 68.6541 43.976Z" fill="#EBEBEB"/>
<path d="M186.849 133.719C186.917 133.265 188.506 122.292 185.323 118.505C185.007 118.106 184.605 117.783 184.149 117.557C183.692 117.332 183.19 117.211 182.681 117.202C176.257 117.053 175.376 122.196 175.367 122.265L176.125 122.383C176.157 122.196 176.92 117.843 182.663 117.97C183.064 117.976 183.458 118.072 183.817 118.25C184.176 118.429 184.49 118.685 184.738 119C187.702 122.523 186.1 133.497 186.1 133.605L186.849 133.719Z" fill="#EBEBEB"/>
<path d="M187.238 133.219L188.001 133.192C188.001 133.092 187.746 123.095 192.677 121.025C197.503 119.005 199.678 123.163 199.768 123.34L200.454 122.995C200.427 122.945 197.88 118.001 192.377 120.321C186.966 122.591 187.224 132.784 187.238 133.219Z" fill="#EBEBEB"/>
<path d="M187.215 134.005C187.215 133.846 187.26 118.028 190.343 113.402C193.303 108.962 198.061 111.05 198.283 111.132L198.601 110.437C198.542 110.41 193.03 107.977 189.707 112.966C186.493 117.783 186.447 133.333 186.447 133.995L187.215 134.005Z" fill="#EBEBEB"/>
<path d="M181.759 117.584C181.759 117.584 184.565 118.619 183.734 121.062C182.903 123.504 174.028 127.522 174.028 127.522C174.028 127.522 170.314 124.112 173.724 118.578C177.133 113.044 181.687 115.836 181.759 117.584Z" fill="#E0E0E0"/>
<path d="M190.485 112.567C190.485 112.567 188.492 112.353 188.669 111.141C188.846 109.929 196.415 106.806 200.886 111.854C200.886 111.854 198.022 116.775 193.881 116.848C189.741 116.921 190.485 112.567 190.485 112.567Z" fill="#E0E0E0"/>
<path d="M192.527 120.675C192.527 120.675 191.165 119.563 192.636 119.023C194.107 118.482 201.398 118.632 201.475 125.833C201.475 125.833 192.994 127.24 191.941 124.493C190.888 121.747 192.527 120.675 192.527 120.675Z" fill="#E0E0E0"/>
<path d="M180.252 148.406H193.409L194.83 134.005H178.836L180.252 148.406Z" fill="#EBEBEB"/>
<path d="M178.138 135.59H195.535V132.412H178.138V135.59Z" fill="#E0E0E0"/>
<path d="M42.2815 135.367C42.2815 135.367 44.8466 129.769 41.9183 124.253C38.99 118.737 38.1365 117.443 40.007 116.308C41.8774 115.173 42.731 120.721 42.731 120.721C42.731 120.721 44.3063 116.907 43.0034 112.916C41.7004 108.926 40.8877 102.424 42.6674 101.725C44.4471 101.026 43.0034 109.834 44.547 112.839C45.3316 110.73 45.8383 108.528 46.0542 106.288C46.2631 103.083 45.9317 97.9661 47.3345 96.6541C48.7374 95.342 49.6363 96.25 48.2425 103.323C47.4171 107.551 46.9614 111.842 46.8805 116.149C46.8805 116.149 49.9223 106.869 51.9653 106.615C54.0083 106.361 54.0083 109.339 52.2559 111.954C50.5034 114.569 47.1393 119.218 46.5854 121.633C46.5854 121.633 49.9269 114.651 52.9414 116.794C55.956 118.936 50.3218 123.15 47.8203 124.675C45.3188 126.2 43.5845 135.721 43.5845 135.721L42.2815 135.367Z" fill="#E0E0E0"/>
<path d="M44.3064 137.66C44.3064 137.66 41.8094 132.026 44.8059 126.555C47.8023 121.084 48.6694 119.795 46.8125 118.637C44.9557 117.48 44.0386 123.009 44.0386 123.009C44.0386 123.009 42.5131 119.173 43.8615 115.201C45.2099 111.228 46.0998 104.759 44.3155 104.018C42.5313 103.278 43.8615 112.122 42.3043 115.101C41.5451 112.982 41.0643 110.774 40.8742 108.531C40.7017 105.321 41.0921 100.209 39.7074 98.8746C38.3227 97.5399 37.4374 98.4206 38.7041 105.53C39.4926 109.767 39.9104 114.065 39.9526 118.374C39.9526 118.374 37.0016 109.053 34.9586 108.749C32.9156 108.445 32.8838 111.473 34.5999 114.088C36.316 116.703 39.6348 121.438 40.1569 123.849C40.1569 123.849 36.9017 116.817 33.8735 118.91C30.8453 121.003 36.4114 125.307 38.8993 126.868C41.3872 128.43 42.9853 138.01 42.9853 138.01L44.3064 137.66Z" fill="#EBEBEB"/>
<path d="M32.7871 133.642H53.4214L51.7507 148.406H34.4578L32.7871 133.642Z" fill="#EBEBEB"/>
<path d="M113.501 169.572C162.116 169.572 201.527 167.271 201.527 164.432C201.527 161.594 162.116 159.293 113.501 159.293C64.8853 159.293 25.4746 161.594 25.4746 164.432C25.4746 167.271 64.8853 169.572 113.501 169.572Z" fill="#F5F5F5"/>
<path d="M109.373 156.868C109.375 157.524 109.22 158.17 108.919 158.752C108.667 159.263 108.267 159.685 107.771 159.965C107.771 159.965 106.068 160.986 105.837 161.086C105.522 161.22 105.184 161.289 104.842 161.29C102.99 161.29 101.492 159.333 101.492 156.918C101.478 155.867 101.787 154.837 102.377 153.967L101.292 147.979L98.5182 132.457L92.5254 99.1875H96.9928L102.972 132.457L105.782 147.979L106.69 153.204L107.625 153.704C108.647 154.153 109.373 155.397 109.373 156.868Z" fill="#263238"/>
<path opacity="0.4" d="M109.373 156.868C109.375 157.524 109.22 158.17 108.919 158.752C108.667 159.263 108.267 159.685 107.771 159.965C107.771 159.965 106.068 160.986 105.837 161.086C105.522 161.22 105.184 161.289 104.842 161.29C102.99 161.29 101.492 159.333 101.492 156.918C101.478 155.867 101.787 154.837 102.377 153.967L101.292 147.979L98.5182 132.457L92.5254 99.1875H96.9928L102.972 132.457L105.782 147.979L106.69 153.204L107.625 153.704C108.647 154.153 109.373 155.397 109.373 156.868Z" fill="white"/>
<path opacity="0.2" d="M109.373 156.868C109.373 158.716 108.224 160.219 106.808 160.219C105.391 160.219 104.238 158.716 104.238 156.868C104.238 155.02 105.387 153.518 106.808 153.518C108.229 153.518 109.373 155.016 109.373 156.868Z" fill="white"/>
<path opacity="0.2" d="M105.76 147.979H101.292L98.5046 132.457L92.5254 99.1875H96.9928L102.972 132.457L105.76 147.979Z" fill="black"/>
<path d="M186.768 109.298H166.76V115.018H186.768V109.298Z" fill="#263238"/>
<path d="M185.017 126.895L191.327 95.2606C191.359 95.1021 191.355 94.9386 191.315 94.7818C191.276 94.625 191.203 94.4788 191.1 94.3538C190.998 94.2287 190.869 94.128 190.723 94.0587C190.577 93.9894 190.417 93.9534 190.256 93.9531H188.335C187.961 93.9532 187.598 94.0831 187.308 94.3206C187.018 94.5582 186.82 94.8887 186.746 95.2561L180.431 126.891C180.4 127.049 180.404 127.213 180.443 127.37C180.482 127.527 180.556 127.673 180.658 127.798C180.76 127.923 180.889 128.024 181.035 128.093C181.181 128.162 181.341 128.198 181.503 128.198H183.418C183.795 128.2 184.16 128.072 184.451 127.834C184.743 127.596 184.943 127.264 185.017 126.895Z" fill="#263238"/>
<path d="M190.066 107.872H186.189C185.022 107.872 184.082 109.688 184.082 111.958C184.082 114.228 185.022 116.044 186.189 116.044H190.066C191.228 116.044 192.172 114.228 192.172 111.958C192.172 109.688 191.228 107.872 190.066 107.872Z" fill="#263238"/>
<path opacity="0.2" d="M191.914 111.968C191.914 113.652 191.246 115.014 190.42 115.014C189.594 115.014 188.922 113.652 188.922 111.968C188.922 110.284 189.594 108.917 190.42 108.917C191.246 108.917 191.914 110.297 191.914 111.968Z" fill="white"/>
<path opacity="0.2" d="M185.017 126.895L191.327 95.2606C191.359 95.1021 191.355 94.9386 191.315 94.7818C191.276 94.625 191.203 94.4788 191.1 94.3538C190.998 94.2287 190.869 94.128 190.723 94.0587C190.577 93.9894 190.417 93.9534 190.256 93.9531H188.335C187.961 93.9532 187.598 94.0831 187.308 94.3206C187.018 94.5582 186.82 94.8887 186.746 95.2561L180.431 126.891C180.4 127.049 180.404 127.213 180.443 127.37C180.482 127.527 180.556 127.673 180.658 127.798C180.76 127.923 180.889 128.024 181.035 128.093C181.181 128.162 181.341 128.198 181.503 128.198H183.418C183.795 128.2 184.16 128.072 184.451 127.834C184.743 127.596 184.943 127.264 185.017 126.895Z" fill="white"/>
<path d="M184.739 153.027V163.124H82.0352V160.314H103.419L106.692 153.027H184.739Z" fill="#263238"/>
<path opacity="0.2" d="M184.736 153.027V163.124H145.592V160.314H166.975L170.249 153.027H184.736Z" fill="white"/>
<path d="M182.014 156.868C182.016 157.524 181.86 158.17 181.56 158.752C181.308 159.263 180.907 159.685 180.411 159.965C180.411 159.965 178.709 160.986 178.477 161.086C178.163 161.22 177.825 161.289 177.483 161.29C175.631 161.29 174.133 159.333 174.133 156.918C174.125 155.865 174.442 154.834 175.041 153.967L173.933 147.979L171.159 132.457L165.166 99.1875H169.633L175.613 132.457L178.423 147.979L179.331 153.204L180.266 153.704C181.288 154.153 182.014 155.397 182.014 156.868Z" fill="#263238"/>
<path opacity="0.4" d="M182.014 156.868C182.016 157.524 181.86 158.17 181.56 158.752C181.308 159.263 180.907 159.685 180.411 159.965C180.411 159.965 178.709 160.986 178.477 161.086C178.163 161.22 177.825 161.289 177.483 161.29C175.631 161.29 174.133 159.333 174.133 156.918C174.125 155.865 174.442 154.834 175.041 153.967L173.933 147.979L171.159 132.457L165.166 99.1875H169.633L175.613 132.457L178.423 147.979L179.331 153.204L180.266 153.704C181.288 154.153 182.014 155.397 182.014 156.868Z" fill="white"/>
<path opacity="0.2" d="M182.014 156.868C182.014 158.716 180.865 160.219 179.449 160.219C178.032 160.219 176.879 158.716 176.879 156.868C176.879 155.02 178.028 153.518 179.449 153.518C180.87 153.518 182.014 155.016 182.014 156.868Z" fill="white"/>
<path opacity="0.2" d="M178.4 147.979H173.933L171.145 132.457L165.166 99.1875H169.633L175.613 132.457L178.4 147.979Z" fill="black"/>
<path d="M171.036 145.291H76.0724C74.0611 145.291 72.7582 143.634 73.1668 141.595L86.0604 77.0003C86.2821 75.988 86.8316 75.0771 87.6238 74.409C88.4159 73.7408 89.4063 73.3526 90.4415 73.3047H185.405C187.416 73.3047 188.719 74.9618 188.315 77.0003L175.421 141.595C175.199 142.608 174.648 143.519 173.855 144.187C173.062 144.855 172.071 145.243 171.036 145.291Z" fill="#263238"/>
<path opacity="0.1" d="M171.036 145.291H76.0724C74.0611 145.291 72.7582 143.634 73.1668 141.595L86.0604 77.0003C86.2821 75.988 86.8316 75.0771 87.6238 74.409C88.4159 73.7408 89.4063 73.3526 90.4415 73.3047H185.405C187.416 73.3047 188.719 74.9618 188.315 77.0003L175.421 141.595C175.199 142.608 174.648 143.519 173.855 144.187C173.062 144.855 172.071 145.243 171.036 145.291Z" fill="white"/>
<path d="M166.187 134.663H85.166L96.2119 79.3291H177.228L166.187 134.663Z" fill="#FFC000"/>
<path opacity="0.2" d="M176.773 117.942H173.182C172.991 117.948 172.801 117.909 172.628 117.828C172.454 117.748 172.302 117.627 172.184 117.477C172.066 117.327 171.984 117.151 171.946 116.964C171.908 116.776 171.915 116.583 171.965 116.398L174.789 102.197C174.882 101.776 175.109 101.397 175.437 101.118C175.765 100.838 176.175 100.674 176.605 100.649H180.237C180.429 100.643 180.619 100.682 180.793 100.763C180.967 100.844 181.12 100.964 181.238 101.115C181.357 101.266 181.439 101.442 181.477 101.63C181.515 101.818 181.509 102.012 181.459 102.197L178.621 116.398C178.528 116.824 178.296 117.207 177.961 117.486C177.627 117.766 177.209 117.926 176.773 117.942Z" fill="white"/>
<path opacity="0.2" d="M180.129 104.881C179.975 105.587 179.592 106.223 179.039 106.689C178.487 107.155 177.796 107.426 177.074 107.46C176.755 107.469 176.438 107.403 176.15 107.268C175.861 107.132 175.607 106.931 175.41 106.681C175.213 106.43 175.077 106.137 175.014 105.824C174.95 105.512 174.961 105.189 175.044 104.881C175.199 104.175 175.583 103.541 176.135 103.075C176.688 102.61 177.378 102.34 178.1 102.307C178.418 102.297 178.735 102.362 179.024 102.497C179.313 102.631 179.566 102.832 179.763 103.082C179.961 103.332 180.097 103.626 180.16 103.938C180.224 104.25 180.213 104.573 180.129 104.881Z" fill="black"/>
<path opacity="0.2" d="M176.402 116.076H174.305C174.233 116.078 174.162 116.064 174.097 116.034C174.032 116.004 173.976 115.959 173.931 115.903C173.887 115.847 173.857 115.781 173.843 115.711C173.829 115.641 173.832 115.568 173.851 115.499L175.281 108.34C175.315 108.182 175.4 108.04 175.523 107.935C175.647 107.831 175.801 107.77 175.962 107.763H178.06C178.131 107.76 178.202 107.775 178.267 107.805C178.332 107.835 178.389 107.88 178.433 107.936C178.477 107.992 178.508 108.058 178.522 108.128C178.536 108.198 178.533 108.271 178.514 108.34L177.083 115.499C177.049 115.657 176.964 115.799 176.841 115.903C176.718 116.008 176.564 116.068 176.402 116.076Z" fill="black"/>
<path d="M97.9514 104.513C97.9514 104.513 104.984 95.324 109.374 93.2538C113.764 91.1835 113.047 102.865 115.921 105.916C118.795 108.967 125.082 96.2229 129.391 95.1424C133.699 94.0619 131.075 111.005 134.903 115.014C138.73 119.023 165.747 91.1881 165.747 91.1881L164.267 94.6021L168.049 90.6523L164.267 96.2229L166.76 93.9529C166.76 93.9529 154.211 108.631 142.966 116.076C131.72 123.522 129.931 115.622 129.931 112.844C129.931 110.065 129.995 100.954 128.165 100.649C126.336 100.345 119.153 110.969 115.739 111.854C112.325 112.739 111.249 107.768 111.249 107.768C111.249 107.768 112.611 109.453 114.622 109.303C114.622 109.303 112.33 109.398 111.444 104.518C110.559 99.637 110.005 95.8643 108.03 97.2989C106.055 98.7336 100.131 105.925 100.131 105.925L100.966 103.392L95.7949 109.298L100.108 103.396L97.9514 104.513Z" fill="white"/>
<path d="M92.4764 132.275H88.168L88.9806 128.207H93.2891L92.4764 132.275Z" fill="white"/>
<path opacity="0.8" d="M97.5552 132.275H93.2422L94.0548 128.207H98.3633L97.5552 132.275Z" fill="white"/>
<path opacity="0.6" d="M102.629 132.275H98.3203L99.133 128.207H103.441L102.629 132.275Z" fill="white"/>
<path opacity="0.4" d="M107.703 132.275H103.395L104.207 128.207H108.516L107.703 132.275Z" fill="white"/>
<path opacity="0.2" d="M112.777 132.275H108.469L109.281 128.207H113.59L112.777 132.275Z" fill="white"/>
<path d="M137.758 53.0226L110.828 60.1328L112.873 67.876L139.803 60.7658L137.758 53.0226Z" fill="#FFC000"/>
<path opacity="0.6" d="M137.758 53.0226L110.828 60.1328L112.873 67.876L139.803 60.7658L137.758 53.0226Z" fill="white"/>
<path d="M116.877 59.3161L112.482 60.4941L114.092 66.5009L118.487 65.3229L116.877 59.3161Z" fill="#263238"/>
<path opacity="0.8" d="M120.83 58.359L116.449 59.5156L118.03 65.503L122.411 64.3464L120.83 58.359Z" fill="#263238"/>
<path opacity="0.6" d="M126.329 56.7702L121.934 57.9482L123.544 63.955L127.939 62.777L126.329 56.7702Z" fill="#263238"/>
<path opacity="0.4" d="M130.26 55.8648L125.879 57.0215L127.46 63.0089L131.841 61.8522L130.26 55.8648Z" fill="#263238"/>
<path opacity="0.2" d="M135.782 54.2282L131.387 55.4062L132.997 61.413L137.392 60.235L135.782 54.2282Z" fill="#263238"/>
<path d="M139.841 52.6709H111.988V60.6795H139.841V52.6709Z" fill="#FFC000"/>
<path opacity="0.7" d="M139.841 52.6709H111.988V60.6795H139.841V52.6709Z" fill="white"/>
<path d="M117.23 53.502H112.699V59.6945H117.23V53.502Z" fill="#FFC000"/>
<path opacity="0.8" d="M122.111 53.502H117.58V59.6945H122.111V53.502Z" fill="#FFC000"/>
<path opacity="0.6" d="M126.988 53.502H122.457V59.6945H126.988V53.502Z" fill="#FFC000"/>
<path opacity="0.4" d="M131.867 53.502H127.336V59.6945H131.867V53.502Z" fill="#FFC000"/>
<path opacity="0.2" d="M136.748 53.502H132.217V59.6945H136.748V53.502Z" fill="#FFC000"/>
<path d="M138.714 60.1889C138.987 60.1889 139.208 59.9674 139.208 59.6941C139.208 59.4208 138.987 59.1992 138.714 59.1992C138.44 59.1992 138.219 59.4208 138.219 59.6941C138.219 59.9674 138.44 60.1889 138.714 60.1889Z" fill="#263238"/>
<path d="M140.575 61.8965C140.576 61.9918 140.557 62.0863 140.52 62.1741C140.483 62.262 140.428 62.3413 140.359 62.4072C140.291 62.4731 140.209 62.5242 140.12 62.5574C140.03 62.5906 139.935 62.6052 139.84 62.6002C139.068 62.6002 138.564 61.8148 138.287 61.1701L138.741 61.0521C138.982 61.5878 139.354 62.1326 139.835 62.1326C139.985 62.1326 140.089 62.0872 140.103 61.8602C140.092 61.4754 139.971 61.1018 139.754 60.7842C139.64 60.576 139.486 60.3927 139.301 60.2453C139.115 60.0979 138.901 59.9893 138.673 59.9261C138.618 59.9107 138.571 59.8754 138.54 59.8271C138.509 59.7787 138.498 59.7208 138.507 59.6644C138.517 59.608 138.547 59.5572 138.592 59.5217C138.637 59.4862 138.693 59.4685 138.75 59.4721C139.05 59.5294 139.331 59.664 139.563 59.8626C139.866 60.1107 140.113 60.4203 140.287 60.7709C140.462 61.1215 140.56 61.5052 140.575 61.8965Z" fill="#263238"/>
<g opacity="0.2">
<path d="M140.577 61.8965C140.578 61.9918 140.559 62.0863 140.522 62.1741C140.485 62.262 140.43 62.3413 140.361 62.4072C140.293 62.4731 140.211 62.5242 140.122 62.5574C140.032 62.5906 139.937 62.6052 139.842 62.6002C139.07 62.6002 138.566 61.8148 138.289 61.1701L138.743 61.0521C138.984 61.5878 139.356 62.1326 139.837 62.1326C139.987 62.1326 140.091 62.0872 140.105 61.8602C140.094 61.4754 139.973 61.1018 139.755 60.7842C139.642 60.576 139.488 60.3927 139.302 60.2453C139.117 60.0979 138.903 59.9893 138.675 59.9261C138.62 59.9107 138.573 59.8754 138.542 59.8271C138.511 59.7787 138.5 59.7208 138.509 59.6644C138.519 59.608 138.549 59.5572 138.594 59.5217C138.639 59.4862 138.695 59.4685 138.752 59.4721C139.052 59.5294 139.332 59.664 139.565 59.8626C139.868 60.1107 140.115 60.4203 140.289 60.7709C140.464 61.1215 140.562 61.5052 140.577 61.8965Z" fill="white"/>
</g>
<path d="M166.406 61.333C168.485 65.923 169.893 71.4663 168.049 73.305C166.206 75.1437 159.846 68.4472 159.846 68.4472L161.276 67.4802C161.276 67.4802 165.743 69.8319 165.975 69.673C166.206 69.5141 164.268 62.8902 164.268 62.8902L166.406 61.333Z" fill="#EBB376"/>
<path d="M135.688 62.445C135.36 62.1802 135.048 61.8968 134.753 61.596C134.362 61.1874 130.19 61.2283 129.999 61.6778C129.809 62.1272 130.608 64.1793 131.302 64.4018C131.997 64.6242 134.934 64.3064 135.425 64.0113C135.915 63.7162 135.688 62.445 135.688 62.445Z" fill="#EBB376"/>
<path d="M153.589 154.29L151.183 154.336C148.718 142.768 146.979 128.458 145.894 117.648C145.726 115.954 145.567 114.352 145.44 112.854C145.376 112.145 145.313 111.46 145.254 110.806C144.963 107.555 144.763 104.981 144.645 103.392C144.559 102.23 144.514 101.576 144.514 101.576H153.271L153.19 103.805L152.917 111.174L152.89 112.014L152.708 116.876L152.4 125.157C155.382 136.82 153.589 154.29 153.589 154.29Z" fill="#EBB376"/>
<path d="M173.232 153.668L170.848 154.122C166.072 142.186 161.587 126.882 158.668 116.217C158.214 114.565 157.8 113.039 157.428 111.614C157.428 111.541 157.396 111.473 157.374 111.405C156.638 108.617 156.075 106.411 155.721 104.985L155.299 103.278L163.925 101.789L164.411 105.421L165.142 110.751L165.282 111.795L165.773 115.427L167.071 125.17C172.029 136.148 173.232 153.668 173.232 153.668Z" fill="#EBB376"/>
<path opacity="0.2" d="M165.144 110.751L157.426 111.614C157.426 111.541 157.394 111.473 157.371 111.405C156.636 108.617 156.073 106.411 155.719 104.985L164.417 105.417L165.144 110.751Z" fill="black"/>
<path opacity="0.2" d="M153.163 103.81L152.891 111.178L152.864 112.018L145.414 112.844C145.35 112.136 145.287 111.45 145.228 110.797C144.937 107.546 144.737 104.972 144.619 103.383L153.163 103.81Z" fill="black"/>
<path d="M146.429 162.33C146.882 161.966 147.395 161.687 147.946 161.503C147.946 161.503 149.598 159.869 150.393 154.939L152.554 154.376C152.92 154.287 153.305 154.313 153.655 154.451C154.006 154.588 154.306 154.829 154.515 155.143C154.578 155.229 154.626 155.326 154.656 155.429C154.765 155.956 154.842 156.49 154.888 157.027C155.005 158.829 155.014 160.636 154.915 162.439H154.524L154.37 159.043C154.315 157.89 153.43 159.242 153.176 160.486C152.922 161.73 152.391 163.047 149.862 163.111C146.911 163.17 145.685 163.052 146.429 162.33Z" fill="#FFC000"/>
<path d="M154.591 155.185C154.732 154.032 154.777 152.007 154.777 152.007L149.979 152.543C149.979 152.543 150.56 154.813 150.078 156.533C152.498 155.916 154.591 155.185 154.591 155.185Z" fill="#FFC000"/>
<path d="M165.959 162.33C166.411 161.966 166.924 161.686 167.475 161.504C167.475 161.504 169.128 159.869 169.922 154.939L172.079 154.376C172.446 154.287 172.831 154.313 173.182 154.45C173.534 154.588 173.835 154.829 174.045 155.143C174.106 155.23 174.152 155.327 174.181 155.429C174.294 155.956 174.371 156.49 174.412 157.027C174.63 158.698 174.444 162.439 174.444 162.439H174.054L173.899 159.043C173.84 157.89 172.96 159.243 172.705 160.487C172.451 161.731 171.915 163.047 169.387 163.111C166.44 163.17 165.214 163.052 165.959 162.33Z" fill="#FFC000"/>
<path d="M174.122 155.185C174.263 154.032 174.309 152.007 174.309 152.007L169.51 152.543C169.51 152.543 170.091 154.813 169.61 156.533C172.029 155.916 174.122 155.185 174.122 155.185Z" fill="#FFC000"/>
<path d="M159.957 52.153C159.922 52.1838 159.884 52.2112 159.844 52.2347C159.292 52.6565 158.662 52.965 157.991 53.1427C156.03 53.5967 154.691 53.3289 153.814 52.439C152.593 51.1088 152.284 48.7525 152.452 45.906C152.483 44.7738 152.693 43.6537 153.074 42.5872C153.074 42.5872 153.074 42.5464 153.074 42.5373C153.074 42.5282 153.106 42.451 153.124 42.4147C153.365 41.8137 153.752 41.2822 154.249 40.8683C154.747 40.4545 155.341 40.1715 155.975 40.0448C156.527 39.9237 157.09 39.8613 157.655 39.8587C163.212 39.7997 164.206 49.0068 159.957 52.153Z" fill="#EBB376"/>
<path opacity="0.2" d="M159.842 52.235C159.286 52.6324 158.656 52.9148 157.989 53.0659C156.028 53.5199 154.689 53.1839 153.812 52.285C154.986 52.5755 156.222 52.4735 157.331 51.9944C158.126 51.6312 159.006 51.8174 159.842 52.235Z" fill="black"/>
<path d="M160.406 57.2423C160.747 58.8222 158.704 59.4669 158.704 59.4669C155.358 58.0368 154.74 56.2571 154.74 56.2571C157.528 54.8043 156.72 50.6865 156.72 50.6865L157.287 50.968L161.273 51.7443C161.273 51.7443 160.166 53.8691 160.02 54.3503C159.267 56.8927 160.406 57.2423 160.406 57.2423Z" fill="#EBB376"/>
<path d="M153.073 42.5517C153.073 42.5517 152.764 46.4379 156.451 48.1086C156.451 48.1086 158.03 52.1492 160.364 52.1946C163.542 52.2764 166.334 47.7545 165.235 43.1555C163.81 37.2035 154.766 36.7087 153.073 42.5517Z" fill="#263238"/>
<path d="M154.586 46.9909C154.586 46.3871 155.076 45.3656 156.016 45.5063C156.956 45.6471 157.532 48.0533 155.135 48.589C154.813 48.6662 154.581 48.2576 154.586 46.9909Z" fill="#EBB376"/>
<path d="M159.843 38.4195C159.843 38.4195 156.134 37.4797 154.082 38.9689C151.689 40.7122 150.781 42.5146 153.628 45.3249C153.628 45.3249 159.857 43.3046 161.927 43.7359C163.138 43.981 164.327 44.3257 165.482 44.7664C165.904 40.6396 161.913 37.5751 159.843 38.4195Z" fill="#263238"/>
<path d="M154.739 38.5968C154.971 38.0429 155.443 36.8398 156.846 37.5026C158.249 38.1655 159.279 36.7263 160.178 36.9669C161.077 37.2075 161.994 38.2109 162.589 38.1246C162.886 38.0764 163.191 38.0927 163.482 38.1725C163.772 38.2523 164.042 38.3936 164.274 38.5869C164.505 38.7803 164.692 39.0211 164.822 39.293C164.952 39.565 165.022 39.8617 165.027 40.1631C165.136 42.1016 166.843 42.1743 167.002 43.3093C167.161 44.4443 166.403 44.9255 167.002 46.006C167.601 47.0866 168.5 47.0639 167.783 48.5984C167.065 50.1329 166.225 50.537 167.124 51.8036C168.023 53.0703 167.36 54.2689 166.044 54.8046C166.044 54.8046 164.31 53.0703 163.47 53.7876C162.63 54.5049 160.818 55.4538 160.019 54.3506C159.882 54.1461 159.698 53.9772 159.483 53.8578C159.267 53.7384 159.027 53.672 158.78 53.664C158.534 53.656 158.29 53.7067 158.067 53.8119C157.844 53.917 157.65 54.0737 157.5 54.2689C157.186 54.8636 155.684 53.7876 154.739 53.7876C153.795 53.7876 153.291 54.8545 153.291 54.8545C153.291 54.8545 152.011 54.5049 152.406 52.5346C152.801 50.5642 153.677 45.0481 153.064 43.4909C152.451 41.9337 154.739 38.5968 154.739 38.5968Z" fill="#263238"/>
<path d="M149.304 56.8618C149.304 56.8618 153.731 55.3726 160.405 57.1886C167.078 59.0047 166.402 61.3337 166.402 61.3337C166.402 61.3337 161.363 70.3683 160.7 80.606L146.371 79.2122C146.371 79.2122 144.792 63.0089 149.304 56.8618Z" fill="#263238"/>
<path d="M145.82 80.1377L146.106 77.3184L161.274 78.8393L160.956 81.0502C166.667 91.1654 165.287 102.697 165.287 102.697L165.977 108.372C165.977 108.372 164.547 109.257 154.936 109.884C146.487 110.438 144.34 109.561 144.34 109.561C141.343 92.0098 143.917 83.6562 145.82 80.1377Z" fill="#FFC000"/>
<path opacity="0.6" d="M165.971 108.372C165.971 108.372 164.541 109.257 154.93 109.884C146.481 110.438 144.333 109.561 144.333 109.561C144.233 108.98 144.143 108.413 144.056 107.854C142.24 96.1684 142.971 88.7864 144.215 84.2781C144.59 82.8414 145.128 81.4522 145.818 80.1377L145.922 79.1207L146.104 77.3047L161.272 78.8256L160.954 81.0366C166.666 91.1517 165.285 102.683 165.285 102.683L165.83 107.178L165.971 108.372Z" fill="white"/>
<path d="M152.38 80.3335L145.557 79.7932L145.647 77.7275L152.535 78.4494L152.38 80.3335Z" fill="#263238"/>
<path d="M159.213 80.8734L152.871 80.374L153.025 78.499L159.35 79.1619L159.213 80.8734Z" fill="#263238"/>
<path d="M159.839 79.2119L161.451 79.3844L161.247 81.037L159.703 80.9144L159.839 79.2119Z" fill="#263238"/>
<path opacity="0.3" d="M156.176 89.5443C156.144 90.6839 156.103 91.5465 156.103 91.5465L153.157 93.9527L148.131 91.7281C148.219 90.9397 148.262 90.1469 148.258 89.3536C148.281 87.6511 148.213 85.6853 148.167 84.6184C148.144 84.1326 148.131 83.833 148.131 83.833L156.103 84.7819C156.126 84.9498 156.144 85.1496 156.158 85.3675C156.248 86.5025 156.226 88.2096 156.176 89.5443Z" fill="white"/>
<path opacity="0.3" d="M163.894 91.4878L161.978 93.6897L159.104 91.8465C159.101 91.1502 159.06 90.4546 158.982 89.7626C158.826 88.3063 158.594 86.8591 158.287 85.4269C158.201 85.0228 158.146 84.7822 158.146 84.7822H162.396C162.437 84.9048 162.482 85.0274 162.519 85.1545C162.951 86.514 163.296 87.9001 163.549 89.3041C163.776 90.5844 163.894 91.4878 163.894 91.4878Z" fill="white"/>
<path opacity="0.15" d="M156.176 89.5452C156.144 90.6847 156.103 91.5473 156.103 91.5473L153.157 93.9535L148.131 91.7289C148.219 90.9406 148.262 90.1478 148.258 89.3545C150.061 89.6518 151.696 90.5901 152.862 91.9968C153.206 91.3741 153.68 90.8328 154.251 90.4098C154.823 89.9868 155.48 89.6919 156.176 89.5452Z" fill="black"/>
<path opacity="0.15" d="M148.177 84.6184C148.154 84.1326 148.141 83.833 148.141 83.833L156.113 84.7819C156.136 84.9498 156.154 85.1496 156.167 85.3675L148.177 84.6184Z" fill="black"/>
<path opacity="0.15" d="M162.53 85.1545L158.299 85.4269C158.213 85.0228 158.158 84.7822 158.158 84.7822H162.408C162.426 84.9048 162.471 85.0274 162.53 85.1545Z" fill="black"/>
<path opacity="0.15" d="M163.893 91.4875L161.977 93.6894L159.103 91.8461C159.099 91.1498 159.058 90.4542 158.98 89.7623C159.641 89.9722 160.25 90.3199 160.766 90.7824C161.283 91.2449 161.696 91.8117 161.977 92.4454C161.977 92.4454 162.022 90.3434 163.548 89.3037C163.775 90.584 163.893 91.4875 163.893 91.4875Z" fill="black"/>
<path opacity="0.15" d="M165.971 108.372C165.971 108.372 164.541 109.258 154.93 109.884C146.481 110.438 144.334 109.562 144.334 109.562C144.234 108.981 144.143 108.413 144.057 107.855L144.937 107.896C144.511 104.305 143.267 92.0783 145.142 85.3681C144.813 85.0271 144.51 84.6629 144.234 84.2785C144.608 82.8418 145.146 81.4526 145.836 80.1381L145.941 79.1211C146.246 79.1445 146.55 79.1901 146.849 79.2573V79.7113C146.849 79.7113 144.62 87.6608 144.62 95.5332C144.61 99.6888 144.924 103.839 145.559 107.946C152.324 108.188 159.097 107.943 165.826 107.215L165.971 108.372Z" fill="black"/>
<g opacity="0.3">
<path d="M152.38 80.3325L145.557 79.7923L145.647 77.7266L152.535 78.4484L152.38 80.3325Z" fill="white"/>
<path d="M159.212 80.8734L152.869 80.374L153.023 78.499L159.348 79.1619L159.212 80.8734Z" fill="white"/>
<path d="M159.841 79.2109L161.453 79.3835L161.249 81.036L159.705 80.9134L159.841 79.2109Z" fill="white"/>
</g>
<path d="M135.69 62.4452L134.9 63.5893C134.9 63.5893 139.209 70.2359 142.382 69.6366C145.556 69.0373 149.864 62.6313 150.464 60.7155C151.063 58.7996 151.676 56.5387 149.306 56.861C146.936 57.1833 143.999 65.6323 141.901 66.5812C139.804 67.53 135.69 62.4452 135.69 62.4452Z" fill="#EBB376"/>
<path d="M51.5704 42.1699C51.5704 42.1699 58.7254 42.238 60.7639 43.2459C62.8023 44.2538 56.41 51.0683 54.3398 49.8925C52.2695 48.7166 49.5727 45.012 51.5704 42.1699Z" fill="#FFC000"/>
<path opacity="0.2" d="M51.5704 42.1699C51.5704 42.1699 58.7254 42.238 60.7639 43.2459C62.8023 44.2538 56.41 51.0683 54.3398 49.8925C52.2695 48.7166 49.5727 45.012 51.5704 42.1699Z" fill="black"/>
<path d="M51.5347 158.812H46.9357C46.8606 158.812 46.7878 158.838 46.7292 158.885C46.6706 158.932 46.6298 158.997 46.6133 159.071L45.8551 162.444C45.8401 162.517 45.84 162.593 45.8548 162.666C45.8696 162.74 45.8991 162.81 45.9415 162.872C45.9838 162.933 46.0382 162.986 46.1014 163.027C46.1646 163.067 46.2352 163.094 46.3091 163.107H46.4317C47.9208 163.079 49.0059 162.989 50.8764 162.989C52.025 162.989 55.5027 163.111 57.0917 163.111C58.6807 163.111 58.9077 161.54 58.2357 161.395C55.3165 160.759 53.1192 159.879 52.1839 159.039C52.0056 158.881 51.7725 158.799 51.5347 158.812Z" fill="#FFC000"/>
<path d="M71.0517 158.689H66.4481C66.3726 158.69 66.2997 158.717 66.2412 158.765C66.1828 158.812 66.1421 158.879 66.1258 158.952L65.3767 162.326C65.347 162.47 65.3756 162.621 65.4563 162.745C65.5371 162.869 65.6634 162.957 65.808 162.988H65.9351C67.4197 162.966 68.5047 162.875 70.3752 162.875C71.5284 162.875 75.0015 162.993 76.5905 162.993C78.1795 162.993 78.4065 161.422 77.7391 161.277C74.8199 160.641 72.6225 159.76 71.6873 158.92C71.5131 158.764 71.2855 158.681 71.0517 158.689Z" fill="#FFC000"/>
<path d="M49.0981 73.5234H69.2013C71.1126 83.9655 77.0963 126.346 72.8015 159.257H65.9915C65.9915 159.257 66.6226 109.276 60.6161 93.1227C59.9215 101.749 52.8981 159.225 52.8981 159.225H45.9746C45.9746 159.225 47.0097 137.61 48.0449 117.194C48.6986 104.327 49.0709 76.1566 49.0981 73.5234Z" fill="#263238"/>
<path opacity="0.2" d="M60.6211 93.1179C61.6102 95.9486 62.3619 98.8567 62.8684 101.812C63.4268 94.1213 61.1795 85.9629 61.1795 85.9629L60.6211 93.1179Z" fill="black"/>
<path d="M45.4844 44.6578C52.0034 43.9847 58.576 44.0167 65.0881 44.7531C65.0881 44.7531 68.4341 60.0756 68.7701 74.7171H48.5307C48.5307 74.7171 48.5126 54.0465 45.4844 44.6578Z" fill="#FFC000"/>
<path opacity="0.6" d="M45.4844 44.6578C52.0034 43.9847 58.576 44.0167 65.0881 44.7531C65.0881 44.7531 68.4341 60.0756 68.7701 74.7171H48.5307C48.5307 74.7171 48.5126 54.0465 45.4844 44.6578Z" fill="white"/>
<path d="M52.6016 45.0621C54.3404 46.642 58.5989 46.0609 58.5989 46.0609C58.5989 46.0609 61.2594 45.3299 60.7009 44.4991C59.1346 44.2403 58.3764 43.5094 58.0632 42.5741C57.8916 41.9944 57.8376 41.3863 57.9043 40.7854C57.9303 40.4503 57.9742 40.1169 58.036 39.7866L52.7695 35.8867C53.4596 38.4609 54.3041 43.1961 52.6016 45.0621Z" fill="#E4897B"/>
<path opacity="0.2" d="M53.9863 38.3652C54.1952 41.5432 56.7921 42.3968 58.0723 42.5738C57.9008 41.9941 57.8468 41.3859 57.9134 40.7851L53.9863 38.3652Z" fill="black"/>
<path d="M63.5618 28.577C63.5618 28.577 64.3472 33.6482 61.6596 35.605C58.9719 37.5617 58.9355 28.123 58.9355 28.123L63.5618 28.577Z" fill="#263238"/>
<path d="M53.8589 39.6589C54.4272 40.4911 55.2524 41.1144 56.2083 41.4333C57.1643 41.7522 58.1984 41.7493 59.1525 41.425C60.3951 41.029 61.4395 40.1731 62.0717 39.0324C62.1601 38.8746 62.2404 38.7125 62.3123 38.5466C63.6289 35.4413 64.033 30.016 60.7506 27.9957C59.6289 27.2974 58.2762 27.072 56.9888 27.369C55.7013 27.666 54.584 28.4611 53.8816 29.5801C53.4621 30.2429 53.2069 30.9962 53.137 31.7775C52.7466 35.3868 52.347 37.516 53.8589 39.6589Z" fill="#E4897B"/>
<path d="M58.4283 33.698C58.3602 33.984 58.4919 34.2564 58.6871 34.2882C58.8823 34.32 59.073 34.1066 59.1411 33.8115C59.2092 33.5164 59.073 33.2576 58.8823 33.2259C58.6916 33.1941 58.4828 33.4029 58.4283 33.698Z" fill="#263238"/>
<path d="M61.7463 34.2567C61.6782 34.5427 61.8144 34.8105 62.0051 34.8423C62.1958 34.8741 62.391 34.6607 62.4591 34.3883C62.5272 34.1159 62.391 33.8299 62.2003 33.7981C62.0096 33.7663 61.7872 33.9752 61.7463 34.2567Z" fill="#263238"/>
<path d="M60.6597 34.2197C60.8608 35.1682 61.1907 36.0847 61.6403 36.9437C61.4146 37.0534 61.1678 37.1126 60.9169 37.1173C60.666 37.122 60.4171 37.0721 60.1875 36.971L60.6597 34.2197Z" fill="#DE5753"/>
<path d="M63.2027 33.044C63.1723 33.055 63.1396 33.0578 63.1077 33.0522C63.0759 33.0466 63.046 33.0329 63.0211 33.0123C62.8611 32.8638 62.6685 32.7548 62.4588 32.6941C62.2491 32.6334 62.0281 32.6226 61.8135 32.6627C61.769 32.6728 61.7224 32.6657 61.6829 32.643C61.6434 32.6203 61.6138 32.5836 61.6001 32.5401C61.594 32.518 61.5922 32.495 61.5951 32.4722C61.5979 32.4495 61.6053 32.4276 61.6167 32.4077C61.6281 32.3878 61.6433 32.3704 61.6615 32.3565C61.6797 32.3426 61.7005 32.3325 61.7227 32.3267C61.9929 32.2702 62.2727 32.2791 62.5388 32.3525C62.8049 32.426 63.0497 32.5619 63.2527 32.7489C63.2875 32.7789 63.3094 32.8212 63.3136 32.8669C63.3179 32.9127 63.3041 32.9583 63.2754 32.9941C63.2547 33.0154 63.2301 33.0324 63.2027 33.044Z" fill="#263238"/>
<path d="M57.9956 32.2678C57.9614 32.2596 57.9301 32.2423 57.9048 32.2178C57.8808 32.1785 57.8731 32.1314 57.8833 32.0865C57.8934 32.0415 57.9207 32.0023 57.9593 31.9772C58.1934 31.8276 58.4603 31.737 58.737 31.7133C59.0138 31.6896 59.2922 31.7334 59.5483 31.841C59.5884 31.8623 59.6188 31.8983 59.6332 31.9413C59.6475 31.9844 59.6448 32.0314 59.6255 32.0725C59.6041 32.1127 59.5685 32.1433 59.5256 32.1585C59.4828 32.1736 59.4358 32.1721 59.394 32.1543C59.19 32.0757 58.9705 32.0458 58.7529 32.0671C58.5354 32.0884 58.3258 32.1602 58.1409 32.2768C58.0932 32.2931 58.041 32.2899 57.9956 32.2678Z" fill="#263238"/>
<path d="M56.5278 27.737V29.3532C56.2422 29.4502 56.0036 29.6512 55.8597 29.9163C55.7158 30.1814 55.6772 30.491 55.7514 30.7833C56.1056 32.1862 55.0977 34.1747 53.9672 34.8693C53.9672 34.8693 54.0081 34.2837 53.5132 34.3654C53.0184 34.4471 52.7823 37.4889 53.5677 39.0461C53.5677 39.0461 52.2738 37.5661 51.8334 34.2927C51.4294 31.26 51.6246 28.7993 52.3646 27.7324L56.5278 27.737Z" fill="#263238"/>
<path d="M51.0709 34.479C51.2006 34.9148 51.4149 35.3207 51.7016 35.6736C51.9883 36.0265 52.3417 36.3194 52.7417 36.5356C53.8177 37.1077 54.6167 36.2087 54.5577 35.0601C54.4805 34.0386 53.8404 32.4769 52.6509 32.3906C51.4614 32.3043 50.7622 33.3803 51.0709 34.479Z" fill="#E4897B"/>
<path d="M59.8109 37.8797C59.5566 38.2655 59.3305 38.669 59.1344 39.0874C59.0546 39.0689 58.9758 39.0461 58.8983 39.0193C57.836 38.7105 57.4501 38.2157 57.3366 37.7617C57.281 37.5396 57.281 37.3073 57.3366 37.0852C57.3641 36.9596 57.41 36.8388 57.4728 36.7266C58.0438 37.2081 58.7109 37.5625 59.4295 37.7662C59.6656 37.8434 59.8109 37.8797 59.8109 37.8797Z" fill="#263238"/>
<path d="M59.4484 37.7662L59.2396 38.1203C58.2408 37.8207 57.5779 37.4802 57.3555 37.0852C57.383 36.9596 57.4289 36.8388 57.4917 36.7266C58.0627 37.2081 58.7298 37.5625 59.4484 37.7662Z" fill="white"/>
<path d="M58.8977 39.0193C57.8353 38.7106 57.4494 38.2157 57.3359 37.7617C57.7378 37.8869 58.1143 38.0821 58.4482 38.3383C58.6655 38.5128 58.8226 38.751 58.8977 39.0193Z" fill="#DE5753"/>
<path d="M56.534 29.3531C56.534 29.3531 64.6016 32.1089 63.6709 26.67C63.6709 26.67 59.3216 24.1004 55.4989 24.8222C51.6762 25.5441 52.0031 29.4712 52.0031 29.4712L56.534 29.3531Z" fill="#263238"/>
<path d="M51.5498 43.5127C51.5498 43.5127 52.0901 62.0223 48.0404 79.4877L45.4844 77.2903C45.4844 77.2903 46.7102 55.2713 45.4844 44.6568L51.5498 43.5127Z" fill="#FFC000"/>
<path d="M60.7637 43.8135C60.7637 43.8135 66.0392 52.5893 68.3818 78.8986L70.452 77.8771C70.452 77.8771 68.0912 52.6665 65.0858 44.7351L60.7637 43.8135Z" fill="#FFC000"/>
<path opacity="0.2" d="M48.0404 79.4877L45.4844 77.2903C45.4844 77.2903 46.011 67.829 46.0292 58.3222C46.0292 56.597 46.0292 54.8673 45.9792 53.1965C45.9111 50.0185 45.7613 47.0494 45.4844 44.6568L51.5498 43.5127C51.5498 43.5127 52.0901 62.0223 48.0404 79.4877Z" fill="white"/>
<path opacity="0.2" d="M60.7637 43.8135C60.7637 43.8135 66.0392 52.5893 68.3818 78.8986L70.452 77.8771C70.452 77.8771 68.0912 52.6665 65.0858 44.7351L60.7637 43.8135Z" fill="white"/>
<path d="M51.571 42.1699C51.571 42.1699 52.025 43.709 52.9875 44.3582L51.5528 48.0992V46.0335L51.1442 46.9415L49.3555 43.9451L51.571 42.1699Z" fill="#FFC000"/>
<path d="M59.3516 42.8145C59.3516 42.8145 60.9814 43.2957 62.3207 47.3545V45.6928L63.7463 46.3965C63.7463 46.3965 61.6942 43.6453 61.1903 43.3139C60.6073 43.0521 59.9868 42.8835 59.3516 42.8145Z" fill="#FFC000"/>
<path d="M62.5478 55.7629C62.5509 55.8064 62.5454 55.8502 62.5315 55.8915C62.5177 55.9329 62.4958 55.9712 62.4671 56.0041C62.4384 56.037 62.4035 56.0639 62.3644 56.0833C62.3252 56.1027 62.2827 56.1141 62.2391 56.117L53.4542 56.6436C53.4115 56.6461 53.3687 56.64 53.3284 56.6257C53.2881 56.6115 53.251 56.5894 53.2193 56.5606C53.1876 56.5319 53.1619 56.4971 53.1438 56.4584C53.1257 56.4196 53.1154 56.3777 53.1137 56.3349L52.9321 53.2159L52.7505 50.1106C52.7481 50.0669 52.7544 50.0232 52.7692 49.982C52.7839 49.9408 52.8068 49.903 52.8364 49.8708C52.8661 49.8387 52.9019 49.8128 52.9417 49.7947C52.9815 49.7766 53.0246 49.7667 53.0683 49.7655L61.7261 49.5294C61.8094 49.5269 61.8904 49.5567 61.9521 49.6125C62.0139 49.6684 62.0517 49.746 62.0575 49.8291L62.3072 52.8437L62.5478 55.7629Z" fill="#FFC000"/>
<path opacity="0.4" d="M62.5478 55.7629C62.5509 55.8064 62.5454 55.8502 62.5315 55.8915C62.5177 55.9329 62.4958 55.9712 62.4671 56.0041C62.4384 56.037 62.4035 56.0639 62.3644 56.0833C62.3252 56.1027 62.2827 56.1141 62.2391 56.117L53.4542 56.6436C53.4115 56.6461 53.3687 56.64 53.3284 56.6257C53.2881 56.6115 53.251 56.5894 53.2193 56.5606C53.1876 56.5319 53.1619 56.4971 53.1438 56.4584C53.1257 56.4196 53.1154 56.3777 53.1137 56.3349L52.9321 53.2159L52.7505 50.1106C52.7481 50.0669 52.7544 50.0232 52.7692 49.982C52.7839 49.9408 52.8068 49.903 52.8364 49.8708C52.8661 49.8387 52.9019 49.8128 52.9417 49.7947C52.9815 49.7766 53.0246 49.7667 53.0683 49.7655L61.7261 49.5294C61.8094 49.5269 61.8904 49.5567 61.9521 49.6125C62.0139 49.6684 62.0517 49.746 62.0575 49.8291L62.3072 52.8437L62.5478 55.7629Z" fill="white"/>
<path opacity="0.2" d="M62.5513 55.7623C62.5544 55.8058 62.5488 55.8496 62.535 55.891C62.5211 55.9324 62.4992 55.9706 62.4705 56.0035C62.4418 56.0364 62.4069 56.0633 62.3678 56.0827C62.3287 56.1021 62.2861 56.1135 62.2426 56.1164L53.4576 56.6431C53.4149 56.6455 53.3722 56.6394 53.3318 56.6252C53.2915 56.6109 53.2544 56.5888 53.2227 56.56C53.191 56.5313 53.1654 56.4966 53.1472 56.4578C53.1291 56.4191 53.1189 56.3771 53.1171 56.3343L52.9355 53.2154C53.503 52.035 54.2612 50.7184 54.7879 50.7365C55.7458 50.7683 55.2918 53.7738 55.7821 54.1824C56.2725 54.591 57.7343 51.7807 57.8978 52.0531C58.0612 52.3255 58.0204 53.2835 58.093 53.5195C58.1475 53.6875 60.817 53.1563 62.3107 52.8431L62.5513 55.7623Z" fill="black"/>
<path opacity="0.3" d="M46.0285 58.3229C46.0285 56.5977 46.0285 54.8679 45.9785 53.1972C46.3145 52.4617 46.546 51.9805 46.546 51.9805C46.9018 53.0162 47.0394 54.1143 46.9504 55.2058C46.8613 56.2973 46.5474 57.3585 46.0285 58.3229Z" fill="black"/>
<path d="M42.3062 50.2695C42.3062 50.2695 37.4347 61.8284 36.4813 61.7194C35.5279 61.6105 34.4111 58.7911 34.4111 58.7911L32.0957 59.9034C32.0957 59.9034 33.8345 64.3299 36.4813 65.5285C39.1282 66.7271 44.617 55.2908 44.617 55.2908L42.3062 50.2695Z" fill="#FFC000"/>
<path opacity="0.6" d="M42.3062 50.2695C42.3062 50.2695 37.4347 61.8284 36.4813 61.7194C35.5279 61.6105 34.4111 58.7911 34.4111 58.7911L32.0957 59.9034C32.0957 59.9034 33.8345 64.3299 36.4813 65.5285C39.1282 66.7271 44.617 55.2908 44.617 55.2908L42.3062 50.2695Z" fill="white"/>
<path d="M45.4833 44.6572C44.2666 45.2066 38.3555 56.148 38.3555 56.148L43.4085 59.7164L45.8783 56.148C45.8783 56.148 46.4685 55.8665 46.4685 52.003C46.4401 49.5234 46.1093 47.0566 45.4833 44.6572Z" fill="#FFC000"/>
<path d="M95.0051 94.4111L95.0629 94.3297C95.163 94.1886 95.1298 93.9931 94.9887 93.8929L92.9338 92.4347C92.7927 92.3346 92.5971 92.3678 92.497 92.5089L92.4392 92.5904C92.3391 92.7315 92.3723 92.927 92.5134 93.0271L94.5683 94.4853C94.7094 94.5855 94.9049 94.5522 95.0051 94.4111Z" fill="#263238"/>
<path d="M32.668 47.1299L29.8252 51.136L27.0409 49.1602C26.6265 48.8662 26.3459 48.4195 26.2608 47.9186C26.1757 47.4177 26.2931 46.9034 26.5872 46.489L27.2125 45.6078C27.5065 45.1934 27.9531 44.9128 28.4541 44.8277C28.955 44.7427 29.4693 44.8601 29.8837 45.1541L32.668 47.1299Z" fill="#263238"/>
<path d="M84.7172 94.0258L93.838 94.1483L94.4055 93.3493L91.2548 84.7778C88.4893 84.2404 85.8685 83.125 83.564 81.5044L31.8397 45.3751C31.7075 45.2828 31.5443 45.2462 31.3854 45.2734C31.2265 45.3006 31.0847 45.3893 30.9907 45.5203L27.7582 50.0604C27.7117 50.1253 27.6785 50.1988 27.6603 50.2767C27.6422 50.3545 27.6397 50.4352 27.6527 50.514C27.6658 50.5928 27.6943 50.6683 27.7365 50.7362C27.7788 50.804 27.834 50.8628 27.899 50.9093L79.0785 87.815C81.3714 89.4555 83.2927 91.5609 84.7172 93.994V94.0258Z" fill="#263238"/>
<path opacity="0.3" d="M84.7138 94.0256C83.2945 91.5904 81.376 89.483 79.0842 87.8421L66.7399 78.9437L66.3132 78.635L65.8909 78.3308L31.8727 53.8148L31.4505 53.5061L31.0237 53.2019L27.8956 50.9319C27.8311 50.8855 27.7764 50.8268 27.7347 50.7592C27.6929 50.6916 27.6649 50.6164 27.6522 50.5379C27.6396 50.4595 27.6425 50.3793 27.6609 50.302C27.6793 50.2247 27.7128 50.1518 27.7594 50.0874L30.9919 45.5474C31.0844 45.416 31.225 45.3265 31.3833 45.2984C31.5415 45.2703 31.7044 45.306 31.8364 45.3976L35.0144 47.6041L35.4684 47.9082L35.8997 48.2079L70.2811 72.2064L71.1437 72.8056L83.6151 81.5134C84.7805 82.3275 86.0265 83.0197 87.3334 83.5791C88.6115 84.1254 89.9449 84.5318 91.3104 84.7913L91.4512 85.1681L91.6691 85.7673L94.443 93.3582L93.8755 94.1573L85.7898 94.0529H85.1497L84.7138 94.0256Z" fill="white"/>
<path d="M83.4479 86.312L83.5713 86.138C83.7919 85.8272 83.7187 85.3964 83.4079 85.1758L72.6225 77.5224C72.3117 77.3018 71.8809 77.375 71.6603 77.6858L71.5369 77.8598C71.3163 78.1706 71.3895 78.6014 71.7003 78.8219L82.4857 86.4754C82.7965 86.696 83.2273 86.6228 83.4479 86.312Z" fill="#263238"/>
<g opacity="0.2">
<path d="M85.1113 94.03L91.4129 85.1543L91.6308 85.7536L85.7515 94.0391L85.1113 94.03Z" fill="black"/>
</g>
<g opacity="0.2">
<path d="M71.109 72.7965L70.2464 72.1973L65.8926 78.3308L66.3193 78.6395L66.7416 78.9483L71.109 72.7965Z" fill="black"/>
</g>
<g opacity="0.2">
<path d="M35.8676 48.1946L35.4136 47.895L34.9868 47.5908L31.0098 53.1932L31.4638 53.4974L31.886 53.8061L35.8676 48.1946Z" fill="black"/>
</g>
<path d="M71.394 70.7217L70.9673 71.498C70.6815 71.4715 70.3933 71.5042 70.1206 71.594C69.848 71.6838 69.5969 71.8289 69.3828 72.0201C69.3828 72.0201 69.6825 73.7953 69.7869 74.0223C70.023 74.5217 72.5881 75.7475 73.2055 75.7429C73.4007 75.7429 73.5823 74.4399 73.4643 74.0223C73.1819 73.4792 72.8359 72.9717 72.4337 72.5104L72.7833 71.8249L71.394 70.7217Z" fill="#E4897B"/>
<path d="M66.2129 48.7393C66.2129 48.7393 74.0716 54.4097 76.3235 60.6068C78.0124 65.2649 72.9593 72.5425 72.9593 72.5425L70.8255 70.9671C70.8255 70.9671 74.3758 64.1117 73.4678 61.247C72.5598 58.3822 68.2241 55.5402 68.2241 55.5402L66.2129 48.7393Z" fill="#FFC000"/>
<path opacity="0.6" d="M66.2129 48.7393C66.2129 48.7393 74.0716 54.4097 76.3235 60.6068C78.0124 65.2649 72.9593 72.5425 72.9593 72.5425L70.8255 70.9671C70.8255 70.9671 74.3758 64.1117 73.4678 61.247C72.5598 58.3822 68.2241 55.5402 68.2241 55.5402L66.2129 48.7393Z" fill="white"/>
<path d="M73.9117 54.909L71.3784 59.2492L70.1299 58.709L68.0233 57.801L66.8066 52.4029L65.0859 44.7666C67.1925 45.7654 73.9117 54.909 73.9117 54.909Z" fill="#FFC000"/>
<path d="M34.1529 58.9174L33.6308 57.2512C33.6308 57.2512 34.4026 57.0923 34.4071 56.4113C34.4116 55.7303 34.339 54.0596 34.0167 53.7282C33.2214 53.0927 32.3808 52.5161 31.5015 52.003C31.102 51.7987 30.6707 53.3287 30.6525 53.9961C30.6344 54.6634 32.0917 56.8517 32.0917 56.8517L32.6864 59.6166L34.1529 58.9174Z" fill="#E4897B"/>
<path opacity="0.2" d="M70.1299 58.6996L68.0234 57.7916L66.8066 52.3936C68.1005 53.8055 70.0527 56.3025 70.1299 58.6996Z" fill="black"/>
</svg>
