<svg width="215" height="188" viewBox="0 0 215 188" fill="none" xmlns="http://www.w3.org/2000/svg">
<path d="M116.087 187.222C170.643 187.222 214.869 162.068 214.869 131.038C214.869 100.007 170.643 74.8525 116.087 74.8525C61.531 74.8525 17.3047 100.007 17.3047 131.038C17.3047 162.068 61.531 187.222 116.087 187.222Z" fill="#F5F5F5"/>
<path d="M178.747 157.183C191.793 157.183 202.369 150.553 202.369 142.373C202.369 134.193 191.793 127.562 178.747 127.562C165.701 127.562 155.125 134.193 155.125 142.373C155.125 150.553 165.701 157.183 178.747 157.183Z" fill="#E6E6E6"/>
<path d="M22.7874 99.3798C22.5043 95.9715 21.7174 92.624 20.4523 89.4464C18.37 84.312 14.3847 79.1545 9.79266 78.1892C5.2006 77.2239 3.26081 80.3037 4.22611 83.3375C5.0627 85.9484 8.47342 88.118 11.0659 90.398C13.6585 92.6779 18.4941 98.2123 19.8364 103.512L22.4289 103.797L22.7874 99.3798Z" fill="#FFC100"/>
<g opacity="0.15">
<path d="M22.7874 99.3798C22.5043 95.9715 21.7174 92.624 20.4523 89.4464C18.37 84.312 14.3847 79.1545 9.79266 78.1892C5.2006 77.2239 3.26081 80.3037 4.22611 83.3375C5.0627 85.9484 8.47342 88.118 11.0659 90.398C13.6585 92.6779 18.4941 98.2123 19.8364 103.512L22.4289 103.797L22.7874 99.3798Z" fill="black"/>
</g>
<path d="M21.0095 101.761C20.9355 101.761 20.8644 101.732 20.8112 101.68C20.758 101.629 20.7269 101.559 20.7245 101.485C20.2419 88.0993 7.15979 80.6159 7.0173 80.5332C6.95493 80.4936 6.91003 80.4317 6.89179 80.3602C6.87354 80.2886 6.88333 80.2128 6.91915 80.1482C6.95496 80.0836 7.0141 80.0351 7.08447 80.0127C7.15484 79.9903 7.23111 79.9956 7.29769 80.0275C7.43559 80.1057 20.8073 87.7499 21.2991 101.453C21.3016 101.529 21.2741 101.603 21.2225 101.658C21.1709 101.714 21.0993 101.748 21.0233 101.751L21.0095 101.761Z" fill="white"/>
<path d="M24.8517 122.942C24.8517 122.942 22.1764 124.633 17.9935 123.912C16.6409 123.732 15.3804 123.127 14.3943 122.183C13.3141 121.071 13.144 119.949 12.8406 118.46C12.7571 117.838 12.5441 117.239 12.2155 116.704C11.2961 115.472 9.53103 115.495 8.04171 115.174C5.92725 114.714 3.98286 113.197 3.3715 111.124C2.76015 109.051 3.75303 106.527 5.75717 105.709L3.29796 104.132C2.53346 103.684 1.82649 103.143 1.19269 102.524C0.560033 101.892 0.182068 101.049 0.130859 100.156C0.130859 98.8508 1.10075 97.6832 2.29589 97.15C3.52012 96.6773 4.84852 96.5409 6.14329 96.7547C7.45481 96.9152 8.74395 97.2236 9.9861 97.674C10.3246 97.8268 10.6904 97.9097 11.0617 97.9177C11.5449 97.8321 11.9978 97.6231 12.3764 97.3109C15.1895 95.4722 19.7724 95.5963 21.2801 99.099C21.5007 99.6138 21.634 100.165 21.8731 100.671C22.7464 102.56 25.2056 101.99 26.7961 102.873C27.2952 103.189 27.7187 103.611 28.0365 104.109C28.3542 104.607 28.5585 105.169 28.6347 105.755C28.9519 107.621 28.4325 109.749 28.0877 111.593C27.743 113.436 27.3063 115.151 26.8053 116.897C26.3962 118.341 25.9457 119.77 25.4676 121.191C25.3665 121.485 25.1459 122.758 24.8517 122.942Z" fill="#FFC100"/>
<path d="M26.5338 118.63C25.1319 114.773 22.8295 111.306 19.8181 108.518C19.7868 108.451 19.7308 108.398 19.6618 108.371C18.7941 107.557 17.8843 106.79 16.936 106.072C16.5777 103.59 16.8953 101.057 17.8553 98.7407C17.8876 98.6718 17.8912 98.5929 17.8654 98.5214C17.8395 98.4498 17.7863 98.3915 17.7174 98.3592C17.6485 98.3269 17.5696 98.3232 17.4981 98.3491C17.4265 98.375 17.3682 98.4282 17.3359 98.4971C16.3839 100.731 16.0183 103.171 16.2741 105.585C12.4212 102.806 8.14704 100.665 3.61487 99.2417C3.54117 99.2232 3.46316 99.2339 3.39718 99.2716C3.33121 99.3093 3.28238 99.3711 3.26092 99.444C3.25051 99.4805 3.2475 99.5187 3.25207 99.5564C3.25665 99.5942 3.26871 99.6306 3.28755 99.6635C3.30639 99.6965 3.33163 99.7254 3.36179 99.7485C3.39195 99.7715 3.42642 99.7884 3.46318 99.7979C3.58269 99.8301 11.7372 102.147 18.4851 108.072C14.3481 107.35 9.41585 109.345 9.19061 109.451C9.12732 109.475 9.07454 109.52 9.04171 109.579C9.00887 109.638 8.99813 109.707 9.01139 109.774C9.02465 109.84 9.06105 109.899 9.11409 109.941C9.16714 109.983 9.23336 110.005 9.30093 110.003C9.33741 110.009 9.37478 110.009 9.41125 110.003C9.46641 109.975 15.2628 107.631 19.3584 108.904C22.333 111.632 24.612 115.031 26.0052 118.819C26.0245 118.875 26.061 118.925 26.1097 118.959C26.1583 118.994 26.2167 119.012 26.2764 119.012H26.3729C26.4092 118.998 26.4424 118.978 26.4703 118.951C26.4983 118.924 26.5204 118.892 26.5355 118.856C26.5506 118.82 26.5582 118.782 26.5579 118.743C26.5576 118.704 26.5494 118.666 26.5338 118.63Z" fill="white"/>
<path d="M24.9434 122.543C24.9923 123.215 25.1993 123.867 25.5475 124.444C25.8958 125.022 26.3754 125.509 26.9475 125.866L83.0038 158.217C83.6233 158.532 84.3084 158.696 85.0033 158.696C85.6982 158.696 86.3834 158.532 87.0028 158.217L163.689 113.942C164.292 113.622 164.796 113.144 165.148 112.559C165.5 111.974 165.686 111.304 165.686 110.621C165.686 109.938 165.5 109.269 165.148 108.683C164.796 108.098 164.292 107.62 163.689 107.3L107.642 74.9396C107.022 74.6268 106.337 74.4639 105.642 74.4639C104.948 74.4639 104.263 74.6268 103.643 74.9396L26.9475 119.224C26.3758 119.58 25.8963 120.066 25.548 120.643C25.1998 121.22 24.9926 121.871 24.9434 122.543Z" fill="#37474F"/>
<path d="M84.9949 154.374V158.7C84.3001 158.719 83.6118 158.561 82.9953 158.24L26.9253 125.866C26.3393 125.557 25.8457 125.098 25.4948 124.537C25.1439 123.975 24.9481 123.33 24.9276 122.668C24.907 122.006 25.0624 121.35 25.3778 120.768C25.6932 120.186 26.1574 119.697 26.723 119.353C25.8267 119.996 25.8956 120.938 26.9253 121.531L83.0045 153.892C83.6162 154.219 84.3012 154.385 84.9949 154.374Z" fill="#263238"/>
<path d="M23.0688 119.293C22.5121 118.914 22.0522 118.41 21.7264 117.82C21.4006 117.231 21.218 116.573 21.1934 115.9V49.0145C21.2311 48.321 21.4318 47.6461 21.7792 47.0447C22.1266 46.4433 22.611 45.9323 23.1929 45.5532L99.879 1.27819C100.474 0.962207 101.136 0.790892 101.81 0.778115C102.484 0.765338 103.152 0.911456 103.759 1.20464C104.315 1.5834 104.775 2.08781 105.101 2.67711C105.427 3.2664 105.609 3.92407 105.634 4.59698V71.483C105.596 72.1765 105.396 72.8513 105.048 73.4527C104.701 74.0541 104.216 74.5651 103.634 74.9443L26.9484 119.224C26.3522 119.538 25.6906 119.708 25.0168 119.72C24.343 119.732 23.6758 119.586 23.0688 119.293Z" fill="#455A64"/>
<path d="M26.7094 119.343C26.1355 119.6 25.5123 119.729 24.8835 119.721C24.2546 119.712 23.6353 119.566 23.0688 119.293C22.5121 118.914 22.0522 118.409 21.7264 117.82C21.4006 117.231 21.218 116.573 21.1934 115.9V49.0142C21.2153 48.3185 21.4181 47.6404 21.7817 47.0469L25.5326 49.2073C25.1722 49.8023 24.9697 50.4795 24.9442 51.1747V118.065C24.9442 119.251 25.7165 119.78 26.7094 119.343Z" fill="#263238"/>
<path d="M24.9434 51.1843V118.066C24.9434 119.344 25.8627 119.858 26.9475 119.224L103.634 74.9444C104.216 74.5653 104.7 74.0543 105.047 73.4529C105.395 72.8515 105.595 72.1767 105.633 71.4832V4.59717C105.633 3.32389 104.737 2.80447 103.634 3.44341L26.9475 47.7184C26.3641 48.0975 25.8785 48.609 25.5302 49.2113C25.182 49.8136 24.9809 50.4896 24.9434 51.1843Z" fill="#37474F"/>
<path d="M26.948 121.531L83.0043 153.892C83.6244 154.205 84.3093 154.368 85.0038 154.368C85.6984 154.368 86.3832 154.205 87.0034 153.892L163.689 109.617C164.797 108.978 164.797 107.944 163.689 107.319L107.642 74.9581C107.022 74.6453 106.337 74.4824 105.643 74.4824C104.948 74.4824 104.263 74.6453 103.643 74.9581L26.948 119.224C25.8402 119.858 25.8402 120.893 26.948 121.531Z" fill="#455A64"/>
<path d="M28.0246 51.4326L101.962 8.75259C102.624 8.37107 103.162 8.68364 103.162 9.44669V67.3646C103.139 67.7808 103.018 68.1856 102.81 68.5466C102.601 68.9075 102.311 69.2143 101.962 69.4423L28.0246 112.099C27.3581 112.481 26.8203 112.173 26.8203 111.405V53.4873C26.8459 53.0744 26.9682 52.6732 27.1775 52.3163C27.3867 51.9594 27.6769 51.6567 28.0246 51.4326Z" fill="#FAFAFA"/>
<path d="M33.4519 119.799L104.636 78.6953C104.945 78.5368 105.288 78.4541 105.636 78.4541C105.983 78.4541 106.326 78.5368 106.635 78.6953L110.276 80.796C110.395 80.8379 110.499 80.9159 110.572 81.0193C110.645 81.1226 110.685 81.2462 110.685 81.3729C110.685 81.4995 110.645 81.6231 110.572 81.7264C110.499 81.8298 110.395 81.9078 110.276 81.9497L39.0828 123.048C38.7734 123.207 38.4307 123.29 38.0831 123.29C37.7354 123.29 37.3927 123.207 37.0833 123.048L33.4519 120.952C33.3324 120.91 33.2288 120.832 33.1556 120.729C33.0823 120.626 33.043 120.502 33.043 120.376C33.043 120.249 33.0823 120.125 33.1556 120.022C33.2288 119.919 33.3324 119.841 33.4519 119.799Z" fill="#37474F"/>
<path d="M42.8344 125.217L114.018 84.1187C114.328 83.9623 114.671 83.8809 115.018 83.8809C115.365 83.8809 115.708 83.9623 116.018 84.1187L138.413 97.0491C138.532 97.091 138.636 97.1691 138.709 97.2724C138.782 97.3758 138.822 97.4993 138.822 97.626C138.822 97.7527 138.782 97.8762 138.709 97.9796C138.636 98.0829 138.532 98.1609 138.413 98.2029L67.3116 139.242C67.001 139.399 66.6577 139.481 66.3095 139.481C65.9613 139.481 65.618 139.399 65.3075 139.242L42.839 126.371C42.7171 126.332 42.6107 126.255 42.5351 126.152C42.4595 126.049 42.4185 125.924 42.418 125.796C42.4175 125.668 42.4575 125.543 42.5323 125.439C42.6071 125.335 42.7128 125.258 42.8344 125.217Z" fill="#263238"/>
<path d="M106.646 102.598L108.87 101.315C108.967 101.26 108.962 101.168 108.87 101.109L106.292 99.6193C106.237 99.591 106.176 99.5763 106.115 99.5763C106.053 99.5763 105.992 99.591 105.938 99.6193L103.708 100.906C103.612 100.957 103.616 101.049 103.708 101.109L106.282 102.598C106.339 102.627 106.401 102.642 106.464 102.642C106.527 102.642 106.589 102.627 106.646 102.598ZM102.247 97.4864L100.013 98.7827C99.9161 98.8378 99.9253 98.9298 100.013 98.9895L102.587 100.474C102.642 100.502 102.704 100.517 102.766 100.517C102.828 100.517 102.89 100.502 102.945 100.474L105.175 99.1872C105.267 99.132 105.262 99.0401 105.175 98.9803L102.596 97.4956C102.542 97.4681 102.482 97.4538 102.421 97.4538C102.361 97.4538 102.301 97.4681 102.247 97.4956V97.4864ZM95.0436 101.679L91.2744 103.853C91.1779 103.908 91.1825 104 91.2744 104.06L93.8485 105.549C93.9044 105.576 93.9657 105.59 94.0278 105.59C94.0899 105.59 94.1512 105.576 94.2071 105.549L97.9763 103.375C98.0728 103.32 98.0637 103.228 97.9763 103.168L95.416 101.679C95.3587 101.648 95.2948 101.632 95.2298 101.632C95.1649 101.632 95.1009 101.648 95.0436 101.679ZM98.9876 99.3802L96.7582 100.667C96.6663 100.722 96.6709 100.814 96.7582 100.874L99.3369 102.363C99.392 102.391 99.4525 102.405 99.5139 102.405C99.5753 102.405 99.6358 102.391 99.6909 102.363L101.92 101.076C102.012 101.021 102.008 100.929 101.92 100.874L99.3415 99.3802C99.2868 99.352 99.2261 99.3373 99.1646 99.3373C99.103 99.3373 99.0423 99.352 98.9876 99.3802ZM90.2539 104.437L88.0245 105.719C87.9326 105.774 87.9372 105.866 88.0245 105.926L90.6033 107.415C90.658 107.443 90.7187 107.458 90.7802 107.458C90.8418 107.458 90.9025 107.443 90.9572 107.415L93.1866 106.128C93.2785 106.078 93.2739 105.986 93.1866 105.926L90.5987 104.437C90.544 104.408 90.4833 104.394 90.4217 104.394C90.3601 104.394 90.2995 104.408 90.2447 104.437H90.2539ZM86.9949 106.317L84.7701 107.604C84.6736 107.654 84.6782 107.746 84.7701 107.806L87.3488 109.295C87.4039 109.322 87.4644 109.337 87.5258 109.337C87.5872 109.337 87.6477 109.322 87.7028 109.295L89.9322 108.008C90.0287 107.953 90.0195 107.861 89.9322 107.801L87.358 106.312C87.3011 106.281 87.2374 106.264 87.1724 106.263C87.1075 106.262 87.0434 106.278 86.9857 106.307L86.9949 106.317ZM97.1351 112.366L99.3645 111.079C99.4564 111.024 99.4518 110.932 99.3645 110.872L96.7858 109.387C96.7311 109.359 96.6704 109.344 96.6088 109.344C96.5472 109.344 96.4866 109.359 96.4318 109.387L94.2025 110.674C94.1059 110.729 94.1151 110.821 94.2025 110.881L96.7766 112.366C96.8316 112.391 96.8918 112.403 96.9523 112.402C97.0129 112.4 97.0723 112.385 97.1259 112.357L97.1351 112.366ZM93.8761 114.246L96.1055 112.959C96.202 112.904 96.1928 112.812 96.1055 112.752L93.5313 111.267C93.4758 111.239 93.4144 111.224 93.3521 111.224C93.2898 111.224 93.2283 111.239 93.1728 111.267L90.9434 112.554C90.8515 112.609 90.8561 112.701 90.9434 112.761L93.5222 114.25C93.577 114.274 93.6364 114.285 93.6961 114.283C93.7557 114.28 93.8141 114.265 93.8669 114.237L93.8761 114.246ZM90.6171 116.126L92.8464 114.839C92.943 114.784 92.9384 114.692 92.8464 114.637L90.2723 113.147C90.2176 113.119 90.1569 113.104 90.0953 113.104C90.0338 113.104 89.9731 113.119 89.9184 113.147L87.689 114.434C87.5925 114.489 87.5971 114.581 87.689 114.641L90.2677 116.13C90.3219 116.153 90.3805 116.164 90.4393 116.162C90.4981 116.159 90.5557 116.144 90.6079 116.117L90.6171 116.126ZM87.3626 118.006L89.592 116.719C89.6839 116.668 89.6793 116.576 89.592 116.517L86.9903 115.009C86.9356 114.981 86.8749 114.966 86.8133 114.966C86.7518 114.966 86.6911 114.981 86.6364 115.009L84.407 116.291C84.3104 116.347 84.3196 116.438 84.407 116.498L86.9811 117.988C87.0376 118.02 87.1012 118.037 87.1661 118.039C87.2311 118.04 87.2954 118.026 87.3534 117.997L87.3626 118.006ZM103.396 104.501L105.625 103.214C105.717 103.159 105.712 103.067 105.625 103.007L103.046 101.518C102.991 101.491 102.931 101.476 102.869 101.476C102.808 101.476 102.748 101.491 102.692 101.518L100.463 102.805C100.371 102.86 100.376 102.952 100.463 103.007L103.042 104.496C103.096 104.521 103.155 104.534 103.215 104.533C103.274 104.532 103.333 104.518 103.387 104.492L103.396 104.501ZM100.39 110.477L105.363 107.604C105.46 107.549 105.45 107.457 105.363 107.401L99.0933 103.788C99.0378 103.76 98.9763 103.745 98.914 103.745C98.8517 103.745 98.7903 103.76 98.7348 103.788L96.1652 105.273C96.0687 105.328 96.0733 105.42 96.1652 105.48L99.4748 107.392C99.5806 107.452 99.5851 107.544 99.4748 107.594L97.4201 108.785C97.3236 108.84 97.3282 108.932 97.4201 108.992L99.9988 110.477C100.057 110.51 100.123 110.527 100.19 110.527C100.256 110.527 100.322 110.51 100.38 110.477H100.39ZM83.7405 108.178L81.5111 109.465C81.4146 109.52 81.4237 109.612 81.5111 109.668L84.0852 111.157C84.1407 111.185 84.2022 111.2 84.2645 111.2C84.3268 111.2 84.3882 111.185 84.4438 111.157L86.6685 109.87C86.7651 109.815 86.7605 109.723 86.6685 109.663L84.0898 108.174C84.0331 108.148 83.9712 108.136 83.9089 108.138C83.8467 108.14 83.7858 108.157 83.7313 108.187L83.7405 108.178ZM80.4814 110.058L78.2521 111.345C78.1601 111.4 78.1647 111.492 78.2521 111.552L80.8308 113.037C80.8855 113.065 80.9462 113.08 81.0077 113.08C81.0693 113.08 81.13 113.065 81.1847 113.037L83.4141 111.75C83.506 111.695 83.5014 111.603 83.4141 111.543L80.8354 110.058C80.7787 110.03 80.716 110.016 80.6527 110.017C80.5893 110.019 80.5274 110.036 80.4722 110.067L80.4814 110.058ZM64.2047 131.148C64.2597 131.175 64.3203 131.189 64.3816 131.189C64.443 131.189 64.5036 131.175 64.5586 131.148L66.788 129.861C66.8845 129.806 66.8799 129.714 66.788 129.658L64.2139 128.169C64.158 128.142 64.0967 128.128 64.0346 128.128C63.9725 128.128 63.9112 128.142 63.8553 128.169L61.6305 129.456C61.534 129.511 61.5386 129.603 61.6305 129.663L64.2047 131.148ZM54.4138 125.122L52.1844 126.409C52.0925 126.464 52.0971 126.556 52.1844 126.615L54.7631 128.1C54.8178 128.128 54.8785 128.143 54.9401 128.143C55.0017 128.143 55.0623 128.128 55.1171 128.1L57.3464 126.813C57.4384 126.758 57.4338 126.666 57.3464 126.606L54.7677 125.122C54.713 125.093 54.6523 125.079 54.5907 125.079C54.5292 125.079 54.4685 125.093 54.4138 125.122ZM59.6586 129.534C59.7136 129.561 59.7742 129.576 59.8355 129.576C59.8969 129.576 59.9575 129.561 60.0125 129.534L62.2419 128.247C62.3338 128.192 62.3292 128.1 62.2419 128.04L59.6632 126.551C59.6084 126.523 59.5478 126.508 59.4862 126.508C59.4246 126.508 59.3639 126.523 59.3092 126.551L57.0798 127.838C56.9879 127.893 56.9925 127.981 57.0798 128.04L59.6586 129.534ZM69.9459 132.292L72.1753 131.005C72.2718 130.955 72.2626 130.863 72.1753 130.803L69.6011 129.314C69.5456 129.285 69.4842 129.271 69.4219 129.271C69.3596 129.271 69.2981 129.285 69.2426 129.314L67.0132 130.596C66.9213 130.651 66.9259 130.743 67.0132 130.803L69.5919 132.292C69.6463 132.321 69.7068 132.337 69.7684 132.338C69.8299 132.338 69.8908 132.324 69.9459 132.297V132.292ZM66.3329 134.168C66.3888 134.195 66.4501 134.209 66.5122 134.209C66.5743 134.209 66.6356 134.195 66.6915 134.168L68.9162 132.881C69.0128 132.826 69.0082 132.734 68.9162 132.674L66.3375 131.185C66.2828 131.156 66.2221 131.142 66.1605 131.142C66.099 131.142 66.0383 131.156 65.9836 131.185L63.745 132.476C63.6485 132.527 63.6531 132.619 63.745 132.678L66.3329 134.168ZM57.6728 123.228L55.4434 124.515C55.3469 124.57 55.3515 124.662 55.4434 124.717L58.0176 126.206C58.0723 126.235 58.133 126.249 58.1945 126.249C58.2561 126.249 58.3168 126.235 58.3715 126.206L60.6009 124.919C60.6974 124.864 60.6928 124.772 60.6009 124.712L58.0221 123.223C57.967 123.198 57.9069 123.186 57.8464 123.188C57.7859 123.189 57.7265 123.204 57.6728 123.232V123.228ZM73.9588 113.823L71.7294 115.11C71.6329 115.165 71.6421 115.257 71.7294 115.317L74.3035 116.802C74.3591 116.83 74.4205 116.845 74.4828 116.845C74.5451 116.845 74.6065 116.83 74.6621 116.802L76.8914 115.515C76.9834 115.459 76.9788 115.367 76.8914 115.308L74.3127 113.823C74.2576 113.795 74.1968 113.781 74.1352 113.782C74.0736 113.783 74.0131 113.799 73.9588 113.828V113.823ZM60.941 121.352L58.7116 122.639C58.6197 122.694 58.6243 122.786 58.7116 122.842L61.2904 124.331C61.3451 124.359 61.4058 124.374 61.4674 124.374C61.5289 124.374 61.5896 124.359 61.6443 124.331L63.8737 123.044C63.9702 122.989 63.961 122.897 63.8737 122.837L61.2996 121.348C61.2434 121.321 61.1819 121.308 61.1198 121.309C61.0576 121.309 60.9965 121.324 60.941 121.352ZM77.227 111.947L75.0022 113.235C74.9057 113.29 74.9103 113.382 75.0022 113.441L77.5809 114.926C77.6357 114.954 77.6963 114.969 77.7579 114.969C77.8195 114.969 77.8802 114.954 77.9349 114.926L80.1643 113.639C80.2608 113.584 80.2562 113.492 80.1643 113.432L77.5901 111.947C77.5323 111.916 77.4675 111.9 77.4017 111.9C77.3358 111.9 77.2711 111.916 77.2132 111.947H77.227ZM70.7135 115.708L68.4842 116.995C68.3922 117.05 68.3968 117.142 68.4842 117.201L71.0537 118.686C71.1087 118.713 71.1693 118.727 71.2306 118.727C71.292 118.727 71.3526 118.713 71.4076 118.686L73.637 117.399C73.7335 117.344 73.7243 117.252 73.637 117.197L71.0537 115.717C70.9997 115.687 70.9394 115.671 70.8778 115.669C70.8163 115.668 70.7552 115.681 70.6997 115.708H70.7135ZM67.4591 117.588L65.2297 118.875C65.1332 118.93 65.1378 119.022 65.2297 119.082L67.8084 120.571C67.8632 120.599 67.9238 120.614 67.9854 120.614C68.047 120.614 68.1077 120.599 68.1624 120.571L70.3918 119.284C70.4883 119.229 70.4837 119.137 70.3918 119.082L67.813 117.592C67.7566 117.562 67.6937 117.546 67.6297 117.545C67.5657 117.544 67.5025 117.559 67.4453 117.588H67.4591ZM64.2001 119.472L61.9707 120.759C61.8742 120.81 61.8833 120.902 61.9707 120.962L64.5448 122.451C64.6003 122.479 64.6618 122.494 64.7241 122.494C64.7864 122.494 64.8478 122.479 64.9033 122.451L67.1327 121.168C67.2247 121.113 67.2201 121.021 67.1327 120.962L64.554 119.472C64.4975 119.442 64.4344 119.426 64.3701 119.426C64.3059 119.426 64.2427 119.442 64.1863 119.472H64.2001ZM80.8492 121.771L83.0785 120.483C83.1751 120.428 83.1705 120.336 83.0785 120.277L80.4998 118.787C80.4448 118.76 80.3842 118.746 80.3228 118.746C80.2615 118.746 80.2009 118.76 80.1459 118.787L77.9165 120.074C77.82 120.13 77.8246 120.221 77.9165 120.277L80.4952 121.766C80.5485 121.791 80.6069 121.804 80.6658 121.803C80.7248 121.802 80.7828 121.788 80.8354 121.761L80.8492 121.771ZM109.459 93.3494L107.229 94.6365C107.137 94.6916 107.142 94.7836 107.229 94.8387L109.808 96.328C109.863 96.3563 109.924 96.371 109.985 96.371C110.047 96.371 110.107 96.3563 110.162 96.328L112.391 95.041C112.488 94.9858 112.479 94.8939 112.391 94.8341L109.817 93.3448C109.76 93.3147 109.696 93.2985 109.632 93.2977C109.567 93.2969 109.503 93.3115 109.445 93.3402L109.459 93.3494ZM105.515 95.6248L103.29 96.9118C103.194 96.967 103.198 97.0589 103.29 97.1187L105.869 98.6034C105.924 98.6316 105.984 98.6463 106.046 98.6463C106.107 98.6463 106.168 98.6316 106.223 98.6034L108.452 97.3163C108.549 97.2612 108.544 97.1692 108.452 97.1095L105.878 95.6248C105.821 95.592 105.757 95.5739 105.691 95.5723C105.625 95.5707 105.56 95.5856 105.501 95.6156L105.515 95.6248ZM112.718 91.4878L110.488 92.7748C110.392 92.8254 110.401 92.9173 110.488 92.9771L113.063 94.4664C113.118 94.4936 113.18 94.5078 113.242 94.5078C113.304 94.5078 113.365 94.4936 113.421 94.4664L115.65 93.1793C115.742 93.1242 115.738 93.0322 115.65 92.9725L113.072 91.4832C113.017 91.449 112.955 91.429 112.891 91.425C112.827 91.421 112.762 91.4331 112.704 91.4602L112.718 91.4878ZM95.8573 108.872L98.0866 107.585C98.1786 107.53 98.174 107.438 98.0866 107.378L95.5079 105.894C95.4532 105.865 95.3925 105.851 95.3309 105.851C95.2694 105.851 95.2087 105.865 95.154 105.894L92.9246 107.181C92.8327 107.236 92.8372 107.328 92.9246 107.388L95.5033 108.872C95.5583 108.894 95.6176 108.903 95.6766 108.898C95.7356 108.893 95.7927 108.875 95.8435 108.845L95.8573 108.872ZM116.331 89.6123C116.275 89.5841 116.214 89.5693 116.151 89.5693C116.089 89.5693 116.028 89.5841 115.972 89.6123L113.747 90.8948C113.651 90.95 113.656 91.0419 113.747 91.1017L116.326 92.591C116.381 92.6192 116.442 92.6339 116.503 92.6339C116.565 92.6339 116.625 92.6192 116.68 92.591L118.909 91.3039C119.006 91.2533 119.001 91.1614 118.909 91.1017L116.331 89.6123ZM84.1082 119.904L86.3376 118.622C86.4341 118.567 86.4249 118.475 86.3376 118.415L83.7634 116.926C83.7079 116.897 83.6465 116.883 83.5842 116.883C83.5219 116.883 83.4604 116.897 83.4049 116.926L81.1663 118.181C81.0744 118.231 81.079 118.323 81.1663 118.383L83.7451 119.872C83.7988 119.9 83.8585 119.915 83.9192 119.916C83.9799 119.917 84.0399 119.903 84.0944 119.877L84.1082 119.904ZM124.053 96.8429L126.283 95.5558C126.379 95.5007 126.37 95.4087 126.283 95.3536L123.708 93.8642C123.653 93.836 123.591 93.8213 123.529 93.8213C123.467 93.8213 123.405 93.836 123.35 93.8642L121.125 95.1513C121.029 95.2065 121.033 95.2984 121.125 95.3582L123.704 96.8475C123.759 96.8669 123.817 96.874 123.875 96.8685C123.933 96.8629 123.989 96.8448 124.039 96.8153L124.053 96.8429ZM117.117 96.5993L119.346 95.3122C119.438 95.257 119.434 95.1651 119.346 95.1053L116.767 93.6206C116.713 93.5924 116.652 93.5777 116.59 93.5777C116.529 93.5777 116.468 93.5924 116.414 93.6206L114.184 94.9077C114.088 94.9628 114.097 95.0548 114.184 95.1145L116.758 96.5993C116.814 96.6211 116.874 96.6299 116.934 96.6252C116.994 96.6204 117.051 96.6021 117.103 96.5717L117.117 96.5993ZM120.013 91.7406C119.957 91.7123 119.896 91.6976 119.833 91.6976C119.771 91.6976 119.71 91.7123 119.654 91.7406L117.429 93.0276C117.333 93.0828 117.337 93.1747 117.429 93.2345L120.008 94.7192C120.063 94.7474 120.124 94.7622 120.185 94.7622C120.247 94.7622 120.307 94.7474 120.362 94.7192L122.591 93.4322C122.688 93.377 122.683 93.2851 122.591 93.2253L120.013 91.7406ZM120.698 91.3407L126.958 94.9583C127.013 94.9854 127.074 94.9995 127.135 94.9995C127.197 94.9995 127.257 94.9854 127.312 94.9583L129.542 93.6712C129.634 93.616 129.629 93.5241 129.542 93.4689L123.281 89.8514C123.226 89.8242 123.165 89.8101 123.104 89.8101C123.043 89.8101 122.982 89.8242 122.927 89.8514L120.698 91.1384C120.578 91.166 120.583 91.2579 120.698 91.3131V91.3407ZM113.141 95.4777L110.911 96.7647C110.819 96.8199 110.824 96.9118 110.911 96.9716L113.49 98.4563C113.545 98.4845 113.605 98.4993 113.667 98.4993C113.729 98.4993 113.789 98.4845 113.844 98.4563L116.073 97.1692C116.17 97.1141 116.161 97.0221 116.073 96.9624L113.499 95.4777C113.443 95.4449 113.38 95.4266 113.315 95.4242C113.25 95.4218 113.185 95.4354 113.127 95.4639L113.141 95.4777ZM88.6129 109.617L86.3835 110.904C86.287 110.959 86.2962 111.051 86.3835 111.111L88.9577 112.6C89.0132 112.628 89.0746 112.643 89.1369 112.643C89.1992 112.643 89.2607 112.628 89.3162 112.6L91.541 111.313C91.6375 111.258 91.6329 111.171 91.541 111.111L88.9807 109.626C88.9246 109.595 88.8619 109.578 88.7979 109.577C88.7339 109.575 88.6705 109.589 88.6129 109.617ZM120.426 98.6907C120.482 98.719 120.543 98.7337 120.606 98.7337C120.668 98.7337 120.729 98.719 120.785 98.6907L123.014 97.4037C123.106 97.3531 123.102 97.2612 123.014 97.2014L120.422 95.7029C120.367 95.6757 120.306 95.6616 120.245 95.6616C120.183 95.6616 120.123 95.6757 120.068 95.7029L117.838 96.99C117.742 97.0451 117.751 97.1371 117.838 97.1968L120.426 98.6907ZM91.8674 107.737L89.6426 109.024C89.546 109.079 89.5506 109.171 89.6426 109.231L92.2213 110.72C92.2763 110.747 92.3369 110.761 92.3983 110.761C92.4596 110.761 92.5202 110.747 92.5752 110.72L94.8046 109.433C94.9011 109.378 94.8966 109.286 94.8046 109.231L92.2305 107.742C92.1747 107.712 92.1127 107.696 92.0495 107.695C91.9863 107.694 91.9238 107.709 91.8674 107.737ZM67.4545 129.259C67.5095 129.286 67.5701 129.3 67.6315 129.3C67.6928 129.3 67.7534 129.286 67.8084 129.259L70.0378 127.971C70.1298 127.916 70.1252 127.824 70.0378 127.769L67.4591 126.28C67.4044 126.252 67.3437 126.237 67.2821 126.237C67.2206 126.237 67.1599 126.252 67.1052 126.28L64.8758 127.567C64.7838 127.622 64.7884 127.714 64.8758 127.774L67.4545 129.259ZM62.5545 124.662L60.3251 125.944C60.2286 125.999 60.2331 126.091 60.3251 126.151L62.8992 127.64C62.9547 127.669 63.0162 127.683 63.0785 127.683C63.1408 127.683 63.2022 127.669 63.2577 127.64L65.4825 126.353C65.5791 126.303 65.5745 126.211 65.4825 126.151L62.9084 124.662C62.8537 124.634 62.793 124.619 62.7314 124.619C62.6699 124.619 62.6092 124.634 62.5545 124.662ZM71.0537 127.42L73.2785 126.133C73.375 126.078 73.3704 125.986 73.2785 125.926L70.6997 124.441C70.645 124.413 70.5843 124.398 70.5228 124.398C70.4612 124.398 70.4005 124.413 70.3458 124.441L68.1164 125.728C68.0199 125.783 68.0245 125.875 68.1164 125.935L70.6905 127.42C70.7467 127.449 70.8089 127.464 70.8721 127.464C70.9353 127.464 70.9976 127.449 71.0537 127.42ZM74.3081 125.54L76.5375 124.253C76.634 124.198 76.6248 124.106 76.5375 124.046L73.9634 122.561C73.9078 122.533 73.8464 122.518 73.7841 122.518C73.7218 122.518 73.6604 122.533 73.6048 122.561L71.3754 123.848C71.2835 123.903 71.2881 123.995 71.3754 124.055L73.9542 125.54C74.0121 125.568 74.0762 125.58 74.1404 125.577C74.2046 125.574 74.267 125.555 74.3219 125.521L74.3081 125.54ZM77.5671 123.66L79.7965 122.373C79.8885 122.318 79.8839 122.226 79.7965 122.166L77.2178 120.677C77.1628 120.649 77.1022 120.635 77.0408 120.635C76.9795 120.635 76.9189 120.649 76.8639 120.677L74.6345 121.964C74.5379 122.019 74.5471 122.111 74.6345 122.166L77.2086 123.655C77.267 123.684 77.3316 123.697 77.3965 123.695C77.4614 123.693 77.5248 123.674 77.5809 123.641L77.5671 123.66ZM65.7951 122.8L63.5657 124.087C63.4738 124.142 63.4784 124.234 63.5657 124.294L66.1445 125.783C66.1995 125.811 66.26 125.825 66.3214 125.825C66.3828 125.825 66.4433 125.811 66.4984 125.783L68.7278 124.496C68.8243 124.441 68.8151 124.349 68.7278 124.294L66.1536 122.805C66.1013 122.776 66.0434 122.759 65.9838 122.755C65.9243 122.751 65.8646 122.76 65.8089 122.782L65.7951 122.8ZM69.0541 120.92L66.8248 122.207C66.7282 122.262 66.7374 122.354 66.8248 122.414L69.3989 123.903C69.4547 123.931 69.516 123.945 69.5782 123.945C69.6403 123.945 69.7016 123.931 69.7574 123.903L71.9868 122.616C72.0787 122.561 72.0741 122.469 71.9868 122.414L69.4081 120.925C69.3569 120.895 69.2996 120.878 69.2407 120.874C69.1817 120.87 69.1226 120.879 69.0679 120.902L69.0541 120.92ZM82.0857 113.382L79.8609 114.669C79.7644 114.724 79.7689 114.816 79.8609 114.871L82.4396 116.36C82.4943 116.389 82.555 116.403 82.6166 116.403C82.6781 116.403 82.7388 116.389 82.7935 116.36L85.0229 115.073C85.1195 115.018 85.1149 114.926 85.0229 114.866L82.4488 113.377C82.392 113.35 82.3297 113.336 82.2667 113.337C82.2037 113.338 82.1418 113.353 82.0857 113.382ZM78.8312 115.262L76.6019 116.549C76.5053 116.604 76.5145 116.696 76.6019 116.751L79.176 118.24C79.2315 118.269 79.2929 118.283 79.3552 118.283C79.4176 118.283 79.479 118.269 79.5345 118.24L81.7639 116.953C81.8558 116.898 81.8512 116.806 81.7639 116.746L79.1852 115.257C79.131 115.232 79.0719 115.22 79.0123 115.22C78.9526 115.221 78.8939 115.235 78.8404 115.262H78.8312ZM85.3447 111.502L83.1153 112.789C83.0234 112.839 83.028 112.931 83.1153 112.991L85.694 114.48C85.7488 114.508 85.8094 114.523 85.871 114.523C85.9326 114.523 85.9933 114.508 86.048 114.48L88.2774 113.198C88.3693 113.143 88.3647 113.051 88.2774 112.991L85.6986 111.502C85.6451 111.475 85.5861 111.461 85.5263 111.461C85.4664 111.461 85.4074 111.475 85.3539 111.502H85.3447ZM72.3178 119.022L70.0884 120.309C69.9919 120.364 69.9964 120.456 70.0884 120.516L72.6671 122C72.7218 122.029 72.7825 122.043 72.8441 122.043C72.9057 122.043 72.9663 122.029 73.0211 122L75.2504 120.713C75.347 120.658 75.3424 120.566 75.2504 120.506L72.6717 119.022C72.6182 118.995 72.5592 118.981 72.4993 118.981C72.4395 118.981 72.3805 118.995 72.327 119.022H72.3178ZM75.5722 117.142L73.3428 118.429C73.2509 118.484 73.2555 118.576 73.3428 118.636L75.9215 120.12C75.9763 120.149 76.0369 120.163 76.0985 120.163C76.1601 120.163 76.2208 120.149 76.2755 120.12L78.5049 118.833C78.6014 118.778 78.5922 118.686 78.5049 118.626L75.9261 117.142C75.8726 117.115 75.8136 117.101 75.7538 117.101C75.6939 117.101 75.6349 117.115 75.5814 117.142H75.5722ZM73.1957 130.417L75.4251 129.13C75.517 129.075 75.5124 128.983 75.4251 128.928L72.8418 127.42C72.7871 127.392 72.7264 127.377 72.6648 127.377C72.6032 127.377 72.5426 127.392 72.4878 127.42L70.2585 128.707C70.1619 128.762 70.1711 128.854 70.2585 128.914L72.8326 130.403C72.8891 130.435 72.9524 130.452 73.0171 130.455C73.0818 130.457 73.1462 130.444 73.2049 130.417H73.1957ZM54.0782 128.486L51.5041 127.002C51.4486 126.973 51.3871 126.959 51.3248 126.959C51.2625 126.959 51.2011 126.973 51.1456 127.002L48.9162 128.289C48.8242 128.344 48.8288 128.436 48.9162 128.495L51.4949 129.98C51.5496 130.008 51.6103 130.023 51.6719 130.023C51.7334 130.023 51.7941 130.008 51.8488 129.98L54.0782 128.693C54.1977 128.638 54.1885 128.546 54.0874 128.486H54.0782ZM58.9599 129.92L56.3857 128.431C56.3299 128.404 56.2686 128.39 56.2065 128.39C56.1443 128.39 56.083 128.404 56.0272 128.431L52.5981 130.408C52.5062 130.463 52.5108 130.555 52.5981 130.615L55.1768 132.104C55.2315 132.132 55.2922 132.147 55.3538 132.147C55.4154 132.147 55.476 132.132 55.5308 132.104L58.9599 130.127C59.1024 130.072 59.0702 129.98 58.9691 129.92H58.9599ZM50.1251 125.613L47.551 124.124C47.4954 124.096 47.434 124.081 47.3717 124.081C47.3094 124.081 47.248 124.096 47.1924 124.124L44.4344 125.71C44.3425 125.765 44.3471 125.857 44.4344 125.912L47.0132 127.401C47.0679 127.43 47.1286 127.444 47.1901 127.444C47.2517 127.444 47.3124 127.43 47.3671 127.401L50.1251 125.816C50.2446 125.76 50.2354 125.669 50.1343 125.613H50.1251ZM52.2304 124.395C52.2851 124.423 52.3458 124.438 52.4073 124.438C52.4689 124.438 52.5296 124.423 52.5843 124.395L54.8137 123.108C54.9056 123.053 54.901 122.961 54.8137 122.901L52.2304 121.444C52.1756 121.416 52.115 121.401 52.0534 121.401C51.9918 121.401 51.9311 121.416 51.8764 121.444L49.647 122.731C49.5551 122.786 49.5597 122.878 49.647 122.938L52.2304 124.395ZM63.5106 131.557L60.941 130.063C60.8863 130.035 60.8256 130.02 60.7641 130.02C60.7025 130.02 60.6418 130.035 60.5871 130.063L56.2984 132.536C56.2065 132.591 56.2111 132.683 56.2984 132.743L58.8771 134.228C58.9319 134.256 58.9925 134.27 59.0541 134.27C59.1157 134.27 59.1764 134.256 59.2311 134.228L63.5152 131.755C63.6163 131.704 63.6117 131.612 63.5106 131.557ZM65.648 134.572L63.0693 133.083C63.0142 133.056 62.9537 133.042 62.8923 133.042C62.8309 133.042 62.7704 133.056 62.7153 133.083L59.9573 134.664C59.8654 134.719 59.87 134.811 59.9573 134.871L62.5361 136.36C62.5911 136.388 62.6517 136.402 62.713 136.402C62.7744 136.402 62.835 136.388 62.89 136.36L65.648 134.779C65.7537 134.719 65.7491 134.627 65.648 134.568V134.572ZM76.4548 110.412C76.5106 110.439 76.5719 110.454 76.634 110.454C76.6961 110.454 76.7575 110.439 76.8133 110.412L79.0427 109.125C79.1346 109.07 79.13 108.978 79.0427 108.923L76.464 107.434C76.4092 107.405 76.3485 107.391 76.287 107.391C76.2254 107.391 76.1647 107.405 76.11 107.434L73.8806 108.721C73.7841 108.776 73.7933 108.868 73.8806 108.927L76.4548 110.412ZM69.9413 114.172C69.9968 114.201 70.0583 114.215 70.1206 114.215C70.1829 114.215 70.2443 114.201 70.2998 114.172L72.5246 112.885C72.6211 112.835 72.6165 112.743 72.5246 112.683L69.9459 111.194C69.8908 111.166 69.8303 111.152 69.7689 111.152C69.7075 111.152 69.647 111.166 69.5919 111.194L67.3764 112.481C67.2798 112.536 67.2844 112.628 67.3764 112.688L69.9413 114.172ZM55.494 122.511C55.5495 122.539 55.6109 122.554 55.6733 122.554C55.7356 122.554 55.797 122.539 55.8525 122.511L58.0773 121.224C58.1738 121.168 58.1692 121.076 58.0773 121.017L55.4986 119.532C55.4439 119.504 55.3832 119.489 55.3216 119.489C55.26 119.489 55.1994 119.504 55.1446 119.532L52.9153 120.819C52.8187 120.874 52.8279 120.966 52.9153 121.026L55.494 122.511ZM73.2003 112.292C73.2554 112.319 73.3159 112.334 73.3773 112.334C73.4387 112.334 73.4992 112.319 73.5543 112.292L75.7836 111.005C75.8802 110.95 75.871 110.858 75.7836 110.803L73.2095 109.314C73.154 109.285 73.0926 109.271 73.0302 109.271C72.9679 109.271 72.9065 109.285 72.851 109.314L70.6216 110.601C70.5297 110.656 70.5343 110.748 70.6216 110.808L73.2003 112.292ZM66.6869 116.052C66.7416 116.081 66.8023 116.095 66.8638 116.095C66.9254 116.095 66.9861 116.081 67.0408 116.052L69.2702 114.77C69.3621 114.715 69.3575 114.623 69.2702 114.563L66.6915 113.074C66.6367 113.045 66.5761 113.031 66.5145 113.031C66.4529 113.031 66.3922 113.045 66.3375 113.074L64.1081 114.361C64.0162 114.411 64.0208 114.503 64.1081 114.563L66.6869 116.052ZM67.4407 134.807C67.3852 134.778 67.3237 134.764 67.2614 134.764C67.1991 134.764 67.1377 134.778 67.0822 134.807L63.6531 136.788C63.5611 136.843 63.5657 136.935 63.6531 136.99L66.2318 138.479C66.2865 138.508 66.3472 138.522 66.4088 138.522C66.4703 138.522 66.531 138.508 66.5857 138.479L70.0148 136.498C70.1068 136.443 70.1022 136.351 70.0148 136.291L67.4407 134.807ZM62.0121 118.751C62.0671 118.778 62.1276 118.792 62.189 118.792C62.2504 118.792 62.311 118.778 62.366 118.751L64.5954 117.463C64.6873 117.408 64.6827 117.316 64.5954 117.257L62.0166 115.767C61.9616 115.74 61.9011 115.726 61.8397 115.726C61.7783 115.726 61.7178 115.74 61.6627 115.767L59.4333 117.054C59.3414 117.11 59.346 117.201 59.4333 117.257L62.0121 118.751ZM58.753 120.631C58.8077 120.659 58.8684 120.674 58.93 120.674C58.9916 120.674 59.0522 120.659 59.107 120.631L61.3363 119.344C61.4329 119.288 61.4283 119.196 61.3363 119.137L58.7622 117.647C58.7064 117.62 58.6451 117.606 58.5829 117.606C58.5208 117.606 58.4595 117.62 58.4037 117.647L56.1789 118.934C56.0824 118.99 56.087 119.082 56.1789 119.137L58.753 120.631ZM127.786 99.9456C127.731 99.9174 127.67 99.9027 127.609 99.9027C127.547 99.9027 127.486 99.9174 127.432 99.9456L121.943 103.113C121.851 103.168 121.856 103.26 121.943 103.32L124.522 104.809C124.577 104.836 124.638 104.85 124.699 104.85C124.76 104.85 124.821 104.836 124.876 104.809L130.374 101.679C130.47 101.623 130.465 101.531 130.374 101.476L127.786 99.9456ZM120.583 104.083C120.528 104.055 120.467 104.041 120.406 104.041C120.344 104.041 120.284 104.055 120.229 104.083L117.999 105.37C117.907 105.425 117.912 105.517 117.999 105.572L120.578 107.061C120.633 107.088 120.694 107.103 120.755 107.103C120.816 107.103 120.877 107.088 120.932 107.061L123.161 105.774C123.253 105.719 123.249 105.627 123.161 105.567L120.583 104.083ZM76.4548 128.495L78.6841 127.208C78.7807 127.153 78.7761 127.061 78.6841 127.006L76.11 125.581C76.0553 125.553 75.9946 125.538 75.933 125.538C75.8715 125.538 75.8108 125.553 75.7561 125.581L73.5267 126.868C73.4302 126.923 73.4348 127.015 73.5267 127.075L76.1054 128.564C76.1625 128.587 76.2242 128.597 76.2856 128.592C76.347 128.587 76.4065 128.568 76.4594 128.537L76.4548 128.495ZM114.065 107.847C114.01 107.819 113.949 107.804 113.888 107.804C113.826 107.804 113.765 107.819 113.711 107.847L111.481 109.134C111.385 109.19 111.394 109.281 111.481 109.341L114.055 110.826C114.111 110.854 114.172 110.869 114.235 110.869C114.297 110.869 114.358 110.854 114.414 110.826L116.643 109.539C116.735 109.484 116.731 109.392 116.643 109.332L114.065 107.847ZM131.04 98.0472C130.985 98.0189 130.923 98.0042 130.861 98.0042C130.799 98.0042 130.737 98.0189 130.682 98.0472L128.452 99.3343C128.36 99.3894 128.365 99.4814 128.452 99.5411L131.031 101.026C131.086 101.054 131.146 101.069 131.208 101.069C131.269 101.069 131.33 101.054 131.385 101.026L133.614 99.7388C133.711 99.6836 133.702 99.5917 133.614 99.5319L131.04 98.0472ZM136.873 97.6519L130.613 94.0389C130.558 94.0107 130.497 93.996 130.436 93.996C130.374 93.996 130.313 94.0107 130.259 94.0389L128.029 95.326C127.933 95.3765 127.942 95.4685 128.029 95.5282L134.285 99.1412C134.341 99.1695 134.402 99.1842 134.465 99.1842C134.527 99.1842 134.588 99.1695 134.644 99.1412L136.873 97.8541C136.984 97.8449 136.979 97.753 136.878 97.6933L136.873 97.6519ZM101.893 114.871C101.838 114.844 101.777 114.83 101.716 114.83C101.654 114.83 101.594 114.844 101.539 114.871L98.7807 116.452C98.6842 116.507 98.6934 116.599 98.7807 116.659L101.355 118.148C101.411 118.176 101.472 118.19 101.534 118.19C101.596 118.19 101.658 118.176 101.713 118.148L104.471 116.567C104.563 116.512 104.559 116.42 104.471 116.36L101.893 114.871ZM110.125 110.164C110.071 110.136 110.01 110.121 109.948 110.121C109.887 110.121 109.826 110.136 109.771 110.164L106.342 112.145C106.25 112.2 106.255 112.292 106.342 112.352L108.921 113.837C108.976 113.865 109.036 113.88 109.098 113.88C109.16 113.88 109.22 113.865 109.275 113.837L112.704 111.856C112.796 111.8 112.791 111.708 112.704 111.653L110.125 110.164ZM94.3541 119.27C94.2994 119.242 94.2387 119.227 94.1772 119.227C94.1156 119.227 94.0549 119.242 94.0002 119.27L75.6549 129.842C75.5584 129.897 75.5676 129.989 75.6549 130.049L78.2291 131.538C78.2849 131.566 78.3462 131.58 78.4083 131.58C78.4705 131.58 78.5318 131.566 78.5876 131.538L96.9283 120.966C97.0248 120.911 97.0202 120.819 96.9283 120.764L94.3541 119.27ZM74.9838 130.454C74.9283 130.425 74.8669 130.411 74.8046 130.411C74.7422 130.411 74.6808 130.425 74.6253 130.454L71.8673 132.035C71.7754 132.09 71.78 132.182 71.8673 132.242L74.446 133.726C74.5007 133.755 74.5614 133.769 74.623 133.769C74.6846 133.769 74.7452 133.755 74.8 133.726L77.5579 132.141C77.6545 132.09 77.6453 131.998 77.5579 131.938L74.9838 130.454ZM98.128 117.091C98.0725 117.063 98.011 117.048 97.9487 117.048C97.8864 117.048 97.825 117.063 97.7695 117.091L95.0115 118.672C94.9149 118.728 94.9195 118.82 95.0115 118.879L97.5902 120.364C97.6449 120.392 97.7056 120.407 97.7672 120.407C97.8287 120.407 97.8894 120.392 97.9441 120.364L100.702 118.778C100.799 118.728 100.789 118.636 100.702 118.576L98.128 117.091ZM71.21 132.632C71.1552 132.604 71.0946 132.59 71.033 132.59C70.9714 132.59 70.9108 132.604 70.856 132.632L68.098 134.218C68.0015 134.273 68.0107 134.365 68.098 134.425L70.6722 135.91C70.7277 135.938 70.7891 135.953 70.8514 135.953C70.9137 135.953 70.9752 135.938 71.0307 135.91L73.7887 134.324C73.8852 134.269 73.8806 134.177 73.7887 134.122L71.21 132.632ZM105.685 112.738C105.629 112.71 105.568 112.695 105.506 112.695C105.443 112.695 105.382 112.71 105.326 112.738L102.568 114.324C102.472 114.379 102.476 114.471 102.568 114.526L105.147 116.016C105.202 116.043 105.263 116.057 105.324 116.057C105.385 116.057 105.446 116.043 105.501 116.016L108.259 114.43C108.356 114.375 108.346 114.283 108.259 114.223L105.685 112.738ZM117.342 106.004C117.286 105.977 117.225 105.963 117.163 105.963C117.101 105.963 117.039 105.977 116.984 106.004L114.759 107.291C114.662 107.346 114.667 107.438 114.759 107.493L117.337 108.983C117.392 109.011 117.453 109.026 117.514 109.026C117.576 109.026 117.637 109.011 117.691 108.983L119.921 107.696C120.017 107.64 120.013 107.549 119.921 107.489L117.342 106.004ZM124.481 100.824L126.705 99.5365C126.802 99.4814 126.797 99.3894 126.705 99.3297L124.127 97.845C124.072 97.8167 124.011 97.802 123.95 97.802C123.888 97.802 123.827 97.8167 123.773 97.845L121.543 99.132C121.447 99.1872 121.451 99.2791 121.543 99.3389L124.118 100.824C124.172 100.85 124.232 100.864 124.292 100.864C124.353 100.864 124.413 100.85 124.467 100.824H124.481ZM109.914 100.727L112.143 99.44C112.24 99.3894 112.231 99.2975 112.143 99.2377L109.569 97.7484C109.513 97.7212 109.452 97.707 109.39 97.707C109.328 97.707 109.266 97.7212 109.211 97.7484L106.981 99.0355C106.889 99.0906 106.894 99.1826 106.981 99.2423L109.56 100.732C109.613 100.757 109.672 100.77 109.731 100.769C109.789 100.768 109.847 100.754 109.9 100.727H109.914ZM102.559 113.492L109.073 109.732C109.165 109.677 109.16 109.585 109.073 109.525L106.448 108.036C106.393 108.009 106.332 107.994 106.271 107.994C106.21 107.994 106.149 108.009 106.094 108.036L99.576 111.791C99.4794 111.846 99.484 111.938 99.576 111.998L102.15 113.483C102.207 113.515 102.27 113.532 102.335 113.534C102.4 113.536 102.464 113.521 102.522 113.492H102.559ZM120.891 102.694C120.945 102.723 121.006 102.737 121.068 102.737C121.129 102.737 121.19 102.723 121.245 102.694L123.474 101.407C123.566 101.352 123.561 101.26 123.474 101.201L120.895 99.7158C120.841 99.6876 120.78 99.6728 120.718 99.6728C120.657 99.6728 120.596 99.6876 120.541 99.7158L118.312 101.003C118.22 101.058 118.225 101.15 118.312 101.21L120.891 102.694ZM117.563 100.58L119.792 99.2929C119.884 99.2377 119.879 99.1458 119.792 99.086L117.213 97.5967C117.159 97.5685 117.098 97.5538 117.036 97.5538C116.975 97.5538 116.914 97.5685 116.859 97.5967L114.63 98.8838C114.538 98.9344 114.543 99.0263 114.63 99.086L117.209 100.575C117.258 100.598 117.312 100.61 117.367 100.61C117.421 100.611 117.476 100.601 117.526 100.58H117.563ZM99.3002 115.372L101.53 114.085C101.621 114.03 101.617 113.938 101.53 113.883L98.9508 112.393C98.8961 112.365 98.8354 112.35 98.7738 112.35C98.7123 112.35 98.6516 112.365 98.5969 112.393L96.3675 113.68C96.2756 113.736 96.2802 113.828 96.3675 113.887L98.9462 115.377C98.9966 115.398 99.0507 115.408 99.1053 115.407C99.1598 115.406 99.2136 115.394 99.2634 115.372H99.3002ZM113.688 106.854C113.742 106.883 113.803 106.897 113.865 106.897C113.926 106.897 113.987 106.883 114.042 106.854L116.271 105.567C116.368 105.512 116.363 105.42 116.271 105.365L113.692 103.876C113.637 103.849 113.577 103.834 113.515 103.834C113.454 103.834 113.393 103.849 113.338 103.876L111.109 105.163C111.012 105.218 111.017 105.31 111.109 105.37L113.688 106.854ZM83.0142 124.781L85.2436 123.494C85.3355 123.439 85.3309 123.347 85.2436 123.287L82.6648 121.803C82.6101 121.775 82.5494 121.76 82.4879 121.76C82.4263 121.76 82.3656 121.775 82.3109 121.803L80.0815 123.09C79.985 123.145 79.9942 123.237 80.0815 123.297L82.6557 124.781C82.7066 124.803 82.7616 124.814 82.817 124.813C82.8725 124.812 82.9271 124.8 82.9774 124.777L83.0142 124.781ZM86.2686 122.901L88.498 121.614C88.5945 121.559 88.5899 121.467 88.498 121.407L85.9239 119.918C85.8688 119.891 85.8083 119.877 85.7469 119.877C85.6855 119.877 85.625 119.891 85.5699 119.918L83.3405 121.205C83.244 121.26 83.2486 121.352 83.3405 121.407L85.9193 122.897C85.9672 122.917 86.0188 122.928 86.071 122.928C86.1231 122.928 86.1747 122.917 86.2227 122.897L86.2686 122.901ZM79.7552 126.661L81.9845 125.374C82.0811 125.319 82.0719 125.227 81.9845 125.167L79.4104 123.683C79.3549 123.655 79.2934 123.64 79.2311 123.64C79.1688 123.64 79.1074 123.655 79.0519 123.683L76.8225 124.97C76.7306 125.025 76.7352 125.117 76.8225 125.177L79.4012 126.661C79.4514 126.683 79.5056 126.694 79.5603 126.693C79.615 126.692 79.6689 126.68 79.7184 126.657L79.7552 126.661ZM92.7499 119.146L94.9747 117.863C95.0712 117.808 95.0666 117.716 94.9747 117.657L92.396 116.167C92.3412 116.139 92.2806 116.124 92.219 116.124C92.1574 116.124 92.0968 116.139 92.042 116.167L89.8126 117.454C89.7161 117.505 89.7253 117.597 89.8126 117.657L92.3868 119.146C92.4429 119.175 92.5052 119.19 92.5683 119.19C92.6315 119.19 92.6938 119.175 92.7499 119.146ZM89.4909 121.031L91.7203 119.743C91.8122 119.688 91.8076 119.596 91.7203 119.537L89.1415 118.047C89.0865 118.02 89.0259 118.006 88.9646 118.006C88.9032 118.006 88.8426 118.02 88.7876 118.047L86.5582 119.334C86.4663 119.389 86.4709 119.481 86.5582 119.537L89.1369 121.026C89.1927 121.052 89.2536 121.064 89.315 121.063C89.3764 121.061 89.4366 121.045 89.4909 121.017V121.031ZM96.0043 117.266L98.2337 115.979C98.3303 115.924 98.3211 115.832 98.2337 115.777L95.6596 114.287C95.6038 114.26 95.5424 114.246 95.4803 114.246C95.4182 114.246 95.3569 114.26 95.3011 114.287L93.0763 115.574C92.9797 115.629 92.9843 115.721 93.0763 115.781L95.655 117.27C95.7108 117.294 95.7713 117.305 95.8318 117.301C95.8923 117.298 95.9513 117.281 96.0043 117.252V117.266ZM110.907 89.4469C110.962 89.4751 111.024 89.4898 111.086 89.4898C111.148 89.4898 111.21 89.4751 111.265 89.4469L113.495 88.1598C113.587 88.1092 113.582 88.0173 113.495 87.9575L112.81 87.5622C112.754 87.534 112.693 87.5192 112.63 87.5192C112.568 87.5192 112.507 87.534 112.451 87.5622L110.222 88.8493C110.13 88.9044 110.134 88.9964 110.222 89.0561L110.907 89.4469ZM94.8828 99.7893C94.9375 99.8176 94.9982 99.8323 95.0597 99.8323C95.1213 99.8323 95.182 99.8176 95.2367 99.7893L97.4661 98.5023C97.558 98.4471 97.5534 98.3552 97.4661 98.2954L94.8874 96.8107C94.8326 96.7825 94.772 96.7678 94.7104 96.7678C94.6488 96.7678 94.5881 96.7825 94.5334 96.8107L92.304 98.0978C92.2121 98.1529 92.2167 98.2449 92.304 98.3046L94.8828 99.7893ZM101.392 96.0155C101.446 96.0437 101.507 96.0584 101.569 96.0584C101.63 96.0584 101.691 96.0437 101.746 96.0155L103.975 94.7284C104.071 94.6733 104.062 94.5813 103.975 94.5216L101.401 93.0322C101.345 93.005 101.284 92.9909 101.222 92.9909C101.159 92.9909 101.098 93.005 101.042 93.0322L98.8129 94.3193C98.721 94.3745 98.7256 94.4664 98.8129 94.5216L101.392 96.0155ZM90.8975 102.074C90.9533 102.101 91.0146 102.115 91.0767 102.115C91.1389 102.115 91.2002 102.101 91.256 102.074L93.4854 100.787C93.5773 100.732 93.5727 100.64 93.4854 100.58L90.9067 99.0906C90.8516 99.0635 90.7911 99.0494 90.7297 99.0494C90.6683 99.0494 90.6077 99.0635 90.5527 99.0906L88.3233 100.378C88.2268 100.428 88.236 100.52 88.3233 100.58L90.8975 102.074ZM98.1326 97.8955C98.1881 97.9238 98.2496 97.9385 98.3119 97.9385C98.3742 97.9385 98.4356 97.9238 98.4911 97.8955L100.716 96.6084C100.812 96.5533 100.808 96.4614 100.716 96.4016L98.1372 94.9169C98.0825 94.8887 98.0218 94.8739 97.9602 94.8739C97.8987 94.8739 97.838 94.8887 97.7833 94.9169L95.5539 96.2039C95.4573 96.2591 95.4619 96.351 95.5539 96.4108L98.1326 97.8955ZM84.384 105.816C84.4387 105.844 84.4994 105.858 84.561 105.858C84.6225 105.858 84.6832 105.844 84.7379 105.816L86.9673 104.528C87.0638 104.473 87.0592 104.381 86.9673 104.322L84.384 102.864C84.3293 102.836 84.2686 102.822 84.207 102.822C84.1455 102.822 84.0848 102.836 84.03 102.864L81.8007 104.152C81.7041 104.207 81.7087 104.299 81.8007 104.358L84.384 105.816ZM87.6476 103.977C87.7023 104.005 87.763 104.02 87.8246 104.02C87.8862 104.02 87.9468 104.005 88.0016 103.977L90.2309 102.69C90.3275 102.635 90.3183 102.543 90.2309 102.483L87.6522 100.994C87.5972 100.967 87.5366 100.952 87.4753 100.952C87.4139 100.952 87.3533 100.967 87.2983 100.994L85.0689 102.281C84.977 102.336 84.9816 102.428 85.0689 102.483L87.6476 103.977ZM104.393 93.2161C104.448 93.2443 104.509 93.2591 104.57 93.2591C104.632 93.2591 104.692 93.2443 104.747 93.2161L106.977 91.929C107.073 91.8739 107.069 91.782 106.977 91.7222L106.292 91.3269C106.237 91.2987 106.176 91.2839 106.115 91.2839C106.053 91.2839 105.992 91.2987 105.938 91.3269L103.708 92.614C103.612 92.6691 103.621 92.761 103.708 92.8208L104.393 93.2161ZM114.166 87.576C114.221 87.6032 114.281 87.6173 114.343 87.6173C114.404 87.6173 114.465 87.6032 114.52 87.576L116.749 86.289C116.846 86.2338 116.841 86.1419 116.749 86.0867L116.064 85.6914C116.009 85.6632 115.949 85.6484 115.887 85.6484C115.826 85.6484 115.765 85.6632 115.71 85.6914L113.481 86.9784C113.384 87.0336 113.394 87.1255 113.481 87.1853L114.166 87.576ZM119.581 90.7017C119.636 90.7289 119.696 90.743 119.758 90.743C119.819 90.743 119.88 90.7289 119.935 90.7017L122.164 89.4147C122.26 89.3595 122.251 89.2676 122.164 89.2124L119.585 87.7231C119.53 87.6949 119.47 87.6802 119.408 87.6802C119.347 87.6802 119.286 87.6949 119.231 87.7231L117.002 89.0102C116.91 89.0653 116.915 89.1573 117.002 89.217L119.581 90.7017ZM127.721 98.9757L129.951 97.6887C130.047 97.6335 130.038 97.5416 129.951 97.4818L127.377 95.9925C127.321 95.9653 127.259 95.9511 127.197 95.9511C127.135 95.9511 127.074 95.9653 127.018 95.9925L124.789 97.2796C124.697 97.3347 124.701 97.4267 124.789 97.4818L127.367 98.9711C127.424 98.9952 127.486 99.0052 127.548 99.0004C127.609 98.9956 127.669 98.9761 127.721 98.9435V98.9757ZM107.652 91.3453C107.707 91.3724 107.768 91.3866 107.829 91.3866C107.891 91.3866 107.951 91.3724 108.006 91.3453L110.236 90.0582C110.328 90.0031 110.323 89.9111 110.236 89.8514L109.551 89.456C109.496 89.4278 109.435 89.4131 109.374 89.4131C109.312 89.4131 109.251 89.4278 109.197 89.456L106.967 90.7431C106.871 90.7983 106.875 90.8902 106.967 90.95L107.652 91.3453ZM81.1296 107.746C81.1851 107.774 81.2465 107.789 81.3088 107.789C81.3711 107.789 81.4326 107.774 81.4881 107.746L83.7175 106.459C83.8094 106.404 83.8048 106.312 83.7175 106.252L81.1388 104.768C81.084 104.739 81.0233 104.725 80.9618 104.725C80.9002 104.725 80.8395 104.739 80.7848 104.768L78.5554 106.055C78.4589 106.11 78.4681 106.202 78.5554 106.261L81.1296 107.746Z" fill="#455A64"/>
<path d="M95.5771 127.268L117.572 114.549C117.944 114.361 118.355 114.263 118.772 114.263C119.189 114.263 119.6 114.361 119.972 114.549L132.585 121.83C133.247 122.216 133.247 122.837 132.585 123.209L110.585 135.933C110.214 136.123 109.803 136.222 109.385 136.222C108.968 136.222 108.557 136.123 108.186 135.933L95.5725 128.652C94.9152 128.27 94.9152 127.649 95.5771 127.268Z" fill="#263238"/>
<path d="M100.385 15.3626V18.7227L50.3231 47.6265C49.9784 47.8242 49.698 47.6633 49.698 47.2634L49.7348 46.0591C49.4363 45.94 49.1289 45.8447 48.8154 45.7741L33.8211 54.4296C33.6385 54.5496 33.4865 54.7105 33.3772 54.8997C33.2678 55.0888 33.2042 55.3009 33.1914 55.519V56.7877C33.1809 57.0058 33.1187 57.2183 33.01 57.4077C32.9014 57.5971 32.7492 57.758 32.5662 57.8771L30.8379 58.8746V55.519C30.8484 55.3009 30.9105 55.0884 31.0192 54.899C31.1279 54.7096 31.28 54.5487 31.463 54.4296L99.7602 14.9995C100.105 14.8018 100.385 14.9627 100.385 15.3626Z" fill="#FFC100"/>
<path d="M100.39 65.6775C100.378 65.8953 100.315 66.1071 100.206 66.2957C100.096 66.4843 99.9435 66.6442 99.7602 66.7623L31.463 106.192C31.1183 106.395 30.8379 106.229 30.8379 105.829V58.8745L32.5662 57.877C32.911 57.6793 33.4856 54.6318 33.8211 54.4295L48.8154 45.774C49.1602 45.5763 49.9784 47.8241 50.3231 47.6127L100.385 18.7227V65.6775H100.39Z" fill="#EBEBEB"/>
<path d="M33.8205 71.7456L63.8183 54.4116C64.163 54.2094 64.4434 54.3749 64.4434 54.7748V84.2577C64.4329 84.4759 64.3707 84.6883 64.2621 84.8777C64.1534 85.0671 64.0013 85.228 63.8183 85.3471L33.8205 102.681C33.4757 102.879 33.1953 102.718 33.1953 102.318V72.835C33.2058 72.6169 33.268 72.4044 33.3767 72.215C33.4853 72.0256 33.6374 71.8648 33.8205 71.7456Z" fill="#FAFAFA"/>
<path d="M33.8205 63.9584L97.406 27.2495C97.7508 27.0473 98.0312 27.2127 98.0312 27.6127V32.03C98.02 32.2474 97.9575 32.4589 97.8488 32.6475C97.7402 32.836 97.5884 32.9962 97.406 33.1149L33.8205 69.8284C33.4757 70.026 33.1953 69.8651 33.1953 69.4652V65.0478C33.2058 64.8297 33.268 64.6172 33.3767 64.4278C33.4853 64.2384 33.6374 64.0776 33.8205 63.9584Z" fill="#455A64"/>
<path d="M74.4551 44V45.1675C74.4551 45.4112 74.6252 45.5077 74.832 45.3882L93.3152 34.7147V32.6738L74.832 43.3473C74.7225 43.419 74.6313 43.5154 74.5659 43.6288C74.5004 43.7421 74.4625 43.8693 74.4551 44Z" fill="#FAFAFA"/>
<path d="M95.2976 31.5288C95.509 31.4093 95.6745 31.5288 95.6745 31.7448V32.917C95.6678 33.0478 95.6302 33.1753 95.5647 33.2888C95.4991 33.4022 95.4076 33.4985 95.2976 33.5697L93.3164 34.7143V32.6734L95.2976 31.5288Z" fill="#FFC100"/>
<path d="M95.1545 33.1336L94.9293 33.0646C94.9531 32.9715 94.9654 32.8758 94.9661 32.7796C94.9744 32.6921 94.9602 32.6039 94.9248 32.5235C94.8894 32.443 94.834 32.373 94.7638 32.32C94.7152 32.2908 94.6596 32.2754 94.6029 32.2754C94.5462 32.2754 94.4906 32.2908 94.442 32.32C94.298 32.4257 94.1811 32.5643 94.1012 32.7241C94.0213 32.884 93.9805 33.0606 93.9824 33.2393C93.9749 33.3267 93.9895 33.4146 94.0248 33.4949C94.0602 33.5753 94.1151 33.6454 94.1846 33.699C94.2283 33.7229 94.2773 33.7356 94.3271 33.7357C94.3907 33.7338 94.4527 33.7148 94.5064 33.6806C94.6715 33.5691 94.797 33.4082 94.8649 33.2209L95.0856 33.2899H95.1086C95.1258 33.2906 95.1429 33.2856 95.157 33.2756C95.1712 33.2657 95.1816 33.2513 95.1867 33.2347C95.194 33.2168 95.1948 33.1968 95.189 33.1783C95.1831 33.1598 95.1709 33.144 95.1545 33.1336ZM94.442 33.5565C94.4184 33.5707 94.3914 33.5782 94.3639 33.5782C94.3364 33.5782 94.3093 33.5707 94.2857 33.5565C94.241 33.5147 94.2069 33.4629 94.1861 33.4054C94.1653 33.3479 94.1585 33.2862 94.1662 33.2255C94.1643 33.0775 94.1955 32.9309 94.2575 32.7965C94.3196 32.6621 94.4109 32.5432 94.5248 32.4487C94.5556 32.4304 94.5902 32.4194 94.6259 32.4165C94.6437 32.4098 94.6633 32.4098 94.6811 32.4165C94.7592 32.4579 94.8006 32.582 94.8006 32.7429C94.8104 32.8973 94.783 33.0518 94.7206 33.1934C94.6582 33.335 94.5626 33.4595 94.442 33.5565Z" fill="#FAFAFA"/>
<path d="M100.385 18.7227V22.8091L30.8379 62.9609V58.8745L32.1296 58.1298C32.4743 57.9276 32.5892 57.6242 32.7547 57.0404L33.1914 55.5189C33.2167 55.304 33.2856 55.0966 33.3939 54.9093C33.5022 54.722 33.6476 54.5587 33.8211 54.4295L48.8154 45.774C48.8822 45.7145 48.9624 45.6722 49.0492 45.6506C49.1359 45.629 49.2266 45.6288 49.3135 45.6501C49.4003 45.6714 49.4807 45.7134 49.5477 45.7726C49.6147 45.8318 49.6662 45.9065 49.698 45.99L50.2358 46.9645C50.4335 47.3047 50.53 47.5069 50.8747 47.3047L100.385 18.7227Z" fill="#E6E6E6"/>
<path d="M97.4437 17.472C97.9033 17.2192 98.2343 17.4214 98.2343 17.9317C98.221 18.2077 98.1424 18.4766 98.0049 18.7163C97.8675 18.956 97.6751 19.1597 97.4437 19.3107C96.984 19.5635 96.6484 19.3566 96.6484 18.851C96.6611 18.5743 96.74 18.3047 96.8783 18.0648C97.0167 17.8249 97.2106 17.6216 97.4437 17.472Z" fill="#455A64"/>
<path d="M94.5934 19.1136C95.03 18.8608 95.384 19.063 95.384 19.5733C95.3707 19.8493 95.2921 20.1182 95.1546 20.3579C95.0172 20.5976 94.8248 20.8013 94.5934 20.9523C94.1337 21.2051 93.8027 20.9982 93.8027 20.4926C93.8157 20.2165 93.8941 19.9475 94.0316 19.7077C94.1691 19.4679 94.3616 19.2643 94.5934 19.1136Z" fill="#455A64"/>
<path d="M91.7398 20.7777C92.1765 20.5249 92.5305 20.7271 92.5305 21.2373C92.5172 21.5133 92.4385 21.7823 92.3011 22.022C92.1637 22.2617 91.9713 22.4654 91.7398 22.6163C91.2802 22.8692 90.9492 22.6623 90.9492 22.1567C90.9622 21.8806 91.0406 21.6115 91.1781 21.3717C91.3156 21.132 91.5081 20.9283 91.7398 20.7777Z" fill="#455A64"/>
<path opacity="0.5" d="M33.7203 59.173L32.7321 59.7384L33.109 59.0167C33.1235 58.9899 33.1311 58.9599 33.1311 58.9294C33.1311 58.8989 33.1235 58.8689 33.109 58.8421C33.0768 58.8053 33.0262 58.8421 32.9941 58.8926L32.4609 59.9223V59.959C32.4586 59.9774 32.4586 59.9959 32.4609 60.0142C32.4584 60.0279 32.4584 60.0419 32.4609 60.0556V60.0786L32.9941 60.4923C33.0026 60.4967 33.0121 60.499 33.0217 60.499C33.0313 60.499 33.0407 60.4967 33.0492 60.4923C33.0746 60.4708 33.0949 60.4442 33.109 60.4141C33.1244 60.3884 33.1325 60.359 33.1325 60.3291C33.1325 60.2991 33.1244 60.2697 33.109 60.244L32.7321 59.959L33.7203 59.3891C33.745 59.3682 33.7648 59.3421 33.7783 59.3127C33.7919 59.2833 33.7987 59.2513 33.7985 59.219C33.8215 59.1776 33.7617 59.1454 33.7203 59.173Z" fill="#455A64"/>
<path opacity="0.5" d="M34.543 58.695L35.5313 58.1251L35.1543 57.8355C35.1222 57.8125 35.1176 57.7343 35.1543 57.67C35.1911 57.6056 35.2325 57.5689 35.2647 57.5918L35.8025 58.0055C35.805 58.0208 35.805 58.0363 35.8025 58.0515C35.8047 58.0698 35.8047 58.0884 35.8025 58.1067C35.8037 58.1189 35.8037 58.1312 35.8025 58.1434L35.2647 59.1731C35.2528 59.1968 35.2355 59.2173 35.2141 59.2329C35.2054 59.2392 35.195 59.2426 35.1842 59.2426C35.1735 59.2426 35.163 59.2392 35.1543 59.2329C35.1399 59.206 35.1323 59.176 35.1323 59.1455C35.1323 59.115 35.1399 59.085 35.1543 59.0582L35.5313 58.3319L34.543 58.9295C34.497 58.957 34.4648 58.9295 34.4648 58.8559C34.465 58.825 34.4721 58.7944 34.4856 58.7666C34.4992 58.7388 34.5188 58.7143 34.543 58.695Z" fill="#455A64"/>
<path opacity="0.5" d="M37.7798 55.8549C37.7798 55.7952 37.72 55.8044 37.697 55.8549L37.5591 56.1859C37.3293 56.1583 37.0489 56.3835 36.8605 56.7834C36.6168 57.3029 36.6168 57.9142 36.8605 58.1624C36.9216 58.2203 37.0012 58.2547 37.0853 58.2598C37.1693 58.2648 37.2525 58.2401 37.3201 58.19C37.5232 58.0602 37.6831 57.873 37.7798 57.6522C37.812 57.5833 37.812 57.5051 37.7798 57.4775C37.7476 57.45 37.697 57.4775 37.6695 57.5419C37.4856 57.928 37.2098 58.0981 37.0075 57.9234C36.9151 57.7701 36.8663 57.5945 36.8663 57.4155C36.8663 57.2365 36.9151 57.0609 37.0075 56.9076C37.1363 56.6318 37.3247 56.4479 37.4672 56.4479L37.3661 56.6961C37.3385 56.7605 37.3661 56.8248 37.4029 56.7972L37.8074 56.5352C37.8228 56.5215 37.835 56.5044 37.8429 56.4853C37.8509 56.4662 37.8544 56.4456 37.8533 56.4249L37.7798 55.8549Z" fill="#455A64"/>
<path opacity="0.5" d="M48.3782 47.6406L48.7414 46.8775C48.7619 46.8419 48.7728 46.8015 48.7728 46.7603C48.7728 46.7192 48.7619 46.6787 48.7414 46.6431C48.6954 46.6017 48.6264 46.6431 48.5851 46.7304L48.2265 47.4935L47.868 47.1441C47.822 47.1074 47.7577 47.1441 47.7117 47.2361C47.6911 47.2717 47.6803 47.3121 47.6803 47.3533C47.6803 47.3944 47.6911 47.4349 47.7117 47.4705L48.0703 47.8198L47.7117 48.5783C47.6907 48.6146 47.6797 48.6558 47.6797 48.6978C47.6797 48.7398 47.6907 48.781 47.7117 48.8173C47.7232 48.8252 47.7368 48.8295 47.7508 48.8295C47.7647 48.8295 47.7784 48.8252 47.7899 48.8173C47.8237 48.7923 47.8506 48.7591 47.868 48.7208L48.2265 47.9623L48.5851 48.3071C48.5902 48.3122 48.5963 48.3163 48.603 48.3191C48.6097 48.3219 48.6169 48.3233 48.6242 48.3233C48.6314 48.3233 48.6386 48.3219 48.6453 48.3191C48.652 48.3163 48.6581 48.3122 48.6632 48.3071C48.698 48.2851 48.7253 48.253 48.7414 48.2152C48.7623 48.1788 48.7734 48.1376 48.7734 48.0956C48.7734 48.0537 48.7623 48.0125 48.7414 47.9761L48.3782 47.6406Z" fill="#455A64"/>
<path d="M39.0898 56.7921V55.5189C39.1003 55.3007 39.1625 55.0882 39.2712 54.8988C39.3799 54.7094 39.532 54.5486 39.715 54.4295L96.2263 21.8207C96.5711 21.6231 96.8515 21.784 96.8515 22.1839V23.4572C96.841 23.6753 96.7788 23.8878 96.6701 24.0772C96.5614 24.2666 96.4093 24.4274 96.2263 24.5466L39.715 57.1553C39.3702 57.3529 39.0898 57.192 39.0898 56.7921Z" fill="#FAFAFA"/>
<path d="M95.8755 22.4963L96.041 22.8456C96.0483 22.8512 96.0571 22.8542 96.0663 22.8542C96.0754 22.8542 96.0843 22.8512 96.0916 22.8456L96.4639 22.7031C96.5191 22.7031 96.5466 22.7629 96.5007 22.841L96.2341 23.3421C96.2257 23.3737 96.2257 23.4069 96.2341 23.4386L96.2984 23.8982C96.2984 23.9672 96.2433 24.0637 96.1927 24.0591L95.8617 24.0178C95.8486 24.0171 95.8356 24.0202 95.8242 24.0268C95.8128 24.0333 95.8035 24.0429 95.7974 24.0545L95.4664 24.4774C95.4113 24.5418 95.3515 24.5188 95.3607 24.4361L95.4251 23.912C95.4311 23.9007 95.4343 23.8881 95.4343 23.8753C95.4343 23.8624 95.4311 23.8498 95.4251 23.8385L95.1539 23.6454C95.1125 23.6133 95.1539 23.5029 95.1952 23.457L95.563 23.1766C95.59 23.1539 95.6092 23.1234 95.6181 23.0892L95.7836 22.5514C95.756 22.4825 95.8296 22.4411 95.8755 22.4963Z" stroke="#E0E0E0" stroke-width="0.75" stroke-miterlimit="10"/>
<g opacity="0.5">
<path d="M97.5914 21.6695C97.5532 21.6686 97.5159 21.658 97.4829 21.6387C97.45 21.6194 97.4224 21.592 97.403 21.5591C97.3747 21.5085 97.3675 21.4487 97.383 21.3928C97.3985 21.3368 97.4354 21.2893 97.4857 21.2603L99.2508 20.2399C99.3 20.2199 99.3547 20.2183 99.4049 20.2354C99.4551 20.2524 99.4975 20.287 99.5244 20.3328C99.5512 20.3786 99.5606 20.4325 99.5508 20.4847C99.5411 20.5368 99.5129 20.5837 99.4715 20.6168L97.7155 21.6373C97.679 21.6618 97.6352 21.6732 97.5914 21.6695Z" fill="#455A64"/>
<path d="M97.5911 22.69C97.5529 22.6891 97.5156 22.6785 97.4826 22.6592C97.4496 22.6399 97.4221 22.6125 97.4027 22.5796C97.3888 22.5549 97.3799 22.5276 97.3765 22.4995C97.3732 22.4713 97.3754 22.4427 97.3831 22.4154C97.3908 22.3881 97.4037 22.3625 97.4213 22.3402C97.4389 22.318 97.4606 22.2993 97.4854 22.2855L99.2505 21.2604C99.2997 21.2404 99.3544 21.2388 99.4046 21.2559C99.4548 21.2729 99.4972 21.3075 99.524 21.3533C99.5509 21.3991 99.5603 21.453 99.5505 21.5052C99.5408 21.5573 99.5126 21.6043 99.4711 21.6373L97.7152 22.6624C97.6773 22.6831 97.6343 22.6926 97.5911 22.69Z" fill="#455A64"/>
<path d="M97.5911 23.7105C97.5433 23.7105 97.4969 23.6947 97.459 23.6655C97.4212 23.6363 97.3941 23.5954 97.382 23.5491C97.3699 23.5029 97.3735 23.4539 97.3922 23.4099C97.4109 23.3659 97.4437 23.3294 97.4854 23.306L99.2505 22.2856C99.275 22.2701 99.3024 22.2598 99.331 22.2554C99.3596 22.251 99.3889 22.2525 99.4169 22.2598C99.4449 22.2671 99.4711 22.2801 99.4939 22.298C99.5167 22.3159 99.5355 22.3382 99.5493 22.3637C99.578 22.4138 99.5858 22.4732 99.5712 22.529C99.5566 22.5849 99.5207 22.6328 99.4712 22.6625L97.7153 23.6829C97.6773 23.7036 97.6343 23.7132 97.5911 23.7105Z" fill="#455A64"/>
</g>
<path d="M47.5588 78.6953C50.0824 76.1258 50.7305 74.9582 50.7305 73.9286C50.7305 72.8989 50.2985 72.2508 48.9562 73.0092C48.0084 73.539 47.2982 74.4102 46.9705 75.4454C46.8865 75.663 46.7544 75.8587 46.5841 76.0179C46.4137 76.1772 46.2095 76.2957 45.9868 76.3648L44.2355 76.7509C43.8172 76.8474 43.5368 76.5808 43.6379 76.1625C44.4055 73.0322 46.3407 70.1409 49.0574 68.5734C52.321 66.6888 54.224 68.1138 54.224 71.2947C54.224 74.3514 52.6152 76.9026 51.0063 78.7367C50.7066 79.1209 50.5318 79.5877 50.5053 80.0743V81.1131C50.4923 81.346 50.4248 81.5725 50.3082 81.7745C50.1917 81.9765 50.0293 82.1483 49.8342 82.2761L47.683 83.5172C47.3106 83.7332 47.0118 83.5585 47.0118 83.1311V79.9961C47.0445 79.5138 47.237 79.056 47.5588 78.6953Z" fill="#455A64"/>
<path d="M46.9708 87.829C46.9661 87.1907 47.1277 86.5622 47.4396 86.0053C47.7515 85.4484 48.203 84.9823 48.7497 84.6528C49.9035 83.9816 50.5056 84.5746 50.5056 85.7881C50.5151 86.4265 50.3581 87.0564 50.0503 87.6158C49.7424 88.1751 49.2942 88.6447 48.7497 88.9782C47.5684 89.6585 46.9708 89.0426 46.9708 87.829Z" fill="#455A64"/>
<path d="M118.247 4.63405L116.56 3.65036C116.397 3.57172 116.215 3.53914 116.034 3.55615C115.854 3.57316 115.681 3.63911 115.535 3.74689L73.5356 27.9897C73.1159 28.2632 72.7666 28.6317 72.5158 29.0653C72.2651 29.4989 72.12 29.9855 72.0922 30.4857V90.8904C72.0761 91.0658 72.1052 91.2424 72.1768 91.4034C72.2485 91.5644 72.3602 91.7043 72.5013 91.8097L74.2021 92.7934L115.517 67.4658C115.936 67.192 116.285 66.8234 116.535 66.3897C116.785 65.9561 116.929 65.4696 116.956 64.9698L118.247 4.63405Z" fill="#FFC100"/>
<path opacity="0.15" d="M74.1738 92.7938L72.496 91.8239C72.3544 91.7192 72.2425 91.5793 72.1716 91.418C72.1006 91.2568 72.073 91.0798 72.0915 90.9046V30.4861C72.1106 29.9563 72.2691 29.441 72.5512 28.9922L74.2703 29.9713C73.9867 30.4211 73.828 30.9383 73.8107 31.4698V91.8791C73.7905 92.0497 73.8131 92.2227 73.8765 92.3824C73.9399 92.5421 74.0421 92.6835 74.1738 92.7938Z" fill="black"/>
<path d="M75.2227 28.9775L117.222 4.73015C118.018 4.27049 118.661 4.64282 118.661 5.56215V65.9669C118.634 66.4667 118.49 66.9531 118.24 67.3868C117.99 67.8205 117.641 68.1891 117.222 68.4628L75.2227 92.7102C74.4274 93.1699 73.7793 92.7976 73.7793 91.8782V31.4689C73.8077 30.9696 73.9532 30.4839 74.2039 30.0511C74.4546 29.6183 74.8036 29.2506 75.2227 28.9775Z" fill="#FFC100"/>
<path opacity="0.4" d="M116.561 3.65075L118.207 4.60226C118.047 4.54477 117.876 4.52645 117.708 4.54885C117.54 4.57125 117.38 4.63371 117.241 4.73097L75.2417 28.9783C74.8421 29.2251 74.5091 29.566 74.2718 29.9712L72.5664 28.9921C72.8034 28.5842 73.1363 28.2402 73.5363 27.9901L115.513 3.77026C115.659 3.66274 115.832 3.59733 116.013 3.58112C116.193 3.56491 116.375 3.59853 116.538 3.67833L116.561 3.65075Z" fill="white"/>
<path d="M79.9885 31.3496L113.622 11.9287C114.224 11.5793 114.712 11.8643 114.712 12.5584V64.2295C114.691 64.6078 114.582 64.9759 114.393 65.3042C114.203 65.6324 113.939 65.9114 113.622 66.1187L79.9885 85.5028C79.3864 85.8476 78.8945 85.5672 78.8945 84.8731V33.248C78.9127 32.8673 79.0214 32.4965 79.2117 32.1663C79.402 31.8361 79.6683 31.5561 79.9885 31.3496Z" fill="white"/>
<path d="M106.642 42.7262L106.982 42.4458C106.42 41.8369 105.691 41.4082 104.886 41.2139L104.775 41.6368C105.489 41.8132 106.137 42.1914 106.642 42.7262Z" fill="#37474F"/>
<path d="M107.39 44.4411L106.696 43.7608C106.531 43.5896 106.439 43.3615 106.439 43.1242C106.439 42.8869 106.531 42.6588 106.696 42.4876C106.867 42.3232 107.095 42.2314 107.332 42.2314C107.57 42.2314 107.798 42.3232 107.969 42.4876L108.658 43.1679C108.823 43.3391 108.914 43.5672 108.914 43.8045C108.914 44.0418 108.823 44.2699 108.658 44.4411C108.487 44.6041 108.26 44.695 108.024 44.695C107.788 44.695 107.561 44.6041 107.39 44.4411Z" fill="#FFC100"/>
<mask id="mask0_117_7101" style="mask-type:luminance" maskUnits="userSpaceOnUse" x="78" y="11" width="37" height="75">
<path d="M79.9885 31.3496L113.622 11.9287C114.224 11.5793 114.712 11.8643 114.712 12.5584V64.2295C114.691 64.6078 114.582 64.9759 114.393 65.3042C114.203 65.6324 113.939 65.9114 113.622 66.1187L79.9885 85.5028C79.3864 85.8476 78.8945 85.5672 78.8945 84.8731V33.248C78.9127 32.8673 79.0214 32.4965 79.2117 32.1663C79.402 31.8361 79.6683 31.5561 79.9885 31.3496Z" fill="white"/>
</mask>
<g mask="url(#mask0_117_7101)">
<path d="M113.507 60.1516L115.061 62.8084C115.061 62.8084 125.238 57.4119 125.812 56.7041C126.387 55.9962 126.35 54.5666 126.437 53.7944C126.58 52.5073 126.106 51.3995 126.037 50.9353C125.923 50.1262 127.086 50.0803 127.66 51.2065C128.083 52.0247 128.12 52.9624 128.478 52.9716C128.992 52.611 129.47 52.2032 129.908 51.7535C130.538 51.064 131.678 49.9148 132.542 50.0711C132.689 50.1052 132.822 50.1826 132.924 50.2932C133.027 50.4038 133.094 50.5426 133.116 50.6916C133.141 51.1667 133.25 51.6336 133.438 52.0706C133.578 52.2365 133.693 52.4224 133.778 52.6222C133.806 52.9188 133.806 53.2174 133.778 53.514C133.815 53.9415 134.238 54.1207 134.284 54.539C134.271 54.8613 134.235 55.1823 134.178 55.4997C134.178 55.7066 134.243 55.8859 134.243 56.0927C134.198 56.5174 134.014 56.9152 133.718 57.2235C132.858 58.2265 131.837 59.0807 130.698 59.7516C129.779 60.3584 128.547 60.8962 127.481 61.4662C126.414 62.0362 114.436 71.2387 112.84 70.1539C112.188 69.6942 110.469 67.5016 108.662 65.047" fill="#FFA8A7"/>
<path d="M108.286 65.3645C106.449 62.8081 104.761 60.1484 103.229 57.3985C101.391 52.2503 103.473 48.8212 103.473 48.8212C103.473 48.8212 106.116 48.003 108.318 51.478C109.288 53.0087 111.825 57.3112 113.489 60.1519" fill="#FFA8A7"/>
<path d="M98.8477 48.8994C98.8477 48.8994 101.762 47.718 103.651 47.8421C105.54 47.9663 106.938 48.4995 108.326 50.7288C110.165 53.7029 113.24 58.8419 113.24 58.8419C111.94 61.5139 109.866 63.7324 107.287 65.2083L101.642 56.6953L98.8477 48.8994Z" fill="#455A64"/>
<path d="M89.5996 54.048C88.6275 54.8308 87.9106 55.8854 87.5403 57.0772C87.1092 58.5173 86.8984 60.0144 86.9151 61.5176V71.1935L86.791 89.5066C92.9322 91.5981 100.737 89.7549 107.288 82.4737C107.288 82.4737 106.924 59.0308 106.924 55.2018C106.924 55.0271 106.924 54.8524 106.924 54.6732C106.685 49.2445 102.001 46.7255 97.3863 49.3364L93.5067 51.5244L89.6134 54.048H89.5996Z" fill="#F0F0F0"/>
<path d="M91.7379 31.7724C91.7379 31.7724 88.7271 31.538 88.0605 34.3328C87.4492 36.8241 91.9907 46.661 91.8896 46.4955C91.7884 46.33 91.7379 31.7724 91.7379 31.7724Z" fill="#263238"/>
<path d="M102.368 26.1459C102.368 26.1459 101.251 23.1397 95.8274 25.2771C93.0694 26.3665 92.0352 29.7819 92.0352 29.7819L102.368 26.1459Z" fill="#FFC100"/>
<path opacity="0.4" d="M102.368 26.1459C102.368 26.1459 101.251 23.1397 95.8274 25.2771C93.0694 26.3665 92.0352 29.7819 92.0352 29.7819L102.368 26.1459Z" fill="black"/>
<path d="M93.8047 34.1307C93.8047 38.2677 96.7006 40.8326 100.277 39.8719C103.853 38.9112 106.749 34.8156 106.749 30.6786C106.749 26.5416 103.665 26.5416 100.088 27.5069C96.5121 28.4722 93.8047 30.0029 93.8047 34.1307Z" fill="#263238"/>
<path d="M90.4277 40.667C90.4277 40.667 91.3792 45.5854 91.7608 46.3347C91.8757 46.5517 92.0433 46.7365 92.248 46.8722C92.4527 47.0079 92.6882 47.0902 92.9329 47.1115L92.8686 43.4893L90.4277 40.667Z" fill="#263238"/>
<path d="M91.6214 32.9355C91.2444 32.9967 90.885 33.1383 90.5677 33.3509C90.2504 33.5635 89.9827 33.842 89.7828 34.1675C89.0013 35.3028 89.438 38.0884 90.4171 40.6671L92.2098 40.4235L91.6214 32.9355Z" fill="#263238"/>
<path d="M92.7619 40.2806C92.3988 40.6254 91.8885 39.9635 91.4427 39.5452C90.9968 39.1269 89.5488 38.7821 88.8226 40.7357C88.0963 42.6893 89.4615 44.7302 90.6061 44.8405C92.5734 45.0244 92.8676 43.4891 92.8676 43.4891L92.932 51.8872C96.237 55.3899 102.02 51.2621 99.4179 49.713V47.217C100.321 47.1392 101.211 46.954 102.07 46.6654C103.518 46.0173 104.428 44.459 104.87 42.5284C105.573 39.4349 105.839 37.0124 105.242 31.4642C104.589 25.3783 98.2779 27.0055 94.8718 30.3932C91.4657 33.781 92.7619 40.2806 92.7619 40.2806Z" fill="#FFA8A7"/>
<path d="M92.7622 41.0024C92.5783 41.0576 91.8888 39.9222 91.443 39.5683C90.8224 39.081 91.6222 32.9583 91.6222 32.9583C90.9052 31.377 92.229 28.9914 93.6126 28.0215C94.6067 27.3832 95.7285 26.9706 96.8992 26.8125C97.8921 26.6348 98.8819 26.4984 99.8686 26.4034C101.075 26.3403 102.276 26.196 103.463 25.9714C104.393 25.7509 105.293 25.4239 106.148 24.9969C106.902 24.6521 107.527 25.429 106.86 26.7206C106.263 27.8953 105.435 28.9368 104.424 29.782C101.491 31.9838 98.0851 32.5124 95.1203 32.8388C94.4538 32.9123 94.3067 33.6983 93.9481 35.8358C93.631 37.6928 93.369 40.8048 92.7622 41.0024Z" fill="#263238"/>
<path d="M89.3644 32.9854L87.1855 32.2177C87.4935 31.4133 88.2336 30.9353 88.8311 31.1467C89.4287 31.3582 89.6723 32.181 89.3644 32.9854Z" fill="#263238"/>
<path d="M99.4127 47.2173C99.4127 47.2173 96.195 47.3322 95.055 46.9415C94.3738 46.704 93.8127 46.2089 93.4922 45.5625C93.6477 46.242 93.9506 46.8791 94.3793 47.4287C95.2067 48.4262 99.4127 48.1964 99.4127 48.1964V47.2173Z" fill="#F28F8F"/>
<path d="M98.6329 37.7851C98.6302 37.9852 98.5674 38.1799 98.4526 38.3439C98.3379 38.5078 98.1765 38.6334 97.9893 38.7044C97.6354 38.7964 97.3458 38.5252 97.3458 38.0977C97.3429 37.8929 97.4031 37.6921 97.5182 37.5227C97.6333 37.3533 97.7978 37.2234 97.9893 37.1508C98.3479 37.0726 98.6329 37.3254 98.6329 37.7851Z" fill="#263238"/>
<path d="M97.5979 34.9573L96.2189 36.2122C96.1221 35.9775 96.1011 35.7184 96.1588 35.4712C96.2165 35.2239 96.35 35.0009 96.5407 34.8332C96.6088 34.7528 96.6958 34.6906 96.7938 34.6519C96.8918 34.6133 96.9979 34.5995 97.1026 34.6118C97.2072 34.6241 97.3072 34.662 97.3936 34.7223C97.4801 34.7826 97.5502 34.8634 97.5979 34.9573Z" fill="#263238"/>
<path d="M99.1229 42.8086L100.598 43.0522C100.556 43.2867 100.433 43.4988 100.249 43.651C100.066 43.8032 99.8347 43.8858 99.5964 43.8842C99.1873 43.8199 98.9758 43.3372 99.1229 42.8086Z" fill="#F28F8F"/>
<path d="M104.575 33.7445L103.311 32.9585C103.573 32.4988 104.06 32.2552 104.409 32.4713C104.586 32.6274 104.701 32.8426 104.731 33.0768C104.762 33.311 104.706 33.5483 104.575 33.7445Z" fill="#263238"/>
<path d="M104.023 36.1158C104.026 36.3219 103.966 36.5241 103.85 36.6945C103.734 36.8649 103.568 36.9952 103.375 37.0673C103.016 37.1593 102.727 36.8881 102.727 36.4606C102.723 36.2551 102.784 36.0536 102.9 35.884C103.016 35.7144 103.182 35.585 103.375 35.5137C103.733 35.4171 104.023 35.6883 104.023 36.1158Z" fill="#263238"/>
<path d="M100.824 36.373L100.898 40.887L103.219 39.6735L100.824 36.373Z" fill="#F28F8F"/>
<path d="M79.8731 81.4536C81.6842 62.8372 84.6123 56.2226 89.1997 54.3701C90.7396 55.5744 90.9878 61.0674 89.2457 65.1907C89.2457 65.1907 85.4121 77.5373 85.1087 81.7386C84.9152 85.6679 85.0613 89.6065 85.5454 93.5107C85.57 93.7453 85.6437 93.9722 85.7617 94.1765C85.8797 94.3808 86.0394 94.558 86.2303 94.6966C87.2094 95.3677 87.122 96.3054 87.8115 97.211C88.3539 97.9189 88.8688 98.0568 88.7309 98.3142C88.6162 98.5717 88.4169 98.7823 88.1661 98.911C87.9153 99.0398 87.628 99.079 87.3519 99.0221C86.9122 98.8696 86.5052 98.6357 86.1521 98.3326C86.4114 99.3236 86.8207 100.269 87.3657 101.137C88.6068 103.145 88.5148 104.474 85.4718 104.846C83.5642 105.08 82.2082 103.867 81.367 99.0818C81.128 97.7028 80.5396 95.2206 80.3144 93.4371C79.6617 88.3486 79.5789 84.4507 79.8731 81.4536Z" fill="#FFA8A7"/>
<path d="M90.5149 53.4873C90.5149 53.4873 87.1777 54.5629 85.4586 57.2336C83.7394 59.9042 82.0203 64.2251 80.7148 71.9429C80.7148 71.9429 82.7374 74.8572 88.258 72.6094C88.258 72.6094 90.8735 62.7909 91.1814 58.8884C91.4986 54.6319 90.5149 53.4873 90.5149 53.4873Z" fill="#455A64"/>
<path d="M93.6172 26.2934C90.496 28.247 89.1492 30.6189 89.0711 33.478C89.0437 35.442 89.122 37.4061 89.3055 39.3617C88.7177 39.785 88.233 40.3355 87.8875 40.9723C87.5421 41.609 87.3449 42.3155 87.3105 43.039C87.3105 44.9742 88.878 46.1234 90.8132 45.604C91.7843 45.3166 92.6426 44.7353 93.2698 43.9401C93.897 43.145 94.2625 42.175 94.3159 41.1636C94.3555 40.5358 94.1593 39.9158 93.7656 39.4252C93.3719 38.9345 92.8091 38.6086 92.1876 38.5113C91.7968 35.7805 91.8045 33.0073 92.2106 30.2787C92.9047 26.1417 100.636 23.756 102.369 26.1417C101.85 24.0824 97.9564 23.5584 93.6172 26.2934Z" fill="#FFC100"/>
<path opacity="0.15" d="M93.6172 26.2934C90.496 28.247 89.1492 30.6189 89.0711 33.478C89.0437 35.442 89.122 37.4061 89.3055 39.3617C88.7177 39.785 88.233 40.3355 87.8875 40.9723C87.5421 41.609 87.3449 42.3155 87.3105 43.039C87.3105 44.9742 88.878 46.1234 90.8132 45.604C91.7843 45.3166 92.6426 44.7353 93.2698 43.9401C93.897 43.145 94.2625 42.175 94.3159 41.1636C94.3555 40.5358 94.1593 39.9158 93.7656 39.4252C93.3719 38.9345 92.8091 38.6086 92.1876 38.5113C91.7968 35.7805 91.8045 33.0073 92.2106 30.2787C92.9047 26.1417 100.636 23.756 102.369 26.1417C101.85 24.0824 97.9564 23.5584 93.6172 26.2934Z" fill="black"/>
<path d="M92.4911 41.6509C92.5009 41.4451 92.4596 41.2402 92.3708 41.0543C92.282 40.8685 92.1485 40.7076 91.9822 40.586C91.816 40.4644 91.6222 40.3859 91.4182 40.3576C91.2142 40.3292 91.0064 40.3519 90.8133 40.4236C90.348 40.5615 89.9369 40.8402 89.6365 41.2213C89.3361 41.6024 89.161 42.0672 89.1355 42.5518C89.1285 42.7566 89.1721 42.9599 89.2625 43.1438C89.3528 43.3277 89.4872 43.4864 89.6535 43.606C89.8199 43.7255 90.0132 43.8022 90.2163 43.8292C90.4194 43.8562 90.626 43.8327 90.8179 43.7607C91.2798 43.6236 91.6882 43.3475 91.9876 42.97C92.287 42.5925 92.4628 42.1319 92.4911 41.6509Z" fill="#FFC100"/>
</g>
<path d="M66.0249 71.1842C65.9493 71.2579 65.8801 71.3378 65.8181 71.4232C65.7076 71.5591 65.6249 71.7152 65.5744 71.8829C65.5412 71.9797 65.5412 72.0848 65.5744 72.1816C65.5867 72.2502 65.6205 72.313 65.671 72.3609C65.6952 72.3889 65.723 72.4136 65.7537 72.4345L64.0667 71.46C63.9991 71.4224 63.9434 71.3667 63.9058 71.2991C63.879 71.235 63.8652 71.1663 63.8652 71.0968C63.8652 71.0274 63.879 70.9586 63.9058 70.8946C63.9426 70.7805 63.9952 70.6722 64.0621 70.5728C64.1493 70.4419 64.2477 70.3189 64.3563 70.2051L66.0249 71.1842Z" fill="#FFC100"/>
<path d="M66.0391 71.1662C65.1612 72.0856 65.4691 72.7061 66.7286 72.5452L73.7799 71.7316V63.1221L66.0391 71.1662Z" fill="#FFC100"/>
<path d="M66.0384 71.1661C65.4822 71.7453 65.4041 72.2049 65.735 72.4302L64.0481 71.4557C63.6941 71.2351 63.7723 70.7662 64.3331 70.1778L72.0784 62.1475L73.7838 63.1357L66.0384 71.1661Z" fill="#FFC100"/>
<path opacity="0.15" d="M66.0249 71.1842C65.9493 71.2579 65.8801 71.3378 65.8181 71.4232C65.7113 71.5614 65.6289 71.7169 65.5744 71.8829C65.5474 71.9806 65.5474 72.0839 65.5744 72.1816C65.5878 72.2498 65.6215 72.3122 65.671 72.3609C65.6952 72.3889 65.723 72.4136 65.7537 72.4345L64.0667 71.46C63.9991 71.4224 63.9434 71.3667 63.9058 71.2991C63.879 71.235 63.8652 71.1663 63.8652 71.0968C63.8652 71.0274 63.879 70.9586 63.9058 70.8946C63.9446 70.7813 63.9971 70.6733 64.0621 70.5728C64.1493 70.4419 64.2477 70.3189 64.3563 70.2051L66.0249 71.1842Z" fill="black"/>
<path opacity="0.4" d="M73.7835 63.122L66.0381 71.1661L64.3281 70.1778L72.0781 62.1475L73.7835 63.122Z" fill="white"/>
<path d="M113.509 60.1529L115.063 62.8098C115.063 62.8098 125.24 57.4133 125.814 56.7054C126.389 55.9976 126.352 54.568 126.439 53.7958C126.582 52.5087 126.108 51.4009 126.039 50.9366C125.902 49.9484 127.322 50.1782 127.772 50.5689C128.068 50.8839 128.315 51.2419 128.503 51.6307C128.724 51.9985 129.138 53.1982 129.56 53.2717C129.891 53.3315 130.549 52.8626 130.82 52.6604C131.937 51.8146 132.626 50.6425 133.486 49.5714C133.639 49.341 133.852 49.1567 134.102 49.0382C134.321 48.9945 134.548 49.0012 134.765 49.0578C134.981 49.1143 135.182 49.2192 135.352 49.3646C135.715 49.5671 136.028 49.8463 136.272 50.1828C136.42 50.4349 136.526 50.7098 136.584 50.9964C137.044 52.9454 136.042 54.591 134.86 56.0527C133.675 57.4904 132.269 58.7315 130.696 59.73C129.776 60.3368 128.545 60.8746 127.478 61.4446C126.412 62.0146 114.984 71.5894 113.385 70.5046C111.473 69.017 109.759 67.2898 108.287 65.3656" fill="#FFA8A7"/>
<path d="M188.58 43.5449C192.257 43.5449 194.188 44.6481 195.714 48.0451C197.176 51.2949 201.713 60.7226 201.488 63.0072C201.262 65.2917 191.945 75.0182 191.945 75.0182L189.283 71.8006L195.057 62.1016L189.371 53.8736L188.58 43.5449Z" fill="#FFA8A7"/>
<path d="M179.655 143.582C179.655 143.582 180.068 144.837 180.293 145.94C180.473 146.813 180.726 148.271 180.418 148.928C180.11 149.585 178.919 150.008 177.071 149.994C175.871 149.994 174.005 150.799 172.727 151.516C171.449 152.233 168.659 152.546 167.262 152.38C165.616 152.187 163.911 151.231 163.644 150.541C163.378 149.852 163.153 148.928 167.611 147.498C167.648 147.498 173.003 145.742 174.879 143.669L179.655 143.582Z" fill="#263238"/>
<path d="M179.655 143.705L178.804 143.6L174.879 143.678C173.003 145.751 167.648 147.498 167.611 147.507L166.899 147.746C166.122 148.371 166.779 149.433 168.618 149.584C170.457 149.736 176.189 147.819 177.457 147.208C178.123 146.899 178.685 146.404 179.075 145.782C179.465 145.16 179.666 144.439 179.655 143.705Z" fill="#FFA8A7"/>
<path d="M179.653 142.019C179.653 142.019 179.653 143.09 179.653 143.706C179.653 144.321 178.936 145.232 177.06 145.163C175.746 145.117 174.826 144.763 174.877 143.678V142.129L179.653 142.019Z" fill="#FFA8A7"/>
<path d="M192.239 136.535C192.574 136.673 192.643 137.325 192.657 138.617C192.657 139.592 192.836 141.301 191.682 141.614C190.529 141.927 188.86 141.701 188.152 140.764C187.27 139.592 186.677 138.562 185.394 137.123C184.296 135.877 183.096 134.71 182.691 132.986C182.319 131.432 182.691 130.775 183.744 130.352C184.797 129.929 185.767 130.279 187.238 131.506C187.648 131.784 188.087 132.017 188.548 132.2C189.527 132.508 191.899 136.397 192.239 136.535Z" fill="#263238"/>
<path d="M192.271 135.34L192.225 136.926C192.225 136.926 191.168 138.999 188.222 136.926C188.157 136.769 187.891 133.708 187.891 133.708L192.271 135.34Z" fill="#FFA8A7"/>
<path d="M188.562 132.209C188.101 132.026 187.662 131.793 187.252 131.515C186.066 131.134 183.574 131.575 184.691 133.303C185.627 134.724 186.825 135.953 188.222 136.925C189.555 137.583 190.019 136.769 190.019 136.769L189.559 133.05C189.294 132.699 188.953 132.411 188.562 132.209Z" fill="#FFA8A7"/>
<path d="M194.424 113.423C193.835 108.225 192.709 105.223 192.709 105.223C192.709 105.223 193.707 98.2268 194.488 91.5203C196.327 75.7675 195.104 75.5147 192.879 70.0355C192.879 70.0355 172.686 67.4384 171.84 75.8365C170.788 86.2939 171.266 106.574 171.44 110.284C171.615 113.993 171.9 115.671 173.022 123.44C173.858 129.355 174.653 142.286 174.653 142.286C177.301 143.812 179.848 142.019 179.848 142.019C179.848 142.019 182.38 126.119 182.321 121.84C182.269 118.672 181.806 115.525 180.942 112.476C180.942 112.476 182.661 95.4321 183.098 92.7108C183.098 92.7108 183.585 98.1487 183.764 101.858C183.943 105.568 184.945 109.13 185.833 116.039C186.6 122.015 187.878 134.531 187.878 134.531C190.526 136.057 192.374 135.368 192.374 135.368C192.374 135.368 195.008 118.618 194.424 113.423Z" fill="#FFC100"/>
<path d="M180.035 40.1432L180.775 47.9943L187.67 47.5576L187.119 38.8516L180.035 40.1432Z" fill="#FFA8A7"/>
<path d="M193.866 46.8775C193.163 44.7998 191.738 43.5817 188.58 43.5449L187.417 43.5817C187.196 44.7401 183.799 45.6778 180.444 44.501C179.984 44.6251 178.674 44.8642 177.943 44.9607L176.334 45.1951C173.894 45.9949 172.813 50.2514 172.579 56.9672C172.345 63.6829 171.338 78.0842 171.338 78.0842C171.338 78.0842 176.592 80.8974 184.884 79.808C192.308 78.8335 195.195 74.4437 194.937 75.0045C194.067 71.2792 192.781 67.6635 191.104 64.2253C195.011 54.6137 194.905 49.9619 193.866 46.8775Z" fill="#455A64"/>
<path d="M180.775 80.0466C182.149 80.0611 183.523 79.9781 184.885 79.7984C191.651 78.9112 194.648 75.2017 194.928 74.9581C194.059 71.2457 192.776 67.6424 191.104 64.2157C193.081 59.3617 194.028 55.7763 194.349 53.0137C194.028 55.027 191.054 62.8229 187.16 65.1626C187.16 65.1626 189.357 65.5028 191.237 68.0861C193.117 70.6694 191.573 79.4904 180.775 80.0466Z" fill="#37474F"/>
<path d="M177.944 44.9512C174.703 45.3603 171.913 45.9395 170.732 49.1203C169.173 53.4521 166.783 57.4372 163.694 60.851C161.681 63.0068 153.416 67.1346 151.554 66.8267C149.693 66.5187 148.015 63.8664 147.059 64.418C146.103 64.9696 148.199 66.8634 148.084 67.3323C147.969 67.8012 144.613 66.8267 143.028 65.7005C141.442 64.5743 140.499 67.8058 142.568 70.2236C144.636 72.6415 148.507 72.8299 152.717 71.9887C156.928 71.1475 164.623 68.647 167.68 65.797C171.688 62.0507 172.419 60.0144 174.156 56.7876C179.691 52.4943 177.944 44.9512 177.944 44.9512Z" fill="#FFA8A7"/>
<path d="M176.426 30.3934C176.426 30.3934 173.825 27.2906 175.865 24.266C178.274 20.699 182.512 19.4947 187.752 21.0484C190.345 21.816 194.156 25.4014 194.349 30.4301C194.496 34.3051 183.629 36.8655 183.804 39.5223L176.426 30.3934Z" fill="#263238"/>
<path d="M174.938 31.5293C174.938 31.5293 173.412 33.8276 173.609 34.085C173.968 34.3199 174.364 34.4895 174.782 34.5861L174.938 31.5293Z" fill="#F28F8F"/>
<path d="M179.585 24.2151C178.1 24.9828 175.535 26.3986 174.873 31.8686C174.198 37.4811 175.448 39.4301 176.211 40.1656C176.73 40.662 179.396 40.8413 180.808 40.4092C182.55 39.8714 186.324 38.0097 188.084 35.1138C190.162 31.7031 190.589 27.1616 188.19 25.3781C184.793 22.8729 180.84 23.567 179.585 24.2151Z" fill="#FFA8A7"/>
<path d="M179.149 24.4548C179.149 24.4548 177.852 29.5755 179.401 32.8115C179.401 32.8115 180.321 30.812 182.026 31.3866C183.731 31.9611 183.598 34.2687 182.238 35.4454C181.89 35.784 181.454 36.0173 180.98 36.1182C180.506 36.2191 180.013 36.1834 179.558 36.0154C179.558 36.0154 179.604 38.8515 182.026 39.9731C182.026 39.9731 187.082 42.3956 191.679 37.5047C195.816 33.0643 195.297 25.0937 189.178 23.0758C183.06 21.0579 179.149 24.4548 179.149 24.4548Z" fill="#263238"/>
<path d="M199.731 46.0588C198.767 46.0588 197.812 45.8684 196.921 45.4985C196.03 45.1285 195.221 44.5863 194.541 43.903C193.86 43.2197 193.321 42.4087 192.954 41.5166C192.588 40.6244 192.401 39.6687 192.404 38.7042V29.3086C194.346 29.3086 196.209 30.0801 197.582 31.4533C198.955 32.8265 199.727 34.689 199.727 36.6311L199.731 46.0588Z" fill="#263238"/>
<path d="M175.204 22.1563C172.928 24.4546 172.8 31.1703 179.4 32.8159L183.726 20.9612C181.207 19.3201 177.235 20.0786 175.204 22.1563Z" fill="#263238"/>
<path d="M178.74 34.641C178.574 34.586 178.421 34.4985 178.29 34.3836C178.159 34.2687 178.053 34.1287 177.977 33.9719C177.901 33.815 177.857 33.6446 177.847 33.4705C177.838 33.2964 177.864 33.1223 177.923 32.9584C177.983 32.7945 178.074 32.6441 178.192 32.5161C178.311 32.3881 178.453 32.2851 178.612 32.2131C178.771 32.1412 178.943 32.1017 179.117 32.0971C179.291 32.0925 179.464 32.1229 179.627 32.1864L178.74 34.641Z" fill="#263238"/>
<path opacity="0.1" d="M183.105 92.7194L184.204 85.6911C186.417 85.4262 188.546 84.6861 190.446 83.5215C190.446 83.5215 189.067 85.5946 185.436 86.4587L184.314 94.5994L183.855 103.126L183.105 92.7194Z" fill="black"/>
</svg>
