<svg width="297" height="228" viewBox="0 0 297 228" fill="none" xmlns="http://www.w3.org/2000/svg">
<path d="M262.985 162.351H156.299C155.382 162.349 154.503 161.984 153.855 161.336C153.206 160.688 152.841 159.809 152.84 158.891V3.45951C152.843 2.54348 153.209 1.66595 153.857 1.01877C154.505 0.37159 155.383 0.00741459 156.299 0.00585938H262.985C263.901 0.00741459 264.779 0.37159 265.427 1.01877C266.075 1.66595 266.441 2.54348 266.444 3.45951V158.891C266.443 159.809 266.078 160.688 265.429 161.336C264.781 161.984 263.902 162.349 262.985 162.351ZM156.299 0.153451C155.863 0.150339 155.43 0.23351 155.026 0.398189C154.622 0.562867 154.254 0.805804 153.944 1.11303C153.634 1.42026 153.388 1.78572 153.22 2.18841C153.052 2.5911 152.965 3.02308 152.964 3.45951V158.891C152.964 159.77 153.313 160.612 153.934 161.233C154.555 161.854 155.397 162.203 156.276 162.203H262.985C263.863 162.203 264.706 161.854 265.327 161.233C265.948 160.612 266.297 159.77 266.297 158.891V3.45951C266.297 2.58112 265.948 1.73871 265.327 1.1176C264.706 0.496487 263.863 0.147546 262.985 0.147546L156.299 0.153451Z" fill="#F0F0F0"/>
<path d="M139.934 162.351H33.2252C32.3081 162.35 31.4291 161.984 30.7806 161.336C30.1322 160.688 29.7672 159.809 29.7656 158.892V3.45955C29.7672 2.5425 30.1322 1.66346 30.7806 1.015C31.4291 0.366551 32.3081 0.00156094 33.2252 0H139.934C140.851 0.00156094 141.73 0.366551 142.379 1.015C143.027 1.66346 143.392 2.5425 143.394 3.45955V158.892C143.392 159.809 143.027 160.688 142.379 161.336C141.73 161.984 140.851 162.35 139.934 162.351ZM33.2252 0.153497C32.3478 0.153495 31.5063 0.501623 30.8854 1.12146C30.2644 1.7413 29.9148 2.58219 29.9132 3.45955V158.892C29.9132 159.77 30.2622 160.612 30.8833 161.233C31.5044 161.855 32.3468 162.203 33.2252 162.203H139.934C140.812 162.203 141.655 161.855 142.276 161.233C142.897 160.612 143.246 159.77 143.246 158.892V3.45955C143.246 2.58117 142.897 1.73876 142.276 1.11765C141.655 0.496532 140.812 0.147592 139.934 0.147592L33.2252 0.153497Z" fill="#F0F0F0"/>
<path d="M296.092 198.405H0.908203V198.553H296.092V198.405Z" fill="#E0E0E0"/>
<path d="M53.0078 73.0225H34.3699C33.8808 73.0225 33.4844 73.4189 33.4844 73.908V78.1173C33.4844 78.6064 33.8808 79.0029 34.3699 79.0029H53.0078C53.4969 79.0029 53.8934 78.6064 53.8934 78.1173V73.908C53.8934 73.4189 53.4969 73.0225 53.0078 73.0225Z" fill="#F0F0F0"/>
<path d="M75.2774 73.0225H56.6395C56.1504 73.0225 55.7539 73.4189 55.7539 73.908V78.1173C55.7539 78.6064 56.1504 79.0029 56.6395 79.0029H75.2774C75.7664 79.0029 76.1629 78.6064 76.1629 78.1173V73.908C76.1629 73.4189 75.7664 73.0225 75.2774 73.0225Z" fill="#F0F0F0"/>
<path d="M64.1426 80.6445H45.5047C45.0156 80.6445 44.6191 81.041 44.6191 81.5301V85.7394C44.6191 86.2285 45.0156 86.6249 45.5047 86.6249H64.1426C64.6317 86.6249 65.0281 86.2285 65.0281 85.7394V81.5301C65.0281 81.041 64.6317 80.6445 64.1426 80.6445Z" fill="#F0F0F0"/>
<path d="M147.137 107.742H128.499C128.01 107.742 127.613 108.139 127.613 108.628V112.837C127.613 113.326 128.01 113.723 128.499 113.723H147.137C147.626 113.723 148.022 113.326 148.022 112.837V108.628C148.022 108.139 147.626 107.742 147.137 107.742Z" fill="#F0F0F0"/>
<path d="M169.404 107.742H150.766C150.277 107.742 149.881 108.139 149.881 108.628V112.837C149.881 113.326 150.277 113.723 150.766 113.723H169.404C169.893 113.723 170.29 113.326 170.29 112.837V108.628C170.29 108.139 169.893 107.742 169.404 107.742Z" fill="#F0F0F0"/>
<path d="M158.271 115.369H139.634C139.145 115.369 138.748 115.766 138.748 116.255V120.464C138.748 120.953 139.145 121.35 139.634 121.35H158.271C158.761 121.35 159.157 120.953 159.157 120.464V116.255C159.157 115.766 158.761 115.369 158.271 115.369Z" fill="#F0F0F0"/>
<path d="M52.9727 138.548H34.3348C33.8457 138.548 33.4492 138.944 33.4492 139.433V143.643C33.4492 144.132 33.8457 144.528 34.3348 144.528H52.9727C53.4618 144.528 53.8582 144.132 53.8582 143.643V139.433C53.8582 138.944 53.4618 138.548 52.9727 138.548Z" fill="#F0F0F0"/>
<path d="M64.1074 146.175H45.4695C44.9805 146.175 44.584 146.571 44.584 147.06V151.27C44.584 151.759 44.9805 152.155 45.4695 152.155H64.1074C64.5965 152.155 64.993 151.759 64.993 151.27V147.06C64.993 146.571 64.5965 146.175 64.1074 146.175Z" fill="#F0F0F0"/>
<path d="M237.291 45.6055H218.653C218.164 45.6055 217.768 46.0019 217.768 46.491V50.7003C217.768 51.1894 218.164 51.5859 218.653 51.5859H237.291C237.78 51.5859 238.177 51.1894 238.177 50.7003V46.491C238.177 46.0019 237.78 45.6055 237.291 45.6055Z" fill="#F0F0F0"/>
<path d="M259.561 45.6055H240.923C240.434 45.6055 240.037 46.0019 240.037 46.491V50.7003C240.037 51.1894 240.434 51.5859 240.923 51.5859H259.561C260.05 51.5859 260.446 51.1894 260.446 50.7003V46.491C260.446 46.0019 260.05 45.6055 259.561 45.6055Z" fill="#F0F0F0"/>
<path d="M248.426 53.2275H229.788C229.299 53.2275 228.902 53.624 228.902 54.1131V58.3224C228.902 58.8115 229.299 59.208 229.788 59.208H248.426C248.915 59.208 249.311 58.8115 249.311 58.3224V54.1131C249.311 53.624 248.915 53.2275 248.426 53.2275Z" fill="#F0F0F0"/>
<path d="M52.9337 52.8254C57.8769 50.7778 60.2243 45.1107 58.1767 40.1675C56.1292 35.2243 50.4621 32.8769 45.5188 34.9244C40.5756 36.972 38.2282 42.6391 40.2758 47.5823C42.3233 52.5255 47.9904 54.8729 52.9337 52.8254Z" fill="#E6E6E6"/>
<path d="M48.2024 40.2334H45.9531V47.5126H48.2024V40.2334Z" fill="white"/>
<path d="M52.4837 40.2334H50.2344V47.5126H52.4837V40.2334Z" fill="white"/>
<path d="M240.038 24.1524C238.918 24.1524 237.844 23.7076 237.053 22.916C236.261 22.1244 235.816 21.0508 235.816 19.9312V12.3627C235.816 11.2432 236.261 10.1696 237.053 9.37794C237.844 8.58633 238.918 8.14161 240.038 8.14161C240.592 8.14083 241.142 8.24944 241.655 8.46122C242.168 8.67301 242.634 8.98381 243.026 9.37585C243.419 9.7679 243.73 10.2335 243.943 10.746C244.155 11.2585 244.265 11.8079 244.265 12.3627V19.9312C244.265 20.4861 244.155 21.0354 243.943 21.548C243.73 22.0605 243.419 22.5261 243.026 22.9181C242.634 23.3102 242.168 23.621 241.655 23.8328C241.142 24.0445 240.592 24.1532 240.038 24.1524Z" fill="#E6E6E6"/>
<path d="M248.863 18.4199C248.863 18.6797 248.863 22.7945 246.159 25.5043C244.727 26.9167 242.815 27.7368 240.804 27.8009V32.4884H239.252V27.8009C237.246 27.7322 235.339 26.9125 233.909 25.5043C231.223 22.7827 231.211 18.6679 231.211 18.4199H232.764C232.764 18.4553 232.764 22.1333 235.031 24.4122C235.691 25.0497 236.476 25.5443 237.337 25.8653C238.197 26.1862 239.114 26.3266 240.031 26.2777C240.952 26.322 241.872 26.1795 242.737 25.8589C243.601 25.5383 244.392 25.0462 245.061 24.4122C247.293 22.151 247.31 18.5439 247.31 18.4199H248.863Z" fill="#E6E6E6"/>
<path d="M271.621 138.358H265.428V198.405H271.621V138.358Z" fill="#E0E0E0"/>
<path d="M252.109 138.358H245.916V198.405H252.109V138.358Z" fill="#F0F0F0"/>
<path d="M176.513 138.358H170.32V198.405H176.513V138.358Z" fill="#E0E0E0"/>
<path d="M156.996 138.358H150.803V198.405H156.996V138.358Z" fill="#F0F0F0"/>
<path d="M150.809 138.353V148.95H271.627V138.353H150.809Z" fill="#F0F0F0"/>
<path d="M271.62 138.358H245.939V148.956H271.62V138.358Z" fill="#E0E0E0"/>
<path d="M277.017 224.257C277.017 226.323 219.993 227.999 149.651 227.999C79.3088 227.999 22.2852 226.335 22.2852 224.257C22.2852 222.178 79.3088 220.52 149.651 220.52C219.993 220.52 277.017 222.202 277.017 224.257Z" fill="#F5F5F5"/>
<path d="M71.2273 6.87221V14.1514C71.2286 14.6465 71.0743 15.1295 70.7861 15.532C70.498 15.9346 70.0906 16.2364 69.6215 16.3948L69.7868 19.937L66.6933 16.5306H53.7052C53.0789 16.5306 52.4783 16.2818 52.0354 15.839C51.5925 15.3961 51.3438 14.7955 51.3438 14.1692V6.87221C51.3438 6.24591 51.5925 5.64527 52.0354 5.2024C52.4783 4.75954 53.0789 4.51074 53.7052 4.51074H68.8777C69.5019 4.51386 70.0995 4.76404 70.5398 5.20656C70.9802 5.64908 71.2273 6.24795 71.2273 6.87221Z" fill="#FFC000"/>
<path opacity="0.5" d="M71.2273 6.87221V14.1514C71.2286 14.6465 71.0743 15.1295 70.7861 15.532C70.498 15.9346 70.0906 16.2364 69.6215 16.3948L69.7868 19.937L66.6933 16.5306H53.7052C53.0789 16.5306 52.4783 16.2818 52.0354 15.839C51.5925 15.3961 51.3438 14.7955 51.3438 14.1692V6.87221C51.3438 6.24591 51.5925 5.64527 52.0354 5.2024C52.4783 4.75954 53.0789 4.51074 53.7052 4.51074H68.8777C69.5019 4.51386 70.0995 4.76404 70.5398 5.20656C70.9802 5.64908 71.2273 6.24795 71.2273 6.87221Z" fill="white"/>
<path d="M56.6039 11.6952C57.2104 11.6952 57.702 11.2036 57.702 10.5971C57.702 9.99065 57.2104 9.49902 56.6039 9.49902C55.9975 9.49902 55.5059 9.99065 55.5059 10.5971C55.5059 11.2036 55.9975 11.6952 56.6039 11.6952Z" fill="#FFC000"/>
<path d="M65.9262 11.6952C66.5327 11.6952 67.0243 11.2036 67.0243 10.5971C67.0243 9.99065 66.5327 9.49902 65.9262 9.49902C65.3198 9.49902 64.8281 9.99065 64.8281 10.5971C64.8281 11.2036 65.3198 11.6952 65.9262 11.6952Z" fill="#FFC000"/>
<path d="M61.309 11.6952C61.9155 11.6952 62.4071 11.2036 62.4071 10.5971C62.4071 9.99065 61.9155 9.49902 61.309 9.49902C60.7026 9.49902 60.2109 9.99065 60.2109 10.5971C60.2109 11.2036 60.7026 11.6952 61.309 11.6952Z" fill="#FFC000"/>
<path d="M122.117 27.5233V37.8725C122.116 38.2296 122.186 38.5834 122.322 38.9135C122.458 39.2437 122.658 39.5438 122.911 39.7966C123.163 40.0494 123.462 40.2499 123.792 40.3868C124.122 40.5236 124.476 40.594 124.833 40.594H181.98L184.342 45.7657L186.816 40.594H189.691C190.048 40.594 190.401 40.5236 190.731 40.3868C191.061 40.2499 191.361 40.0494 191.613 39.7966C191.865 39.5438 192.065 39.2437 192.201 38.9135C192.337 38.5834 192.407 38.2296 192.406 37.8725V27.5233C192.407 27.1665 192.337 26.813 192.201 26.4831C192.065 26.1533 191.865 25.8536 191.613 25.6013C191.36 25.349 191.061 25.149 190.731 25.0128C190.401 24.8766 190.047 24.8068 189.691 24.8076H124.833C124.476 24.8068 124.123 24.8766 123.793 25.0128C123.463 25.149 123.163 25.349 122.911 25.6013C122.659 25.8536 122.459 26.1533 122.322 26.4831C122.186 26.813 122.116 27.1665 122.117 27.5233Z" fill="#FFC000"/>
<path opacity="0.5" d="M122.117 27.5233V37.8725C122.116 38.2296 122.186 38.5834 122.322 38.9135C122.458 39.2437 122.658 39.5438 122.911 39.7966C123.163 40.0494 123.462 40.2499 123.792 40.3868C124.122 40.5236 124.476 40.594 124.833 40.594H181.98L184.342 45.7657L186.816 40.594H189.691C190.048 40.594 190.401 40.5236 190.731 40.3868C191.061 40.2499 191.361 40.0494 191.613 39.7966C191.865 39.5438 192.065 39.2437 192.201 38.9135C192.337 38.5834 192.407 38.2296 192.406 37.8725V27.5233C192.407 27.1665 192.337 26.813 192.201 26.4831C192.065 26.1533 191.865 25.8536 191.613 25.6013C191.36 25.349 191.061 25.149 190.731 25.0128C190.401 24.8766 190.047 24.8068 189.691 24.8076H124.833C124.476 24.8068 124.123 24.8766 123.793 25.0128C123.463 25.149 123.163 25.349 122.911 25.6013C122.659 25.8536 122.459 26.1533 122.322 26.4831C122.186 26.813 122.116 27.1665 122.117 27.5233Z" fill="white"/>
<path d="M134.696 32.4351C134.698 33.2994 134.442 34.1446 133.963 34.8638C133.484 35.583 132.802 36.1439 132.004 36.4755C131.205 36.807 130.327 36.8944 129.479 36.7265C128.631 36.5586 127.852 36.143 127.241 35.5322C126.629 34.9215 126.212 34.1431 126.043 33.2955C125.874 32.4478 125.96 31.5691 126.291 30.7705C126.621 29.9719 127.181 29.2892 127.9 28.8089C128.619 28.3286 129.463 28.0723 130.328 28.0723C131.485 28.0723 132.596 28.5317 133.415 29.3497C134.234 30.1678 134.695 31.2774 134.696 32.4351Z" fill="#FFC000"/>
<path d="M129.131 30.375V34.4958L132.779 32.1815L129.131 30.375Z" fill="white"/>
<path d="M138.062 29.6543H137.389V35.6583H138.062V29.6543Z" fill="#FFC000"/>
<path d="M140.607 30.7461H139.934V34.5658H140.607V30.7461Z" fill="#FFC000"/>
<path d="M143.152 29.6543H142.479V35.6583H143.152V29.6543Z" fill="#FFC000"/>
<path d="M145.691 30.7461H145.018V34.5658H145.691V30.7461Z" fill="#FFC000"/>
<path d="M150.778 30.7461H150.105V34.5658H150.778V30.7461Z" fill="#FFC000"/>
<path d="M155.862 30.7461H155.189V34.5658H155.862V30.7461Z" fill="#FFC000"/>
<path d="M160.95 30.7461H160.277V34.5658H160.95V30.7461Z" fill="#FFC000"/>
<path d="M166.034 30.7461H165.361V34.5658H166.034V30.7461Z" fill="#FFC000"/>
<path d="M171.116 30.7461H170.443V34.5658H171.116V30.7461Z" fill="#FFC000"/>
<path d="M176.206 30.7461H175.533V34.5658H176.206V30.7461Z" fill="#FFC000"/>
<path d="M186.396 30.7461H185.723V34.5658H186.396V30.7461Z" fill="#FFC000"/>
<path d="M181.425 30.7461H180.752V34.5658H181.425V30.7461Z" fill="#FFC000"/>
<path d="M148.234 29.6543H147.561V35.6583H148.234V29.6543Z" fill="#FFC000"/>
<path d="M153.323 29.6543H152.65V35.6583H153.323V29.6543Z" fill="#FFC000"/>
<path d="M158.405 29.6543H157.732V35.6583H158.405V29.6543Z" fill="#FFC000"/>
<path d="M163.489 29.6543H162.816V35.6583H163.489V29.6543Z" fill="#FFC000"/>
<path d="M168.577 29.6543H167.904V35.6583H168.577V29.6543Z" fill="#FFC000"/>
<path d="M173.661 29.6543H172.988V35.6583H173.661V29.6543Z" fill="#FFC000"/>
<path d="M178.751 29.6543H178.078V35.6583H178.751V29.6543Z" fill="#FFC000"/>
<path d="M183.833 29.6543H183.16V35.6583H183.833V29.6543Z" fill="#FFC000"/>
<path opacity="0.8" d="M155.862 30.7461H155.189V34.5658H155.862V30.7461Z" fill="white"/>
<path opacity="0.8" d="M160.95 30.7461H160.277V34.5658H160.95V30.7461Z" fill="white"/>
<path opacity="0.8" d="M166.034 30.7461H165.361V34.5658H166.034V30.7461Z" fill="white"/>
<path opacity="0.8" d="M171.116 30.7461H170.443V34.5658H171.116V30.7461Z" fill="white"/>
<path opacity="0.8" d="M176.206 30.7461H175.533V34.5658H176.206V30.7461Z" fill="white"/>
<path opacity="0.8" d="M186.396 30.7461H185.723V34.5658H186.396V30.7461Z" fill="white"/>
<path opacity="0.8" d="M181.425 30.7461H180.752V34.5658H181.425V30.7461Z" fill="white"/>
<path opacity="0.8" d="M158.405 29.6543H157.732V35.6583H158.405V29.6543Z" fill="white"/>
<path opacity="0.8" d="M163.489 29.6543H162.816V35.6583H163.489V29.6543Z" fill="white"/>
<path opacity="0.8" d="M168.577 29.6543H167.904V35.6583H168.577V29.6543Z" fill="white"/>
<path opacity="0.8" d="M173.661 29.6543H172.988V35.6583H173.661V29.6543Z" fill="white"/>
<path opacity="0.8" d="M178.751 29.6543H178.078V35.6583H178.751V29.6543Z" fill="white"/>
<path opacity="0.8" d="M183.833 29.6543H183.16V35.6583H183.833V29.6543Z" fill="white"/>
<path d="M172.74 2.82799V13.183C172.741 13.5399 172.671 13.8934 172.535 14.2232C172.399 14.553 172.199 14.8527 171.947 15.1051C171.694 15.3574 171.395 15.5574 171.065 15.6936C170.735 15.8298 170.381 15.8995 170.025 15.8987H112.877L110.516 21.0763L108.042 15.8987H105.167C104.81 15.8995 104.457 15.8298 104.127 15.6936C103.797 15.5574 103.497 15.3574 103.245 15.1051C102.993 14.8527 102.793 14.553 102.656 14.2232C102.52 13.8934 102.45 13.5399 102.451 13.183V2.82799C102.451 2.10775 102.737 1.417 103.247 0.90771C103.756 0.398419 104.447 0.112305 105.167 0.112305H170.048C170.764 0.118532 171.449 0.407394 171.953 0.916011C172.457 1.42463 172.74 2.11182 172.74 2.82799Z" fill="#FFC000"/>
<path opacity="0.5" d="M172.74 2.82799V13.183C172.741 13.5399 172.671 13.8934 172.535 14.2232C172.399 14.553 172.199 14.8527 171.947 15.1051C171.694 15.3574 171.395 15.5574 171.065 15.6936C170.735 15.8298 170.381 15.8995 170.025 15.8987H112.877L110.516 21.0763L108.042 15.8987H105.167C104.81 15.8995 104.457 15.8298 104.127 15.6936C103.797 15.5574 103.497 15.3574 103.245 15.1051C102.993 14.8527 102.793 14.553 102.656 14.2232C102.52 13.8934 102.45 13.5399 102.451 13.183V2.82799C102.451 2.10775 102.737 1.417 103.247 0.90771C103.756 0.398419 104.447 0.112305 105.167 0.112305H170.048C170.764 0.118532 171.449 0.407394 171.953 0.916011C172.457 1.42463 172.74 2.11182 172.74 2.82799Z" fill="white"/>
<path d="M110.598 3.96191H110.504C109.656 3.96191 108.969 4.64914 108.969 5.49687V8.431C108.969 9.27873 109.656 9.96595 110.504 9.96595H110.598C111.446 9.96595 112.133 9.27873 112.133 8.431V5.49687C112.133 4.64914 111.446 3.96191 110.598 3.96191Z" fill="#FFC000"/>
<path d="M113.862 7.81641C113.854 8.79519 113.493 9.73827 112.847 10.4731C112.31 11.003 111.593 11.3108 110.84 11.335V13.1061H110.249V11.335C109.497 11.3093 108.783 11.0016 108.248 10.4731C107.601 9.73827 107.241 8.79519 107.232 7.81641H107.823C107.837 8.64033 108.137 9.43365 108.673 10.0598C108.921 10.2996 109.215 10.4858 109.538 10.6067C109.861 10.7276 110.206 10.7806 110.55 10.7623C110.895 10.7786 111.24 10.7247 111.564 10.6039C111.888 10.4832 112.183 10.2981 112.434 10.0598C112.967 9.43283 113.266 8.63959 113.278 7.81641H113.862Z" fill="#FFC000"/>
<path d="M119.472 5.04785H118.799V11.0519H119.472V5.04785Z" fill="#FFC000"/>
<path d="M122.011 6.13965H121.338V9.95933H122.011V6.13965Z" fill="#FFC000"/>
<path d="M124.554 5.04785H123.881V11.0519H124.554V5.04785Z" fill="#FFC000"/>
<path d="M127.099 6.13965H126.426V9.95933H127.099V6.13965Z" fill="#FFC000"/>
<path d="M132.183 6.13965H131.51V9.95933H132.183V6.13965Z" fill="#FFC000"/>
<path d="M137.265 6.13965H136.592V9.95933H137.265V6.13965Z" fill="#FFC000"/>
<path d="M142.355 6.13965H141.682V9.95933H142.355V6.13965Z" fill="#FFC000"/>
<path d="M147.437 6.13965H146.764V9.95933H147.437V6.13965Z" fill="#FFC000"/>
<path d="M152.527 6.13965H151.854V9.95933H152.527V6.13965Z" fill="#FFC000"/>
<path d="M157.609 6.13965H156.936V9.95933H157.609V6.13965Z" fill="#FFC000"/>
<path d="M167.798 6.13965H167.125V9.95933H167.798V6.13965Z" fill="#FFC000"/>
<path d="M162.827 6.13965H162.154V9.95933H162.827V6.13965Z" fill="#FFC000"/>
<path d="M129.638 5.04785H128.965V11.0519H129.638V5.04785Z" fill="#FFC000"/>
<path d="M134.726 5.04785H134.053V11.0519H134.726V5.04785Z" fill="#FFC000"/>
<path d="M139.81 5.04785H139.137V11.0519H139.81V5.04785Z" fill="#FFC000"/>
<path d="M144.9 5.04785H144.227V11.0519H144.9V5.04785Z" fill="#FFC000"/>
<path d="M149.982 5.04785H149.309V11.0519H149.982V5.04785Z" fill="#FFC000"/>
<path d="M155.066 5.04785H154.393V11.0519H155.066V5.04785Z" fill="#FFC000"/>
<path d="M160.153 5.04785H159.48V11.0519H160.153V5.04785Z" fill="#FFC000"/>
<path d="M165.237 5.04785H164.564V11.0519H165.237V5.04785Z" fill="#FFC000"/>
<path opacity="0.8" d="M137.265 6.13965H136.592V9.95933H137.265V6.13965Z" fill="white"/>
<path opacity="0.8" d="M142.355 6.13965H141.682V9.95933H142.355V6.13965Z" fill="white"/>
<path opacity="0.8" d="M147.437 6.13965H146.764V9.95933H147.437V6.13965Z" fill="white"/>
<path opacity="0.8" d="M152.527 6.13965H151.854V9.95933H152.527V6.13965Z" fill="white"/>
<path opacity="0.8" d="M157.609 6.13965H156.936V9.95933H157.609V6.13965Z" fill="white"/>
<path opacity="0.8" d="M167.798 6.13965H167.125V9.95933H167.798V6.13965Z" fill="white"/>
<path opacity="0.8" d="M162.827 6.13965H162.154V9.95933H162.827V6.13965Z" fill="white"/>
<path opacity="0.8" d="M139.81 5.04785H139.137V11.0519H139.81V5.04785Z" fill="white"/>
<path opacity="0.8" d="M144.9 5.04785H144.227V11.0519H144.9V5.04785Z" fill="white"/>
<path opacity="0.8" d="M149.982 5.04785H149.309V11.0519H149.982V5.04785Z" fill="white"/>
<path opacity="0.8" d="M155.066 5.04785H154.393V11.0519H155.066V5.04785Z" fill="white"/>
<path opacity="0.8" d="M160.153 5.04785H159.48V11.0519H160.153V5.04785Z" fill="white"/>
<path opacity="0.8" d="M165.237 5.04785H164.564V11.0519H165.237V5.04785Z" fill="white"/>
<path d="M149.091 190.488C149.091 190.488 144.492 183.262 133.328 176.697C125.447 172.057 120.848 158.986 120.848 158.986C120.848 158.986 135.955 159.642 142.526 168.84C149.097 178.037 149.091 190.488 149.091 190.488Z" fill="#FFC000"/>
<g opacity="0.2">
<path d="M149.091 190.488C149.091 190.488 144.492 183.262 133.328 176.697C125.447 172.057 120.848 158.986 120.848 158.986C120.848 158.986 135.955 159.642 142.526 168.84C149.097 178.037 149.091 190.488 149.091 190.488Z" fill="black"/>
</g>
<path opacity="0.2" d="M149.142 190.683C149.093 190.684 149.044 190.668 149.005 190.638C148.965 190.608 148.937 190.566 148.924 190.518C147.091 183.938 143.534 177.966 138.622 173.22C136.458 171.054 134.037 169.161 131.414 167.582C131.388 167.567 131.365 167.548 131.347 167.524C131.329 167.501 131.316 167.474 131.308 167.446C131.301 167.417 131.299 167.388 131.303 167.358C131.307 167.329 131.316 167.301 131.331 167.275C131.345 167.249 131.363 167.226 131.386 167.208C131.408 167.189 131.435 167.175 131.463 167.167C131.491 167.159 131.52 167.156 131.549 167.16C131.578 167.163 131.607 167.172 131.632 167.187C134.292 168.785 136.746 170.702 138.941 172.895C143.908 177.697 147.504 183.738 149.355 190.394C149.363 190.423 149.365 190.453 149.361 190.482C149.358 190.512 149.348 190.54 149.333 190.566C149.318 190.592 149.299 190.615 149.275 190.633C149.251 190.651 149.224 190.664 149.195 190.671L149.142 190.683Z" fill="black"/>
<path d="M147.112 190.323C147.112 190.323 145.796 187.696 139.886 188.357C133.977 189.019 130.688 192.295 120.18 186.386C120.18 186.386 128.061 179.815 136.604 181.131C145.146 182.448 145.796 185.73 147.112 190.323Z" fill="#FFC000"/>
<g opacity="0.2">
<path d="M147.112 190.323C147.112 190.323 145.796 187.696 139.886 188.357C133.977 189.019 130.688 192.295 120.18 186.386C120.18 186.386 128.061 179.815 136.604 181.131C145.146 182.448 145.796 185.73 147.112 190.323Z" fill="black"/>
</g>
<path opacity="0.2" d="M147.141 190.547C147.102 190.548 147.064 190.539 147.03 190.52C146.995 190.501 146.967 190.474 146.946 190.441C146.946 190.4 144.278 186.25 140.027 185.476C132.594 184.124 127.535 186.498 127.488 186.521C127.462 186.535 127.433 186.544 127.403 186.546C127.374 186.549 127.344 186.545 127.316 186.536C127.287 186.526 127.261 186.511 127.239 186.492C127.217 186.472 127.199 186.448 127.187 186.421C127.174 186.394 127.166 186.365 127.164 186.335C127.163 186.306 127.167 186.276 127.177 186.248C127.187 186.22 127.202 186.194 127.222 186.172C127.242 186.15 127.266 186.132 127.293 186.12C127.34 186.12 132.524 183.652 140.104 185.033C144.555 185.842 147.218 190.028 147.33 190.205C147.361 190.256 147.371 190.317 147.358 190.376C147.345 190.434 147.309 190.485 147.259 190.518C147.222 190.535 147.182 190.545 147.141 190.547Z" fill="black"/>
<path d="M149.693 189.691C149.693 189.691 149.179 186.798 154.309 183.787C159.44 180.776 164.039 181.455 168.939 170.439C168.939 170.439 158.696 169.849 152.627 176.03C146.558 182.211 147.998 185.216 149.693 189.691Z" fill="#FFC000"/>
<g opacity="0.2">
<path d="M149.693 189.691C149.693 189.691 149.179 186.798 154.309 183.787C159.44 180.776 164.039 181.455 168.939 170.439C168.939 170.439 158.696 169.849 152.627 176.03C146.558 182.211 147.998 185.216 149.693 189.691Z" fill="black"/>
</g>
<path opacity="0.2" d="M149.669 189.934C149.613 189.934 149.558 189.913 149.517 189.875C149.475 189.836 149.449 189.784 149.445 189.727C149.445 189.515 149.061 184.567 152.149 181.261C157.409 175.629 163.023 174.49 163.076 174.478C163.136 174.468 163.197 174.481 163.247 174.515C163.296 174.549 163.331 174.602 163.342 174.661C163.353 174.719 163.34 174.779 163.307 174.827C163.274 174.876 163.223 174.909 163.165 174.921C163.106 174.921 157.633 176.048 152.479 181.568C149.528 184.733 149.888 189.639 149.894 189.692C149.896 189.721 149.893 189.751 149.883 189.779C149.874 189.807 149.86 189.833 149.841 189.856C149.821 189.878 149.798 189.897 149.772 189.91C149.745 189.924 149.716 189.932 149.687 189.934H149.669Z" fill="black"/>
<path d="M148.623 225.438C136.881 225.438 129.407 223.573 130.611 215.296C131.373 210.047 135.464 204.905 138.357 201.847C138.764 201.416 139.142 201.026 139.49 200.666C140.565 199.61 141.261 199.002 141.261 199.002L141.291 198.807L141.498 197.626L141.734 196.292L142.277 193.24L142.46 192.171L148.6 191.899L155.005 192.171L155.153 193.24L155.383 194.91L155.755 197.626L155.914 198.807V199.002C155.914 199.002 156.641 199.592 157.685 200.666C158.034 201.009 158.418 201.398 158.825 201.847C161.712 204.905 165.809 210.047 166.571 215.296C167.822 223.555 160.348 225.438 148.623 225.438Z" fill="#FFC000"/>
<path d="M157.284 193.263H139.797V189.526H157.284V193.263Z" fill="#FFC000"/>
<g opacity="0.4">
<path d="M157.284 193.263H139.797V189.526H157.284V193.263Z" fill="white"/>
</g>
<g opacity="0.3">
<path d="M155.92 198.807H141.297L141.504 197.649H155.761L155.92 198.807Z" fill="black"/>
</g>
<g opacity="0.3">
<path d="M158.879 201.823H138.34C138.747 201.392 139.125 201.003 139.473 200.643H157.739C158.07 201.009 158.471 201.398 158.879 201.823Z" fill="black"/>
</g>
<path d="M211.067 62.6257C208.96 66.7937 206.722 70.7787 204.225 74.7223C202.979 76.6883 201.687 78.6424 200.27 80.5788C199.561 81.5411 198.817 82.5034 198.009 83.4716C197.595 83.9557 197.17 84.4457 196.692 84.9416C196.166 85.4918 195.604 86.0065 195.009 86.4824C194.592 86.8105 194.148 87.1028 193.681 87.3562C193.322 87.5411 192.946 87.6932 192.559 87.8108C191.937 88.0007 191.283 88.0649 190.635 87.9997C190.422 87.9756 190.211 87.9382 190.003 87.8875C189.887 87.861 189.773 87.8275 189.661 87.7872C189.507 87.734 189.36 87.675 189.212 87.61C189.007 87.5207 188.809 87.4141 188.622 87.2912L188.409 87.1496L188.285 87.0492L188.049 86.8544L187.884 86.7009C187.76 86.5887 187.689 86.512 187.6 86.4234C187.282 86.0869 187.063 85.833 186.839 85.5379C186.006 84.4752 185.375 83.4952 184.719 82.5034C183.432 80.5315 182.246 78.5656 181.089 76.5997C178.763 72.6383 176.578 68.6297 174.488 64.5444L178.196 62.1829L186.431 72.9984C187.801 74.7696 189.165 76.5761 190.564 78.3118C191.243 79.156 191.963 80.0061 192.589 80.6732C192.712 80.8043 192.842 80.9285 192.979 81.0452C192.979 81.0452 193.02 81.0806 193.008 81.0452L192.937 80.9802L192.896 80.9507L192.778 80.8621C192.655 80.7819 192.527 80.7108 192.394 80.6496C192.276 80.5965 192.164 80.5552 192.046 80.5138L191.804 80.443C191.664 80.4099 191.522 80.3843 191.379 80.3662C191.017 80.3269 190.65 80.3549 190.298 80.4489C190.182 80.4813 190.068 80.5208 189.956 80.567C189.873 80.6024 189.956 80.567 190.021 80.4607C190.198 80.2777 190.481 79.9589 190.759 79.6106C191.036 79.2623 191.349 78.8667 191.627 78.4298C192.217 77.6092 192.807 76.7237 193.362 75.8145C194.508 73.9962 195.629 72.0952 196.722 70.1706C197.814 68.246 198.912 66.2978 199.992 64.3437L203.227 58.499L211.067 62.6257Z" fill="#FF8B7B"/>
<path d="M205.513 51.2441L195.43 67.8394L204.468 75.4669L207.574 61.4457L205.513 51.2441Z" fill="#FFC000"/>
<path opacity="0.3" d="M205.194 51.7275L195.43 67.8387L204.468 75.4662L207.574 61.445L205.194 51.7275Z" fill="black"/>
<path d="M218.005 209.392V219.646L213.867 219.977L211.836 210.372L218.005 209.392Z" fill="#FF8B7B"/>
<path d="M215.065 219.008C215.065 219.008 213.766 216.511 212.999 216.777C212.231 217.042 211.912 220.077 211.912 220.077C211.912 220.077 207.738 221.47 206.599 221.547C205.46 221.624 204.485 222.279 204.338 224.558H218.595C218.595 224.558 218.495 219.416 218.471 218.536C218.448 217.656 217.19 218.754 217.19 218.754L215.065 219.008Z" fill="#FFC000"/>
<g opacity="0.2">
<path d="M215.065 219.008C215.065 219.008 213.766 216.511 212.999 216.777C212.231 217.042 211.912 220.077 211.912 220.077C211.912 220.077 207.738 221.47 206.599 221.547C205.46 221.624 204.485 222.279 204.338 224.558H218.595C218.595 224.558 218.495 219.416 218.471 218.536C218.448 217.656 217.19 218.754 217.19 218.754L215.065 219.008Z" fill="white"/>
</g>
<path d="M218.412 220.49C218.158 220.631 217.936 220.822 217.758 221.052C217.581 221.282 217.452 221.545 217.379 221.827C217.307 222.108 217.293 222.401 217.337 222.688C217.382 222.975 217.484 223.249 217.639 223.495C217.646 223.507 217.651 223.521 217.653 223.535C217.656 223.549 217.655 223.563 217.652 223.576C217.648 223.59 217.642 223.603 217.634 223.614C217.626 223.626 217.615 223.636 217.603 223.643C217.591 223.65 217.578 223.655 217.564 223.657C217.55 223.66 217.536 223.659 217.522 223.656C217.509 223.652 217.496 223.647 217.484 223.638C217.473 223.63 217.463 223.619 217.456 223.607C217.285 223.338 217.17 223.038 217.119 222.723C217.067 222.409 217.08 222.087 217.156 221.778C217.232 221.468 217.37 221.177 217.562 220.923C217.753 220.668 217.994 220.455 218.27 220.296C218.389 220.219 218.53 220.419 218.412 220.49Z" fill="white"/>
<path d="M218.436 223.743L207.249 223.855L204.651 223.885C204.504 223.885 204.474 223.66 204.651 223.66L215.833 223.542L218.436 223.513C218.578 223.513 218.608 223.737 218.466 223.743H218.436Z" fill="white"/>
<path d="M212.533 220.975C211.942 220.278 211.092 220.077 210.455 220.609C210.348 220.691 210.207 220.496 210.313 220.408C211.051 219.817 212.049 220.065 212.716 220.862C212.816 220.98 212.633 221.093 212.533 220.975Z" fill="white"/>
<path d="M211.351 221.346C211.243 221.18 211.103 221.038 210.938 220.928C210.773 220.819 210.588 220.744 210.393 220.71C210.198 220.675 209.998 220.68 209.805 220.726C209.613 220.771 209.432 220.856 209.273 220.974C209.167 221.063 209.025 220.868 209.131 220.779C209.869 220.189 210.867 220.437 211.534 221.228C211.635 221.346 211.452 221.464 211.351 221.346Z" fill="white"/>
<path d="M210.128 221.712C210.02 221.547 209.879 221.405 209.714 221.296C209.549 221.187 209.363 221.113 209.169 221.079C208.974 221.045 208.774 221.051 208.582 221.097C208.39 221.143 208.209 221.228 208.05 221.346C207.944 221.435 207.802 221.24 207.909 221.151C208.647 220.561 209.644 220.809 210.312 221.6C210.412 221.718 210.229 221.83 210.128 221.712Z" fill="white"/>
<path d="M220.496 107.742C220.377 109.572 220.625 115.193 220.377 118.209C219.911 123.96 219.285 131.416 218.789 138.872C218.199 147.521 217.798 156.182 218.004 162.192C218.536 177.624 218.417 212.597 218.417 212.597H211.723C211.723 212.597 203.859 177.837 202.389 162.192C201.161 149.204 201.799 115.807 202.017 107.73L220.496 107.742Z" fill="#263238"/>
<path opacity="0.2" d="M220.378 118.209C219.911 123.96 219.286 131.416 218.79 138.872C215.495 129.119 218.554 114.384 218.554 114.384L220.378 118.209Z" fill="black"/>
<path d="M219.003 212.845H211.145L210.566 210.342L219.369 210.035L219.003 212.845Z" fill="#FFC000"/>
<path d="M227.397 163.218C230.632 178.568 242.587 212.142 242.587 212.142L249.241 211.38C249.241 211.38 244.394 176.927 242.121 161.66C240.072 147.875 238.791 116.426 238.325 107.057L216.109 107.741C216.812 115.788 224.717 150.466 227.397 163.236V163.218Z" fill="#263238"/>
<path d="M248.675 209.392V219.646L244.537 219.977L242.506 210.372L248.675 209.392Z" fill="#FF8B7B"/>
<path d="M245.741 219.008C245.741 219.008 244.436 216.511 243.668 216.777C242.901 217.042 242.582 220.077 242.582 220.077C242.582 220.077 238.408 221.47 237.269 221.547C236.13 221.624 235.155 222.279 235.008 224.558H249.265C249.265 224.558 249.165 219.416 249.141 218.536C249.118 217.656 247.86 218.754 247.86 218.754L245.741 219.008Z" fill="#FFC000"/>
<g opacity="0.2">
<path d="M245.741 219.008C245.741 219.008 244.436 216.511 243.668 216.777C242.901 217.042 242.582 220.077 242.582 220.077C242.582 220.077 238.408 221.47 237.269 221.547C236.13 221.624 235.155 222.279 235.008 224.558H249.265C249.265 224.558 249.165 219.416 249.141 218.536C249.118 217.656 247.86 218.754 247.86 218.754L245.741 219.008Z" fill="white"/>
</g>
<path d="M249.082 220.49C248.828 220.631 248.606 220.822 248.428 221.052C248.25 221.282 248.122 221.545 248.049 221.827C247.977 222.108 247.962 222.401 248.007 222.688C248.052 222.975 248.154 223.249 248.309 223.495C248.316 223.507 248.321 223.521 248.323 223.535C248.325 223.549 248.325 223.563 248.322 223.576C248.318 223.59 248.312 223.603 248.304 223.614C248.296 223.626 248.285 223.636 248.273 223.643C248.261 223.65 248.248 223.655 248.234 223.657C248.22 223.66 248.206 223.659 248.192 223.656C248.178 223.652 248.166 223.647 248.154 223.638C248.143 223.63 248.133 223.619 248.126 223.607C247.955 223.338 247.84 223.038 247.789 222.723C247.737 222.409 247.75 222.087 247.826 221.778C247.902 221.468 248.04 221.177 248.232 220.923C248.423 220.668 248.664 220.455 248.94 220.296C249.059 220.219 249.2 220.419 249.082 220.49Z" fill="white"/>
<path d="M249.105 223.743L237.918 223.855L235.32 223.885C235.172 223.885 235.143 223.66 235.29 223.66L246.472 223.542L249.075 223.513C249.217 223.513 249.247 223.737 249.105 223.743Z" fill="white"/>
<path d="M243.201 220.975C242.61 220.278 241.76 220.077 241.123 220.609C241.016 220.691 240.875 220.496 240.981 220.408C241.719 219.817 242.717 220.065 243.384 220.862C243.484 220.98 243.301 221.093 243.201 220.975Z" fill="white"/>
<path d="M242.021 221.346C241.913 221.18 241.773 221.038 241.608 220.928C241.443 220.819 241.257 220.744 241.063 220.71C240.868 220.675 240.668 220.68 240.475 220.726C240.283 220.771 240.102 220.856 239.943 220.974C239.837 221.063 239.695 220.868 239.801 220.779C240.539 220.189 241.537 220.437 242.204 221.228C242.304 221.346 242.121 221.464 242.021 221.346Z" fill="white"/>
<path d="M240.798 221.712C240.69 221.547 240.549 221.405 240.384 221.296C240.219 221.187 240.033 221.113 239.838 221.079C239.643 221.045 239.444 221.051 239.251 221.097C239.059 221.143 238.878 221.228 238.72 221.346C238.614 221.435 238.478 221.24 238.578 221.151C239.316 220.561 240.314 220.809 240.981 221.6C241.081 221.718 240.898 221.83 240.798 221.712Z" fill="white"/>
<path d="M249.842 211.558L242.038 212.444L241.182 210.018L249.884 208.719L249.842 211.558Z" fill="#FFC000"/>
<path d="M201.133 109.903L239.212 108.58C239.454 103.267 234.819 78.2532 238.863 53.1803C238.958 52.5831 238.932 51.9729 238.786 51.3861C238.64 50.7993 238.377 50.2478 238.014 49.7647C237.65 49.2815 237.193 48.8765 236.669 48.5738C236.146 48.2711 235.567 48.0769 234.967 48.0028C233.302 47.7961 231.295 47.6013 229.093 47.495C224.583 47.1931 220.059 47.1931 215.55 47.495C212.692 47.7548 206.151 48.9237 204.97 52.1707C203.949 55.0104 202.29 101.461 201.133 109.903Z" fill="#FFC000"/>
<path d="M178.698 65.6191L178.344 61.7935C178.344 61.7935 179.011 59.9693 178.414 58.8417C176.726 55.6537 173.101 54.6442 172.788 55.5356C172.735 55.6832 170.828 60.2586 170.828 60.2586L175.374 66.0914L178.698 65.6191Z" fill="#FF8B7B"/>
<path d="M172.305 63.8601L177.028 64.846C177.83 65.0113 178.385 64.2556 178.137 63.3405L175.103 52.2239C175.031 51.9351 174.884 51.6705 174.676 51.4569C174.469 51.2434 174.209 51.0884 173.922 51.0078L169.199 50.0219C168.396 49.8566 167.841 50.6122 168.095 51.5332L171.13 62.6439C171.199 62.9331 171.345 63.1984 171.551 63.4123C171.758 63.6261 172.018 63.7808 172.305 63.8601Z" fill="black"/>
<g opacity="0.2">
<path d="M172.305 63.8601L177.028 64.846C177.83 65.0113 178.385 64.2556 178.137 63.3405L175.103 52.2239C175.031 51.9351 174.884 51.6705 174.676 51.4569C174.469 51.2434 174.209 51.0884 173.922 51.0078L169.199 50.0219C168.396 49.8566 167.841 50.6122 168.095 51.5332L171.13 62.6439C171.199 62.9331 171.345 63.1984 171.551 63.4123C171.758 63.6261 172.018 63.7808 172.305 63.8601Z" fill="white"/>
</g>
<path d="M171.826 63.7657L176.549 64.7457C177.358 64.911 177.907 64.1554 177.659 63.2403L174.601 52.1237C174.529 51.8349 174.382 51.5703 174.174 51.3567C173.967 51.1431 173.707 50.9882 173.42 50.9075L168.697 49.9275C167.888 49.7563 167.339 50.5179 167.587 51.433L170.622 62.5496C170.696 62.8412 170.847 63.1077 171.059 63.3216C171.27 63.5354 171.535 63.6887 171.826 63.7657Z" fill="black"/>
<g opacity="0.2">
<path d="M171.135 57.041C171.18 57.3547 171.309 57.6505 171.507 57.8976C171.705 58.1448 171.966 58.3342 172.263 58.4461C172.765 58.5524 173.072 58.0919 172.948 57.4188C172.903 57.1035 172.774 56.806 172.575 56.5576C172.375 56.3093 172.113 56.1194 171.814 56.0079C171.312 55.9075 171.011 56.368 171.135 57.041Z" fill="white"/>
</g>
<path d="M168.107 53.6758C168.107 53.6758 171.058 54.2957 171.106 54.9746C171.135 55.7834 169.819 55.565 168.839 55.5236C167.735 55.4882 167.64 53.7112 168.107 53.6758Z" fill="#FF8B7B"/>
<path d="M168.768 55.2402C168.407 55.8296 168.282 56.5344 168.42 57.2121C168.656 58.3338 170.085 61.7638 171.189 59.5204C172.854 56.1376 169.418 55.3111 168.768 55.2402Z" fill="#FF8B7B"/>
<path d="M172.948 52.4893C172.973 52.6655 173.045 52.8318 173.156 52.9709C173.267 53.11 173.413 53.2169 173.579 53.2804C173.863 53.3394 174.034 53.0796 173.963 52.69C173.937 52.5133 173.864 52.3469 173.752 52.2078C173.64 52.0687 173.493 51.9621 173.325 51.8989C173.048 51.8694 172.877 52.1114 172.948 52.4893Z" fill="black"/>
<g opacity="0.2">
<path d="M172.948 52.4893C172.973 52.6655 173.045 52.8318 173.156 52.9709C173.267 53.11 173.413 53.2169 173.579 53.2804C173.863 53.3394 174.034 53.0796 173.963 52.69C173.937 52.5133 173.864 52.3469 173.752 52.2078C173.64 52.0687 173.493 51.9621 173.325 51.8989C173.048 51.8694 172.877 52.1114 172.948 52.4893Z" fill="white"/>
</g>
<path d="M213.323 23.5319C214.572 23.2106 215.874 23.1496 217.148 23.3527C218.421 23.5559 219.639 24.0188 220.727 24.7127C222.149 25.6454 223.33 26.9738 223.118 28.7626C222.616 32.9424 220.756 39.8261 220.756 39.8261L207.29 31.6082C207.29 31.6082 206.699 28.0659 208.411 25.8816C209.297 24.7658 211.458 24.0101 213.323 23.5319Z" fill="black"/>
<path d="M214.043 44.4372V44.4844L214.698 46.8931C214.803 47.7682 214.757 48.6547 214.562 49.5144C214.037 50.2464 213.801 51.8758 215.678 51.8758C218.04 51.8758 222.391 48.3691 222.544 47.3182C221.417 44.083 220.472 40.2869 220.626 37.1875L217.933 40.1393L214.043 44.4372Z" fill="#FF8B7B"/>
<g opacity="0.2">
<path d="M214.061 44.49L214.716 46.8987C216.198 46.2079 217.744 44.732 218.087 43.1498C218.329 42.0045 217.809 40.9359 217.349 40.8828L214.061 44.49Z" fill="black"/>
</g>
<path d="M208.01 39.4723C208.152 39.9919 208.317 40.5055 208.488 41.0132C210.017 45.5 215.573 45.866 218.997 42.5304C219.31 42.2274 219.598 41.8997 219.859 41.5504C222.031 38.6517 221.465 36.4378 221.093 31.4079C221.019 30.2399 220.648 29.1101 220.016 28.1255C219.383 27.1409 218.509 26.3343 217.477 25.782C216.445 25.2297 215.29 24.9501 214.12 24.9697C212.949 24.9893 211.804 25.3074 210.791 25.8939C206.593 28.3026 206.558 34.2594 208.01 39.4723Z" fill="#FF8B7B"/>
<path d="M211.316 40.3159H211.204C211.181 40.3175 211.159 40.3142 211.138 40.3063C211.117 40.2984 211.098 40.286 211.083 40.27C211.067 40.254 211.055 40.2347 211.048 40.2136C211.04 40.1925 211.038 40.1701 211.04 40.1478C211.042 40.1255 211.049 40.104 211.06 40.0848C211.072 40.0655 211.087 40.049 211.106 40.0363C211.124 40.0236 211.145 40.0151 211.167 40.0114C211.189 40.0077 211.212 40.0088 211.233 40.0148C211.526 40.0432 211.821 40.0114 212.101 39.9214C212.381 39.8315 212.639 39.6852 212.86 39.4917C213.081 39.2982 213.261 39.0614 213.387 38.796C213.513 38.5306 213.584 38.2422 213.595 37.9485C213.601 37.9087 213.622 37.8729 213.654 37.8486C213.686 37.8243 213.726 37.8135 213.766 37.8186C213.785 37.8208 213.804 37.8268 213.821 37.8364C213.838 37.8459 213.853 37.8587 213.865 37.8741C213.878 37.8895 213.886 37.9071 213.892 37.926C213.897 37.9448 213.898 37.9645 213.896 37.9839C213.861 38.6344 213.57 39.2447 213.086 39.6816C212.603 40.1184 211.967 40.3464 211.316 40.3159Z" fill="black"/>
<path d="M221.157 31.8796C221.157 31.8796 219.64 31.9622 219.581 33.261C219.522 34.5598 219.663 34.731 219.663 34.731L217.892 35.1148C217.892 35.1148 218.37 30.1616 217.06 30.2265C215.749 30.2915 217.16 28.0599 216.375 27.7411C214.521 26.9913 209.474 26.9736 207.52 30.0199C207.52 30.0199 208.021 27.0208 210.412 25.3914C212.803 23.762 217.615 23.4019 219.575 25.7575C221.535 28.113 221.157 31.8796 221.157 31.8796Z" fill="black"/>
<path d="M223.69 34.4477C223.596 35.0687 223.381 35.6652 223.057 36.203C222.733 36.7409 222.306 37.2097 221.801 37.5826C220.437 38.5685 219.18 37.494 219.067 35.9059C218.967 34.4772 219.557 32.2397 221.157 31.8796C222.757 31.5195 223.908 32.9128 223.69 34.4477Z" fill="#FF8B7B"/>
<path d="M213.665 34.832C213.718 35.2276 213.553 35.57 213.299 35.6054C213.045 35.6408 212.792 35.3516 212.738 34.956C212.685 34.5605 212.851 34.218 213.104 34.1826C213.358 34.1472 213.612 34.4365 213.665 34.832Z" fill="black"/>
<path d="M209.351 35.3389C209.404 35.7344 209.238 36.0768 208.985 36.1122C208.731 36.1477 208.471 35.8584 208.394 35.4628C208.317 35.0673 208.506 34.7249 208.766 34.6895C209.026 34.654 209.274 34.9433 209.327 35.3389" fill="black"/>
<path d="M207.662 33.8638C207.697 33.858 207.729 33.8436 207.757 33.822C207.785 33.8003 207.807 33.7721 207.821 33.7398C207.868 33.6105 207.941 33.4918 208.034 33.3905C208.127 33.2891 208.239 33.2072 208.364 33.1495C208.629 33.0513 208.92 33.0513 209.185 33.1495C209.21 33.1633 209.237 33.1719 209.265 33.1746C209.293 33.1774 209.321 33.1742 209.348 33.1653C209.374 33.1564 209.399 33.1419 209.42 33.1229C209.44 33.104 209.457 33.0808 209.468 33.055C209.479 33.0292 209.485 33.0013 209.485 32.9732C209.485 32.9451 209.478 32.9173 209.467 32.8917C209.455 32.8661 209.438 32.8432 209.417 32.8246C209.396 32.8059 209.371 32.7919 209.344 32.7834C208.979 32.6451 208.576 32.6451 208.211 32.7834C208.032 32.8636 207.872 32.9801 207.741 33.1254C207.61 33.2708 207.511 33.4418 207.449 33.6277C207.439 33.652 207.434 33.6782 207.434 33.7047C207.434 33.7312 207.439 33.7574 207.45 33.7817C207.46 33.806 207.475 33.8279 207.495 33.8461C207.514 33.8643 207.537 33.8783 207.562 33.8874C207.596 33.8855 207.63 33.8775 207.662 33.8638Z" fill="black"/>
<path d="M214.616 33.0605C214.643 33.0687 214.671 33.0687 214.698 33.0605C214.72 33.0463 214.74 33.0276 214.754 33.0057C214.769 32.9838 214.779 32.9592 214.784 32.9332C214.789 32.9072 214.789 32.8806 214.783 32.8547C214.778 32.8289 214.767 32.8045 214.751 32.7831C214.529 32.4623 214.194 32.2369 213.813 32.1514C213.62 32.1208 213.423 32.1302 213.234 32.1789C213.045 32.2277 212.868 32.3148 212.715 32.4347C212.671 32.4666 212.642 32.514 212.634 32.5669C212.625 32.6198 212.637 32.674 212.667 32.7181C212.7 32.76 212.747 32.7881 212.8 32.7969C212.852 32.8056 212.906 32.7944 212.951 32.7653C213.06 32.6772 213.186 32.6118 213.32 32.5733C213.455 32.5348 213.597 32.5238 213.736 32.541C214.013 32.6086 214.256 32.7743 214.421 33.0074C214.446 33.0327 214.477 33.0509 214.511 33.0603C214.545 33.0696 214.581 33.0697 214.616 33.0605Z" fill="black"/>
<path d="M211.01 34.6133C210.667 35.7982 210.152 36.9262 209.481 37.9607C209.38 38.1083 211.193 38.4152 211.193 38.4152L211.01 34.6133Z" fill="#FF5652"/>
<path d="M233.17 112.276L233.436 112.796C234.741 114.558 236.229 116.177 237.876 117.625C239.647 116.916 241.111 112.607 241.223 112.058C241.335 111.509 238.986 107.76 238.986 107.76C236.328 108.306 233.835 109.467 231.706 111.148C230.16 112.471 234.8 110.883 234.8 110.883L233.17 112.276Z" fill="#FF8B7B"/>
<path d="M220.986 34.194C220.986 34.259 220.591 37.7362 219.859 42.8843C219.268 46.8633 218.536 51.846 217.586 57.0531C214.634 73.1701 211.481 83.6786 208.14 88.2953C206.534 90.5151 204.556 91.6309 202.236 91.6309H201.888C199.249 91.5069 196.173 89.9661 192.731 87.0556C189.481 84.2002 186.516 81.0368 183.876 77.6097C180.49 73.2755 177.37 68.7411 174.53 64.0312C174.499 63.9794 174.49 63.9176 174.505 63.8591C174.519 63.8006 174.556 63.7501 174.607 63.7183C174.659 63.6882 174.722 63.6799 174.78 63.6954C174.839 63.7109 174.889 63.7488 174.92 63.801C177.747 68.497 180.858 73.0158 184.236 77.3322C191.214 86.1877 197.318 90.9874 201.882 91.2058C204.19 91.3121 206.162 90.2613 207.75 88.071C210.283 84.5583 212.804 77.285 215.153 66.7764V66.7469C215.661 60.3709 212.751 50.3288 210.602 43.8938C210.814 44.0119 211.015 44.1417 211.31 44.2834C213.193 50.0336 215.443 58.3814 215.649 64.4681C216.145 62.1066 216.633 59.6192 217.113 57.0058C218.011 52.0349 218.755 47.2766 219.304 43.4274C220.089 37.9606 220.484 34.259 220.514 34.194C220.517 34.1647 220.526 34.1363 220.54 34.1105C220.554 34.0846 220.573 34.0619 220.596 34.0437C220.619 34.0255 220.646 34.0122 220.675 34.0046C220.703 33.9969 220.733 33.9951 220.762 33.9992C220.817 33.9987 220.87 34.0183 220.911 34.0542C220.952 34.0901 220.979 34.1398 220.986 34.194Z" fill="black"/>
<path opacity="0.9" d="M175.38 64.4918C178.094 68.9301 181.061 73.2094 184.265 77.3087C191.243 86.1642 197.347 90.9639 201.911 91.1823C204.213 91.2886 206.191 90.2377 207.779 88.0415C210.312 84.5348 212.833 77.2614 215.182 66.747C215.69 60.3769 212.779 50.3348 210.63 43.8998C210.837 44.0178 211.044 44.1418 211.339 44.2894C212.283 47.1468 213.317 50.689 214.155 54.2312C214.98 57.5832 215.494 61.0041 215.69 64.4505C216.186 62.089 216.674 59.6016 217.154 56.9882C218.051 52.0173 218.795 47.2589 219.344 43.4098C220.124 37.9489 220.525 34.2472 220.555 34.1823C220.557 34.1532 220.565 34.1249 220.578 34.0991C220.592 34.0733 220.611 34.0506 220.633 34.0323C220.656 34.014 220.682 34.0006 220.71 33.9929C220.738 33.9852 220.768 33.9834 220.797 33.9875C220.855 33.9935 220.909 34.0222 220.946 34.0675C220.984 34.1127 221.002 34.1709 220.997 34.2295C220.997 34.2886 220.602 37.7717 219.87 42.9197C219.279 46.8988 218.547 51.8756 217.597 57.0886C214.645 73.1997 211.492 83.7141 208.151 88.3308C206.545 90.5506 204.567 91.6664 202.247 91.6664H201.899C199.26 91.5424 196.184 90.0016 192.742 87.0851C189.49 84.2327 186.524 81.0691 183.887 77.6393C180.59 73.4174 177.545 69.0057 174.766 64.4268L175.38 64.4918Z" fill="white"/>
<path d="M220.845 35.0085C221.23 35.0085 221.542 34.6966 221.542 34.3119C221.542 33.9271 221.23 33.6152 220.845 33.6152C220.46 33.6152 220.148 33.9271 220.148 34.3119C220.148 34.6966 220.46 35.0085 220.845 35.0085Z" fill="black"/>
<path d="M220.845 35.0085C221.23 35.0085 221.542 34.6966 221.542 34.3119C221.542 33.9271 221.23 33.6152 220.845 33.6152C220.46 33.6152 220.148 33.9271 220.148 34.3119C220.148 34.6966 220.46 35.0085 220.845 35.0085Z" fill="black"/>
<path opacity="0.9" d="M220.845 35.0085C221.23 35.0085 221.542 34.6966 221.542 34.3119C221.542 33.9271 221.23 33.6152 220.845 33.6152C220.46 33.6152 220.148 33.9271 220.148 34.3119C220.148 34.6966 220.46 35.0085 220.845 35.0085Z" fill="white"/>
<path d="M222.971 29.843C220.583 30.0984 218.169 29.9567 215.827 29.4238C215.16 29.2939 214.493 29.1404 213.826 28.981C213.052 28.7834 212.261 28.6627 211.464 28.6209C207.556 28.4497 208.217 30.0201 207.261 31.6377C207.261 31.6377 199.297 29.5064 199.297 26.6609C199.3 26.3501 199.388 26.0461 199.551 25.7812C200.69 23.8212 203.896 24.4411 207.084 25.5805C209.67 20.1904 220.367 21.8081 222.546 24.9547C223.897 26.8852 222.971 29.843 222.971 29.843Z" fill="#FFC000"/>
<path opacity="0.5" d="M215.827 29.4358C215.16 29.306 214.493 29.1525 213.826 28.9931C213.052 28.7954 212.261 28.6748 211.464 28.6329C207.556 28.4617 208.217 30.0321 207.261 31.6497C207.261 31.6497 199.297 29.5185 199.297 26.6729C199.3 26.3621 199.388 26.0581 199.551 25.7933C200.69 23.8333 203.896 24.4531 207.084 25.5926C210.526 26.8618 214.097 28.7097 215.827 29.4358Z" fill="black"/>
<path d="M238.265 52.5957C239.977 57.3186 241.571 62.0416 243.089 66.7645C243.838 69.126 244.582 71.5347 245.279 73.9552C245.976 76.3757 246.66 78.7903 247.251 81.3584C247.392 82.0137 247.534 82.6572 247.664 83.4011C247.729 83.7494 247.788 84.1922 247.835 84.6586C247.835 84.9124 247.835 85.1899 247.835 85.4142V86.0518C247.724 87.4402 247.526 88.8203 247.245 90.1844C246.779 92.7525 246.165 95.1966 245.551 97.6466C244.275 102.523 242.829 107.299 241.194 112.058L237.215 111.089L239.287 96.4069C239.635 93.9805 239.93 91.5423 240.16 89.1867C240.276 88.0964 240.329 87.0005 240.32 85.9042V85.6032V85.4319C240.29 85.2844 240.261 85.1072 240.196 84.8416C240.096 84.3634 239.936 83.8025 239.783 83.2535C239.133 81.0101 238.372 78.6663 237.604 76.3462L235.243 69.3503L230.484 55.3114L238.265 52.5957Z" fill="#FF8B7B"/>
<path d="M237.624 49.3131C237.624 49.3131 239.69 50.9189 240.906 55.1046C242.122 59.2903 244.673 66.1209 244.673 66.1209L233.302 71.198C233.302 71.198 227.611 58.8594 227.989 54.3667C228.325 50.6355 233.278 47.607 237.624 49.3131Z" fill="#FFC000"/>
<path opacity="0.3" d="M237.624 49.3131C237.624 49.3131 239.69 50.9189 240.906 55.1046C242.122 59.2903 244.673 66.1209 244.673 66.1209L233.302 71.198C233.302 71.198 227.611 58.8594 227.989 54.3667C228.325 50.6355 233.278 47.607 237.624 49.3131Z" fill="black"/>
<path d="M243.084 107.642C243.084 107.642 240.823 105.145 238.119 105.333C237.64 105.735 237.717 106.514 237.8 107.27C237.8 107.27 240.604 107.736 242.11 109.525C242.08 109.525 243.349 108.545 243.084 107.642Z" fill="#263238"/>
<path d="M241.194 109.283L240.604 109.058C239.984 108.828 239.759 107.878 240.108 106.951C240.456 106.024 241.235 105.445 241.879 105.676L242.611 105.959L242.457 106.343L241.359 108.999L241.194 109.283Z" fill="#263238"/>
<path d="M241.195 109.283C240.575 109.052 240.356 108.102 240.699 107.181C241.041 106.26 241.826 105.675 242.47 105.906C243.113 106.136 243.314 107.086 242.966 108.007C242.617 108.928 241.815 109.513 241.195 109.283Z" fill="#263238"/>
<path d="M241.531 108.739C241.13 108.592 240.982 107.978 241.213 107.37C241.443 106.761 241.945 106.384 242.352 106.537C242.759 106.691 242.901 107.299 242.671 107.907C242.441 108.515 241.939 108.893 241.531 108.739Z" fill="white"/>
<path d="M115.316 77.6929C115.316 78.3954 115.316 79.1038 115.257 79.8654C115.257 80.2492 115.198 80.6506 115.15 81.0875C115.092 81.5887 115.001 82.0856 114.879 82.5752C114.786 82.9393 114.668 83.2964 114.525 83.6438C114.244 84.327 113.845 84.9547 113.344 85.4975C112.784 86.1036 112.094 86.574 111.325 86.8731C111.067 86.9696 110.803 87.0485 110.534 87.1092C110.225 87.1776 109.911 87.2171 109.595 87.2273C109.326 87.2482 109.055 87.2482 108.786 87.2273C108.568 87.2063 108.351 87.1708 108.137 87.121C107.595 87.0005 107.074 86.8016 106.59 86.5307C106.325 86.383 106.071 86.2173 105.829 86.0348C105.527 85.8063 105.239 85.5598 104.967 85.2968C104.742 85.0843 104.565 84.9012 104.376 84.7064C104.052 84.3463 103.786 84.0216 103.526 83.7146C102.782 82.7818 102.156 81.914 101.566 81.058C101.395 80.7805 101.212 80.5148 101.029 80.2432C99.5648 77.9821 98.2187 75.7742 96.9494 73.5249C94.3931 69.0322 92.0494 64.5336 89.8945 59.8579L99.7123 55.0582C101.956 59.3206 104.152 63.6952 106.348 67.9754C106.348 67.4382 106.389 66.895 106.407 66.3578C106.537 61.3692 106.62 56.3216 106.797 51.2916L111.915 50.8193C112.972 55.8493 113.775 60.8556 114.407 65.9682C114.731 68.5245 114.962 71.0867 115.15 73.7079C115.263 74.9831 115.304 76.3114 115.316 77.6929Z" fill="#263238"/>
<path opacity="0.2" d="M104.394 84.665C104.069 84.3049 103.803 83.9802 103.544 83.6732C102.8 82.7404 102.174 81.8726 101.584 81.0166L100.604 64.3623L104.394 84.665Z" fill="black"/>
<path d="M106.843 51.9169L105.485 48.0205C105.485 48.0205 104.73 46.1667 105.302 44.9919C106.914 41.6563 110.616 40.4756 110.952 41.3788C111.017 41.5323 113.154 46.1844 113.154 46.1844L111.897 50.8542C110.356 52.2357 108.691 52.708 106.843 51.9169Z" fill="#B55B52"/>
<path d="M111.773 49.9098L106.956 51.0905C106.135 51.2912 105.539 50.5356 105.775 49.5851L108.479 38.0611C108.541 37.7587 108.684 37.4786 108.891 37.2502C109.099 37.0217 109.364 36.8532 109.659 36.7623L114.477 35.5816C115.297 35.3808 115.894 36.1306 115.658 37.087L112.96 48.6228C112.895 48.9237 112.75 49.2018 112.542 49.4281C112.333 49.6544 112.068 49.8207 111.773 49.9098Z" fill="black"/>
<g opacity="0.2">
<path d="M111.773 49.9098L106.956 51.0905C106.135 51.2912 105.539 50.5356 105.775 49.5851L108.479 38.0611C108.541 37.7587 108.684 37.4786 108.891 37.2502C109.099 37.0217 109.364 36.8532 109.659 36.7623L114.477 35.5816C115.297 35.3808 115.894 36.1306 115.658 37.087L112.96 48.6228C112.895 48.9237 112.75 49.2018 112.542 49.4281C112.333 49.6544 112.068 49.8207 111.773 49.9098Z" fill="white"/>
</g>
<path d="M112.257 49.7913L107.44 50.972C106.619 51.1727 106.023 50.4229 106.259 49.4666L108.951 37.9308C109.015 37.6297 109.158 37.3512 109.366 37.1239C109.573 36.8966 109.838 36.7288 110.132 36.6379L114.949 35.4571C115.764 35.2505 116.366 36.0062 116.13 36.9626L113.438 48.4984C113.374 48.7994 113.231 49.078 113.023 49.3052C112.816 49.5325 112.551 49.7003 112.257 49.7913Z" fill="black"/>
<g opacity="0.2">
<path d="M112.711 42.8551C112.678 43.1801 112.558 43.4902 112.364 43.7529C112.17 44.0156 111.908 44.2214 111.608 44.3487C111.094 44.4727 110.763 44.0122 110.864 43.3155C110.899 42.9903 111.02 42.6803 111.215 42.4177C111.41 42.1551 111.672 41.9494 111.974 41.8219C112.481 41.6979 112.812 42.1584 112.711 42.8551Z" fill="white"/>
</g>
<path d="M115.706 39.2832C115.706 39.2832 112.672 40.0389 112.672 40.7355C112.672 41.5679 114.018 41.2787 115.033 41.2078C116.155 41.1311 116.155 39.3068 115.706 39.2832Z" fill="#B55B52"/>
<path d="M115.08 40.918C115.471 41.5114 115.622 42.2305 115.505 42.9311C115.304 44.1119 113.97 47.6541 112.754 45.4048C110.912 41.9924 114.395 41.0183 115.08 40.918Z" fill="#B55B52"/>
<path d="M110.681 38.2504C110.661 38.4333 110.593 38.6077 110.483 38.7552C110.373 38.9026 110.225 39.0178 110.055 39.0887C109.766 39.1595 109.583 38.8998 109.642 38.4983C109.665 38.324 109.733 38.1588 109.84 38.019C109.947 37.8792 110.088 37.7697 110.25 37.7013C110.551 37.601 110.734 37.8607 110.681 38.2504Z" fill="black"/>
<g opacity="0.2">
<path d="M110.681 38.2504C110.661 38.4333 110.593 38.6077 110.483 38.7552C110.373 38.9026 110.225 39.0178 110.055 39.0887C109.766 39.1595 109.583 38.8998 109.642 38.4983C109.665 38.324 109.733 38.1588 109.84 38.019C109.947 37.8792 110.088 37.7697 110.25 37.7013C110.551 37.601 110.734 37.8607 110.681 38.2504Z" fill="white"/>
</g>
<path d="M96.6133 213.536L97.8531 219.829H101.183L101.626 213.536H96.6133Z" fill="#B55B52"/>
<path d="M100.746 219.027C100.912 218.816 101.134 218.656 101.387 218.565C101.639 218.474 101.912 218.456 102.175 218.513C102.972 218.785 104.023 220.095 104.023 220.095C104.023 220.095 108.362 221.482 109.531 221.559C110.7 221.636 111.727 222.291 112.17 224.558H97.9595C97.9595 224.558 97.3691 219.434 97.316 218.554C97.2628 217.675 98.6207 218.773 98.6207 218.773L100.746 219.027Z" fill="#FFC000"/>
<path d="M111.744 223.885L109.188 223.855L97.9708 223.737C97.9426 223.737 97.9156 223.726 97.8957 223.706C97.8757 223.686 97.8645 223.659 97.8645 223.631C97.8645 223.603 97.8757 223.576 97.8957 223.556C97.9156 223.536 97.9426 223.525 97.9708 223.525H98.7324C98.9538 222.967 98.955 222.347 98.7358 221.789C98.5165 221.231 98.0932 220.777 97.5517 220.52C97.4277 220.455 97.5516 220.26 97.6638 220.331C98.2394 220.613 98.6884 221.1 98.9223 221.697C99.1562 222.293 99.1579 222.956 98.9272 223.554H100.509L111.697 223.672C111.722 223.673 111.746 223.682 111.765 223.698C111.785 223.714 111.798 223.736 111.804 223.76C111.809 223.784 111.806 223.81 111.795 223.833C111.785 223.855 111.767 223.874 111.744 223.885Z" fill="black"/>
<path d="M103.52 220.986C103.62 220.819 103.755 220.676 103.915 220.566C104.075 220.455 104.257 220.38 104.448 220.344C104.64 220.309 104.836 220.315 105.025 220.362C105.214 220.408 105.391 220.494 105.544 220.614C105.663 220.703 105.769 220.508 105.657 220.425C105.478 220.29 105.273 220.195 105.055 220.144C104.837 220.093 104.611 220.089 104.391 220.131C104.171 220.174 103.963 220.262 103.779 220.389C103.595 220.517 103.441 220.682 103.325 220.874C103.242 220.986 103.437 221.098 103.52 220.986Z" fill="white"/>
<path d="M104.743 221.353C104.845 221.187 104.98 221.044 105.141 220.934C105.302 220.824 105.484 220.749 105.676 220.714C105.868 220.68 106.065 220.686 106.254 220.733C106.443 220.78 106.62 220.867 106.774 220.987C106.886 221.069 106.992 220.881 106.886 220.798C106.707 220.657 106.5 220.556 106.279 220.501C106.058 220.447 105.828 220.44 105.604 220.482C105.381 220.524 105.169 220.614 104.982 220.745C104.796 220.875 104.64 221.045 104.524 221.241C104.442 221.359 104.631 221.471 104.713 221.353H104.743Z" fill="white"/>
<path d="M106.006 221.724C106.107 221.557 106.243 221.414 106.404 221.303C106.564 221.192 106.747 221.117 106.939 221.083C107.131 221.048 107.328 221.055 107.518 221.102C107.707 221.15 107.884 221.237 108.037 221.358C108.149 221.441 108.261 221.252 108.149 221.163C107.971 221.029 107.766 220.933 107.548 220.882C107.33 220.832 107.103 220.827 106.884 220.87C106.664 220.912 106.455 221 106.272 221.128C106.088 221.256 105.933 221.421 105.817 221.612C105.735 221.73 105.924 221.836 106.006 221.724Z" fill="white"/>
<path d="M66.8457 213.583L67.5364 219.829H70.8661L71.8579 213.583H66.8457Z" fill="#B55B52"/>
<path d="M70.4237 219.027C70.5913 218.816 70.8144 218.656 71.0679 218.566C71.3213 218.475 71.5951 218.457 71.8583 218.513C72.6553 218.785 73.7061 220.095 73.7061 220.095C73.7061 220.095 78.0453 221.482 79.2143 221.559C80.3832 221.636 81.4104 222.291 81.8532 224.558H67.6431C67.6431 224.558 67.0527 219.434 66.9996 218.554C66.9464 217.675 68.3043 218.773 68.3043 218.773L70.4237 219.027Z" fill="#FFC000"/>
<path d="M81.4296 223.885L78.8733 223.855L67.6564 223.737C67.6282 223.737 67.6011 223.726 67.5812 223.706C67.5613 223.686 67.5501 223.659 67.5501 223.631C67.5501 223.603 67.5613 223.576 67.5812 223.556C67.6011 223.536 67.6282 223.525 67.6564 223.525H68.4179C68.6394 222.967 68.6406 222.347 68.4213 221.789C68.2021 221.231 67.7787 220.777 67.2372 220.52C67.1132 220.455 67.2372 220.26 67.3494 220.331C67.925 220.613 68.374 221.1 68.6079 221.697C68.8417 222.293 68.8435 222.956 68.6128 223.554H70.189L81.406 223.672C81.4294 223.677 81.4507 223.689 81.4668 223.706C81.4829 223.724 81.493 223.746 81.4956 223.77C81.4982 223.793 81.4933 223.817 81.4814 223.838C81.4695 223.859 81.4514 223.875 81.4296 223.885Z" fill="black"/>
<path d="M73.1994 220.987C73.3006 220.82 73.436 220.677 73.5967 220.566C73.7573 220.455 73.9395 220.38 74.1314 220.345C74.3232 220.31 74.5203 220.316 74.7097 220.362C74.8991 220.409 75.0765 220.495 75.2303 220.615C75.3483 220.703 75.4546 220.509 75.3424 220.426C75.163 220.286 74.9559 220.186 74.7348 220.133C74.5136 220.079 74.2837 220.074 74.0602 220.116C73.8367 220.158 73.6249 220.248 73.4388 220.379C73.2527 220.51 73.0966 220.679 72.981 220.875C72.8983 220.987 73.0931 221.099 73.1699 220.987H73.1994Z" fill="white"/>
<path d="M74.4262 221.353C74.5279 221.186 74.6637 221.043 74.8245 220.933C74.9854 220.823 75.1677 220.749 75.3595 220.714C75.5513 220.679 75.7483 220.686 75.9374 220.733C76.1266 220.78 76.3037 220.866 76.457 220.987C76.5692 221.069 76.6755 220.88 76.5633 220.798C76.3858 220.662 76.1817 220.565 75.9642 220.513C75.7467 220.462 75.5208 220.457 75.3013 220.499C75.0817 220.541 74.8734 220.628 74.6901 220.756C74.5068 220.884 74.3524 221.049 74.2373 221.24C74.1546 221.358 74.3435 221.471 74.4262 221.353Z" fill="white"/>
<path d="M75.6901 221.724C75.7911 221.557 75.9266 221.414 76.0874 221.303C76.2483 221.192 76.4308 221.117 76.6229 221.083C76.815 221.048 77.0122 221.055 77.2016 221.102C77.3909 221.15 77.5679 221.237 77.7209 221.358C77.8331 221.441 77.9453 221.252 77.8331 221.163C77.6537 221.023 77.4465 220.923 77.2254 220.87C77.0043 220.817 76.7743 220.811 76.5509 220.853C76.3274 220.896 76.1155 220.985 75.9294 221.116C75.7433 221.247 75.5873 221.416 75.4716 221.612C75.389 221.73 75.5779 221.836 75.6606 221.724H75.6901Z" fill="white"/>
<path d="M95.492 213.754H102.836C103.468 204.308 105.268 172.977 103.846 157.48C104.867 135.973 101.579 107.423 101.579 107.423H78.3359C78.3359 107.423 80.0421 126.527 87.6933 157.167C87.6401 181.443 93.5615 205.713 95.492 213.754Z" fill="#FFC000"/>
<path opacity="0.2" d="M86.4355 152.02C90.6389 134.852 86.9491 112.583 86.9491 112.583L83.3242 138.016L86.4355 152.02Z" fill="black"/>
<path d="M94.6289 213.572L95.1661 216.364L103.585 216.329L103.591 213.536L94.6289 213.572Z" fill="#263238"/>
<path d="M65.8022 214.026H73.1405C75.7558 204.302 82.1259 172.977 82.9642 157.48C87.1263 135.973 88 107.423 88 107.423H64.7455C64.7455 107.423 63.6651 126.527 66.8413 157.167C63.2518 181.443 65.6369 205.713 65.8022 214.026Z" fill="#FFC000"/>
<path d="M65.1583 213.565L65.1465 216.328L73.6301 216.334L74.0728 213.565H65.1583Z" fill="#263238"/>
<path d="M104.629 110.906C88.5065 117.111 62.2234 112.612 62.2234 112.612C62.5422 104.731 62.8137 89.1039 62.7016 76.1218C62.7016 73.961 62.6484 71.8711 62.6071 69.9052C62.5363 66.363 62.4123 63.1809 62.247 60.6954C61.9518 56.2677 64.3546 52.1528 68.741 51.4208C70.0694 51.1964 71.504 51.0016 72.9976 50.8304L74.078 50.7241C78.3446 50.3073 82.6327 50.1496 86.9184 50.2518H87.5088H87.8453H88.3767C90.2304 50.3227 91.9779 50.4644 93.5483 50.671C97.0905 51.1315 100.284 53.9475 100.349 57.5429C100.515 67.1009 102.882 106.856 104.629 110.906Z" fill="#263238"/>
<path d="M83.3352 56.3275C78.2049 55.5246 75.5541 52.3543 74.0664 50.7544C78.3331 50.3376 82.6211 50.1799 86.9069 50.2821C90.9332 54.8693 88.0994 57.0772 83.3352 56.3275Z" fill="#263238"/>
<path opacity="0.9" d="M83.3352 56.3275C78.2049 55.5246 75.5541 52.3543 74.0664 50.7544C78.3331 50.3376 82.6211 50.1799 86.9069 50.2821C90.9332 54.8693 88.0994 57.0772 83.3352 56.3275Z" fill="white"/>
<path d="M83.8013 24.9967C82.4879 24.817 81.1517 24.9087 79.8753 25.2661C78.5988 25.6236 77.4093 26.2391 76.3803 27.0748C75.0461 28.1965 74.0189 29.6901 74.4262 31.4966C75.4357 35.7 78.1692 42.507 78.1692 42.507L91.0037 32.9194C91.0037 32.9194 91.1277 28.8459 89.1087 26.7973C88.0578 25.7524 85.7613 25.2446 83.8013 24.9967Z" fill="black"/>
<path d="M75.6554 27.7828C75.4058 27.469 75.0539 27.2529 74.6612 27.1719C74.2685 27.091 73.8598 27.1505 73.5065 27.34C72.2903 28.0426 73.8076 28.5208 73.8076 28.5208C73.8076 28.5208 72.3139 29.9317 73.0342 30.5398C73.7544 31.1479 75.1713 29.4772 75.1713 29.4772L75.6554 27.7828Z" fill="black"/>
<path d="M85.5547 46.4089C85.5539 46.4266 85.5539 46.4443 85.5547 46.462L85.1769 48.9947C85.1771 49.4957 85.2225 49.9956 85.3127 50.4883C85.3909 50.8884 85.4954 51.2828 85.6256 51.6691C86.2514 52.348 86.6941 54.0305 84.7695 54.2254C82.3431 54.5028 77.4962 51.6691 77.2188 50.6123C77.9803 47.1705 78.4939 42.9375 77.9685 39.8086L81.0679 42.5066L85.5547 46.4089Z" fill="#B55B52"/>
<g opacity="0.2">
<path d="M85.5441 46.4681L85.1663 49.0008C83.5664 48.4753 81.813 47.1529 81.2699 45.5766C80.8921 44.4372 81.2994 43.286 81.7599 43.1738L85.5441 46.4681Z" fill="black"/>
</g>
<path d="M91.1281 40.653C91.0455 41.2021 90.9392 41.7511 90.827 42.2883C89.7939 47.0526 84.1736 48.0857 80.2772 45.0867C79.9216 44.8164 79.5898 44.5162 79.2854 44.1893C76.7173 41.4913 77.0361 39.1653 76.8117 33.9819C76.7448 32.7785 76.9859 31.578 77.5124 30.4938C78.0388 29.4096 78.8331 28.4777 79.8202 27.7862C80.8073 27.0946 81.9545 26.6663 83.1532 26.5418C84.352 26.4173 85.5627 26.6007 86.6709 27.0746C91.2403 29.0464 91.9901 35.1213 91.1281 40.653Z" fill="#B55B52"/>
<path d="M91.1285 40.653C91.0459 41.2021 90.9396 41.7511 90.8274 42.2883C89.7943 47.0526 84.174 48.0857 80.2776 45.0867C78.6186 43.3156 78.0578 41.2493 79.3684 37.8311L80.5491 38.6162C80.5491 38.6162 80.7971 39.307 82.5859 39.6022C84.3747 39.8973 85.1894 38.7756 87.8047 39.4723C87.8047 39.4723 89.3456 38.6812 90.4614 39.2066C91.2702 39.5785 91.0931 40.0095 91.1285 40.653Z" fill="black"/>
<path d="M87.6163 41.6504C87.573 41.7989 87.4883 41.9319 87.3721 42.0341C87.2559 42.1362 87.1131 42.2031 86.9603 42.227C86.8074 42.251 86.651 42.2309 86.5091 42.1692C86.3673 42.1074 86.246 42.0066 86.1593 41.8785C86.0727 41.7503 86.0243 41.6002 86.0199 41.4456C86.0154 41.2909 86.0551 41.1382 86.1342 41.0053C86.2134 40.8724 86.3287 40.7648 86.4667 40.695C86.6048 40.6252 86.7598 40.5962 86.9138 40.6113C87.1441 40.657 87.3472 40.7918 87.4787 40.9864C87.6102 41.1809 87.6597 41.4196 87.6163 41.6504Z" fill="white"/>
<path d="M87.0021 26.525C84.3691 25.1494 79.41 25.3442 77.6861 27.995C75.9622 30.6457 76.7947 34.4359 76.7947 34.4359C77.2225 34.421 77.6453 34.5319 78.0108 34.7547C78.2362 34.8924 78.4359 35.0682 78.6012 35.2742C79.1171 35.7832 79.7161 36.2004 80.3723 36.5081C80.1302 35.0794 79.7819 32.3224 80.7915 32.2574C82.1375 32.1748 80.4313 30.0554 81.1988 29.6362C83.0053 28.6503 88.1533 28.0245 90.4912 30.9114C90.503 30.9114 89.6352 27.9064 87.0021 26.525Z" fill="black"/>
<path d="M82.2383 25.1674C82.2383 25.1674 85.1075 22.5757 87.0498 23.2133C88.8209 23.8037 89.9367 22.741 90.4149 21.0762C90.4149 21.0762 91.6487 23.6325 90.5034 25.6869C90.5034 25.6869 92.4398 24.5771 92.6937 23.0008C92.6937 23.0008 93.6501 26.1238 92.4871 28.1429C92.1494 28.7195 91.6447 29.1801 91.0396 29.4637C90.4345 29.7473 89.7576 29.8405 89.0983 29.731L82.2383 25.1674Z" fill="black"/>
<path d="M74.516 37.364C74.864 38.6149 75.6942 39.6766 76.8243 40.3159C78.3298 41.1601 79.4869 39.9144 79.4101 38.2791C79.3393 36.8091 78.4714 34.5952 76.7948 34.4181C75.1182 34.241 74.1086 35.7995 74.516 37.3699" fill="#B55B52"/>
<path d="M78.3995 40.3101C78.3995 40.4269 78.3649 40.541 78.3 40.6381C78.2351 40.7352 78.1429 40.8108 78.035 40.8555C77.9272 40.9002 77.8085 40.9119 77.6939 40.8891C77.5794 40.8663 77.4742 40.8101 77.3917 40.7275C77.3091 40.645 77.2529 40.5398 77.2301 40.4253C77.2073 40.3108 77.219 40.1921 77.2637 40.0842C77.3084 39.9763 77.384 39.8841 77.4811 39.8192C77.5782 39.7544 77.6924 39.7197 77.8091 39.7197C77.9657 39.7197 78.1159 39.7819 78.2266 39.8926C78.3373 40.0034 78.3995 40.1535 78.3995 40.3101Z" fill="white"/>
<path d="M84.7695 35.398C84.7695 35.8054 84.9703 36.1419 85.2359 36.1478C85.5016 36.1537 85.7259 35.8231 85.7318 35.4157C85.7377 35.0084 85.5311 34.6719 85.2654 34.6719C84.9998 34.6719 84.7754 34.9907 84.7695 35.398Z" fill="black"/>
<path d="M89.2383 35.4284C89.2383 35.8358 89.439 36.1723 89.7047 36.1723C89.9703 36.1723 90.1947 35.8535 90.2006 35.4461C90.2065 35.0388 89.9999 34.7023 89.7342 34.6964C89.4685 34.6905 89.2442 35.0211 89.2383 35.4284Z" fill="black"/>
<path d="M90.4964 33.9286C90.4609 33.9281 90.4262 33.918 90.396 33.8993C90.3658 33.8805 90.3413 33.8539 90.3252 33.8223C90.2662 33.6857 90.1797 33.5627 90.071 33.4612C89.9623 33.3596 89.8338 33.2815 89.6935 33.2319C89.4096 33.1683 89.1124 33.2081 88.8552 33.3441C88.8078 33.3664 88.7537 33.3699 88.7039 33.3538C88.6541 33.3378 88.6122 33.3035 88.5867 33.2577C88.5612 33.212 88.554 33.1583 88.5666 33.1075C88.5792 33.0567 88.6106 33.0125 88.6544 32.984C89.015 32.7865 89.4371 32.7338 89.8352 32.8364C90.0268 32.8968 90.2038 32.9962 90.3552 33.1282C90.5065 33.2603 90.629 33.4222 90.7148 33.6038C90.7402 33.6517 90.7457 33.7076 90.7302 33.7595C90.7148 33.8114 90.6796 33.8551 90.6322 33.8813C90.5931 33.9112 90.5455 33.9277 90.4964 33.9286Z" fill="black"/>
<path d="M83.5478 33.8101C83.5169 33.8181 83.4844 33.8181 83.4534 33.8101C83.4012 33.7825 83.362 33.7354 83.3443 33.679C83.3266 33.6226 83.3319 33.5615 83.3589 33.509C83.5663 33.1275 83.9067 32.8355 84.3153 32.6884C84.5251 32.6317 84.7441 32.6182 84.9593 32.6487C85.1744 32.6791 85.3811 32.7529 85.5669 32.8655C85.5972 32.8767 85.6247 32.8942 85.6475 32.9169C85.6704 32.9396 85.6881 32.967 85.6995 32.9972C85.7108 33.0273 85.7155 33.0596 85.7133 33.0918C85.711 33.1239 85.7019 33.1552 85.6864 33.1835C85.671 33.2118 85.6496 33.2365 85.6238 33.2558C85.598 33.2751 85.5683 33.2886 85.5368 33.2954C85.5053 33.3022 85.4727 33.3021 85.4412 33.2952C85.4097 33.2882 85.3801 33.2746 85.3544 33.2552C85.2208 33.1727 85.0721 33.1177 84.917 33.0934C84.7619 33.069 84.6035 33.0759 84.4511 33.1135C84.1559 33.2209 83.9088 33.4303 83.7545 33.7039C83.733 33.7387 83.7024 33.7671 83.666 33.7858C83.6296 33.8046 83.5887 33.813 83.5478 33.8101Z" fill="black"/>
<path d="M87.4863 35.2744C87.7008 36.1344 88.1602 36.9137 88.8087 37.5178C89.8478 38.427 87.752 39.1767 87.752 39.1767L87.4863 35.2744Z" fill="#A02724"/>
<path opacity="0.2" d="M70.6482 62.998L62.7019 76.1455C62.7019 73.9848 62.6487 71.8949 62.6074 69.929L70.6482 62.998Z" fill="black"/>
<path d="M62.8439 95.0078L59.6559 99.3883C55.3223 96.9094 51.1678 94.1299 47.2228 91.07C46.2192 90.2908 45.2096 89.4761 44.2296 88.5669C43.1354 87.5936 42.128 86.5269 41.2188 85.3789C40.9296 85.0017 40.6634 84.6074 40.4218 84.1982C40.0758 83.6082 39.8097 82.9749 39.6307 82.3149C39.5583 82.0718 39.507 81.8229 39.4772 81.571C39.432 81.2662 39.4103 80.9583 39.4122 80.6501C39.4126 80.4528 39.4244 80.2556 39.4477 80.0597C39.4477 79.8649 39.4949 79.676 39.5362 79.4693C39.5847 79.2489 39.6478 79.032 39.7251 78.8199L39.8314 78.5011L39.914 78.324L40.0793 77.9816L40.2151 77.7277L40.3509 77.4857L40.4631 77.3027C40.6225 77.0429 40.7524 76.8658 40.8822 76.6651C41.3959 75.9507 41.8327 75.4076 42.2755 74.894C42.7183 74.3804 43.1493 73.8726 43.5802 73.3826C45.31 71.4758 47.0516 69.7106 48.7991 67.9631C50.5466 66.2156 52.3413 64.5212 54.1124 62.8741C57.7018 59.5385 61.3503 56.3151 65.17 53.2334L72.2249 61.5753C68.6826 64.7692 64.9692 67.8922 61.3149 70.9917L55.854 75.6438C54.0356 77.1787 52.2409 78.7373 50.5407 80.2722C50.1333 80.6442 49.7378 81.0161 49.3599 81.3703C49.6492 81.76 49.9798 82.1673 50.3104 82.5511C51.0189 83.3776 51.7804 84.2277 52.5774 85.066C55.8303 88.437 59.3785 91.7372 62.8439 95.0078Z" fill="#263238"/>
<path d="M60.9782 93.1953C60.9782 93.1953 66.138 93.4964 67.0353 94.1635C67.9327 94.8306 64.969 100.805 63.4931 101.927C62.0172 103.049 62.3124 100.823 62.3124 100.823C62.3124 100.823 59.7561 101.065 58.3097 99.7071C56.8633 98.3492 57.0404 94.5768 60.9782 93.1953Z" fill="#B55B52"/>
</svg>
