<svg width="263" height="160" viewBox="0 0 263 160" fill="none" xmlns="http://www.w3.org/2000/svg">
<path d="M30.6591 86.2477C30.8598 81.1399 30.7904 76.0251 30.4511 70.9246C29.6955 60.4062 28.0904 49.9661 25.6514 39.7065C24.3115 33.9269 22.6636 28.2472 20.9437 22.5756C20.8957 22.4036 20.6197 22.4516 20.6677 22.6316C25.9794 42.6304 30.3351 63.2691 30.0351 84.0598C29.9511 89.8795 29.2792 95.5951 28.7272 101.375C28.7272 101.531 28.9672 101.591 29.0032 101.431C30.0991 96.4831 30.4551 91.2994 30.6591 86.2477Z" fill="#EBEBEB"/>
<path d="M20.6673 22.6318C20.6673 22.6318 12.6198 43.0546 14.4237 47.8543C16.2276 52.654 19.9394 53.6779 19.9394 53.6779C19.9394 53.6779 15.0157 60.6895 18.4555 67.3011C21.8952 73.9127 29.5388 73.5807 30.0547 81.0563C30.0467 81.0563 30.4747 49.8022 20.6673 22.6318Z" fill="#EBEBEB"/>
<path d="M29.1713 68.1488C29.1849 68.1141 29.1849 68.0755 29.1713 68.0408C28.0433 54.1536 25.5715 40.3105 21.3677 26.9593C21.3677 26.9193 21.2917 26.9313 21.3037 26.9593C22.9036 32.9349 24.3115 38.9412 25.5275 44.9782C24.4467 43.9549 23.1265 43.2192 21.6877 42.8383C21.6824 42.8383 21.6773 42.8404 21.6736 42.8442C21.6698 42.8479 21.6677 42.853 21.6677 42.8583C21.6677 42.8636 21.6698 42.8687 21.6736 42.8725C21.6773 42.8762 21.6824 42.8783 21.6877 42.8783C23.1756 43.5223 24.5995 44.2662 25.6515 45.5302C25.8875 46.7301 26.1194 47.898 26.3354 49.0819C24.5395 47.0821 22.0437 46.0741 19.5358 45.1262C19.5038 45.1262 19.4838 45.1702 19.5358 45.1822C22.1317 46.2421 24.7355 47.602 26.4834 49.8419C27.0967 53.2337 27.63 56.6348 28.0833 60.0453C26.7824 58.6849 25.1153 57.7306 23.2836 57.2974C23.2276 57.2974 23.1956 57.3654 23.2556 57.3814C25.1447 57.9263 26.8346 59.0089 28.1193 60.4972C28.1282 60.5074 28.1391 60.5156 28.1513 60.5212C28.3113 61.7212 28.4633 62.9211 28.6033 64.121C27.5986 63.2703 26.4644 62.5857 25.2435 62.0931C25.2383 62.0952 25.2338 62.0988 25.2307 62.1034C25.2276 62.1081 25.2259 62.1135 25.2259 62.1191C25.2259 62.1247 25.2276 62.1302 25.2307 62.1348C25.2338 62.1395 25.2383 62.1431 25.2435 62.1451C26.4881 62.6845 27.628 63.4386 28.6113 64.373C28.6113 64.373 28.6393 64.373 28.6553 64.393C28.7873 65.5369 28.9233 66.6809 29.0553 67.8248C27.2432 65.635 24.8912 63.9558 22.2317 62.9531C22.2217 62.9513 22.2114 62.953 22.2026 62.958C22.1938 62.9629 22.1869 62.9707 22.1831 62.9801C22.1794 62.9895 22.179 62.9999 22.182 63.0095C22.185 63.0192 22.1912 63.0275 22.1997 63.0331C24.8259 64.192 27.1337 65.9675 28.9273 68.2088C28.9455 68.235 28.9717 68.2546 29.002 68.2647C29.0322 68.2748 29.065 68.2748 29.0953 68.2648C29.2712 70.022 29.4246 71.7819 29.5552 73.5444C29.5552 73.5684 29.5952 73.5724 29.5952 73.5444C29.4592 71.7499 29.3179 69.9513 29.1713 68.1488Z" fill="white"/>
<path d="M22.7075 40.8184C21.3116 39.8624 19.5397 39.4504 17.8718 39.3145C17.8318 39.3145 17.8318 39.3705 17.8718 39.3745C19.6037 39.6304 21.0716 40.2584 22.6515 40.9344C22.7075 40.9664 22.7675 40.8624 22.7075 40.8184Z" fill="white"/>
<path d="M23.6838 62.4451C22.5645 61.8039 21.3333 61.3817 20.056 61.2012C20.012 61.2012 20.008 61.2652 20.056 61.2692C21.3086 61.5201 22.5201 61.9442 23.6558 62.5291C23.6652 62.5284 23.6742 62.5249 23.6817 62.5191C23.6891 62.5133 23.6947 62.5054 23.6977 62.4964C23.7007 62.4874 23.701 62.4778 23.6985 62.4686C23.696 62.4595 23.6909 62.4513 23.6838 62.4451Z" fill="white"/>
<path d="M51.8141 48.1862C48.4112 50.5398 45.2861 53.2718 42.4987 56.3297C39.6259 59.5644 37.4077 63.3256 35.9671 67.405C32.9131 75.9082 31.2715 84.8539 31.1074 93.8874C31.0042 98.8927 31.4861 103.893 32.5433 108.786C32.5502 108.823 32.5714 108.855 32.6021 108.876C32.6329 108.897 32.6707 108.905 32.7073 108.898C32.7439 108.892 32.7763 108.87 32.7973 108.84C32.8183 108.809 32.8262 108.771 32.8193 108.734C31.5064 100.099 31.5563 91.3117 32.9673 82.6921C34.3512 74.2446 36.5191 65.0531 41.8907 58.1856C44.8146 54.4458 48.4623 51.506 52.0661 48.4661C52.2501 48.3142 52.0101 48.0502 51.8141 48.1862Z" fill="#EBEBEB"/>
<path d="M32.3066 87.8115C34.2475 84.6786 36.5278 81.7692 39.1062 79.136C43.134 75.1122 46.5218 72.2524 47.0457 69.5886C47.5697 66.9247 43.014 64.9689 43.014 64.9689C43.014 64.9689 48.5856 65.9688 50.1096 63.6289C51.6335 61.2891 52.3694 47.7539 52.3694 47.7539C52.3694 47.7539 42.234 54.9855 37.5143 65.1288C32.7946 75.2722 32.3066 87.8115 32.3066 87.8115Z" fill="#EBEBEB"/>
<path d="M48.8295 51.2213C44.5657 55.4091 40.274 59.8728 37.7621 65.3764C36.9046 67.2768 36.1581 69.2253 35.5263 71.2121C35.3983 71.6121 35.2663 72.012 35.1263 72.412C35.1155 72.4318 35.1087 72.4536 35.1063 72.476C33.9157 76.5897 32.9556 80.7666 32.2305 84.9872C32.2305 85.0112 32.2625 85.0272 32.2705 84.9872C32.7064 82.8754 33.1864 80.7395 33.7264 78.6156C33.7462 78.6194 33.7666 78.6194 33.7864 78.6156C34.632 78.2521 35.5296 78.024 36.4462 77.9397C36.5062 77.9397 36.5022 77.8277 36.4462 77.8317C35.5513 77.8725 34.6661 78.034 33.8144 78.3117C34.3063 76.3918 34.8383 74.4799 35.4383 72.596C37.4037 72.1149 39.4151 71.8467 41.4379 71.7961V71.76C39.4608 71.6806 37.4817 71.8581 35.5503 72.288C35.6543 71.964 35.7623 71.6441 35.8702 71.3201C37.1872 71.0071 38.5233 70.7813 39.87 70.6441C39.894 70.6441 39.894 70.6001 39.87 70.6001C38.552 70.6261 37.2401 70.7856 35.9542 71.0761C36.5022 69.4442 37.0982 67.8363 37.7621 66.2764C38.3086 64.9931 38.9476 63.7513 39.674 62.5606C40.7413 62.2966 41.8249 62.1042 42.9178 61.9847C42.9498 61.9847 42.9458 61.9327 42.9178 61.9287C41.8975 61.852 40.8716 61.9535 39.886 62.2286C40.418 61.3687 40.9779 60.5247 41.5779 59.7088C43.8498 59.2048 46.1536 58.7368 48.4815 59.1728C48.5215 59.1728 48.5335 59.1128 48.4815 59.1048C46.2696 58.5209 44.0817 58.8568 41.8699 59.2928C42.1099 58.9728 42.3579 58.6569 42.6058 58.3449C43.9814 57.9214 45.4104 57.6964 46.8496 57.6769C46.8559 57.6769 46.862 57.6744 46.8665 57.6699C46.871 57.6654 46.8736 57.6593 46.8736 57.6529C46.8736 57.6465 46.871 57.6404 46.8665 57.6359C46.862 57.6314 46.8559 57.6289 46.8496 57.6289C45.5206 57.5072 44.1805 57.6264 42.8938 57.9809C44.7697 55.649 46.8456 53.4572 48.8935 51.2853C49.0054 51.1813 48.9295 51.1253 48.8295 51.2213Z" fill="white"/>
<path d="M48.7049 60.4536C48.0427 60.3589 47.3723 60.3348 46.705 60.3816C46.625 60.3816 46.629 60.5256 46.705 60.5256C47.3729 60.5256 48.0369 60.4976 48.7049 60.5256C48.7116 60.5223 48.7173 60.5172 48.7213 60.5108C48.7253 60.5045 48.7274 60.4971 48.7274 60.4896C48.7274 60.4821 48.7253 60.4747 48.7213 60.4683C48.7173 60.462 48.7116 60.4569 48.7049 60.4536Z" fill="white"/>
<path d="M41.4216 73.5879C40.3515 73.6122 39.2941 73.8248 38.2978 74.2159C38.2738 74.2159 38.2978 74.2638 38.2978 74.2598C39.3297 74.0119 40.3737 73.9119 41.4136 73.7399C41.4236 73.7404 41.4336 73.739 41.443 73.7356C41.4524 73.7323 41.4611 73.7271 41.4685 73.7205C41.4759 73.7138 41.482 73.7057 41.4863 73.6967C41.4906 73.6876 41.4931 73.6779 41.4936 73.6679C41.4941 73.6579 41.4927 73.6479 41.4893 73.6385C41.486 73.6291 41.4808 73.6204 41.4742 73.613C41.4675 73.6055 41.4594 73.5995 41.4504 73.5952C41.4413 73.5909 41.4316 73.5884 41.4216 73.5879Z" fill="white"/>
<path d="M39.2383 69.0489C38.7929 69.047 38.3483 69.0871 37.9104 69.1689C37.8664 69.1689 37.8704 69.2489 37.9104 69.2489C38.354 69.273 38.7988 69.2529 39.2383 69.1889C39.3183 69.1729 39.3143 69.0529 39.2383 69.0489Z" fill="white"/>
<path d="M2.58155 62.5568C5.87896 63.6745 9.03897 65.1626 12.001 66.9926C15.0742 68.9457 17.7382 71.4779 19.8445 74.4481C24.2856 80.6234 27.6851 87.4845 29.9079 94.7589C31.1474 98.7893 31.9125 102.95 32.1877 107.158C32.1826 107.186 32.1681 107.211 32.1465 107.229C32.1249 107.246 32.0978 107.256 32.0697 107.256C32.0417 107.256 32.0146 107.246 31.993 107.229C31.9714 107.211 31.9569 107.186 31.9518 107.158C31.0188 99.8663 28.9485 92.7659 25.8161 86.1154C22.7443 79.5998 18.8606 72.6642 12.9289 68.3485C9.69711 65.9966 6.06533 64.4607 2.44555 62.8328C2.25756 62.7568 2.39356 62.4888 2.58155 62.5568Z" fill="#EBEBEB"/>
<path d="M27.5431 90.1115C25.2504 88.024 22.7355 86.1945 20.0435 84.6558C15.8558 82.332 12.444 80.8001 11.4121 78.7682C10.3801 76.7363 13.6039 74.0965 13.6039 74.0965C13.6039 74.0965 9.3282 76.1924 7.55631 74.6524C5.78442 73.1125 2.05664 62.3252 2.05664 62.3252C2.05664 62.3252 11.928 65.837 18.0957 72.9565C24.2633 80.0761 27.5431 90.1115 27.5431 90.1115Z" fill="#EBEBEB"/>
<path d="M27.0274 87.8871C22.0877 78.6156 15.5081 70.2321 6.47266 64.6885C8.83036 66.2131 11.0411 67.9539 13.0763 69.8882C11.2393 69.7878 9.4084 70.1741 7.76858 71.0081C7.76347 71.0125 7.7599 71.0185 7.75839 71.0251C7.75688 71.0317 7.7575 71.0386 7.76017 71.0448C7.76284 71.0511 7.76741 71.0563 7.77324 71.0597C7.77906 71.0632 7.78583 71.0647 7.79258 71.0641C9.53793 70.4095 11.3927 70.0958 13.2562 70.1401C13.2785 70.1397 13.2998 70.1311 13.3162 70.1161C13.6402 70.4201 13.9562 70.7281 14.2682 71.0401C13.314 71.0848 12.3653 71.2105 11.4324 71.4161C11.427 71.4161 11.422 71.4182 11.4182 71.4219C11.4145 71.4257 11.4124 71.4308 11.4124 71.4361C11.4124 71.4414 11.4145 71.4465 11.4182 71.4502C11.422 71.454 11.427 71.4561 11.4324 71.4561C12.4199 71.2715 13.4237 71.1884 14.4282 71.2081C16.0854 72.8778 17.6478 74.6391 19.1079 76.4838C18.4386 76.3886 17.7567 76.4377 17.108 76.6278C17.1 76.6304 17.093 76.6355 17.0881 76.6423C17.0832 76.6491 17.0805 76.6573 17.0805 76.6657C17.0805 76.6742 17.0832 76.6824 17.0881 76.6892C17.093 76.696 17.1 76.7011 17.108 76.7037C17.8105 76.6225 18.5195 76.6131 19.2239 76.6757C19.4959 77.0197 19.7678 77.3597 20.0238 77.7077C18.0057 77.5863 15.981 77.7834 14.0242 78.2916C13.9962 78.2916 14.0042 78.3436 14.0242 78.3396C16.0504 77.943 18.1193 77.8085 20.1798 77.9397C20.4318 78.2717 20.6718 78.6156 20.9158 78.9556C19.7136 78.9206 18.5126 79.0553 17.348 79.3556C17.3426 79.3537 17.3368 79.3531 17.3311 79.3539C17.3254 79.3548 17.32 79.3569 17.3153 79.3602C17.3106 79.3636 17.3068 79.368 17.3042 79.3731C17.3015 79.3782 17.3002 79.3838 17.3002 79.3896C17.3002 79.3953 17.3015 79.401 17.3042 79.4061C17.3068 79.4112 17.3106 79.4156 17.3153 79.4189C17.32 79.4222 17.3254 79.4244 17.3311 79.4252C17.3368 79.426 17.3426 79.4255 17.348 79.4236C18.5599 79.161 19.802 79.0655 21.0398 79.1396C22.1037 80.5995 23.1196 82.0954 24.0996 83.6113C23.5768 83.5168 23.039 83.5497 22.5317 83.7073C22.5264 83.7073 22.5213 83.7094 22.5175 83.7132C22.5138 83.7169 22.5117 83.722 22.5117 83.7273C22.5117 83.7326 22.5138 83.7377 22.5175 83.7415C22.5213 83.7452 22.5264 83.7473 22.5317 83.7473C23.0981 83.7039 23.6677 83.7307 24.2276 83.8273C25.1075 85.1979 25.9555 86.5791 26.7714 87.9711C26.9034 88.095 27.1074 88.0071 27.0274 87.8871Z" fill="white"/>
<path d="M19.3473 80.1963C18.3765 80.1327 17.4023 80.2521 16.4755 80.5483C16.4515 80.5483 16.4755 80.5963 16.4755 80.5923C17.4201 80.4331 18.3741 80.3356 19.3313 80.3003C19.3993 80.2883 19.4113 80.2043 19.3473 80.1963Z" fill="white"/>
<path d="M10.7322 68.9007C10.2906 68.8672 9.84656 68.8941 9.41228 68.9807C9.40427 68.9833 9.3973 68.9884 9.39236 68.9952C9.38742 69.002 9.38477 69.0102 9.38477 69.0187C9.38477 69.0271 9.38742 69.0353 9.39236 69.0421C9.3973 69.0489 9.40427 69.054 9.41228 69.0567C9.84825 69.0127 10.2762 69.0287 10.7122 69.0127C10.727 69.0153 10.7423 69.012 10.7547 69.0033C10.7671 68.9947 10.7755 68.9815 10.7782 68.9667C10.7808 68.9518 10.7775 68.9365 10.7689 68.9241C10.7602 68.9118 10.747 68.9033 10.7322 68.9007Z" fill="white"/>
<path d="M40.2789 120.762H17.9883L21.1681 97.4833L21.98 91.5156H36.2872L37.0991 97.4833L40.2789 120.762Z" fill="#DBDBDB"/>
<path d="M37.099 97.4833H21.168L21.9799 91.5156H36.287L37.099 97.4833Z" fill="#C7C7C7"/>
<path d="M38.3305 89.4434H19.9316V94.499H38.3305V89.4434Z" fill="#DBDBDB"/>
<path d="M209.86 14.5523C208.802 17.2457 208.179 20.0905 208.016 22.9798H200.649H200.557V22.7758L200.617 22.2038C200.706 21.211 200.867 20.2259 201.097 19.256C201.483 17.6688 202.039 16.128 202.757 14.6603C202.77 14.6245 202.795 14.5943 202.828 14.5747C202.86 14.5551 202.899 14.5472 202.936 14.5523H209.848H209.86Z" fill="#EBEBEB"/>
<path d="M209.636 33.3711H202.781C202.744 33.3748 202.708 33.3661 202.678 33.3465C202.647 33.3269 202.624 33.2974 202.612 33.2631C201.821 31.6116 201.249 29.8635 200.913 28.0634C200.743 27.1972 200.63 26.3206 200.577 25.4395C200.577 25.4115 200.577 25.3795 200.557 25.3515V25.1436H200.669H207.896C208.028 25.1436 208.024 25.1436 208.032 25.2795C208.08 25.8755 208.12 26.4795 208.176 27.0754C208.271 28.0253 208.425 28.9683 208.636 29.8993C208.884 31.0386 209.208 32.1598 209.608 33.2551C209.612 33.2951 209.62 33.3311 209.636 33.3711Z" fill="#EBEBEB"/>
<path d="M238.467 35.5462C238.467 35.5862 238.427 35.6182 238.411 35.6462C237.829 36.5346 237.179 37.377 236.467 38.166C235.61 39.1351 234.655 40.0143 233.619 40.7899C232.603 41.5564 231.517 42.226 230.376 42.7898C229.276 43.3386 228.129 43.7858 226.948 44.1257C226.011 44.3925 225.057 44.5956 224.092 44.7336L223.812 44.7816H223.648L223.496 44.6896L223.68 44.5616C225.775 43.1383 227.607 41.3628 229.096 39.314C229.938 38.159 230.678 36.9331 231.308 35.6502C231.319 35.6154 231.341 35.5855 231.372 35.5658C231.403 35.5461 231.439 35.5377 231.476 35.5422H238.487L238.467 35.5462Z" fill="#EBEBEB"/>
<path d="M231.61 22.9718H221.979V14.5723H222.09H229.494C229.527 14.5683 229.56 14.5762 229.587 14.5946C229.614 14.613 229.634 14.6406 229.642 14.6723C230.335 16.2538 230.849 17.908 231.174 19.604C231.348 20.4856 231.472 21.3763 231.546 22.2718C231.57 22.4878 231.59 22.7238 231.61 22.9718Z" fill="#EBEBEB"/>
<path d="M231.551 25.2197C231.551 25.4157 231.551 25.6197 231.523 25.8117C231.483 26.2797 231.447 26.7516 231.383 27.2156C231.291 27.8596 231.195 28.5075 231.063 29.1475C230.778 30.5517 230.36 31.9258 229.815 33.2512C229.807 33.2901 229.784 33.3243 229.751 33.3473C229.719 33.3702 229.679 33.3802 229.639 33.3752H221.924V25.2197H231.551Z" fill="#EBEBEB"/>
<path d="M219.808 14.6077V23.0352H210.404C210.404 22.8192 210.424 22.6112 210.448 22.4032C210.496 21.9313 210.532 21.4593 210.608 20.9913C210.724 20.2794 210.844 19.5634 211.008 18.8555C211.318 17.4261 211.769 16.0313 212.356 14.6917C212.367 14.6587 212.389 14.6304 212.418 14.6115C212.447 14.5926 212.482 14.5842 212.516 14.5877H219.808V14.6077Z" fill="#EBEBEB"/>
<path d="M219.819 25.3313C219.819 27.9711 219.819 30.6123 219.819 33.2548V33.3708H212.296C212.259 33.3759 212.221 33.3674 212.19 33.3467C212.159 33.3261 212.137 33.2948 212.128 33.2588C211.557 31.8919 211.128 30.4698 210.848 29.0151C210.708 28.2671 210.6 27.5112 210.508 26.7552C210.444 26.2632 210.428 25.7633 210.396 25.2633C210.394 25.246 210.394 25.2286 210.396 25.2113H219.687C219.795 25.2073 219.819 25.2353 219.819 25.3313Z" fill="#EBEBEB"/>
<path d="M241.821 23.0317H233.93C233.77 20.1255 233.149 17.2632 232.09 14.5522H239.445C239.482 14.5473 239.518 14.5549 239.55 14.5739C239.581 14.5928 239.605 14.6219 239.617 14.6562C240.46 16.3244 241.072 18.0991 241.437 19.9319C241.634 20.9075 241.768 21.8948 241.837 22.8877L241.821 23.0317Z" fill="#EBEBEB"/>
<path d="M241.826 25.1553C241.826 25.3473 241.826 25.5272 241.802 25.7072C241.752 26.4191 241.665 27.128 241.542 27.8311C241.25 29.4635 240.763 31.0548 240.09 32.5708C239.986 32.8148 239.866 33.0548 239.758 33.2988C239.751 33.323 239.735 33.344 239.714 33.3579C239.693 33.3717 239.668 33.3777 239.642 33.3748H232.295C232.383 33.1228 232.471 32.8788 232.555 32.6308C232.98 31.3771 233.307 30.0919 233.531 28.787C233.7 27.8412 233.814 26.8863 233.871 25.9272C233.871 25.6992 233.899 25.4713 233.907 25.2473C233.907 25.1873 233.907 25.1553 233.991 25.1633C234.015 25.1653 234.039 25.1653 234.063 25.1633L241.826 25.1553Z" fill="#EBEBEB"/>
<path d="M238.251 12.4041V12.4401H238.147C235.847 12.4401 233.547 12.4401 231.247 12.4401C231.212 12.4443 231.177 12.4368 231.146 12.4187C231.116 12.4006 231.092 12.373 231.079 12.3401C230.163 10.507 229.012 8.80086 227.656 7.26437C226.855 6.37805 225.976 5.56673 225.028 4.84052C224.556 4.48054 224.068 4.14056 223.588 3.79258L223.508 3.73259L223.604 3.66459C223.604 3.62459 223.576 3.5766 223.556 3.5166C225.989 3.78976 228.354 4.49975 230.535 5.61247C233.653 7.16915 236.311 9.50958 238.251 12.4041Z" fill="#EBEBEB"/>
<path d="M218.471 44.6905C218.406 44.7107 218.339 44.7215 218.271 44.7225C217.513 44.6235 216.763 44.4779 216.023 44.2865C214.642 43.9334 213.301 43.436 212.023 42.8026C210.561 42.0743 209.19 41.1747 207.94 40.1228C207.051 39.3787 206.23 38.5568 205.488 37.6669C204.933 36.9936 204.421 36.2855 203.956 35.547C203.942 35.526 203.931 35.5031 203.924 35.479H204.036C206.18 35.479 208.32 35.479 210.463 35.479C210.498 35.4762 210.532 35.4849 210.561 35.5037C210.59 35.5225 210.612 35.5504 210.623 35.583C211.293 36.9344 212.085 38.2223 212.987 39.4308C213.822 40.5293 214.748 41.5556 215.755 42.4986C216.584 43.2828 217.475 43.9984 218.419 44.6385L218.471 44.6905Z" fill="#EBEBEB"/>
<path d="M218.388 3.72105C218.092 3.93703 217.748 4.18102 217.412 4.437C216.29 5.31043 215.248 6.28078 214.296 7.33683C213.008 8.7407 211.909 10.3073 211.028 11.9965C210.972 12.1045 210.924 12.2165 210.86 12.3165C210.849 12.3337 210.835 12.3483 210.817 12.3593C210.8 12.3703 210.781 12.3776 210.76 12.3805C210.644 12.3805 210.528 12.3805 210.412 12.3805H204.133C207.633 7.44082 212.332 4.469 218.316 3.58105C218.316 3.60905 218.288 3.63705 218.272 3.66105L218.388 3.72105Z" fill="#EBEBEB"/>
<path d="M228.736 35.5508C227.844 37.1073 226.77 38.5521 225.536 39.8545C224.452 41.0221 223.233 42.056 221.904 42.9343V35.5508H228.736Z" fill="#EBEBEB"/>
<path d="M219.807 35.5547V42.7942C217.088 40.9304 214.848 38.4497 213.271 35.5547H219.807Z" fill="#EBEBEB"/>
<path d="M228.522 12.3758H221.979V5.49219C223.321 6.36734 224.553 7.39995 225.65 8.568C226.735 9.73559 227.698 11.0115 228.522 12.3758Z" fill="#EBEBEB"/>
<path d="M219.807 5.68848V12.4321H213.527C215.063 9.72339 217.214 7.41347 219.807 5.68848Z" fill="#EBEBEB"/>
<path d="M95.1991 40.29H40.2305V4.49219H95.1991V40.29ZM40.6304 39.89H94.7991V4.89216H40.6304V39.89Z" fill="#EBEBEB"/>
<path d="M95.1991 9.59588H40.2305V4.49219H95.1991V9.59588ZM40.6304 9.1959H94.7991V4.89216H40.6304V9.1959Z" fill="#EBEBEB"/>
<path d="M44.8452 7.0925C44.8452 7.32983 44.7748 7.56182 44.6429 7.75915C44.5111 7.95648 44.3237 8.11027 44.1044 8.20109C43.8852 8.29191 43.6439 8.31567 43.4111 8.26937C43.1784 8.22307 42.9646 8.1088 42.7968 7.94098C42.629 7.77317 42.5147 7.55936 42.4684 7.3266C42.4221 7.09384 42.4458 6.85257 42.5367 6.63331C42.6275 6.41406 42.7813 6.22665 42.9786 6.0948C43.1759 5.96295 43.4079 5.89258 43.6452 5.89258C43.9635 5.89258 44.2687 6.019 44.4937 6.24403C44.7187 6.46906 44.8452 6.77426 44.8452 7.0925Z" fill="#C7C7C7"/>
<path d="M49.6733 7.09267C49.6733 7.33084 49.6023 7.56361 49.4696 7.76135C49.3368 7.95908 49.1482 8.11284 48.9278 8.20304C48.7074 8.29325 48.4651 8.31581 48.2318 8.26787C47.9985 8.21993 47.7848 8.10364 47.6178 7.93382C47.4508 7.764 47.3381 7.54833 47.2941 7.31426C47.2501 7.0802 47.2767 6.83833 47.3706 6.61945C47.4645 6.40057 47.6214 6.21459 47.8214 6.08518C48.0213 5.95576 48.2552 5.88878 48.4934 5.89274C48.65 5.89272 48.8051 5.92389 48.9496 5.98444C49.094 6.04498 49.225 6.13368 49.3348 6.24538C49.4447 6.35707 49.5312 6.48952 49.5893 6.63499C49.6474 6.78046 49.6759 6.93605 49.6733 7.09267Z" fill="#EBEBEB"/>
<path d="M54.5053 7.0925C54.5053 7.32983 54.4349 7.56182 54.3031 7.75915C54.1713 7.95648 53.9838 8.11027 53.7646 8.20109C53.5453 8.29191 53.3041 8.31567 53.0713 8.26937C52.8385 8.22307 52.6247 8.1088 52.4569 7.94098C52.2891 7.77317 52.1748 7.55936 52.1285 7.3266C52.0822 7.09384 52.106 6.85257 52.1968 6.63331C52.2876 6.41406 52.4414 6.22665 52.6387 6.0948C52.8361 5.96295 53.0681 5.89258 53.3054 5.89258C53.6236 5.89258 53.9288 6.019 54.1539 6.24403C54.3789 6.46906 54.5053 6.77426 54.5053 7.0925Z" fill="#FFC000"/>
<path d="M131.5 159.027C204.125 159.027 263 151.627 263 142.5C263 133.372 204.125 125.973 131.5 125.973C58.8745 125.973 0 133.372 0 142.5C0 151.627 58.8745 159.027 131.5 159.027Z" fill="#EBEBEB"/>
<path d="M1.79492 120.762L34.2209 120.666L66.647 120.63L131.499 120.562L196.351 120.63L228.777 120.666L261.203 120.762L228.777 120.862L196.351 120.893L131.499 120.961L66.647 120.893L34.2209 120.858L1.79492 120.762Z" fill="#263238"/>
<path d="M208.983 22.4678H53.7168V126.329H208.983V22.4678Z" fill="#DBDBDB"/>
<path d="M207.856 23.7354H54.8457V125.061H207.856V23.7354Z" fill="#263238"/>
<path d="M229.206 134.117H33.4941V141.245H229.206V134.117Z" fill="#C7C7C7"/>
<path d="M33.4941 134.117L53.7169 126.329H208.983L229.206 134.117H33.4941Z" fill="#DBDBDB"/>
<path d="M55.5254 131.357L68.5766 126.329H194.129L207.18 131.357H55.5254Z" fill="#263238"/>
<path d="M199.208 31.4355H63.4922V117.366H199.208V31.4355Z" fill="white"/>
<path d="M199.213 31.4355H63.3809V34.7433H199.213V31.4355Z" fill="#455A64"/>
<path d="M66.009 33.0907C66.009 33.2537 65.9604 33.413 65.8693 33.5482C65.7783 33.6835 65.6491 33.7885 65.4981 33.85C65.3471 33.9114 65.1812 33.9264 65.0216 33.8931C64.8621 33.8598 64.716 33.7797 64.6022 33.663C64.4884 33.5464 64.4119 33.3984 64.3825 33.2381C64.3532 33.0777 64.3723 32.9123 64.4374 32.7628C64.5026 32.6134 64.6108 32.4868 64.7482 32.3991C64.8857 32.3115 65.0461 32.2668 65.2091 32.2708C65.4231 32.276 65.6265 32.3647 65.776 32.5179C65.9255 32.6711 66.0091 32.8767 66.009 33.0907Z" fill="#C7C7C7"/>
<path d="M69.3567 33.0907C69.3566 33.2537 69.308 33.413 69.217 33.5482C69.126 33.6835 68.9967 33.7885 68.8457 33.85C68.6947 33.9114 68.5289 33.9264 68.3693 33.8931C68.2097 33.8598 68.0637 33.7797 67.9498 33.663C67.836 33.5464 67.7595 33.3984 67.7302 33.2381C67.7008 33.0777 67.72 32.9123 67.7851 32.7628C67.8502 32.6134 67.9584 32.4868 68.0959 32.3991C68.2333 32.3115 68.3938 32.2668 68.5567 32.2708C68.7707 32.276 68.9742 32.3647 69.1236 32.5179C69.2731 32.6711 69.3568 32.8767 69.3567 33.0907Z" fill="white"/>
<path d="M72.7044 33.0914C72.7044 33.2536 72.6563 33.4121 72.5662 33.547C72.4761 33.6818 72.348 33.7869 72.1982 33.849C72.0484 33.911 71.8835 33.9273 71.7244 33.8956C71.5654 33.864 71.4193 33.7859 71.3046 33.6712C71.1899 33.5566 71.1118 33.4105 71.0802 33.2514C71.0486 33.0923 71.0648 32.9275 71.1269 32.7777C71.1889 32.6278 71.294 32.4998 71.4289 32.4097C71.5637 32.3196 71.7222 32.2715 71.8844 32.2715C72.1019 32.2715 72.3104 32.3579 72.4642 32.5116C72.618 32.6654 72.7044 32.874 72.7044 33.0914Z" fill="#FFC000"/>
<path d="M70.0123 78.6523H122.789V41.6906L70.0123 41.6906V78.6523Z" fill="#EBEBEB"/>
<path d="M76.1797 52.1979C76.1797 53.0626 76.4361 53.9078 76.9165 54.6267C77.3968 55.3456 78.0796 55.906 78.8784 56.2369C79.6773 56.5677 80.5563 56.6543 81.4043 56.4856C82.2523 56.317 83.0313 55.9006 83.6427 55.2892C84.2541 54.6778 84.6705 53.8988 84.8392 53.0508C85.0078 52.2028 84.9213 51.3237 84.5904 50.5249C84.2595 49.7261 83.6992 49.0433 82.9802 48.5629C82.2613 48.0826 81.4161 47.8262 80.5514 47.8262C79.392 47.8262 78.28 48.2868 77.4601 49.1066C76.6403 49.9265 76.1797 51.0385 76.1797 52.1979Z" fill="#DBDBDB"/>
<path d="M93.4395 70.6886H122.794L108.115 50.7979L93.4395 70.6886Z" fill="#C7C7C7"/>
<path d="M81.9434 70.7091H106.174L94.0586 57.7539L81.9434 70.7091Z" fill="#DBDBDB"/>
<path d="M122.789 70.6885H70.0117V78.652H122.789V70.6885Z" fill="#DBDBDB"/>
<path d="M130.297 110.286H159.787V83.6038H130.297V110.286Z" fill="#EBEBEB"/>
<path d="M134.108 89.4356C133.975 90.1005 134.06 90.7906 134.349 91.4037C134.639 92.0169 135.118 92.5206 135.716 92.8405C136.314 93.1604 136.999 93.2794 137.67 93.18C138.341 93.0807 138.962 92.7681 139.441 92.2887C139.92 91.8092 140.233 91.1882 140.332 90.5174C140.432 89.8466 140.313 89.1617 139.993 88.5638C139.673 87.9659 139.169 87.4867 138.556 87.1971C137.943 86.9076 137.253 86.8229 136.588 86.9557C135.976 87.0779 135.414 87.3787 134.972 87.82C134.531 88.2614 134.23 88.8235 134.108 89.4356Z" fill="#DBDBDB"/>
<path d="M138.6 104.535H159.79L149.195 90.1758L138.6 104.535Z" fill="#C7C7C7"/>
<path d="M130.301 104.547H147.796L139.048 95.1953L130.301 104.547Z" fill="#DBDBDB"/>
<path d="M159.791 104.535H130.301V110.283H159.791V104.535Z" fill="#DBDBDB"/>
<path d="M177.606 41.6943H130.301V44.0822H177.606V41.6943Z" fill="#A6A6A6"/>
<path d="M187.893 46.6348H130.301V49.0226H187.893V46.6348Z" fill="#DBDBDB"/>
<path d="M187.893 51.5742H130.301V53.9621H187.893V51.5742Z" fill="#DBDBDB"/>
<path d="M187.893 56.5176H130.301V58.9054H187.893V56.5176Z" fill="#DBDBDB"/>
<path d="M187.893 61.457H130.301V63.8449H187.893V61.457Z" fill="#DBDBDB"/>
<path d="M168.534 66.3975H130.301V68.7853H168.534V66.3975Z" fill="#DBDBDB"/>
<path d="M183.341 83.5996H162.418V85.9515H183.341V83.5996Z" fill="#A6A6A6"/>
<path d="M187.888 88.4678H162.418V90.8196H187.888V88.4678Z" fill="#DBDBDB"/>
<path d="M187.888 93.3359H162.418V95.6878H187.888V93.3359Z" fill="#DBDBDB"/>
<path d="M187.888 98.1992H162.418V100.551H187.888V98.1992Z" fill="#DBDBDB"/>
<path d="M187.888 103.066H162.418V105.418H187.888V103.066Z" fill="#DBDBDB"/>
<path d="M179.705 107.935H162.418V110.286H179.705V107.935Z" fill="#DBDBDB"/>
<path d="M187.893 71.6367H130.301V78.6523H187.893V71.6367Z" fill="#FFC000"/>
<path d="M122.789 83.5996H70.0117V90.6152H122.789V83.5996Z" fill="#A6A6A6"/>
<path d="M122.789 93.1719H70.0117V95.5437H122.789V93.1719Z" fill="#DBDBDB"/>
<path d="M122.789 98.083H70.0117V100.455H122.789V98.083Z" fill="#DBDBDB"/>
<path d="M122.789 102.999H70.0117V105.371H122.789V102.999Z" fill="#DBDBDB"/>
<path d="M106.174 107.91H70.0117V110.282H106.174V107.91Z" fill="#DBDBDB"/>
<path d="M199.208 34.7393H195.58V117.362H199.208V34.7393Z" fill="#DBDBDB"/>
<path d="M197.393 77.98C197.145 77.98 196.907 77.8814 196.731 77.7059C196.556 77.5304 196.457 77.2923 196.457 77.0441V36.4945C196.457 36.2463 196.556 36.0083 196.731 35.8327C196.907 35.6572 197.145 35.5586 197.393 35.5586C197.641 35.5586 197.879 35.6572 198.055 35.8327C198.23 36.0083 198.329 36.2463 198.329 36.4945V77.0441C198.329 77.2923 198.23 77.5304 198.055 77.7059C197.879 77.8814 197.641 77.98 197.393 77.98Z" fill="#A6A6A6"/>
<path d="M115.525 77.8881V136.517C115.514 137.779 115.002 138.986 114.102 139.872C113.203 140.758 111.988 141.252 110.726 141.244H18.5712C17.3084 141.252 16.0941 140.758 15.1945 139.872C14.2948 138.986 13.7831 137.779 13.7715 136.517V77.8881C13.7831 76.6257 14.2949 75.4195 15.1947 74.5339C16.0945 73.6484 17.3088 73.1559 18.5712 73.1644H110.702C111.329 73.157 111.951 73.2734 112.533 73.507C113.115 73.7405 113.645 74.0866 114.094 74.5254C114.542 74.9642 114.899 75.4871 115.144 76.0641C115.39 76.6411 115.52 77.261 115.525 77.8881Z" fill="#455A64"/>
<path d="M108.538 76.0244H20.9473V138.293H108.538V76.0244Z" fill="white"/>
<path d="M26.158 107.574H65.0156V80.3639H26.158V107.574Z" fill="#EBEBEB"/>
<path d="M30.7071 88.1036C30.711 88.7356 30.9021 89.3523 31.2561 89.8758C31.61 90.3994 32.1112 90.8064 32.6962 91.0455C33.2812 91.2847 33.9239 91.3452 34.5433 91.2195C35.1627 91.0937 35.731 90.7874 36.1765 90.3391C36.622 89.8909 36.9248 89.3207 37.0466 88.7005C37.1685 88.0804 37.1039 87.438 36.8612 86.8545C36.6184 86.271 36.2083 85.7724 35.6825 85.4217C35.1568 85.071 34.5389 84.8838 33.9069 84.8838C33.485 84.8838 33.0673 84.9672 32.6778 85.1293C32.2882 85.2913 31.9346 85.5288 31.6372 85.8281C31.3398 86.1273 31.1045 86.4824 30.9449 86.8729C30.7853 87.2635 30.7045 87.6817 30.7071 88.1036Z" fill="#DBDBDB"/>
<path d="M43.4062 101.714H65.0169L54.2096 87.0713L43.4062 101.714Z" fill="#C7C7C7"/>
<path d="M34.9414 101.727H52.7803L43.8609 92.1914L34.9414 101.727Z" fill="#DBDBDB"/>
<path d="M65.0158 101.715H26.1582V107.578H65.0158V101.715Z" fill="#DBDBDB"/>
<path d="M77.3438 133.429H103.326V115.234H77.3438V133.429Z" fill="#EBEBEB"/>
<path d="M80.3789 120.41C80.3781 120.836 80.5039 121.253 80.7403 121.609C80.9767 121.964 81.3131 122.241 81.707 122.404C82.1008 122.568 82.5345 122.611 82.9529 122.529C83.3714 122.446 83.7559 122.241 84.0578 121.94C84.3597 121.638 84.5654 121.254 84.6489 120.836C84.7324 120.417 84.69 119.984 84.5269 119.59C84.3639 119.195 84.0875 118.858 83.7329 118.621C83.3783 118.384 82.9613 118.258 82.5348 118.258C82.2519 118.257 81.9716 118.313 81.7101 118.42C81.4485 118.528 81.2108 118.687 81.0106 118.887C80.8103 119.087 80.6515 119.324 80.5431 119.585C80.4347 119.847 80.3789 120.127 80.3789 120.41Z" fill="#DBDBDB"/>
<path d="M88.8789 129.509H103.326L96.1025 119.718L88.8789 129.509Z" fill="#C7C7C7"/>
<path d="M83.2188 129.521H95.146L89.1824 123.142L83.2188 129.521Z" fill="#DBDBDB"/>
<path d="M103.326 129.513H77.3438V133.432H103.326V129.513Z" fill="#DBDBDB"/>
<path d="M103.329 80.3682H68.3672V87.0158H103.329V80.3682Z" fill="#FFC000"/>
<path d="M103.329 89.5391H68.3672V90.471H103.329V89.5391Z" fill="#DBDBDB"/>
<path d="M103.329 91.7275H68.3672V92.6595H103.329V91.7275Z" fill="#DBDBDB"/>
<path d="M103.329 93.915H68.3672V94.847H103.329V93.915Z" fill="#DBDBDB"/>
<path d="M103.329 96.1025H68.3672V97.0345H103.329V96.1025Z" fill="#DBDBDB"/>
<path d="M103.329 98.291H68.3672V99.223H103.329V98.291Z" fill="#DBDBDB"/>
<path d="M103.329 100.479H68.3672V101.41H103.329V100.479Z" fill="#DBDBDB"/>
<path d="M88.466 102.667H68.3672V103.599H88.466V102.667Z" fill="#DBDBDB"/>
<path d="M73.6474 128.365H38.6855V129.297H73.6474V128.365Z" fill="#DBDBDB"/>
<path d="M73.6474 115.238H38.6855V116.17H73.6474V115.238Z" fill="#DBDBDB"/>
<path d="M73.6474 117.426H38.6855V118.358H73.6474V117.426Z" fill="#DBDBDB"/>
<path d="M73.6474 119.613H38.6855V120.545H73.6474V119.613Z" fill="#DBDBDB"/>
<path d="M62.5281 121.802H38.6855V122.734H62.5281V121.802Z" fill="#DBDBDB"/>
<path d="M73.6474 126.177H38.6855V127.109H73.6474V126.177Z" fill="#DBDBDB"/>
<path d="M62.5281 130.553H38.6855V131.485H62.5281V130.553Z" fill="#DBDBDB"/>
<path d="M103.33 110.614H26.1582V112.814H103.33V110.614Z" fill="#455A64"/>
<path d="M36.1496 115.238H26.1582V133.433H36.1496V115.238Z" fill="#FFC000"/>
<path d="M17.9877 99.791H17.9277C17.6516 99.791 17.4277 100.015 17.4277 100.291V114.11C17.4277 114.386 17.6516 114.61 17.9277 114.61H17.9877C18.2638 114.61 18.4877 114.386 18.4877 114.11V100.291C18.4877 100.015 18.2638 99.791 17.9877 99.791Z" fill="#37474F"/>
<path d="M114.301 107.198C114.301 107.578 114.189 107.95 113.979 108.266C113.768 108.583 113.468 108.829 113.117 108.975C112.766 109.121 112.38 109.159 112.007 109.085C111.634 109.011 111.292 108.828 111.023 108.56C110.755 108.291 110.572 107.948 110.498 107.576C110.424 107.203 110.462 106.817 110.608 106.466C110.754 106.115 111 105.815 111.317 105.604C111.633 105.393 112.005 105.281 112.385 105.282C112.893 105.283 113.379 105.485 113.738 105.845C114.097 106.204 114.3 106.69 114.301 107.198Z" fill="#37474F"/>
<path d="M243.136 60.6094H207.494C206.531 60.6199 205.61 61.0125 204.935 61.7008C204.26 62.3892 203.886 63.3172 203.895 64.2811V137.637C203.887 138.6 204.262 139.528 204.936 140.216C205.611 140.904 206.531 141.297 207.494 141.308H243.128C244.092 141.297 245.012 140.904 245.686 140.216C246.361 139.528 246.736 138.6 246.728 137.637V64.2891C246.739 63.3252 246.367 62.3963 245.693 61.7065C245.02 61.0166 244.1 60.622 243.136 60.6094ZM244.492 135.369C244.492 137.301 243.044 138.861 241.26 138.861H209.382C207.594 138.861 206.151 137.301 206.151 135.369V67.061C206.151 63.1292 207.594 62.9372 209.382 62.9372H215.782C216.154 62.9372 216.458 63.3372 216.458 63.8812V64.1052C216.458 65.3331 217.13 65.3371 217.954 65.3371H232.693C233.521 65.3371 234.185 65.3371 234.185 64.1052V63.8892C234.185 63.3652 234.485 62.9452 234.865 62.9452H241.264C243.048 62.9452 244.496 63.4692 244.496 67.069L244.492 135.369Z" fill="#455A64"/>
<path d="M227.332 63.8055H223.305C223.239 63.8055 223.176 63.7794 223.129 63.7329C223.083 63.6864 223.057 63.6233 223.057 63.5576C223.057 63.4918 223.083 63.4287 223.129 63.3822C223.176 63.3357 223.239 63.3096 223.305 63.3096H227.332C227.399 63.3096 227.462 63.3356 227.509 63.382C227.556 63.4283 227.583 63.4914 227.584 63.5576C227.583 63.6237 227.556 63.6868 227.509 63.7332C227.462 63.7795 227.399 63.8055 227.332 63.8055Z" fill="white"/>
<path d="M244.492 67.0612V135.369C244.492 137.301 243.044 138.861 241.26 138.861H209.382C207.594 138.861 206.15 137.301 206.15 135.369V67.0612C206.15 63.1295 207.594 62.9375 209.382 62.9375H215.782C216.154 62.9375 216.458 63.3375 216.458 63.8814V64.1054C216.458 65.3334 217.13 65.3374 217.954 65.3374H232.693C233.521 65.3374 234.185 65.3374 234.185 64.1054V63.8894C234.185 63.3655 234.485 62.9455 234.865 62.9455H241.264C243.044 62.9375 244.492 63.4615 244.492 67.0612Z" fill="white"/>
<path d="M244.492 67.0612V72.1569H206.146V67.0612C206.146 63.1295 207.594 62.9375 209.382 62.9375H215.782C216.15 62.9375 216.454 63.3375 216.454 63.8814V64.1054C216.454 65.3334 217.126 65.3374 217.946 65.3374H232.693C233.521 65.3374 234.189 65.3374 234.189 64.1054V63.8894C234.189 63.3655 234.489 62.9455 234.865 62.9455H241.264C243.044 62.9375 244.492 63.4615 244.492 67.0612Z" fill="#FFC000"/>
<path d="M209.782 69.6687L208.65 68.6088L209.782 67.5488L209.958 67.7328L209.026 68.6088L209.958 69.4847L209.782 69.6687Z" fill="white"/>
<path d="M241.032 69.7647H240.232V69.4887C240.231 69.481 240.229 69.4736 240.225 69.4672C240.221 69.4608 240.215 69.4558 240.208 69.4527L240.12 69.4007C240.113 69.3978 240.105 69.3962 240.098 69.3962C240.09 69.3962 240.083 69.3978 240.076 69.4007L239.832 69.5447L239.432 68.8528L239.676 68.7128C239.681 68.7065 239.683 68.6987 239.683 68.6908C239.683 68.6828 239.681 68.6751 239.676 68.6688V68.5728C239.681 68.5665 239.683 68.5587 239.683 68.5508C239.683 68.5428 239.681 68.5351 239.676 68.5288L239.432 68.3888L239.832 67.6968L240.076 67.8368C240.082 67.8407 240.09 67.8427 240.098 67.8427C240.105 67.8427 240.113 67.8407 240.12 67.8368L240.208 67.7848C240.215 67.7818 240.221 67.7767 240.225 67.7703C240.229 67.764 240.231 67.7565 240.232 67.7488V67.4648H241.032V67.7488C241.032 67.7565 241.034 67.764 241.038 67.7703C241.043 67.7767 241.049 67.7818 241.056 67.7848L241.144 67.8368C241.15 67.8407 241.158 67.8427 241.166 67.8427C241.173 67.8427 241.181 67.8407 241.188 67.8368L241.432 67.6968L241.831 68.3888L241.588 68.5288C241.583 68.5351 241.58 68.5428 241.58 68.5508C241.58 68.5587 241.583 68.5665 241.588 68.5728V68.6688C241.583 68.6751 241.58 68.6828 241.58 68.6908C241.58 68.6987 241.583 68.7065 241.588 68.7128L241.831 68.8528L241.432 69.5447L241.188 69.4047C241.181 69.4009 241.173 69.3988 241.166 69.3988C241.158 69.3988 241.15 69.4009 241.144 69.4047L241.056 69.4567C241.049 69.4598 241.043 69.4648 241.038 69.4712C241.034 69.4776 241.032 69.485 241.032 69.4927V69.7647ZM240.432 69.5647H240.832V69.4887C240.832 69.4442 240.845 69.4006 240.868 69.3626C240.891 69.3246 240.924 69.2936 240.964 69.2727C240.987 69.2617 241.01 69.2483 241.032 69.2327C241.07 69.2103 241.115 69.1984 241.16 69.1984C241.204 69.1984 241.249 69.2103 241.288 69.2327L241.36 69.2767L241.56 68.9288L241.488 68.8848C241.449 68.8631 241.417 68.8309 241.396 68.792C241.375 68.7531 241.365 68.709 241.368 68.6648V68.5848C241.365 68.54 241.375 68.4954 241.396 68.4559C241.417 68.4164 241.449 68.3835 241.488 68.3608L241.56 68.3208L241.36 67.9728L241.288 68.0168C241.249 68.0393 241.206 68.0512 241.162 68.0512C241.117 68.0512 241.074 68.0393 241.036 68.0168L240.964 67.9768C240.924 67.956 240.891 67.9249 240.868 67.8869C240.845 67.8489 240.832 67.8054 240.832 67.7608V67.6768H240.432V67.7608C240.431 67.8054 240.418 67.8489 240.395 67.8869C240.372 67.9249 240.339 67.956 240.3 67.9768C240.276 67.9879 240.253 68.0013 240.232 68.0168C240.193 68.0393 240.149 68.0511 240.104 68.0511C240.059 68.0511 240.015 68.0393 239.976 68.0168L239.904 67.9728L239.704 68.3208L239.776 68.3608C239.814 68.3835 239.846 68.4164 239.867 68.4559C239.888 68.4954 239.898 68.54 239.896 68.5848V68.6648C239.898 68.7095 239.888 68.7541 239.867 68.7936C239.846 68.8331 239.814 68.866 239.776 68.8888L239.704 68.9288L239.904 69.2767L239.976 69.2327C240.015 69.2103 240.059 69.1984 240.104 69.1984C240.149 69.1984 240.193 69.2103 240.232 69.2327C240.253 69.2483 240.276 69.2617 240.3 69.2727C240.339 69.2936 240.372 69.3246 240.395 69.3626C240.418 69.4006 240.431 69.4442 240.432 69.4887V69.5647ZM240.632 69.2007C240.514 69.2007 240.4 69.166 240.303 69.101C240.205 69.0359 240.129 68.9435 240.085 68.8353C240.04 68.7271 240.028 68.6081 240.051 68.4933C240.074 68.3785 240.13 68.273 240.213 68.1902C240.296 68.1074 240.401 68.051 240.516 68.0282C240.631 68.0053 240.75 68.0171 240.858 68.0619C240.966 68.1067 241.059 68.1825 241.124 68.2799C241.189 68.3772 241.224 68.4917 241.224 68.6088C241.223 68.7654 241.16 68.9154 241.049 69.0262C240.938 69.137 240.788 69.1997 240.632 69.2007ZM240.632 68.2168C240.552 68.2168 240.475 68.2403 240.409 68.2842C240.344 68.3282 240.292 68.3906 240.262 68.4637C240.232 68.5368 240.224 68.6172 240.239 68.6948C240.255 68.7724 240.293 68.8437 240.349 68.8996C240.405 68.9555 240.476 68.9936 240.554 69.0091C240.631 69.0245 240.712 69.0166 240.785 68.9863C240.858 68.956 240.92 68.9048 240.964 68.839C241.008 68.7732 241.032 68.6959 241.032 68.6168C241.032 68.5107 240.989 68.409 240.914 68.3339C240.839 68.2589 240.738 68.2168 240.632 68.2168Z" fill="white"/>
<path d="M214.665 64.469L214.605 64.533L214.569 64.569C214.491 64.4891 214.398 64.4257 214.295 64.3824C214.192 64.3392 214.081 64.3169 213.969 64.3169C213.858 64.3169 213.747 64.3392 213.644 64.3824C213.541 64.4257 213.448 64.4891 213.369 64.569L213.337 64.533L213.277 64.473C213.301 64.4482 213.326 64.4255 213.353 64.405C213.408 64.359 213.469 64.32 213.533 64.289C213.61 64.2522 213.69 64.2253 213.773 64.209H213.893H214.077C214.152 64.2182 214.226 64.2357 214.297 64.261C214.348 64.2809 214.398 64.305 214.445 64.333C214.496 64.3603 214.544 64.3924 214.589 64.429L214.653 64.489L214.665 64.469Z" fill="white"/>
<path d="M213.573 64.761L213.477 64.665C213.542 64.5997 213.619 64.5479 213.704 64.5125C213.789 64.4772 213.88 64.459 213.973 64.459C214.065 64.459 214.156 64.4772 214.241 64.5125C214.326 64.5479 214.403 64.5997 214.468 64.665L214.373 64.765C214.266 64.6595 214.122 64.6003 213.973 64.6003C213.823 64.6003 213.679 64.6595 213.573 64.765V64.761Z" fill="white"/>
<path d="M214.293 64.8567L214.197 64.9567C214.171 64.9301 214.14 64.909 214.106 64.8946C214.071 64.8801 214.034 64.8727 213.997 64.8727C213.96 64.8727 213.923 64.8801 213.889 64.8946C213.854 64.909 213.823 64.9301 213.797 64.9567L213.701 64.8567C213.78 64.7795 213.887 64.7363 213.997 64.7363C214.108 64.7363 214.214 64.7795 214.293 64.8567Z" fill="white"/>
<path d="M214.061 65.0451C214.061 65.0625 214.056 65.0795 214.046 65.094C214.036 65.1085 214.022 65.1198 214.006 65.1264C213.99 65.1331 213.973 65.1348 213.956 65.1314C213.939 65.128 213.923 65.1197 213.911 65.1073C213.898 65.095 213.89 65.0794 213.886 65.0623C213.883 65.0452 213.885 65.0275 213.891 65.0115C213.898 64.9954 213.909 64.9816 213.924 64.972C213.938 64.9623 213.955 64.9571 213.973 64.9571C213.984 64.9566 213.996 64.9584 214.007 64.9627C214.018 64.9669 214.028 64.9733 214.036 64.9816C214.045 64.9899 214.051 64.9999 214.055 65.0108C214.059 65.0217 214.061 65.0334 214.061 65.0451Z" fill="white"/>
<path d="M208.65 64.6573C208.65 64.5904 208.677 64.5263 208.724 64.4791C208.771 64.4318 208.836 64.4053 208.902 64.4053C208.97 64.4053 209.034 64.4317 209.082 64.4788C209.13 64.526 209.157 64.5901 209.158 64.6573C209.158 64.7252 209.131 64.7903 209.083 64.8383C209.035 64.8863 208.97 64.9132 208.902 64.9132C208.835 64.9122 208.771 64.8848 208.724 64.8369C208.677 64.789 208.65 64.7245 208.65 64.6573Z" fill="white"/>
<path d="M209.451 64.6573C209.451 64.5904 209.478 64.5263 209.525 64.4791C209.572 64.4318 209.636 64.4053 209.703 64.4053C209.77 64.4053 209.835 64.4317 209.883 64.4788C209.931 64.526 209.958 64.5901 209.959 64.6573C209.959 64.7252 209.932 64.7903 209.884 64.8383C209.836 64.8863 209.771 64.9132 209.703 64.9132C209.636 64.9122 209.572 64.8848 209.525 64.8369C209.478 64.789 209.451 64.7245 209.451 64.6573Z" fill="white"/>
<path d="M210.25 64.6567C210.258 64.5948 210.288 64.5379 210.335 64.4966C210.381 64.4554 210.442 64.4326 210.504 64.4326C210.566 64.4326 210.627 64.4554 210.673 64.4966C210.72 64.5379 210.75 64.5948 210.758 64.6567C210.763 64.6927 210.759 64.7293 210.749 64.764C210.738 64.7987 210.72 64.8307 210.696 64.8579C210.672 64.8852 210.642 64.907 210.609 64.9219C210.576 64.9369 210.54 64.9446 210.504 64.9446C210.468 64.9446 210.432 64.9369 210.399 64.9219C210.366 64.907 210.336 64.8852 210.312 64.8579C210.288 64.8307 210.27 64.7987 210.259 64.764C210.249 64.7293 210.246 64.6927 210.25 64.6567Z" fill="white"/>
<path d="M211.051 64.6574C211.051 64.6067 211.066 64.5572 211.094 64.5151C211.122 64.473 211.162 64.4402 211.209 64.4209C211.256 64.4015 211.307 64.3964 211.357 64.4063C211.406 64.4162 211.452 64.4405 211.488 64.4763C211.524 64.5121 211.548 64.5578 211.558 64.6074C211.568 64.6571 211.563 64.7085 211.543 64.7553C211.524 64.8021 211.491 64.8421 211.449 64.8702C211.407 64.8983 211.357 64.9133 211.307 64.9133C211.239 64.9133 211.174 64.8864 211.126 64.8384C211.078 64.7904 211.051 64.7252 211.051 64.6574Z" fill="white"/>
<path d="M211.85 64.6573C211.851 64.5901 211.878 64.526 211.926 64.4788C211.974 64.4317 212.038 64.4053 212.106 64.4053C212.172 64.4053 212.237 64.4318 212.284 64.4791C212.331 64.5263 212.358 64.5904 212.358 64.6573C212.358 64.7245 212.331 64.789 212.284 64.8369C212.237 64.8848 212.173 64.9122 212.106 64.9132C212.038 64.9132 211.973 64.8863 211.925 64.8383C211.877 64.7903 211.85 64.7252 211.85 64.6573Z" fill="white"/>
<path d="M241.613 65.2088H239.549V64.2568H241.613V65.2088ZM239.649 65.1088H241.513V64.3568H239.649V65.1088Z" fill="white"/>
<path d="M241.049 64.417H239.717V65.0489H241.049V64.417Z" fill="white"/>
<path d="M241.801 64.4775H241.617V64.9895H241.801V64.4775Z" fill="white"/>
<path d="M211.974 134.685H211.682V136.025H211.138V135.341H210.174V136.025H209.63V134.685H209.338L210.658 133.325L211.974 134.685Z" fill="#EBEBEB"/>
<path d="M241.309 133.325H238.129V133.781H241.309V133.325Z" fill="#EBEBEB"/>
<path d="M241.309 134.445H238.129V134.901H241.309V134.445Z" fill="#EBEBEB"/>
<path d="M241.309 135.568H238.129V136.024H241.309V135.568Z" fill="#EBEBEB"/>
<path d="M211.914 78.8639C211.576 79.0745 211.186 79.1862 210.788 79.1862C210.39 79.1862 210 79.0745 209.662 78.8639C209.267 78.619 208.961 78.2516 208.793 77.8176C208.625 77.3836 208.603 76.9066 208.73 76.4589C208.857 76.0112 209.127 75.6172 209.499 75.3366C209.87 75.0561 210.323 74.9043 210.788 74.9043C211.254 74.9043 211.707 75.0561 212.078 75.3366C212.449 75.6172 212.719 76.0112 212.847 76.4589C212.974 76.9066 212.952 77.3836 212.783 77.8176C212.615 78.2516 212.31 78.619 211.914 78.8639Z" fill="#DBDBDB"/>
<path d="M211.439 76.8004C211.439 76.9295 211.4 77.0557 211.329 77.163C211.257 77.2703 211.155 77.3539 211.035 77.4031C210.916 77.4523 210.785 77.465 210.658 77.4395C210.531 77.4141 210.415 77.3516 210.324 77.26C210.233 77.1684 210.172 77.0519 210.147 76.9251C210.122 76.7984 210.136 76.6672 210.186 76.5481C210.236 76.4291 210.32 76.3275 210.427 76.2564C210.535 76.1852 210.662 76.1477 210.791 76.1484C210.963 76.1495 211.128 76.2187 211.249 76.3408C211.371 76.463 211.439 76.6282 211.439 76.8004Z" fill="white"/>
<path d="M211.914 78.5959V78.8639C211.576 79.0746 211.186 79.1862 210.788 79.1862C210.39 79.1862 210 79.0746 209.662 78.8639V78.5959C209.679 78.3089 209.805 78.0393 210.015 77.8421C210.224 77.645 210.501 77.5352 210.788 77.5352C211.076 77.5352 211.352 77.645 211.562 77.8421C211.771 78.0393 211.897 78.3089 211.914 78.5959Z" fill="white"/>
<path d="M229.209 75.0283H215.609V76.1482H229.209V75.0283Z" fill="#EBEBEB"/>
<path d="M227.481 76.8965H215.609V77.6404H227.481V76.8965Z" fill="#EBEBEB"/>
<path d="M235.236 78.3281H215.609V79.0721H235.236V78.3281Z" fill="#EBEBEB"/>
<path d="M206.151 107.803H244.492V80.9564H206.151V107.803Z" fill="#EBEBEB"/>
<path d="M210.631 88.5879C210.631 89.216 210.817 89.83 211.166 90.3523C211.515 90.8746 212.011 91.2816 212.591 91.522C213.172 91.7623 213.81 91.8252 214.426 91.7027C215.042 91.5802 215.608 91.2777 216.052 90.8336C216.496 90.3894 216.799 89.8235 216.921 89.2075C217.044 88.5914 216.981 87.9529 216.741 87.3726C216.5 86.7923 216.093 86.2963 215.571 85.9473C215.049 85.5984 214.435 85.4121 213.807 85.4121C212.964 85.4121 212.157 85.7467 211.561 86.3423C210.965 86.9379 210.631 87.7456 210.631 88.5879Z" fill="#DBDBDB"/>
<path d="M223.174 102.018H244.493L233.833 87.5674L223.174 102.018Z" fill="#C7C7C7"/>
<path d="M214.814 102.03H232.417L223.614 92.623L214.814 102.03Z" fill="#DBDBDB"/>
<path d="M244.492 102.019H206.15V107.802H244.492V102.019Z" fill="#DBDBDB"/>
<path d="M211.914 121.958C211.576 122.168 211.186 122.28 210.788 122.28C210.39 122.28 210 122.168 209.662 121.958C209.267 121.713 208.961 121.345 208.793 120.911C208.625 120.477 208.603 120 208.73 119.553C208.857 119.105 209.127 118.711 209.499 118.43C209.87 118.15 210.323 117.998 210.788 117.998C211.254 117.998 211.707 118.15 212.078 118.43C212.449 118.711 212.719 119.105 212.847 119.553C212.974 120 212.952 120.477 212.783 120.911C212.615 121.345 212.31 121.713 211.914 121.958Z" fill="#DBDBDB"/>
<path d="M210.791 120.546C211.151 120.546 211.443 120.254 211.443 119.894C211.443 119.534 211.151 119.242 210.791 119.242C210.431 119.242 210.139 119.534 210.139 119.894C210.139 120.254 210.431 120.546 210.791 120.546Z" fill="white"/>
<path d="M211.914 121.69V121.958C211.576 122.168 211.186 122.28 210.788 122.28C210.39 122.28 210 122.168 209.662 121.958V121.69C209.679 121.403 209.805 121.133 210.015 120.936C210.224 120.739 210.501 120.629 210.788 120.629C211.076 120.629 211.352 120.739 211.562 120.936C211.771 121.133 211.897 121.403 211.914 121.69Z" fill="white"/>
<path d="M233.096 118.122H215.609V119.242H233.096V118.122Z" fill="#EBEBEB"/>
<path d="M237.936 119.99H215.609V120.734H237.936V119.99Z" fill="#EBEBEB"/>
<path d="M223.213 121.422H215.609V122.166H223.213V121.422Z" fill="#EBEBEB"/>
<path d="M244.484 124.05H206.15V130.605H244.484V124.05Z" fill="#EBEBEB"/>
<path d="M216.794 130.609H210.818C211.038 129.993 211.443 129.459 211.978 129.082C212.513 128.704 213.152 128.502 213.806 128.502C214.461 128.502 215.099 128.704 215.634 129.082C216.169 129.459 216.574 129.993 216.794 130.609Z" fill="#DBDBDB"/>
<path d="M208.725 110.946C208.666 110.702 208.68 110.446 208.766 110.211C208.852 109.975 209.006 109.771 209.209 109.623C209.411 109.474 209.653 109.39 209.903 109.379C210.154 109.368 210.402 109.432 210.616 109.563C210.831 109.693 211.001 109.884 211.107 110.111C211.213 110.339 211.249 110.592 211.21 110.84C211.172 111.088 211.061 111.319 210.891 111.504C210.722 111.688 210.501 111.818 210.257 111.878C210.096 111.918 209.927 111.925 209.763 111.9C209.598 111.875 209.44 111.817 209.298 111.731C209.155 111.644 209.031 111.53 208.933 111.395C208.835 111.261 208.764 111.108 208.725 110.946Z" fill="#EBEBEB"/>
<path fill-rule="evenodd" clip-rule="evenodd" d="M209.786 111.15C209.75 111.13 209.722 111.098 209.678 111.102C209.634 111.106 209.678 111.102 209.678 111.082V110.574C209.675 110.57 209.673 110.565 209.673 110.56C209.673 110.555 209.675 110.55 209.678 110.546C209.806 110.482 209.862 110.354 209.942 110.242C209.984 110.186 210.014 110.121 210.03 110.052C210.046 109.983 210.047 109.912 210.034 109.842C210.034 109.806 210.034 109.79 210.082 109.782C210.099 109.775 210.117 109.774 210.135 109.78C210.152 109.785 210.167 109.796 210.178 109.81C210.215 109.88 210.24 109.956 210.25 110.034C210.258 110.097 210.258 110.16 210.25 110.222C210.25 110.27 210.23 110.314 210.222 110.362C210.214 110.41 210.246 110.362 210.258 110.362H210.686C210.746 110.362 210.778 110.362 210.786 110.418C210.79 110.443 210.786 110.469 210.774 110.491C210.763 110.513 210.744 110.531 210.722 110.542C210.722 110.542 210.694 110.542 210.694 110.562C210.694 110.582 210.694 110.562 210.722 110.582C210.75 110.602 210.762 110.69 210.722 110.734C210.682 110.778 210.682 110.734 210.682 110.758C210.682 110.782 210.706 110.758 210.718 110.79C210.727 110.802 210.733 110.816 210.736 110.83C210.739 110.845 210.738 110.86 210.735 110.874C210.731 110.889 210.724 110.902 210.714 110.913C210.704 110.924 210.691 110.933 210.678 110.938H210.65C210.65 110.938 210.65 110.938 210.65 110.958C210.664 110.965 210.676 110.976 210.685 110.989C210.693 111.003 210.698 111.018 210.698 111.034C210.698 111.05 210.693 111.066 210.685 111.079C210.676 111.093 210.664 111.104 210.65 111.11C210.625 111.118 210.598 111.118 210.574 111.11H209.902C209.899 111.122 209.893 111.133 209.885 111.143C209.877 111.152 209.867 111.159 209.855 111.163C209.843 111.167 209.831 111.168 209.819 111.166C209.807 111.163 209.795 111.158 209.786 111.15Z" fill="white"/>
<path fill-rule="evenodd" clip-rule="evenodd" d="M209.146 110.854C209.146 110.746 209.146 110.638 209.146 110.53C209.146 110.51 209.146 110.498 209.178 110.498C209.306 110.498 209.438 110.498 209.578 110.498C209.602 110.498 209.606 110.498 209.606 110.53V111.178C209.606 111.206 209.606 111.214 209.57 111.214H209.19C209.158 111.214 209.154 111.214 209.154 111.174C209.15 111.086 209.146 110.962 209.146 110.854Z" fill="white"/>
<path d="M211.389 110.946C211.33 110.702 211.345 110.447 211.431 110.212C211.517 109.976 211.67 109.772 211.873 109.624C212.075 109.476 212.316 109.391 212.567 109.38C212.817 109.369 213.065 109.433 213.279 109.563C213.493 109.693 213.664 109.883 213.77 110.11C213.876 110.337 213.913 110.591 213.875 110.838C213.837 111.086 213.727 111.317 213.558 111.502C213.389 111.687 213.168 111.818 212.925 111.878C212.763 111.918 212.595 111.926 212.429 111.901C212.264 111.876 212.106 111.819 211.963 111.732C211.82 111.646 211.696 111.531 211.597 111.396C211.499 111.262 211.428 111.108 211.389 110.946Z" fill="#FFC000"/>
<path d="M213.27 110.806C213.27 110.978 213.202 111.143 213.08 111.265C212.959 111.386 212.794 111.454 212.622 111.454C212.45 111.454 212.285 111.386 212.164 111.265C212.042 111.143 211.974 110.978 211.974 110.806C211.933 110.746 211.905 110.677 211.892 110.605C211.88 110.533 211.883 110.459 211.901 110.388C211.92 110.317 211.954 110.251 212 110.194C212.046 110.137 212.104 110.091 212.17 110.058C212.53 109.95 212.622 110.578 212.622 110.578C212.622 110.578 212.714 109.95 213.078 110.058C213.33 110.134 213.43 110.482 213.27 110.806Z" fill="white"/>
<path d="M233.833 110.482H215.822V111.214H233.833V110.482Z" fill="#EBEBEB"/>
<path d="M206.15 114.854L210.942 114.782L215.734 114.742L225.317 114.706L234.901 114.742L239.692 114.782L244.484 114.854L239.692 114.93L234.901 114.97L225.317 115.006L215.734 114.97L210.942 114.93L206.15 114.854Z" fill="#EBEBEB"/>
<path d="M148.567 149.504C148.267 148.656 132.784 129.057 131.744 128.705C131.628 128.657 124.993 133.593 124.993 133.593C124.721 133.969 111.857 131.529 111.857 131.529L112.053 146.98L135.368 145.996C135.368 145.996 138.568 147.784 141.472 149.232C142.711 149.898 143.991 150.486 145.303 150.992C146.483 151.26 148.871 150.344 148.567 149.504Z" fill="#EB9481"/>
<path d="M145.31 150.984C143.998 150.479 142.72 149.891 141.482 149.224C138.57 147.776 135.378 145.989 135.378 145.989L130.179 146.209L121.779 133.261C123.571 133.541 124.903 133.701 124.979 133.581C124.979 133.581 131.611 128.65 131.731 128.698C132.771 129.058 148.254 148.656 148.554 149.496C148.854 150.336 146.482 151.264 145.31 150.984Z" fill="white"/>
<path d="M148.699 149.524C148.383 148.66 132.832 129.073 131.764 128.701C131.364 128.557 128.108 130.661 124.984 133.585L135.024 146.196C135.024 146.196 144.143 150.788 145.355 151.072C146.567 151.356 149.019 150.392 148.699 149.524Z" fill="#FFC000"/>
<path d="M147.699 149.884C145.011 146.684 134.475 133.425 132.064 130.041C132.044 130.013 132.064 129.997 132.064 130.041C134.795 133.173 145.227 146.496 147.731 149.856C147.807 149.884 147.755 149.936 147.699 149.884Z" fill="#263238"/>
<path d="M143.66 150.372C143.359 150.015 143.137 149.598 143.006 149.15C142.875 148.702 142.839 148.231 142.9 147.768C143.002 146.936 143.422 146.175 144.072 145.645C144.092 145.645 144.12 145.665 144.1 145.685C143.538 146.312 143.195 147.105 143.123 147.944C143.05 148.783 143.253 149.622 143.7 150.336C143.72 150.364 143.68 150.396 143.66 150.372Z" fill="#263238"/>
<path d="M136.179 146.968C135.115 145.668 134.371 143.768 134.799 142.104C134.799 142.04 134.907 142.064 134.915 142.104C135.226 143.731 135.71 145.32 136.359 146.844C136.375 146.868 136.381 146.897 136.376 146.925C136.371 146.954 136.355 146.979 136.331 146.996C136.307 147.012 136.277 147.018 136.249 147.013C136.22 147.008 136.195 146.992 136.179 146.968Z" fill="#263238"/>
<path d="M137.38 147.668C136.32 146.368 135.572 144.468 136 142.804C136 142.74 136.108 142.764 136.12 142.804C136.427 144.431 136.91 146.02 137.559 147.544C137.576 147.568 137.582 147.597 137.577 147.626C137.572 147.654 137.555 147.679 137.531 147.696C137.52 147.704 137.506 147.71 137.492 147.713C137.478 147.716 137.464 147.716 137.45 147.713C137.421 147.708 137.396 147.692 137.38 147.668Z" fill="#263238"/>
<path d="M138.579 148.368C137.519 147.068 136.775 145.168 137.199 143.504C137.199 143.44 137.307 143.464 137.319 143.504C137.63 145.131 138.112 146.72 138.759 148.244C138.776 148.268 138.782 148.297 138.777 148.326C138.771 148.354 138.755 148.38 138.731 148.396C138.707 148.412 138.678 148.419 138.649 148.414C138.621 148.408 138.596 148.392 138.579 148.368Z" fill="#263238"/>
<path d="M139.782 149.084C138.718 147.784 137.974 145.884 138.398 144.22C138.398 144.156 138.506 144.18 138.518 144.22C138.828 145.847 139.312 147.436 139.962 148.96C139.979 148.984 139.985 149.013 139.98 149.042C139.975 149.07 139.958 149.095 139.934 149.112C139.923 149.12 139.909 149.126 139.895 149.129C139.881 149.132 139.867 149.132 139.853 149.129C139.824 149.124 139.799 149.108 139.782 149.084Z" fill="#263238"/>
<path d="M129.607 133.337C128.439 131.857 130.735 130.045 131.903 131.525C133.071 133.005 130.775 134.817 129.607 133.337Z" fill="#263238"/>
<path d="M135.644 149.536C135.995 148.1 135.712 146.564 135.616 145.113C135.611 145.081 135.598 145.051 135.58 145.025C135.561 144.999 135.537 144.977 135.508 144.962C135.48 144.948 135.448 144.94 135.416 144.939C135.384 144.939 135.352 144.946 135.324 144.961C135.319 144.955 135.313 144.951 135.307 144.949C135.301 144.946 135.294 144.944 135.288 144.944C135.281 144.944 135.274 144.946 135.268 144.949C135.262 144.951 135.256 144.955 135.252 144.961C134.127 146.015 133.3 147.346 132.852 148.82C132.608 149.684 132.732 150.952 133.812 151.18C134.892 151.408 135.44 150.376 135.644 149.536ZM134.604 150.46C133.068 151.468 133.144 149.304 133.352 148.676C133.49 148.265 133.658 147.863 133.856 147.476C134.27 146.691 134.724 145.928 135.216 145.189C135.216 145.905 135.284 146.612 135.312 147.324C135.348 148.192 135.448 149.908 134.604 150.46Z" fill="#263238"/>
<path d="M130.699 140.949C129.923 141.749 130.515 142.861 131.199 143.445C132.388 144.43 133.816 145.084 135.339 145.34C135.375 145.34 135.391 145.32 135.391 145.292C135.423 145.289 135.454 145.278 135.481 145.26C135.508 145.243 135.531 145.219 135.547 145.191C135.563 145.162 135.572 145.131 135.573 145.099C135.575 145.066 135.569 145.034 135.555 145.005C134.835 143.741 134.223 142.305 133.155 141.301C132.515 140.713 131.443 140.209 130.699 140.949ZM134.071 143.313C134.443 143.925 134.779 144.553 135.167 145.153C134.367 144.781 133.543 144.445 132.767 143.993C132.393 143.78 132.034 143.542 131.691 143.281C131.171 142.881 129.919 141.105 131.755 141.101C132.779 141.085 133.643 142.585 134.079 143.313H134.071Z" fill="#263238"/>
<path d="M111.101 127.845L100.586 127.017C100.586 127.017 85.3864 122.618 76.619 124.917C66.5556 127.561 65.1357 139.317 75.3671 144.028C85.5024 148.684 130.048 146.972 130.048 146.972L120.496 132.825C120.496 132.825 105.825 129.381 92.982 130.081L111.165 132.173L111.101 127.845Z" fill="#37474F"/>
<path d="M110.992 130.838C109.428 130.582 107.844 130.438 106.268 130.306C104.692 130.174 103.068 130.042 101.469 129.942C98.2851 129.734 95.0933 129.686 91.9051 129.798C91.6051 129.798 91.3091 129.826 91.0091 129.846C90.9447 129.827 90.8793 129.812 90.8132 129.802C90.6612 129.766 90.5052 129.73 90.3532 129.706C90.0612 129.658 89.7732 129.622 89.4812 129.582C88.8773 129.502 88.2813 129.45 87.6694 129.35C87.6334 129.35 87.6174 129.402 87.6694 129.406C88.2773 129.53 88.8693 129.69 89.4812 129.806L90.0052 129.906C88.8373 129.99 87.6733 130.106 86.5094 130.238C86.4734 130.238 86.4734 130.298 86.5094 130.294C88.1093 130.166 89.7092 130.122 91.2851 130.118C92.861 130.114 94.4409 130.118 96.0208 130.17C99.2206 130.286 102.42 130.506 105.588 130.774C107.372 130.922 109.164 131.106 110.956 131.142C111.132 131.15 111.168 130.866 110.992 130.838Z" fill="#263238"/>
<path d="M125.5 146.649C124.912 145.749 124.404 144.785 123.864 143.849L122.232 141.049C121.144 139.189 117.249 132.941 116.869 132.505C116.845 132.477 116.797 132.505 116.809 132.545C116.997 133.029 119.432 137.169 120.008 138.093C121.128 139.937 122.304 141.745 123.46 143.565C123.792 144.085 124.132 144.601 124.468 145.117C124.804 145.633 125.16 146.141 125.468 146.673C125.456 146.713 125.5 146.685 125.5 146.649Z" fill="#263238"/>
<path d="M73.1703 152.352C73.4303 151.492 87.9694 131.185 88.9893 130.773C89.1053 130.721 95.9689 135.333 95.9689 135.333C96.2569 135.697 108.988 132.653 108.988 132.653L109.524 148.096L86.1895 148.216C86.1895 148.216 83.0897 150.152 80.2459 151.74C79.039 152.463 77.7887 153.11 76.5021 153.679C75.3342 154.011 72.9063 153.208 73.1703 152.352Z" fill="#EB9481"/>
<path d="M76.4957 153.68C77.7817 153.112 79.0307 152.464 80.2355 151.74C83.0753 150.14 86.1791 148.216 86.1791 148.216L91.3788 148.192L99.1583 134.861C97.3824 135.225 96.0585 135.449 95.9585 135.333C95.9585 135.333 89.0949 130.717 88.9789 130.773C87.959 131.173 73.4199 151.492 73.1599 152.352C72.8999 153.212 75.3358 154.012 76.4957 153.68Z" fill="white"/>
<path d="M73.0343 152.384C73.3063 151.504 87.9174 131.185 88.9613 130.785C89.3613 130.621 92.7091 132.569 95.9689 135.337L86.5335 148.416C86.5335 148.416 77.646 153.432 76.4461 153.772C75.2462 154.112 72.7623 153.264 73.0343 152.384Z" fill="#FFC000"/>
<path d="M74.0599 152.684C76.5917 149.34 86.4871 135.621 88.739 132.121C88.739 132.093 88.739 132.081 88.715 132.121C86.1351 135.377 76.3477 149.18 74.0039 152.656C73.9519 152.708 74.0039 152.748 74.0599 152.684Z" fill="#263238"/>
<path d="M78.118 152.988C78.3998 152.616 78.6014 152.19 78.7102 151.736C78.8189 151.283 78.8325 150.811 78.75 150.352C78.6153 149.528 78.1684 148.787 77.5021 148.284C77.5021 148.284 77.4541 148.308 77.4701 148.328C78.0612 148.928 78.4417 149.703 78.5542 150.538C78.6667 151.372 78.5052 152.221 78.094 152.956C78.0935 152.96 78.0936 152.963 78.0945 152.967C78.0954 152.971 78.0971 152.974 78.0993 152.977C78.1015 152.98 78.1043 152.982 78.1076 152.984C78.1108 152.986 78.1143 152.987 78.118 152.988Z" fill="#263238"/>
<path d="M85.4257 149.232C86.4256 147.884 87.0816 145.96 86.5736 144.312C86.5736 144.248 86.4656 144.276 86.4576 144.332C86.2299 145.97 85.8276 147.579 85.2577 149.132C85.2537 149.153 85.2562 149.175 85.265 149.194C85.2738 149.213 85.2883 149.23 85.3067 149.241C85.325 149.252 85.3463 149.257 85.3676 149.255C85.3889 149.253 85.4092 149.245 85.4257 149.232Z" fill="#263238"/>
<path d="M84.2577 149.988C85.2577 148.64 85.9136 146.716 85.4096 145.068C85.4096 145.004 85.2977 145.032 85.2897 145.088C85.0619 146.726 84.6597 148.335 84.0897 149.888C84.0857 149.909 84.0883 149.93 84.097 149.95C84.1058 149.969 84.1203 149.986 84.1387 149.997C84.157 150.007 84.1783 150.012 84.1996 150.011C84.2209 150.009 84.2412 150.001 84.2577 149.988Z" fill="#263238"/>
<path d="M83.1025 150.744C84.0985 149.396 84.7544 147.472 84.2504 145.824C84.2304 145.76 84.1424 145.788 84.1344 145.824C83.9049 147.462 83.5027 149.071 82.9345 150.624C82.9224 150.646 82.9188 150.672 82.9245 150.697C82.9302 150.722 82.9448 150.744 82.9654 150.758C82.9861 150.773 83.0114 150.78 83.0367 150.777C83.0619 150.775 83.0854 150.763 83.1025 150.744Z" fill="#263238"/>
<path d="M81.9267 151.503C82.9267 150.151 83.5826 148.228 83.0747 146.58C83.0747 146.516 82.9667 146.544 82.9587 146.6C82.7309 148.238 82.3287 149.847 81.7588 151.399C81.7536 151.421 81.7553 151.443 81.7637 151.463C81.772 151.484 81.7865 151.501 81.8051 151.512C81.8237 151.524 81.8455 151.529 81.8674 151.528C81.8892 151.526 81.91 151.517 81.9267 151.503Z" fill="#263238"/>
<path d="M91.3455 135.308C92.4414 133.777 90.0616 132.073 88.9656 133.605C87.8697 135.136 90.2455 136.84 91.3455 135.308Z" fill="#263238"/>
<path d="M88.0027 153.319C89.0707 153.043 89.1347 151.771 88.8467 150.92C88.3272 149.465 87.4332 148.174 86.2549 147.176C86.2269 147.152 86.2029 147.176 86.1869 147.176C86.1571 147.163 86.1247 147.158 86.0924 147.16C86.0601 147.162 86.0287 147.171 86.0007 147.188C85.9728 147.204 85.949 147.226 85.9313 147.254C85.9136 147.281 85.9025 147.312 85.8989 147.344C85.8749 148.796 85.6629 150.344 86.0829 151.763C86.3269 152.603 86.9908 153.583 88.0027 153.319ZM86.3029 149.564C86.3029 148.852 86.3268 148.14 86.3029 147.428C86.829 148.142 87.3176 148.883 87.7668 149.648C87.9803 150.02 88.1687 150.406 88.3307 150.804C88.5667 151.423 88.7307 153.579 87.1628 152.651C86.3028 152.135 86.3029 150.416 86.3029 149.564Z" fill="#263238"/>
<path d="M88.1863 143.428C87.1503 144.484 86.6064 145.948 85.9504 147.244C85.9383 147.274 85.9335 147.306 85.9363 147.338C85.9392 147.371 85.9496 147.402 85.9668 147.429C85.984 147.456 86.0074 147.479 86.0352 147.496C86.0629 147.512 86.0942 147.522 86.1264 147.524C86.1256 147.531 86.1265 147.538 86.1289 147.544C86.1313 147.551 86.1352 147.556 86.1403 147.561C86.1453 147.566 86.1514 147.569 86.158 147.571C86.1647 147.573 86.1716 147.573 86.1784 147.572C87.6871 147.242 89.0829 146.522 90.2261 145.484C90.8781 144.868 91.4261 143.716 90.6061 142.968C89.7862 142.22 88.7902 142.812 88.1863 143.428ZM89.5542 143.164C91.3861 143.084 90.2181 144.904 89.7182 145.34C89.3889 145.616 89.0415 145.87 88.6782 146.1C87.9215 146.563 87.1419 146.987 86.3424 147.372C86.7024 146.756 87.0103 146.112 87.3503 145.484C87.7543 144.736 88.5422 143.208 89.5542 143.164Z" fill="#263238"/>
<path d="M109.568 127.885L120.036 127.609C120.036 127.609 130.835 122.053 139.722 123.941C149.898 126.101 151.53 138.768 144.09 143.46C134.667 149.404 92.0254 149.432 92.0254 149.432L100.825 133.577C100.825 133.577 114.916 130.217 127.779 130.309L109.712 133.261L109.568 127.885Z" fill="#37474F"/>
<path d="M100.234 134.612C100.244 134.587 100.251 134.56 100.254 134.532V134.464L100.29 134.312C100.318 134.209 100.354 134.108 100.39 134.005C100.426 133.901 100.47 133.805 100.51 133.705C100.559 133.607 100.615 133.514 100.678 133.425C100.678 133.425 100.678 133.425 100.702 133.405H100.722H100.746C102.298 133.073 112.845 131.277 114.417 131.057C115.989 130.837 117.585 130.657 119.177 130.469C122.346 130.109 125.531 129.909 128.72 129.869C129.02 129.869 129.32 129.869 129.62 129.869C129.683 129.847 129.747 129.83 129.812 129.817C129.964 129.777 130.116 129.733 130.268 129.701C130.556 129.637 130.844 129.585 131.132 129.533C131.732 129.425 132.332 129.345 132.932 129.217C132.968 129.217 132.984 129.265 132.932 129.273C132.332 129.425 131.732 129.613 131.144 129.761L130.624 129.885C131.796 129.917 132.964 129.977 134.136 130.053C134.143 130.053 134.15 130.056 134.155 130.061C134.161 130.066 134.164 130.073 134.164 130.081C134.164 130.088 134.161 130.095 134.155 130.101C134.15 130.106 134.143 130.109 134.136 130.109C132.536 130.057 130.936 130.089 129.356 130.157C127.776 130.225 126.204 130.301 124.628 130.437C121.428 130.701 118.269 131.073 115.101 131.489C113.325 131.725 102.57 133.585 100.782 133.709H100.758C100.747 133.751 100.732 133.793 100.714 133.833L100.57 134.125C100.522 134.216 100.474 134.308 100.418 134.4L100.334 134.532L100.29 134.596C100.29 134.616 100.25 134.644 100.246 134.664C100.242 134.684 100.214 134.648 100.234 134.612Z" fill="#263238"/>
<path d="M95.3224 148.408C95.8704 147.48 96.3303 146.496 96.8263 145.54L98.3222 142.668C99.3221 140.76 102.918 134.333 103.278 133.869C103.298 133.841 103.35 133.869 103.338 133.905C103.174 134.401 100.938 138.649 100.422 139.596C99.3901 141.492 98.3022 143.356 97.2223 145.228C96.9183 145.764 96.5983 146.292 96.2903 146.828C95.9824 147.364 95.6504 147.884 95.3664 148.428C95.3669 148.433 95.3661 148.438 95.3641 148.442C95.3621 148.447 95.3589 148.451 95.3549 148.454C95.3509 148.456 95.3462 148.458 95.3413 148.459C95.3364 148.459 95.3314 148.458 95.327 148.456C95.3225 148.454 95.3186 148.451 95.3157 148.447C95.3129 148.443 95.3111 148.438 95.3107 148.433C95.3102 148.429 95.311 148.424 95.3131 148.419C95.3152 148.415 95.3184 148.411 95.3224 148.408Z" fill="#263238"/>
<path d="M130.545 85.4404L128.341 97.3716C128.237 97.7236 128.429 97.9956 128.769 97.9716L134.828 97.5716C135.012 97.5449 135.185 97.467 135.326 97.3467C135.468 97.2264 135.572 97.0687 135.628 96.8917L137.832 84.9604C137.936 84.6084 137.744 84.3404 137.404 84.3604L131.349 84.7604C131.164 84.7869 130.991 84.8647 130.849 84.9849C130.707 85.1052 130.601 85.263 130.545 85.4404Z" fill="#37474F"/>
<path d="M131.263 85.3881L129.06 97.3193C128.956 97.6713 129.148 97.9433 129.484 97.9193L135.543 97.5193C135.727 97.4931 135.9 97.4153 136.041 97.2949C136.183 97.1746 136.288 97.0167 136.343 96.8394L138.551 84.9081C138.655 84.5561 138.463 84.2841 138.123 84.3081L132.063 84.7081C131.88 84.7352 131.707 84.8134 131.566 84.9336C131.425 85.0538 131.32 85.2112 131.263 85.3881Z" fill="#455A64"/>
<path d="M132.959 85.8156C132.964 85.9177 132.938 86.0189 132.885 86.1063C132.832 86.1937 132.755 86.2635 132.662 86.3067C132.569 86.3499 132.466 86.3647 132.365 86.3492C132.264 86.3336 132.17 86.2884 132.095 86.2193C132.02 86.1502 131.966 86.0603 131.942 85.9611C131.918 85.8618 131.924 85.7575 131.959 85.6616C131.994 85.5657 132.057 85.4823 132.14 85.4222C132.222 85.362 132.321 85.3277 132.423 85.3237C132.559 85.3182 132.692 85.3669 132.793 85.4591C132.893 85.5513 132.953 85.6795 132.959 85.8156Z" fill="#263238"/>
<path d="M112.152 104.475C115.988 111.59 124.216 120.654 127.408 120.518C128.923 120.454 131.651 120.666 133.543 118.814C137.675 114.774 140.903 107.298 141.415 103.095C141.595 101.603 134.215 98.791 133.219 100.055C130.883 103.019 128.296 108.718 127.852 108.71C126.212 108.674 119.54 103.715 114.88 100.223C109.225 95.9792 110.625 101.639 112.152 104.475Z" fill="#EB9481"/>
<path d="M141.167 95.4357C140.239 92.4719 139.547 91.8359 140.091 88.9361C140.447 87.0202 139.379 85.9723 138.123 87.5602C136.071 90.16 136.467 94.2358 137.011 95.6117L141.167 95.4357Z" fill="#EB9481"/>
<path d="M141.135 104.407C141.135 104.407 142.243 100.143 141.567 96.8874C141.099 94.6356 139.535 89.8478 133.036 87.636C131.492 87.112 128.924 87.46 131.132 89.2359C132.7 90.4958 134.072 90.8358 134.852 91.7197C134.852 91.7197 131.652 92.5437 131.172 94.1196C130.764 95.4848 130.456 96.8777 130.248 98.2873C130.497 98.384 130.752 98.4642 131.012 98.5273C131.012 98.5273 130.612 100.007 131.812 102.007L141.135 104.407Z" fill="#EB9481"/>
<path d="M140.775 94.8072C139.815 94.0792 137.751 92.5713 135.635 91.9234C133.283 91.2074 128.563 90.4554 128.035 92.1953C127.659 93.4753 129.435 93.9192 129.435 93.9192C129.435 93.9192 127.435 94.0192 127.331 95.2472C127.251 96.3671 128.647 96.6271 128.647 96.6271C128.647 96.6271 127.447 96.8991 127.567 97.991C127.723 99.3029 130.239 98.519 131.567 99.7109C131.859 99.9789 140.775 94.8072 140.775 94.8072Z" fill="#EB9481"/>
<path d="M135.291 94.5349C133.47 93.737 131.451 93.5111 129.499 93.8869C129.451 93.8869 129.435 93.9429 129.479 93.9389C131.436 93.9102 133.388 94.1198 135.295 94.5629L135.291 94.5349Z" fill="#263238"/>
<path d="M134.496 96.8875C133.572 96.5155 130.844 95.9915 128.669 96.5835C128.617 96.5835 128.605 96.6395 128.669 96.6355C130.619 96.5061 132.578 96.5987 134.508 96.9115L134.496 96.8875Z" fill="#263238"/>
<path d="M141.651 106.142C141.651 106.142 136.384 118.122 133.028 119.658C129.672 121.194 127.6 121.01 126.316 120.886C125.817 120.797 125.343 120.601 124.928 120.31C121.329 118.03 114.665 109.634 111.881 104.863C109.793 101.263 109.821 97.923 112.737 98.8429C113.727 99.2031 114.65 99.7248 115.469 100.387C120.965 104.503 127.296 108.362 127.58 108.194C127.864 108.026 130.62 103.075 130.62 103.075L141.651 106.142Z" fill="#FFC000"/>
<path d="M128.059 110.687C128.022 110.952 128.022 111.221 128.059 111.486C128.098 111.764 128.179 112.033 128.299 112.286C128.339 112.021 128.339 111.752 128.299 111.486C128.26 111.209 128.179 110.94 128.059 110.687Z" fill="white"/>
<path d="M134.936 113.666C134.899 113.931 134.899 114.201 134.936 114.466C134.973 114.733 135.046 114.994 135.152 115.242C135.192 114.977 135.192 114.707 135.152 114.442C135.119 114.174 135.046 113.913 134.936 113.666Z" fill="white"/>
<path d="M122.817 116.558C122.78 116.823 122.78 117.092 122.817 117.358C122.85 117.626 122.923 117.887 123.033 118.134C123.07 117.868 123.07 117.599 123.033 117.334C122.996 117.066 122.923 116.806 122.817 116.558Z" fill="white"/>
<path d="M119.5 104.791C119.433 105.335 119.51 105.887 119.724 106.391C119.762 106.126 119.762 105.856 119.724 105.591C119.687 105.315 119.612 105.046 119.5 104.791Z" fill="white"/>
<path d="M118.412 109.61C118.677 109.647 118.947 109.647 119.212 109.61C119.48 109.577 119.742 109.504 119.988 109.394C119.723 109.357 119.453 109.357 119.188 109.394C118.921 109.431 118.66 109.504 118.412 109.61Z" fill="white"/>
<path d="M132.443 111.006C132.709 111.044 132.978 111.044 133.243 111.006C133.511 110.97 133.772 110.897 134.019 110.79C133.754 110.751 133.484 110.751 133.219 110.79C132.951 110.824 132.69 110.897 132.443 111.006Z" fill="white"/>
<path d="M125.317 115.214C125.582 115.252 125.852 115.252 126.117 115.214C126.385 115.181 126.646 115.109 126.893 114.998C126.349 114.934 125.797 115.013 125.293 115.226L125.317 115.214Z" fill="white"/>
<path d="M138.872 106.875C139.137 106.912 139.406 106.912 139.672 106.875C139.94 106.842 140.201 106.769 140.448 106.659C139.904 106.594 139.352 106.673 138.848 106.887L138.872 106.875Z" fill="white"/>
<path d="M131.928 119.138C132.193 119.176 132.462 119.176 132.728 119.138C132.996 119.105 133.257 119.033 133.504 118.922C133.238 118.883 132.969 118.883 132.704 118.922C132.436 118.956 132.174 119.028 131.928 119.138Z" fill="white"/>
<path d="M111.305 99.2387C111.085 99.3362 110.852 99.4035 110.613 99.4387C110.647 99.3619 110.69 99.2894 110.741 99.2227C110.929 99.2042 111.119 99.2095 111.305 99.2387Z" fill="white"/>
<path d="M124.64 107.763C124.426 107.928 124.237 108.122 124.076 108.339C123.91 108.553 123.775 108.79 123.676 109.043C124.103 108.708 124.434 108.266 124.636 107.763H124.64Z" fill="white"/>
<path d="M131.235 114.458C131.021 114.624 130.831 114.819 130.671 115.038C130.507 115.252 130.372 115.487 130.271 115.738C130.486 115.574 130.676 115.38 130.835 115.162C131.001 114.947 131.136 114.71 131.235 114.458Z" fill="white"/>
<path d="M134.983 105.583C134.769 105.747 134.579 105.941 134.42 106.159C134.254 106.374 134.119 106.611 134.02 106.863C134.234 106.697 134.424 106.502 134.583 106.283C134.748 106.069 134.883 105.834 134.983 105.583Z" fill="white"/>
<path d="M120.476 113.622C120.262 113.789 120.072 113.984 119.912 114.202C119.747 114.416 119.612 114.651 119.512 114.902C119.726 114.738 119.916 114.544 120.076 114.326C120.243 114.112 120.378 113.875 120.476 113.622Z" fill="white"/>
<path d="M115.501 102.358C115.287 102.523 115.097 102.717 114.937 102.934C114.77 103.148 114.635 103.385 114.537 103.638C114.964 103.304 115.295 102.862 115.497 102.358H115.501Z" fill="white"/>
<path d="M115.192 107.887C115.026 107.672 114.831 107.482 114.612 107.323C114.399 107.156 114.164 107.022 113.912 106.923C114.074 107.139 114.268 107.329 114.488 107.487C114.702 107.654 114.939 107.789 115.192 107.887Z" fill="white"/>
<path d="M138.499 110.502C138.333 110.289 138.14 110.099 137.923 109.938C137.708 109.772 137.471 109.638 137.219 109.538C137.384 109.751 137.578 109.941 137.795 110.102C138.009 110.268 138.246 110.403 138.499 110.502Z" fill="white"/>
<path d="M131.327 108.347C131.161 108.133 130.968 107.944 130.751 107.783C130.537 107.616 130.3 107.481 130.047 107.383C130.382 107.81 130.823 108.141 131.327 108.343V108.347Z" fill="white"/>
<path d="M123.428 112.771C123.265 112.555 123.071 112.365 122.852 112.207C122.64 112.038 122.402 111.903 122.148 111.807C122.315 112.02 122.51 112.21 122.728 112.371C122.942 112.536 123.178 112.67 123.428 112.771Z" fill="white"/>
<path d="M128.18 119.366C128.016 119.152 127.822 118.962 127.604 118.802C127.39 118.637 127.153 118.502 126.9 118.402C127.066 118.617 127.261 118.807 127.48 118.966C127.694 119.131 127.93 119.266 128.18 119.366Z" fill="white"/>
<path d="M124.928 120.31C121.329 118.03 114.665 109.634 111.881 104.863C109.793 101.263 109.821 97.923 112.737 98.8429C114.357 101.663 121.429 113.998 124.928 120.31Z" fill="#263238"/>
<path d="M140.299 108.347C139.899 108.151 136.115 106.911 135.287 106.659C134.459 106.407 131.091 105.351 130.216 105.163C130.212 105.162 130.208 105.161 130.204 105.161C130.2 105.161 130.196 105.162 130.193 105.164C130.189 105.166 130.186 105.168 130.183 105.171C130.181 105.174 130.179 105.177 130.178 105.181C130.176 105.185 130.176 105.188 130.176 105.192C130.176 105.196 130.177 105.2 130.179 105.204C130.18 105.207 130.183 105.21 130.186 105.213C130.188 105.216 130.192 105.218 130.196 105.219C131.019 105.567 134.415 106.647 135.255 106.919C136.095 107.191 139.859 108.335 140.287 108.403C140.331 108.407 140.335 108.359 140.299 108.347Z" fill="#263238"/>
<path d="M121.12 128.217C120.74 128.617 96.2734 129.417 96.1494 129.265C95.8095 128.865 98.8213 113.29 101.325 107.33C104.525 99.6905 106.365 98.9866 107.461 98.5306C108.857 97.9387 111.413 98.0507 112.032 98.3026C112.736 98.5826 115.808 101.962 116.744 104.702C118.624 110.214 121.452 127.853 121.12 128.217Z" fill="#FFC000"/>
<path d="M110.344 102.903C110.28 103.447 110.358 103.999 110.572 104.503C110.61 104.238 110.61 103.969 110.572 103.703C110.537 103.427 110.46 103.157 110.344 102.903Z" fill="white"/>
<path d="M110.553 114.582C110.485 115.126 110.563 115.678 110.777 116.182C110.814 115.917 110.814 115.647 110.777 115.382C110.74 115.106 110.665 114.837 110.553 114.582Z" fill="white"/>
<path d="M96.6423 126.798C96.5791 127.342 96.6576 127.893 96.8703 128.398C96.9076 128.132 96.9076 127.863 96.8703 127.598C96.835 127.321 96.7581 127.052 96.6423 126.798Z" fill="white"/>
<path d="M106.665 127.281C106.627 127.547 106.627 127.816 106.665 128.081C106.701 128.35 106.775 128.613 106.885 128.861C106.922 128.596 106.922 128.327 106.885 128.061C106.851 127.792 106.777 127.529 106.665 127.281Z" fill="white"/>
<path d="M114.917 121.886C114.879 122.151 114.879 122.42 114.917 122.686C114.95 122.954 115.022 123.215 115.133 123.462C115.17 123.196 115.17 122.927 115.133 122.662C115.097 122.394 115.025 122.133 114.917 121.886Z" fill="white"/>
<path d="M103.149 109.887C103.112 110.152 103.112 110.421 103.149 110.687C103.182 110.955 103.255 111.216 103.365 111.463C103.405 111.197 103.405 110.928 103.365 110.663C103.332 110.395 103.259 110.133 103.149 109.887Z" fill="white"/>
<path d="M101.965 120.173C101.928 120.439 101.928 120.708 101.965 120.973C102.002 121.241 102.075 121.502 102.181 121.749C102.25 121.206 102.173 120.653 101.957 120.149L101.965 120.173Z" fill="white"/>
<path d="M116.665 112.022C116.627 112.288 116.627 112.557 116.665 112.822C116.701 113.09 116.774 113.351 116.881 113.598C116.92 113.333 116.92 113.064 116.881 112.798C116.847 112.531 116.775 112.269 116.665 112.022Z" fill="white"/>
<path d="M107.977 107.842C108.242 107.88 108.512 107.88 108.777 107.842C109.046 107.809 109.309 107.737 109.557 107.626C109.013 107.556 108.46 107.635 107.957 107.854L107.977 107.842Z" fill="white"/>
<path d="M102.078 115.546C102.622 115.611 103.174 115.532 103.678 115.318C103.413 115.281 103.143 115.281 102.878 115.318C102.601 115.353 102.332 115.43 102.078 115.546Z" fill="white"/>
<path d="M111.416 119.914C111.681 119.951 111.951 119.951 112.216 119.914C112.484 119.879 112.745 119.806 112.992 119.698C112.727 119.661 112.457 119.661 112.192 119.698C111.925 119.735 111.664 119.807 111.416 119.914Z" fill="white"/>
<path d="M104.484 124.865C104.75 124.902 105.019 124.902 105.284 124.865C105.552 124.828 105.813 124.756 106.06 124.649C105.795 124.612 105.526 124.612 105.26 124.649C104.993 124.686 104.732 124.759 104.484 124.865Z" fill="white"/>
<path d="M118.152 124.729C118.418 124.766 118.687 124.766 118.952 124.729C119.22 124.696 119.482 124.623 119.728 124.513C119.463 124.473 119.193 124.473 118.928 124.513C118.66 124.546 118.399 124.619 118.152 124.729Z" fill="white"/>
<path d="M109.721 99.4627C109.986 99.5004 110.255 99.5004 110.521 99.4627C110.789 99.4261 111.051 99.3534 111.301 99.2467C111.035 99.2094 110.766 99.2094 110.501 99.2467C110.232 99.2812 109.969 99.3539 109.721 99.4627Z" fill="white"/>
<path d="M107.261 101.522C107.044 101.687 106.853 101.883 106.693 102.102C106.527 102.316 106.393 102.551 106.293 102.802C106.508 102.639 106.698 102.445 106.857 102.226C107.024 102.012 107.16 101.775 107.261 101.522Z" fill="white"/>
<path d="M112.964 110.254C112.537 110.59 112.205 111.031 112 111.534C112.216 111.37 112.407 111.175 112.564 110.954C112.73 110.741 112.865 110.505 112.964 110.254Z" fill="white"/>
<path d="M118.632 119.021C118.418 119.188 118.229 119.383 118.068 119.601C117.902 119.816 117.767 120.053 117.668 120.305C117.882 120.14 118.072 119.944 118.232 119.725C118.399 119.512 118.534 119.275 118.632 119.021Z" fill="white"/>
<path d="M112.329 125.689C112.115 125.854 111.925 126.048 111.765 126.265C111.598 126.479 111.463 126.716 111.365 126.969C111.581 126.807 111.772 126.613 111.929 126.393C112.096 126.18 112.231 125.942 112.329 125.689Z" fill="white"/>
<path d="M99.2784 123.609C99.0629 123.774 98.8729 123.969 98.7144 124.189C98.548 124.402 98.4133 124.638 98.3145 124.889C98.5307 124.727 98.7209 124.533 98.8784 124.313C99.0455 124.1 99.1803 123.862 99.2784 123.609Z" fill="white"/>
<path d="M106.776 117.422C106.563 117.587 106.373 117.781 106.212 117.998C106.047 118.212 105.912 118.449 105.812 118.702C106.026 118.536 106.216 118.343 106.376 118.126C106.543 117.912 106.678 117.675 106.776 117.422Z" fill="white"/>
<path d="M115.501 102.358C115.287 102.523 115.097 102.717 114.937 102.934C114.77 103.148 114.635 103.385 114.537 103.638C114.964 103.304 115.295 102.862 115.497 102.358H115.501Z" fill="white"/>
<path d="M115.192 107.887C115.026 107.672 114.831 107.482 114.612 107.323C114.399 107.156 114.164 107.022 113.912 106.923C114.074 107.139 114.268 107.329 114.488 107.487C114.702 107.654 114.939 107.789 115.192 107.887Z" fill="white"/>
<path d="M99.1251 117.35C98.8846 117.257 98.6584 117.13 98.4531 116.974L98.5011 116.754L98.5451 116.786C98.7641 116.946 98.9594 117.135 99.1251 117.35Z" fill="white"/>
<path d="M116.012 117.162C115.848 116.948 115.654 116.758 115.436 116.598C115.222 116.432 114.985 116.298 114.732 116.198C114.898 116.413 115.093 116.603 115.312 116.762C115.526 116.927 115.762 117.062 116.012 117.162Z" fill="white"/>
<path d="M116.948 128.553C116.781 128.339 116.586 128.15 116.368 127.989C116.154 127.822 115.917 127.687 115.664 127.589C115.831 127.802 116.026 127.992 116.244 128.153C116.459 128.319 116.696 128.453 116.948 128.553Z" fill="white"/>
<path d="M104.485 106.063C104.319 105.844 104.123 105.65 103.901 105.487C103.687 105.32 103.45 105.185 103.197 105.087C103.36 105.302 103.555 105.492 103.773 105.651C103.989 105.822 104.229 105.961 104.485 106.063Z" fill="white"/>
<path d="M109.409 122.686C109.243 122.471 109.048 122.281 108.829 122.122C108.615 121.957 108.38 121.822 108.129 121.722C108.292 121.936 108.485 122.126 108.701 122.286C108.917 122.452 109.155 122.586 109.409 122.686Z" fill="white"/>
<path d="M102.262 128.073C102.098 127.859 101.904 127.669 101.686 127.509C101.473 127.342 101.235 127.207 100.982 127.109C101.146 127.325 101.34 127.515 101.558 127.673C101.773 127.84 102.01 127.974 102.262 128.073Z" fill="white"/>
<path d="M107.946 112.458C107.781 112.245 107.587 112.055 107.37 111.894C107.156 111.727 106.919 111.592 106.666 111.494C106.831 111.708 107.025 111.897 107.242 112.058C107.457 112.224 107.694 112.359 107.946 112.458Z" fill="white"/>
<path d="M103.425 100.623C92.95 108.655 83.9306 119.746 84.8385 123.222C85.7984 126.894 93.134 130.95 99.5816 131.729C100.902 131.889 104.893 122.178 103.537 121.73C102.481 121.394 97.6817 120.078 97.1018 119.426C96.7018 118.974 104.029 108.451 106.393 102.971C108.869 97.2556 106.229 98.4755 103.425 100.623Z" fill="#EB9481"/>
<path d="M100.814 121.485C100.814 121.485 104.846 121.849 107.469 122.213C108.933 122.417 111.413 122.989 112.421 123.629C113.925 124.589 119.621 129.565 118.441 130.969C117.377 132.241 115.733 130.257 115.733 130.257C115.733 130.257 117.733 132.257 116.289 133.193C114.845 134.129 112.941 131.349 112.941 131.349C112.941 131.349 115.213 133.321 113.577 134.177C112.153 134.917 109.629 131.941 109.629 131.941C109.629 131.941 112.241 133.749 110.857 134.653C109.333 135.648 104.986 131.661 104.986 131.661C101.542 132.061 99.4179 131.865 96.986 131.205C96.538 131.085 100.814 121.485 100.814 121.485Z" fill="#EB9481"/>
<path d="M113.553 132.009C113.397 131.797 113.233 131.589 113.073 131.377C112.775 130.956 112.449 130.555 112.097 130.177C111.753 129.809 111.393 129.461 111.017 129.125C110.641 128.789 110.193 128.449 109.817 128.081C109.814 128.078 109.811 128.076 109.807 128.075C109.804 128.074 109.8 128.073 109.796 128.073C109.792 128.073 109.788 128.074 109.785 128.076C109.781 128.078 109.778 128.08 109.775 128.083C109.773 128.086 109.771 128.089 109.769 128.093C109.768 128.097 109.767 128.1 109.768 128.104C109.768 128.108 109.769 128.112 109.77 128.116C109.772 128.119 109.774 128.122 109.777 128.125C110.162 128.483 110.525 128.864 110.865 129.265C111.213 129.645 111.553 130.029 111.897 130.413C112.241 130.797 112.589 131.137 112.933 131.505C113.105 131.685 113.269 131.877 113.433 132.065C113.577 132.255 113.736 132.433 113.909 132.597C113.929 132.597 113.949 132.597 113.941 132.569C113.831 132.369 113.701 132.181 113.553 132.009Z" fill="#263238"/>
<path d="M116.141 130.686C115.607 129.891 115.019 129.135 114.381 128.422C113.732 127.714 113.013 127.072 112.237 126.506C112.234 126.503 112.231 126.501 112.227 126.5C112.224 126.498 112.22 126.498 112.216 126.498C112.212 126.498 112.208 126.499 112.205 126.501C112.201 126.503 112.198 126.505 112.195 126.508C112.193 126.511 112.191 126.514 112.189 126.518C112.188 126.521 112.187 126.525 112.188 126.529C112.188 126.533 112.189 126.537 112.19 126.54C112.192 126.544 112.194 126.547 112.197 126.55C112.845 127.258 113.505 127.958 114.161 128.662C114.481 129.002 115.893 130.606 116.065 130.754C116.105 130.778 116.161 130.718 116.141 130.686Z" fill="#263238"/>
<path d="M111.152 133.325C110.635 132.589 110.07 131.887 109.46 131.225C108.776 130.608 108.047 130.041 107.28 129.529C107.252 129.529 107.216 129.553 107.24 129.573C107.92 130.193 108.612 130.797 109.24 131.445C109.56 131.765 110.748 133.101 111.076 133.377C111.083 133.387 111.094 133.394 111.106 133.396C111.118 133.399 111.13 133.396 111.14 133.389C111.15 133.382 111.157 133.372 111.159 133.36C111.162 133.348 111.159 133.335 111.152 133.325Z" fill="#263238"/>
<path d="M103.978 121.342L98.3384 132.121C98.3384 132.121 85.6312 128.765 84.5353 123.01C83.4393 117.254 97.9984 104.023 102.49 100.895C106.982 97.7671 109.722 97.3471 106.178 104.471C102.634 111.594 97.1505 118.922 97.5985 119.29C97.9784 119.598 103.978 121.342 103.978 121.342Z" fill="#FFC000"/>
<path d="M95.0338 113.486C94.9965 113.752 94.9965 114.021 95.0338 114.286C95.0673 114.555 95.1401 114.818 95.2498 115.066C95.2872 114.801 95.2872 114.532 95.2498 114.266C95.2126 113.998 95.14 113.736 95.0338 113.486Z" fill="white"/>
<path d="M96.6423 126.798C96.5791 127.342 96.6576 127.893 96.8703 128.398C96.9076 128.132 96.9076 127.863 96.8703 127.598C96.835 127.321 96.7581 127.052 96.6423 126.798Z" fill="white"/>
<path d="M90.0827 120.31C90.0454 120.575 90.0454 120.844 90.0827 121.11C90.1173 121.378 90.1914 121.639 90.3027 121.885C90.342 121.62 90.342 121.351 90.3027 121.086C90.2676 120.818 90.1934 120.556 90.0827 120.31Z" fill="white"/>
<path d="M103.166 109.931L103.142 109.971C103.14 109.944 103.14 109.917 103.142 109.891C103.152 109.903 103.16 109.916 103.166 109.931Z" fill="white"/>
<path d="M100.118 102.847C100.053 103.391 100.132 103.942 100.345 104.447C100.383 104.181 100.383 103.912 100.345 103.647C100.311 103.37 100.234 103.1 100.118 102.847Z" fill="white"/>
<path d="M102.189 121.758C102.083 121.51 102.01 121.249 101.973 120.982C101.973 120.902 101.965 120.822 101.949 120.742L102.153 120.802C102.153 120.85 102.173 120.902 102.181 120.95C102.222 121.218 102.225 121.49 102.189 121.758Z" fill="white"/>
<path d="M102.98 100.591C103.246 100.628 103.515 100.628 103.78 100.591C104.056 100.556 104.325 100.483 104.58 100.375C104.037 100.306 103.484 100.384 102.98 100.599V100.591Z" fill="white"/>
<path d="M89.7539 114.238C90.0193 114.275 90.2885 114.275 90.5539 114.238C90.8218 114.205 91.0834 114.132 91.3298 114.022C91.0645 113.985 90.7952 113.985 90.5299 114.022C90.2627 114.059 90.0016 114.131 89.7539 114.238Z" fill="white"/>
<path d="M95.3457 121.086C95.611 121.123 95.8803 121.123 96.1457 121.086C96.4149 121.053 96.6778 120.98 96.9256 120.87C96.6603 120.832 96.391 120.832 96.1257 120.87C95.8571 120.906 95.5947 120.979 95.3457 121.086Z" fill="white"/>
<path d="M92.0259 128.958C92.2912 128.995 92.5605 128.995 92.8258 128.958C93.0951 128.925 93.3579 128.852 93.6058 128.742C93.0617 128.677 92.5103 128.756 92.0059 128.97L92.0259 128.958Z" fill="white"/>
<path d="M85.9576 123.486C86.2229 123.523 86.4922 123.523 86.7576 123.486C87.0255 123.453 87.2871 123.38 87.5335 123.27C86.9894 123.206 86.438 123.284 85.9336 123.498L85.9576 123.486Z" fill="white"/>
<path d="M97.6938 107.315C97.9592 107.353 98.2285 107.353 98.4938 107.315C98.763 107.282 99.0259 107.209 99.2737 107.099C98.7297 107.035 98.1783 107.113 97.6738 107.327L97.6938 107.315Z" fill="white"/>
<path d="M107.261 101.522C107.044 101.687 106.853 101.883 106.693 102.102C106.527 102.316 106.393 102.551 106.293 102.802C106.508 102.639 106.698 102.445 106.857 102.226C107.024 102.012 107.16 101.775 107.261 101.522Z" fill="white"/>
<path d="M99.2784 110.834C99.0629 110.999 98.8729 111.194 98.7144 111.414C98.548 111.627 98.4133 111.863 98.3145 112.114C98.5307 111.952 98.7209 111.758 98.8784 111.538C99.0455 111.324 99.1803 111.087 99.2784 110.834Z" fill="white"/>
<path d="M99.2784 123.609C99.0629 123.774 98.8729 123.969 98.7144 124.189C98.548 124.402 98.4133 124.638 98.3145 124.889C98.5307 124.727 98.7209 124.533 98.8784 124.313C99.0455 124.1 99.1803 123.862 99.2784 123.609Z" fill="white"/>
<path d="M90.9542 125.333C90.5276 125.669 90.1954 126.11 89.9902 126.613C90.2066 126.449 90.3968 126.254 90.5542 126.033C90.7206 125.82 90.8553 125.584 90.9542 125.333Z" fill="white"/>
<path d="M92.9854 117.162C92.772 117.327 92.5823 117.521 92.4215 117.738C92.255 117.952 92.1203 118.189 92.0215 118.442C92.2358 118.278 92.4257 118.084 92.5855 117.866C92.7513 117.651 92.8859 117.414 92.9854 117.162Z" fill="white"/>
<path d="M98.7939 130.333C98.3692 130.67 98.0386 131.111 97.834 131.613C98.261 131.278 98.5921 130.837 98.7939 130.333Z" fill="white"/>
<path d="M98.7697 116.97L98.6777 117.122C98.5897 117.07 98.5057 117.01 98.4217 116.95C98.2039 116.79 98.01 116.6 97.8457 116.386C98.0963 116.486 98.3319 116.621 98.5457 116.786C98.6217 116.846 98.7017 116.906 98.7697 116.97Z" fill="white"/>
<path d="M87.7741 118.922C87.6087 118.709 87.4149 118.519 87.1981 118.358C86.9834 118.192 86.7465 118.058 86.4941 117.958C86.6584 118.172 86.8523 118.362 87.0701 118.522C87.2848 118.688 87.5217 118.822 87.7741 118.922Z" fill="white"/>
<path d="M94.7018 124.957C94.5375 124.743 94.3436 124.553 94.1258 124.393C93.9112 124.227 93.6742 124.093 93.4219 123.993C93.5876 124.208 93.7828 124.397 94.0018 124.557C94.2156 124.722 94.4512 124.857 94.7018 124.957Z" fill="white"/>
<path d="M104.485 106.063C104.319 105.844 104.123 105.65 103.901 105.487C103.687 105.32 103.45 105.185 103.197 105.087C103.36 105.302 103.555 105.492 103.773 105.651C103.989 105.822 104.229 105.961 104.485 106.063Z" fill="white"/>
<path d="M94.9948 110.502C94.6578 110.077 94.2169 109.747 93.7148 109.542C93.8791 109.756 94.0731 109.946 94.2908 110.106C94.5057 110.27 94.7427 110.404 94.9948 110.502Z" fill="white"/>
<path d="M96.5384 130.625C96.8063 130.269 98.7542 126.801 99.1622 126.037C99.5702 125.273 101.266 122.173 101.618 121.353C101.62 121.347 101.619 121.34 101.617 121.333C101.614 121.327 101.61 121.322 101.604 121.318C101.598 121.315 101.591 121.313 101.584 121.314C101.578 121.314 101.571 121.317 101.566 121.321C101.066 122.061 99.3462 125.185 98.9142 125.953C98.4822 126.721 96.6344 130.193 96.4824 130.601C96.4704 130.637 96.5184 130.649 96.5384 130.625Z" fill="#263238"/>
<path d="M104.044 121.305L103.78 121.745C103.816 121.697 103.96 121.369 103.96 121.369C102.241 120.969 100.529 120.541 98.8367 120.017C98.6247 119.949 98.4127 119.881 98.2008 119.801C97.9733 119.725 97.7558 119.621 97.5528 119.493C97.5356 119.48 97.5196 119.465 97.5048 119.449C97.4796 119.42 97.4594 119.386 97.4448 119.349C97.4299 119.288 97.4299 119.223 97.4448 119.161C97.4648 119.105 97.4888 119.041 97.5128 118.989C97.5368 118.937 97.6088 118.781 97.6568 118.681C97.7568 118.482 97.8648 118.282 97.9688 118.09C98.3927 117.29 98.8327 116.538 99.2847 115.774C100.201 114.254 101.113 112.734 102.061 111.242C102.956 109.826 103.888 108.226 104.828 106.842C104.884 106.758 105.028 106.682 104.856 106.986C103.992 108.534 103.212 109.87 102.32 111.386L99.6247 115.962C99.1767 116.726 98.7207 117.482 98.2928 118.254C98.1848 118.446 98.0768 118.653 97.9768 118.833C97.9248 118.929 97.8808 119.025 97.8328 119.121L97.7928 119.229L97.7648 119.209C97.7672 119.219 97.7672 119.228 97.7648 119.237C97.7648 119.237 97.7648 119.273 97.7648 119.261V119.233C97.9316 119.328 98.1054 119.41 98.2847 119.477L98.9007 119.705C99.7287 120.005 100.573 120.273 101.421 120.533L104.044 121.305Z" fill="#263238"/>
<path d="M97.793 119.234V119.262C97.793 119.262 97.793 119.242 97.793 119.238C97.7953 119.229 97.7953 119.219 97.793 119.21V119.234Z" fill="#263238"/>
<path d="M104.594 108.847C104.714 108.755 104.702 108.847 104.646 108.899C104.338 109.299 103.866 109.719 103.522 110.071C103.119 110.489 102.689 110.881 102.234 111.243C102.589 110.782 102.972 110.343 103.382 109.931C103.76 109.542 104.165 109.179 104.594 108.847Z" fill="#263238"/>
<path d="M111.501 102.543C110.125 102.943 107.645 100.943 106.625 99.2509C106.553 99.1349 106.677 97.883 106.753 96.3551C106.797 95.4311 106.825 94.3952 106.781 93.4512C106.781 93.2592 112.781 94.6152 112.781 94.6152C112.498 95.8128 112.364 97.0406 112.381 98.2709C112.388 98.4057 112.406 98.5395 112.437 98.6709C112.437 98.6709 112.437 98.7109 112.437 98.7349C112.597 99.4509 112.829 102.163 111.501 102.543Z" fill="#EB9481"/>
<path d="M107.148 93.459C107.496 95.0589 108.672 98.8547 111.836 98.7787C112.039 98.7764 112.241 98.7563 112.44 98.7187C112.443 98.6974 112.443 98.6759 112.44 98.6547C112.411 98.5229 112.391 98.3893 112.38 98.2547C112.364 97.0244 112.499 95.7967 112.78 94.5989C112.78 94.5989 108.444 93.635 107.148 93.459Z" fill="#263238"/>
<path d="M114.168 84.0039C114.168 84.0039 116.096 84.8039 116.452 86.7557C116.808 88.7076 116.364 90.7555 116.196 90.8635C116.028 90.9715 114.168 84.0039 114.168 84.0039Z" fill="#263238"/>
<path d="M106.062 86.4755C105.502 88.5993 106.862 94.627 108.386 95.9229C110.63 97.8028 114.182 97.8548 115.75 95.1869C117.269 92.6031 115.386 84.7876 113.67 83.6116C111.142 81.8877 106.89 83.3357 106.062 86.4755Z" fill="#EB9481"/>
<path d="M112.233 90.4434C112.233 90.4434 112.205 90.4714 112.209 90.4874C112.313 90.8873 112.361 91.3713 112.021 91.5833C112.021 91.5833 112.021 91.6113 112.021 91.6073C112.465 91.4473 112.393 90.8113 112.233 90.4434Z" fill="#263238"/>
<path d="M111.778 90.0998C111.114 90.1918 111.35 91.5158 111.966 91.4278C112.582 91.3398 112.338 90.0239 111.778 90.0998Z" fill="#263238"/>
<path d="M114.528 90.0518C114.528 90.0518 114.564 90.0518 114.564 90.0838C114.624 90.4837 114.764 90.9557 115.156 91.0277V91.0517C114.7 91.0877 114.516 90.4517 114.528 90.0518Z" fill="#263238"/>
<path d="M114.816 89.5597C115.468 89.3918 115.752 90.7037 115.152 90.8597C114.552 91.0157 114.272 89.6997 114.816 89.5597Z" fill="#263238"/>
<path d="M110.985 89.1593C111.162 89.1095 111.336 89.0494 111.505 88.9793C111.698 88.9411 111.873 88.8398 112.001 88.6914C112.032 88.6368 112.044 88.574 112.036 88.5121C112.028 88.4502 112 88.3925 111.957 88.3474C111.856 88.2724 111.737 88.2262 111.611 88.2135C111.486 88.2008 111.36 88.2222 111.245 88.2754C110.998 88.3439 110.786 88.5022 110.649 88.7193C110.622 88.7708 110.61 88.8291 110.614 88.8873C110.619 88.9455 110.64 89.0011 110.676 89.0476C110.711 89.094 110.759 89.1292 110.814 89.149C110.869 89.1688 110.928 89.1724 110.985 89.1593Z" fill="#263238"/>
<path d="M115.253 88.4878C115.07 88.4831 114.887 88.4684 114.705 88.4438C114.509 88.4554 114.315 88.402 114.153 88.2918C114.109 88.2474 114.081 88.1895 114.073 88.1273C114.065 88.0651 114.078 88.0019 114.109 87.9478C114.188 87.8501 114.291 87.7752 114.409 87.7309C114.526 87.6866 114.653 87.6745 114.777 87.6958C115.034 87.7022 115.28 87.8017 115.469 87.9758C115.509 88.0187 115.536 88.0723 115.547 88.1302C115.557 88.1881 115.55 88.2478 115.528 88.302C115.505 88.3562 115.467 88.4026 115.418 88.4356C115.369 88.4685 115.312 88.4867 115.253 88.4878Z" fill="#263238"/>
<path d="M112.222 94.371C112.329 94.4765 112.471 94.5403 112.622 94.551C112.773 94.519 112.917 94.4578 113.045 94.371C113.045 94.371 113.073 94.371 113.065 94.371C113.022 94.4621 112.954 94.5396 112.869 94.5953C112.785 94.6509 112.687 94.6826 112.586 94.687C112.495 94.6824 112.409 94.6504 112.338 94.5954C112.266 94.5404 112.213 94.4649 112.186 94.379C112.186 94.379 112.206 94.359 112.222 94.371Z" fill="#263238"/>
<path d="M112.437 93.0871C112.569 93.2314 112.73 93.3464 112.909 93.425C113.088 93.5035 113.282 93.5437 113.477 93.5431C113.647 93.5458 113.817 93.5242 113.981 93.4791L114.077 93.4511L114.165 93.4231C114.186 93.414 114.203 93.3987 114.215 93.3794C114.226 93.36 114.231 93.3376 114.229 93.3151C114.23 93.3018 114.23 93.2884 114.229 93.2751V93.2391C114.185 92.9231 114.069 92.4392 114.069 92.4392C114.193 92.4792 114.829 92.6392 114.789 92.4752C114.502 91.0537 114.07 89.6653 113.501 88.3314C113.496 88.3247 113.489 88.3198 113.481 88.3172C113.473 88.3147 113.465 88.3148 113.457 88.3175C113.449 88.3201 113.442 88.3252 113.437 88.332C113.432 88.3389 113.429 88.347 113.429 88.3554C113.689 89.6634 114.173 90.9193 114.457 92.2312C114.23 92.1699 113.996 92.1417 113.761 92.1472C113.721 92.1672 114.001 93.0591 114.009 93.2031C113.756 93.2747 113.49 93.2942 113.229 93.2605C112.968 93.2269 112.716 93.1407 112.489 93.0071C112.433 93.0071 112.405 93.0391 112.437 93.0871Z" fill="#263238"/>
<path d="M113.77 93.3316C113.637 93.5882 113.44 93.8059 113.198 93.9636C113.063 94.0444 112.906 94.082 112.75 94.0716C112.41 94.0436 112.35 93.7436 112.35 93.4756C112.359 93.3332 112.385 93.1924 112.426 93.0557C112.832 93.2905 113.304 93.3873 113.77 93.3316Z" fill="#263238"/>
<path d="M113.198 93.9631C113.063 94.0439 112.906 94.0815 112.75 94.0711C112.41 94.0431 112.35 93.7431 112.35 93.4751C112.525 93.4512 112.703 93.4861 112.857 93.5744C113.01 93.6627 113.13 93.7994 113.198 93.9631Z" fill="#FF98B9"/>
<path d="M106.853 92.1915C107.565 92.2875 108.005 90.1236 108.093 89.3077C108.173 88.5877 108.033 86.3638 108.041 86.2118C108.049 86.0599 111.309 87.6518 112.929 86.8718C114.549 86.0919 115.433 84.372 115.329 83.672C115.225 82.972 112.817 81.4961 110.969 81.7081C109.121 81.9201 107.037 84.6559 107.037 84.6559C107.278 84.2726 107.489 83.8714 107.669 83.456C107.625 83.376 106.521 84.048 106.445 84.9239C106.445 84.9239 106.501 83.828 106.409 83.824C106.317 83.82 105.549 84.8799 105.869 85.5279C105.869 85.5279 104.961 86.6278 105.033 87.6518C105.105 88.6757 106.021 92.0795 106.853 92.1915Z" fill="#263238"/>
<path d="M114.077 86.3115C113.62 86.67 113.11 86.9547 112.565 87.1555C111.947 87.3135 111.299 87.3135 110.681 87.1555C110.058 87.0271 109.461 86.796 108.913 86.4715C108.425 86.1915 107.977 85.8316 107.474 85.5956C107.346 85.5356 107.242 85.7236 107.33 85.8156C108.267 86.7587 109.483 87.3757 110.797 87.5755C111.408 87.6689 112.033 87.6018 112.61 87.3809C113.187 87.1601 113.697 86.7929 114.089 86.3155C114.089 86.3155 114.085 86.3075 114.077 86.3115Z" fill="#263238"/>
<path d="M107.544 91.3719C107.544 91.3719 106.06 89.4921 105.2 90.032C104.34 90.572 105.536 93.3558 106.6 93.6838C106.735 93.735 106.878 93.7585 107.021 93.753C107.165 93.7475 107.306 93.7131 107.436 93.6519C107.566 93.5906 107.682 93.5038 107.778 93.3966C107.873 93.2894 107.946 93.1639 107.992 93.0279L107.544 91.3719Z" fill="#EB9481"/>
<path d="M105.561 90.8193C105.561 90.8193 105.561 90.8433 105.561 90.8473C106.313 91.1033 106.736 91.7593 107.048 92.4472C107.001 92.3764 106.94 92.3165 106.867 92.2719C106.795 92.2272 106.714 92.1987 106.629 92.1885C106.545 92.1782 106.459 92.1864 106.378 92.2124C106.297 92.2384 106.223 92.2817 106.161 92.3393C106.161 92.3393 106.161 92.3832 106.185 92.3752C106.311 92.3273 106.449 92.3196 106.58 92.3532C106.711 92.3869 106.829 92.4602 106.916 92.5632C107.062 92.7357 107.188 92.9235 107.292 93.1232C107.332 93.1872 107.448 93.1472 107.42 93.0712C107.372 92.1193 106.568 90.8553 105.561 90.8193Z" fill="#263238"/>
<path d="M105.901 99.6952C106.557 100.494 107.256 101.255 107.997 101.975C108.677 102.68 109.566 103.146 110.533 103.303C111.473 103.387 112.413 103.195 112.757 102.047C113.001 101.059 113.024 100.029 112.825 99.0312C112.823 99.0258 112.822 99.02 112.823 99.0143C112.824 99.0086 112.826 99.0032 112.829 98.9985C112.833 98.9939 112.837 98.99 112.842 98.9874C112.847 98.9848 112.853 98.9834 112.859 98.9834C112.865 98.9834 112.87 98.9848 112.875 98.9874C112.88 98.99 112.885 98.9939 112.888 98.9985C112.891 99.0032 112.894 99.0086 112.894 99.0143C112.895 99.02 112.895 99.0258 112.893 99.0312C113.109 100.531 113.333 102.859 111.969 103.379C110.441 103.963 108.941 103.175 107.865 102.119C107.112 101.395 106.441 100.59 105.865 99.7192C105.877 99.6992 105.901 99.6792 105.901 99.6952Z" fill="#263238"/>
</svg>
