<svg width="249" height="204" viewBox="0 0 249 204" fill="none" xmlns="http://www.w3.org/2000/svg">
<path d="M47.1508 185.276C93.2864 209.376 168.081 209.376 214.211 185.276C260.341 161.175 260.347 122.104 214.211 98.0039C168.076 73.9037 93.2864 73.9037 47.1508 98.0039C1.01515 122.104 1.00414 161.175 47.1508 185.276Z" fill="#F5F5F5"/>
<path d="M171.254 185.49C178.192 188.794 189.424 188.794 196.373 185.49C203.322 182.186 203.311 176.823 196.373 173.52C189.435 170.216 178.203 170.216 171.254 173.52C164.305 176.823 164.322 182.186 171.254 185.49Z" fill="#E0E0E0"/>
<path d="M26.0073 106.307C26.0073 106.307 26.0844 97.4585 21.5143 92.0791C16.9443 86.6996 11.4217 87.6742 9.45047 88.6983C7.47929 89.7225 6.14681 92.5526 9.54958 94.6229C12.9524 96.6932 20.1378 100.779 21.3326 104.44L26.0073 106.307Z" fill="#FFC000"/>
<path d="M11.5215 89.6836C14.4672 90.5536 22.9136 95.2723 23.8772 104.159" stroke="white" stroke-miterlimit="10" stroke-linecap="round"/>
<path d="M22.187 102.348C21.0417 99.7432 19.7478 98.5704 16.0257 99.1925C12.3036 99.8147 12.8542 99.7432 8.27861 98.5538C3.70304 97.3645 0.570067 99.2696 0.212171 101.026C-0.151232 102.937 3.5764 103.779 6.36248 105.018C9.14857 106.257 11.0537 107.843 10.3874 110.348C9.83683 112.495 10.1782 114.312 13.4874 115.089C16.4276 115.782 19.5441 114.087 20.7775 116.9C21.4712 118.502 24.2188 120.253 26.7461 118.756C31.1179 114.351 29.89 108.999 27.0819 105.469C25.8431 103.906 22.8753 103.911 22.187 102.348Z" fill="#FFC000"/>
<path opacity="0.2" d="M22.187 102.348C21.0417 99.7432 19.7478 98.5704 16.0257 99.1925C12.3036 99.8147 12.8542 99.7432 8.27861 98.5538C3.70304 97.3645 0.570067 99.2696 0.212171 101.026C-0.151232 102.937 3.5764 103.779 6.36248 105.018C9.14857 106.257 11.0537 107.843 10.3874 110.348C9.83683 112.495 10.1782 114.312 13.4874 115.089C16.4276 115.782 19.5441 114.087 20.7775 116.9C21.4712 118.502 24.2188 120.253 26.7461 118.756C31.1179 114.351 29.89 108.999 27.0819 105.469C25.8431 103.906 22.8753 103.911 22.187 102.348Z" fill="black"/>
<path d="M3.57617 100.052C8.34996 100.393 22.3244 106.108 25.8869 113.911" stroke="white" stroke-miterlimit="10" stroke-linecap="round"/>
<path d="M13.7188 110.662C15.6872 109.031 18.0886 108.009 20.6289 107.722" stroke="white" stroke-miterlimit="10" stroke-linecap="round"/>
<path d="M69.7259 190.033C68.1292 190.952 64.6988 191.101 63.906 188.326C63.1131 185.551 63.2893 184.163 61.1529 183.684C59.0166 183.205 55.0136 185.27 53.4444 182.17C51.8751 179.07 55.0962 177.484 53.1195 175.788C51.1428 174.093 47.5253 172.232 49.3258 170.029C51.1263 167.827 53.4719 168.438 55.4651 169.198C57.5519 169.985 60.729 169.357 63.4655 169.545C66.202 169.732 66.8187 171.879 66.8848 173.547C66.9508 175.216 67.9144 177.132 70.2931 176.702L69.7259 190.033Z" fill="#FFC000"/>
<path d="M51.5957 170.485C58.0323 171.251 67.244 178.805 69.9971 183.876" stroke="white" stroke-miterlimit="10" stroke-linecap="round"/>
<path d="M64.0563 171.647C64.0563 171.647 64.0948 175.573 63.4727 176.603" stroke="white" stroke-miterlimit="10" stroke-linecap="round"/>
<path d="M55.9238 179.775C55.9238 179.775 60.5435 179.015 64.9043 177.831" stroke="white" stroke-miterlimit="10" stroke-linecap="round"/>
<path d="M199 85.7798C202.094 85.7798 203.405 84.9043 204.181 82.8946C204.957 80.8849 204.66 78.8366 207.182 78.0437C209.704 77.2509 211.207 77.7464 212.462 75.2411C213.718 72.7359 210.491 69.6855 212.044 67.9456C213.596 66.2056 217.192 64.4822 216.449 62.3293C215.97 60.8757 214.444 60.3416 213.029 60.4242C212.124 60.5464 211.269 60.9139 210.557 61.4869C209.782 62.0161 208.869 62.3053 207.931 62.3183C207.012 62.3689 206.091 62.3394 205.178 62.2302C204.541 62.1413 203.891 62.2132 203.289 62.4395C202.243 62.9185 201.769 64.2014 201.89 65.3412C202.045 66.2024 202.045 67.0843 201.89 67.9456C201.599 69.2395 199.919 69.5974 198.994 70.561C196.852 72.7634 198.4 76.6562 198.609 79.3707C198.763 81.2208 198.857 83.9463 199 85.7798Z" fill="#FFC000"/>
<path d="M214.217 62.3291C211.651 63.0174 201.592 71.4582 199.549 80.2404" stroke="white" stroke-miterlimit="10" stroke-linecap="round"/>
<path d="M204.588 64.1572C204.588 64.1572 206.102 66.657 206.047 68.7823" stroke="white" stroke-miterlimit="10" stroke-linecap="round"/>
<path d="M210.176 73.76C210.176 73.76 205.523 72.2183 202.264 73.8921" stroke="white" stroke-miterlimit="10" stroke-linecap="round"/>
<path d="M84.1255 82.9934L80.6016 82.6465V5.03809L84.1255 5.37947V82.9934Z" fill="#E0E0E0"/>
<path d="M71.2513 32.7287L57.8495 64.7797L49.0397 57.6603C48.7246 57.4065 48.3219 57.2877 47.9195 57.33C47.5171 57.3723 47.1478 57.5722 46.8924 57.886C46.8148 57.9869 46.7483 58.0958 46.6941 58.2109L26.8281 101.797V107.667C26.8281 108.371 27.3237 108.658 27.9293 108.305L35.7095 103.812L79.4995 78.5339C79.8193 78.3233 80.0854 78.0409 80.2766 77.7091C80.4678 77.3774 80.5788 77.0056 80.6007 76.6233V42.1L73.9163 32.4534C73.6869 32.1206 73.3347 31.8925 72.9373 31.8192C72.5398 31.7459 72.1295 31.8334 71.7964 32.0624C71.5528 32.2256 71.3631 32.4575 71.2513 32.7287Z" fill="#E0E0E0"/>
<path d="M30.9629 38.5486V53.6078C32.6533 54.2244 34.8172 53.9326 37.1683 52.5726C42.5918 49.4396 46.9911 41.8247 46.9911 35.5588C46.9911 32.6626 46.0551 30.5702 44.5079 29.458L32.0641 36.6159C31.7402 36.8274 31.4713 37.113 31.2798 37.4491C31.0883 37.7852 30.9796 38.1621 30.9629 38.5486Z" fill="#E0E0E0"/>
<path d="M77.485 34.2979L73.416 31.9854V36.649L77.485 34.2979Z" fill="#E0E0E0"/>
<path d="M52.9496 59.8518L48.82 57.5117L48.7539 62.1479L52.9496 59.8518Z" fill="#E0E0E0"/>
<path d="M86.7961 3.74459C86.8018 3.69889 86.8018 3.65264 86.7961 3.60694C86.7348 3.28398 86.6091 2.97666 86.4265 2.70329C86.2439 2.42991 86.0082 2.19607 85.7334 2.01568L83.7953 0.914458C83.4541 0.740873 83.0768 0.650391 82.694 0.650391C82.3113 0.650391 81.934 0.740873 81.5928 0.914458L25.8821 33.0536C25.5548 33.2588 25.2841 33.5427 25.0947 33.8795C24.8955 34.213 24.7855 34.5923 24.7754 34.9807V118.393C24.7973 118.775 24.9083 119.147 25.0995 119.478C25.2907 119.81 25.5568 120.093 25.8766 120.303L27.8037 121.404C28.1034 121.556 28.431 121.645 28.7663 121.665C29.1016 121.685 29.4374 121.635 29.7529 121.52L29.83 121.493L30.0117 121.404L54.5138 107.303L85.7279 89.2873C86.0483 89.0774 86.3149 88.7951 86.5062 88.4633C86.6975 88.1314 86.8081 87.7592 86.8291 87.3767V3.92079C86.8086 3.86426 86.7974 3.80473 86.7961 3.74459ZM84.1256 79.3323C84.1037 79.7146 83.9928 80.0864 83.8016 80.4182C83.6103 80.7499 83.3442 81.0324 83.0244 81.2429L54.5414 97.6952L32.0655 110.668C31.4598 111.02 30.9642 110.734 30.9642 110.029V38.5486C30.9861 38.1664 31.0971 37.7945 31.2883 37.4628C31.4795 37.131 31.7457 36.8486 32.0655 36.638L83.0189 7.21344C83.6301 6.85554 84.1201 7.14186 84.1201 7.84664L84.1256 79.3323Z" fill="#F5F5F5"/>
<path d="M54.5407 97.6956C54.5407 101.071 54.5076 104.303 54.4911 107.276L30 121.427L29.8183 121.515L29.7412 121.542C29.4257 121.658 29.0899 121.707 28.7546 121.687C28.4193 121.667 28.0916 121.579 27.792 121.427L25.8649 120.326C25.5451 120.115 25.279 119.833 25.0878 119.501C24.8966 119.169 24.7856 118.797 24.7637 118.415V34.9811C24.7738 34.5927 24.8838 34.2135 25.083 33.8799L29.2181 36.275L31.2939 37.4699C31.0902 37.8018 30.9781 38.1817 30.969 38.5711V110.057C30.969 110.762 31.4646 111.048 32.0703 110.695L54.5407 97.6956Z" fill="#E0E0E0"/>
<path d="M75.3877 35.074L61.9859 67.1085L53.1761 59.9891C53.0199 59.8622 52.8401 59.7674 52.647 59.7103C52.454 59.6532 52.2516 59.6349 52.0515 59.6564C51.8514 59.6779 51.6575 59.7388 51.481 59.8356C51.3045 59.9324 51.1489 60.0631 51.0232 60.2203C50.9445 60.3184 50.8779 60.4256 50.825 60.5397L30.959 104.137V115.562C30.959 116.261 31.4545 116.548 32.0602 116.195L39.8403 111.708L83.0247 86.7652C83.3445 86.5547 83.6106 86.2722 83.8018 85.9405C83.993 85.6087 84.104 85.2369 84.1259 84.8546V44.7812L78.0692 34.7932C77.8413 34.4574 77.4894 34.2259 77.0908 34.1495C76.6923 34.073 76.2797 34.158 75.9438 34.3857C75.6954 34.5561 75.5021 34.7953 75.3877 35.074Z" fill="#F5F5F5"/>
<path d="M86.7951 3.74418C86.8008 3.69848 86.8008 3.65223 86.7951 3.60653C86.6629 3.14402 86.2445 2.98985 85.7324 3.28718L29.9997 35.4483C29.6758 35.6546 29.4066 35.936 29.2149 36.2686C29.0231 36.6013 28.9146 36.9753 28.8984 37.3589V120.776C28.8984 121.376 29.2618 121.674 29.7409 121.531H29.818L29.9997 121.443L54.5128 107.303L85.7269 89.2869C86.0473 89.077 86.3139 88.7947 86.5052 88.4628C86.6964 88.131 86.8071 87.7588 86.8281 87.3763V3.92038C86.8075 3.86384 86.7964 3.80432 86.7951 3.74418ZM84.1246 84.838C84.1027 85.2203 83.9917 85.5921 83.8005 85.9239C83.6093 86.2556 83.3432 86.538 83.0234 86.7486L54.5403 103.201L32.0644 116.173C31.4588 116.526 30.9632 116.239 30.9632 115.535V38.5482C30.9851 38.166 31.0961 37.7941 31.2873 37.4624C31.4785 37.1306 31.7446 36.8482 32.0644 36.6376L83.0179 7.21303C83.6291 6.85513 84.1191 7.14145 84.1191 7.84623L84.1246 84.838Z" fill="#F0F0F0"/>
<path d="M98.6118 91.3518L95.0879 91.0049V13.3965L98.6118 13.7379V91.3518Z" fill="#E0E0E0"/>
<path d="M85.7377 41.0874L72.3358 73.1659L63.5261 66.0465C63.2103 65.7933 62.8071 65.6755 62.4046 65.7189C62.0022 65.7622 61.6333 65.9632 61.3787 66.2778C61.3012 66.3767 61.2347 66.4838 61.1805 66.5972L41.3145 110.15V116.02C41.3145 116.725 41.81 117.011 42.4157 116.659L50.1958 112.166L93.9858 86.8871C94.3062 86.6772 94.5728 86.3949 94.7641 86.063C94.9554 85.7312 95.066 85.359 95.087 84.9765V50.4533L88.4026 40.8066C88.247 40.5807 88.0334 40.4009 87.7842 40.2862C87.535 40.1715 87.2595 40.1261 86.9867 40.1549C86.7139 40.1836 86.4539 40.2854 86.234 40.4495C86.0142 40.6136 85.8427 40.834 85.7377 41.0874Z" fill="#E0E0E0"/>
<path d="M45.4492 46.907V61.9662C47.1396 62.5828 49.3035 62.291 51.6546 60.931C57.0616 57.798 61.4665 50.1831 61.4665 43.9172C61.4665 41.021 60.5304 38.9286 58.9832 37.8164L46.5394 44.9743C46.2185 45.188 45.9524 45.4744 45.763 45.8102C45.5736 46.146 45.4661 46.5218 45.4492 46.907Z" fill="#E0E0E0"/>
<path d="M91.9714 42.6563L87.9023 40.3438V45.0074L91.9714 42.6563Z" fill="#E0E0E0"/>
<path d="M67.4359 68.2102L63.3063 65.8701L63.2402 70.5063L67.4359 68.2102Z" fill="#E0E0E0"/>
<path d="M101.277 12.1025C101.283 12.0567 101.283 12.0105 101.277 11.9648C101.212 11.6462 101.084 11.3436 100.902 11.0743C100.72 10.805 100.486 10.5744 100.214 10.3956L98.2761 9.29434C97.935 9.12076 97.5576 9.03027 97.1749 9.03027C96.7921 9.03027 96.4148 9.12076 96.0737 9.29434L40.3684 41.4114C40.0423 41.6181 39.7719 41.9017 39.5811 42.2373C39.3834 42.5716 39.2736 42.9504 39.2617 43.3386V126.75C39.2828 127.133 39.3934 127.505 39.5847 127.837C39.7759 128.169 40.0425 128.451 40.3629 128.661L42.2901 129.762C42.5893 129.915 42.917 130.005 43.2525 130.025C43.588 130.045 43.924 129.995 44.2392 129.878L44.3163 129.85L44.498 129.762L69.0002 115.634L100.214 97.6177C100.535 97.4077 100.801 97.1255 100.993 96.7936C101.184 96.4617 101.294 96.0895 101.315 95.7071V12.2786C101.293 12.2224 101.28 12.1629 101.277 12.1025ZM98.612 87.6902C98.5909 88.0726 98.4803 88.4448 98.289 88.7767C98.0977 89.1086 97.8312 89.3909 97.5107 89.6008L69.0277 106.053L46.5518 119.025C45.9461 119.378 45.4506 119.091 45.4506 118.387V46.9065C45.4729 46.5243 45.5841 46.1526 45.7752 45.821C45.9664 45.4893 46.2323 45.2068 46.5518 44.9959L97.5052 15.5713C98.1164 15.2134 98.6065 15.4997 98.6065 16.2045L98.612 87.6902Z" fill="#F5F5F5"/>
<path d="M69.027 106.053C69.027 109.428 68.9939 112.66 68.9774 115.634L44.4863 129.784L44.3046 129.872L44.2275 129.9C43.9123 130.017 43.5763 130.067 43.2408 130.047C42.9053 130.027 42.5776 129.937 42.2784 129.784L40.3512 128.683C40.0308 128.473 39.7642 128.191 39.5729 127.859C39.3817 127.527 39.271 127.155 39.25 126.772V43.3385C39.2618 42.9504 39.3717 42.5716 39.5694 42.2373L43.7044 44.6269L45.7802 45.8218C45.5784 46.1545 45.4664 46.534 45.4554 46.923V118.387C45.4554 119.091 45.9509 119.378 46.5566 119.025L69.027 106.053Z" fill="#E0E0E0"/>
<path d="M89.874 43.4325L76.4722 75.4835L67.6624 68.3641C67.3457 68.1106 66.9416 67.9926 66.5383 68.036C66.135 68.0793 65.7651 68.2804 65.5095 68.5954C65.4332 68.6951 65.3668 68.8021 65.3113 68.9147L45.4453 112.496V123.893C45.4453 124.592 45.9409 124.879 46.5465 124.526L54.3101 120.039L97.4945 95.0962C97.8149 94.8863 98.0815 94.604 98.2727 94.2722C98.464 93.9403 98.5746 93.5681 98.5957 93.1856V53.1398L92.539 43.1517C92.3102 42.8168 91.9579 42.5864 91.5594 42.511C91.161 42.4357 90.7489 42.5215 90.4136 42.7497C90.1728 42.9217 89.9857 43.1585 89.874 43.4325Z" fill="#F5F5F5"/>
<path d="M101.276 12.1026C101.282 12.0569 101.282 12.0106 101.276 11.9649C101.144 11.5024 100.725 11.3482 100.213 11.6456L44.486 43.8067C44.1631 44.014 43.8946 44.2957 43.703 44.6281C43.5114 44.9605 43.4023 45.334 43.3848 45.7173V129.135C43.3848 129.735 43.7482 130.032 44.2272 129.889H44.3043L44.486 129.801L68.9991 115.661L100.213 97.6453C100.534 97.4354 100.8 97.1531 100.991 96.8212C101.183 96.4894 101.293 96.1172 101.314 95.7347V12.2788C101.292 12.2226 101.279 12.163 101.276 12.1026ZM98.6109 93.1964C98.5899 93.5789 98.4793 93.9511 98.288 94.2829C98.0967 94.6148 97.8301 94.8971 97.5097 95.107L69.0267 111.559L46.5508 124.532C45.9451 124.884 45.4496 124.598 45.4496 123.893V46.9066C45.4719 46.5245 45.583 46.1528 45.7742 45.8211C45.9654 45.4894 46.2313 45.2069 46.5508 44.996L97.5042 15.5714C98.1154 15.2135 98.6054 15.4998 98.6054 16.2046L98.6109 93.1964Z" fill="#F0F0F0"/>
<path d="M113.104 99.7053L109.58 99.3585V21.75L113.104 22.0914V99.7053Z" fill="#263238"/>
<path d="M100.23 49.4399L86.828 81.4909L78.0182 74.3716C77.7031 74.1177 77.3004 73.999 76.898 74.0413C76.4956 74.0836 76.1263 74.2835 75.8709 74.5973C75.7933 74.6981 75.7268 74.8071 75.6726 74.9222L55.8066 118.503V124.372C55.8066 125.077 56.3022 125.364 56.9079 125.011L64.688 120.518L108.478 95.2397C108.798 95.0297 109.065 94.7475 109.256 94.4156C109.448 94.0837 109.558 93.7115 109.579 93.329V58.8058L102.895 49.1591C102.739 48.9332 102.526 48.7534 102.276 48.6387C102.027 48.524 101.752 48.4787 101.479 48.5074C101.206 48.5362 100.946 48.638 100.726 48.8021C100.506 48.9662 100.335 49.1865 100.23 49.4399Z" fill="#FFC000"/>
<path d="M59.9414 55.2595V70.3187C61.6318 70.9354 63.7957 70.6436 66.1468 69.2835C71.5703 66.1506 75.9697 58.5356 75.9697 52.2697C75.9697 49.3735 75.0336 47.2812 73.4864 46.1689L61.0426 53.3269C60.719 53.5386 60.4504 53.8243 60.2589 54.1604C60.0674 54.4964 59.9586 54.8731 59.9414 55.2595Z" fill="#FFC000"/>
<path opacity="0.5" d="M100.23 49.4399L86.828 81.4909L78.0182 74.3716C77.7031 74.1177 77.3004 73.999 76.898 74.0413C76.4956 74.0836 76.1263 74.2835 75.8709 74.5973C75.7933 74.6981 75.7268 74.8071 75.6726 74.9222L55.8066 118.503V124.372C55.8066 125.077 56.3022 125.364 56.9079 125.011L64.688 120.518L108.478 95.2397C108.798 95.0297 109.065 94.7475 109.256 94.4156C109.448 94.0837 109.558 93.7115 109.579 93.329V58.8058L102.895 49.1591C102.739 48.9332 102.526 48.7534 102.276 48.6387C102.027 48.524 101.752 48.4787 101.479 48.5074C101.206 48.5362 100.946 48.638 100.726 48.8021C100.506 48.9662 100.335 49.1865 100.23 49.4399Z" fill="white"/>
<path d="M106.464 51.0088L102.395 48.6963V53.36L106.464 51.0088Z" fill="#FFC000"/>
<path d="M81.9281 76.5627L77.7985 74.2227L77.7324 78.8588L81.9281 76.5627Z" fill="#FFC000"/>
<path opacity="0.5" d="M106.464 51.0088L102.395 48.6963V53.36L106.464 51.0088Z" fill="white"/>
<path opacity="0.5" d="M81.9281 76.5627L77.7985 74.2227L77.7324 78.8588L81.9281 76.5627Z" fill="white"/>
<path d="M115.769 20.4555C115.775 20.4098 115.775 20.3636 115.769 20.3179C115.707 19.9953 115.58 19.6885 115.398 19.4153C115.215 19.142 114.98 18.9079 114.706 18.7266L112.768 17.6254C112.427 17.4518 112.05 17.3613 111.667 17.3613C111.284 17.3613 110.907 17.4518 110.566 17.6254L54.8606 49.7645C54.5333 49.9697 54.2626 50.2537 54.0733 50.5904C53.8749 50.9244 53.765 51.3034 53.7539 51.6916V135.104C53.7749 135.486 53.8856 135.858 54.0768 136.19C54.2681 136.522 54.5347 136.804 54.8551 137.014L56.7823 138.115C57.0819 138.267 57.4095 138.356 57.7448 138.376C58.0801 138.396 58.4159 138.346 58.7314 138.231L58.8085 138.203L58.9902 138.115L83.4923 123.987L114.706 105.971C115.027 105.761 115.293 105.479 115.485 105.147C115.676 104.815 115.787 104.443 115.808 104.06V20.6317C115.785 20.5755 115.772 20.516 115.769 20.4555ZM113.104 96.0433C113.083 96.4257 112.972 96.7979 112.781 97.1298C112.59 97.4617 112.323 97.7439 112.003 97.9539L83.5199 114.406L61.044 127.378C60.4383 127.731 59.9428 127.445 59.9428 126.74V55.2596C59.9647 54.8773 60.0756 54.5055 60.2668 54.1737C60.458 53.842 60.7242 53.5595 61.044 53.349L111.997 23.9244C112.609 23.5665 113.099 23.8528 113.099 24.5576L113.104 96.0433Z" fill="#455A64"/>
<path d="M83.5192 114.407C83.5192 117.782 83.4861 121.014 83.4696 123.987L58.9785 138.138L58.7968 138.226H58.7197C58.4042 138.341 58.0684 138.391 57.7331 138.371C57.3978 138.351 57.0702 138.262 56.7705 138.11L54.8434 137.009C54.523 136.799 54.2564 136.517 54.0651 136.185C53.8738 135.853 53.7632 135.481 53.7422 135.098V51.692C53.7533 51.3038 53.8632 50.9248 54.0615 50.5908L58.1966 52.9805L60.2724 54.1753C60.0687 54.5072 59.9566 54.8872 59.9476 55.2765V126.74C59.9476 127.445 60.4431 127.731 61.0488 127.379L83.5192 114.407Z" fill="#263238"/>
<path opacity="0.7" d="M59.9414 55.2595V70.3187C61.6318 70.9354 63.7957 70.6436 66.1468 69.2835C71.5703 66.1506 75.9697 58.5356 75.9697 52.2697C75.9697 49.3735 75.0336 47.2812 73.4864 46.1689L61.0426 53.3269C60.719 53.5386 60.4504 53.8243 60.2589 54.1604C60.0674 54.4964 59.9586 54.8731 59.9414 55.2595Z" fill="white"/>
<path d="M104.366 51.7849L90.9644 83.8359L82.1546 76.7165C81.9981 76.5903 81.8182 76.4962 81.6253 76.4395C81.4324 76.3828 81.2302 76.3647 81.0303 76.3861C80.8303 76.4076 80.6366 76.4683 80.4601 76.5646C80.2836 76.661 80.1279 76.7912 80.0017 76.9478C79.9242 77.0467 79.8577 77.1538 79.8035 77.2672L59.9375 120.848V132.246C59.9375 132.945 60.433 133.231 61.0387 132.879L68.8188 128.391L112.003 103.449C112.323 103.238 112.589 102.956 112.78 102.624C112.972 102.292 113.082 101.92 113.104 101.538V61.4922L107.048 51.5041C106.892 51.2756 106.677 51.0934 106.427 50.9771C106.176 50.8607 105.898 50.8145 105.623 50.8433C105.348 50.8721 105.086 50.9748 104.865 51.1406C104.643 51.3064 104.471 51.5291 104.366 51.7849Z" fill="#FFC000"/>
<path d="M115.768 20.4551C115.774 20.4094 115.774 20.3632 115.768 20.3175C115.636 19.855 115.217 19.7008 114.705 19.9981L58.9782 52.1592C58.655 52.3662 58.3862 52.6478 58.1946 52.9803C58.003 53.3128 57.894 53.6865 57.877 54.0699V137.487C57.877 138.087 58.2404 138.385 58.7194 138.242L58.7965 138.214L58.9782 138.126L83.4913 123.986L114.705 105.97C115.026 105.76 115.292 105.478 115.484 105.146C115.675 104.814 115.786 104.442 115.807 104.06V20.6313C115.784 20.5751 115.771 20.5156 115.768 20.4551ZM113.103 101.549C113.082 101.931 112.971 102.304 112.78 102.635C112.589 102.967 112.322 103.25 112.002 103.46L83.5189 119.912L61.043 132.884C60.4373 133.237 59.9417 132.95 59.9417 132.245V55.2592C59.9636 54.8769 60.0746 54.505 60.2658 54.1733C60.457 53.8416 60.7232 53.5591 61.043 53.3485L111.996 23.924C112.608 23.5661 113.098 23.8524 113.098 24.5572L113.103 101.549Z" fill="#37474F"/>
<path d="M73.0295 154.529V190.445C73.0295 191.353 73.5802 191.772 74.3455 191.491C73.8792 191.675 73.3793 191.759 72.8784 191.738C72.3775 191.716 71.8868 191.589 71.4383 191.364L70.1443 190.616C69.6826 190.313 69.2985 189.906 69.023 189.428C68.7476 188.95 68.5885 188.414 68.5586 187.862V151.946C68.5802 151.393 68.7391 150.854 69.0211 150.377L73.4976 152.959C73.209 153.433 73.0478 153.974 73.0295 154.529Z" fill="#263238"/>
<path d="M134.037 112.286C134.529 112.036 135.074 111.906 135.626 111.906C136.178 111.906 136.722 112.036 137.214 112.286L138.514 113.035C138.932 113.311 139.288 113.672 139.558 114.096C139.827 114.519 140.004 114.994 140.077 115.49C139.951 114.698 139.295 114.417 138.514 114.868L74.5933 151.759C74.1322 152.054 73.7533 152.462 73.4921 152.943L69.0156 150.361C69.2803 149.882 69.6584 149.475 70.1168 149.177L134.037 112.286Z" fill="#455A64"/>
<path d="M73.0293 154.529V190.445C73.0293 191.458 73.7396 191.871 74.6206 191.365L138.541 154.474C139.003 154.171 139.387 153.765 139.662 153.286C139.938 152.808 140.097 152.272 140.127 151.721V115.788C140.127 114.775 139.416 114.367 138.541 114.874L74.6206 151.765C74.1554 152.067 73.7686 152.475 73.492 152.955C73.2153 153.436 73.0568 153.975 73.0293 154.529Z" fill="#37474F"/>
<path d="M130.199 121.393C130.75 121.085 131.152 121.333 131.152 121.944V155.895C131.134 156.226 131.039 156.548 130.873 156.835C130.708 157.122 130.477 157.366 130.199 157.546L82.9018 184.857C82.3512 185.16 81.9492 184.912 81.9492 184.306V150.35C81.9667 150.019 82.062 149.697 82.2276 149.41C82.3931 149.123 82.6241 148.879 82.9018 148.698L130.199 121.393Z" fill="#F5F5F5"/>
<path d="M75.4238 171.091C75.4348 170.898 75.4902 170.71 75.5857 170.542C75.6812 170.374 75.8142 170.23 75.9744 170.122C76.2828 169.946 76.525 170.089 76.525 170.447C76.5141 170.64 76.4587 170.828 76.3632 170.996C76.2677 171.164 76.1346 171.308 75.9744 171.416C75.6771 171.592 75.4238 171.449 75.4238 171.091Z" fill="#263238"/>
<path d="M133.426 137.587C133.462 136.816 133.68 136.064 134.063 135.394C134.446 134.724 134.982 134.155 135.628 133.732C136.845 133.027 137.831 133.6 137.831 135.01C137.789 135.775 137.568 136.519 137.185 137.183C136.803 137.847 136.269 138.411 135.628 138.831C134.411 139.585 133.426 139.013 133.426 137.587Z" fill="#263238"/>
<path d="M77.7051 163.68C77.724 163.293 77.8336 162.917 78.0248 162.58C78.2161 162.243 78.4838 161.956 78.8063 161.742C79.423 161.384 79.9075 161.676 79.9075 162.386C79.8886 162.773 79.779 163.15 79.5877 163.486C79.3965 163.823 79.1288 164.11 78.8063 164.324C78.2061 164.682 77.7051 164.39 77.7051 163.68Z" fill="#263238"/>
<path d="M78.866 166.168C79.2735 165.926 79.6093 166.168 79.6093 166.653V175.149C79.5981 175.416 79.5252 175.677 79.3962 175.911C79.2672 176.145 79.0857 176.346 78.866 176.498C78.4531 176.734 78.1172 176.498 78.1172 176.008V167.517C78.1255 167.249 78.1979 166.987 78.3281 166.752C78.4584 166.517 78.6428 166.317 78.866 166.168Z" fill="#263238"/>
<path d="M81.9492 150.349V157.705C82.9734 158.421 84.449 158.394 86.0898 157.441C89.1787 155.663 91.684 151.324 91.684 147.756C91.684 146.187 91.194 145.003 90.3901 144.375L82.9018 148.697C82.6238 148.878 82.3926 149.122 82.227 149.409C82.0614 149.696 81.9662 150.018 81.9492 150.349Z" fill="#FFC000"/>
<path opacity="0.7" d="M81.9492 150.349V157.705C82.9734 158.421 84.449 158.394 86.0898 157.441C89.1787 155.663 91.684 151.324 91.684 147.756C91.684 146.187 91.194 145.003 90.3901 144.375L82.9018 148.697C82.6238 148.878 82.3926 149.122 82.227 149.409C82.0614 149.696 81.9662 150.018 81.9492 150.349Z" fill="white"/>
<path d="M131.152 143.764L123.085 133.969C123.032 133.877 122.962 133.797 122.877 133.733C122.793 133.669 122.697 133.622 122.594 133.596C122.491 133.57 122.384 133.564 122.28 133.58C122.175 133.596 122.074 133.633 121.984 133.688C121.807 133.793 121.677 133.963 121.621 134.161L111.021 157.441L101.028 151.676C100.702 151.495 100.32 151.44 99.9559 151.521C99.5916 151.602 99.2697 151.814 99.0512 152.117L81.9492 176.795V184.3C81.9492 184.911 82.3732 185.159 82.9018 184.851L130.199 157.54C130.477 157.36 130.708 157.116 130.873 156.829C131.039 156.542 131.134 156.219 131.152 155.889V143.775V143.764Z" fill="#FFC000"/>
<path d="M85.0762 156.153V150.989L89.5471 148.406" stroke="white" stroke-width="1.5" stroke-linecap="round" stroke-linejoin="round"/>
<path d="M85.0762 175.248V180.413L89.5471 177.83" stroke="white" stroke-width="1.5" stroke-linecap="round" stroke-linejoin="round"/>
<path d="M123.664 128.831L128.135 126.249V131.414" stroke="white" stroke-width="1.5" stroke-linecap="round" stroke-linejoin="round"/>
<path d="M128.135 150.454V155.619L123.664 158.201" stroke="white" stroke-width="1.5" stroke-linecap="round" stroke-linejoin="round"/>
<path d="M151.405 66.2387C151.405 73.3306 146.45 81.9476 140.294 85.5101C137.739 86.9857 135.393 87.3491 133.521 86.76C132.068 85.433 131.203 83.2085 131.203 80.2573C131.203 73.1764 136.159 64.5539 142.32 60.9859C144.869 59.5158 147.22 59.1524 149.098 59.7416C150.546 61.0795 151.405 63.293 151.405 66.2387Z" fill="#FFC000"/>
<path d="M153.42 67.4121C153.42 74.4984 148.464 83.11 142.308 86.6559C139.28 88.4013 136.538 88.594 134.534 87.4873L134.368 87.3937C134.06 87.2057 133.772 86.9861 133.509 86.7385C132.056 85.4115 131.191 83.1871 131.191 80.2358C131.191 73.1549 136.147 64.5324 142.308 60.9644C144.858 59.4943 147.209 59.1309 149.086 59.7201C149.399 59.8138 149.702 59.9393 149.989 60.0945L150.039 60.122L150.353 60.3037C152.263 61.5371 153.42 63.9763 153.42 67.4121Z" fill="#FFC000"/>
<path d="M148.299 59.1418L147.963 58.9491C145.975 57.9029 143.272 58.1122 140.298 59.8301C134.148 63.3705 129.192 71.9875 129.192 79.0739C129.177 80.2535 129.34 81.4286 129.677 82.5592C130.033 83.7828 130.725 84.8817 131.676 85.7308C131.889 85.9132 132.117 86.0771 132.358 86.2208H132.397L132.447 86.2538L132.634 86.3585L134.374 87.3661C134.065 87.178 133.778 86.9584 133.515 86.7108C132.061 85.3839 131.197 83.1594 131.197 80.2081C131.197 73.1273 136.152 64.5047 142.313 60.9368C144.863 59.4667 147.214 59.1033 149.091 59.6924C149.404 59.7862 149.707 59.9116 149.994 60.0668L148.299 59.1418Z" fill="#455A64"/>
<path d="M131.665 85.7309C131.878 85.9133 132.107 86.0772 132.348 86.2209L128.411 83.9469H128.367C126.39 82.7741 125.162 80.2964 125.162 76.789C125.162 69.7082 130.118 61.0856 136.273 57.5176C137.765 56.5893 139.473 56.0673 141.229 56.0035C142.244 55.9896 143.245 56.2441 144.131 56.7413L147.985 58.9437C145.997 57.8976 143.294 58.1068 140.32 59.8247C134.148 63.3706 129.193 71.9877 129.193 79.074C129.177 80.2536 129.34 81.4288 129.677 82.5594C130.022 83.7853 130.712 84.8862 131.665 85.7309Z" fill="#263238"/>
<path d="M165.534 74.41C165.534 81.4963 160.578 90.1079 154.422 93.6813C152.931 94.6113 151.223 95.1352 149.467 95.201C148.46 95.2114 147.467 94.959 146.587 94.4687L134.545 87.4815L134.38 87.3879C134.072 87.1998 133.784 86.9802 133.521 86.7326C132.068 85.4057 131.203 83.1812 131.203 80.2299C131.203 73.1491 136.159 64.5265 142.32 60.9586C144.869 59.4885 147.22 59.1251 149.098 59.7142C149.411 59.808 149.713 59.9334 150.001 60.0886L150.051 60.1162L150.364 60.2979L162.285 67.175C164.3 68.3643 165.534 70.8585 165.534 74.41Z" fill="#263238"/>
<path d="M159.008 111.939C156.629 112.941 153.282 112.815 151.14 111.581L143.591 107.226C142.338 106.408 141.295 105.306 140.547 104.01C139.798 102.714 139.366 101.26 139.285 99.7651V79.3926C139.289 78.8566 139.353 78.3227 139.478 77.8013C139.516 77.6196 139.566 77.4434 139.621 77.2507V77.2011C139.671 77.036 139.726 76.8763 139.786 76.7111C139.847 76.5459 139.951 76.2871 140.045 76.0779L140.249 75.6484L140.48 75.23L140.53 75.1309L156.695 84.4912C155.917 85.7747 155.481 87.2363 155.429 88.7364V109.109C155.446 111.548 156.987 112.699 159.008 111.939Z" fill="#263238"/>
<path d="M199.896 63.0508V83.4234C199.817 84.9183 199.386 86.3734 198.638 87.6699C197.889 88.9665 196.845 90.0679 195.59 90.8841L159.757 111.576L159.663 111.626C159.593 111.67 159.519 111.708 159.443 111.741L159.2 111.857L159.008 111.934C156.987 112.694 155.445 111.543 155.445 109.093V88.7202C155.529 87.2258 155.963 85.7721 156.712 84.4762C157.461 83.1802 158.504 82.0784 159.757 81.2595C161.79 80.0412 163.529 78.3871 164.847 76.4163C166.164 74.4454 167.028 72.2069 167.377 69.8618C167.513 69.111 167.787 68.3921 168.186 67.742C168.565 67.0957 169.091 66.5485 169.723 66.1452L177.536 61.6302C177.767 61.4704 178.037 61.3744 178.317 61.3522C178.598 61.33 178.879 61.3822 179.133 61.5036L179.287 61.5917C179.706 61.8973 180.035 62.31 180.239 62.7865C180.555 63.4204 180.992 63.9859 181.526 64.4507C182.06 64.9155 182.681 65.2705 183.352 65.4955C184.024 65.7205 184.733 65.811 185.439 65.7619C186.145 65.7127 186.835 65.5249 187.469 65.2092L187.761 65.0495L195.585 60.54C197.853 59.2296 199.709 60.1766 199.88 62.6489C199.891 62.803 199.896 62.9297 199.896 63.0508Z" fill="#37474F"/>
<path d="M159.476 62.7429L152.01 58.4316C151.608 59.0806 151.334 59.8 151.2 60.5515C150.848 62.8916 149.982 65.1247 148.664 67.0906C147.347 69.0564 145.611 70.7062 143.58 71.9216C142.309 72.7152 141.261 73.82 140.535 75.1316L156.701 84.492C157.422 83.1756 158.471 82.0679 159.746 81.2764C161.784 80.0574 163.525 78.4011 164.845 76.4273C166.165 74.4534 167.03 72.2111 167.377 69.8623C167.513 69.1115 167.787 68.3926 168.187 67.7424L159.476 62.7429Z" fill="#37474F"/>
<path d="M195.592 55.5902L188.043 51.2349C186.709 50.556 185.234 50.2021 183.737 50.2021C182.24 50.2021 180.765 50.556 179.431 51.2349L171.591 55.7389C171.129 56.0087 170.63 56.2073 170.109 56.328L170.346 56.4602L179.112 61.5258L179.266 61.6139C179.685 61.9195 180.014 62.3322 180.219 62.8087C180.534 63.4425 180.971 64.008 181.506 64.4728C182.04 64.9377 182.66 65.2927 183.331 65.5177C184.003 65.7427 184.712 65.8332 185.418 65.784C186.125 65.7349 186.814 65.5471 187.448 65.2314L187.74 65.0717L195.564 60.5622C197.833 59.2517 199.688 60.1988 199.859 62.671C199.728 61.2454 199.276 59.8679 198.537 58.6417C197.798 57.4154 196.791 56.3722 195.592 55.5902Z" fill="#37474F"/>
<path d="M170.368 56.4599L170.131 56.3277L163.105 52.2697L162.968 52.1926C162.715 52.0712 162.434 52.0189 162.155 52.0411C161.875 52.0634 161.607 52.1594 161.376 52.3193L153.558 56.8288C152.925 57.2326 152.398 57.782 152.021 58.431L159.477 62.7423L168.171 67.7639C168.549 67.1176 169.076 66.5704 169.707 66.1671L177.52 61.6521C177.752 61.4922 178.021 61.3963 178.302 61.3741C178.582 61.3519 178.863 61.4041 179.117 61.5255L170.368 56.4599Z" fill="#455A64"/>
<path d="M171.211 67.6268L177.135 64.2075C177.73 63.8606 178.236 64.1415 178.236 64.8242V68.1719C178.214 68.5481 178.103 68.9137 177.911 69.2383C177.72 69.5628 177.454 69.8372 177.135 70.0385L171.211 73.4578C170.616 73.8047 170.109 73.5238 170.109 72.8411V69.4934C170.134 69.1177 170.246 68.753 170.437 68.4288C170.629 68.1045 170.894 67.8298 171.211 67.6268Z" fill="#E0E0E0"/>
<path d="M148.882 73.5345C148.045 74.0136 148.139 74.8505 149.086 75.4011L151.701 76.9098C152.193 77.1836 152.743 77.3373 153.306 77.3583C153.868 77.3794 154.428 77.2672 154.939 77.0309C155.781 76.5519 155.688 75.715 154.735 75.1643L152.12 73.6502C151.627 73.3785 151.077 73.2265 150.515 73.2064C149.952 73.1863 149.393 73.2987 148.882 73.5345Z" fill="#263238"/>
<path d="M148.882 72.912C148.045 73.391 148.139 74.2334 149.086 74.7785L151.701 76.2927C152.194 76.5644 152.744 76.7164 153.306 76.7365C153.869 76.7566 154.428 76.6442 154.939 76.4083C155.781 75.9293 155.688 75.0924 154.735 74.5418L152.12 73.0331C151.628 72.7593 151.078 72.6056 150.516 72.5845C149.953 72.5635 149.393 72.6757 148.882 72.912Z" fill="#455A64"/>
<path d="M184.431 60.259L183.654 60.0608L181.87 59.0311C181.499 58.8266 181.085 58.7116 180.662 58.6954C180.238 58.6791 179.817 58.762 179.431 58.9375H179.398L178.996 58.8329V59.5487C179.02 59.7184 179.086 59.8792 179.189 60.016C179.292 60.1528 179.429 60.2611 179.585 60.3306L181.556 61.4648C181.929 61.6678 182.344 61.7819 182.768 61.7981C183.192 61.8144 183.614 61.7323 184.001 61.5584C184.121 61.5038 184.224 61.4175 184.299 61.3089C184.373 61.2002 184.417 61.0733 184.425 60.9418V60.259H184.431Z" fill="#263238"/>
<path d="M179.431 58.25C178.797 58.619 178.88 59.2466 179.585 59.6596L181.556 60.7994C181.928 61.0052 182.342 61.1209 182.767 61.1372C183.192 61.1535 183.614 61.0698 184.001 60.893C184.628 60.5296 184.551 59.8964 183.841 59.4834L181.87 58.3436C181.499 58.1391 181.085 58.0241 180.661 58.0079C180.238 57.9916 179.816 58.0745 179.431 58.25Z" fill="#455A64"/>
<path d="M191.34 54.3568C190.233 53.803 189.012 53.5146 187.775 53.5146C186.537 53.5146 185.316 53.803 184.209 54.3568H182.695V56.4436C182.695 57.198 183.191 57.9468 184.182 58.5194C185.295 59.0839 186.526 59.3781 187.775 59.3781C189.023 59.3781 190.254 59.0839 191.367 58.5194C192.359 57.9688 192.854 57.198 192.854 56.4436V54.3568H191.34Z" fill="#263238"/>
<path d="M184.182 52.2864C182.2 53.4317 182.2 55.2872 184.182 56.4325C185.295 56.997 186.526 57.2912 187.775 57.2912C189.023 57.2912 190.254 56.997 191.367 56.4325C193.35 55.2872 193.35 53.4317 191.367 52.2864C190.254 51.7219 189.023 51.4277 187.775 51.4277C186.526 51.4277 185.295 51.7219 184.182 52.2864Z" fill="#455A64"/>
<path d="M176.627 56.9115C176.323 56.7647 175.99 56.6885 175.652 56.6885C175.315 56.6885 174.982 56.7647 174.678 56.9115H174.221V57.5061C174.231 57.6328 174.276 57.7543 174.349 57.8579C174.423 57.9615 174.523 58.0435 174.639 58.0953C174.953 58.2527 175.299 58.3347 175.65 58.3347C176 58.3347 176.346 58.2527 176.66 58.0953C176.776 58.0445 176.875 57.9635 176.949 57.8608C177.023 57.7581 177.067 57.6375 177.078 57.5117V56.9115H176.627Z" fill="#263238"/>
<path d="M181.121 55.1777V54.5775H180.67C180.366 54.4307 180.033 54.3545 179.695 54.3545C179.358 54.3545 179.025 54.4307 178.721 54.5775H178.264V55.1777C178.274 55.3037 178.319 55.4245 178.392 55.5273C178.466 55.6301 178.566 55.711 178.682 55.7613C178.996 55.9187 179.342 56.0007 179.693 56.0007C180.043 56.0007 180.389 55.9187 180.703 55.7613C180.819 55.711 180.919 55.6301 180.993 55.5273C181.066 55.4245 181.111 55.3037 181.121 55.1777Z" fill="#263238"/>
<path d="M174.64 56.3284C174.518 56.37 174.413 56.4486 174.338 56.5533C174.263 56.6579 174.223 56.7834 174.223 56.9121C174.223 57.0408 174.263 57.1662 174.338 57.2709C174.413 57.3756 174.518 57.4542 174.64 57.4957C174.954 57.6531 175.3 57.7351 175.651 57.7351C176.001 57.7351 176.347 57.6531 176.661 57.4957C176.783 57.4542 176.888 57.3756 176.963 57.2709C177.038 57.1662 177.078 57.0408 177.078 56.9121C177.078 56.7834 177.038 56.6579 176.963 56.5533C176.888 56.4486 176.783 56.37 176.661 56.3284C176.349 56.1672 176.002 56.083 175.651 56.083C175.299 56.083 174.953 56.1672 174.64 56.3284Z" fill="#455A64"/>
<path d="M178.681 53.9933C178.559 54.0348 178.454 54.1135 178.379 54.2181C178.304 54.3228 178.264 54.4482 178.264 54.5769C178.264 54.7056 178.304 54.8311 178.379 54.9357C178.454 55.0404 178.559 55.119 178.681 55.1606C178.995 55.318 179.341 55.3999 179.692 55.3999C180.042 55.3999 180.388 55.318 180.702 55.1606C180.824 55.119 180.929 55.0404 181.004 54.9357C181.079 54.8311 181.12 54.7056 181.12 54.5769C181.12 54.4482 181.079 54.3228 181.004 54.2181C180.929 54.1135 180.824 54.0348 180.702 53.9933C180.388 53.8359 180.042 53.7539 179.692 53.7539C179.341 53.7539 178.995 53.8359 178.681 53.9933Z" fill="#455A64"/>
<path d="M194.472 78.3799C194.852 77.6886 195.062 76.9165 195.083 76.1279C195.104 75.829 195.059 75.5291 194.952 75.2494C194.844 74.9697 194.677 74.717 194.461 74.5091L196.113 71.668C196.856 72.2186 197.264 73.2372 197.264 74.5862C197.211 76.2168 196.757 77.8093 195.942 79.2223L194.472 78.3799Z" fill="#263238"/>
<path d="M190.199 83.7758C189.865 83.7785 189.533 83.7129 189.225 83.5831L190.876 80.7474C191.043 80.8023 191.218 80.8302 191.394 80.83C191.815 80.8171 192.225 80.6937 192.583 80.4721C193.256 80.0586 193.822 79.4927 194.235 78.8203L195.689 79.6627C194.872 81.0747 193.72 82.2641 192.336 83.1261C191.692 83.5256 190.956 83.7496 190.199 83.7758Z" fill="#263238"/>
<path d="M188.795 83.3356C188.052 82.785 187.645 81.7664 187.645 80.4229C187.698 78.79 188.153 77.1954 188.972 75.7812L190.431 76.6237C190.046 77.3156 189.835 78.09 189.814 78.8812C189.793 79.1801 189.838 79.48 189.945 79.7597C190.053 80.0394 190.22 80.2921 190.436 80.5L188.795 83.3356Z" fill="#263238"/>
<path d="M194.61 76.2599C194.569 77.008 194.352 77.7358 193.977 78.3844C193.602 79.033 193.079 79.5841 192.452 79.9931C192.245 80.1764 191.987 80.2902 191.712 80.3183C191.437 80.3465 191.161 80.2876 190.922 80.15C190.682 80.0124 190.492 79.8031 190.379 79.5516C190.265 79.3001 190.233 79.0192 190.288 78.7487C190.332 77.9999 190.55 77.2718 190.926 76.6226C191.302 75.9734 191.824 75.4212 192.452 75.01C192.659 74.8282 192.917 74.7159 193.192 74.6889C193.466 74.662 193.741 74.7217 193.98 74.8598C194.218 74.9978 194.407 75.2072 194.52 75.4584C194.633 75.7096 194.665 75.9899 194.61 76.2599Z" fill="#263238"/>
<path d="M189.209 75.3685C190.023 73.9542 191.175 72.7642 192.562 71.9051C193.204 71.5057 193.938 71.2781 194.693 71.2444C195.026 71.2396 195.356 71.3053 195.662 71.4371L194.01 74.2783C193.846 74.2188 193.673 74.189 193.498 74.1902C193.077 74.2042 192.666 74.3296 192.309 74.5536C191.632 74.961 191.065 75.5282 190.657 76.2054L189.209 75.3685Z" fill="#263238"/>
<path d="M187.828 87.9325L188.99 87.2663C189.226 87.1286 189.419 87.2388 189.419 87.5141V88.8521C189.411 89.0018 189.368 89.1475 189.294 89.2776C189.219 89.4076 189.115 89.5184 188.99 89.6009L187.828 90.2671C187.591 90.4048 187.398 90.2946 187.398 90.0193V88.6814C187.406 88.5316 187.449 88.3859 187.524 88.2558C187.599 88.1258 187.703 88.015 187.828 87.9325Z" fill="#263238"/>
<path d="M195.91 83.269L197.072 82.5973C197.114 82.5652 197.165 82.5464 197.219 82.5434C197.272 82.5404 197.325 82.5533 197.371 82.5804C197.417 82.6075 197.454 82.6476 197.477 82.6957C197.5 82.7438 197.509 82.7977 197.501 82.8506V84.1775C197.493 84.3265 197.45 84.4715 197.375 84.6006C197.301 84.7298 197.197 84.8395 197.072 84.9209L195.91 85.5926C195.868 85.6271 195.817 85.6481 195.763 85.6527C195.71 85.6573 195.656 85.6453 195.609 85.6183C195.562 85.5913 195.525 85.5506 195.502 85.5017C195.479 85.4528 195.471 85.3981 195.48 85.3448V84.0123C195.488 83.8634 195.531 83.7184 195.606 83.5892C195.681 83.4601 195.785 83.3503 195.91 83.269Z" fill="#263238"/>
<path d="M187.828 69.2787L188.99 68.607C189.031 68.5724 189.082 68.5515 189.136 68.5469C189.19 68.5423 189.244 68.5543 189.291 68.5813C189.338 68.6083 189.375 68.6489 189.398 68.6978C189.421 68.7467 189.428 68.8015 189.419 68.8547V70.1927C189.411 70.3424 189.368 70.4882 189.294 70.6182C189.219 70.7483 189.115 70.859 188.99 70.9416L187.828 71.6078C187.591 71.7509 187.398 71.6353 187.398 71.36V70.022C187.406 69.8731 187.449 69.7281 187.524 69.5989C187.599 69.4697 187.703 69.36 187.828 69.2787Z" fill="#263238"/>
<path d="M195.91 64.6093L197.072 63.9431C197.308 63.8054 197.501 63.9155 197.501 64.1908V65.5288C197.493 65.6785 197.45 65.8243 197.376 65.9543C197.301 66.0844 197.197 66.1951 197.072 66.2776L195.91 66.9439C195.673 67.0815 195.48 66.9714 195.48 66.6961V65.3581C195.488 65.2084 195.531 65.0626 195.606 64.9326C195.681 64.8025 195.785 64.6918 195.91 64.6093Z" fill="#263238"/>
<path d="M183.735 73.5676V91.5781C183.711 92.027 183.581 92.464 183.356 92.8534C183.132 93.2428 182.818 93.5736 182.441 93.819L160.78 106.323C160.064 106.736 159.486 106.4 159.486 105.58V87.5641C159.51 87.1159 159.64 86.6797 159.865 86.2912C160.09 85.9027 160.404 85.5728 160.78 85.3286L182.441 72.8188C183.152 72.4113 183.735 72.7417 183.735 73.5676Z" fill="#F0F0F0"/>
<path d="M161.981 91.5777C162.975 90.9293 163.803 90.0554 164.396 89.0268C164.989 87.9983 165.331 86.8443 165.394 85.6586C165.394 84.4583 164.932 83.6544 164.194 83.3516L160.78 85.3282C160.404 85.5725 160.09 85.9023 159.865 86.2908C159.64 86.6793 159.51 87.1155 159.486 87.5637V91.7594C160.109 92.1723 160.995 92.1448 161.981 91.5777Z" fill="#FFC000"/>
<path opacity="0.7" d="M161.981 91.5777C162.975 90.9293 163.803 90.0554 164.396 89.0268C164.989 87.9983 165.331 86.8443 165.394 85.6586C165.394 84.4583 164.932 83.6544 164.194 83.3516L160.78 85.3282C160.404 85.5725 160.09 85.9023 159.865 86.2908C159.64 86.6793 159.51 87.1155 159.486 87.5637V91.7594C160.109 92.1723 160.995 92.1448 161.981 91.5777Z" fill="white"/>
<path d="M180.273 81.0504C180.222 80.9556 180.144 80.8779 180.05 80.8268C179.955 80.7757 179.847 80.7535 179.74 80.7628C179.633 80.7722 179.531 80.8128 179.447 80.8795C179.362 80.9463 179.299 81.0363 179.265 81.1385L173.633 93.0702L168.677 90.0859C168.453 89.9515 168.186 89.9108 167.932 89.9727C167.678 90.0345 167.46 90.1939 167.323 90.4163L159.477 103.57V105.58C159.477 106.4 160.055 106.736 160.77 106.323L182.431 93.819C182.806 93.5726 183.118 93.2422 183.343 92.8542C183.567 92.4661 183.698 92.0311 183.725 91.5836V85.8848L180.273 81.0504Z" fill="#FFC000"/>
<path d="M163.529 86.0723L161.508 87.2396V89.5741" stroke="white" stroke-linecap="round" stroke-linejoin="round"/>
<path d="M161.508 101.235V103.57L163.529 102.403" stroke="white" stroke-linecap="round" stroke-linejoin="round"/>
<path d="M179.695 76.7396L181.716 75.5723V77.9069" stroke="white" stroke-linecap="round" stroke-linejoin="round"/>
<path d="M181.716 89.5742V91.9033L179.695 93.0706" stroke="white" stroke-linecap="round" stroke-linejoin="round"/>
<path d="M194.847 78.6055C195.228 77.9125 195.437 77.1385 195.458 76.348C195.479 76.0491 195.434 75.7492 195.327 75.4695C195.219 75.1898 195.052 74.9371 194.836 74.7292L196.488 71.8936C197.231 72.4442 197.639 73.4628 197.639 74.8063C197.584 76.4383 197.131 78.0321 196.317 79.4479L194.847 78.6055Z" fill="#455A64"/>
<path d="M190.575 83.9965C190.242 84.0005 189.912 83.9368 189.605 83.8093L191.257 80.9682C191.422 81.025 191.595 81.0547 191.769 81.0563C192.193 81.0448 192.606 80.9192 192.964 80.6928C193.637 80.2793 194.202 79.7134 194.616 79.041L196.075 79.8834C195.261 81.2977 194.109 82.4877 192.722 83.3468C192.074 83.7451 191.334 83.9689 190.575 83.9965Z" fill="#455A64"/>
<path d="M189.171 83.5612C188.427 83.0106 188.025 81.9865 188.025 80.643C188.078 79.0124 188.532 77.4199 189.347 76.0068L190.806 76.8438C190.422 77.5357 190.21 78.3101 190.189 79.1013C190.168 79.4002 190.213 79.7001 190.321 79.9798C190.428 80.2595 190.596 80.5122 190.811 80.7201L189.171 83.5612Z" fill="#455A64"/>
<path d="M194.986 76.4689C194.945 77.2177 194.728 77.9463 194.353 78.5958C193.978 79.2453 193.455 79.7974 192.827 80.2075C192.565 80.4372 192.222 80.5535 191.875 80.5308C191.527 80.5081 191.202 80.3483 190.972 80.0864C190.841 79.938 190.745 79.7617 190.693 79.5708C190.641 79.38 190.632 79.1797 190.669 78.9852C190.695 78.2343 190.913 77.5027 191.302 76.8598C191.662 76.2003 192.188 75.6461 192.827 75.252C193.034 75.071 193.292 74.9591 193.566 74.9321C193.839 74.9052 194.114 74.9645 194.352 75.1017C194.59 75.2389 194.779 75.4472 194.893 75.6973C195.006 75.9474 195.039 76.2269 194.986 76.4964V76.4689Z" fill="#455A64"/>
<path d="M189.6 75.5719C190.413 74.1577 191.566 72.9677 192.953 72.1086C193.596 71.7122 194.329 71.4866 195.084 71.4533C195.414 71.4489 195.742 71.5126 196.047 71.6406L194.395 74.4817C194.23 74.4266 194.057 74.3987 193.883 74.3991C193.462 74.412 193.052 74.5354 192.694 74.757C192.022 75.1706 191.456 75.7364 191.042 76.4088L189.6 75.5719Z" fill="#455A64"/>
<path d="M188.207 88.1586L189.363 87.4868C189.405 87.4523 189.456 87.4313 189.509 87.4267C189.563 87.4221 189.617 87.4342 189.664 87.4612C189.711 87.4881 189.748 87.5288 189.771 87.5777C189.794 87.6266 189.802 87.6814 189.792 87.7346V89.0726C189.784 89.2223 189.741 89.3681 189.667 89.4981C189.592 89.6282 189.488 89.7389 189.363 89.8214L188.207 90.4877C188.165 90.5222 188.114 90.5432 188.06 90.5478C188.006 90.5524 187.952 90.5404 187.906 90.5134C187.859 90.4864 187.821 90.4457 187.799 90.3968C187.776 90.3479 187.768 90.2931 187.777 90.2399V88.9019C187.785 88.7529 187.828 88.608 187.903 88.4788C187.978 88.3496 188.082 88.2399 188.207 88.1586Z" fill="#455A64"/>
<path d="M196.289 83.49L197.445 82.8238C197.487 82.7892 197.538 82.7682 197.592 82.7637C197.646 82.7591 197.7 82.7711 197.746 82.7981C197.793 82.8251 197.831 82.8657 197.853 82.9146C197.876 82.9635 197.884 83.0183 197.875 83.0715V84.4095C197.867 84.5585 197.824 84.7035 197.749 84.8326C197.674 84.9618 197.57 85.0715 197.445 85.1528L196.289 85.8246C196.247 85.858 196.196 85.8781 196.142 85.8822C196.088 85.8863 196.035 85.8743 195.988 85.8476C195.941 85.821 195.903 85.781 195.879 85.7327C195.856 85.6844 195.847 85.6301 195.854 85.5768V84.2388C195.862 84.0884 195.905 83.942 195.981 83.8118C196.057 83.6815 196.162 83.5712 196.289 83.49Z" fill="#455A64"/>
<path d="M188.207 69.4988L189.363 68.8325C189.405 68.798 189.456 68.777 189.509 68.7724C189.563 68.7678 189.617 68.7799 189.664 68.8068C189.711 68.8338 189.748 68.8745 189.771 68.9234C189.794 68.9723 189.802 69.0271 189.792 69.0803V70.4128C189.784 70.5618 189.741 70.7067 189.667 70.8359C189.592 70.9651 189.488 71.0748 189.363 71.1561L188.207 71.8279C188.165 71.8624 188.114 71.8834 188.06 71.888C188.006 71.8926 187.952 71.8806 187.906 71.8536C187.859 71.8266 187.821 71.7859 187.799 71.737C187.776 71.6881 187.768 71.6333 187.777 71.5801V70.2476C187.785 70.0979 187.828 69.9521 187.903 69.8221C187.977 69.692 188.082 69.5813 188.207 69.4988Z" fill="#455A64"/>
<path d="M196.29 64.8345L197.447 64.1628C197.683 64.0251 197.876 64.1353 197.876 64.4106V65.7485C197.868 65.8983 197.825 66.044 197.751 66.1741C197.676 66.3041 197.572 66.4149 197.447 66.4974L196.29 67.1636C196.048 67.3013 195.855 67.1911 195.855 66.9158V65.5778C195.864 65.4283 195.907 65.2828 195.983 65.1535C196.059 65.0243 196.164 64.9149 196.29 64.8345Z" fill="#455A64"/>
<path d="M188.107 105.272H189.759C190.157 105.271 190.551 105.348 190.919 105.499C191.287 105.651 191.622 105.873 191.904 106.154C192.186 106.435 192.409 106.769 192.562 107.136C192.715 107.503 192.793 107.897 192.793 108.295V108.405L192.435 119.495L188.107 105.272Z" fill="#F28F8F"/>
<path d="M174.982 110.332C176.333 110.332 177.629 109.796 178.584 108.84C179.539 107.885 180.076 106.59 180.076 105.239V90.0752C178.725 90.0752 177.429 90.6118 176.474 91.5669C175.519 92.5221 174.982 93.8176 174.982 95.1683V110.332Z" fill="#263238"/>
<path d="M183.525 166.695L182.064 171.205L185.166 172.209L186.626 167.699L183.525 166.695Z" fill="#FFA8A7"/>
<path d="M185.806 170.249C185.784 170.619 185.878 170.987 186.076 171.301C186.573 172.119 187.154 172.883 187.811 173.58C188.741 174.577 190.129 175.755 191.114 176.625C191.665 177.11 191.665 177.836 190.899 178.095C189.421 178.455 187.861 178.236 186.539 177.484C185.553 176.933 184.144 174.5 183.318 174.131C182.376 173.701 181.842 173.487 181.523 173.03C181.28 172.782 181.129 172.459 181.094 172.114C181.059 171.768 181.142 171.422 181.33 171.13C181.776 170.304 182.431 169.021 182.723 169.164L182.635 169.429C182.855 170.106 184.7 170.893 185.647 170.706L185.806 170.249Z" fill="#37474F"/>
<path d="M182.646 169.451C183.379 169.677 183.803 170.283 184.75 170.09L185.807 170.25C185.785 170.62 185.879 170.988 186.077 171.301C186.574 172.12 187.155 172.884 187.811 173.581C188.263 174.065 188.824 174.594 189.397 175.106C189.854 175.822 188.329 176.031 187.486 175.789C186.56 175.461 185.762 174.848 185.207 174.038C184.596 173.234 182.933 171.367 182.685 170.734C182.507 170.327 182.494 169.868 182.646 169.451Z" fill="#FFA8A7"/>
<path d="M173.269 123.575C173.269 119.407 174.068 116.34 174.982 109.947C175.29 107.778 176.132 106.687 177.663 106.093C177.663 106.093 181.864 107.822 181.864 110.927C181.864 114.033 178.462 115.629 178.462 115.629L177.779 120.992L174.954 126.063C173.545 125.617 173.242 124.852 173.269 123.575Z" fill="#FFA8A7"/>
<path d="M181.963 174.054H178.797V178.662H181.963V174.054Z" fill="#FFA8A7"/>
<path d="M176.413 127.071C175.157 132.45 176.379 139.696 176.809 144.222C177.227 148.627 177.745 153.77 177.745 153.77C177.745 153.77 176.396 158.428 176.462 162.029C176.545 165.823 178.747 175.029 178.747 175.029C179.231 175.341 179.795 175.508 180.371 175.508C180.948 175.508 181.512 175.341 181.996 175.029C181.996 175.029 182.546 167.32 183.097 162.954C183.648 158.389 183.818 155.058 184.292 152.388C184.881 149.084 185.663 137.83 185.663 137.83L187.59 148.952C186.576 150.626 185.785 152.425 185.239 154.304C184.54 157.007 183.036 167.744 183.036 167.744C183.982 168.586 185.195 169.066 186.461 169.099C186.461 169.099 193.245 153.005 194.164 151.353C195.155 149.64 193.944 131.977 192.997 126.773L176.413 127.071Z" fill="#FFC000"/>
<path opacity="0.3" d="M176.413 127.071C175.157 132.45 176.379 139.696 176.809 144.222C177.227 148.627 177.745 153.77 177.745 153.77C177.745 153.77 176.396 158.428 176.462 162.029C176.545 165.823 178.747 175.029 178.747 175.029C179.231 175.341 179.795 175.508 180.371 175.508C180.948 175.508 181.512 175.341 181.996 175.029C181.996 175.029 182.546 167.32 183.097 162.954C183.648 158.389 183.818 155.058 184.292 152.388C184.881 149.084 185.663 137.83 185.663 137.83L187.59 148.952C186.576 150.626 185.785 152.425 185.239 154.304C184.54 157.007 183.036 167.744 183.036 167.744C183.982 168.586 185.195 169.066 186.461 169.099C186.461 169.099 193.245 153.005 194.164 151.353C195.155 149.64 193.944 131.977 192.997 126.773L176.413 127.071Z" fill="black"/>
<path d="M182.21 105.349C182.21 105.349 178.196 105.85 177.662 106.087C181.864 109.044 178.461 115.624 178.461 115.624L180.498 121.218C178.786 123.079 177.343 124.197 176.418 127.054C177.591 128.414 184.969 131.922 192.975 126.768C192.745 124.669 192.406 122.583 191.962 120.518C193.112 115.012 193.393 112.584 193.063 111.29C192.121 107.651 189.968 105.327 187.496 105.189L182.21 105.349Z" fill="#FFC000"/>
<path opacity="0.5" d="M182.21 105.349C182.21 105.349 178.196 105.85 177.662 106.087C181.864 109.044 178.461 115.624 178.461 115.624L180.498 121.218C178.786 123.079 177.343 124.197 176.418 127.054C177.591 128.414 184.969 131.922 192.975 126.768C192.745 124.669 192.406 122.583 191.962 120.518C193.112 115.012 193.393 112.584 193.063 111.29C192.121 107.651 189.968 105.327 187.496 105.189L182.21 105.349Z" fill="white"/>
<path d="M181.964 177.099V176.647C182.355 178.146 183.135 179.514 184.227 180.612C185.229 181.52 186.589 182.572 186.936 183.591C187.283 184.609 185.356 185.061 184.034 184.94C182.781 184.785 181.626 184.18 180.786 183.238C179.965 182.297 179.976 181.653 179.596 181.135C179.216 180.617 178.33 180.034 178.121 179.439C178.059 178.882 178.121 178.318 178.302 177.787C178.451 177.237 178.611 176.609 178.798 176.686V177.033C179.248 177.393 179.808 177.587 180.384 177.584C180.846 177.545 181.969 177.451 181.964 177.099Z" fill="#37474F"/>
<path d="M178.797 176.994C179.028 177.248 179.661 177.044 180.383 177.071C180.845 177.071 181.484 177.253 181.484 176.901L181.935 176.647C182.328 178.145 183.109 179.512 184.198 180.612C184.441 180.827 184.699 181.052 184.958 181.289C185.509 181.878 185.338 182.39 184.094 182.5C182.849 182.611 181.748 181.856 180.79 180.694C180.001 179.533 179.333 178.293 178.797 176.994Z" fill="#FFA8A7"/>
<path d="M183.829 88.583H186.78C188.406 88.583 189.964 89.2287 191.114 90.3779C192.263 91.5272 192.909 93.086 192.909 94.7113V95.4436C192.907 97.3562 192.147 99.19 190.794 100.542C189.442 101.895 187.608 102.655 185.696 102.657H184.947C183.024 102.657 181.179 101.893 179.819 100.533C178.459 99.1727 177.695 97.3283 177.695 95.4051V94.6948C177.7 93.0714 178.348 91.516 179.498 90.3702C180.648 89.2243 182.206 88.5815 183.829 88.583Z" fill="#263238"/>
<path d="M190.409 91.6445C191.213 92.1181 192.21 94.1388 192.111 98.373C192.028 101.963 190.861 102.849 190.277 103.103C189.694 103.356 188.57 103.202 187.475 103.02V105.179C187.475 105.179 188.989 106.935 188.89 107.932C188.791 108.928 186.687 109.154 185.289 108.19C184.264 107.396 183.382 106.433 182.679 105.344V100.388C182.679 100.388 182.035 101.016 180.944 100.063C180.041 99.2705 179.739 97.9435 180.438 97.2277C180.742 96.9499 181.143 96.8024 181.555 96.8168C181.967 96.8312 182.356 97.0064 182.64 97.3048C182.755 97.4291 182.849 97.5702 182.921 97.7233C184.357 97.6647 185.756 97.2483 186.99 96.5119C187.905 96.0293 188.692 95.3364 189.286 94.4902C189.881 93.6439 190.266 92.6686 190.409 91.6445Z" fill="#FFA8A7"/>
<path d="M188.109 97.4699C188.113 97.53 188.106 97.5903 188.087 97.6475C188.068 97.7047 188.038 97.7575 187.998 97.8031C187.959 97.8486 187.911 97.8859 187.857 97.9129C187.803 97.9398 187.745 97.9558 187.685 97.96C187.592 97.9673 187.5 97.9471 187.419 97.902C187.339 97.8569 187.273 97.789 187.231 97.7067C187.189 97.6244 187.172 97.5315 187.183 97.4397C187.193 97.3479 187.231 97.2613 187.291 97.1907C187.35 97.1202 187.43 97.069 187.519 97.0435C187.607 97.018 187.702 97.0194 187.79 97.0475C187.878 97.0756 187.956 97.1292 188.013 97.2014C188.071 97.2736 188.106 97.3613 188.114 97.4534L188.109 97.4699Z" fill="#263238"/>
<path d="M188.223 100.515L189.269 100.845C189.229 100.985 189.136 101.104 189.009 101.175C188.882 101.246 188.732 101.264 188.592 101.225C188.452 101.184 188.333 101.089 188.263 100.961C188.193 100.833 188.176 100.682 188.217 100.542L188.223 100.515Z" fill="#F28F8F"/>
<path d="M191.803 96.0828L190.889 95.4496C190.969 95.3289 191.095 95.245 191.237 95.2161C191.379 95.1872 191.527 95.2157 191.649 95.2954C191.77 95.3821 191.854 95.512 191.882 95.6584C191.911 95.8048 191.883 95.9567 191.803 96.0828Z" fill="#263238"/>
<path d="M191.594 97.1453C191.595 97.2339 191.57 97.3208 191.522 97.3952C191.474 97.4696 191.405 97.5283 191.324 97.5638C191.243 97.5994 191.153 97.6103 191.066 97.5952C190.979 97.5801 190.898 97.5397 190.833 97.479C190.769 97.4183 190.724 97.3399 190.703 97.2537C190.683 97.1675 190.689 97.0772 190.719 96.9941C190.75 96.911 190.804 96.8387 190.876 96.7863C190.947 96.7339 191.032 96.7037 191.121 96.6994C191.243 96.6964 191.361 96.7415 191.449 96.825C191.538 96.9085 191.59 97.0236 191.594 97.1453Z" fill="#263238"/>
<path d="M189.463 96.8857L189.534 99.6002L190.966 99.1598L189.463 96.8857Z" fill="#F28F8F"/>
<path d="M187.474 103.02C186.318 102.871 183.945 102.189 183.57 101.247C183.719 101.724 184.011 102.143 184.407 102.447C185.118 103.053 187.474 103.741 187.474 103.741V103.02Z" fill="#F28F8F"/>
<path d="M179.299 117.908L182.459 122.192L180.499 121.217L179.299 117.908Z" fill="#FFC000"/>
<path d="M185.658 137.802L186.209 134.774C187.821 134.322 189.394 133.738 190.911 133.028C190.911 133.028 188.808 134.895 187.222 135.418L186.44 138.887L186.831 144.448L185.658 137.802Z" fill="#FFC000"/>
<path opacity="0.4" d="M185.658 137.802L186.209 134.774C187.821 134.322 189.394 133.738 190.911 133.028C190.911 133.028 188.808 134.895 187.222 135.418L186.44 138.887L186.831 144.448L185.658 137.802Z" fill="black"/>
<path d="M177.779 120.986C177.779 120.986 189.474 119.29 190.217 119.021C190.96 118.751 192.183 117.44 193.328 117.336C194.98 117.193 195.701 116.785 196.015 116.961C196.329 117.138 196.147 118.096 194.649 118.723C194.488 118.76 194.345 118.855 194.249 118.99C194.153 119.125 194.111 119.291 194.13 119.456C194.149 119.621 194.229 119.773 194.353 119.882C194.477 119.992 194.638 120.052 194.804 120.05C194.992 120.049 195.179 120.012 195.354 119.94L195.938 119.67L196.808 119.263C196.989 119.799 196.989 120.379 196.808 120.915C196.608 121.365 196.316 121.768 195.953 122.1C195.589 122.432 195.16 122.684 194.693 122.842C193.702 123.134 190.746 122.192 189.909 122.396C189.072 122.6 188.257 122.913 184.788 123.772C181.754 124.527 178.032 125.821 174.938 126.041L177.779 120.986Z" fill="#FFA8A7"/>
<path d="M221.144 100.939L217.059 103.301C216.999 103.341 216.949 103.394 216.912 103.456C216.876 103.518 216.855 103.587 216.85 103.659V113.361C216.85 113.493 216.943 113.548 217.059 113.482L221.144 111.12C221.204 111.08 221.254 111.027 221.291 110.965C221.327 110.903 221.349 110.834 221.354 110.762V101.06C221.343 100.928 221.249 100.873 221.144 100.939Z" fill="#FFC000"/>
<path d="M217.049 103.301L221.135 100.939C221.152 100.925 221.173 100.916 221.195 100.913C221.217 100.91 221.24 100.912 221.26 100.921C221.281 100.929 221.299 100.943 221.313 100.961C221.327 100.978 221.335 100.999 221.338 101.021C221.33 100.957 221.308 100.895 221.275 100.839C221.242 100.783 221.198 100.735 221.146 100.696L220.975 100.597C220.91 100.565 220.838 100.548 220.766 100.548C220.693 100.548 220.621 100.565 220.556 100.597L216.471 102.959C216.408 102.996 216.357 103.05 216.322 103.114L216.911 103.455C216.943 103.393 216.991 103.34 217.049 103.301Z" fill="#FFC000"/>
<path opacity="0.5" d="M217.049 103.301L221.135 100.939C221.152 100.925 221.173 100.916 221.195 100.913C221.217 100.91 221.24 100.912 221.26 100.921C221.281 100.929 221.299 100.943 221.313 100.961C221.327 100.978 221.335 100.999 221.338 101.021C221.33 100.957 221.308 100.895 221.275 100.839C221.242 100.783 221.198 100.735 221.146 100.696L220.975 100.597C220.91 100.565 220.838 100.548 220.766 100.548C220.693 100.548 220.621 100.565 220.556 100.597L216.471 102.959C216.408 102.996 216.357 103.05 216.322 103.114L216.911 103.455C216.943 103.393 216.991 103.34 217.049 103.301Z" fill="white"/>
<path d="M216.25 113.013C216.253 113.086 216.273 113.157 216.31 113.221C216.346 113.284 216.398 113.338 216.459 113.377L216.63 113.476C216.69 113.503 216.754 113.517 216.82 113.517C216.885 113.517 216.95 113.503 217.01 113.476C216.911 113.514 216.839 113.476 216.839 113.338V103.658C216.84 103.586 216.861 103.516 216.9 103.455L216.311 103.113C216.272 103.176 216.251 103.249 216.25 103.323V113.013Z" fill="#FFC000"/>
<path opacity="0.2" d="M216.25 113.013C216.253 113.086 216.273 113.157 216.31 113.221C216.346 113.284 216.398 113.338 216.459 113.377L216.63 113.476C216.69 113.503 216.754 113.517 216.82 113.517C216.885 113.517 216.95 113.503 217.01 113.476C216.911 113.514 216.839 113.476 216.839 113.338V103.658C216.84 103.586 216.861 103.516 216.9 103.455L216.311 103.113C216.272 103.176 216.251 103.249 216.25 103.323V113.013Z" fill="black"/>
<path d="M217.753 103.499C217.653 103.568 217.569 103.66 217.51 103.767C217.451 103.874 217.417 103.994 217.412 104.116V104.854C217.412 105.085 217.566 105.184 217.753 105.074C217.854 105.005 217.938 104.913 217.997 104.806C218.056 104.699 218.09 104.579 218.095 104.457V103.719C218.095 103.488 217.941 103.389 217.753 103.499Z" fill="#FFC000"/>
<path opacity="0.2" d="M217.753 103.499C217.653 103.568 217.569 103.66 217.51 103.767C217.451 103.874 217.417 103.994 217.412 104.116V104.854C217.412 105.085 217.566 105.184 217.753 105.074C217.854 105.005 217.938 104.913 217.997 104.806C218.056 104.699 218.09 104.579 218.095 104.457V103.719C218.095 103.488 217.941 103.389 217.753 103.499Z" fill="black"/>
<path d="M217.752 103.774C217.709 103.801 217.672 103.838 217.646 103.882C217.62 103.926 217.606 103.976 217.604 104.027C217.604 104.121 217.67 104.159 217.752 104.115C217.796 104.089 217.832 104.051 217.858 104.007C217.884 103.963 217.899 103.913 217.901 103.862C217.901 103.769 217.84 103.73 217.752 103.774Z" fill="#FFC000"/>
<path opacity="0.5" d="M217.752 103.774C217.709 103.801 217.672 103.838 217.646 103.882C217.62 103.926 217.606 103.976 217.604 104.027C217.604 104.121 217.67 104.159 217.752 104.115C217.796 104.089 217.832 104.051 217.858 104.007C217.884 103.963 217.899 103.913 217.901 103.862C217.901 103.769 217.84 103.73 217.752 103.774Z" fill="black"/>
<path d="M217.752 104.352C217.709 104.379 217.672 104.416 217.646 104.46C217.62 104.505 217.606 104.554 217.604 104.606C217.604 104.699 217.67 104.738 217.752 104.694C217.796 104.666 217.832 104.627 217.858 104.582C217.884 104.537 217.899 104.487 217.901 104.435C217.901 104.347 217.84 104.308 217.752 104.352Z" fill="#FFC000"/>
<path opacity="0.5" d="M217.752 104.352C217.709 104.379 217.672 104.416 217.646 104.46C217.62 104.505 217.606 104.554 217.604 104.606C217.604 104.699 217.67 104.738 217.752 104.694C217.796 104.666 217.832 104.627 217.858 104.582C217.884 104.537 217.899 104.487 217.901 104.435C217.901 104.347 217.84 104.308 217.752 104.352Z" fill="black"/>
<path d="M194.649 118.723L215.936 108.812L216.404 110.139L195.117 120.05C193.917 120.574 193.526 119.252 194.649 118.723Z" fill="#455A64"/>
<path d="M216.817 108.052L217.131 108.239C217.278 108.313 217.44 108.351 217.605 108.351C217.769 108.351 217.931 108.313 218.078 108.239L219.367 107.496C219.631 107.342 219.846 107.43 219.846 107.689C219.829 107.841 219.777 107.988 219.694 108.117C219.611 108.246 219.499 108.354 219.367 108.432L218.084 109.17C217.936 109.246 217.773 109.285 217.607 109.285C217.442 109.285 217.278 109.246 217.131 109.17L216.817 108.983C216.687 108.902 216.576 108.792 216.494 108.663C216.412 108.533 216.361 108.386 216.344 108.234C216.344 107.981 216.558 107.898 216.817 108.052Z" fill="#455A64"/>
<path d="M216.817 109.826L217.131 110.007C217.277 110.083 217.44 110.123 217.605 110.123C217.769 110.123 217.932 110.083 218.078 110.007L219.367 109.264C219.631 109.115 219.846 109.198 219.846 109.457C219.83 109.61 219.779 109.757 219.695 109.886C219.612 110.015 219.499 110.123 219.367 110.2L218.084 110.943C217.935 111.015 217.772 111.052 217.607 111.052C217.443 111.052 217.28 111.015 217.131 110.943L216.817 110.762C216.687 110.681 216.576 110.572 216.494 110.442C216.412 110.312 216.361 110.165 216.344 110.013C216.344 109.754 216.558 109.671 216.817 109.826Z" fill="#455A64"/>
<path d="M215.86 108.096V110.084L216.961 110.712V108.129L216.41 107.799C216.357 107.76 216.295 107.738 216.229 107.733C216.164 107.729 216.099 107.743 216.041 107.774C215.984 107.805 215.936 107.852 215.904 107.909C215.872 107.966 215.857 108.031 215.86 108.096Z" fill="#455A64"/>
</svg>
