<svg width="249" height="247" viewBox="0 0 249 247" fill="none" xmlns="http://www.w3.org/2000/svg">
<path d="M182.021 45.0293C182.166 45.0293 182.283 53.9414 182.283 64.939C182.283 75.9366 182.166 84.8487 182.021 84.8487C181.875 84.8487 181.758 75.9366 181.758 64.939C181.758 53.9414 181.875 45.0293 182.021 45.0293Z" fill="#EBEBEB"/>
<path d="M176.832 49.4014C176.978 49.4014 177.095 56.2113 177.095 64.6034C177.095 72.9956 176.978 79.7998 176.832 79.7998C176.687 79.7998 176.598 72.9956 176.598 64.6034C176.598 56.2113 176.687 49.4014 176.832 49.4014Z" fill="#EBEBEB"/>
<path d="M171.007 53.7461C171.152 53.7461 171.27 58.6718 171.27 64.7548C171.27 70.8379 171.152 75.758 171.007 75.758C170.862 75.758 170.744 70.8323 170.744 64.7548C170.744 58.6774 170.845 53.7461 171.007 53.7461Z" fill="#EBEBEB"/>
<path d="M165.896 57.4922C166.047 57.4922 166.164 60.2374 166.164 63.6423C166.164 67.0473 166.047 69.7925 165.896 69.7925C165.745 69.7925 165.633 67.0417 165.633 63.6423C165.633 60.243 165.756 57.4922 165.896 57.4922Z" fill="#EBEBEB"/>
<path d="M161.407 60.4834C161.553 60.4834 161.67 61.993 161.67 63.838C161.67 65.6831 161.553 67.1926 161.407 67.1926C161.262 67.1926 161.145 65.6831 161.145 63.838C161.145 61.993 161.262 60.4834 161.407 60.4834Z" fill="#EBEBEB"/>
<path d="M156.314 56.8877C156.459 56.8877 156.576 59.6385 156.576 63.0378C156.576 66.4372 156.459 69.188 156.314 69.188C156.168 69.188 156.051 66.4372 156.051 63.0378C156.051 59.6385 156.168 56.8877 156.314 56.8877Z" fill="#EBEBEB"/>
<path d="M151.521 51.9512C151.666 51.9512 151.783 57.1117 151.783 63.4799C151.783 69.8481 151.666 75.0086 151.521 75.0086C151.375 75.0086 151.258 69.8481 151.258 63.4799C151.258 57.1117 151.375 51.9512 151.521 51.9512Z" fill="#EBEBEB"/>
<path d="M212.29 53.7461C212.435 53.7461 212.553 58.6718 212.553 64.7548C212.553 70.8379 212.435 75.758 212.29 75.758C212.145 75.758 212.027 70.8323 212.027 64.7548C212.027 58.6774 212.145 53.7461 212.29 53.7461Z" fill="#EBEBEB"/>
<path d="M207.196 57.4922C207.342 57.4922 207.459 60.2374 207.459 63.6423C207.459 67.0473 207.342 69.7925 207.196 69.7925C207.051 69.7925 206.934 67.0417 206.934 63.6423C206.934 60.243 207.051 57.4922 207.196 57.4922Z" fill="#EBEBEB"/>
<path d="M202.708 60.4834C202.853 60.4834 202.971 61.993 202.971 63.838C202.971 65.6831 202.853 67.1926 202.708 67.1926C202.563 67.1926 202.445 65.6831 202.445 63.838C202.445 61.993 202.563 60.4834 202.708 60.4834Z" fill="#EBEBEB"/>
<path d="M197.614 55.0938C197.76 55.0938 197.877 58.6497 197.877 63.033C197.877 67.4164 197.76 70.9667 197.614 70.9667C197.469 70.9667 197.352 67.4164 197.352 63.033C197.352 58.6497 197.469 55.0938 197.614 55.0938Z" fill="#EBEBEB"/>
<path d="M192.812 51.9512C192.957 51.9512 193.074 57.1117 193.074 63.4799C193.074 69.8481 192.957 75.0086 192.812 75.0086C192.666 75.0086 192.549 69.8481 192.549 63.4799C192.549 57.1117 192.677 51.9512 192.812 51.9512Z" fill="#EBEBEB"/>
<path d="M186.98 49.5527C187.125 49.5527 187.242 56.1222 187.242 64.2292C187.242 72.3362 187.125 78.9057 186.98 78.9057C186.834 78.9057 186.717 72.3362 186.717 64.2292C186.717 56.1222 186.834 49.5527 186.98 49.5527Z" fill="#EBEBEB"/>
<path d="M217.732 69.1714C217.586 69.1714 217.469 66.4206 217.469 63.0212C217.469 59.6219 217.586 56.8711 217.732 56.8711C217.877 56.8711 217.994 59.6219 217.994 63.0212C217.994 66.4206 217.877 69.1714 217.732 69.1714Z" fill="#EBEBEB"/>
<path d="M222.226 66.1751C222.08 66.1751 221.963 64.6655 221.963 62.8204C221.963 60.9754 222.08 59.4658 222.226 59.4658C222.371 59.4658 222.488 60.9754 222.488 62.8204C222.488 64.6655 222.371 66.1751 222.226 66.1751Z" fill="#EBEBEB"/>
<path d="M146.831 56.8877C146.977 56.8877 147.094 59.6385 147.094 63.0378C147.094 66.4372 146.977 69.188 146.831 69.188C146.686 69.188 146.568 66.4372 146.568 63.0378C146.568 59.6385 146.686 56.8877 146.831 56.8877Z" fill="#EBEBEB"/>
<path d="M142.341 59.8848C142.486 59.8848 142.604 61.3943 142.604 63.2394C142.604 65.0844 142.486 66.594 142.341 66.594C142.196 66.594 142.078 65.09 142.078 63.2394C142.078 61.3888 142.196 59.8848 142.341 59.8848Z" fill="#EBEBEB"/>
<path d="M137.857 56.8877C138.002 56.8877 138.119 59.6385 138.119 63.0378C138.119 66.4372 138.002 69.188 137.857 69.188C137.711 69.188 137.594 66.4372 137.594 63.0378C137.594 59.6385 137.711 56.8877 137.857 56.8877Z" fill="#EBEBEB"/>
<path d="M133.066 51.9512C133.211 51.9512 133.328 57.1117 133.328 63.4799C133.328 69.8481 133.211 75.0086 133.066 75.0086C132.92 75.0086 132.803 69.8481 132.803 63.4799C132.803 57.1117 132.92 51.9512 133.066 51.9512Z" fill="#EBEBEB"/>
<path d="M128.374 56.8877C128.519 56.8877 128.637 59.6385 128.637 63.0378C128.637 66.4372 128.519 69.188 128.374 69.188C128.229 69.188 128.111 66.4372 128.111 63.0378C128.111 59.6385 128.229 56.8877 128.374 56.8877Z" fill="#EBEBEB"/>
<path d="M123.88 59.8848C124.025 59.8848 124.148 61.3943 124.148 63.2394C124.148 65.0844 124.025 66.594 123.88 66.594C123.735 66.594 123.617 65.09 123.617 63.2394C123.617 61.3888 123.735 59.8848 123.88 59.8848Z" fill="#EBEBEB"/>
<path d="M236.466 56.8877C236.611 56.8877 236.729 59.6385 236.729 63.0378C236.729 66.4372 236.611 69.188 236.466 69.188C236.321 69.188 236.203 66.4372 236.203 63.0378C236.203 59.6385 236.321 56.8877 236.466 56.8877Z" fill="#EBEBEB"/>
<path d="M231.675 51.9512C231.82 51.9512 231.938 57.1117 231.938 63.4799C231.938 69.8481 231.82 75.0086 231.675 75.0086C231.53 75.0086 231.412 69.8481 231.412 63.4799C231.412 57.1117 231.53 51.9512 231.675 51.9512Z" fill="#EBEBEB"/>
<path d="M226.983 56.8877C227.129 56.8877 227.246 59.6385 227.246 63.0378C227.246 66.4372 227.129 69.188 226.983 69.188C226.838 69.188 226.721 66.4372 226.721 63.0378C226.721 59.6385 226.838 56.8877 226.983 56.8877Z" fill="#EBEBEB"/>
<path d="M222.493 59.8848C222.639 59.8848 222.756 61.3943 222.756 63.2394C222.756 65.0844 222.639 66.594 222.493 66.594C222.348 66.594 222.23 65.09 222.23 63.2394C222.23 61.3888 222.348 59.8848 222.493 59.8848Z" fill="#EBEBEB"/>
<path d="M242.319 59.8848C242.465 59.8848 242.582 61.3943 242.582 63.2394C242.582 65.0844 242.465 66.594 242.319 66.594C242.174 66.594 242.057 65.09 242.057 63.2394C242.057 61.3888 242.174 59.8848 242.319 59.8848Z" fill="#EBEBEB"/>
<path d="M205.704 244.3C193.353 238.994 188.019 225.509 185.844 212.839C185.481 210.726 184.793 208.562 185.414 206.51C186.034 204.459 188.103 202.725 190.166 203.223C191.877 203.631 192.928 205.308 194.113 206.628C195.691 208.387 197.734 209.664 200.006 210.312C201.488 210.726 203.227 210.81 204.395 209.809C206 208.439 205.698 205.895 205.256 203.804C204.421 199.92 203.592 196.035 202.768 192.147C202.327 190.062 201.879 187.931 202.12 185.812C202.36 183.693 203.411 181.558 205.284 180.596C207.157 179.634 209.847 180.266 210.691 182.223C211.043 183.034 211.049 183.956 211.289 184.812C211.529 185.667 212.128 186.539 213 186.612C213.872 186.685 214.599 185.919 215.097 185.181C216.813 182.626 217.713 179.59 218.524 176.626C219.335 173.663 220.089 170.599 221.571 167.899C223.053 165.198 225.378 162.811 228.331 162.028C231.283 161.245 234.855 162.425 236.22 165.204C237.584 167.983 236.482 171.354 235.101 174.105C233.061 178.213 230.436 182.004 227.307 185.36C226.748 185.963 226.139 186.612 226.044 187.439C225.882 188.927 227.486 190.034 228.951 190.207C230.628 190.408 232.272 189.894 233.938 189.749C235.604 189.603 237.522 189.961 238.456 191.37C239.753 193.327 238.456 195.932 236.974 197.76C234.062 201.417 230.543 204.545 226.569 207.008C225.155 207.886 223.64 208.713 222.622 210.05C221.605 211.386 221.247 213.404 222.298 214.735C223.349 216.066 225.367 216.127 226.916 215.495C228.465 214.863 229.712 213.689 231.137 212.795C233.782 211.117 237.528 210.558 239.882 212.655C241.425 214.036 242.001 216.284 241.788 218.352C241.485 220.411 240.772 222.388 239.692 224.167C236.208 230.513 231.216 236.07 225.037 239.755C218.859 243.439 212.815 245.346 205.704 244.284" fill="#F5F5F5"/>
<path d="M207.348 235.745C208.022 228.463 209.112 221.226 210.613 214.069C211.004 212.164 211.377 210.284 211.731 208.428C212.117 206.577 212.491 204.743 212.972 202.971C213.905 199.572 215.025 196.227 216.327 192.952C217.546 189.815 218.815 186.885 220.023 184.151C221.23 181.417 222.415 178.896 223.59 176.642C225.421 173.075 227.534 169.66 229.908 166.428C230.746 165.281 231.423 164.415 231.892 163.833L232.451 163.179C232.508 163.103 232.572 163.032 232.642 162.967C232.597 163.052 232.544 163.132 232.485 163.207L231.976 163.884C231.529 164.482 230.858 165.36 230.053 166.517C227.735 169.776 225.665 173.204 223.858 176.771C222.701 179.007 221.538 181.557 220.341 184.285C219.145 187.014 217.892 189.955 216.685 193.086C215.39 196.359 214.274 199.7 213.341 203.094C212.866 204.855 212.497 206.672 212.117 208.528C211.737 210.384 211.356 212.263 210.999 214.164C209.499 221.308 208.399 228.529 207.705 235.796" fill="#E0E0E0"/>
<path d="M213.079 202.937C212.923 202.668 212.793 202.383 212.693 202.088C212.464 201.529 212.134 200.718 211.799 199.711C211.072 197.693 210.166 194.87 209.182 191.755C208.198 188.641 207.248 185.84 206.498 183.838C206.124 182.838 205.811 182.033 205.587 181.473C205.456 181.192 205.354 180.898 205.285 180.596C205.46 180.852 205.608 181.125 205.727 181.412C205.995 181.971 206.347 182.748 206.75 183.738C207.577 185.723 208.567 188.518 209.546 191.638C210.524 194.758 211.385 197.497 212.056 199.622C212.363 200.578 212.615 201.389 212.827 202.037C212.947 202.326 213.031 202.628 213.079 202.937Z" fill="#E0E0E0"/>
<path d="M238.888 192.37C238.554 192.522 238.206 192.64 237.848 192.722C237.172 192.924 236.171 193.214 234.991 193.611C232.587 194.383 229.305 195.568 225.738 197.033C222.171 198.498 219.029 199.974 216.748 201.103C215.63 201.662 214.701 202.138 214.075 202.462C213.76 202.652 213.426 202.811 213.08 202.937C213.366 202.703 213.675 202.499 214.003 202.328C214.606 201.959 215.495 201.444 216.619 200.857C218.856 199.661 222.015 198.146 225.565 196.664C228.613 195.4 231.724 194.291 234.885 193.343C236.098 192.98 237.094 192.728 237.787 192.571C238.147 192.471 238.516 192.403 238.888 192.37Z" fill="#E0E0E0"/>
<path d="M207.55 235.187C207.455 235.099 207.371 235.002 207.298 234.896L206.638 234.018C206.079 233.258 205.274 232.128 204.307 230.725C202.378 227.93 199.834 223.954 197.083 219.543C194.333 215.132 191.828 211.156 189.96 208.305L187.724 204.95L187.126 204.033C187.046 203.929 186.982 203.815 186.936 203.692C187.032 203.778 187.116 203.876 187.187 203.983L187.847 204.861C188.406 205.627 189.217 206.751 190.178 208.154C192.107 210.95 194.651 214.925 197.402 219.336C200.153 223.747 202.658 227.723 204.525 230.574L206.761 233.929L207.348 234.851C207.431 234.953 207.499 235.066 207.55 235.187Z" fill="#E0E0E0"/>
<path d="M240.85 216.316C240.752 216.404 240.643 216.477 240.526 216.534L239.559 217.094L235.997 219.118C232.989 220.828 228.857 223.244 224.301 225.916C219.744 228.589 215.584 230.948 212.559 232.625C211.039 233.447 209.797 234.107 208.931 234.538L207.936 235.035C207.822 235.101 207.699 235.152 207.572 235.186C207.572 235.186 207.679 235.097 207.897 234.963L208.858 234.403L212.425 232.379C215.433 230.663 219.565 228.253 224.122 225.581C228.678 222.908 232.838 220.549 235.863 218.872C237.384 218.044 238.625 217.39 239.486 216.954L240.487 216.462C240.601 216.397 240.723 216.348 240.85 216.316Z" fill="#E0E0E0"/>
<path d="M4.90246 144.584C4.90246 144.584 -1.05759 147.016 5.85853 159.68C12.7746 172.344 17.5047 178.555 17.5047 178.555C17.5047 178.555 18.7515 181.502 16.2579 182.038C13.7643 182.575 8.21235 181.848 7.18919 184.94C6.12131 188.161 8.51986 191.09 13.2834 193.595C18.047 196.1 28.2842 201.976 29.2067 202.485C30.1292 202.994 31.0462 204.375 29.408 205.012C27.7698 205.649 15.3745 207.304 16.515 213.136C17.6556 218.967 32.0749 223.759 33.6404 224.318C35.2059 224.877 35.5917 225.514 35.491 226.37C35.3904 227.225 31.1748 227.387 27.6636 228.002C24.1524 228.617 20.2107 229.931 21.1668 233.241C22.1229 236.551 30.761 243.305 51.3584 244.725L60.9414 244.759L65.8951 236.523C75.4725 218.246 74.2481 207.332 71.9167 204.8C69.5852 202.267 66.3871 204.939 64.0277 207.595C61.6683 210.251 59.32 213.745 58.5429 213.399C57.7657 213.052 57.4247 212.37 57.7601 210.748C58.0956 209.127 61.59 194.333 57.201 190.313C52.8121 186.293 44.9007 195.971 43.5254 197.022C42.15 198.073 41.4511 196.575 41.479 195.53C41.507 194.484 41.8816 182.67 42.2506 177.303C42.6196 171.935 41.3728 168.357 38.0741 167.574C34.8928 166.825 32.6005 171.93 30.8057 173.775C29.011 175.62 27.1883 173.014 27.1883 173.014C27.1883 173.014 24.3593 165.746 17.2083 153.211C10.0574 140.676 4.78505 144.64 4.78505 144.64" fill="#EBEBEB"/>
<path d="M61.4669 247C56.2504 237.78 47.26 221.242 39.4661 207.085C31.6722 192.929 24.6051 180.125 19.439 170.883C16.856 166.271 14.7593 162.536 13.2889 159.947L11.6116 156.967L11.1811 156.19C11.086 156.017 11.0469 155.922 11.0469 155.922C11.0469 155.922 11.1084 156.006 11.209 156.179L11.6619 156.939L13.3727 159.886C14.86 162.452 16.9846 166.17 19.59 170.783C24.8008 179.997 31.8903 192.789 39.7177 206.94C47.5452 221.091 56.4908 237.652 61.6458 246.894" fill="#E0E0E0"/>
<path d="M14.9043 186.265C15.1336 186.291 15.3589 186.346 15.5752 186.427C16.0057 186.555 16.6207 186.751 17.3755 186.986C18.8851 187.489 20.9538 188.238 23.2182 189.11L28.9937 191.352L30.7549 192.023C30.9765 192.089 31.1902 192.179 31.3923 192.292C31.1611 192.265 30.9341 192.21 30.7158 192.13C30.2908 192.007 29.6758 191.805 28.921 191.571C27.417 191.051 25.3595 190.273 23.0952 189.407L17.2861 187.198L15.5249 186.539C15.3088 186.47 15.1007 186.378 14.9043 186.265Z" fill="#E0E0E0"/>
<path d="M32.0462 191.683C31.9679 191.683 33.3265 187.327 35.0821 182.01C36.8377 176.693 38.3249 172.405 38.4032 172.433C38.4815 172.461 37.1173 176.788 35.3617 182.105C33.6061 187.422 32.1245 191.711 32.0462 191.683Z" fill="#E0E0E0"/>
<path d="M43.0332 213.963C43.134 213.749 43.2578 213.546 43.4022 213.359L44.5204 211.777C45.4373 210.435 46.7009 208.584 48.0148 206.487C49.3287 204.391 50.4581 202.456 51.2688 201.047C51.6434 200.382 51.9677 199.823 52.2249 199.37C52.325 199.157 52.4528 198.957 52.6051 198.777C52.5335 199.002 52.4399 199.219 52.3255 199.426C52.1298 199.834 51.8335 200.421 51.4477 201.142C50.6929 202.579 49.5859 204.536 48.2664 206.638C46.9469 208.741 45.6554 210.552 44.6937 211.888C44.2073 212.542 43.8104 213.068 43.5252 213.42C43.3815 213.618 43.2165 213.8 43.0332 213.963Z" fill="#E0E0E0"/>
<path d="M26.4512 212.47C26.6683 212.442 26.8882 212.442 27.1053 212.47L28.8777 212.559C30.3761 212.643 32.4448 212.789 34.7315 212.962C37.0182 213.135 39.0813 213.314 40.5741 213.46L42.3409 213.644C42.5588 213.652 42.7749 213.688 42.9839 213.75C42.7667 213.778 42.5469 213.778 42.3297 213.75L40.5574 213.661C39.059 213.571 36.9903 213.432 34.7091 213.253C32.428 213.074 30.3593 212.906 28.8665 212.761L27.0941 212.599C26.8755 212.581 26.6596 212.538 26.4512 212.47Z" fill="#E0E0E0"/>
<path d="M33.6523 233.37C33.9311 233.34 34.2122 233.34 34.491 233.37L36.7666 233.476C38.6843 233.576 41.34 233.739 44.2641 233.934C47.1882 234.13 49.8552 234.331 51.7617 234.493L54.0317 234.689C54.3107 234.701 54.5878 234.74 54.8591 234.806C54.58 234.828 54.2996 234.828 54.0205 234.806L51.7449 234.7C49.8272 234.6 47.1771 234.437 44.2474 234.236C41.3177 234.035 38.6563 233.845 36.7498 233.677L34.4798 233.476C34.2011 233.469 33.9238 233.433 33.6523 233.37Z" fill="#E0E0E0"/>
<path d="M54.3613 234.622C54.4901 234.352 54.6416 234.094 54.8142 233.85L56.1225 231.787C57.2407 230.048 58.7391 227.644 60.3381 224.938C61.9372 222.232 63.3182 219.749 64.3078 217.943C64.7886 217.077 65.18 216.356 65.4819 215.802C65.613 215.533 65.7683 215.277 65.946 215.036C65.8494 215.319 65.7297 215.594 65.5881 215.858C65.3421 216.378 64.9675 217.127 64.4979 218.039C63.553 219.872 62.1944 222.383 60.5842 225.089C58.9739 227.795 57.442 230.193 56.2958 231.904C55.7367 232.76 55.2447 233.447 54.9037 233.911C54.7445 234.164 54.563 234.402 54.3613 234.622Z" fill="#E0E0E0"/>
<path d="M79.4647 4.4834H14.1055V112.676H79.4647V4.4834Z" fill="#E0E0E0"/>
<path d="M77.2889 4.4834H11.9297V112.676H77.2889V4.4834Z" fill="#EBEBEB"/>
<path d="M74.511 6.68066H14.7148V110.484H74.511V6.68066Z" fill="#FAFAFA"/>
<path d="M65.838 55.7254C68.6388 43.9686 61.3786 32.1673 49.6218 29.3664C37.865 26.5655 26.0637 33.8257 23.2628 45.5825C20.462 57.3393 27.7222 69.1407 39.479 71.9415C51.2358 74.7424 63.0371 67.4822 65.838 55.7254Z" fill="#E0E0E0"/>
<path d="M53.5267 50.6488C53.5334 52.4261 53.0124 54.1654 52.0298 55.6465C51.0472 57.1275 49.6472 58.2836 48.007 58.9684C46.3669 59.6531 44.5604 59.8357 42.8164 59.4931C41.0724 59.1504 39.4693 58.2979 38.2102 57.0435C36.9511 55.7891 36.0926 54.1892 35.7434 52.4465C35.3942 50.7038 35.57 48.8966 36.2486 47.2539C36.9273 45.6112 38.0781 44.2069 39.5555 43.2188C41.0328 42.2306 42.7702 41.7031 44.5475 41.7031C46.9236 41.7016 49.2033 42.6426 50.8866 44.3196C52.5698 45.9966 53.5193 48.2727 53.5267 50.6488Z" fill="#EBEBEB"/>
<path d="M51.1232 51.8202C51.9767 48.2239 49.7532 44.6167 46.1569 43.7632C42.5606 42.9098 38.9534 45.1333 38.1 48.7296C37.2465 52.3259 39.47 55.9331 43.0663 56.7865C46.6626 57.6399 50.2698 55.4164 51.1232 51.8202Z" fill="#FAFAFA"/>
<path d="M56.4245 87.8184H32.998V91.2177H56.4245V87.8184Z" fill="#E0E0E0"/>
<path d="M37.9397 58.5762C38.0068 58.6601 36.2624 60.2535 34.026 62.121C31.7895 63.9884 29.9557 65.4756 29.8886 65.3749C29.8215 65.2743 31.5659 63.6976 33.8023 61.8302C36.0387 59.9628 37.8558 58.498 37.9397 58.5762Z" fill="white"/>
<path d="M37.0163 57.1675C37.0778 57.2514 36.0211 58.1851 34.7128 59.3312C33.4045 60.4774 32.3422 61.4111 32.2695 61.3328C32.1968 61.2545 33.1473 60.2146 34.4668 59.0461C35.7863 57.8776 36.9492 57.106 37.0163 57.1675Z" fill="white"/>
<path d="M58.9668 38.5659C59.0283 38.661 57.541 39.6841 55.819 41.0427C54.097 42.4014 52.7831 43.637 52.7048 43.5587C52.6265 43.4804 53.823 42.1386 55.5842 40.7632C57.3454 39.3878 58.9164 38.4821 58.9668 38.5659Z" fill="white"/>
<path d="M60.1141 35.3626C60.1812 35.4465 58.7946 36.5703 57.0223 37.8674C55.2499 39.1646 53.7627 40.1542 53.7012 40.0703C53.6397 39.9864 55.0263 38.8626 56.7986 37.5655C58.571 36.2684 60.0526 35.2956 60.1141 35.3626Z" fill="white"/>
<path d="M243.333 244.903C243.333 244.981 189.418 245.049 122.93 245.049C56.4412 245.049 2.51562 244.981 2.51562 244.903C2.51562 244.825 56.4188 244.758 122.93 244.758C189.441 244.758 243.333 244.825 243.333 244.903Z" fill="#263238"/>
<path d="M212.705 152.635C213.456 151.612 213.777 150.335 213.6 149.079C213.041 145.165 211.805 136.572 211.363 133.938C210.804 130.483 206.365 130.231 206.365 130.231L198.716 140.223C198.474 140.538 198.168 140.8 197.819 140.991C197.47 141.182 197.084 141.299 196.688 141.332C196.291 141.366 195.891 141.316 195.515 141.187C195.138 141.058 194.793 140.851 194.501 140.58L193.802 139.088L195.653 136.438C199.566 137.181 199.98 132.524 199.98 132.524L193.931 132.328L189.217 137.427L188.312 156.912L162.453 186.36C162.453 186.36 137.97 147.033 137.332 146.205L122.701 146.065L120.33 180.322L137.808 202.825C142.985 210.278 151.489 217.737 160.558 218.145C171.74 218.643 176.939 212.671 183.581 202.087L206.74 161.273L199.572 159.54L206.477 161.133L212.705 152.635Z" fill="#FFBE9D"/>
<path d="M162.302 202.618C162.23 202.618 162.023 201.735 161.849 200.264C161.639 198.345 161.562 196.413 161.62 194.483C161.687 192.219 161.877 190.189 162.051 188.719C162.224 187.248 162.369 186.354 162.453 186.359C162.537 186.365 162.526 187.282 162.453 188.752C162.381 190.223 162.263 192.258 162.196 194.494C162.062 198.978 162.476 202.596 162.302 202.618Z" fill="#EB996E"/>
<path d="M51.1808 93.2129C49.6321 97.6074 45.9644 104.552 41.9668 108.124C38.087 111.557 35.4199 116.152 34.363 121.224C33.7144 124.103 34.1729 127.162 33.3622 130.002C31.9085 135.09 26.653 138.623 25.9373 143.868C25.2776 148.737 32.8311 149.817 33.0044 154.72C33.3342 163.951 38.5227 163.352 42.6154 162.368C45.5003 161.675 47.3845 158.98 48.8829 156.425C56.6569 143.098 61.1847 128.128 62.1001 112.726" fill="#263238"/>
<path d="M95.2773 32.7455C101.595 30.811 109.395 30.2295 114.773 34.3613C119.593 38.0625 121.734 46.0521 123.607 51.8389C124.994 56.1272 126.403 60.4602 126.878 64.9443C127.303 68.8188 127.046 72.7326 126.956 76.6295C126.783 84.2166 127.381 92.2509 131.658 98.524C134.146 102.175 137.808 105.082 139.447 109.175C141.085 113.268 145.244 143.146 135.348 143.146L98.1735 119.871L95.2773 32.7455Z" fill="#263238"/>
<path d="M69.8102 118.009C69.3316 117.996 68.853 118.039 68.3845 118.138C64.7112 118.915 48.0778 122.672 44.4828 127.71C40.4293 133.379 37.002 156.615 39.1657 163.101C40.9828 168.558 53.5515 214.807 57.4876 229.316C57.8276 230.565 58.5641 231.671 59.5864 232.467C60.6088 233.262 61.8617 233.704 63.1569 233.727L131.977 234.962C133.515 234.99 135.005 234.425 136.137 233.384C137.27 232.343 137.958 230.906 138.06 229.371C138.971 215.528 141.141 180.618 140.296 172.455C139.704 166.729 129.757 143.94 124.082 131.316C121.689 125.976 117.742 121.252 112.051 119.921C110.826 119.631 103.474 119.021 102.221 118.982L69.8102 118.009Z" fill="#FFC000"/>
<g opacity="0.3">
<path d="M43.5332 171.409C46.3908 179.877 50.0802 188.04 54.5475 195.78C58.2041 202.11 62.4701 208.248 68.268 212.699C74.0659 217.149 81.6194 219.744 88.7815 218.29C94.0349 217.23 98.6533 214.129 101.624 209.668C104.594 205.207 105.674 199.75 104.626 194.495C104.011 191.414 102.424 188.238 99.5275 187.019C96.1169 185.588 92.3038 187.31 88.7871 188.462C84.2393 189.913 79.4417 190.413 74.6923 189.933C69.943 189.452 65.3431 188 61.1785 185.666C54.7153 182.01 49.6163 176.34 44.6514 170.777" fill="black"/>
</g>
<path d="M112.066 119.933C112.066 119.933 131.406 122.007 136.035 132.445C140.665 142.884 151.886 160.887 151.886 160.887L130.042 168.686L112.066 119.933Z" fill="#FFC000"/>
<path d="M39.8531 173.065C39.8531 173.065 52.0472 165.578 61.9377 161.323C71.6214 157.169 75.1438 154.944 75.1438 154.944L65.5104 131.993C62.1558 123.047 51.4825 118.999 43.2525 123.897C43.0568 124.009 42.8723 124.126 42.6934 124.244C38.1646 127.212 33.2333 136.773 34.7597 146.44C35.7046 152.534 39.8531 173.065 39.8531 173.065Z" fill="#FFC000"/>
<path d="M125.363 143.118C125.474 143.227 125.575 143.344 125.665 143.47L126.487 144.516C127.197 145.433 128.209 146.752 129.411 148.43C131.804 151.784 135.047 156.565 137.35 162.469C138.454 165.232 139.274 168.1 139.799 171.029C139.866 171.364 139.928 171.694 139.989 172.024C140.051 172.354 140.079 172.684 140.118 173.002C140.202 173.645 140.286 174.271 140.364 174.875C140.453 176.089 140.532 177.218 140.588 178.23C140.644 179.242 140.588 180.198 140.588 181.025C140.588 181.853 140.521 182.552 140.493 183.128C140.465 183.704 140.431 184.128 140.409 184.458C140.402 184.612 140.387 184.765 140.364 184.917C140.348 184.762 140.348 184.607 140.364 184.453C140.364 184.123 140.364 183.681 140.392 183.122C140.42 182.563 140.453 181.842 140.437 181.02C140.42 180.198 140.398 179.264 140.375 178.224C140.353 177.184 140.219 176.066 140.118 174.87C140.034 174.271 139.95 173.651 139.861 173.013L139.727 172.041C139.66 171.711 139.598 171.381 139.531 171.051C138.993 168.143 138.171 165.295 137.077 162.547C134.784 156.682 131.581 151.924 129.249 148.519C128.075 146.842 127.085 145.478 126.403 144.538L125.626 143.459C125.532 143.351 125.444 143.237 125.363 143.118Z" fill="#263238"/>
<path d="M76.2736 233.844C76.2736 233.844 76.117 233.799 75.8487 233.66C75.4628 233.467 75.0893 233.25 74.7304 233.011C72.3772 231.452 70.4544 229.325 69.1394 226.827C68.9402 226.452 68.7628 226.066 68.6083 225.67C68.5369 225.529 68.4879 225.378 68.4629 225.223C68.5076 225.223 68.7872 225.782 69.3183 226.727C70.0197 227.923 70.8382 229.047 71.7616 230.081C72.6917 231.106 73.7239 232.034 74.8423 232.849C75.7312 233.453 76.3015 233.788 76.2736 233.844Z" fill="#263238"/>
<path d="M80.736 234.135C80.3922 233.78 80.0936 233.384 79.8471 232.955C78.5555 230.94 77.6545 228.7 77.1913 226.352C77.0702 225.872 77.012 225.377 77.018 224.882C77.1742 225.348 77.2993 225.825 77.3926 226.308C77.6827 227.448 78.0469 228.569 78.4829 229.662C78.9236 230.754 79.4373 231.815 80.0204 232.838C80.2931 233.251 80.5324 233.684 80.736 234.135Z" fill="#263238"/>
<path d="M135.661 159.388C135.661 159.472 127.493 160.507 117.401 161.748C107.309 162.989 99.1072 163.895 99.1016 163.811C99.096 163.727 107.264 162.693 117.362 161.457C127.459 160.222 135.65 159.31 135.661 159.388Z" fill="#FAFAFA"/>
<path d="M135.017 135.643C135.017 135.721 125.854 137.684 114.515 140.021C103.176 142.358 93.968 144.192 93.9512 144.113C93.9344 144.035 103.115 142.073 114.454 139.736C125.792 137.399 135.001 135.565 135.017 135.643Z" fill="#FAFAFA"/>
<path d="M143.954 149.229C143.954 149.229 143.848 149.364 143.624 149.565C143.311 149.85 142.983 150.117 142.64 150.364C140.371 152.03 137.757 153.165 134.991 153.686C134.575 153.766 134.155 153.824 133.733 153.859C133.578 153.883 133.419 153.883 133.264 153.859C133.816 153.701 134.376 153.573 134.941 153.473C136.282 153.159 137.592 152.725 138.855 152.176C140.125 151.623 141.343 150.956 142.494 150.186C143.406 149.604 143.92 149.196 143.954 149.229Z" fill="#FAFAFA"/>
<path d="M121.645 123.539C121.645 123.617 117.675 123.953 112.766 124.288C107.857 124.624 103.871 124.847 103.865 124.741C103.86 124.635 107.835 124.327 112.744 123.997C117.653 123.667 121.639 123.455 121.645 123.539Z" fill="#FAFAFA"/>
<path d="M66.2092 143.633C66.2428 143.706 59.9081 146.429 52.0639 149.744C44.2197 153.06 37.8403 155.66 37.8068 155.57C37.7732 155.481 44.1079 152.775 51.9521 149.459C59.7963 146.144 66.1757 143.561 66.2092 143.633Z" fill="#FAFAFA"/>
<path d="M62.1451 130.751C62.0562 130.798 61.9624 130.835 61.8655 130.863L61.0604 131.142L58.0692 132.132C55.5588 132.97 52.1036 134.156 48.3129 135.542C44.5221 136.929 41.1284 138.276 38.6739 139.26L35.7666 140.435L34.9726 140.742C34.8822 140.785 34.7862 140.815 34.6875 140.832C34.7703 140.776 34.8583 140.73 34.9503 140.692L35.7218 140.328C36.3928 140.021 37.3992 139.59 38.5956 139.07C41.0277 138.036 44.4215 136.666 48.2122 135.268C52.0029 133.871 55.4806 132.724 58.0021 131.914C59.2657 131.522 60.2945 131.215 61.0045 131.014L61.8264 130.784C61.9305 130.758 62.0378 130.747 62.1451 130.751Z" fill="#FAFAFA"/>
<path d="M51.8569 189.44C50.8304 189.538 49.7971 189.538 48.7707 189.44C47.7401 189.43 46.7126 189.325 45.7012 189.127C46.7276 189.03 47.761 189.03 48.7874 189.127C49.818 189.138 50.8455 189.243 51.8569 189.44Z" fill="#FAFAFA"/>
<path d="M67.9199 206.051C67.6587 206.066 67.3966 206.057 67.1372 206.023C66.634 205.995 65.9071 205.922 65.0126 205.822C63.2234 205.615 60.7578 205.263 58.0685 204.703C55.3792 204.144 52.9751 203.468 51.2586 202.931C50.3976 202.663 49.7043 202.434 49.2346 202.26C48.9839 202.184 48.7406 202.084 48.5078 201.964C48.7673 201.997 49.0223 202.059 49.2682 202.148L51.3145 202.735C53.0477 203.222 55.4463 203.854 58.13 204.413C60.8137 204.972 63.2626 205.38 65.0405 205.632L67.1483 205.928C67.4089 205.944 67.6673 205.985 67.9199 206.051Z" fill="#FAFAFA"/>
<path d="M139.441 205.766C139.309 205.797 139.174 205.816 139.039 205.822L137.887 205.934C136.886 206.023 135.438 206.13 133.643 206.241C130.054 206.465 125.095 206.678 119.61 206.711C114.125 206.745 109.155 206.588 105.565 206.409C103.77 206.314 102.317 206.225 101.316 206.146L100.164 206.051C100.029 206.045 99.8944 206.028 99.7617 206.001C99.8974 205.988 100.034 205.988 100.17 206.001L101.322 206.04L105.576 206.208C109.166 206.336 114.125 206.454 119.604 206.426C125.084 206.398 130.043 206.213 133.632 206.04L137.881 205.822L139.039 205.772C139.172 205.755 139.307 205.753 139.441 205.766Z" fill="#FAFAFA"/>
<path d="M139.699 182.1C139.584 182.155 139.464 182.199 139.341 182.228L138.295 182.53C137.389 182.793 136.059 183.134 134.426 183.52C125.852 185.53 117.078 186.565 108.271 186.606C106.594 186.606 105.219 186.606 104.274 186.544L103.189 186.494C103.063 186.494 102.938 186.481 102.814 186.455C102.941 186.44 103.068 186.44 103.195 186.455H104.279C105.219 186.455 106.583 186.455 108.271 186.427C111.626 186.366 116.294 186.136 121.405 185.532C126.515 184.929 131.088 184.068 134.376 183.341C136.025 182.983 137.35 182.67 138.29 182.441L139.346 182.195C139.461 182.154 139.579 182.122 139.699 182.1Z" fill="#FAFAFA"/>
<path d="M137.696 224.418H137.484L136.852 224.452L134.431 224.552C132.329 224.642 129.282 224.731 125.519 224.804C117.993 224.949 107.589 224.955 96.1102 224.502C84.6318 224.049 74.2827 223.222 66.7628 222.489C63.0168 222.115 59.9921 221.785 57.901 221.528L55.4969 221.231L54.8707 221.147L54.6582 221.114C54.7306 221.105 54.8038 221.105 54.8762 221.114L55.5025 221.17L57.9122 221.41C60.0032 221.634 63.0392 221.93 66.7852 222.277C74.2772 222.97 84.6429 223.764 96.1213 224.228C107.6 224.692 117.993 224.709 125.519 224.614C129.282 224.569 132.323 224.513 134.431 224.457L136.852 224.407H137.696V224.418Z" fill="#FAFAFA"/>
<path d="M119.012 59.2922C118.581 49.7203 105.42 38.7507 95.8761 39.5838L67.9209 46.1588V51.3026L67.6526 121.342C67.6406 123.724 68.107 126.085 69.024 128.284C69.9411 130.483 71.2902 132.476 72.9914 134.145C74.6926 135.813 76.7113 137.123 78.9279 137.997C81.1446 138.871 83.5141 139.291 85.8961 139.233C90.5585 139.119 94.9904 137.181 98.2403 133.836C101.49 130.491 103.299 126.005 103.279 121.342C103.279 114.409 103.2 108.527 103.2 108.527C103.2 108.527 115.45 106.715 118.263 90.8256C119.672 82.9255 119.504 69.9263 119.012 59.2922Z" fill="#FFBE9D"/>
<path d="M115.523 69.4679C115.519 70.001 115.306 70.5113 114.932 70.8904C114.557 71.2694 114.049 71.4872 113.516 71.4974C113.255 71.5133 112.995 71.4769 112.749 71.3906C112.503 71.3042 112.276 71.1696 112.083 70.9946C111.89 70.8196 111.734 70.6077 111.623 70.3715C111.513 70.1352 111.451 69.8793 111.441 69.6188C111.446 69.0857 111.658 68.5753 112.033 68.1963C112.408 67.8172 112.916 67.5995 113.449 67.5893C113.709 67.5719 113.971 67.6071 114.217 67.6929C114.464 67.7787 114.691 67.9132 114.884 68.0885C115.078 68.2638 115.234 68.4763 115.344 68.7132C115.454 68.9502 115.514 69.2069 115.523 69.4679Z" fill="#263238"/>
<path d="M116.087 66.0014C115.83 66.2642 114.298 65.0901 112.101 65.0566C109.904 65.023 108.271 66.0965 108.036 65.8225C107.919 65.6995 108.187 65.2243 108.897 64.7043C109.861 64.0616 110.999 63.7316 112.157 63.7594C113.302 63.7777 114.411 64.1573 115.327 64.8441C115.992 65.3976 116.216 65.884 116.087 66.0014Z" fill="#263238"/>
<path d="M94.0424 69.4675C94.0367 70.0002 93.8241 70.5097 93.4495 70.8885C93.075 71.2672 92.5678 71.4855 92.0352 71.4971C91.7748 71.5137 91.5137 71.4779 91.2674 71.3918C91.0211 71.3058 90.7946 71.1712 90.6012 70.996C90.4078 70.8209 90.2515 70.6087 90.1415 70.3721C90.0315 70.1355 89.9701 69.8792 89.9609 69.6185C89.9623 69.0854 90.1728 68.5742 90.5471 68.1947C90.9213 67.8152 91.4296 67.5977 91.9625 67.5889C92.2232 67.5723 92.4846 67.6081 92.7312 67.6941C92.9778 67.7801 93.2048 67.9145 93.3986 68.0896C93.5924 68.2647 93.7493 68.4768 93.8598 68.7135C93.9704 68.9501 94.0325 69.2065 94.0424 69.4675Z" fill="#263238"/>
<path d="M94.4606 66.0296C94.2035 66.2923 92.6715 65.1182 90.4742 65.0847C88.277 65.0511 86.6444 66.1246 86.4095 65.8507C86.2977 65.7276 86.5605 65.2524 87.2762 64.7324C88.2392 64.0893 89.3782 63.7611 90.5357 63.7932C91.6787 63.8115 92.7864 64.1911 93.7003 64.8778C94.3656 65.4257 94.5892 65.9122 94.4606 66.0296Z" fill="#263238"/>
<path d="M102.155 82.4778C102.155 82.3548 103.519 82.1423 105.738 81.9187C106.298 81.874 106.857 81.7677 106.935 81.3875C107.013 81.0074 106.851 80.3756 106.588 79.7102L105.006 75.4051C102.809 69.255 101.226 64.2231 101.472 64.156C101.718 64.0889 103.709 68.9643 105.901 75.0976C106.43 76.6072 106.935 78.0497 107.416 79.4251C107.617 80.0681 107.975 80.8005 107.667 81.6335C107.583 81.8308 107.454 82.0061 107.292 82.1457C107.129 82.2853 106.936 82.3855 106.728 82.4387C106.416 82.5199 106.094 82.5594 105.772 82.5561C103.541 82.6176 102.16 82.6064 102.155 82.4778Z" fill="#263238"/>
<path d="M103.211 108.533C95.7035 108.513 88.3488 106.411 81.9648 102.461C81.9648 102.461 87.2819 113.498 103.261 112.29L103.211 108.533Z" fill="#EB996E"/>
<path d="M94.7639 60.2984C94.5403 60.891 92.3486 60.5723 89.7599 60.8575C87.1713 61.1426 85.0802 61.8023 84.728 61.26C84.577 60.9972 84.9516 60.4437 85.8015 59.8734C86.9354 59.1819 88.2119 58.7575 89.5342 58.6326C90.8564 58.5076 92.1898 58.6853 93.4332 59.1522C94.4117 59.538 94.859 60.0132 94.7639 60.2984Z" fill="#263238"/>
<path d="M116.127 57.0445C115.708 57.5756 113.89 57.1675 111.76 57.2737C109.63 57.3799 107.847 57.8328 107.388 57.3576C107.187 57.1171 107.444 56.6028 108.204 56.0772C109.256 55.4232 110.466 55.0659 111.704 55.0429C112.935 54.9771 114.16 55.2477 115.249 55.8256C116.032 56.2953 116.311 56.7929 116.127 57.0445Z" fill="#263238"/>
<path d="M96.1895 37.5991C99.5105 42.3068 103.011 47.171 108.07 49.933C109.748 50.8387 111.526 51.4929 113.197 52.3819C114.869 53.2708 117.927 55.1774 118.85 56.8211C119.772 58.4649 119.599 62.9713 119.599 62.9713C120.505 56.5863 118.811 48.1327 114.344 43.4809C112.084 41.1661 109.335 39.3863 106.298 38.2718C103.261 37.1573 100.014 36.7364 96.7933 37.04" fill="#263238"/>
<path d="M124.513 52.7727C124.379 52.8286 124.121 50.7991 122.07 48.4956C120.863 47.17 119.449 46.0501 117.882 45.1801C115.931 44.1274 113.929 43.1738 111.883 42.3231C108.118 40.718 104.664 38.4641 101.679 35.6641C100.778 34.8182 99.9343 33.9143 99.1519 32.9581C98.8368 32.6263 98.573 32.2494 98.3691 31.8399C98.4642 31.7616 99.6886 33.2488 102.015 35.2839C105.049 37.9292 108.479 40.0836 112.179 41.6689C114.248 42.5293 116.264 43.5113 118.217 44.6098C119.825 45.5405 121.259 46.7437 122.455 48.1657C123.265 49.1264 123.883 50.2327 124.278 51.4253C124.445 51.8544 124.525 52.3125 124.513 52.7727Z" fill="#455A64"/>
<path d="M102.954 88.5159C102.673 89.3321 102.279 90.1053 101.786 90.8138C101.534 91.1649 101.21 91.4585 100.836 91.6753C100.462 91.8922 100.046 92.0273 99.6165 92.0718C99.1545 92.0744 98.6994 91.9598 98.2936 91.7389C97.8879 91.5179 97.5447 91.1977 97.2963 90.8082C96.808 90.0208 96.5828 89.0986 96.6533 88.1748C96.6924 87.3474 97.0726 86.3521 97.8945 86.2571C98.2417 86.245 98.5862 86.322 98.8953 86.4807L103.234 88.2363" fill="#EB996E"/>
<path d="M101.22 92.0837C101.22 91.9495 100.247 92.3353 98.9055 91.7985C98.1484 91.5019 97.5274 90.9366 97.1611 90.2107C96.9528 89.7679 96.8398 89.2863 96.8292 88.7971C96.8186 88.3079 96.9107 87.8219 97.0996 87.3704C97.2007 87.1402 97.3283 86.9226 97.4798 86.7219C97.6531 86.543 97.6195 86.5541 97.8096 86.5821C97.9997 86.6101 98.2681 86.761 98.5029 86.8505L99.213 87.1412C100.141 87.5158 100.985 87.8457 101.695 88.114C103.116 88.6731 104.016 88.9191 104.055 88.8241C104.094 88.7291 103.278 88.265 101.908 87.6108C101.226 87.281 100.409 86.8952 99.4981 86.4926L98.7936 86.1795C98.5353 86.0551 98.2702 85.945 97.9997 85.8497C97.791 85.7806 97.5655 85.7806 97.3568 85.8497C97.1678 85.9299 97.0037 86.0593 96.8815 86.2243C96.6828 86.4759 96.5174 86.7522 96.3895 87.0462C96.1543 87.5989 96.0443 88.1969 96.0675 88.7972C96.0907 89.3975 96.2465 89.9852 96.5237 90.5182C96.9942 91.3798 97.7859 92.0208 98.7266 92.3017C99.3347 92.4954 99.9839 92.5205 100.605 92.3744C101.036 92.2738 101.237 92.1284 101.22 92.0837Z" fill="#263238"/>
<path d="M91.057 117.058C88.9939 112.06 81.9659 109.499 81.9324 104.087C81.9324 101.09 84.2079 98.5633 84.7782 95.6224C86.3381 87.5601 78.41 81.6448 76.7774 73.6049C75.3685 66.6608 80.7303 62.0314 85.5833 56.8709C90.4364 51.7104 101.797 39.8127 97.4699 34.1937C92.4044 27.7863 73.0147 33.0755 66.8869 38.4988C60.7591 43.9221 58.3326 52.3589 57.3094 60.4604C56.2863 68.5618 56.3534 76.8868 53.9045 84.6807C51.109 93.5985 48.3135 102.572 43.6953 110.696C36.4269 123.555 39.843 124.763 39.843 124.763C48.0115 125.635 54.0443 128.062 56.4317 133.105C56.8398 133.971 57.438 135.951 57.8015 136.834C63.2695 150.029 72.3382 159.562 80.7247 161.602C89.1113 163.643 89.2343 159.198 88.8876 150.582C88.7199 146.378 86.2934 142.47 86.3213 138.282C86.3773 130.846 93.9028 123.913 91.057 117.058Z" fill="#263238"/>
<path d="M75.8437 162.424C75.4419 162.141 75.0676 161.821 74.7255 161.468C73.7246 160.476 72.8699 159.346 72.1872 158.113C70.5016 155.035 69.9153 151.475 70.5252 148.019C71.135 144.563 72.9045 141.419 75.5418 139.104C76.8893 137.913 78.4715 136.901 79.6512 135.47C80.2569 134.761 80.6742 133.911 80.8645 132.998C81.0238 132.047 80.9761 131.073 80.7247 130.141C80.2215 128.212 79.1648 126.39 78.287 124.394C76.4632 120.132 76.1902 115.367 77.5154 110.925C78.1472 108.599 79.5226 106.53 80.4228 104.361C80.8947 103.286 81.1147 102.118 81.0658 100.945C80.9643 99.7581 80.6198 98.6048 80.0538 97.5568C78.9356 95.3986 77.3589 93.4753 75.9723 91.4905C74.5423 89.5638 73.2351 87.5489 72.0586 85.4578C70.8961 83.4206 70.0871 81.2012 69.6656 78.8939C69.289 76.6572 69.4189 74.3645 70.0458 72.1846C71.2591 67.9299 73.7974 64.497 76.4028 61.6791C79.0083 58.8612 81.7646 56.5297 84.0961 54.2654C86.2386 52.2819 88.1549 50.0674 89.8101 47.6623C91.048 45.842 92.0054 43.8461 92.6504 41.7414C93.1696 39.9253 93.3942 38.0377 93.3157 36.1504C93.4071 36.6314 93.4521 37.1201 93.4499 37.6096C93.4679 39.0235 93.2796 40.4323 92.8908 41.7917C92.2789 43.9465 91.3358 45.993 90.0953 47.858C88.4537 50.3143 86.5386 52.5764 84.3868 54.6008C82.0666 56.9043 79.3549 59.247 76.7774 62.0537C74.2 64.8604 71.7455 68.2374 70.6273 72.3356C70.04 74.4235 69.9235 76.6157 70.2862 78.7541C70.7098 80.9958 71.5114 83.1493 72.6568 85.1223C73.8343 87.186 75.1415 89.173 76.5706 91.0712C77.9571 93.056 79.5226 94.9849 80.7135 97.2213C81.3218 98.3573 81.6927 99.6052 81.8038 100.889C81.8522 102.165 81.6133 103.436 81.1049 104.607C80.1432 106.905 78.8182 108.873 78.2087 111.109C76.9178 115.396 77.1691 119.999 78.9188 124.12C79.7575 126.071 80.8309 127.927 81.3565 129.974C81.6278 130.993 81.6717 132.06 81.4851 133.099C81.2669 134.104 80.8041 135.039 80.1376 135.822C78.8517 137.348 77.2415 138.343 75.9276 139.501C74.6547 140.599 73.5771 141.906 72.7407 143.364C71.2825 145.884 70.5799 148.77 70.7167 151.678C70.8462 153.872 71.4388 156.014 72.4556 157.962C74.1664 161.16 75.9611 162.346 75.8437 162.424Z" fill="#455A64"/>
<path d="M63.8333 72.2631C63.8333 72.2631 59.0698 34.9765 81.4339 31.1299L84.9227 31.4653C84.9227 31.4653 67.2159 38.7337 69.5977 69.6242" fill="#FFC000"/>
<path d="M63.0682 87.0681C70.0375 87.0681 75.6872 81.0179 75.6872 73.5546C75.6872 66.0912 70.0375 60.041 63.0682 60.041C56.0989 60.041 50.4492 66.0912 50.4492 73.5546C50.4492 81.0179 56.0989 87.0681 63.0682 87.0681Z" fill="#FFC000"/>
<path d="M64.0626 60.041C64.2011 60.0463 64.3375 60.0766 64.4652 60.1305C64.8469 60.2406 65.2205 60.377 65.5834 60.5386C66.9124 61.1133 68.1108 61.9522 69.1057 63.0043C70.5566 64.6068 71.5763 66.5519 72.069 68.6568C72.7747 71.2088 72.7747 73.9044 72.069 76.4563C71.3705 79.0066 70.0017 81.3233 68.1049 83.1656C66.5622 84.6911 64.6269 85.7594 62.5139 86.2518C61.0961 86.5983 59.6112 86.5577 58.2144 86.1344C57.8402 86.0182 57.4802 85.8607 57.1409 85.6647C56.9061 85.5306 56.7943 85.4467 56.8054 85.4299C56.8166 85.4132 57.3198 85.6647 58.2815 85.9108C59.645 86.2325 61.0674 86.2075 62.4188 85.8381C64.4265 85.3068 66.2549 84.2468 67.7136 82.7686C69.5139 80.9781 70.8149 78.7481 71.4875 76.2998C72.153 73.8411 72.153 71.2497 71.4875 68.791C71.0386 66.7604 70.0979 64.8713 68.7479 63.2894C67.808 62.2454 66.6841 61.3831 65.4324 60.7455C64.9632 60.536 64.506 60.3008 64.0626 60.041Z" fill="#263238"/>
<path d="M74.0142 80.5604C73.8465 80.5604 73.7962 79.5596 72.9687 78.8551C72.1412 78.1507 71.1348 78.2569 71.118 78.0948C71.1013 77.9326 71.3305 77.8711 71.7666 77.8432C72.3467 77.8233 72.9133 78.0211 73.3551 78.3976C73.7968 78.7742 74.0818 79.3023 74.154 79.8783C74.1987 80.3144 74.0869 80.566 74.0142 80.5604Z" fill="#263238"/>
<path d="M73.489 76.4061C73.4331 76.5627 73.0417 76.5682 72.5944 76.5571C72.1471 76.5459 71.7557 76.5123 71.7054 76.3502C71.6551 76.1881 72.0577 75.942 72.6112 75.9588C73.1647 75.9756 73.5449 76.2551 73.489 76.4061Z" fill="#263238"/>
<path d="M73.4824 65.241C73.432 65.4032 72.8114 65.3417 72.1349 65.6212C71.4584 65.9008 71.0167 66.3425 70.8881 66.253C70.7595 66.1635 71.0223 65.4032 71.9169 65.0621C72.8114 64.721 73.5606 65.0957 73.4824 65.241Z" fill="#263238"/>
<path d="M70.9277 57.3347C71.0052 57.257 71.0938 57.191 71.1905 57.139L71.9621 56.6414C72.2975 56.429 72.7113 56.1662 73.1753 55.8419C73.6394 55.5177 74.1873 55.1654 74.7576 54.7237C75.9205 53.8962 77.2568 52.8451 78.6713 51.6151C80.2116 50.2671 81.6803 48.8394 83.0715 47.338C84.4569 45.8261 85.7632 44.2436 86.9852 42.5968C88.1034 41.0648 89.0315 39.6503 89.7807 38.4203C90.1609 37.8164 90.4628 37.2461 90.748 36.7429C91.0331 36.2397 91.2623 35.8148 91.4413 35.4626L91.8774 34.6519C91.9231 34.5535 91.9813 34.4614 92.0507 34.3779C92.0197 34.4797 91.9804 34.5788 91.9333 34.6743L91.5419 35.5129C91.3742 35.8763 91.1617 36.318 90.8877 36.8156C90.6138 37.3132 90.3286 37.9003 89.9596 38.4929C89.2496 39.7341 88.3215 41.1766 87.2256 42.7198C86.0079 44.3842 84.7015 45.9818 83.3119 47.5057C81.9011 49.013 80.4079 50.4409 78.8391 51.7828C77.563 52.9019 76.2286 53.9526 74.8415 54.9306C74.2824 55.3555 73.7233 55.691 73.2312 56.0041C72.7392 56.3172 72.3367 56.5632 71.9844 56.7644L71.1849 57.2229C71.103 57.2683 71.0168 57.3058 70.9277 57.3347Z" fill="#455A64"/>
<path d="M126.403 61.8363C126.358 61.8363 126.403 61.2212 126.174 60.1589C125.831 58.6444 125.231 57.1997 124.401 55.8874C123.183 53.9274 121.6 52.2192 119.738 50.8555C118.617 50.0901 117.439 49.4098 116.216 48.8203C114.952 48.1774 113.627 47.5512 112.269 46.8914C109.68 45.7207 107.204 44.3152 104.872 42.6925C102.978 41.331 101.339 39.6466 100.03 37.7165C99.151 36.4144 98.5163 34.9632 98.157 33.4338C98.0642 33.0173 97.9988 32.5952 97.9613 32.1702C97.9452 32.0234 97.9452 31.8753 97.9613 31.7285C97.995 31.8724 98.0211 32.018 98.0396 32.1646C98.0731 32.4498 98.1626 32.8691 98.2856 33.4058C98.6844 34.9072 99.3408 36.3279 100.226 37.6047C101.542 39.4937 103.174 41.1412 105.051 42.4745C107.38 44.0741 109.846 45.4643 112.42 46.6286C113.773 47.2828 115.103 47.9146 116.367 48.5631C117.601 49.1638 118.788 49.8573 119.917 50.6374C121.796 52.0229 123.386 53.7627 124.597 55.7588C125.423 57.0966 126.003 58.5718 126.308 60.1142C126.382 60.5353 126.423 60.9615 126.431 61.389C126.432 61.5385 126.422 61.688 126.403 61.8363Z" fill="#455A64"/>
<path d="M63.1286 233.727C63.1286 233.727 59.1478 239.29 58.1582 244.909H140.486L136.159 233.347L63.1286 233.727Z" fill="#263238"/>
<path d="M104.269 187.489L102.239 176.402L83.4814 114.962L82.9782 104.602L77.6835 88.7961C77.6835 88.7961 71.7738 71.9391 70.1468 71.5198C68.5198 71.1005 67.6252 70.7874 67.5749 71.9447C67.5246 73.1021 71.4327 88.1587 71.4327 88.1587L65.4838 79.0286C65.4838 79.0286 66.5182 67.7347 65.4112 67.0526C64.3041 66.3705 62.42 66.7395 61.6875 70.3122C60.9551 73.8848 60.5693 80.7674 60.5693 80.7674L63.035 86.6268L59.4679 81.1364L59.6133 72.6828L60.0829 69.1101L58.1875 68.9535L55.2746 72.3864L54.8106 81.9974L58.2379 89.8696L53.2059 84.7314L52.8313 80.7394L53.5134 75.9591C53.5134 75.9591 53.1892 74.2259 51.9815 74.8018C50.7738 75.3776 48.7331 78.9615 48.7331 78.9615L48.1181 86.7889L56.3201 96.3888L56.4208 97.1659C56.8457 98.1667 62.8505 109.354 62.8505 109.354C62.8505 109.354 63.0014 109.483 63.1021 109.561L69.4423 158.131L68.8832 156.979L42.6836 171.029C43.6788 172.147 49.1021 180.864 54.8161 191.923C58.2099 198.492 63.9519 203.821 69.8169 208.327C72.8503 210.655 76.4376 212.152 80.2255 212.673C84.0135 213.194 87.8718 212.719 91.4207 211.296C91.6611 211.201 91.8959 211.1 92.1307 210.994C101.121 207.007 106.041 197.167 104.269 187.489Z" fill="#FFBE9D"/>
<path d="M74.132 193.326C74.0946 193.193 74.0685 193.056 74.0537 192.918C74.0146 192.616 73.9587 192.225 73.8916 191.738C73.7518 190.682 73.5617 189.206 73.3325 187.394C72.8573 183.699 72.2143 178.644 71.5042 173.059C70.7942 167.473 70.1121 162.397 69.6033 158.735C69.3517 156.923 69.1504 155.453 68.9994 154.396C68.9379 153.904 68.882 153.513 68.8429 153.216C68.8167 153.078 68.8054 152.937 68.8094 152.797C68.852 152.93 68.8838 153.067 68.9044 153.205C68.9547 153.501 69.0274 153.893 69.1113 154.379C69.2958 155.397 69.525 156.873 69.8101 158.701C70.3692 162.358 71.0737 167.423 71.795 173.02C72.5162 178.616 73.12 183.693 73.5338 187.366C73.7351 189.183 73.8916 190.665 74.009 191.722C74.0537 192.214 74.0929 192.611 74.1208 192.907C74.1394 193.046 74.1432 193.187 74.132 193.326Z" fill="#EB996E"/>
<path d="M218.633 121.381C218.633 121.381 218.633 121.286 218.633 121.101V120.28C218.633 119.547 218.633 118.485 218.672 117.132C218.672 114.392 218.733 110.423 218.504 105.547C218.273 99.8169 217.619 94.1116 216.547 88.4777C215.91 85.1591 215.039 81.8895 213.942 78.6934C212.779 75.2599 211.221 71.9728 209.301 68.8979C207.396 65.812 204.942 63.1006 202.061 60.8971C199.355 58.8777 196.294 57.3851 193.037 56.497C190.098 55.6594 187.063 55.2065 184.007 55.1495C181.346 55.0907 178.69 55.4223 176.124 56.1335C172.399 57.1774 168.959 59.0505 166.06 61.6127C165.276 62.3071 164.54 63.0543 163.857 63.8492C163.623 64.1231 163.449 64.3356 163.337 64.481L163.164 64.699C163.21 64.618 163.26 64.5396 163.315 64.4642C163.416 64.3132 163.583 64.0952 163.807 63.81C164.478 62.9984 165.205 62.2343 165.982 61.5233C168.865 58.9141 172.308 57.0013 176.046 55.9323C177.285 55.5855 178.546 55.3222 179.82 55.1439C181.203 54.9666 182.596 54.8844 183.991 54.8979C187.068 54.9483 190.126 55.3975 193.087 56.2342C196.381 57.1235 199.477 58.6278 202.212 60.6679C205.124 62.8859 207.603 65.6207 209.525 68.7357C211.456 71.8296 213.021 75.1375 214.188 78.5927C215.284 81.8021 216.153 85.0847 216.788 88.4162C217.845 94.0582 218.479 99.7714 218.683 105.508C218.884 110.4 218.817 114.364 218.756 117.104C218.717 118.462 218.689 119.519 218.666 120.252C218.666 120.602 218.655 120.876 218.633 121.073C218.644 121.286 218.633 121.381 218.633 121.381Z" fill="#263238"/>
<path d="M165.366 87.288C169.067 74.7778 166.882 63.1025 160.487 61.2104C154.091 59.3183 145.906 67.926 142.205 80.4362C138.504 92.9464 140.689 104.622 147.084 106.514C153.48 108.406 161.665 99.7982 165.366 87.288Z" fill="#455A64"/>
<path d="M153.044 100.873C152.966 100.873 152.642 95.3714 152.317 88.5727C151.993 81.774 151.803 76.2725 151.887 76.2725C151.971 76.2725 152.29 81.774 152.608 88.5727C152.927 95.3714 153.117 100.867 153.044 100.873Z" fill="#263238"/>
<path d="M156.549 95.08C156.519 94.9956 156.504 94.9067 156.504 94.8172C156.504 94.6103 156.46 94.3588 156.432 94.0624C156.381 93.4027 156.314 92.4522 156.253 91.2669C156.119 88.9131 155.99 85.6759 155.945 82.0696C155.901 78.4634 155.945 75.2206 156.029 72.8668C156.063 71.6871 156.102 70.7366 156.141 70.0713C156.163 69.7731 156.18 69.5215 156.191 69.3165C156.191 69.2274 156.205 69.1389 156.231 69.0537C156.244 69.1408 156.244 69.2294 156.231 69.3165C156.231 69.5234 156.231 69.775 156.231 70.0769C156.231 70.7813 156.231 71.7206 156.203 72.8724C156.203 75.2262 156.169 78.4634 156.203 82.0696C156.236 85.6759 156.342 88.9075 156.421 91.2613C156.46 92.3795 156.493 93.3412 156.516 94.0568C156.516 94.3588 156.516 94.6159 156.516 94.8172C156.535 94.9036 156.546 94.9916 156.549 95.08Z" fill="#263238"/>
<path d="M159.06 88.2925C158.982 88.2925 158.943 83.8197 158.982 78.2566C159.021 72.6935 159.116 68.2207 159.195 68.2207C159.273 68.2207 159.312 72.6935 159.273 78.2846C159.234 83.8756 159.139 88.2925 159.06 88.2925Z" fill="#263238"/>
<path d="M163.649 63.2785C163.028 62.7574 162.305 62.3707 161.526 62.1426C160.748 61.9146 159.931 61.8502 159.126 61.9534C157.976 62.0779 156.863 62.4295 155.85 62.9878C153.216 64.4882 150.978 66.5969 149.325 69.1379C147.264 72.2191 145.575 75.5334 144.293 79.0117C143.027 82.4968 142.3 86.1542 142.135 89.8583C141.948 92.8797 142.164 95.9125 142.778 98.8767C143.199 100.867 143.984 102.762 145.093 104.468L145.652 105.228C145.814 105.452 145.993 105.608 146.116 105.754L146.407 106.072C146.444 106.107 146.476 106.146 146.502 106.19C146.502 106.19 146.462 106.162 146.39 106.095L146.077 105.793C145.902 105.634 145.738 105.464 145.585 105.284C145.406 105.068 145.205 104.816 144.981 104.529C143.818 102.826 142.996 100.914 142.56 98.899C141.91 95.9208 141.669 92.868 141.844 89.8248C141.996 86.0905 142.722 82.4019 143.997 78.8887C145.287 75.3889 146.993 72.0569 149.079 68.9646C150.771 66.4099 153.053 64.3003 155.732 62.8145C156.773 62.2593 157.913 61.9154 159.087 61.8025C159.974 61.7154 160.87 61.8183 161.715 62.1044C162.246 62.2894 162.744 62.5574 163.191 62.8983C163.342 63.0157 163.448 63.1164 163.521 63.1835C163.593 63.2506 163.655 63.2729 163.649 63.2785Z" fill="#263238"/>
<path d="M198.963 126.703C199.082 126.694 199.202 126.694 199.321 126.703C199.667 126.716 200.012 126.748 200.355 126.798C201.622 126.99 202.845 127.404 203.967 128.023C205.641 128.938 207.055 130.263 208.076 131.875C208.675 132.764 209.228 133.726 209.927 134.631C210.608 135.587 211.541 136.334 212.622 136.79C213.164 137.013 213.746 137.125 214.333 137.119C214.897 137.105 215.446 136.93 215.915 136.616C216.762 135.937 217.311 134.954 217.447 133.877C217.603 132.89 217.695 131.895 217.721 130.897C217.76 129.957 217.777 129.08 217.782 128.274C217.782 126.675 217.721 125.378 217.676 124.484C217.648 124.059 217.631 123.718 217.615 123.449C217.6 123.329 217.6 123.207 217.615 123.086C217.643 123.204 217.664 123.323 217.676 123.444C217.71 123.679 217.743 124.003 217.788 124.473C217.872 125.367 217.961 126.664 217.984 128.274C217.984 129.08 217.984 129.952 217.984 130.908C217.97 131.919 217.886 132.928 217.732 133.927C217.592 135.078 217.005 136.128 216.099 136.851C215.586 137.198 214.985 137.392 214.366 137.41C213.74 137.418 213.118 137.3 212.538 137.064C211.416 136.592 210.448 135.818 209.742 134.827C209.032 133.899 208.479 132.926 207.892 132.032C206.902 130.445 205.532 129.13 203.905 128.207C202.809 127.585 201.617 127.149 200.377 126.916C199.472 126.748 198.963 126.737 198.963 126.703Z" fill="#263238"/>
<path d="M177.819 125.786H167.682C166.675 125.786 165.859 126.602 165.859 127.609V127.81C165.859 128.817 166.675 129.633 167.682 129.633H177.819C178.825 129.633 179.641 128.817 179.641 127.81V127.609C179.641 126.602 178.825 125.786 177.819 125.786Z" fill="#263238"/>
<path d="M172.696 127.71H172.484C171.443 127.71 170.6 128.554 170.6 129.594V135.426C170.6 136.466 171.443 137.31 172.484 137.31H172.696C173.737 137.31 174.58 136.466 174.58 135.426V129.594C174.58 128.554 173.737 127.71 172.696 127.71Z" fill="#263238"/>
<path d="M175.75 74.1084H170.125C166.012 74.1084 162.678 77.4426 162.678 81.5557V100.023C162.678 104.136 166.012 107.47 170.125 107.47H175.75C179.863 107.47 183.197 104.136 183.197 100.023V81.5557C183.197 77.4426 179.863 74.1084 175.75 74.1084Z" fill="#FFC000"/>
<path d="M182.996 90.1152C183.046 90.1767 178.858 93.6544 173.642 97.8812C168.425 102.108 164.137 105.491 164.098 105.429C164.059 105.368 168.235 101.884 173.457 97.6576C178.679 93.4307 182.945 90.0481 182.996 90.1152Z" fill="#263238"/>
<path d="M181.631 76.3788C181.681 76.4459 177.555 79.8452 172.417 83.977C167.278 88.1088 163.068 91.4075 163.018 91.346C162.968 91.2845 167.094 87.8795 172.232 83.7478C177.37 79.616 181.564 76.3173 181.631 76.3788Z" fill="#263238"/>
<path d="M175.715 74.136C175.771 74.1975 172.969 76.596 169.469 79.4922C165.969 82.3883 163.09 84.6918 163.04 84.6303C162.989 84.5688 165.785 82.1647 169.285 79.2685C172.785 76.3724 175.664 74.0745 175.715 74.136Z" fill="#263238"/>
<path d="M183.309 83.3889C183.252 83.4554 183.188 83.5154 183.118 83.5679L182.559 84.0431L180.384 85.7484L173.2 91.3394L166.038 96.9808L163.863 98.6581L163.259 99.1109C163.192 99.1669 163.119 99.2156 163.041 99.2563C163.041 99.2563 163.097 99.1836 163.226 99.0662L163.785 98.5686C164.277 98.1437 165.003 97.5399 165.904 96.7963C167.698 95.309 170.209 93.2795 173.01 91.0822C175.811 88.8849 178.383 86.9337 180.278 85.5415C181.212 84.8426 181.955 84.2891 182.515 83.9089L183.135 83.4784C183.247 83.4449 183.309 83.3778 183.309 83.3889Z" fill="#263238"/>
<path d="M183.101 97.25C182.982 97.4042 182.843 97.5415 182.687 97.6581C182.413 97.9097 182.005 98.2676 181.491 98.6981C180.467 99.5591 179.031 100.716 177.409 101.952C175.788 103.188 174.289 104.272 173.188 105.027C172.629 105.407 172.187 105.709 171.868 105.911C171.715 106.028 171.545 106.124 171.365 106.196C171.495 106.05 171.644 105.922 171.807 105.815L173.065 104.859L177.23 101.723L181.362 98.5359L182.614 97.5743C182.762 97.4457 182.925 97.3367 183.101 97.25Z" fill="#263238"/>
<path d="M169.55 106.022C169.477 106.056 167.833 102.97 165.882 99.123C163.931 95.2764 162.404 92.1342 162.477 92.0951C162.55 92.056 164.188 95.1478 166.145 98.9944C168.102 102.841 169.617 105.983 169.55 106.022Z" fill="#263238"/>
<path d="M176.47 105.519C176.402 105.564 173.383 100.487 169.76 94.13C166.137 87.773 163.18 82.6292 163.241 82.5901C163.303 82.5509 166.333 87.65 169.984 93.9846C173.635 100.319 176.542 105.48 176.47 105.519Z" fill="#263238"/>
<path d="M181.508 103.495C181.441 103.534 178.064 97.3951 173.965 89.7857C169.867 82.1763 166.608 75.9758 166.697 75.9367C166.787 75.8976 170.141 82.0365 174.239 89.6459C178.338 97.2553 181.58 103.456 181.508 103.495Z" fill="#263238"/>
<path d="M183.001 91.9937C182.934 92.0328 180.652 88.2477 177.902 83.54C175.151 78.8324 172.987 74.9857 173.054 74.9466C173.121 74.9075 175.408 78.687 178.153 83.3946C180.898 88.1023 183.073 91.9545 183.001 91.9937Z" fill="#263238"/>
<path d="M161.61 105.653H183.974V117.322C183.974 118.436 183.755 119.539 183.327 120.568C182.9 121.596 182.274 122.531 181.485 123.317C180.696 124.104 179.76 124.727 178.73 125.15C177.699 125.574 176.596 125.79 175.482 125.787H170.053C167.808 125.787 165.655 124.895 164.067 123.307C162.48 121.72 161.588 119.567 161.588 117.322V105.653H161.61Z" fill="#FFC000"/>
<path d="M161.61 105.653H183.974V117.322C183.974 118.436 183.755 119.539 183.327 120.568C182.9 121.596 182.274 122.531 181.485 123.317C180.696 124.104 179.76 124.727 178.73 125.15C177.699 125.574 176.596 125.79 175.482 125.787H170.053C167.808 125.787 165.655 124.895 164.067 123.307C162.48 121.72 161.588 119.567 161.588 117.322V105.653H161.61Z" fill="#FFC000"/>
<path opacity="0.4" d="M161.61 105.653H183.974V117.322C183.974 118.436 183.755 119.539 183.327 120.568C182.9 121.596 182.274 122.531 181.485 123.317C180.696 124.104 179.76 124.727 178.73 125.15C177.699 125.574 176.596 125.79 175.482 125.787H170.053C167.808 125.787 165.655 124.895 164.067 123.307C162.48 121.72 161.588 119.567 161.588 117.322V105.653H161.61Z" fill="black"/>
<path d="M183.252 105.748C183.252 105.832 178.477 105.893 172.59 105.893C166.703 105.893 161.934 105.832 161.934 105.748C161.934 105.664 166.703 105.603 172.59 105.603C178.477 105.603 183.252 105.67 183.252 105.748Z" fill="#263238"/>
<path d="M172.875 72.2021H172.691C171.765 72.2021 171.014 72.9531 171.014 73.8795V105.24C171.014 106.166 171.765 106.917 172.691 106.917H172.875C173.802 106.917 174.553 106.166 174.553 105.24V73.8795C174.553 72.9531 173.802 72.2021 172.875 72.2021Z" fill="#FFC000"/>
<path opacity="0.4" d="M172.875 72.2021H172.691C171.765 72.2021 171.014 72.9531 171.014 73.8795V105.24C171.014 106.166 171.765 106.917 172.691 106.917H172.875C173.802 106.917 174.553 106.166 174.553 105.24V73.8795C174.553 72.9531 173.802 72.2021 172.875 72.2021Z" fill="black"/>
<path d="M172.875 72.2021H172.691C171.765 72.2021 171.014 72.9531 171.014 73.8795V105.24C171.014 106.166 171.765 106.917 172.691 106.917H172.875C173.802 106.917 174.553 106.166 174.553 105.24V73.8795C174.553 72.9531 173.802 72.2021 172.875 72.2021Z" fill="#FFC000"/>
<path opacity="0.4" d="M172.875 72.2021H172.691C171.765 72.2021 171.014 72.9531 171.014 73.8795V105.24C171.014 106.166 171.765 106.917 172.691 106.917H172.875C173.802 106.917 174.553 106.166 174.553 105.24V73.8795C174.553 72.9531 173.802 72.2021 172.875 72.2021Z" fill="black"/>
<path d="M183.252 105.748C183.252 105.832 178.477 105.893 172.59 105.893C166.703 105.893 161.934 105.832 161.934 105.748C161.934 105.664 166.703 105.603 172.59 105.603C178.477 105.603 183.252 105.67 183.252 105.748Z" fill="#263238"/>
<path d="M198.147 112.362C197.66 112.226 197.153 112.175 196.648 112.211C195.929 112.297 195.233 112.525 194.603 112.882C193.972 113.239 193.419 113.718 192.975 114.291C192.333 115.116 191.839 116.047 191.516 117.042C191.132 118.228 190.826 119.439 190.599 120.665C190.04 123.298 189.514 126.312 189.067 129.666C188.015 137.528 187.722 145.472 188.189 153.389C188.446 157.862 189.011 162.525 189.346 167.367C189.682 172.208 189.771 177.33 188.787 182.462C188.406 185.019 187.45 187.456 185.992 189.591C185.266 190.645 184.31 191.521 183.196 192.152C182.081 192.756 180.801 192.986 179.545 192.806C178.32 192.596 177.179 192.046 176.252 191.218C175.344 190.424 174.605 189.457 174.077 188.372C173.032 186.214 172.814 183.843 172.758 181.613C172.808 172.667 172.948 164.588 173.021 157.812C173.093 151.035 173.188 145.567 173.244 141.771C173.272 139.881 173.3 138.416 173.317 137.41C173.317 136.918 173.317 136.538 173.345 136.292C173.373 136.046 173.345 135.906 173.345 135.906C173.345 135.906 173.345 136.034 173.345 136.292C173.345 136.549 173.345 136.935 173.345 137.41C173.345 138.416 173.345 139.887 173.345 141.771C173.311 145.567 173.272 151.046 173.216 157.817C173.16 164.588 173.049 172.661 173.015 181.607C173.071 183.843 173.295 186.158 174.312 188.249C174.827 189.299 175.545 190.236 176.426 191.006C177.31 191.798 178.402 192.323 179.573 192.521C180.77 192.693 181.99 192.474 183.051 191.895C184.119 191.284 185.035 190.439 185.729 189.423C187.173 187.323 188.124 184.925 188.513 182.407C189.475 177.335 189.386 172.259 189.072 167.411C188.759 162.564 188.183 157.879 187.954 153.4C187.494 145.468 187.807 137.51 188.888 129.638C189.352 126.284 189.906 123.265 190.47 120.631C190.703 119.398 191.018 118.182 191.415 116.991C191.75 115.979 192.259 115.033 192.919 114.196C193.375 113.619 193.942 113.139 194.586 112.784C195.23 112.43 195.939 112.208 196.671 112.133C197.046 112.111 197.422 112.141 197.789 112.222L198.147 112.362Z" fill="#263238"/>
<path d="M202.697 244.903H195.652V106.464C195.652 105.53 196.023 104.634 196.684 103.973C197.345 103.313 198.241 102.941 199.175 102.941C200.109 102.941 201.005 103.313 201.665 103.973C202.326 104.634 202.697 105.53 202.697 106.464V244.903Z" fill="#263238"/>
<path d="M200.87 106.927C200.87 107.259 200.772 107.583 200.588 107.859C200.403 108.135 200.141 108.35 199.835 108.477C199.528 108.604 199.191 108.637 198.866 108.572C198.54 108.508 198.241 108.348 198.007 108.113C197.772 107.879 197.613 107.58 197.548 107.255C197.483 106.929 197.516 106.592 197.643 106.285C197.77 105.979 197.985 105.717 198.261 105.533C198.537 105.348 198.861 105.25 199.193 105.25C199.638 105.25 200.064 105.427 200.379 105.741C200.694 106.056 200.87 106.482 200.87 106.927Z" fill="#455A64"/>
<path d="M226.884 121.381H202.697V124.316H226.884V121.381Z" fill="#263238"/>
<path d="M153.888 109.014H196.726V112.133H153.888C153.495 112.133 153.118 111.977 152.84 111.7C152.562 111.422 152.406 111.045 152.406 110.652V110.49C152.408 110.098 152.564 109.722 152.842 109.446C153.12 109.169 153.496 109.014 153.888 109.014Z" fill="#263238"/>
<path d="M211.398 145.042C211.683 143.661 210.28 142.398 208.865 142.286C207.45 142.174 206.125 142.845 204.89 143.549C202.829 144.598 200.895 145.879 199.125 147.368C198.528 147.846 198.06 148.464 197.761 149.168C197.622 149.524 197.592 149.914 197.674 150.287C197.757 150.66 197.949 151.001 198.225 151.265C198.946 151.824 200.009 151.6 200.881 151.298C203.236 150.472 205.487 149.377 207.59 148.033" fill="#FFBE9D"/>
<path d="M207.59 148.033C207.652 148.117 206.316 149.196 203.845 150.426C203.229 150.733 202.542 151.047 201.787 151.348C200.967 151.746 200.075 151.97 199.165 152.008C198.875 152.003 198.59 151.933 198.33 151.805C198.07 151.676 197.841 151.492 197.661 151.265C197.308 150.781 197.155 150.18 197.236 149.587C197.387 148.38 198.265 147.541 199.047 146.859C200.576 145.588 202.239 144.487 204.007 143.577C205.561 142.727 207.132 141.9 208.642 141.967C209.23 141.979 209.803 142.159 210.292 142.486C210.781 142.813 211.167 143.273 211.404 143.812C211.694 144.611 211.404 145.064 211.404 145.036C211.404 145.008 211.443 144.583 211.107 143.952C210.855 143.523 210.493 143.17 210.058 142.928C209.624 142.686 209.133 142.565 208.636 142.576C207.356 142.576 205.952 143.364 204.398 144.253C202.703 145.174 201.102 146.259 199.618 147.491C198.852 148.139 198.175 148.866 198.08 149.666C198.038 149.84 198.035 150.022 198.071 150.198C198.106 150.374 198.18 150.541 198.286 150.685C198.393 150.83 198.529 150.95 198.687 151.037C198.845 151.123 199.019 151.174 199.198 151.186C200 151.147 200.787 150.957 201.519 150.627C202.262 150.359 202.95 150.068 203.576 149.822C206.075 148.805 207.523 147.921 207.59 148.033Z" fill="#EB996E"/>
<path d="M208.316 135.688C205.213 137.125 203.15 138.35 200.041 139.787C199.03 140.256 197.95 140.782 197.414 141.76C196.877 142.739 197.28 144.276 198.381 144.45C198.777 144.477 199.174 144.415 199.544 144.271L209.736 141.123" fill="#FFBE9D"/>
<path d="M209.737 141.122C209.77 141.223 208.317 141.771 205.94 142.581L201.758 143.957L199.259 144.745C198.989 144.837 198.7 144.865 198.417 144.828C198.134 144.79 197.863 144.687 197.626 144.527C197.401 144.347 197.214 144.124 197.077 143.87C196.94 143.617 196.855 143.338 196.827 143.051C196.755 142.493 196.875 141.927 197.168 141.446C197.443 141.015 197.802 140.644 198.225 140.356C198.979 139.885 199.772 139.479 200.595 139.143L204.559 137.242C206.824 136.124 208.283 135.598 208.322 135.688C208.361 135.777 206.997 136.509 204.805 137.723C203.687 138.326 202.396 139.042 200.892 139.775C200.116 140.112 199.368 140.51 198.655 140.965C198.307 141.163 198.022 141.455 197.831 141.806C197.64 142.158 197.552 142.556 197.576 142.956C197.608 143.328 197.785 143.674 198.068 143.918C198.216 144.011 198.383 144.069 198.557 144.087C198.73 144.104 198.906 144.081 199.069 144.018L201.546 143.286L205.778 142.061C208.199 141.39 209.709 141.033 209.737 141.122Z" fill="#EB996E"/>
<path d="M206.751 130.293C203.743 131.926 201.719 133.01 198.706 134.637C197.722 135.168 196.682 135.755 196.212 136.779C195.742 137.802 196.24 139.3 197.33 139.395C197.728 139.403 198.122 139.319 198.482 139.149L208.451 135.347" fill="#FFBE9D"/>
<path d="M208.468 135.347C208.501 135.448 207.092 136.091 204.783 137.025L200.707 138.668L198.275 139.608C198.014 139.719 197.731 139.771 197.448 139.758C197.164 139.746 196.887 139.669 196.637 139.535C196.395 139.378 196.188 139.173 196.028 138.932C195.868 138.692 195.76 138.421 195.709 138.137C195.589 137.59 195.66 137.018 195.91 136.516C196.148 136.064 196.478 135.666 196.878 135.347C197.591 134.817 198.355 134.358 199.159 133.978L203.072 131.965C205.309 130.847 206.712 130.187 206.762 130.287C206.813 130.388 205.499 131.199 203.33 132.446C202.172 133.105 200.886 133.827 199.505 134.604C198.757 134.983 198.042 135.427 197.37 135.929C197.039 136.152 196.779 136.464 196.62 136.83C196.461 137.195 196.408 137.598 196.469 137.992C196.816 139.999 199.008 138.411 200.467 138.02L204.599 136.533C206.947 135.711 208.429 135.252 208.468 135.347Z" fill="#EB996E"/>
<path d="M211.924 150.147C211.421 148.548 209.811 148.514 208.161 148.81C206.512 149.107 205.114 150.169 203.789 151.203L199.836 154.273C199.329 154.63 198.883 155.069 198.517 155.57C198.332 155.815 198.207 156.1 198.151 156.401C198.095 156.703 198.109 157.014 198.193 157.309C198.358 157.67 198.626 157.973 198.963 158.182C199.3 158.391 199.691 158.496 200.088 158.483C200.88 158.437 201.654 158.223 202.358 157.857C205.26 156.565 212.668 153.535 211.924 150.175" fill="#FFBE9D"/>
<path d="M205.997 149.649C206.047 149.716 204.94 150.633 203.123 152.064L199.914 154.558C199.305 155.008 198.809 155.594 198.466 156.269C198.388 156.432 198.341 156.608 198.326 156.789C198.304 156.94 198.325 157.096 198.387 157.236C198.596 157.555 198.893 157.806 199.243 157.957C199.984 158.258 200.809 158.284 201.569 158.03C202.314 157.79 203.038 157.487 203.732 157.124C204.935 156.524 206.088 155.83 207.182 155.05C209.055 153.708 210.056 152.674 210.123 152.746C209.955 153.041 209.74 153.305 209.485 153.529C208.845 154.195 208.158 154.813 207.428 155.38C206.349 156.229 205.194 156.977 203.978 157.616C203.264 158.009 202.516 158.337 201.742 158.594C200.854 158.9 199.885 158.868 199.019 158.505C198.561 158.305 198.172 157.975 197.901 157.555C197.77 157.31 197.719 157.03 197.755 156.755C197.78 156.515 197.845 156.281 197.946 156.062C198.332 155.305 198.894 154.651 199.584 154.155C200.814 153.233 201.938 152.433 202.877 151.757C204.761 150.387 205.952 149.587 205.997 149.649Z" fill="#EB996E"/>
<path d="M212.768 147.821C212.729 147.899 212.299 147.742 211.589 147.631C210.677 147.469 209.741 147.519 208.852 147.777C207.963 148.035 207.145 148.493 206.462 149.118C205.903 149.587 205.645 149.956 205.573 149.906C205.5 149.856 205.668 149.414 206.171 148.827C206.839 148.059 207.715 147.5 208.692 147.217C209.67 146.933 210.708 146.937 211.684 147.228C212.422 147.457 212.802 147.742 212.768 147.821Z" fill="#EB996E"/>
<path d="M223.004 198.57C224.053 199.075 224.99 199.785 225.758 200.659C226.526 201.533 227.111 202.553 227.477 203.658C228.201 205.88 228.405 208.238 228.075 210.552C227.567 215.024 225.028 219.542 222.289 223.115C218.526 219.827 217.659 214.096 217.402 211.155C216.994 206.515 219.079 197.882 222.993 198.57" fill="#FFC000"/>
<path d="M226.676 230.489C226.421 229.21 226.508 227.886 226.929 226.651C227.349 225.416 228.087 224.314 229.069 223.455C230.067 222.621 231.221 221.994 232.464 221.61C233.707 221.226 235.014 221.093 236.309 221.219C237.511 221.309 238.803 221.661 239.491 222.645C239.784 223.126 239.943 223.676 239.952 224.24C239.961 224.803 239.819 225.358 239.541 225.848C238.971 226.825 238.151 227.632 237.165 228.185C233.905 230.237 230.372 231.618 226.676 230.511" fill="#FFC000"/>
<path d="M221.846 244.215C221.866 243.906 221.911 243.6 221.98 243.298C222.103 242.65 222.254 241.817 222.438 240.816C222.852 238.736 223.389 235.784 224.999 232.876C226.329 230.391 228.295 228.303 230.696 226.827C231.426 226.393 232.205 226.048 233.017 225.798C233.237 225.729 233.461 225.673 233.688 225.631C233.844 225.597 233.922 225.586 233.928 225.597C232.85 225.967 231.813 226.445 230.831 227.023C228.509 228.529 226.607 230.599 225.301 233.039C223.724 235.862 223.154 238.797 222.679 240.866C222.455 241.906 222.265 242.75 222.12 243.332C222.058 243.634 221.966 243.93 221.846 244.215Z" fill="#263238"/>
<path d="M221.991 205.29C222.021 205.42 222.036 205.553 222.036 205.687C222.036 205.989 222.075 206.369 222.103 206.844C222.159 207.845 222.214 209.293 222.276 211.088C222.388 214.672 222.483 219.625 222.46 225.099C222.438 230.573 222.298 235.526 222.153 239.11C222.08 240.899 222.008 242.347 221.946 243.348C221.913 243.823 221.89 244.204 221.868 244.5C221.865 244.636 221.848 244.77 221.817 244.903C221.803 244.769 221.803 244.634 221.817 244.5C221.817 244.198 221.817 243.818 221.817 243.343C221.845 242.303 221.879 240.86 221.924 239.099C222.008 235.515 222.108 230.567 222.131 225.121C222.153 219.676 222.103 214.705 222.041 211.144C222.041 209.377 221.991 207.94 221.98 206.895C221.98 206.425 221.98 206.039 221.98 205.743C221.967 205.592 221.97 205.44 221.991 205.29Z" fill="#263238"/>
<path d="M220.163 233.223C219.705 230.511 218.608 227.948 216.963 225.744C215.318 223.54 213.172 221.759 210.703 220.548C209.445 219.944 207.801 219.553 206.789 220.487C205.777 221.42 205.984 223.109 206.493 224.4C207.598 227.102 209.479 229.416 211.898 231.049C214.317 232.683 217.166 233.564 220.085 233.581" fill="#FFC000"/>
<path d="M211.323 224.792C211.6 224.884 211.868 225.002 212.123 225.144C212.435 225.285 212.737 225.445 213.028 225.625C213.414 225.845 213.787 226.086 214.146 226.346C214.604 226.652 215.045 226.982 215.466 227.336C215.954 227.734 216.421 228.158 216.864 228.605C218.917 230.666 220.432 233.201 221.275 235.985C221.457 236.59 221.607 237.204 221.722 237.825C221.827 238.364 221.902 238.909 221.946 239.457C221.989 239.909 222.01 240.362 222.007 240.816C222.029 241.157 222.029 241.498 222.007 241.839C222.001 242.13 221.968 242.421 221.907 242.706C221.834 242.706 221.963 241.459 221.745 239.48C221.686 238.942 221.599 238.408 221.482 237.881C221.36 237.271 221.205 236.668 221.018 236.075C220.579 234.722 219.994 233.421 219.273 232.195C218.531 230.987 217.661 229.863 216.679 228.84C216.215 228.376 215.773 227.934 215.321 227.565C214.868 227.196 214.443 226.855 214.046 226.553C212.424 225.373 211.289 224.853 211.323 224.792Z" fill="#263238"/>
<path d="M149.711 26.3438C149.711 26.7862 149.58 27.2185 149.334 27.5863C149.088 27.9541 148.739 28.2407 148.331 28.41C147.922 28.5793 147.472 28.6236 147.038 28.5373C146.605 28.451 146.206 28.238 145.893 27.9252C145.581 27.6125 145.368 27.214 145.281 26.7801C145.195 26.3463 145.239 25.8966 145.409 25.488C145.578 25.0793 145.864 24.7301 146.232 24.4843C146.6 24.2386 147.032 24.1074 147.475 24.1074C148.068 24.1074 148.637 24.343 149.056 24.7625C149.476 25.1819 149.711 25.7507 149.711 26.3438Z" fill="#263238"/>
<path d="M156.478 28.5972C157.722 28.5972 158.731 27.5884 158.731 26.344C158.731 25.0996 157.722 24.0908 156.478 24.0908C155.233 24.0908 154.225 25.0996 154.225 26.344C154.225 27.5884 155.233 28.5972 156.478 28.5972Z" fill="#263238"/>
<path d="M167.732 25.2201C167.949 25.6037 168.048 26.0429 168.016 26.4824C167.984 26.9219 167.823 27.3422 167.553 27.6905C167.283 28.0388 166.916 28.2996 166.498 28.4401C166.081 28.5806 165.631 28.5946 165.205 28.4803C164.78 28.3659 164.397 28.1284 164.106 27.7976C163.815 27.4667 163.628 27.0572 163.569 26.6205C163.51 26.1838 163.581 25.7394 163.774 25.343C163.966 24.9466 164.272 24.616 164.652 24.3926C164.908 24.2421 165.191 24.1441 165.485 24.1042C165.779 24.0644 166.079 24.0835 166.365 24.1605C166.652 24.2376 166.921 24.3709 167.155 24.5528C167.39 24.7348 167.586 24.9616 167.732 25.2201Z" fill="#263238"/>
<path d="M156.617 0.0101257C156.769 -0.00337522 156.923 -0.00337522 157.075 0.0101257L158.411 0.0436727C158.708 0.0436727 159.038 0.0436716 159.401 0.0883999L160.581 0.256131L161.962 0.451818L163.505 0.837599C166.155 1.50569 168.676 2.60502 170.969 4.09158C174.365 6.25062 177.222 9.15823 179.321 12.5918C181.42 16.0253 182.706 19.8937 183.079 23.9006C183.182 25.1017 183.206 26.3082 183.152 27.5124C183.107 28.1275 183.118 28.7481 183.029 29.3631C182.939 29.9781 182.844 30.5987 182.749 31.2249C182.28 33.7843 181.434 36.26 180.239 38.5715C178.969 40.9938 177.353 43.2181 175.442 45.1745C173.406 47.1776 171.073 48.8542 168.526 50.145C165.889 51.4963 163.035 52.3725 160.094 52.7336C159.354 52.8471 158.607 52.9106 157.858 52.9237C157.101 52.9815 156.341 52.9946 155.582 52.9628C154.052 52.904 152.53 52.717 151.031 52.4037C147.787 51.7023 144.702 50.4015 141.935 48.5683H142.209L132.989 52.3031L132.43 52.5212L132.586 51.9621L135.326 42.0715L135.371 42.3119C132.864 38.9928 131.177 35.1291 130.445 31.0348C130.092 29.1444 129.972 27.218 130.087 25.2984C130.104 24.3615 130.19 23.4271 130.344 22.5029C130.417 22.05 130.484 21.6027 130.557 21.1554C130.63 20.7081 130.775 20.2776 130.881 19.8471C132.424 13.7779 136.074 8.45498 141.18 4.8296C143.071 3.4736 145.141 2.38606 147.33 1.59798L148.711 1.10038L150.025 0.770507L151.221 0.474181C151.607 0.401497 151.976 0.356769 152.34 0.30645C153.033 0.216993 153.648 0.0939916 154.185 0.0716274L155.543 0.0268981H156.371C156.464 0.0183468 156.557 0.0183468 156.65 0.0268981C156.559 0.0528681 156.465 0.0660404 156.371 0.0660352L155.549 0.133129L154.196 0.222586C153.665 0.261723 153.078 0.395908 152.368 0.502138C147.36 1.37011 142.711 3.67169 138.985 7.12804C135.259 10.5844 132.615 15.0472 131.373 19.9757C131.273 20.4006 131.144 20.82 131.066 21.2561L130.864 22.5867C130.706 23.4827 130.613 24.389 130.585 25.2984C130.483 27.1945 130.609 29.0959 130.959 30.9621C131.694 34.9701 133.358 38.7501 135.818 41.9988L135.902 42.1051L135.868 42.2392C134.996 45.4299 134.098 48.7211 133.174 52.113L132.782 51.7664L142.007 48.0539L142.153 47.9924L142.287 48.0819C146.249 50.7008 150.853 52.1822 155.599 52.3646C156.345 52.397 157.092 52.384 157.836 52.3255C158.571 52.3147 159.306 52.2531 160.033 52.141C162.91 51.7957 165.702 50.9419 168.28 49.6194C170.773 48.3615 173.056 46.7265 175.05 44.772C176.927 42.8605 178.516 40.6873 179.769 38.3199C180.943 36.0551 181.779 33.6309 182.252 31.1243C182.347 30.5148 182.436 29.9054 182.531 29.3016C182.626 28.6977 182.61 28.0939 182.654 27.4901C182.953 21.9448 181.446 16.4522 178.36 11.8352C176.37 8.86115 173.801 6.31878 170.807 4.35995C168.553 2.86588 166.072 1.74625 163.46 1.04447L161.939 0.641914L160.575 0.418271L159.401 0.222586C159.043 0.183448 158.713 0.172266 158.423 0.149902L157.086 0.0548529C156.929 0.0536727 156.772 0.0387073 156.617 0.0101257Z" fill="#263238"/>
</svg>
