<svg width="608" height="610" viewBox="0 0 608 610" fill="none" xmlns="http://www.w3.org/2000/svg">
<path d="M321.836 0V68.1762H341.421V84.7051L357.95 68.1762H445.978V0H321.836Z" fill="#EBEBEB"/>
<path d="M342.879 40.9086V27.2677C342.879 26.9294 343.013 26.6049 343.253 26.3656C343.492 26.1264 343.816 25.9919 344.155 25.9919H347.435C348.247 25.9971 349.041 26.2264 349.731 26.6547C350.42 27.0831 350.978 27.6936 351.342 28.419C351.706 29.1443 351.862 29.9562 351.794 30.7649C351.725 31.5737 351.435 32.3477 350.954 33.0016C351.664 33.451 352.249 34.0719 352.656 34.8069C353.062 35.5419 353.278 36.3674 353.281 37.2074C353.283 37.8585 353.156 38.5035 352.909 39.1056C352.661 39.7076 352.296 40.2548 351.837 40.7159C351.377 41.1769 350.831 41.5427 350.23 41.7923C349.628 42.0418 348.984 42.1703 348.332 42.1703H344.127C343.796 42.163 343.48 42.0273 343.247 41.7919C343.015 41.5564 342.882 41.2397 342.879 40.9086ZM345.444 32.2586H347.435C347.678 32.2549 347.918 32.2035 348.141 32.1071C348.364 32.0107 348.566 31.8713 348.736 31.6968C348.905 31.5224 349.038 31.3163 349.128 31.0904C349.217 30.8644 349.261 30.623 349.258 30.38C349.26 30.1401 349.214 29.9023 349.123 29.6804C349.032 29.4584 348.898 29.2567 348.728 29.0871C348.558 28.9175 348.357 28.7833 348.135 28.6924C347.913 28.6015 347.675 28.5556 347.435 28.5575H345.444V32.2586ZM345.444 39.6048H348.332C348.935 39.5586 349.497 39.2867 349.908 38.8436C350.318 38.4004 350.547 37.8185 350.547 37.2145C350.547 36.6104 350.318 36.0285 349.908 35.5854C349.497 35.1422 348.935 34.8703 348.332 34.8242H345.444V39.6048Z" fill="white"/>
<path d="M369.867 40.2497C369.973 40.5732 369.948 40.9258 369.795 41.2305C369.643 41.5352 369.376 41.7672 369.054 41.876C368.89 41.9246 368.72 41.9482 368.549 41.9461C368.232 41.9497 367.92 41.8621 367.652 41.6937C367.345 41.4825 367.091 41.2045 366.909 40.8806C366.536 39.995 366.373 39.0356 366.432 38.0767C366.423 37.7268 366.326 37.3846 366.152 37.0814C365.968 36.8099 365.729 36.5806 365.451 36.4084C365.055 36.1539 364.619 35.969 364.161 35.8617H361.441V40.8806C361.434 41.2202 361.293 41.5432 361.048 41.7795C360.804 42.0157 360.477 42.1461 360.137 42.1423C359.97 42.1442 359.805 42.1129 359.65 42.0504C359.495 41.9878 359.355 41.8951 359.236 41.7778C359.117 41.6604 359.023 41.5207 358.959 41.3667C358.894 41.2127 358.861 41.0475 358.861 40.8806V27.2678C358.86 27.0997 358.891 26.933 358.955 26.7774C359.018 26.6217 359.112 26.4803 359.231 26.3615C359.35 26.2427 359.491 26.1488 359.647 26.0853C359.802 26.0219 359.969 25.9901 360.137 25.992H364.273C365.581 26.0068 366.829 26.5386 367.746 27.4711C368.663 28.4037 369.173 29.6612 369.166 30.9689C369.166 31.6948 369.003 32.4115 368.69 33.0665C368.377 33.7215 367.922 34.2981 367.357 34.7541C367.676 34.9893 367.952 35.2788 368.17 35.6093C368.675 36.3436 368.944 37.214 368.941 38.1048C368.913 38.5738 368.941 39.0445 369.025 39.5067C369.213 39.5573 369.387 39.6506 369.533 39.7795C369.679 39.9084 369.793 40.0694 369.867 40.2497ZM366.628 30.9689C366.632 30.6536 366.573 30.3406 366.455 30.0482C366.337 29.7558 366.162 29.4898 365.94 29.2655C365.718 29.0412 365.454 28.8631 365.163 28.7416C364.872 28.6201 364.56 28.5575 364.245 28.5576H361.441V33.3242H364.245C364.556 33.326 364.864 33.2665 365.153 33.1492C365.441 33.0318 365.703 32.8588 365.924 32.6401C366.146 32.4214 366.322 32.1613 366.442 31.8745C366.563 31.5878 366.626 31.28 366.628 30.9689Z" fill="white"/>
<path d="M384.42 38.3569H378.812L377.676 41.3571C377.583 41.597 377.419 41.8031 377.207 41.9482C376.994 42.0934 376.742 42.1707 376.485 42.1702C376.337 42.1993 376.184 42.1993 376.036 42.1702C375.717 42.0505 375.458 41.8092 375.316 41.4993C375.174 41.1893 375.161 40.8357 375.279 40.5159L380.382 26.819C380.482 26.576 380.654 26.3693 380.874 26.2265C381.094 26.0837 381.353 26.0116 381.616 26.0199C381.877 26.0104 382.134 26.0823 382.353 26.2254C382.571 26.3685 382.74 26.5759 382.835 26.819L387.939 40.4458C388.057 40.7656 388.043 41.1192 387.901 41.4292C387.76 41.7391 387.501 41.9804 387.182 42.1001C387.038 42.1304 386.89 42.1304 386.747 42.1001C386.49 42.1059 386.238 42.0304 386.026 41.8844C385.815 41.7384 385.655 41.5293 385.569 41.287L384.42 38.3569ZM383.466 35.8194L381.602 30.8425L379.723 35.8194H383.466Z" fill="white"/>
<path d="M396.197 40.9083C396.193 41.2394 396.061 41.5561 395.828 41.7916C395.595 42.027 395.28 42.1627 394.949 42.17C394.782 42.1719 394.616 42.1406 394.462 42.078C394.307 42.0154 394.166 41.9228 394.048 41.8054C393.929 41.6881 393.835 41.5484 393.77 41.3944C393.706 41.2404 393.673 41.0751 393.673 40.9083V27.4497C393.664 27.2444 393.705 27.04 393.793 26.8543C393.881 26.6687 394.013 26.5073 394.178 26.3842C394.45 26.19 394.788 26.1106 395.118 26.163C395.449 26.2154 395.745 26.3956 395.944 26.6646L403.403 36.9969V27.4777C403.406 27.1479 403.539 26.8327 403.772 26.5994C404.005 26.3662 404.32 26.2336 404.65 26.23C404.984 26.2299 405.304 26.3604 405.543 26.5937C405.781 26.8269 405.919 27.1442 405.926 27.4777V40.9083C405.922 41.2442 405.786 41.5651 405.547 41.8013C405.309 42.0375 404.986 42.17 404.65 42.17C404.469 42.1675 404.291 42.1246 404.128 42.0446C403.966 41.9646 403.823 41.8494 403.711 41.7074C403.658 41.6716 403.615 41.6235 403.585 41.5672L396.197 31.305V40.9083Z" fill="white"/>
<path d="M412.865 40.9086V27.2678C412.863 27.0997 412.895 26.933 412.959 26.7774C413.022 26.6217 413.116 26.4803 413.235 26.3615C413.354 26.2427 413.495 26.1488 413.651 26.0853C413.806 26.0219 413.973 25.9901 414.141 25.992H416.833C418.978 25.992 421.036 26.8443 422.553 28.3613C424.07 29.8783 424.922 31.9358 424.922 34.0812C424.922 36.2266 424.07 38.2841 422.553 39.8011C421.036 41.3181 418.978 42.1704 416.833 42.1704H414.099C413.769 42.1631 413.455 42.0269 413.225 41.7911C412.994 41.5552 412.865 41.2385 412.865 40.9086ZM415.431 39.6048H416.833C418.298 39.6048 419.703 39.0229 420.739 37.987C421.774 36.9511 422.356 35.5462 422.356 34.0812C422.356 32.6162 421.774 31.2113 420.739 30.1754C419.703 29.1395 418.298 28.5576 416.833 28.5576H415.431V39.6048Z" fill="white"/>
<path d="M313.158 607.851V461.952H355.076V426.595L390.433 461.952H578.783V607.851H313.158Z" fill="white"/>
<path d="M313.159 607.852C313.019 606.45 312.444 462.485 312.346 461.139H313.159L355.077 460.999L354.109 461.952L353.983 426.539V423.903L355.862 425.768L391.317 461.041C386.747 459.975 579.807 460.914 578.798 460.522H580.2V461.924L580.032 607.824V609.029H578.826C512.612 608.791 379.4 608.272 313.201 607.838L313.159 607.852ZM313.159 607.852C379.358 607.403 512.612 606.884 578.784 606.646L577.592 607.852L577.424 461.952L578.826 463.354L389.985 463.2L389.621 462.835L354.306 427.366L356.156 426.595L356.03 461.952V462.989H355.147L313.229 462.835L314.056 462.022L313.229 607.922L313.159 607.852Z" fill="#EBEBEB"/>
<path d="M510.796 545.313C516.529 542.159 518.619 534.955 515.465 529.223C512.311 523.491 505.107 521.401 499.375 524.555C493.643 527.709 491.553 534.912 494.707 540.644C497.861 546.377 505.064 548.467 510.796 545.313Z" fill="#EBEBEB"/>
<path d="M450.447 545.916C456.5 543.433 459.395 536.514 456.912 530.46C454.429 524.407 447.51 521.513 441.456 523.995C435.403 526.478 432.509 533.398 434.991 539.451C437.474 545.504 444.394 548.399 450.447 545.916Z" fill="#EBEBEB"/>
<path d="M388.239 546.704C394.733 545.907 399.352 539.998 398.556 533.504C397.76 527.01 391.85 522.391 385.356 523.187C378.862 523.983 374.243 529.893 375.039 536.387C375.836 542.881 381.745 547.5 388.239 546.704Z" fill="#EBEBEB"/>
<path d="M102.357 201.89C135.484 190.367 152.853 153.755 141.152 120.116C129.451 86.4768 93.11 68.5482 59.9825 80.0714C26.8551 91.5946 9.48577 128.206 21.1871 161.845C32.8884 195.485 69.2292 213.413 102.357 201.89Z" fill="#EBEBEB"/>
<path d="M31.5519 140.166C31.3697 167.896 53.4361 190.747 80.844 191.196C87.3838 191.283 93.8757 190.07 99.9421 187.625C106.008 185.18 111.528 181.554 116.18 176.957C120.832 172.36 124.524 166.883 127.04 160.846C129.556 154.809 130.847 148.332 130.837 141.792C131.019 114.047 108.939 91.2099 81.545 90.7612C75.0052 90.6739 68.5133 91.8878 62.4469 94.3323C56.3806 96.7768 50.8608 100.403 46.2088 105C41.5567 109.598 37.8652 115.074 35.349 121.111C32.8327 127.148 31.542 133.625 31.5519 140.166Z" fill="white"/>
<path d="M45.4021 140.391C45.3107 149.96 48.9865 159.182 55.6357 166.064C62.2849 172.947 71.3742 176.939 80.9412 177.177C85.6536 177.237 90.3308 176.359 94.7009 174.594C99.0709 172.83 103.047 170.214 106.397 166.899C109.747 163.585 112.404 159.637 114.215 155.286C116.025 150.935 116.953 146.267 116.943 141.554C117.034 131.985 113.359 122.763 106.709 115.88C100.06 108.998 90.9708 105.006 81.4038 104.767C76.6919 104.71 72.0155 105.589 67.6463 107.354C63.2772 109.119 59.3023 111.735 55.9526 115.049C52.603 118.364 49.9454 122.311 48.1342 126.661C46.323 131.011 45.3943 135.678 45.4021 140.391Z" fill="#EBEBEB"/>
<path d="M59.3376 140.614C59.2658 146.447 61.4966 152.074 65.5462 156.273C69.5958 160.472 75.1375 162.905 80.9695 163.045C83.8386 163.08 86.6862 162.545 89.3467 161.471C92.0073 160.396 94.4279 158.804 96.4679 156.786C98.5079 154.768 100.127 152.365 101.23 149.716C102.334 147.068 102.9 144.226 102.896 141.357C102.964 135.525 100.732 129.901 96.6832 125.702C92.6344 121.504 87.0947 119.069 81.2639 118.926C78.3948 118.891 75.5473 119.426 72.8867 120.5C70.2261 121.575 67.8056 123.167 65.7656 125.185C63.7256 127.203 62.1068 129.606 61.0034 132.254C59.8999 134.903 59.3337 137.745 59.3376 140.614Z" fill="white"/>
<path d="M71.478 140.811C71.433 143.411 72.4221 145.923 74.228 147.795C76.0339 149.666 78.5089 150.745 81.1093 150.792C82.3913 150.815 83.6648 150.581 84.8554 150.106C86.046 149.63 87.1299 148.922 88.0436 148.023C88.9574 147.123 89.6826 146.051 90.177 144.868C90.6714 143.685 90.925 142.415 90.9229 141.133C90.9642 138.535 89.9734 136.027 88.1679 134.158C86.3624 132.29 83.8895 131.213 81.2916 131.165C80.0104 131.141 78.7372 131.373 77.5466 131.847C76.356 132.321 75.272 133.028 74.3581 133.926C73.4442 134.824 72.7187 135.896 72.2241 137.078C71.7296 138.26 71.4759 139.529 71.478 140.811Z" fill="#EBEBEB"/>
<path d="M81.6847 141.189L148.277 106.169L147.772 105.202L81.166 140.222L81.6847 141.189Z" fill="#EBEBEB"/>
<path d="M152.217 107.866L151.965 107.782L147.703 106.464L156.115 102.062L160.671 103.45L152.217 107.866Z" fill="#EBEBEB"/>
<path d="M157.123 96.6626L155.609 101.093L147.197 105.495C147.857 104.083 148.356 102.602 148.683 101.079L157.123 96.6626Z" fill="#EBEBEB"/>
<path d="M79.1328 139.885L80.8852 143.04L85.5677 142.647L82.4975 140.138L82.189 136.184L79.1328 139.885Z" fill="#EBEBEB"/>
<path d="M131.617 469.805L33.7402 505.895L56.6276 567.967L154.504 531.878L131.617 469.805Z" fill="#EBEBEB"/>
<path d="M131.649 469.776C129.083 475.019 126.392 480.122 123.784 485.309C121.176 490.496 118.429 495.557 115.709 500.646C112.905 505.955 110.054 511.245 107.157 516.516L106.905 517.007L99.2361 531.026L98.8436 531.685L98.1426 531.433L83.2681 525.825L82.7353 525.629C77.1276 523.498 71.5198 521.339 65.9121 519.11C60.594 516.932 55.234 514.759 49.8318 512.591C44.4764 510.334 39.121 508.203 33.7656 505.876C39.1631 507.572 44.5465 509.436 49.93 511.231C55.3134 513.025 60.7249 514.932 66.1083 516.839C72.0946 518.956 78.1089 521.115 84.1092 523.33L97.6099 528.279C99.9371 524.073 102.278 519.867 104.62 515.759C107.76 510.151 110.9 504.656 114.097 499.132C116.901 494.197 119.817 489.319 122.733 484.384C125.649 479.449 128.635 474.57 131.649 469.776Z" fill="white"/>
<path d="M84.7829 524.675C84.7634 524.73 84.735 524.782 84.6988 524.829L83.6473 526.707C81.9463 529.679 80.1705 532.596 78.32 535.455C76.0769 538.988 73.7356 542.465 71.3103 545.886C68.8849 549.307 66.4876 552.699 63.9641 556.036C61.4406 559.373 58.8611 562.667 56.1133 565.849C58.1181 562.148 60.3191 558.587 62.5482 555.069C64.7773 551.55 67.1606 548.059 69.5579 544.638C71.9552 541.217 74.3805 537.811 76.904 534.474C78.9228 531.81 80.9837 529.161 83.1426 526.595C83.638 526.006 84.1427 525.418 84.6567 524.829C84.6567 524.829 84.7549 524.759 84.7829 524.675Z" fill="white"/>
<path d="M153.577 529.947C149.371 529.33 145.306 528.545 141.226 527.591C137.146 526.638 133.095 525.671 129.043 524.647C124.992 523.624 120.982 522.46 116.986 521.227C113.734 520.245 110.481 519.208 107.285 518.03L105.238 517.287L105.084 517.217H105.252L107.565 517.596C110.874 518.142 114.155 518.829 117.379 519.544C121.459 520.442 125.51 521.451 129.548 522.502C133.585 523.554 137.623 524.675 141.618 525.909C145.614 527.143 149.652 528.433 153.577 529.947Z" fill="white"/>
<path d="M497.905 208.926L487.18 274.208L590.118 291.12L600.843 225.838L497.905 208.926Z" fill="#EBEBEB"/>
<path d="M600.823 225.81C596.015 229.105 591.15 232.217 586.313 235.441C581.476 238.666 576.598 241.708 571.733 244.806C566.649 248.031 561.555 251.218 556.452 254.367C556.303 254.478 556.149 254.581 555.989 254.676C551.489 257.48 546.961 260.284 542.447 263.088L541.774 263.48L541.283 262.905C537.89 258.83 534.507 254.746 531.133 250.652C531.005 250.517 530.888 250.371 530.782 250.218C526.941 245.591 523.142 240.951 519.357 236.198C515.74 231.74 512.137 227.212 508.534 222.698C504.931 218.183 501.384 213.585 497.879 208.931C501.734 213.136 505.491 217.342 509.291 221.548C513.09 225.754 516.847 230.1 520.576 234.432C524.754 239.208 528.908 244.049 533.04 248.956L542.334 259.933C546.428 257.452 550.536 254.942 554.629 252.503C560.111 249.208 565.578 245.928 571.088 242.689C576.009 239.815 580.902 236.941 585.879 234.123C590.855 231.306 595.832 228.488 600.823 225.81Z" fill="white"/>
<path d="M532.953 250.455L532.799 250.553L530.962 251.661C528.018 253.413 525.032 255.067 522.004 256.652C518.317 258.614 514.574 260.465 510.788 262.259C507.003 264.054 503.246 265.792 499.405 267.447C495.563 269.101 491.694 270.713 487.727 272.101C491.302 269.886 494.961 267.895 498.648 265.918C502.335 263.942 506.106 262.105 509.863 260.311C513.62 258.516 517.434 256.75 521.275 255.096C524.331 253.778 527.443 252.488 530.584 251.324L532.771 250.525L532.953 250.455Z" fill="white"/>
<path d="M590.196 288.967C586.888 286.373 583.719 283.612 580.621 280.822C577.523 278.032 574.495 275.144 571.48 272.256C568.466 269.368 565.536 266.368 562.662 263.326C560.321 260.858 558.022 258.349 555.821 255.755L554.419 254.101L554.307 253.961L554.461 254.073C555.078 254.564 555.681 255.04 556.269 255.545C558.877 257.648 561.386 259.863 563.882 262.092C566.994 264.896 570.022 267.77 573.023 270.672C576.023 273.574 578.953 276.56 581.827 279.602C584.701 282.644 587.519 285.715 590.196 288.967Z" fill="white"/>
<path d="M186.803 603.787L232.043 598.193L215.837 467.196L158.596 474.276L186.803 603.787Z" fill="#FFC100"/>
<path d="M158.609 474.276L169.348 523.68L186.816 603.801L232.057 598.207L215.85 467.196L158.609 474.276Z" fill="#FFC100"/>
<path opacity="0.2" d="M158.609 474.276L169.348 523.68L186.816 603.801L232.057 598.207L215.85 467.196L158.609 474.276Z" fill="white"/>
<path opacity="0.1" d="M158.609 474.276L165.689 506.857L220.785 507.095L215.85 467.196L158.609 474.276Z" fill="black"/>
<path d="M155.406 494.981L226.629 486.173L219.937 432.063L148.715 440.872L155.406 494.981Z" fill="#FFC100"/>
<path opacity="0.2" d="M155.406 494.981L226.629 486.173L219.937 432.063L148.715 440.872L155.406 494.981Z" fill="black"/>
<path d="M98.5783 427.016L154.586 425.698L143.763 338.147L89.1152 350.512L98.5783 427.016Z" fill="#FFC100"/>
<g opacity="0.2">
<path d="M98.5783 427.016L154.586 425.698L143.763 338.147L89.1152 350.513L98.5783 427.016Z" fill="white"/>
</g>
<path d="M170.078 317.287L186.046 446.49L280.256 446.139L505.926 498.838L467.541 188.561L261.527 294.688L170.078 317.287Z" fill="#FFC100"/>
<path opacity="0.2" d="M170.078 317.287L186.046 446.49L280.256 446.139L505.926 498.838L467.541 188.561L261.527 294.688L170.078 317.287Z" fill="white"/>
<path opacity="0.1" d="M505.925 498.865L280.269 446.167L186.059 446.531L181.951 413.347C209.808 416.025 282.891 423.007 284.391 423.511L505.925 498.865Z" fill="black"/>
<path d="M511.047 498.999C538.725 495.576 552.53 422.996 541.881 336.887C531.232 250.779 500.162 183.749 472.483 187.172C444.805 190.595 431 263.174 441.649 349.283C452.298 435.392 483.369 502.422 511.047 498.999Z" fill="#FFC100"/>
<path opacity="0.2" d="M452.989 345.228C462.452 421.676 488.486 481.371 511.141 478.567C533.796 475.763 544.507 411.526 535.058 335.078C525.609 258.631 499.547 198.88 476.906 201.67C454.264 204.46 443.539 268.725 452.989 345.228Z" fill="black"/>
<path d="M459.676 344.345C460.938 354.523 462.48 364.393 464.317 373.856C469.314 376.988 475.098 378.639 480.996 378.616C486.893 378.593 492.664 376.898 497.637 373.728C502.61 370.557 506.582 366.041 509.092 360.703C511.601 355.366 512.545 349.426 511.815 343.574L510.006 328.938C509.301 323.099 506.958 317.579 503.249 313.015C499.539 308.452 494.614 305.031 489.042 303.148C483.47 301.266 477.48 300.998 471.762 302.376C466.045 303.754 460.834 306.722 456.732 310.937C457.279 321.689 458.261 332.891 459.676 344.345Z" fill="#FFC100"/>
<path opacity="0.2" d="M459.676 344.345C460.938 354.523 462.48 364.393 464.317 373.856C469.314 376.988 475.098 378.639 480.996 378.616C486.893 378.593 492.664 376.898 497.637 373.728C502.61 370.557 506.582 366.041 509.092 360.703C511.601 355.366 512.545 349.426 511.815 343.574L510.006 328.938C509.301 323.099 506.958 317.579 503.249 313.015C499.539 308.452 494.614 305.031 489.042 303.148C483.47 301.266 477.48 300.998 471.762 302.376C466.045 303.754 460.834 306.722 456.732 310.937C457.279 321.689 458.261 332.891 459.676 344.345Z" fill="white"/>
<path d="M136.866 459.85L245.179 457.299L224.234 287.987L118.57 311.918L136.866 459.85Z" fill="#FFC100"/>
<g opacity="0.1">
<path d="M136.866 459.851L245.179 457.299L224.234 287.987L118.57 311.918L136.866 459.851Z" fill="black"/>
</g>
<path opacity="0.2" d="M456.97 199.426C449.652 210.01 445.937 222.614 442.867 235.021C440.061 247.564 438.256 260.311 437.469 273.14C436.894 279.547 436.894 285.967 436.67 292.388C436.81 298.809 436.754 305.23 437.034 311.637C437.315 318.044 437.595 324.465 438.184 330.857C438.773 337.25 439.263 343.643 439.993 350.022C443.091 375.467 447.619 400.856 455.302 425.404C459.082 437.697 463.943 449.632 469.826 461.069C476.022 472.285 483.172 483.374 493.519 491.085C483.705 482.757 477.032 471.598 471.438 460.242C465.932 448.763 461.438 436.824 458.007 424.563C451.087 400.023 446.284 374.934 443.652 349.573C440.651 324.338 439.025 298.725 440.273 273.294C440.732 260.582 442.186 247.926 444.619 235.442C447.072 223.006 450.367 210.473 456.97 199.426Z" fill="black"/>
<path d="M327.306 195.865C324.291 212.338 302.73 215.885 299.435 212.352C286.061 198.066 271.859 170.294 256.48 139.283C244.451 115.057 252.19 114.286 262.648 120.749C286.972 135.792 328.932 187.019 327.306 195.865Z" fill="#FFC100"/>
<path opacity="0.1" d="M327.305 195.879C324.29 212.338 302.743 215.885 299.434 212.352C286.06 198.066 271.872 170.294 256.479 139.283C250.661 127.549 249.231 120.203 251.516 118.03L326.996 192.599C327.338 193.657 327.443 194.776 327.305 195.879Z" fill="black"/>
<path d="M290.658 196.692C287.686 186.234 296.42 170.49 316.678 132.469C319.482 127.198 361.905 141.273 359.199 147.049C355.792 154.311 338.03 181.579 334.553 185.294C317.575 203.463 292.691 203.772 290.658 196.692Z" fill="#EB9481"/>
<path d="M343.427 161.308C343.427 161.308 358.484 155.532 368.144 151.298C373.527 148.929 382.415 144.05 385.584 140.503C390.322 135.19 406.739 109.969 400.697 105.861C395.243 102.132 383.873 125.6 383.873 125.6C383.873 125.6 397.43 102.931 390.028 99.6646C382.626 96.3981 373.373 124.605 373.373 124.605C373.373 124.605 386.775 101.01 378.602 98.8375C372.419 97.1972 362.55 122.32 362.55 122.32C362.55 122.32 373.92 101.964 367.653 100.001C360.727 97.8281 350.171 120.413 350.171 120.413C333.347 118.114 320.422 126.021 315.753 134.25C314.856 135.821 343.427 161.308 343.427 161.308Z" fill="#EB9481"/>
<path d="M380.382 132.652C391.598 116.712 392.27 105.454 392.2 105.749C390.364 112.758 385.331 122.572 383.873 125.376C382.415 128.18 381.728 129.834 380.284 132.582C380.172 132.666 380.27 132.708 380.382 132.652Z" fill="#263238"/>
<path d="M369.7 128.684C374.54 122.441 378.233 115.387 380.607 107.852C380.607 107.557 380.537 107.599 380.397 107.852C378.644 111.384 371.522 125.166 369.616 128.614C369.588 128.698 369.658 128.726 369.7 128.684Z" fill="#263238"/>
<path d="M360.321 125.879C363.976 120.965 366.682 115.412 368.298 109.505C368.382 109.224 368.158 109.294 368.032 109.505C365.494 114.986 363.531 119.318 360.153 125.697C360.097 125.865 360.251 125.992 360.321 125.879Z" fill="#263238"/>
<path d="M349.988 167.462L304.915 145.844C304.915 145.844 283.648 189.08 288.583 198.627C290.798 202.833 298.536 213.978 307.228 214.273C327.206 214.96 349.988 167.462 349.988 167.462Z" fill="#FFC100"/>
<path d="M302.308 157.088C307.299 159.71 312.402 162.065 317.519 164.407C322.636 166.748 327.767 169.103 332.94 171.318C335.87 172.566 338.786 173.842 341.759 174.991C341.843 174.991 341.899 174.893 341.829 174.851C336.852 172.229 331.735 169.846 326.646 167.477C321.557 165.108 316.398 162.78 311.224 160.467C308.308 159.191 305.378 157.958 302.406 156.808C302.294 156.78 302.168 157.004 302.308 157.088Z" fill="#263238"/>
<path d="M305.478 145.774C305.043 145.466 304.412 145.087 304.356 145.199C302.954 148.003 301.734 151.13 300.571 154.046C299.407 156.962 298.342 159.822 297.304 162.738C296.743 164.308 296.211 165.892 295.734 167.476C294.4 169.272 293.416 171.303 292.832 173.462C292.832 173.575 292.986 173.631 293.014 173.462C293.612 171.557 294.466 169.741 295.552 168.065C294.334 171.944 293.71 175.986 293.701 180.052C293.701 173.981 296.351 168.107 298.37 162.499C299.379 159.695 300.459 156.892 301.538 154.088C302.618 151.284 303.823 148.564 304.875 145.774L305.463 146.055C305.604 146.153 305.562 145.844 305.478 145.774Z" fill="#263238"/>
<path d="M255.778 119.431C264.19 124.548 279.163 147.021 286.355 173.7C288.169 181.17 289.605 188.727 290.659 196.341C294.864 224.212 300.472 255.461 301.047 265.864C301.762 279.729 277.593 303.8 265.704 300.8C253.816 297.8 234.245 302.945 255.077 223.918C260.545 203.155 266.643 157.634 259.732 132.651C258.639 128.181 257.319 123.768 255.778 119.431Z" fill="#FFC100"/>
<path d="M379.569 462.542C375.686 461.715 282.751 406.997 280.522 402.665C279.667 401.025 286.859 387.033 295.944 370.42C297.92 366.817 299.981 363.116 302.098 359.359C315.809 334.993 330.936 309.45 330.936 309.45L393.21 345.901L362.662 394.814L356.031 405.511C356.031 405.511 382.247 442.382 384.168 447.387C386.088 452.392 383.467 463.369 379.569 462.542Z" fill="#EB9481"/>
<path d="M379.569 462.542C375.686 461.715 282.751 406.997 280.522 402.665C279.779 401.263 285.275 390.174 292.859 376.14C296.476 381.664 350.437 428.349 368.326 432.807C375.63 434.629 364.302 417.273 363.826 416.53C371.704 427.816 382.906 444.092 384.14 447.303C386.088 452.336 383.467 463.369 379.569 462.542Z" fill="#263238"/>
<path d="M364.877 417.974C364.877 417.974 356.759 410.796 341.17 417.09L364.877 417.974Z" fill="#263238"/>
<path d="M434.398 268.724C428.552 297.744 367.933 394.632 367.933 394.632L301.467 354.438L346.132 284.846C346.132 284.846 255.007 295.781 220.351 281.187C183.283 265.611 188.681 221.212 188.681 221.212L278.896 210.487C278.896 210.487 281.293 218.969 291.429 218.198C326.365 215.478 374.017 216.796 392.368 218.787C416.033 221.366 439.768 242.101 434.398 268.724Z" fill="#37474F"/>
<path d="M366.755 260.536C364.653 262.608 362.682 264.808 360.853 267.125C358.834 269.438 356.787 271.723 354.754 274.036V274.107L355.89 272.032C357.292 269.676 358.343 267.237 359.886 265.022C359.97 264.882 359.773 264.728 359.675 264.868C358.091 267.069 356.297 269.074 354.909 271.485C354.264 272.592 353.633 273.714 353.058 274.85C352.736 275.466 352.399 276.097 352.105 276.728C351.979 277.023 351.81 277.331 351.712 277.639C350.801 278.719 349.904 279.798 349.021 280.906C347.086 283.345 345.333 285.953 343.413 288.378C343.301 288.504 343.511 288.645 343.623 288.518C345.6 286.247 347.829 284.158 349.792 281.915C351.754 279.672 353.773 277.261 355.708 274.906C357.642 272.55 359.423 270.223 361.316 267.896C363.36 265.619 365.261 263.217 367.007 260.704C366.937 260.578 366.839 260.466 366.755 260.536Z" fill="#263238"/>
<path d="M372.208 379.029C370.47 377.711 368.619 376.505 366.811 375.286C365.002 374.066 363.236 372.86 361.427 371.669C357.754 369.229 354.025 366.846 350.296 364.463C342.823 359.668 335.295 354.971 327.753 350.275C323.547 347.639 319.257 345.088 315.009 342.48C314.939 342.48 314.827 342.564 314.911 342.606C322.126 347.569 329.388 352.471 336.697 357.313C344.006 362.154 351.483 366.93 359.128 371.641C361.231 372.93 363.348 374.201 365.479 375.454C367.638 376.716 369.797 378.061 372.026 379.197C372.166 379.253 372.292 379.099 372.208 379.029Z" fill="#263238"/>
<path d="M201.09 224.002C200.188 235.815 203.834 247.525 211.282 256.738C215.035 261.215 219.619 264.924 224.782 267.659C229.989 270.31 235.581 272.122 241.353 273.028C252.907 274.986 264.599 276.022 276.318 276.126C288.047 276.332 299.767 275.982 311.478 275.075C323.176 274.296 334.812 272.774 346.316 270.519C349.12 269.916 352.036 269.257 354.84 268.472C356.242 268.065 357.644 267.645 359.046 267.182C360.436 266.61 361.884 266.187 363.364 265.92C364.167 265.791 364.988 265.829 365.775 266.033C366.218 266.157 366.622 266.394 366.946 266.721C367.271 267.048 367.505 267.453 367.626 267.897C367.735 268.304 367.782 268.724 367.766 269.145C367.743 269.57 367.643 269.988 367.472 270.379C367.191 271.108 366.869 271.78 366.532 272.439C365.13 275.061 363.658 277.599 362.158 280.122C349.933 300.212 336.839 319.727 323.717 339.214C330.119 329.363 336.465 319.479 342.755 309.563C349.05 299.651 355.373 289.725 361.317 279.631C362.789 277.094 364.261 274.556 365.523 271.963C365.845 271.304 366.168 270.659 366.42 270C366.542 269.72 366.613 269.421 366.63 269.117C366.649 268.805 366.616 268.492 366.532 268.192C366.266 267.014 364.794 266.79 363.448 267C362.04 267.268 360.663 267.681 359.34 268.234C357.938 268.71 356.536 269.145 355.134 269.551C352.331 270.351 349.415 270.953 346.541 271.64C334.969 273.949 323.263 275.518 311.492 276.337C299.763 277.187 288.005 277.496 276.219 277.262C264.437 277.147 252.685 276.045 241.087 273.968C235.339 272.762 229.493 271.332 224.264 268.36C219.043 265.544 214.423 261.734 210.665 257.144C207.018 252.504 204.339 247.179 202.786 241.485C201.145 235.812 200.57 229.885 201.09 224.002Z" fill="#263238"/>
<path d="M293.461 469.047C289.83 467.434 210.326 394.562 209.051 389.865C208.56 388.085 218.486 375.846 230.921 361.49C233.599 358.378 236.388 355.181 239.248 351.957C257.726 330.928 277.844 309.142 277.844 309.142L331.117 357.733L291.078 399.216L282.246 408.315C282.246 408.315 300.205 449.826 301.046 455.125C301.887 460.425 297.064 470.659 293.461 469.047Z" fill="#EB9481"/>
<path d="M293.463 469.046C289.846 467.434 210.342 394.561 209.066 389.865C208.632 388.295 216.3 378.649 226.647 366.48C229.03 372.635 272.084 429.568 288.64 437.615C295.426 440.923 287.953 421.591 287.631 420.792C292.986 433.409 300.557 451.732 301.09 455.125C301.875 460.424 297.066 470.672 293.463 469.046Z" fill="#263238"/>
<path d="M288.33 422.334C288.33 422.334 281.895 413.628 265.324 416.544L288.33 422.334Z" fill="#263238"/>
<path d="M393.898 275.495C388.051 304.515 310.16 384.145 301.159 393.258L299.07 395.361L242.488 345.438L243.245 344.596L286.159 297.351C286.159 297.351 220.071 319.782 191.766 278.874C180.551 262.625 188.64 221.212 188.64 221.212L261.12 212.898C261.12 212.898 262.354 225.306 272.49 224.52C307.44 221.801 334.904 219.221 353.255 221.212C376.962 223.791 399.267 248.872 393.898 275.495Z" fill="#37474F"/>
<path d="M274.508 224.366C296.939 222.221 319.51 220.357 342.137 220.385C344.941 220.385 347.745 220.483 350.633 220.665C353.484 220.798 356.32 221.154 359.115 221.731C360.509 222.09 361.873 222.559 363.194 223.133C364.512 223.679 365.816 224.254 367.092 224.899C369.646 226.166 372.102 227.624 374.438 229.259C379.158 232.496 383.312 236.489 386.733 241.077C390.158 245.686 392.636 250.927 394.023 256.499C394.701 259.285 395.11 262.13 395.243 264.995C395.243 265.709 395.243 266.396 395.243 267.139C395.243 267.882 395.243 268.541 395.243 269.298C395.119 270.714 394.899 272.119 394.584 273.504C393.156 279.025 391.026 284.339 388.247 289.318C382.759 299.228 376.482 308.68 369.475 317.581C362.578 326.54 355.301 335.19 347.829 343.657C340.357 352.125 332.59 360.34 324.753 368.471C332.436 360.2 340.02 351.831 347.367 343.237C354.713 334.643 361.919 325.993 368.704 316.978C375.591 308.062 381.787 298.632 387.238 288.771C389.952 283.875 392.025 278.649 393.406 273.224C393.709 271.876 393.915 270.508 394.023 269.13C394.102 267.729 394.102 266.325 394.023 264.924C393.889 262.144 393.485 259.383 392.817 256.681C391.496 251.262 389.114 246.159 385.808 241.666C382.486 237.166 378.44 233.248 373.835 230.072C371.548 228.461 369.144 227.022 366.643 225.768C365.395 225.137 364.134 224.563 362.83 224.03C361.566 223.458 360.258 222.989 358.919 222.628C356.183 222.058 353.409 221.692 350.619 221.534C347.815 221.338 345.011 221.24 342.207 221.184C330.992 221.002 319.65 221.45 308.379 222.011C297.107 222.572 285.751 223.455 274.508 224.366Z" fill="#263238"/>
<path d="M309.528 269.397C307.427 271.461 305.46 273.657 303.639 275.972C301.607 278.285 299.56 280.571 297.541 282.884V282.954C297.919 282.267 298.284 281.552 298.677 280.879C300.008 278.538 301.116 276.098 302.658 273.869C302.678 273.841 302.687 273.807 302.682 273.772C302.677 273.738 302.658 273.708 302.63 273.687C302.602 273.667 302.567 273.658 302.533 273.663C302.499 273.669 302.468 273.687 302.448 273.715C300.878 275.93 299.069 278.005 297.681 280.346C297.036 281.44 296.419 282.561 295.831 283.697C295.508 284.328 295.186 284.945 294.891 285.576C294.739 285.876 294.603 286.185 294.485 286.501C293.573 287.566 292.676 288.66 291.807 289.753C289.858 292.193 288.106 294.8 286.199 297.226C286.101 297.352 286.311 297.492 286.41 297.366C288.386 295.109 290.615 293.02 292.578 290.763C294.541 288.506 296.574 286.108 298.494 283.753C300.415 281.398 302.223 279.085 304.102 276.743C306.139 274.459 308.035 272.052 309.78 269.537C309.724 269.439 309.612 269.313 309.528 269.397Z" fill="#263238"/>
<path d="M306.346 382.21C304.86 380.612 303.219 379.112 301.649 377.598C300.079 376.084 298.537 374.612 296.953 373.14C293.742 370.112 290.462 367.139 287.139 364.153C280.592 358.181 273.947 352.279 267.302 346.377C263.587 343.068 259.801 339.83 256.086 336.563C256.016 336.563 255.89 336.563 255.96 336.675C262.241 342.778 268.577 348.83 274.97 354.83C281.363 360.831 287.943 366.803 294.71 372.747C296.56 374.373 298.439 375.972 300.317 377.57C302.196 379.168 304.131 380.864 306.135 382.365C306.276 382.421 306.416 382.294 306.346 382.21Z" fill="#263238"/>
<path d="M198.509 225.207C197.203 231.544 196.732 238.025 197.107 244.484C197.426 250.929 198.947 257.258 201.593 263.144C204.305 268.981 208.611 273.933 214.014 277.429C219.491 280.774 225.665 282.808 232.057 283.374C238.485 284.066 244.965 284.122 251.404 283.542C257.834 283.011 264.232 282.135 270.568 280.92C283.261 278.545 295.774 275.289 308.014 271.177L308.477 271.023L308.687 271.429C309.457 272.983 309.933 274.665 310.089 276.392C310.254 278.089 310.149 279.802 309.781 281.467C309.409 283.126 308.82 284.729 308.028 286.234C307.189 287.67 306.252 289.047 305.224 290.355C301.103 295.528 296.673 300.421 292.242 305.3C287.812 310.179 283.27 314.973 278.714 319.712C274.157 324.45 269.559 329.203 264.933 333.9C269.456 329.105 273.947 324.282 278.405 319.432C282.849 314.567 287.294 309.702 291.682 304.795C296.07 299.889 300.416 294.982 304.439 289.752C305.442 288.481 306.356 287.141 307.173 285.743C307.901 284.317 308.447 282.805 308.799 281.243C309.503 278.135 309.158 274.881 307.818 271.99L308.491 272.228C296.151 276.418 283.53 279.731 270.723 282.14C264.334 283.344 257.885 284.205 251.404 284.72C244.911 285.273 238.379 285.189 231.903 284.467C225.379 283.858 219.091 281.716 213.552 278.215C208.033 274.581 203.658 269.458 200.934 263.438C198.322 257.46 196.894 251.033 196.728 244.512C196.47 238.027 197.069 231.536 198.509 225.207Z" fill="#263238"/>
<path d="M229.576 224.296C228.917 227.702 228.048 231.081 227.094 234.418C226.41 237.454 225.143 240.33 223.365 242.885C221.456 245.127 219.058 246.902 216.356 248.072C214.807 248.804 213.215 249.441 211.589 249.979C209.916 250.449 208.28 251.044 206.696 251.76C206.633 251.794 206.582 251.847 206.551 251.913C206.521 251.978 206.512 252.051 206.526 252.122C206.54 252.192 206.577 252.257 206.63 252.305C206.683 252.353 206.751 252.383 206.822 252.39C208.66 252.363 210.487 252.109 212.262 251.633C213.993 251.246 215.69 250.721 217.337 250.063C220.334 248.847 222.969 246.882 224.991 244.357C226.906 241.598 228.18 238.447 228.721 235.133C229.514 231.577 229.96 227.952 230.052 224.31C230.054 224.246 230.031 224.185 229.988 224.139C229.944 224.093 229.884 224.066 229.821 224.064C229.758 224.062 229.697 224.086 229.651 224.129C229.605 224.173 229.578 224.232 229.576 224.296Z" fill="#263238"/>
<path d="M187.32 223.82L282.806 220.456L275.797 184.706C275.797 184.706 283.704 174.374 281.755 163.537C279.61 151.677 257.067 122.208 255.118 120.568C247.618 113.993 240.86 111.553 234.58 116.18C212.751 132.33 187.32 223.82 187.32 223.82Z" fill="#FFC100"/>
<path d="M262.998 181.104C258.736 181.64 254.518 182.488 250.38 183.641C248.348 184.244 246.343 184.945 244.338 185.688C243.343 186.053 242.333 186.389 241.324 186.711C240.278 187.086 239.191 187.331 238.085 187.44C237.987 187.44 237.987 187.595 238.085 187.595C239.135 187.616 240.184 187.56 241.226 187.426C242.236 187.272 243.233 187.047 244.212 186.754C246.287 186.165 248.348 185.478 250.422 184.861C254.628 183.627 258.834 182.393 263.04 181.454C263.264 181.412 263.194 181.076 262.998 181.104Z" fill="#263238"/>
<path d="M273.681 184.523C270.149 184.273 266.606 184.226 263.068 184.383C261.302 184.467 259.55 184.649 257.797 184.888C256.956 185 256.115 185.126 255.288 185.266C254.46 185.406 253.465 185.687 252.484 185.827C252.386 185.827 252.386 185.995 252.484 185.981C253.353 185.869 254.25 185.981 255.133 185.869L257.769 185.701L263.054 185.392C266.587 185.14 270.064 184.93 273.639 184.818C273.835 184.804 273.835 184.537 273.681 184.523Z" fill="#263238"/>
<path d="M222.271 129.007C198.649 158.532 171.69 218.002 179.372 228.545C187.938 240.279 220.799 198.922 220.393 196.777C220.084 195.15 229.085 159.892 236.052 134.194C243.02 108.497 228.118 121.717 222.271 129.007Z" fill="#EB9481"/>
<path d="M220.645 196.776C221.346 193.033 233.782 146.46 237.174 131.796C240.216 118.646 237.174 113.739 227.361 122.824C209.135 139.535 175.166 188.28 170.652 211.973C166.32 234.81 185.359 234.404 199.532 222.501C211.07 212.73 220.645 196.776 220.645 196.776Z" fill="#FFC100"/>
<path d="M219.061 202.79C222.874 185.182 227.365 167.733 232.533 150.442C228.739 168.06 224.248 185.509 219.061 202.79Z" fill="#263238"/>
<path d="M230.109 160.62C230.586 158.247 231.695 156.048 233.32 154.255C233 156.678 231.868 158.922 230.109 160.62Z" fill="#263238"/>
<path d="M368.213 217.82H270.666V222.502H368.213V217.82Z" fill="#455A64"/>
<path d="M316.341 217.82H270.666V222.502H316.341V217.82Z" fill="#A6A6A6"/>
<path d="M314.393 222.501H416.173L430.557 153.371H328.776L314.393 222.501Z" fill="#A6A6A6"/>
<path d="M319.006 222.501H420.787L435.17 153.371H333.39L319.006 222.501Z" fill="#C7C7C7"/>
<path d="M370.302 189.472C370.186 190.33 370.258 191.202 370.512 192.029C370.766 192.857 371.196 193.619 371.773 194.264C372.35 194.909 373.06 195.421 373.854 195.765C374.648 196.109 375.507 196.277 376.372 196.257C378.23 196.22 380.012 195.513 381.39 194.266C382.768 193.019 383.65 191.317 383.873 189.472C383.986 188.615 383.913 187.743 383.658 186.917C383.403 186.091 382.972 185.329 382.396 184.685C381.819 184.04 381.11 183.528 380.318 183.183C379.525 182.838 378.667 182.669 377.802 182.687C375.945 182.727 374.165 183.435 372.787 184.681C371.41 185.927 370.527 187.628 370.302 189.472Z" fill="#EBEBEB"/>
<path d="M179.415 226.399C188.191 232.302 204.173 227.899 245.446 220.581C251.152 219.572 254.853 177.346 248.698 178.117C240.946 179.084 211.07 184.509 208.939 185.126C190.938 190.86 173.456 222.404 179.415 226.399Z" fill="#EB9481"/>
<path d="M242.683 180.948C242.683 180.948 257.053 172.957 265.899 171.135C275.144 169.424 284.667 169.992 293.644 172.789C303.345 175.761 324.753 189.612 321.837 196.524C319.173 202.734 298.004 187.425 298.004 187.425C298.004 187.425 322.159 199.482 317.631 206.365C313.103 213.249 289.508 194.098 289.508 194.098C289.508 194.098 314.056 207.038 308.21 213.403C303.808 218.212 281.489 202.047 281.489 202.047C281.489 202.047 302.518 213.263 298.186 218.45C293.419 224.142 271.886 210.501 271.886 210.501C258.693 221.717 247.828 221.717 240.104 220.721C238.211 220.455 242.683 180.948 242.683 180.948Z" fill="#EB9481"/>
<path d="M289.929 182.673C292.817 183.976 295.747 185.294 298.509 186.878C301.271 188.463 303.991 190.103 306.584 191.925C310.035 194.233 313.21 196.928 316.047 199.959C310.622 194.94 300.822 189.192 298.06 187.621C295.299 186.051 292.621 184.355 289.873 182.799L289.929 182.673Z" fill="#263238"/>
<path d="M284.097 192.543C287.714 194.38 291.373 196.062 294.906 198.053C298.439 200.044 301.593 202.259 304.958 204.46C305.224 204.628 305.042 204.712 304.775 204.558C301.313 202.469 297.962 200.801 294.471 198.754C290.98 196.707 287.588 194.548 284.041 192.613C283.985 192.585 284.041 192.515 284.097 192.543Z" fill="#263238"/>
<path d="M277.564 200.112C283.183 202.792 288.51 206.043 293.462 209.813C293.715 209.996 293.462 210.08 293.21 209.912C287.981 206.575 283.915 203.939 277.494 200.308C277.382 200.252 277.452 200.056 277.564 200.112Z" fill="#263238"/>
<path d="M240.316 174.99L223.366 234.054C223.366 234.054 181.126 234.797 174.298 227.605C169.42 222.46 188.458 192.066 208.197 185.14L240.316 174.99Z" fill="#FFC100"/>
<path d="M187.798 201.571C189.649 197.884 196.813 189.276 208.168 185.098C208.266 185.098 208.351 185.211 208.252 185.267C200.093 189.192 190.027 198.263 187.938 201.655C187.882 201.753 187.742 201.655 187.798 201.571Z" fill="#263238"/>
<path d="M214.953 225.742C216.145 219.924 217.645 214.176 219.159 208.428C220.673 202.68 222.173 196.918 223.827 191.212C224.767 187.987 225.678 184.749 226.729 181.553C226.729 181.468 226.898 181.553 226.884 181.553C225.706 187.371 224.22 193.133 222.678 198.88C221.136 204.628 219.678 210.39 218.079 216.124C217.182 219.363 216.229 222.587 215.177 225.77C215.121 225.966 214.855 225.91 214.953 225.742Z" fill="#263238"/>
<path d="M240.189 174.499C237.918 174.925 235.679 175.506 233.487 176.237C231.272 176.901 229.066 177.597 226.87 178.326C222.496 179.728 213.075 182.308 205.631 186.177C205.547 186.177 206.177 186.401 206.248 186.359C209.696 184.341 237.749 176.251 239.894 175.326C239.88 175.503 239.88 175.682 239.894 175.859C239.894 175.985 240.076 176.069 240.146 175.943C240.217 175.817 240.399 175.312 240.539 174.99C240.569 174.934 240.582 174.872 240.578 174.809C240.574 174.747 240.552 174.687 240.516 174.636C240.48 174.585 240.43 174.545 240.372 174.521C240.314 174.496 240.25 174.489 240.189 174.499Z" fill="#263238"/>
<path d="M226.393 224.044C225.524 227.521 224.585 230.969 223.589 234.404C220.197 234.404 216.804 234.404 213.425 234.292C203.612 233.969 193.588 233.535 183.9 231.488C195.032 232.806 211.939 233.184 223.323 233.717L222.972 233.969C224.066 230.642 225.201 227.338 226.379 224.058L226.393 224.044Z" fill="#263238"/>
<path d="M236.656 121.563C237.175 123.33 246.301 134.559 254.475 133.76C257.124 133.508 256.353 118.899 256.353 118.899L256.535 117.806L259.157 102.525L240.862 92.0243L238.226 90.6223C238.226 90.6223 237.791 94.8281 237.287 100.127C237.287 100.366 237.287 100.604 237.217 100.87C237.147 101.137 237.217 101.445 237.119 101.726C237.034 102.511 236.95 103.324 236.894 104.123C236.838 104.922 236.782 105.329 236.754 105.96C236.726 106.59 236.67 107.235 236.614 107.88C236.324 112.437 236.338 117.008 236.656 121.563Z" fill="#EB9481"/>
<path d="M237.285 100.141C239.019 104.306 241.639 108.044 244.963 111.094C248.287 114.145 252.236 116.435 256.534 117.806L259.155 102.525L240.86 92.0243L238.224 90.6223C238.224 90.6223 237.79 94.8702 237.285 100.141Z" fill="#263238"/>
<path d="M233.88 90.3409C227.684 90.1166 213.174 97.1543 209.501 106.029C205.828 114.903 208.617 127.675 211.477 128.46C214.337 129.245 225.497 126.188 232.506 120.469C239.516 114.749 236.923 90.4531 233.88 90.3409Z" fill="#263238"/>
<path d="M233.894 90.3693C234.09 90.2851 234.048 89.9627 233.894 89.9907C228.665 90.8179 223.408 93.5937 218.711 95.9349C214.912 97.8135 211.057 99.9305 208.323 103.253C207.001 104.824 206.035 106.662 205.49 108.642C204.946 110.621 204.836 112.695 205.168 114.721C205.841 119.347 207.524 124.773 210.51 128.432C210.608 128.53 210.832 128.432 210.748 128.306C206.767 120.076 202.729 109.87 210.272 102.384C216.594 96.0191 225.847 93.7199 233.894 90.3693Z" fill="#263238"/>
<path d="M211.925 126.02C206.85 127.646 195.101 140.039 194.695 150.329C194.288 160.619 204.929 173.784 207.677 174.372C210.425 174.961 220.182 163.381 222.65 155.727C224.304 150.624 221.332 145.563 219.215 140.305C216.074 132.707 212.724 125.767 211.925 126.02Z" fill="#263238"/>
<path d="M225.538 153.918C225.244 143.558 217.715 134.628 212.612 126.146C212.612 126.062 212.402 126.146 212.444 126.23C215.949 134.642 222.636 141.497 224.459 150.61C225.524 156.007 224.613 161.671 220.758 165.821C217.421 169.41 212.795 171.611 208.603 174.022C208.322 174.19 208.603 174.583 208.869 174.443C217.281 169.872 225.847 164.615 225.538 153.918Z" fill="#263238"/>
<path d="M210.973 127.157C211.211 126.989 210.973 126.61 210.72 126.779C203.963 131.629 196 138.373 193.406 146.588C190.602 155.49 196.462 163.201 201.622 169.832C201.622 169.916 201.818 169.832 201.748 169.734C196.631 162.991 190.967 154.495 194.402 145.691C197.346 138.12 204.636 131.868 210.973 127.157Z" fill="#263238"/>
<path d="M208.225 173.996C211.912 175.482 217.618 181.006 219.44 187.945C222.609 199.834 226.927 197.03 240.469 198.978C251.881 200.619 255.442 212.872 250.087 219.601C250.087 219.601 252.792 211.582 244.927 208.526C235.52 204.881 215.893 216.278 204.44 204.572C189.593 189.431 208.225 173.996 208.225 173.996Z" fill="#263238"/>
<path d="M213.552 179.127C213.398 178.972 213.65 178.692 213.818 178.846C215.478 180.219 216.874 181.881 217.94 183.753C219.342 186.192 219.636 188.954 220.828 191.464C223.87 197.87 231.833 196.875 237.651 196.721C245.474 196.539 252.175 200.688 253.437 208.82C253.43 208.838 253.417 208.853 253.401 208.864C253.385 208.875 253.365 208.881 253.346 208.881C253.326 208.881 253.307 208.875 253.291 208.864C253.275 208.853 253.262 208.838 253.255 208.82C252.842 206.312 251.751 203.965 250.1 202.033C248.45 200.1 246.302 198.656 243.89 197.856C239.165 196.454 234.076 197.856 229.31 197.198C226.001 196.721 222.664 195.655 220.898 192.655C220.049 190.931 219.387 189.122 218.921 187.258C217.853 184.134 216.005 181.335 213.552 179.127Z" fill="#263238"/>
<path d="M206.318 175.663C206.318 175.593 206.5 175.663 206.444 175.761C202.448 180.542 198.2 185.351 197.542 191.827C196.841 198.837 201.018 205.314 206.794 208.931C213.257 212.983 219.496 210.151 226.099 208.188C230.866 206.786 235.772 205.735 240.707 206.94C240.861 206.94 240.805 207.221 240.707 207.207C232.842 206.155 226.029 209.113 218.585 211.062C212.514 212.646 207.453 210.964 203.023 206.548C193.21 196.818 197.415 184.243 206.318 175.663Z" fill="#263238"/>
<path d="M228.313 85.7287C226.281 83.9342 223.533 87.1307 225.58 88.9251C227.626 90.7196 230.374 87.5232 228.313 85.7287Z" fill="#FFC100"/>
<path d="M230.57 88.9399C228.537 87.1454 225.789 90.3418 227.766 92.1363C229.743 93.9308 232.603 90.7344 230.57 88.9399Z" fill="#FFC100"/>
<path d="M233.361 91.7424C231.328 89.9479 228.58 93.1443 230.557 94.9388C230.981 95.3106 231.535 95.4988 232.098 95.462C232.66 95.4252 233.185 95.1664 233.557 94.7425C233.929 94.3187 234.117 93.7645 234.081 93.2018C234.044 92.6392 233.785 92.1142 233.361 91.7424Z" fill="#FFC100"/>
<path d="M236.418 94.0842C234.385 92.2897 231.637 95.4861 233.614 97.2806C235.591 99.0751 238.464 95.8927 236.418 94.0842Z" fill="#FFC100"/>
<path d="M239.908 95.908C237.875 94.1136 235.127 97.31 237.104 99.1185C239.081 100.927 241.955 97.7165 239.908 95.908Z" fill="#FFC100"/>
<path d="M243.524 97.0844C241.492 95.29 238.744 98.4864 240.791 100.281C242.837 102.075 245.571 98.8369 243.524 97.0844Z" fill="#FFC100"/>
<path d="M276.793 74.9768C283.354 101.389 268.297 108.301 262.62 109.703C257.46 110.979 239.712 114.694 230.459 89.1084C221.206 63.523 231.398 52.1112 243.077 48.5643C254.755 45.0174 270.232 48.5783 276.793 74.9768Z" fill="#EB9481"/>
<path d="M233.879 91.3367C239.361 89.6684 235.94 77.0089 235.94 77.0089C235.94 77.0089 244.73 72.5648 246.735 65.1345C246.735 65.1345 245.754 71.3451 242.768 74.6537C242.263 75.2145 260.572 67.8122 258.189 52.8255C258.189 52.8255 265.115 66.2981 274.578 66.7187C275.026 66.7187 269.909 56.3023 265.381 52.9236C263.424 51.3411 261.332 49.9338 259.128 48.7178C252.203 46.1477 244.546 46.3994 237.805 49.4188C226.701 54.4938 222.664 68.8777 223.239 74.135C224.374 84.4672 231.286 92.1358 233.879 91.3367Z" fill="#263238"/>
<path d="M243.455 74.794C253.619 71.3452 259.886 62.3868 257.684 51.6199C257.684 51.3536 258.035 51.2414 258.147 51.4798C262.647 61.7419 253.395 72.9294 243.427 75.0043C243.174 75.0604 243.216 74.8781 243.455 74.794Z" fill="#263238"/>
<path d="M233.739 90.7472C238.477 86.261 237.734 80.4009 236.543 74.5828C236.543 74.4146 236.795 74.3165 236.851 74.4987C238.561 80.1065 239.529 87.1162 234.131 91.1537C234.077 91.2058 234.005 91.2343 233.93 91.233C233.855 91.2317 233.784 91.2006 233.732 91.1467C233.68 91.0928 233.651 91.0204 233.652 90.9455C233.654 90.8706 233.685 90.7992 233.739 90.7472Z" fill="#263238"/>
<path d="M257.615 50.625C257.615 50.625 257.615 50.5409 257.713 50.625C260.685 56.1487 263.84 66.0463 271.817 65.3173C271.852 65.3277 271.882 65.349 271.904 65.378C271.925 65.4071 271.937 65.4423 271.937 65.4786C271.937 65.5148 271.925 65.5501 271.904 65.5791C271.882 65.6082 271.852 65.6294 271.817 65.6398C264.26 66.9856 258.583 56.9618 257.615 50.625Z" fill="#263238"/>
<path d="M268.956 71.8504C268.311 71.8504 267.722 71.8504 267.091 71.8504C266.431 71.9469 265.758 71.829 265.171 71.514C265.01 71.3754 264.898 71.1885 264.853 70.9812C264.807 70.7739 264.83 70.5575 264.918 70.3644C265.154 70.0115 265.48 69.728 265.862 69.5432C266.244 69.3583 266.668 69.2788 267.091 69.3129C267.962 69.2465 268.827 69.5063 269.517 70.0419C269.667 70.1742 269.775 70.3471 269.83 70.5397C269.884 70.7324 269.881 70.9366 269.822 71.1278C269.763 71.319 269.649 71.4889 269.496 71.6171C269.342 71.7453 269.154 71.8264 268.956 71.8504Z" fill="#263238"/>
<path d="M250.857 75.9164C251.439 75.6881 252.01 75.4308 252.567 75.1454C253.198 74.9509 253.749 74.5574 254.137 74.0238C254.23 73.8316 254.255 73.6139 254.21 73.4054C254.164 73.197 254.05 73.01 253.885 72.8742C253.52 72.6569 253.104 72.5422 252.679 72.5422C252.255 72.5422 251.838 72.6569 251.474 72.8742C250.658 73.179 249.988 73.7796 249.595 74.5565C249.522 74.737 249.501 74.9346 249.536 75.1263C249.571 75.3179 249.66 75.4956 249.793 75.6384C249.925 75.7812 250.096 75.8832 250.284 75.9325C250.473 75.9817 250.671 75.9762 250.857 75.9164Z" fill="#263238"/>
<path d="M256.492 81.4531C256.492 81.4531 256.366 81.5793 256.394 81.6494C256.885 83.4158 257.165 85.5328 255.693 86.5281C255.693 86.5281 255.693 86.6543 255.693 86.6263C257.642 85.8692 257.25 83.0654 256.492 81.4531Z" fill="#263238"/>
<path d="M254.432 79.9803C251.501 80.485 252.707 86.3031 255.427 85.8404C258.147 85.3778 256.885 79.5738 254.432 79.9803Z" fill="#263238"/>
<path d="M253.352 80.5278C252.918 80.9624 252.539 81.6493 251.95 81.8316C251.361 82.0138 250.548 81.5512 250.001 81.0605C250.001 81.0605 249.903 81.0605 249.917 81.1586C250.142 82.2662 250.801 83.3316 252.034 83.2475C253.268 83.1634 253.731 82.0278 253.773 80.8362C253.773 80.6259 253.534 80.3595 253.352 80.5278Z" fill="#263238"/>
<path d="M266.418 78.9292C266.418 78.9292 266.572 78.9292 266.586 79.0554C266.881 80.8779 267.54 82.9107 269.292 83.1771C269.292 83.1771 269.362 83.2892 269.292 83.2892C267.245 83.4014 266.404 80.6956 266.418 78.9292Z" fill="#263238"/>
<path d="M267.653 76.7283C270.457 75.9292 271.859 81.7051 269.251 82.4482C266.644 83.1912 265.256 77.4573 267.653 76.7283Z" fill="#263238"/>
<path d="M268.956 76.8135C269.475 77.0098 270.063 77.4584 270.624 77.3602C271.185 77.2621 271.577 76.5191 271.844 75.8181C271.844 75.8181 271.928 75.8181 271.942 75.8181C272.236 76.9256 272.152 78.1594 271.143 78.622C270.133 79.0846 269.278 78.2715 268.746 77.2201C268.647 77.0799 268.732 76.7434 268.956 76.8135Z" fill="#263238"/>
<path d="M259.914 96.0474C260.418 96.3979 260.937 96.9166 261.61 96.8745C262.281 96.7452 262.92 96.4831 263.489 96.1035C263.489 96.1035 263.615 96.1035 263.587 96.1876C263.391 96.5943 263.087 96.9398 262.709 97.1868C262.331 97.4339 261.893 97.5731 261.442 97.5895C261.052 97.5503 260.682 97.396 260.38 97.1464C260.078 96.8968 259.857 96.5631 259.745 96.1876C259.703 96.0614 259.816 95.9913 259.914 96.0474Z" fill="#263238"/>
<path d="M266.223 91.5892C265.751 92.788 264.979 93.8452 263.98 94.6594C263.42 95.0803 262.745 95.32 262.045 95.3464C260.503 95.3464 260.097 94.0706 260.041 92.8789C260.013 92.2441 260.064 91.6082 260.195 90.9863C262.09 91.818 264.2 92.029 266.223 91.5892Z" fill="#263238"/>
<path d="M264.021 94.6589C263.462 95.0797 262.787 95.3194 262.087 95.3458C260.545 95.3458 260.138 94.0701 260.082 92.8784C260.843 92.6895 261.646 92.7624 262.361 93.0854C263.075 93.4084 263.66 93.9627 264.021 94.6589Z" fill="#FF9CBD"/>
<path d="M266.012 87.9021C266.012 87.9021 266.965 90.5097 267.245 91.7714C267.245 91.8836 266.979 92.0097 266.544 92.1359C265.499 92.572 264.353 92.7124 263.233 92.5418C262.114 92.3713 261.062 91.8962 260.194 91.1686C260.173 91.1452 260.16 91.1154 260.158 91.0842C260.157 91.0529 260.165 91.0219 260.183 90.996C260.201 90.9702 260.227 90.9511 260.256 90.9417C260.286 90.9323 260.318 90.9332 260.348 90.9443C262.205 91.6973 264.255 91.8301 266.194 91.3228C266.194 90.9443 264.399 86.9067 264.596 86.8506C265.6 86.7111 266.619 86.7111 267.624 86.8506C265.773 81.369 263.068 76.2239 261.315 70.7283C261.305 70.6875 261.309 70.6443 261.327 70.6062C261.345 70.568 261.375 70.5372 261.413 70.5191C261.451 70.5009 261.494 70.4964 261.535 70.5065C261.576 70.5165 261.612 70.5404 261.638 70.5741C264.704 76.0021 267.221 81.7223 269.152 87.6497C269.376 88.3787 266.558 88.0002 266.012 87.9021Z" fill="#263238"/>
<path d="M235.674 89.9066C235.674 89.9066 228.482 82.4483 225.019 85.154C221.557 87.8598 227.823 99.2996 232.604 100.253C233.202 100.416 233.826 100.457 234.44 100.372C235.054 100.288 235.644 100.08 236.176 99.7623C236.707 99.4441 237.169 99.0218 237.533 98.5207C237.898 98.0196 238.157 97.45 238.296 96.8462L235.674 89.9066Z" fill="#EB9481"/>
<path d="M226.912 88.3929C226.842 88.3929 226.842 88.4911 226.912 88.5051C230.235 89.2761 232.337 91.9258 233.922 94.7577C233.691 94.4733 233.401 94.2422 233.072 94.0805C232.743 93.9188 232.383 93.8302 232.017 93.8209C231.65 93.8115 231.286 93.8817 230.95 94.0265C230.613 94.1713 230.312 94.3872 230.066 94.6596C229.982 94.6596 230.066 94.8559 230.178 94.8138C230.7 94.5491 231.291 94.4541 231.869 94.5421C232.448 94.63 232.984 94.8966 233.403 95.3045C234.103 95.9884 234.728 96.7451 235.268 97.5616C235.45 97.8139 235.94 97.5616 235.786 97.2812C235.239 93.2016 231.258 88.1125 226.912 88.3929Z" fill="#263238"/>
<path d="M141.071 322.234H139.389V321.182H141.057H144.983V322.234H141.071ZM132.365 322.079C130.459 322.009 128.594 321.911 126.758 321.799V320.748C128.594 320.86 130.459 320.958 132.365 321.028V322.079ZM151.993 321.995V320.944C153.829 320.874 155.694 320.776 157.6 320.649L157.67 321.701C155.75 321.827 153.871 321.925 152.035 321.995H151.993ZM119.748 321.224C117.841 321.042 115.963 320.832 114.14 320.593L114.28 319.542C116.075 319.78 117.939 319.991 119.888 320.187L119.748 321.224ZM164.61 321.224L164.526 320.173C166.362 320.019 168.227 319.836 170.134 319.64L170.246 320.677C168.353 320.846 166.489 321.014 164.638 321.182L164.61 321.224ZM177.227 319.822L177.087 318.771L182.695 318.014L182.849 319.051C180.9 319.346 179.05 319.598 177.213 319.836L177.227 319.822ZM107.229 319.514C105.35 319.191 103.485 318.827 101.705 318.448L101.915 317.425C103.696 317.803 105.546 318.154 107.397 318.49L107.229 319.514ZM189.719 318L189.55 316.962L195.074 315.995L195.256 317.032L189.719 318ZM94.8635 316.794C92.999 316.289 91.1905 315.743 89.4661 315.168L89.7885 314.172C91.4989 314.747 93.3074 315.28 95.1299 315.785L94.8635 316.794ZM202.154 315.715L201.944 314.677C203.752 314.313 205.589 313.934 207.425 313.528L207.649 314.565C205.785 314.958 203.962 315.35 202.14 315.785L202.154 315.715ZM214.491 313.009L214.253 311.985C216.061 311.565 217.87 311.116 219.692 310.668L219.944 311.691C218.108 312.14 216.355 312.588 214.477 312.981L214.491 313.009ZM82.863 312.714C81.0685 311.957 79.3441 311.158 77.7459 310.317L78.2225 309.392C79.8067 310.205 81.5031 310.99 83.2695 311.733L82.863 312.714ZM226.744 309.911L226.477 308.887C228.258 308.411 230.066 307.92 231.875 307.401L232.155 308.411C230.375 308.943 228.524 309.434 226.73 309.925L226.744 309.911ZM71.6615 306.686C70.0981 305.627 68.6172 304.45 67.2314 303.167L67.9463 302.396C69.3001 303.653 70.7432 304.811 72.2643 305.859L71.6615 306.686ZM238.885 306.462L238.576 305.466C240.357 304.934 242.137 304.373 243.932 303.812L244.254 304.822L238.885 306.462ZM250.927 302.663L250.591 301.667C252.357 301.092 254.124 300.49 255.904 299.873L256.241 300.868C254.46 301.485 252.694 302.088 250.927 302.663ZM262.858 298.541L262.507 297.546L267.765 295.611L268.129 296.606C266.377 297.265 264.61 297.91 262.858 298.541ZM62.6751 297.672C61.6455 296.048 60.8746 294.275 60.3899 292.414L61.3993 292.148C61.8642 293.904 62.5871 295.581 63.5443 297.125L62.6751 297.672ZM274.69 294.097L274.312 293.115L279.513 291.055L279.905 292.036L274.69 294.097ZM286.396 289.358L285.99 288.391L291.149 286.204L291.569 287.171L286.396 289.358ZM61.0628 285.405L60.0254 285.265C60.2878 283.386 60.758 281.543 61.4273 279.769L62.4087 280.133C61.7664 281.835 61.315 283.603 61.0628 285.405ZM297.99 284.353L297.556 283.386L298.481 282.965C299.883 282.348 301.285 281.704 302.687 281.059L303.135 282.012L298.93 283.933L297.99 284.353ZM309.43 278.97L308.953 278.016C310.636 277.194 312.304 276.353 313.958 275.493L314.449 276.418C312.781 277.287 311.098 278.129 309.43 278.97ZM65.493 273.937L64.5957 273.404C65.5632 271.784 66.6162 270.216 67.7501 268.708L68.5912 269.339C67.4713 270.817 66.4278 272.352 65.4649 273.937H65.493ZM320.646 273.124L320.141 272.198C321.781 271.315 323.422 270.404 325.048 269.493L325.552 270.404C323.94 271.329 322.3 272.241 320.66 273.124H320.646ZM331.637 266.885L331.104 265.988C332.716 265.035 334.315 264.081 335.913 263.1L336.46 263.997C334.875 264.978 333.263 265.932 331.651 266.885H331.637ZM73.0073 263.913L72.2223 263.212C73.4139 261.88 74.7177 260.492 76.0916 259.118L76.8486 259.861C75.4747 261.263 74.185 262.637 73.0073 263.913ZM342.418 260.254L341.857 259.371L346.568 256.343L347.142 257.212L342.418 260.254ZM81.9096 255.095L81.2087 254.31C82.6106 253.09 84.0126 251.842 85.4145 250.609L86.0874 251.408C84.6855 252.698 83.2555 253.875 81.9096 255.095ZM352.974 253.37L352.386 252.501C353.928 251.464 355.456 250.412 356.984 249.347L357.587 250.202C356.059 251.296 354.517 252.333 352.974 253.37ZM91.583 247.006L90.9381 246.178C92.3401 245.029 93.8962 243.893 95.4103 242.758L96.0412 243.599C94.5177 244.72 93.0317 245.856 91.583 247.006ZM363.335 246.15L362.718 245.295C364.232 244.202 365.746 243.108 367.246 242.001L367.877 242.842L363.335 246.15ZM101.691 239.491L101.088 238.636C102.621 237.552 104.163 236.486 105.715 235.44L106.303 236.309C104.761 237.36 103.219 238.412 101.691 239.491ZM373.485 238.678L372.84 237.851C374.34 236.715 375.812 235.58 377.284 234.43L377.929 235.257C376.457 236.365 374.971 237.5 373.485 238.678ZM112.149 232.482L111.589 231.598C113.159 230.575 114.743 229.566 116.341 228.584L116.902 229.467C115.304 230.421 113.734 231.416 112.149 232.44V232.482ZM383.452 230.911L382.794 230.098L387.154 226.579L387.812 227.393L383.452 230.911ZM122.874 225.808L122.342 224.911C123.958 223.976 125.571 223.042 127.178 222.107L127.711 223.018C126.099 223.846 124.487 224.799 122.874 225.766V225.808ZM393.224 222.92L392.551 222.107C393.953 220.902 395.425 219.696 396.827 218.49L397.514 219.289L393.224 222.92ZM133.865 219.486L133.347 218.574C135.001 217.649 136.655 216.752 138.282 215.869L138.772 216.794C137.104 217.649 135.464 218.532 133.809 219.444L133.865 219.486ZM402.813 214.649L402.112 213.864C403.514 212.63 404.916 211.382 406.318 210.149L407.019 210.934C405.617 212.167 404.215 213.443 402.813 214.649ZM144.857 213.443L144.38 212.518L149.385 209.952L149.862 210.892C148.277 211.733 146.609 212.574 144.857 213.443ZM156.156 207.835L155.708 206.896C157.474 206.055 159.17 205.256 160.811 204.513L161.245 205.466C159.675 206.195 157.965 206.994 156.212 207.835H156.156ZM412.192 206.251L411.477 205.466C412.879 204.204 414.281 202.929 415.613 201.667L416.328 202.438L412.192 206.251ZM167.722 202.648L167.316 201.667C168.928 200.994 170.428 200.391 171.816 199.872L172.18 200.854C170.821 201.373 169.32 201.975 167.722 202.648ZM421.473 197.615L420.744 196.858L424.796 192.975L425.525 193.732L421.473 197.615ZM430.544 188.825L429.801 188.082C431.202 186.75 432.478 185.433 433.782 184.115L434.525 184.858C433.249 186.176 431.917 187.493 430.572 188.825H430.544ZM439.46 179.867L438.703 179.124C440.035 177.722 441.324 176.432 442.6 175.1L443.357 175.829L439.46 179.867ZM448.194 170.74L447.437 170.011L451.264 165.918L452.035 166.633L448.194 170.74ZM456.774 161.445L456.003 160.744C457.293 159.342 458.54 157.941 459.746 156.539L460.531 157.24C459.353 158.627 458.092 160.015 456.802 161.445H456.774ZM465.185 151.996L464.4 151.309C465.676 149.837 466.91 148.421 468.073 147.104L468.873 147.776C467.709 149.108 466.489 150.524 465.199 151.996H465.185ZM473.415 142.379L472.602 141.706C473.906 140.15 475.097 138.706 476.191 137.374L477.004 138.033C475.924 139.365 474.733 140.823 473.429 142.379H473.415ZM481.42 132.565L480.593 131.907C482.864 129.103 484.056 127.462 484.056 127.462L484.897 128.093C484.897 128.093 483.719 129.677 481.434 132.565H481.42Z" fill="#263238"/>
<path d="M487.406 97.5732L483.383 129.79L502.057 106.826L581.743 55.3889L487.406 97.5732Z" fill="#FFC100"/>
<path opacity="0.4" d="M487.406 97.5732L483.383 129.79L502.057 106.826L581.743 55.3889L487.406 97.5732Z" fill="white"/>
<path d="M506.557 113.092L483.383 129.789L502.057 106.825L506.557 113.092Z" fill="#FFC100"/>
<path opacity="0.3" d="M506.557 113.092L483.383 129.789L502.057 106.825L506.557 113.092Z" fill="white"/>
<path d="M502.057 106.826L581.743 55.3889L526.394 141.286L502.057 106.826Z" fill="#FFC100"/>
<path opacity="0.7" d="M502.057 106.826L581.743 55.3889L526.394 141.286L502.057 106.826Z" fill="white"/>
<path d="M487.407 97.5732L445.938 82.5304L581.743 55.3889L487.407 97.5732Z" fill="#FFC100"/>
<path opacity="0.7" d="M487.407 97.5732L445.938 82.5304L581.743 55.3889L487.407 97.5732Z" fill="white"/>
<path d="M140.523 41.6508C140.522 48.7704 142.499 55.7503 146.234 61.8113C149.97 67.8724 155.316 72.7761 161.676 75.9752C168.036 79.1743 175.161 80.5428 182.254 79.928C189.347 79.3132 196.129 76.7392 201.844 72.4935L220.672 77.3021L212.835 59.7779C215.59 54.6269 217.135 48.9157 217.351 43.0783C217.568 37.2408 216.45 31.4309 214.084 26.09C211.718 20.7492 208.166 16.0181 203.697 12.2562C199.228 8.49443 193.96 5.80097 188.294 4.38059C182.628 2.96021 176.713 2.85031 170.998 4.05924C165.283 5.26816 159.919 7.76409 155.313 11.3573C150.708 14.9505 146.982 19.5464 144.419 24.7957C141.856 30.045 140.524 35.8094 140.523 41.6508Z" fill="white"/>
<path d="M140.524 41.6518C141.127 73.6861 176.301 90.5935 201.971 72.0178L220.827 76.7143L220.112 77.5554L212.219 60.0592L212.093 59.7508C223.953 38.3993 211.91 10.683 188.26 4.78084C164.497 -1.69611 140.454 17.0758 140.594 41.6518H140.524ZM140.524 41.6518C140.622 8.94459 178.769 -8.95815 204.032 11.8606C217.981 23.1602 222.257 44.3856 213.439 60.1013V59.4985L221.219 77.0507L221.738 78.2284L220.518 77.9059L201.718 72.9851C177.647 91.2103 140.72 74.0786 140.51 41.6518H140.524Z" fill="#263238"/>
<path d="M172.81 65.2178L155.58 47.7777L161.37 42.0718L171.422 52.2499L192.325 19.4866L199.18 23.8606L172.81 65.2178Z" fill="#FFC100"/>
</svg>
