<svg width="12" height="10" viewBox="0 0 12 10" fill="none" xmlns="http://www.w3.org/2000/svg">
<path d="M10.2092 9.49983H1.78921C1.4568 9.50031 1.13105 9.40664 0.849661 9.22967C0.568273 9.05269 0.342756 8.79965 0.199215 8.49983C0.0311821 8.14408 -0.0335371 7.74829 0.0124318 7.35756C0.0584007 6.96682 0.213209 6.59686 0.459215 6.28983L4.66921 1.18983C4.83443 0.999197 5.0387 0.846311 5.26817 0.741529C5.49764 0.636748 5.74695 0.58252 5.99921 0.58252C6.25148 0.58252 6.50079 0.636748 6.73026 0.741529C6.95973 0.846311 7.164 0.999197 7.32921 1.18983L11.5392 6.28983C11.7852 6.59686 11.94 6.96682 11.986 7.35756C12.032 7.74829 11.9672 8.14408 11.7992 8.49983C11.6557 8.79965 11.4302 9.05269 11.1488 9.22967C10.8674 9.40664 10.5416 9.50031 10.2092 9.49983Z" fill="#FAFAFA"/>
</svg>
