<svg width="63" height="62" viewBox="0 0 63 62" fill="none" xmlns="http://www.w3.org/2000/svg">
<path d="M30.209 34.875H32.7923V19.375H30.209V34.875ZM37.959 31H40.5423V21.9583H37.959V31ZM22.459 29.7083H25.0423V21.9583H22.459V29.7083ZM18.584 54.25V44.5315C16.1298 42.2926 14.225 39.7764 12.8697 36.983C11.5143 34.1896 10.8357 31.3221 10.834 28.3805C10.834 22.6507 12.843 17.7794 16.8609 13.7666C20.8788 9.75381 25.7588 7.74828 31.5007 7.75C36.1541 7.75 40.3598 9.16653 44.1177 11.9996C47.8755 14.8326 50.3125 18.4924 51.4285 22.9788L54.1048 33.5782C54.277 34.2326 54.1548 34.8285 53.738 35.3658C53.3212 35.8997 52.7649 36.1667 52.0691 36.1667H47.0006V44.9113C47.0006 46.0583 46.5916 47.0399 45.7736 47.8562C44.9555 48.6726 43.9738 49.0816 42.8286 49.0833H36.6673V54.25H34.084V46.5H42.8286C43.2918 46.5 43.6725 46.351 43.9704 46.0531C44.2683 45.7551 44.4173 45.3745 44.4173 44.9113V33.5833H51.3923L48.9381 23.5729C47.9479 19.6221 45.8209 16.4274 42.5573 13.9888C39.2989 11.5518 35.6133 10.3333 31.5007 10.3333C26.5062 10.3333 22.2437 12.0814 18.7132 15.5775C15.1826 19.0771 13.4173 23.3309 13.4173 28.3392C13.4173 30.9122 13.9452 33.3577 15.0009 35.6758C16.0549 37.9939 17.5507 40.0537 19.4882 41.8552L21.1673 43.4V54.25H18.584Z" fill="#161616"/>
</svg>
