<svg width="117" height="116" viewBox="0 0 117 116" fill="none" xmlns="http://www.w3.org/2000/svg">
<rect x="0.5" width="116" height="116" rx="58" fill="#FFC000"/>
<path d="M57.209 61.875H59.7923V46.375H57.209V61.875ZM64.959 58H67.5423V48.9583H64.959V58ZM49.459 56.7083H52.0423V48.9583H49.459V56.7083ZM45.584 81.25V71.5315C43.1298 69.2926 41.225 66.7764 39.8697 63.983C38.5143 61.1896 37.8357 58.3221 37.834 55.3805C37.834 49.6507 39.843 44.7794 43.8609 40.7666C47.8788 36.7538 52.7588 34.7483 58.5007 34.75C63.1541 34.75 67.3598 36.1665 71.1177 38.9996C74.8755 41.8326 77.3125 45.4924 78.4285 49.9788L81.1048 60.5782C81.277 61.2326 81.1548 61.8285 80.738 62.3658C80.3212 62.8997 79.7649 63.1667 79.0691 63.1667H74.0006V71.9113C74.0006 73.0583 73.5916 74.0399 72.7736 74.8562C71.9555 75.6726 70.9738 76.0816 69.8286 76.0833H63.6673V81.25H61.084V73.5H69.8286C70.2918 73.5 70.6725 73.351 70.9704 73.0531C71.2683 72.7551 71.4173 72.3745 71.4173 71.9113V60.5833H78.3923L75.9381 50.5729C74.9479 46.6221 72.8209 43.4274 69.5573 40.9888C66.2989 38.5518 62.6133 37.3333 58.5007 37.3333C53.5062 37.3333 49.2437 39.0814 45.7132 42.5775C42.1826 46.0771 40.4173 50.3309 40.4173 55.3392C40.4173 57.9122 40.9452 60.3577 42.0009 62.6758C43.0549 64.9939 44.5507 67.0537 46.4882 68.8552L48.1673 70.4V81.25H45.584Z" fill="#161616"/>
</svg>
