<svg width="38" height="38" viewBox="0 0 38 38" fill="none" xmlns="http://www.w3.org/2000/svg">
<path d="M18.9993 25.6073C18.3523 25.6073 17.8097 25.3835 17.3717 24.9359C16.9347 24.4884 16.7162 23.9405 16.7162 23.2924V18.7261C16.7162 18.079 16.9347 17.5317 17.3717 17.0842C17.8097 16.6366 18.3523 16.4128 18.9993 16.4128C19.6464 16.4128 20.189 16.6366 20.627 17.0842C21.0651 17.5317 21.2836 18.079 21.2825 18.7261V23.294C21.2825 23.9411 21.064 24.4884 20.627 24.9359C20.19 25.3835 19.6475 25.6073 18.9993 25.6073ZM18.9993 28.8056C20.4064 28.8056 21.6113 28.3422 22.6141 27.4154C23.6169 26.4897 24.2027 25.3307 24.3716 23.9384C24.4033 23.741 24.4861 23.5843 24.6202 23.4682C24.7521 23.3521 24.9094 23.294 25.092 23.294C25.3021 23.294 25.4741 23.3663 25.6082 23.5109C25.7433 23.6566 25.7945 23.8329 25.7618 24.0398C25.6055 25.6495 24.9595 27.0307 23.8238 28.1833C22.688 29.336 21.3131 29.9936 19.6992 30.1562V32.5502C19.6992 32.7518 19.6332 32.9191 19.5013 33.0521C19.3693 33.184 19.2025 33.25 19.0009 33.25C18.7993 33.25 18.632 33.184 18.499 33.0521C18.366 32.9201 18.2995 32.7528 18.2995 32.5502V30.1562C16.6845 29.9936 15.3149 29.336 14.1908 28.1833C13.0666 27.0307 12.4253 25.6495 12.267 24.0398C12.2353 23.8329 12.2871 23.6566 12.4222 23.5109C12.5583 23.3663 12.7352 23.294 12.9526 23.294C13.1225 23.294 13.2698 23.3542 13.3943 23.4745C13.5189 23.5948 13.597 23.7495 13.6287 23.9384C13.7976 25.3318 14.3834 26.4913 15.3862 27.417C16.389 28.3417 17.5933 28.804 18.9993 28.804M4.35352 20.4614C4.01679 20.4614 3.73496 20.3479 3.50802 20.121C3.28002 19.893 3.16602 19.6106 3.16602 19.2739V19.0649C3.16602 18.2627 3.32171 17.5898 3.6331 17.0462C3.94554 16.5036 4.43427 16.0576 5.09927 15.7083C6.05349 15.2153 7.06682 14.8438 8.13927 14.5936C9.21065 14.3445 10.3237 14.2199 11.4785 14.2199C11.9746 14.2199 12.456 14.2431 12.9225 14.2896C13.3891 14.336 13.8546 14.4062 14.319 14.5002C14.5365 14.5529 14.6547 14.6812 14.6737 14.8849C14.6927 15.0886 14.6072 15.2464 14.4172 15.3583C13.5548 15.8682 12.7906 16.52 12.1245 17.3138C11.4585 18.1065 10.9544 18.9741 10.6124 19.9168C10.5502 20.0645 10.4462 20.1923 10.3005 20.2999C10.1548 20.4076 9.99863 20.4614 9.83185 20.4614H4.35352ZM28.1668 20.4614C28.0001 20.4614 27.8438 20.4076 27.6982 20.2999C27.5525 20.1923 27.4485 20.0645 27.3863 19.9168C27.0443 18.9741 26.5418 18.1059 25.8789 17.3122C25.216 16.5194 24.4534 15.8682 23.591 15.3583C23.401 15.2464 23.3203 15.0886 23.3488 14.8849C23.3783 14.6812 23.4886 14.5529 23.6797 14.5002C24.1452 14.4062 24.6107 14.336 25.0762 14.2896C25.5417 14.2431 26.023 14.2199 26.5202 14.2199C27.675 14.2199 28.7886 14.3445 29.861 14.5936C30.9324 14.8438 31.9452 15.2153 32.8994 15.7083C33.5644 16.0576 34.0532 16.5036 34.3656 17.0462C34.677 17.5898 34.8327 18.2627 34.8327 19.0649V19.2739C34.8327 19.6106 34.7192 19.893 34.4923 20.121C34.2643 20.3479 33.9819 20.4614 33.6452 20.4614H28.1668ZM11.4817 12.4228C10.4251 12.4228 9.52627 12.0502 8.78526 11.305C8.04427 10.5587 7.67377 9.65253 7.67377 8.58642C7.67377 7.52031 8.04374 6.61464 8.78368 5.86942C9.52363 5.1242 10.4214 4.75106 11.4769 4.75C12.5325 4.74895 13.4313 5.12209 14.1733 5.86942C14.9154 6.61675 15.2859 7.52242 15.2848 8.58642C15.2838 9.65042 14.9138 10.5566 14.1749 11.305C13.436 12.0534 12.5393 12.426 11.4817 12.4228ZM26.5218 12.4228C25.4652 12.4228 24.5663 12.0497 23.8253 11.3034C23.0843 10.5582 22.7138 9.65253 22.7138 8.58642C22.7138 7.52031 23.0838 6.61464 23.8238 5.86942C24.5637 5.1242 25.462 4.75106 26.5186 4.75C27.5752 4.74895 28.474 5.12209 29.215 5.86942C29.956 6.61675 30.3265 7.52242 30.3265 8.58642C30.3265 9.65253 29.9565 10.5587 29.2166 11.305C28.4767 12.0513 27.5784 12.4239 26.5218 12.4228Z" fill="#FFC000"/>
</svg>
