<svg width="21" height="20" viewBox="0 0 21 20" fill="none" xmlns="http://www.w3.org/2000/svg">
<path d="M16.6802 13.0943C19.9727 8.9193 19.0835 4.7793 16.7185 3.32847C14.4835 1.95763 12.5327 2.51013 11.361 3.39013L10.4993 4.03513M16.6802 13.0943C15.8902 14.0968 14.8593 15.1001 13.5493 16.0693C12.2618 17.0235 11.6177 17.5001 10.4993 17.5001C9.381 17.5001 8.73767 17.0235 7.44933 16.0693C0.684333 11.0626 1.34767 5.12763 4.28017 3.32847C6.51517 1.95763 8.466 2.51013 9.63767 3.39013L10.4993 4.03513M16.6802 13.0943L12.076 7.87097C11.9846 7.76762 11.8595 7.70002 11.7229 7.68018C11.5864 7.66035 11.4472 7.68956 11.3302 7.76263L9.5085 8.90097C9.15126 9.12697 8.72046 9.20606 8.30624 9.1217C7.89202 9.03734 7.52647 8.79605 7.28608 8.44833C7.0457 8.10061 6.94909 7.6734 7.01648 7.25608C7.08388 6.83876 7.31004 6.46368 7.64767 6.2093L10.4993 4.03513" stroke="#FFC000" stroke-width="1.25" stroke-linecap="round" stroke-linejoin="round"/>
</svg>
