<svg width="24" height="25" viewBox="0 0 24 25" fill="none" xmlns="http://www.w3.org/2000/svg">
<path d="M4 2.89062C3.46957 2.89063 2.96086 3.10134 2.58579 3.47641C2.21071 3.85148 2 4.36019 2 4.89062V12.8906H4V8.89062H6V12.8906H8V4.89062C8 4.36019 7.78929 3.85148 7.41421 3.47641C7.03914 3.10134 6.53043 2.89063 6 2.89062H4ZM4 4.89062H6V6.89062H4M22 16.3906V14.8906C22 14.3602 21.7893 13.8515 21.4142 13.4764C21.0391 13.1013 20.5304 12.8906 20 12.8906H16V22.8906H20C20.5304 22.8906 21.0391 22.6799 21.4142 22.3048C21.7893 21.9298 22 21.4211 22 20.8906V19.3906C21.9899 18.996 21.8286 18.6203 21.5495 18.3412C21.2703 18.062 20.8946 17.9007 20.5 17.8906C20.8946 17.8805 21.2703 17.7192 21.5495 17.4401C21.8286 17.1609 21.9899 16.7853 22 16.3906ZM20 20.8906H18V18.8906H20V20.8906ZM20 16.8906H18V14.8906H20M5.79 22.5006L4.21 21.2806L18.21 3.28063L19.79 4.50062L5.79 22.5006Z" fill="#FFC000"/>
</svg>
