<svg width="63" height="62" viewBox="0 0 63 62" fill="none" xmlns="http://www.w3.org/2000/svg">
<g clip-path="url(#clip0_117_11358)">
<path d="M26.7773 44.2295C28.0892 44.8955 29.2699 45.7129 30.3193 46.6816C31.3688 47.6504 32.277 48.7402 33.0439 49.9511C33.8109 51.1621 34.3861 52.4537 34.7695 53.8261C35.153 55.1985 35.3548 56.6315 35.375 58.125H31.5C31.5 56.5306 31.1973 55.027 30.5918 53.6142C29.9863 52.2015 29.1589 50.9703 28.1094 49.9209C27.0599 48.8714 25.8187 48.0338 24.3857 47.4082C22.9528 46.7825 21.4492 46.4798 19.875 46.5C18.2604 46.5 16.7568 46.8027 15.3643 47.4082C13.9717 48.0136 12.7406 48.8411 11.6709 49.8906C10.6012 50.9401 9.76367 52.1813 9.1582 53.6142C8.55273 55.0472 8.25 56.5508 8.25 58.125H4.375C4.375 56.6517 4.57682 55.2288 4.98047 53.8564C5.38411 52.484 5.95931 51.1924 6.70605 49.9814C7.4528 48.7705 8.35091 47.6806 9.40039 46.7119C10.4499 45.7431 11.6406 44.9157 12.9727 44.2295C11.4792 43.1194 10.3187 41.747 9.49121 40.1123C8.66374 38.4775 8.25 36.7317 8.25 34.875C8.25 33.2806 8.55273 31.777 9.1582 30.3642C9.76367 28.9515 10.5911 27.7203 11.6406 26.6709C12.6901 25.6214 13.9212 24.7838 15.334 24.1582C16.7467 23.5325 18.2604 23.2298 19.875 23.25C21.7318 23.25 23.4775 23.6637 25.1123 24.4912C26.7471 25.3187 28.1195 26.4791 29.2295 27.9726C29.9964 26.459 30.9753 25.1067 32.166 23.916C33.3568 22.7252 34.709 21.7464 36.2227 20.9795C34.7292 19.8694 33.5687 18.497 32.7412 16.8623C31.9137 15.2275 31.5 13.4817 31.5 11.625C31.5 10.0306 31.8027 8.52699 32.4082 7.11423C33.0137 5.70147 33.8411 4.47035 34.8906 3.42087C35.9401 2.37139 37.1712 1.53382 38.584 0.908173C39.9967 0.282522 41.5104 -0.0202128 43.125 -3.05176e-05C44.7194 -3.05176e-05 46.223 0.302704 47.6357 0.908173C49.0485 1.51364 50.2796 2.34112 51.3291 3.39059C52.3786 4.44007 53.2161 5.68128 53.8418 7.11423C54.4674 8.54717 54.7702 10.0508 54.75 11.625C54.75 13.4817 54.3363 15.2275 53.5088 16.8623C52.6813 18.497 51.5208 19.8694 50.0273 20.9795C51.3392 21.6455 52.5199 22.4629 53.5693 23.4316C54.6188 24.4004 55.527 25.4902 56.2939 26.7011C57.0609 27.9121 57.6361 29.2037 58.0195 30.5761C58.403 31.9485 58.6048 33.3815 58.625 34.875H54.75C54.75 33.2806 54.4473 31.777 53.8418 30.3642C53.2363 28.9515 52.4089 27.7203 51.3594 26.6709C50.3099 25.6214 49.0687 24.7838 47.6357 24.1582C46.2028 23.5325 44.6992 23.2298 43.125 23.25C41.5104 23.25 40.0068 23.5527 38.6143 24.1582C37.2217 24.7636 35.9906 25.5911 34.9209 26.6406C33.8512 27.6901 33.0137 28.9313 32.4082 30.3642C31.8027 31.7972 31.5 33.3008 31.5 34.875C31.5 36.7317 31.0863 38.4775 30.2588 40.1123C29.4313 41.747 28.2708 43.1194 26.7773 44.2295ZM35.375 11.625C35.375 12.6946 35.5768 13.6937 35.9805 14.622C36.3841 15.5504 36.9391 16.3779 37.6455 17.1045C38.3519 17.831 39.1693 18.386 40.0977 18.7695C41.026 19.153 42.0352 19.3548 43.125 19.375C44.1947 19.375 45.1937 19.1731 46.1221 18.7695C47.0505 18.3659 47.8779 17.8108 48.6045 17.1045C49.3311 16.3981 49.8861 15.5807 50.2695 14.6523C50.653 13.7239 50.8548 12.7148 50.875 11.625C50.875 10.5553 50.6732 9.55628 50.2695 8.6279C49.8659 7.69951 49.3109 6.87204 48.6045 6.14548C47.8981 5.41891 47.0807 4.8639 46.1523 4.48044C45.224 4.09697 44.2148 3.89515 43.125 3.87497C42.0553 3.87497 41.0563 4.07679 40.1279 4.48044C39.1995 4.88408 38.3721 5.4391 37.6455 6.14548C36.9189 6.85186 36.3639 7.66924 35.9805 8.59763C35.597 9.52601 35.3952 10.5351 35.375 11.625ZM12.125 34.875C12.125 35.9446 12.3268 36.9437 12.7305 37.872C13.1341 38.8004 13.6891 39.6279 14.3955 40.3545C15.1019 41.081 15.9193 41.636 16.8477 42.0195C17.776 42.403 18.7852 42.6048 19.875 42.625C20.9447 42.625 21.9437 42.4231 22.8721 42.0195C23.8005 41.6159 24.6279 41.0608 25.3545 40.3545C26.0811 39.6481 26.6361 38.8307 27.0195 37.9023C27.403 36.9739 27.6048 35.9648 27.625 34.875C27.625 33.8053 27.4232 32.8063 27.0195 31.8779C26.6159 30.9495 26.0609 30.122 25.3545 29.3955C24.6481 28.6689 23.8307 28.1139 22.9023 27.7304C21.974 27.347 20.9648 27.1452 19.875 27.125C18.8053 27.125 17.8063 27.3268 16.8779 27.7304C15.9495 28.1341 15.1221 28.6891 14.3955 29.3955C13.6689 30.1019 13.1139 30.9192 12.7305 31.8476C12.347 32.776 12.1452 33.7851 12.125 34.875ZM57.6562 62L48.9375 55.1884L40.2188 62L43.7305 51.1015L35.375 44.5625H45.8193L48.9375 34.875L52.0557 44.5625H62.5L54.1445 51.1015L57.6562 62Z" fill="#161616"/>
</g>
<defs>
<clipPath id="clip0_117_11358">
<rect width="62" height="62" fill="white" transform="translate(0.5)"/>
</clipPath>
</defs>
</svg>
