<svg width="24" height="25" viewBox="0 0 24 25" fill="none" xmlns="http://www.w3.org/2000/svg">
<g clip-path="url(#clip0_250_4785)">
<path d="M2.57171 15.0717V22.786C2.57171 23.0134 2.66201 23.2314 2.82276 23.3921C2.9835 23.5529 3.20152 23.6432 3.42885 23.6432H20.5717C20.799 23.6432 21.0171 23.5529 21.1778 23.3921C21.3385 23.2314 21.4289 23.0134 21.4289 22.786V15.0717M0.857422 6.50032V9.92889C0.857422 10.1562 0.947728 10.3742 1.10847 10.535C1.26922 10.6957 1.48724 10.786 1.71456 10.786H22.286C22.5133 10.786 22.7313 10.6957 22.8921 10.535C23.0528 10.3742 23.1431 10.1562 23.1431 9.92889V6.50032M0.857422 6.50032L2.94885 2.30032C3.09261 2.015 3.31325 1.77554 3.58586 1.60894C3.85848 1.44234 4.17222 1.35524 4.49171 1.35746H19.5089C19.8283 1.35524 20.1421 1.44234 20.4147 1.60894C20.6873 1.77554 20.9079 2.015 21.0517 2.30032L23.1431 6.50032M0.857422 6.50032H23.1431M13.7146 15.0717V23.6432M2.57171 17.6432H13.7146" stroke="#FFC000" stroke-width="1.71429" stroke-linecap="round" stroke-linejoin="round"/>
</g>
<defs>
<clipPath id="clip0_250_4785">
<rect width="24" height="24" fill="white" transform="translate(0 0.5)"/>
</clipPath>
</defs>
</svg>
