<svg width="117" height="116" viewBox="0 0 117 116" fill="none" xmlns="http://www.w3.org/2000/svg">
<rect x="0.5" width="116" height="116" rx="58" fill="#FFC000"/>
<path d="M36.6435 33.3569L33.8555 36.145L47.9643 50.25H37.188V54.125H54.6255V36.6875H50.7505V47.4658L36.6435 33.3569ZM80.3574 33.3569L66.2505 47.4639V36.6875H62.3755V54.125H79.813V50.25H69.0347L83.1435 36.1431L80.3574 33.3569ZM37.188 61.875V65.75H47.9663L33.8555 79.8569L36.6455 82.645L50.7505 68.5342V79.3125H54.6255V61.875H37.188ZM62.3755 61.875V79.3125H66.2505V68.5342L80.3574 82.6431L83.1435 79.8569L69.0347 65.75H79.813V61.875H62.3755Z" fill="#161616"/>
</svg>
