<svg width="20" height="20" viewBox="0 0 20 20" fill="none" xmlns="http://www.w3.org/2000/svg">
<path d="M5.44917 11.25H6.2825C6.37861 10.4306 6.75195 9.73944 7.4025 9.17667C8.0525 8.61444 8.82111 8.33333 9.70833 8.33333C10.2728 8.33333 10.8744 8.51472 11.5133 8.8775C12.1522 9.24028 12.68 9.75333 13.0967 10.4167H11.1858V11.25H14.5192V7.91667H13.6858V9.81667C13.1775 9.03333 12.5553 8.45139 11.8192 8.07083C11.0842 7.69028 10.3806 7.5 9.70833 7.5C8.58111 7.5 7.61861 7.86167 6.82083 8.585C6.02306 9.30833 5.56528 10.1967 5.44917 11.25ZM10.0033 17.5C8.96667 17.5 7.99167 17.3033 7.07833 16.91C6.16556 16.5161 5.37139 15.9817 4.69583 15.3067C4.02028 14.6317 3.48556 13.8383 3.09167 12.9267C2.69778 12.015 2.50056 11.0403 2.5 10.0025C2.49945 8.96472 2.69639 7.98972 3.09083 7.0775C3.48417 6.16472 4.01778 5.37056 4.69167 4.695C5.36556 4.01944 6.15917 3.48472 7.0725 3.09083C7.98583 2.69694 8.96083 2.5 9.9975 2.5C11.0342 2.5 12.0092 2.69694 12.9225 3.09083C13.8353 3.48417 14.6294 4.01806 15.305 4.6925C15.9806 5.36694 16.5153 6.16056 16.9092 7.07333C17.3031 7.98611 17.5 8.96083 17.5 9.9975C17.5 11.0342 17.3033 12.0092 16.91 12.9225C16.5167 13.8358 15.9822 14.63 15.3067 15.305C14.6311 15.98 13.8378 16.5147 12.9267 16.9092C12.0156 17.3036 11.0417 17.5006 10.0033 17.5ZM10 16.6667C11.8611 16.6667 13.4375 16.0208 14.7292 14.7292C16.0208 13.4375 16.6667 11.8611 16.6667 10C16.6667 8.13889 16.0208 6.5625 14.7292 5.27083C13.4375 3.97917 11.8611 3.33333 10 3.33333C8.13889 3.33333 6.5625 3.97917 5.27083 5.27083C3.97917 6.5625 3.33333 8.13889 3.33333 10C3.33333 11.8611 3.97917 13.4375 5.27083 14.7292C6.5625 16.0208 8.13889 16.6667 10 16.6667Z" fill="#FEBC00"/>
</svg>
