<svg width="22" height="20" viewBox="0 0 22 20" fill="none" xmlns="http://www.w3.org/2000/svg">
<path d="M7.10078 1.2C6.3847 1.2 5.69794 1.48446 5.19159 1.99081C4.68525 2.49716 4.40078 3.18392 4.40078 3.9C4.40078 4.61608 4.68525 5.30284 5.19159 5.80919C5.69794 6.31554 6.3847 6.6 7.10078 6.6C7.81687 6.6 8.50362 6.31554 9.00997 5.80919C9.51632 5.30284 9.80078 4.61608 9.80078 3.9C9.80078 3.18392 9.51632 2.49716 9.00997 1.99081C8.50362 1.48446 7.81687 1.2 7.10078 1.2ZM3.20078 3.9C3.20078 2.86566 3.61167 1.87368 4.34306 1.14228C5.07446 0.410892 6.06644 0 7.10078 0C8.13513 0 9.12711 0.410892 9.8585 1.14228C10.5899 1.87368 11.0008 2.86566 11.0008 3.9C11.0008 4.93434 10.5899 5.92632 9.8585 6.65772C9.12711 7.38911 8.13513 7.8 7.10078 7.8C6.06644 7.8 5.07446 7.38911 4.34306 6.65772C3.61167 5.92632 3.20078 4.93434 3.20078 3.9ZM3.20078 9C2.56426 9 1.95381 9.25286 1.50372 9.70294C1.05364 10.153 0.800781 10.7635 0.800781 11.4V11.5008C0.802508 11.571 0.807312 11.641 0.815181 11.7108C0.900231 12.4885 1.17644 13.233 1.61918 13.878C2.46038 15.096 4.08518 16.2 7.10078 16.2C8.23598 16.2 9.17318 16.044 9.94598 15.7836C9.86118 15.3876 9.81318 14.9796 9.80198 14.5596C9.12518 14.826 8.24558 15 7.10078 15C4.41638 15 3.19118 14.0412 2.60678 13.1964C2.27949 12.7189 2.0743 12.1684 2.00918 11.5932L2.00198 11.4936L2.00078 11.4732V11.4C2.00078 11.0817 2.12721 10.7765 2.35225 10.5515C2.5773 10.3264 2.88252 10.2 3.20078 10.2H11.0008C11.0976 10.2 11.1916 10.2112 11.2828 10.2336C11.5548 9.8976 11.858 9.5916 12.1924 9.3156C11.8294 9.10845 11.4187 8.99966 11.0008 9H3.20078ZM16.4008 3C15.9234 3 15.4656 3.18964 15.128 3.52721C14.7904 3.86477 14.6008 4.32261 14.6008 4.8C14.6008 5.27739 14.7904 5.73523 15.128 6.07279C15.4656 6.41036 15.9234 6.6 16.4008 6.6C16.8782 6.6 17.336 6.41036 17.6736 6.07279C18.0111 5.73523 18.2008 5.27739 18.2008 4.8C18.2008 4.32261 18.0111 3.86477 17.6736 3.52721C17.336 3.18964 16.8782 3 16.4008 3ZM13.4008 4.8C13.4008 4.00435 13.7169 3.24129 14.2795 2.67868C14.8421 2.11607 15.6051 1.8 16.4008 1.8C17.1964 1.8 17.9595 2.11607 18.5221 2.67868C19.0847 3.24129 19.4008 4.00435 19.4008 4.8C19.4008 5.59565 19.0847 6.35871 18.5221 6.92132C17.9595 7.48393 17.1964 7.8 16.4008 7.8C15.6051 7.8 14.8421 7.48393 14.2795 6.92132C13.7169 6.35871 13.4008 5.59565 13.4008 4.8ZM16.4008 19.8C17.5854 19.7996 18.7371 19.4097 19.6783 18.6903C20.6195 17.971 21.298 16.962 21.6093 15.819C21.9206 14.676 21.8474 13.4624 21.401 12.3651C20.9546 11.2678 20.1597 10.3477 19.1389 9.74665C18.118 9.14561 16.9279 8.89693 15.7518 9.03894C14.5757 9.18095 13.4789 9.70577 12.6305 10.5325C11.782 11.3593 11.229 12.4421 11.0566 13.6141C10.8842 14.7861 11.102 15.9823 11.6764 17.0184L11.0236 19.1652C10.9983 19.2502 10.9964 19.3404 11.0181 19.4264C11.0399 19.5124 11.0845 19.5909 11.1472 19.6536C11.2099 19.7163 11.2884 19.7609 11.3744 19.7826C11.4603 19.8044 11.5506 19.8025 11.6356 19.7772L13.7836 19.1244C14.5846 19.5678 15.4852 19.8003 16.4008 19.8ZM13.4008 13.2C13.4008 13.0409 13.464 12.8883 13.5765 12.7757C13.689 12.6632 13.8417 12.6 14.0008 12.6H18.8008C18.9599 12.6 19.1125 12.6632 19.225 12.7757C19.3376 12.8883 19.4008 13.0409 19.4008 13.2C19.4008 13.3591 19.3376 13.5117 19.225 13.6243C19.1125 13.7368 18.9599 13.8 18.8008 13.8H14.0008C13.8417 13.8 13.689 13.7368 13.5765 13.6243C13.464 13.5117 13.4008 13.3591 13.4008 13.2ZM14.0008 16.2C13.8417 16.2 13.689 16.1368 13.5765 16.0243C13.464 15.9117 13.4008 15.7591 13.4008 15.6C13.4008 15.4409 13.464 15.2883 13.5765 15.1757C13.689 15.0632 13.8417 15 14.0008 15H16.4008C16.5599 15 16.7125 15.0632 16.825 15.1757C16.9376 15.2883 17.0008 15.4409 17.0008 15.6C17.0008 15.7591 16.9376 15.9117 16.825 16.0243C16.7125 16.1368 16.5599 16.2 16.4008 16.2H14.0008Z" fill="#FFC000"/>
</svg>
