<svg width="20" height="21" viewBox="0 0 20 21" fill="none" xmlns="http://www.w3.org/2000/svg">
<g clip-path="url(#clip0_250_2621)">
<path d="M18.9294 19.4284L15.4051 15.9041M9.46512 18.357C11.691 18.357 13.8258 17.4728 15.3998 15.8988C16.9737 14.3248 17.858 12.1901 17.858 9.96415C17.858 7.73822 16.9737 5.60347 15.3998 4.0295C13.8258 2.45553 11.691 1.57129 9.46512 1.57129C7.2392 1.57129 5.10444 2.45553 3.53048 4.0295C1.95651 5.60347 1.07227 7.73822 1.07227 9.96415C1.07227 12.1901 1.95651 14.3248 3.53048 15.8988C5.10444 17.4728 7.2392 18.357 9.46512 18.357Z" stroke="#FBBD00" stroke-width="1.42857" stroke-linecap="round" stroke-linejoin="round"/>
<path d="M7.85714 6.92871L5 9.78585L7.85714 12.643M10.7143 6.92871L13.5714 9.78585L10.7143 12.643" stroke="#FBBD00" stroke-width="1.42857" stroke-linecap="round" stroke-linejoin="round"/>
</g>
<defs>
<clipPath id="clip0_250_2621">
<rect width="20" height="20" fill="white" transform="translate(0 0.5)"/>
</clipPath>
</defs>
</svg>
