<svg width="20" height="21" viewBox="0 0 20 21" fill="none" xmlns="http://www.w3.org/2000/svg">
<path d="M5.83268 7.51758C5.41601 7.51758 4.58268 7.76758 4.58268 8.76758C4.58268 9.76758 5.41601 10.0176 5.83268 10.0176M1.66602 15.0176V17.5176C1.66602 17.9596 1.84161 18.3835 2.15417 18.6961C2.46673 19.0086 2.89065 19.1842 3.33268 19.1842H12.4993M1.66602 15.0176V5.85091C1.66602 5.40888 1.84161 4.98496 2.15417 4.6724C2.46673 4.35984 2.89065 4.18424 3.33268 4.18424H5.83268M1.66602 15.0176C2.83518 14.8226 4.69685 14.7734 6.62018 15.2201M12.4993 19.1842H14.9993C15.4414 19.1842 15.8653 19.0086 16.1779 18.6961C16.4904 18.3835 16.666 17.9596 16.666 17.5176V12.5176M12.4993 19.1842C11.0793 16.8776 8.81018 15.7276 6.62018 15.2201M6.62018 15.2201C7.53268 14.1634 8.89518 13.1784 10.8668 12.5176M8.33268 9.18424V5.01758C8.33268 4.79656 8.42048 4.5846 8.57676 4.42832C8.73304 4.27204 8.945 4.18424 9.16601 4.18424H9.99935L11.666 2.51758H14.9993L16.666 4.18424H17.4993C17.7204 4.18424 17.9323 4.27204 18.0886 4.42832C18.2449 4.5846 18.3327 4.79656 18.3327 5.01758V9.18424C18.3327 9.40526 18.2449 9.61722 18.0886 9.7735C17.9323 9.92978 17.7204 10.0176 17.4993 10.0176H9.16601C8.945 10.0176 8.73304 9.92978 8.57676 9.7735C8.42048 9.61722 8.33268 9.40526 8.33268 9.18424Z" stroke="#FFC000" stroke-linecap="round" stroke-linejoin="round"/>
<path d="M13.3333 7.51725C13.7936 7.51725 14.1667 7.14416 14.1667 6.68392C14.1667 6.22368 13.7936 5.85059 13.3333 5.85059C12.8731 5.85059 12.5 6.22368 12.5 6.68392C12.5 7.14416 12.8731 7.51725 13.3333 7.51725Z" stroke="#FFC000" stroke-linecap="round" stroke-linejoin="round"/>
</svg>
