<svg width="20" height="20" viewBox="0 0 20 20" fill="none" xmlns="http://www.w3.org/2000/svg">
<path d="M3.02914 9.41071C2.87292 9.56698 2.78516 9.77891 2.78516 9.99988C2.78516 10.2208 2.87292 10.4328 3.02914 10.589L7.74331 15.3032C7.82018 15.3828 7.91214 15.4463 8.01381 15.49C8.11548 15.5336 8.22483 15.5566 8.33548 15.5576C8.44613 15.5585 8.55586 15.5375 8.65827 15.4956C8.76069 15.4537 8.85373 15.3918 8.93197 15.3135C9.01022 15.2353 9.0721 15.1423 9.114 15.0398C9.1559 14.9374 9.17698 14.8277 9.17602 14.717C9.17506 14.6064 9.15207 14.497 9.1084 14.3954C9.06472 14.2937 9.00124 14.2017 8.92164 14.1249L5.62998 10.8332L16.6658 10.8332C16.8868 10.8332 17.0988 10.7454 17.2551 10.5891C17.4113 10.4329 17.4991 10.2209 17.4991 9.99988C17.4991 9.77886 17.4113 9.5669 17.2551 9.41062C17.0988 9.25434 16.8868 9.16654 16.6658 9.16654L5.62998 9.16654L8.92164 5.87488C9.07344 5.71771 9.15744 5.50721 9.15554 5.28871C9.15364 5.07021 9.066 4.8612 8.91149 4.7067C8.75699 4.55219 8.54798 4.46455 8.32948 4.46265C8.11098 4.46075 7.90048 4.54475 7.74331 4.69654L3.02914 9.41071Z" fill="#161616"/>
</svg>
