<svg width="25" height="23" viewBox="0 0 25 23" fill="none" xmlns="http://www.w3.org/2000/svg">
<path d="M1 0.683594L0.999999 22.1971" stroke="white" stroke-width="0.496465" stroke-linecap="round"/>
<path fill-rule="evenodd" clip-rule="evenodd" d="M13.1127 7.48338C13.2382 7.48338 13.2922 7.64248 13.1927 7.71887L13.1712 7.73854C12.9787 7.91637 12.8255 8.12077 12.7108 8.35111C12.6806 8.41161 12.652 8.48104 12.6255 8.55954C12.5297 8.84375 12.2862 9.06672 11.9863 9.06672C11.4222 9.06672 11.1625 9.76854 11.5908 10.1357L12.2291 10.6828C12.6217 11.0192 12.6275 11.6186 12.5083 12.1217C12.4717 12.2761 12.4532 12.4394 12.4532 12.6119C12.4532 12.7112 12.3322 12.7732 12.2571 12.7083L10.5698 11.2506C9.93851 10.7052 8.95835 11.1537 8.95835 11.988V15.9834C8.95835 16.5357 9.40606 16.9834 9.95835 16.9834H19.0417C19.5939 16.9834 20.0417 16.5357 20.0417 15.9834V11.969C20.0417 11.1421 19.0702 10.6977 18.4446 11.2382L16.6767 12.7656C16.577 12.8517 16.4115 12.7624 16.4115 12.6306C16.4115 12.4818 16.3982 12.3399 16.3719 12.2049C16.2722 11.6927 16.293 11.0924 16.6892 10.7528L18.1112 9.53389C18.2984 9.37345 18.1849 9.06672 17.9384 9.06672C17.6839 9.06672 17.5675 8.73274 17.7509 8.55626C17.9813 8.33456 18.162 8.12083 18.2958 7.9176C18.4609 7.66712 18.7247 7.48342 19.0247 7.48342H20.625C21.1773 7.48342 21.625 7.93113 21.625 8.48342V17.5667C21.625 18.119 21.1773 18.5667 20.625 18.5667H8.375C7.82271 18.5667 7.375 18.119 7.375 17.5667V8.48341C7.375 7.93113 7.82271 7.48341 8.37499 7.48341L13.1127 7.48338ZM14.4997 14.6059C14.5158 14.6054 14.5234 14.6258 14.5112 14.6363C14.5048 14.6418 14.4952 14.6418 14.4888 14.6363C14.4769 14.6261 14.4841 14.6063 14.4997 14.6059ZM14.5033 11.4401C14.8458 11.4401 15.1288 11.5529 15.3524 11.7785C15.5759 12.0041 15.6876 12.2882 15.6876 12.6307C15.6876 12.9691 15.5759 13.2511 15.3524 13.4767C15.1289 13.7023 14.8458 13.8151 14.5033 13.8151C14.1523 13.8151 13.8662 13.7023 13.6447 13.4767C13.4233 13.2511 13.3126 12.9628 13.3126 12.6119C13.3126 12.2777 13.4254 11.9989 13.651 11.7754C13.8766 11.5519 14.1607 11.4401 14.5033 11.4401ZM14.8712 3.52344C15.9444 3.52344 16.7611 3.78759 17.3213 4.31591C17.8155 4.79041 18.0626 5.4068 18.0626 6.16507C18.0626 6.67866 17.9426 7.1177 17.7025 7.48219C17.4925 7.80108 17.1383 8.14338 16.6399 8.50908L16.4175 8.66724C15.9468 8.99499 15.6573 9.2457 15.549 9.41938C15.4408 9.59305 15.3866 9.90245 15.3867 10.3476C15.3867 10.5137 15.252 10.6484 15.0858 10.6484H13.9495C13.5929 10.6484 13.3038 10.3593 13.3038 10.0027C13.3038 9.38145 13.365 8.94851 13.4874 8.70391C13.558 8.56207 13.6521 8.43611 13.7698 8.32602L13.9012 8.21221C13.9646 8.16032 14.0288 8.1094 14.0937 8.05946L14.8512 7.49592C15.1711 7.25197 15.3884 7.06027 15.5032 6.92084C15.6561 6.73494 15.7326 6.51726 15.7326 6.26779C15.7326 5.95471 15.6255 5.70645 15.4114 5.523C15.1972 5.33956 14.9065 5.24784 14.5394 5.24784C14.1591 5.24784 13.729 5.34823 13.2492 5.54903C12.7658 5.75136 12.1859 5.55825 11.9973 5.06929C11.844 4.67194 12.0074 4.21703 12.3991 4.04989C13.2217 3.69892 14.0457 3.52344 14.8712 3.52344Z" fill="white"/>
</svg>
