<svg width="24" height="24" viewBox="0 0 24 24" fill="none" xmlns="http://www.w3.org/2000/svg">
<path d="M19.9993 14.5V6.5C19.9993 4.614 19.9993 3.672 19.4133 3.086C18.8273 2.5 17.8853 2.5 15.9993 2.5H7.99932C6.11332 2.5 5.17132 2.5 4.58532 3.086C3.99932 3.672 3.99932 4.614 3.99932 6.5V14.5M3.49732 15.515L4.01932 14.5H19.9513L20.5013 15.515C21.9443 18.177 22.3043 19.508 21.7553 20.504C21.2063 21.5 19.7533 21.5 16.8453 21.5H7.15332C4.24432 21.5 2.79032 21.5 2.24232 20.504C1.69332 19.508 2.05332 18.177 3.49732 15.515Z" stroke="#FFC000" stroke-width="1.5" stroke-linecap="round" stroke-linejoin="round"/>
<path d="M15.5 7L16.42 7.793C16.807 8.126 17 8.293 17 8.5C17 8.707 16.807 8.874 16.42 9.207L15.5 10M8.5 7L7.58 7.793C7.193 8.126 7 8.293 7 8.5C7 8.707 7.193 8.874 7.58 9.207L8.5 10M13 6L11 11" stroke="#FFC000" stroke-width="1.5" stroke-linecap="round" stroke-linejoin="round"/>
</svg>
