<svg width="68" height="69" viewBox="0 0 68 69" fill="none" xmlns="http://www.w3.org/2000/svg">
<path d="M25.5 62.125H42.5M38.25 21.75L31.875 28.125L36.125 32.375L29.75 38.75M55.25 28.125V32.375C55.25 35.775 52.4153 39.4597 51 40.875L44.625 47.25L42.5 53.625H25.5L23.375 47.25L17 40.875C15.5847 39.4597 12.75 35.775 12.75 32.375V28.125C12.75 22.4891 14.9888 17.0841 18.974 13.099C22.9591 9.11383 28.3641 6.875 34 6.875C39.6359 6.875 45.0409 9.11383 49.026 13.099C53.0112 17.0841 55.25 22.4891 55.25 28.125Z" stroke="#FFC000" stroke-width="4.25"/>
</svg>
