<svg width="25" height="24" viewBox="0 0 25 24" fill="none" xmlns="http://www.w3.org/2000/svg">
<path d="M16.3548 2.75H10.1878C8.82529 2.7508 7.51884 3.29254 6.55558 4.25618C5.59232 5.21981 5.05108 6.52648 5.05081 7.889V16.111C5.05081 18.949 7.35081 21.25 10.1888 21.25H16.3558C19.1938 21.25 21.4948 18.95 21.4948 16.111V7.89C21.4948 5.052 19.1948 2.751 16.3558 2.751M3.50781 8.403H6.59081M3.50781 15.597H6.59081" stroke="#FFC000" stroke-width="1.5" stroke-linecap="round" stroke-linejoin="round"/>
<path d="M17.1716 16.7449C17.1716 15.0919 15.3286 13.7489 13.6766 13.7489C12.0246 13.7489 10.1816 15.0919 10.1816 16.7439M13.6766 11.3679C13.985 11.3679 14.2903 11.3071 14.5752 11.1891C14.8601 11.0711 15.1189 10.8982 15.3369 10.6802C15.555 10.4621 15.7279 10.2033 15.8459 9.91842C15.9639 9.63354 16.0246 9.32822 16.0246 9.01988C16.0246 8.71153 15.9639 8.40621 15.8459 8.12133C15.7279 7.83646 15.555 7.57762 15.3369 7.35959C15.1189 7.14156 14.8601 6.9686 14.5752 6.85061C14.2903 6.73261 13.985 6.67187 13.6766 6.67188C13.0539 6.67188 12.4567 6.91925 12.0164 7.35959C11.576 7.79992 11.3286 8.39715 11.3286 9.01988C11.3286 9.6426 11.576 10.2398 12.0164 10.6802C12.4567 11.1205 13.0539 11.3679 13.6766 11.3679Z" stroke="#FFC000" stroke-width="1.5" stroke-linecap="round" stroke-linejoin="round"/>
</svg>
