<svg width="24" height="25" viewBox="0 0 24 25" fill="none" xmlns="http://www.w3.org/2000/svg">
<path d="M11.77 20.7227V19.7227H18.385C18.5517 19.7227 18.6957 19.6713 18.817 19.5687C18.939 19.466 19 19.3313 19 19.1647V12.2767C19 10.4033 18.3113 8.83899 16.934 7.58366C15.556 6.32766 13.9113 5.69966 12 5.69966C10.0887 5.69966 8.444 6.32766 7.066 7.58366C5.68867 8.83899 5 10.4033 5 12.2767V17.9537H4.5C4.09133 17.9537 3.739 17.8153 3.443 17.5387C3.14767 17.2627 3 16.9207 3 16.5127V14.6277C3 14.329 3.097 14.064 3.291 13.8327C3.48567 13.6007 3.722 13.4123 4 13.2677L4.017 12.0387C4.035 10.9953 4.26167 10.0287 4.697 9.13866C5.13233 8.24866 5.71367 7.47432 6.441 6.81566C7.16833 6.15699 8.00967 5.64366 8.965 5.27566C9.92033 4.90766 10.932 4.72332 12 4.72266C13.068 4.72199 14.079 4.90599 15.033 5.27466C15.987 5.64332 16.8247 6.15599 17.546 6.81266C18.2673 7.46933 18.8457 8.24266 19.281 9.13266C19.7163 10.0227 19.9503 10.9893 19.983 12.0327L20 13.2357C20.2653 13.3603 20.4983 13.528 20.699 13.7387C20.8997 13.9487 21 14.201 21 14.4957V16.6617C21 16.9563 20.8997 17.2087 20.699 17.4187C20.4983 17.6287 20.2653 17.796 20 17.9207V19.1647C20 19.5993 19.8427 19.9677 19.528 20.2697C19.2133 20.5717 18.8323 20.7227 18.385 20.7227H11.77ZM9.385 14.2617C9.17833 14.2617 8.99833 14.1913 8.845 14.0507C8.69167 13.9107 8.615 13.7373 8.615 13.5307C8.615 13.324 8.69167 13.1473 8.845 13.0007C8.99833 12.854 9.17833 12.7807 9.385 12.7807C9.59167 12.7807 9.77133 12.854 9.924 13.0007C10.0767 13.1473 10.1533 13.324 10.154 13.5307C10.1547 13.7373 10.078 13.9107 9.924 14.0507C9.77 14.1907 9.59 14.2607 9.384 14.2607M14.616 14.2607C14.4093 14.2607 14.2293 14.1907 14.076 14.0507C13.9227 13.9107 13.846 13.7373 13.846 13.5307C13.846 13.324 13.9227 13.1473 14.076 13.0007C14.2293 12.854 14.4093 12.7807 14.616 12.7807C14.8227 12.7807 15.0023 12.854 15.155 13.0007C15.3077 13.1473 15.3843 13.324 15.385 13.5307C15.3857 13.7373 15.309 13.9107 15.155 14.0507C15.001 14.1907 14.821 14.2607 14.615 14.2607M6.718 12.6727C6.62733 11.1753 7.10967 9.89899 8.165 8.84366C9.21967 7.78833 10.515 7.26066 12.051 7.26066C13.3417 7.26066 14.4857 7.64832 15.483 8.42366C16.4803 9.19899 17.089 10.2173 17.309 11.4787C15.9843 11.462 14.755 11.124 13.621 10.4647C12.487 9.80532 11.617 8.88866 11.011 7.71466C10.7697 8.86866 10.268 9.87999 9.506 10.7487C8.74333 11.6173 7.814 12.2587 6.718 12.6727Z" fill="#FFC000"/>
</svg>
