<svg width="32" height="32" viewBox="0 0 32 32" fill="none" xmlns="http://www.w3.org/2000/svg">
<path d="M6.8079 25.1927C4.9897 23.3746 3.75148 21.0582 3.24983 18.5363C2.74817 16.0145 3.00562 13.4005 3.9896 11.025C4.97359 8.64953 6.63992 6.61917 8.77786 5.19072C10.9158 3.76227 13.4293 2.99989 16.0006 3M25.1932 6.80733C27.0114 8.62542 28.2496 10.9418 28.7513 13.4637C29.253 15.9855 28.9955 18.5995 28.0115 20.975C27.0275 23.3505 25.3612 25.3808 23.2233 26.8093C21.0853 28.2377 18.5718 29.0001 16.0006 29" stroke="#FFC215" stroke-width="1.67" stroke-linecap="round" stroke-linejoin="round"/>
<path d="M23.2018 8.09491C24.366 8.09491 25.3097 7.15112 25.3097 5.98691C25.3097 4.82269 24.366 3.87891 23.2018 3.87891C22.0375 3.87891 21.0938 4.82269 21.0938 5.98691C21.0938 7.15112 22.0375 8.09491 23.2018 8.09491Z" stroke="#FFC215" stroke-width="1.67" stroke-linecap="round" stroke-linejoin="round"/>
<path d="M8.79745 28.1213C9.96167 28.1213 10.9055 27.1775 10.9055 26.0133C10.9055 24.8491 9.96167 23.9053 8.79745 23.9053C7.63324 23.9053 6.68945 24.8491 6.68945 26.0133C6.68945 27.1775 7.63324 28.1213 8.79745 28.1213Z" stroke="#FFC215" stroke-width="1.67" stroke-linecap="round" stroke-linejoin="round"/>
<path d="M13.248 13.5326L15.3567 17.7493L22.3834 17.0466L18.1674 8.61328L13.248 13.5326Z" stroke="#FFC215" stroke-width="1.67" stroke-linecap="round" stroke-linejoin="round"/>
<path d="M13.2485 13.5322L10.4378 14.9376C9.59315 15.3596 9.66448 16.9042 10.0865 17.7489C10.5085 18.5936 11.7018 19.5762 12.5465 19.1542L15.3572 17.7489M14.7358 18.1076L16.4925 21.6209L15.0872 22.3236L13.3305 18.8102" stroke="#FFC215" stroke-width="1.67" stroke-linecap="round" stroke-linejoin="round"/>
</svg>
