<svg width="117" height="116" viewBox="0 0 117 116" fill="none" xmlns="http://www.w3.org/2000/svg">
<rect x="0.5" width="116" height="116" rx="58" fill="#FFC000"/>
<path d="M48.1673 55.4168C51.593 55.4168 54.8784 54.056 57.3008 51.6336C59.7231 49.2113 61.084 45.9259 61.084 42.5002C61.084 39.0745 59.7231 35.789 57.3008 33.3667C54.8784 30.9444 51.593 29.5835 48.1673 29.5835C44.7416 29.5835 41.4562 30.9444 39.0339 33.3667C36.6115 35.789 35.2507 39.0745 35.2507 42.5002C35.2507 45.9259 36.6115 49.2113 39.0339 51.6336C41.4562 54.056 44.7416 55.4168 48.1673 55.4168ZM48.1673 55.4168C53.3676 55.4168 57.9117 57.3802 61.1434 60.6429C63.0595 62.5855 64.4929 64.9507 65.3284 67.5482M48.1673 55.4168C37.834 55.4168 30.084 63.1668 30.084 73.5002V86.4168H55.9173M58.5007 75.6288L69.3248 83.8335L86.9173 60.5835" stroke="#161616" stroke-width="4"/>
</svg>
