<svg width="16" height="17" viewBox="0 0 16 17" fill="none" xmlns="http://www.w3.org/2000/svg">
<g clip-path="url(#clip0_117_16854)">
<path d="M7.99935 2.0804C9.59065 2.0804 11.1168 2.71254 12.242 3.83776C13.3672 4.96298 13.9993 6.4891 13.9993 8.0804C13.9993 9.71574 13.346 11.1977 12.284 12.2804C11.7261 12.8512 11.0596 13.3045 10.3237 13.6137C9.58783 13.9228 8.79752 14.0815 7.99935 14.0804C7.21142 14.0804 6.4312 13.9252 5.70325 13.6237C4.9753 13.3222 4.31386 12.8802 3.75671 12.323C3.19956 11.7659 2.7576 11.1045 2.45607 10.3765C2.15454 9.64855 1.99935 8.86833 1.99935 8.0804C1.99935 7.29247 2.15454 6.51226 2.45607 5.7843C2.7576 5.05635 3.19956 4.39491 3.75671 3.83776C4.31386 3.28061 4.9753 2.83865 5.70325 2.53713C6.4312 2.2356 7.21142 2.0804 7.99935 2.0804ZM12.2167 14.0804C12.5838 13.8217 12.9238 13.5328 13.2367 13.2137C14.5821 11.8441 15.3349 10.0003 15.3327 8.0804C15.3327 4.0304 12.0493 0.74707 7.99935 0.74707C3.94935 0.74707 0.666016 4.0304 0.666016 8.0804C0.666016 12.1304 3.94935 15.4137 7.99935 15.4137H15.9993V14.0804H12.2167ZM7.99935 4.0804C7.82254 4.0804 7.65297 4.15064 7.52794 4.27567C7.40292 4.40069 7.33268 4.57026 7.33268 4.74707C7.33268 4.92388 7.40292 5.09345 7.52794 5.21847C7.65297 5.3435 7.82254 5.41374 7.99935 5.41374C8.17616 5.41374 8.34573 5.3435 8.47075 5.21847C8.59578 5.09345 8.66602 4.92388 8.66602 4.74707C8.66602 4.57026 8.59578 4.40069 8.47075 4.27567C8.34573 4.15064 8.17616 4.0804 7.99935 4.0804ZM5.99935 4.74707C5.99935 4.21664 6.21006 3.70793 6.58514 3.33286C6.96021 2.95778 7.46892 2.74707 7.99935 2.74707C8.52978 2.74707 9.03849 2.95778 9.41356 3.33286C9.78864 3.70793 9.99935 4.21664 9.99935 4.74707C9.99935 5.2775 9.78864 5.78621 9.41356 6.16128C9.03849 6.53636 8.52978 6.74707 7.99935 6.74707C7.46892 6.74707 6.96021 6.53636 6.58514 6.16128C6.21006 5.78621 5.99935 5.2775 5.99935 4.74707ZM4.66602 7.41374C4.4892 7.41374 4.31964 7.48398 4.19461 7.609C4.06959 7.73402 3.99935 7.90359 3.99935 8.0804C3.99935 8.25722 4.06959 8.42678 4.19461 8.55181C4.31964 8.67683 4.4892 8.74707 4.66602 8.74707C4.84283 8.74707 5.0124 8.67683 5.13742 8.55181C5.26244 8.42678 5.33268 8.25722 5.33268 8.0804C5.33268 7.90359 5.26244 7.73402 5.13742 7.609C5.0124 7.48398 4.84283 7.41374 4.66602 7.41374ZM2.66602 8.0804C2.66602 7.81776 2.71775 7.55769 2.81826 7.31504C2.91877 7.07239 3.06609 6.85191 3.2518 6.66619C3.43752 6.48047 3.658 6.33315 3.90065 6.23264C4.1433 6.13213 4.40337 6.0804 4.66602 6.0804C4.92866 6.0804 5.18873 6.13213 5.43138 6.23264C5.67403 6.33315 5.89451 6.48047 6.08023 6.66619C6.26595 6.85191 6.41327 7.07239 6.51377 7.31504C6.61428 7.55769 6.66602 7.81776 6.66602 8.0804C6.66602 8.61084 6.4553 9.11954 6.08023 9.49462C5.70516 9.86969 5.19645 10.0804 4.66602 10.0804C4.13558 10.0804 3.62687 9.86969 3.2518 9.49462C2.87673 9.11954 2.66602 8.61084 2.66602 8.0804ZM11.3327 7.41374C11.1559 7.41374 10.9863 7.48398 10.8613 7.609C10.7363 7.73402 10.666 7.90359 10.666 8.0804C10.666 8.25722 10.7363 8.42678 10.8613 8.55181C10.9863 8.67683 11.1559 8.74707 11.3327 8.74707C11.5095 8.74707 11.6791 8.67683 11.8041 8.55181C11.9291 8.42678 11.9993 8.25722 11.9993 8.0804C11.9993 7.90359 11.9291 7.73402 11.8041 7.609C11.6791 7.48398 11.5095 7.41374 11.3327 7.41374ZM9.33268 8.0804C9.33268 7.54997 9.5434 7.04126 9.91847 6.66619C10.2935 6.29112 10.8022 6.0804 11.3327 6.0804C11.8631 6.0804 12.3718 6.29112 12.7469 6.66619C13.122 7.04126 13.3327 7.54997 13.3327 8.0804C13.3327 8.61084 13.122 9.11954 12.7469 9.49462C12.3718 9.86969 11.8631 10.0804 11.3327 10.0804C10.8022 10.0804 10.2935 9.86969 9.91847 9.49462C9.5434 9.11954 9.33268 8.61084 9.33268 8.0804ZM7.99935 10.7471C7.82254 10.7471 7.65297 10.8173 7.52794 10.9423C7.40292 11.0674 7.33268 11.2369 7.33268 11.4137C7.33268 11.5905 7.40292 11.7601 7.52794 11.8851C7.65297 12.0102 7.82254 12.0804 7.99935 12.0804C8.17616 12.0804 8.34573 12.0102 8.47075 11.8851C8.59578 11.7601 8.66602 11.5905 8.66602 11.4137C8.66602 11.2369 8.59578 11.0674 8.47075 10.9423C8.34573 10.8173 8.17616 10.7471 7.99935 10.7471ZM5.99935 11.4137C5.99935 10.8833 6.21006 10.3746 6.58514 9.99952C6.96021 9.62445 7.46892 9.41374 7.99935 9.41374C8.52978 9.41374 9.03849 9.62445 9.41356 9.99952C9.78864 10.3746 9.99935 10.8833 9.99935 11.4137C9.99935 11.9442 9.78864 12.4529 9.41356 12.828C9.03849 13.203 8.52978 13.4137 7.99935 13.4137C7.46892 13.4137 6.96021 13.203 6.58514 12.828C6.21006 12.4529 5.99935 11.9442 5.99935 11.4137Z" fill="#FFC000"/>
</g>
<defs>
<clipPath id="clip0_117_16854">
<rect width="16" height="16" fill="white" transform="translate(0 0.0800781)"/>
</clipPath>
</defs>
</svg>
