<svg width="24" height="25" viewBox="0 0 24 25" fill="none" xmlns="http://www.w3.org/2000/svg">
<path d="M18 12.5604L18.81 11.7504L21.75 14.6904M16.5 11.0604L18.81 8.75039L21.75 11.6904M2.25 13.2624L4.909 15.9214L6.58 14.2504M2.25 10.2624L4.909 12.9214L7.58 10.2004M6.998 12.4114C7.22819 13.5686 7.85252 14.6102 8.7646 15.3588C9.67669 16.1073 10.8201 16.5164 12 16.5164C13.1799 16.5164 14.3233 16.1073 15.2354 15.3588C16.1475 14.6102 16.7718 13.5686 17.002 12.4114M13.2495 16.3894V20.5159C13.2495 20.6644 13.1305 20.7859 12.982 20.7879H11.0185C10.9471 20.7868 10.8789 20.7577 10.8287 20.7068C10.7786 20.6559 10.7505 20.5873 10.7505 20.5159V16.3894M12 4.21289C12.8578 4.21302 13.6804 4.55384 14.287 5.1604C14.8935 5.76696 15.2344 6.58959 15.2345 7.44739V11.4504C15.2345 12.3083 14.8937 13.131 14.2872 13.7377C13.6806 14.3444 12.8579 14.6853 12 14.6854C11.1424 14.6851 10.3199 14.3443 9.71351 13.7379C9.10707 13.1314 8.76626 12.309 8.766 11.4514V7.44789C8.766 6.59009 9.10669 5.76741 9.71316 5.16075C10.3196 4.5541 11.1422 4.21316 12 4.21289Z" stroke="#FFC000" stroke-linecap="round" stroke-linejoin="round"/>
</svg>
