<svg width="18" height="19" viewBox="0 0 18 19" fill="none" xmlns="http://www.w3.org/2000/svg">
<path d="M4.78125 16.8008V15.8385C4.78158 15.0631 4.60376 14.2979 4.2615 13.602L4.04325 13.158C3.60386 12.2634 3.37526 11.28 3.375 10.2833V6.44328C3.375 5.85228 3.8475 5.37228 4.4295 5.37228C5.01225 5.37228 5.48475 5.85228 5.48475 6.44328M11.1097 16.8008V15.8415C11.1112 14.9843 12.006 14.5478 12.738 14.121C13.575 13.6328 14.2455 12.8445 14.5552 11.8965C14.7585 11.2725 14.1952 10.7303 13.5217 10.7303C12.8482 10.7303 12.2767 11.3183 11.7892 11.769C11.7249 11.8293 11.6554 11.8837 11.5815 11.9318C10.6305 12.5385 9.36075 11.8088 9.36075 10.7303C9.36075 9.65178 10.6305 8.92203 11.5815 9.52803C11.8185 9.65253 12.0142 9.81753 12.1702 9.98928C12.525 10.3793 12.9922 10.7303 13.5277 10.7303C14.2125 10.7303 14.787 10.1775 14.5837 9.54153C14.325 8.74319 13.8193 8.0477 13.1396 7.5554C12.46 7.06311 11.6415 6.79947 10.8022 6.80253C10.0545 6.80253 9.70275 7.01403 9.70275 7.01403L11.3115 3.26103C11.5927 2.56428 11.0887 1.80078 10.347 1.80078C9.9525 1.80078 9.59175 2.02728 9.41475 2.38578L7.59375 6.08628M7.59375 6.08628L7.25775 6.76878M7.59375 6.08628V3.58653C7.59375 2.99478 7.12125 2.51478 6.53925 2.51478C5.9565 2.51478 5.48475 2.99478 5.48475 3.58653V6.44403V8.94378" stroke="#FFC000" stroke-linecap="round" stroke-linejoin="round"/>
</svg>
