<svg width="54" height="54" viewBox="0 0 54 54" fill="none" xmlns="http://www.w3.org/2000/svg">
<path d="M27.0016 20.5166C25.2445 20.5166 23.5594 21.2146 22.317 22.457C21.0745 23.6994 20.3766 25.3845 20.3766 27.1416C20.3766 28.8986 21.0745 30.5837 22.317 31.8261C23.5594 33.0686 25.2445 33.7666 27.0016 33.7666C28.7586 33.7666 30.4437 33.0686 31.6861 31.8261C32.9286 30.5837 33.6266 28.8986 33.6266 27.1416C33.6266 25.3845 32.9286 23.6994 31.6861 22.457C30.4437 21.2146 28.7586 20.5166 27.0016 20.5166ZM27.0016 16.0999C29.93 16.0999 32.7385 17.2632 34.8092 19.3339C36.8799 21.4046 38.0432 24.2131 38.0432 27.1416C38.0432 30.07 36.8799 32.8785 34.8092 34.9492C32.7385 37.0199 29.93 38.1832 27.0016 38.1832C24.0731 38.1832 21.2646 37.0199 19.1939 34.9492C17.1232 32.8785 15.9599 30.07 15.9599 27.1416C15.9599 24.2131 17.1232 21.4046 19.1939 19.3339C21.2646 17.2632 24.0731 16.0999 27.0016 16.0999ZM41.3557 15.5478C41.3557 16.2799 41.0649 16.982 40.5472 17.4997C40.0295 18.0174 39.3274 18.3082 38.5953 18.3082C37.8632 18.3082 37.1611 18.0174 36.6434 17.4997C36.1257 16.982 35.8349 16.2799 35.8349 15.5478C35.8349 14.8157 36.1257 14.1136 36.6434 13.5959C37.1611 13.0782 37.8632 12.7874 38.5953 12.7874C39.3274 12.7874 40.0295 13.0782 40.5472 13.5959C41.0649 14.1136 41.3557 14.8157 41.3557 15.5478ZM27.0016 9.47489C21.5381 9.47489 20.646 9.49035 18.1042 9.60298C16.3729 9.68469 15.2113 9.91656 14.1336 10.3361C13.2322 10.6682 12.4171 11.1988 11.7486 11.8886C11.058 12.5569 10.5266 13.372 10.1939 14.2736C9.77435 15.3557 9.54247 16.5151 9.46297 18.2442C9.34814 20.6822 9.33268 21.5346 9.33268 27.1416C9.33268 32.6072 9.34814 33.4971 9.46077 36.0389C9.54247 37.7681 9.77435 38.9319 10.1917 40.0073C10.5671 40.9679 11.0088 41.6591 11.742 42.3923C12.4862 43.1343 13.1774 43.5782 14.127 43.9448C15.2179 44.3666 16.3795 44.6006 18.102 44.6801C20.54 44.795 21.3924 44.8082 26.9994 44.8082C32.465 44.8082 33.3549 44.7928 35.8967 44.6801C37.6236 44.5984 38.7852 44.3666 39.8651 43.9492C40.7665 43.6171 41.5816 43.0865 42.2501 42.3967C42.9943 41.6547 43.4382 40.9635 43.8048 40.0117C44.2244 38.9252 44.4584 37.7636 44.5379 36.0367C44.6528 33.6009 44.666 32.7463 44.666 27.1416C44.666 21.6781 44.6506 20.786 44.5379 18.2442C44.4562 16.5173 44.2221 15.3513 43.8048 14.2736C43.4727 13.3722 42.9421 12.5571 42.2523 11.8886C41.584 11.198 40.7689 10.6666 39.8673 10.3339C38.7852 9.91435 37.6236 9.68248 35.8967 9.60298C33.4609 9.48814 32.6085 9.47489 26.9994 9.47489M26.9994 5.05823C32.9994 5.05823 33.748 5.08031 36.1043 5.19073C38.454 5.30114 40.0572 5.66994 41.4639 6.2176C42.9214 6.77852 44.1493 7.53819 45.3771 8.76381C46.5005 9.86739 47.3694 11.2029 47.9233 12.677C48.4688 14.0837 48.8398 15.6869 48.9502 18.0388C49.054 20.3929 49.0827 21.1415 49.0827 27.1416C49.0827 33.1416 49.0606 33.8902 48.9502 36.2443C48.8398 38.5984 48.4688 40.1972 47.9233 41.6061C47.3694 43.0803 46.5005 44.4157 45.3771 45.5193C44.2735 46.6427 42.9381 47.5116 41.4639 48.0655C40.0572 48.611 38.454 48.982 36.1043 49.0924C33.748 49.1962 32.9994 49.2249 26.9994 49.2249C20.9993 49.2249 20.2507 49.2028 17.8944 49.0924C15.5447 48.982 13.9437 48.611 12.5348 48.0655C11.0606 47.5116 9.72517 46.6427 8.6216 45.5193C7.49823 44.4157 6.62928 43.0803 6.07539 41.6061C5.52772 40.1994 5.15893 38.5962 5.04852 36.2443C4.94252 33.8902 4.91602 33.1416 4.91602 27.1416C4.91602 21.1415 4.9381 20.3929 5.04852 18.0388C5.15893 15.6847 5.52772 14.0859 6.07539 12.677C6.62928 11.2029 7.49823 9.86739 8.6216 8.76381C9.72517 7.64045 11.0606 6.77149 12.5348 6.2176C13.9415 5.66994 15.5425 5.30114 17.8944 5.19073C20.2529 5.08694 21.0015 5.05823 27.0016 5.05823" fill="white"/>
</svg>
