<svg width="117" height="116" viewBox="0 0 117 116" fill="none" xmlns="http://www.w3.org/2000/svg">
<rect x="0.5" width="116" height="116" rx="58" fill="#FFC000"/>
<g clip-path="url(#clip0_121_11357)">
<path d="M53.7773 71.2295C55.0892 71.8955 56.2699 72.7129 57.3193 73.6816C58.3688 74.6504 59.277 75.7402 60.0439 76.9511C60.8109 78.1621 61.3861 79.4537 61.7695 80.8261C62.153 82.1985 62.3548 83.6315 62.375 85.125H58.5C58.5 83.5306 58.1973 82.027 57.5918 80.6142C56.9863 79.2015 56.1589 77.9703 55.1094 76.9209C54.0599 75.8714 52.8187 75.0338 51.3857 74.4082C49.9528 73.7825 48.4492 73.4798 46.875 73.5C45.2604 73.5 43.7568 73.8027 42.3643 74.4082C40.9717 75.0136 39.7406 75.8411 38.6709 76.8906C37.6012 77.9401 36.7637 79.1813 36.1582 80.6142C35.5527 82.0472 35.25 83.5508 35.25 85.125H31.375C31.375 83.6517 31.5768 82.2288 31.9805 80.8564C32.3841 79.484 32.9593 78.1924 33.7061 76.9814C34.4528 75.7705 35.3509 74.6806 36.4004 73.7119C37.4499 72.7431 38.6406 71.9157 39.9727 71.2295C38.4792 70.1194 37.3187 68.747 36.4912 67.1123C35.6637 65.4775 35.25 63.7317 35.25 61.875C35.25 60.2806 35.5527 58.777 36.1582 57.3642C36.7637 55.9515 37.5911 54.7203 38.6406 53.6709C39.6901 52.6214 40.9212 51.7838 42.334 51.1582C43.7467 50.5325 45.2604 50.2298 46.875 50.25C48.7318 50.25 50.4775 50.6637 52.1123 51.4912C53.7471 52.3187 55.1195 53.4791 56.2295 54.9726C56.9964 53.459 57.9753 52.1067 59.166 50.916C60.3568 49.7252 61.709 48.7464 63.2227 47.9795C61.7292 46.8694 60.5687 45.497 59.7412 43.8623C58.9137 42.2275 58.5 40.4817 58.5 38.625C58.5 37.0306 58.8027 35.527 59.4082 34.1142C60.0137 32.7015 60.8411 31.4703 61.8906 30.4209C62.9401 29.3714 64.1712 28.5338 65.584 27.9082C66.9967 27.2825 68.5104 26.9798 70.125 27C71.7194 27 73.223 27.3027 74.6357 27.9082C76.0485 28.5136 77.2796 29.3411 78.3291 30.3906C79.3786 31.4401 80.2161 32.6813 80.8418 34.1142C81.4674 35.5472 81.7702 37.0508 81.75 38.625C81.75 40.4817 81.3363 42.2275 80.5088 43.8623C79.6813 45.497 78.5208 46.8694 77.0273 47.9795C78.3392 48.6455 79.5199 49.4629 80.5693 50.4316C81.6188 51.4004 82.527 52.4902 83.2939 53.7011C84.0609 54.9121 84.6361 56.2037 85.0195 57.5761C85.403 58.9485 85.6048 60.3815 85.625 61.875H81.75C81.75 60.2806 81.4473 58.777 80.8418 57.3642C80.2363 55.9515 79.4089 54.7203 78.3594 53.6709C77.3099 52.6214 76.0687 51.7838 74.6357 51.1582C73.2028 50.5325 71.6992 50.2298 70.125 50.25C68.5104 50.25 67.0068 50.5527 65.6143 51.1582C64.2217 51.7636 62.9906 52.5911 61.9209 53.6406C60.8512 54.6901 60.0137 55.9313 59.4082 57.3642C58.8027 58.7972 58.5 60.3008 58.5 61.875C58.5 63.7317 58.0863 65.4775 57.2588 67.1123C56.4313 68.747 55.2708 70.1194 53.7773 71.2295ZM62.375 38.625C62.375 39.6946 62.5768 40.6937 62.9805 41.622C63.3841 42.5504 63.9391 43.3779 64.6455 44.1045C65.3519 44.831 66.1693 45.386 67.0977 45.7695C68.026 46.153 69.0352 46.3548 70.125 46.375C71.1947 46.375 72.1937 46.1731 73.1221 45.7695C74.0505 45.3659 74.8779 44.8108 75.6045 44.1045C76.3311 43.3981 76.8861 42.5807 77.2695 41.6523C77.653 40.7239 77.8548 39.7148 77.875 38.625C77.875 37.5553 77.6732 36.5563 77.2695 35.6279C76.8659 34.6995 76.3109 33.872 75.6045 33.1455C74.8981 32.4189 74.0807 31.8639 73.1523 31.4804C72.224 31.097 71.2148 30.8952 70.125 30.875C69.0553 30.875 68.0563 31.0768 67.1279 31.4804C66.1995 31.8841 65.3721 32.4391 64.6455 33.1455C63.9189 33.8519 63.3639 34.6692 62.9805 35.5976C62.597 36.526 62.3952 37.5351 62.375 38.625ZM39.125 61.875C39.125 62.9446 39.3268 63.9437 39.7305 64.872C40.1341 65.8004 40.6891 66.6279 41.3955 67.3545C42.1019 68.081 42.9193 68.636 43.8477 69.0195C44.776 69.403 45.7852 69.6048 46.875 69.625C47.9447 69.625 48.9437 69.4231 49.8721 69.0195C50.8005 68.6159 51.6279 68.0608 52.3545 67.3545C53.0811 66.6481 53.6361 65.8307 54.0195 64.9023C54.403 63.9739 54.6048 62.9648 54.625 61.875C54.625 60.8053 54.4232 59.8063 54.0195 58.8779C53.6159 57.9495 53.0609 57.122 52.3545 56.3955C51.6481 55.6689 50.8307 55.1139 49.9023 54.7304C48.974 54.347 47.9648 54.1452 46.875 54.125C45.8053 54.125 44.8063 54.3268 43.8779 54.7304C42.9495 55.1341 42.1221 55.6891 41.3955 56.3955C40.6689 57.1019 40.1139 57.9192 39.7305 58.8476C39.347 59.776 39.1452 60.7851 39.125 61.875ZM84.6562 89L75.9375 82.1884L67.2188 89L70.7305 78.1015L62.375 71.5625H72.8193L75.9375 61.875L79.0557 71.5625H89.5L81.1445 78.1015L84.6562 89Z" fill="#161616"/>
</g>
<defs>
<clipPath id="clip0_121_11357">
<rect width="62" height="62" fill="white" transform="translate(27.5 27)"/>
</clipPath>
</defs>
</svg>
