<svg width="25" height="23" viewBox="0 0 25 23" fill="none" xmlns="http://www.w3.org/2000/svg">
<path d="M1 1.18359L0.999999 22.6971" stroke="#FAFAFA" stroke-width="0.496465" stroke-linecap="round"/>
<path d="M20.3724 14.881C23.5003 10.9147 22.6556 6.98174 20.4088 5.60345C18.2856 4.30116 16.4323 4.82603 15.3192 5.66203L14.5006 6.27478M20.3724 14.881C19.6219 15.8334 18.6426 16.7865 17.3981 17.7072C16.175 18.6137 15.5631 19.0665 14.5006 19.0665C13.4382 19.0665 12.8271 18.6137 11.6031 17.7072C5.17639 12.9509 5.80655 7.31266 8.59243 5.60345C10.7157 4.30116 12.569 4.82603 13.6821 5.66203L14.5006 6.27478M20.3724 14.881L15.9985 9.91883C15.9116 9.82064 15.7928 9.75642 15.663 9.73758C15.5333 9.71874 15.4011 9.74649 15.2899 9.81591L13.5593 10.8973C13.22 11.112 12.8107 11.1872 12.4172 11.107C12.0237 11.0269 11.6764 10.7977 11.448 10.4673C11.2197 10.137 11.1279 9.73114 11.1919 9.33469C11.256 8.93823 11.4708 8.5819 11.7916 8.34024L14.5006 6.27478" stroke="#FAFAFA" stroke-width="1.3125" stroke-linecap="round" stroke-linejoin="round"/>
</svg>
