<svg width="16" height="17" viewBox="0 0 16 17" fill="none" xmlns="http://www.w3.org/2000/svg">
<path d="M16 7.81543H14V5.81543H13V7.81543H11V8.81543H13V10.8154H14V8.81543H16V7.81543ZM6 2.81543C6.49445 2.81543 6.9778 2.96205 7.38893 3.23676C7.80005 3.51146 8.12048 3.90191 8.3097 4.35872C8.49892 4.81554 8.54843 5.3182 8.45196 5.80316C8.3555 6.28811 8.1174 6.73357 7.76777 7.0832C7.41814 7.43283 6.97268 7.67093 6.48773 7.76739C6.00277 7.86386 5.50011 7.81435 5.04329 7.62513C4.58648 7.43591 4.19603 7.11548 3.92133 6.70436C3.64662 6.29323 3.5 5.80988 3.5 5.31543C3.5 4.65239 3.76339 4.0165 4.23223 3.54766C4.70107 3.07882 5.33696 2.81543 6 2.81543ZM6 1.81543C5.30777 1.81543 4.63108 2.0207 4.0555 2.40529C3.47993 2.78987 3.03133 3.3365 2.76642 3.97604C2.50151 4.61558 2.4322 5.31931 2.56725 5.99825C2.7023 6.67718 3.03564 7.30082 3.52513 7.7903C4.01461 8.27979 4.63825 8.61313 5.31718 8.74818C5.99612 8.88323 6.69985 8.81391 7.33939 8.54901C7.97893 8.2841 8.52556 7.8355 8.91014 7.25993C9.29473 6.68435 9.5 6.00766 9.5 5.31543C9.5 4.38717 9.13125 3.49693 8.47487 2.84056C7.8185 2.18418 6.92826 1.81543 6 1.81543ZM11 15.8154H10V13.3154C10 12.6524 9.73661 12.0165 9.26777 11.5477C8.79893 11.0788 8.16304 10.8154 7.5 10.8154H4.5C3.83696 10.8154 3.20107 11.0788 2.73223 11.5477C2.26339 12.0165 2 12.6524 2 13.3154V15.8154H1V13.3154C1 12.3872 1.36875 11.4969 2.02513 10.8406C2.6815 10.1842 3.57174 9.81543 4.5 9.81543H7.5C8.42826 9.81543 9.3185 10.1842 9.97487 10.8406C10.6313 11.4969 11 12.3872 11 13.3154V15.8154Z" fill="#FFC000"/>
</svg>
