<svg width="63" height="62" viewBox="0 0 63 62" fill="none" xmlns="http://www.w3.org/2000/svg">
<path d="M23.7577 15.5001C23.7577 13.4467 24.5734 11.4774 26.0254 10.0255C27.4774 8.57351 29.4466 7.75781 31.5 7.75781C33.5534 7.75781 35.5226 8.57351 36.9746 10.0255C38.4265 11.4774 39.2423 13.4467 39.2423 15.5001C39.2423 17.5534 38.4265 19.5227 36.9746 20.9747C35.5226 22.4266 33.5534 23.2423 31.5 23.2423C29.4466 23.2423 27.4774 22.4266 26.0254 20.9747C24.5734 19.5227 23.7577 17.5534 23.7577 15.5001ZM31.5 11.6328C30.9921 11.6328 30.4893 11.7328 30.0201 11.9272C29.5509 12.1215 29.1245 12.4064 28.7654 12.7655C28.4063 13.1246 28.1215 13.5509 27.9271 14.0201C27.7328 14.4893 27.6327 14.9922 27.6327 15.5001C27.6327 16.0079 27.7328 16.5108 27.9271 16.98C28.1215 17.4492 28.4063 17.8755 28.7654 18.2346C29.1245 18.5937 29.5509 18.8786 30.0201 19.0729C30.4893 19.2673 30.9921 19.3673 31.5 19.3673C32.5257 19.3673 33.5093 18.9599 34.2346 18.2346C34.9598 17.5094 35.3673 16.5257 35.3673 15.5001C35.3673 14.4744 34.9598 13.4908 34.2346 12.7655C33.5093 12.0403 32.5257 11.6328 31.5 11.6328ZM43.125 17.4376C43.125 16.6743 43.2753 15.9184 43.5675 15.2132C43.8596 14.508 44.2877 13.8672 44.8274 13.3275C45.3672 12.7878 46.0079 12.3596 46.7132 12.0675C47.4184 11.7754 48.1742 11.6251 48.9375 11.6251C49.7008 11.6251 50.4566 11.7754 51.1618 12.0675C51.8671 12.3596 52.5078 12.7878 53.0476 13.3275C53.5873 13.8672 54.0154 14.508 54.3075 15.2132C54.5997 15.9184 54.75 16.6743 54.75 17.4376C54.75 18.9791 54.1376 20.4576 53.0476 21.5476C51.9575 22.6377 50.4791 23.2501 48.9375 23.2501C47.3959 23.2501 45.9175 22.6377 44.8274 21.5476C43.7374 20.4576 43.125 18.9791 43.125 17.4376ZM48.9375 15.5001C48.4236 15.5001 47.9308 15.7042 47.5675 16.0675C47.2041 16.4309 47 16.9237 47 17.4376C47 17.9514 47.2041 18.4442 47.5675 18.8076C47.9308 19.1709 48.4236 19.3751 48.9375 19.3751C49.4514 19.3751 49.9442 19.1709 50.3075 18.8076C50.6709 18.4442 50.875 17.9514 50.875 17.4376C50.875 16.9237 50.6709 16.4309 50.3075 16.0675C49.9442 15.7042 49.4514 15.5001 48.9375 15.5001ZM14.0625 11.6251C12.5209 11.6251 11.0425 12.2374 9.95244 13.3275C8.86239 14.4176 8.25 15.896 8.25 17.4376C8.25 18.9791 8.86239 20.4576 9.95244 21.5476C11.0425 22.6377 12.5209 23.2501 14.0625 23.2501C15.6041 23.2501 17.0825 22.6377 18.1726 21.5476C19.2626 20.4576 19.875 18.9791 19.875 17.4376C19.875 15.896 19.2626 14.4176 18.1726 13.3275C17.0825 12.2374 15.6041 11.6251 14.0625 11.6251ZM12.125 17.4376C12.125 16.9237 12.3291 16.4309 12.6925 16.0675C13.0558 15.7042 13.5486 15.5001 14.0625 15.5001C14.5764 15.5001 15.0692 15.7042 15.4325 16.0675C15.7959 16.4309 16 16.9237 16 17.4376C16 17.9514 15.7959 18.4442 15.4325 18.8076C15.0692 19.1709 14.5764 19.3751 14.0625 19.3751C13.5486 19.3751 13.0558 19.1709 12.6925 18.8076C12.3291 18.4442 12.125 17.9514 12.125 17.4376ZM17.0385 27.1251C16.3582 28.3032 16.0001 29.6396 16 31.0001H8.25V40.6876C8.24969 41.6514 8.48907 42.6002 8.9466 43.4486C9.40413 44.2969 10.0654 45.0182 10.871 45.5474C11.6766 46.0766 12.6011 46.3972 13.5614 46.4803C14.5216 46.5634 15.4875 46.4064 16.372 46.0234C16.6588 47.3061 17.1083 48.5306 17.6895 49.6737C16.2188 50.2675 14.6248 50.4911 13.0475 50.325C11.4701 50.1588 9.95774 49.6079 8.64309 48.7206C7.32843 47.8333 6.25174 46.6368 5.50756 45.2362C4.76338 43.8355 4.37447 42.2736 4.375 40.6876V31.0001C4.375 29.9724 4.78326 28.9867 5.50996 28.26C6.23667 27.5333 7.22229 27.1251 8.25 27.1251H17.0385ZM45.3105 49.6737C46.7812 50.2675 48.3752 50.4911 49.9525 50.325C51.5299 50.1588 53.0423 49.6079 54.3569 48.7206C55.6716 47.8333 56.7483 46.6368 57.4924 45.2362C58.2366 43.8355 58.6255 42.2736 58.625 40.6876V31.0001C58.625 29.9724 58.2167 28.9867 57.49 28.26C56.7633 27.5333 55.7777 27.1251 54.75 27.1251H45.9615C46.6203 28.2643 47 29.5857 47 31.0001H54.75V40.6876C54.7503 41.6514 54.5109 42.6002 54.0534 43.4486C53.5959 44.2969 52.9346 45.0182 52.129 45.5474C51.3234 46.0766 50.3989 46.3972 49.4386 46.4803C48.4784 46.5634 47.5125 46.4064 46.628 46.0234C46.3335 47.3099 45.8943 48.5267 45.3105 49.6737ZM23.75 27.1212C22.7223 27.1212 21.7367 27.5294 21.01 28.2561C20.2833 28.9829 19.875 29.9685 19.875 30.9962V42.6251C19.875 45.7082 21.0998 48.6651 23.2799 50.8452C25.46 53.0253 28.4169 54.2501 31.5 54.2501C34.5831 54.2501 37.54 53.0253 39.7201 50.8452C41.9002 48.6651 43.125 45.7082 43.125 42.6251V31.0001C43.125 29.9724 42.7167 28.9867 41.99 28.26C41.2633 27.5333 40.2777 27.1251 39.25 27.1251L23.75 27.1212ZM23.75 30.9962H39.25V42.6251C39.25 44.6805 38.4335 46.6517 36.9801 48.1051C35.5267 49.5585 33.5554 50.3751 31.5 50.3751C29.4446 50.3751 27.4733 49.5585 26.0199 48.1051C24.5665 46.6517 23.75 44.6805 23.75 42.6251V30.9962Z" fill="#161616"/>
</svg>
