<svg width="50" height="54" viewBox="0 0 50 54" fill="none" xmlns="http://www.w3.org/2000/svg">
<path d="M22.791 21.1791C19.6773 20.2508 16.3503 20.3272 13.2824 21.3975C10.2146 22.4677 7.56205 24.4774 5.70147 27.1411C3.84089 29.8048 2.86693 32.987 2.91792 36.2357C2.96891 39.4844 4.04227 42.6345 5.98553 45.2385C7.92879 47.8425 10.6431 49.7679 13.743 50.7414C16.8429 51.7148 20.1707 51.6867 23.2538 50.6611C26.3368 49.6356 29.0183 47.6646 30.9173 45.0282C32.8164 42.3918 33.8365 39.2241 33.8327 35.975V20.5166C36.7771 23.4611 41.1938 24.9333 47.0827 24.9333V13.8916C41.1938 13.8916 36.7771 10.2111 33.8327 2.84998H22.791V35.975M22.791 35.975C22.791 35.1014 22.532 34.2475 22.0467 33.5212C21.5614 32.7949 20.8716 32.2288 20.0645 31.8945C19.2575 31.5602 18.3694 31.4728 17.5127 31.6432C16.6559 31.8136 15.869 32.2342 15.2513 32.8519C14.6336 33.4696 14.213 34.2566 14.0425 35.1133C13.8721 35.9701 13.9596 36.8581 14.2939 37.6652C14.6282 38.4722 15.1943 39.162 15.9206 39.6473C16.6469 40.1326 17.5008 40.3916 18.3743 40.3916C19.5457 40.3916 20.6691 39.9263 21.4974 39.098C22.3257 38.2697 22.791 37.1464 22.791 35.975Z" stroke="white" stroke-width="4" stroke-linecap="round" stroke-linejoin="round"/>
</svg>
