<svg width="18" height="19" viewBox="0 0 18 19" fill="none" xmlns="http://www.w3.org/2000/svg">
<g clip-path="url(#clip0_250_12642)">
<path d="M14.0625 16.25C14.9945 16.25 15.75 15.4945 15.75 14.5625C15.75 13.6305 14.9945 12.875 14.0625 12.875C13.1305 12.875 12.375 13.6305 12.375 14.5625C12.375 15.4945 13.1305 16.25 14.0625 16.25Z" stroke="#FFC410" stroke-width="3" stroke-linecap="round" stroke-linejoin="round"/>
<path d="M5.0625 4.4375H11.8125C12.4092 4.4375 12.9815 4.67455 13.4035 5.09651C13.8254 5.51847 14.0625 6.09076 14.0625 6.6875C14.0625 7.28424 13.8254 7.85653 13.4035 8.27849C12.9815 8.70045 12.4092 8.9375 11.8125 8.9375H5.0625C4.31658 8.9375 3.60121 9.23382 3.07376 9.76126C2.54632 10.2887 2.25 11.0041 2.25 11.75C2.25 12.4959 2.54632 13.2113 3.07376 13.7387C3.60121 14.2662 4.31658 14.5625 5.0625 14.5625H12.375" stroke="#FFC410" stroke-linecap="round" stroke-linejoin="round"/>
</g>
<defs>
<clipPath id="clip0_250_12642">
<rect width="18" height="18" fill="white" transform="translate(0 0.5)"/>
</clipPath>
</defs>
</svg>
