<svg width="53" height="52" viewBox="0 0 53 52" fill="none" xmlns="http://www.w3.org/2000/svg">
<path d="M16.5002 5.58203H36.4985V20.922C36.4985 21.6977 36.2905 22.4178 35.8745 23.0822C35.4585 23.7466 34.8974 24.2912 34.191 24.7159L26.9154 29.099L28.5165 34.2492H34.75L29.615 37.848L31.6322 44.166L26.4994 40.24L21.3644 44.166L23.3815 37.848L18.2487 34.2492H24.4822L26.0834 29.099L18.7232 24.7982C18.0183 24.401 17.4716 23.8564 17.083 23.1645C16.693 22.4726 16.498 21.7259 16.498 20.9242L16.5002 5.58203ZM18.6669 7.7487V20.922C18.6669 21.3409 18.7709 21.7237 18.9789 22.0704C19.1869 22.417 19.4714 22.7016 19.8325 22.924L25.416 26.1914V7.7487H18.6669ZM34.3319 7.7487H27.5827V26.1914L33.1662 22.924C33.5273 22.7016 33.8119 22.417 34.0199 22.0704C34.2279 21.7237 34.3319 21.3409 34.3319 20.922V7.7487Z" fill="#FFC000"/>
</svg>
