<svg width="63" height="62" viewBox="0 0 63 62" fill="none" xmlns="http://www.w3.org/2000/svg">
<path d="M22.5326 25.0558V25.0506M16.5974 33.2966C15.5899 33.48 14.5333 33.564 13.4716 33.564C9.9479 33.564 5.02148 30.6487 5.02148 25.1397C5.02148 22.5654 6.24469 19.9718 8.16282 18.2125C8.60844 15.376 10.9037 11.3667 17.8736 11.3667C19.3809 11.3667 20.8044 11.6199 22.0805 12.0552C23.451 9.74953 26.9708 7.75391 30.7205 7.75391C34.4495 7.75391 37.0238 9.13986 38.2884 10.8268" stroke="#161616" stroke-width="2" stroke-linecap="round" stroke-linejoin="round"/>
<path d="M50.2702 16.8613C49.2123 13.9279 47.0152 11.5164 44.0547 10.5709C40.624 9.47297 34.5777 10.5128 31.6392 18.2343C29.6461 23.4708 30.2778 28.7317 34.4279 30.6486C35.8875 31.3241 38.454 31.3641 41.1213 30.8074C41.9609 31.7568 43.6116 32.7527 46.5799 33.879C50.1191 35.2211 54.047 34.5636 55.9496 27.5589C57.0928 23.3519 55.2521 18.5831 50.2702 16.8613Z" stroke="#161616" stroke-width="2" stroke-linecap="round" stroke-linejoin="round"/>
<path d="M55.2837 29.5728C57.1592 31.9197 58.1615 35.3594 57.9523 38.5434C57.7004 42.2569 55.1687 45.0185 50.9928 45.5235C50.2069 45.6197 49.4134 45.6387 48.6238 45.5804C45.4567 45.3556 41.2446 43.3329 39.4323 40.003C39.1216 39.447 38.887 38.8518 38.7348 38.2334C37.7945 40.0611 36.4344 41.4471 34.8004 42.3564C33.1936 43.2541 31.3233 43.6894 29.3328 43.6325C27.9209 43.585 26.5249 43.3192 25.1943 42.8446C20.4926 41.2055 16.876 37.3447 16.597 33.2953C16.5189 32.2256 16.6841 31.1521 17.0801 30.1553C17.9726 27.9013 20.016 26.0116 22.5309 25.0558V25.0506C25.0109 24.1103 27.9468 24.0728 30.6981 25.4808" stroke="#161616" stroke-width="2" stroke-linecap="round" stroke-linejoin="round"/>
<path d="M29.332 43.6323C30.0037 45.3128 31.0758 47.3614 32.1259 49.1C34.1642 52.4712 36.3019 54.8711 37.7989 54.0987C38.4757 53.7525 39.0169 52.3872 39.1009 50.659C40.6263 51.0745 42.1996 51.2881 43.7806 51.2945C46.9956 51.2945 50.1098 48.3327 50.992 45.5233" stroke="#161616" stroke-width="2" stroke-linecap="round" stroke-linejoin="round"/>
</svg>
