<svg width="32" height="32" viewBox="0 0 32 32" fill="none" xmlns="http://www.w3.org/2000/svg">
<g clip-path="url(#clip0_61_46879)">
<path d="M13.0479 13.1643C11.8591 13.1643 10.697 12.8116 9.70867 12.151C8.72032 11.4903 7.95015 10.5513 7.49561 9.45282C7.04108 8.35432 6.9226 7.14568 7.15518 5.97983C7.38775 4.81398 7.96093 3.74331 8.80217 2.90331C9.64342 2.0633 10.7149 1.49171 11.8811 1.26086C13.0473 1.03001 14.2558 1.15028 15.3536 1.60644C16.4514 2.0626 17.3893 2.83416 18.0485 3.82349C18.7077 4.81281 19.0586 5.97544 19.0568 7.16427C19.0521 8.75566 18.4173 10.2804 17.2911 11.4049C16.165 12.5293 14.6393 13.1619 13.0479 13.1643ZM13.0479 2.93315C12.2111 2.93315 11.3931 3.1813 10.6973 3.64623C10.0015 4.11115 9.45915 4.77196 9.13891 5.54509C8.81867 6.31822 8.73488 7.16896 8.89814 7.98972C9.0614 8.81047 9.46437 9.56438 10.0561 10.1561C10.6478 10.7478 11.4017 11.1508 12.2225 11.3141C13.0433 11.4773 13.894 11.3935 14.6671 11.0733C15.4403 10.7531 16.1011 10.2107 16.566 9.51495C17.0309 8.81914 17.2791 8.0011 17.2791 7.16427C17.2791 6.04211 16.8333 4.96591 16.0398 4.17242C15.2463 3.37893 14.1701 2.93315 13.0479 2.93315Z" fill="#FFC215"/>
<path d="M14.5951 28.1601C14.4009 27.9658 14.251 27.7317 14.1559 27.4739C14.0607 27.2161 14.0226 26.9407 14.044 26.6668H3.55512V21.529C4.81514 20.1837 6.34379 19.1182 8.04199 18.4016C9.74019 17.6849 11.57 17.3331 13.4129 17.369H14.0529C14.0121 17.071 14.0406 16.7676 14.1362 16.4824C14.2318 16.1971 14.3919 15.9378 14.604 15.7246L14.7107 15.6268C14.2929 15.6268 13.8218 15.5735 13.4129 15.5735C11.2444 15.522 9.0915 15.953 7.10994 16.8354C5.12839 17.7178 3.36768 19.0295 1.95512 20.6757C1.83972 20.8295 1.77734 21.0167 1.77734 21.209V26.6668C1.77734 27.1383 1.96464 27.5905 2.29804 27.9239C2.63144 28.2573 3.08363 28.4446 3.55512 28.4446H14.844L14.5951 28.1601Z" fill="#FFC215"/>
<path d="M29.9369 20.7286L28.1591 20.1864C28.0321 19.7516 27.8593 19.3314 27.6436 18.9331L28.5325 17.2798C28.5614 17.2136 28.5684 17.14 28.5524 17.0696C28.5364 16.9992 28.4983 16.9358 28.4436 16.8886L27.1547 15.5998C27.106 15.547 27.0409 15.5122 26.9699 15.5009C26.899 15.4896 26.8263 15.5025 26.7636 15.5375L25.128 16.4264C24.7258 16.199 24.2994 16.0172 23.8569 15.8842L23.3147 14.1064C23.2917 14.041 23.248 13.9848 23.1903 13.9463C23.1326 13.9078 23.064 13.8892 22.9947 13.8931H21.1725C21.1025 13.8923 21.0341 13.9144 20.978 13.9562C20.9218 13.9979 20.8808 14.057 20.8614 14.1242L20.3191 15.902C19.8739 16.0315 19.4446 16.2104 19.0391 16.4353L17.4214 15.5464C17.36 15.5121 17.2888 15.4995 17.2194 15.5108C17.15 15.5221 17.0864 15.5566 17.0391 15.6086L15.7236 16.8886C15.6748 16.94 15.6434 17.0054 15.6338 17.0756C15.6243 17.1458 15.637 17.2172 15.6703 17.2798L16.5591 18.8975C16.3243 19.2983 16.1363 19.7248 15.9991 20.1686L14.2214 20.702C14.1541 20.7214 14.0951 20.7624 14.0534 20.8186C14.0116 20.8748 13.9894 20.9431 13.9903 21.0131V22.8353C13.9955 22.8995 14.0206 22.9605 14.062 23.0099C14.1034 23.0592 14.1591 23.0945 14.2214 23.1109L15.9991 23.6531C16.1305 24.0891 16.3094 24.5094 16.5325 24.9064L15.6436 26.6042C15.6097 26.665 15.5965 26.7353 15.6062 26.8043C15.6158 26.8732 15.6476 26.9372 15.6969 26.9864L16.9858 28.2753C17.0362 28.3255 17.1011 28.3586 17.1713 28.3698C17.2415 28.3809 17.3135 28.3697 17.3769 28.3375L19.0391 27.4486C19.4345 27.662 19.8517 27.8318 20.2836 27.9553L20.8169 29.7331C20.8388 29.7989 20.8804 29.8564 20.936 29.8977C20.9917 29.939 21.0587 29.9623 21.128 29.9642H22.9503C23.0199 29.9636 23.0876 29.9409 23.1435 29.8993C23.1994 29.8578 23.2407 29.7996 23.2614 29.7331L23.8036 27.9109C24.2294 27.7862 24.6406 27.6163 25.0303 27.4042L26.7103 28.2931C26.772 28.3259 26.8428 28.3376 26.9118 28.3264C26.9809 28.3151 27.0443 28.2816 27.0925 28.2309L28.4436 27.022C28.4799 26.9698 28.4994 26.9078 28.4994 26.8442C28.4994 26.7806 28.4799 26.7186 28.4436 26.6664L27.5547 24.9953C27.7705 24.6032 27.9433 24.189 28.0703 23.7598L29.848 23.2175C29.9153 23.1981 29.9743 23.1571 30.016 23.1009C30.0578 23.0448 30.08 22.9764 30.0791 22.9064V21.0398C30.0873 20.9798 30.0783 20.9187 30.0531 20.8636C30.0279 20.8085 29.9876 20.7617 29.9369 20.7286ZM22.088 24.8886C21.5001 24.8904 20.9249 24.7176 20.4353 24.392C19.9457 24.0665 19.5638 23.6029 19.338 23.06C19.1122 22.5172 19.0526 21.9195 19.1669 21.3427C19.2812 20.766 19.5641 20.2362 19.9798 19.8205C20.3956 19.4047 20.9254 19.1218 21.5021 19.0075C22.0789 18.8932 22.6765 18.9528 23.2194 19.1786C23.7623 19.4044 24.2258 19.7863 24.5514 20.2759C24.8769 20.7655 25.0498 21.3407 25.048 21.9286C25.0457 22.713 24.7331 23.4645 24.1785 24.0191C23.6239 24.5737 22.8724 24.8863 22.088 24.8886Z" fill="#FFC215"/>
</g>
<defs>
<clipPath id="clip0_61_46879">
<rect width="32" height="32" fill="white"/>
</clipPath>
</defs>
</svg>
