<svg width="63" height="62" viewBox="0 0 63 62" fill="none" xmlns="http://www.w3.org/2000/svg">
<path d="M21.1673 28.4168C24.593 28.4168 27.8784 27.056 30.3008 24.6336C32.7231 22.2113 34.084 18.9259 34.084 15.5002C34.084 12.0745 32.7231 8.78905 30.3008 6.3667C27.8784 3.94436 24.593 2.5835 21.1673 2.5835C17.7416 2.5835 14.4562 3.94436 12.0339 6.3667C9.61151 8.78905 8.25065 12.0745 8.25065 15.5002C8.25065 18.9259 9.61151 22.2113 12.0339 24.6336C14.4562 27.056 17.7416 28.4168 21.1673 28.4168ZM21.1673 28.4168C26.3676 28.4168 30.9117 30.3802 34.1434 33.6429C36.0595 35.5855 37.4929 37.9507 38.3284 40.5482M21.1673 28.4168C10.834 28.4168 3.08398 36.1668 3.08398 46.5002V59.4168H28.9173M31.5007 48.6288L42.3248 56.8335L59.9173 33.5835" stroke="#161616" stroke-width="4"/>
</svg>
