<svg width="24" height="25" viewBox="0 0 24 25" fill="none" xmlns="http://www.w3.org/2000/svg">
<path fill-rule="evenodd" clip-rule="evenodd" d="M9.94436 3.46289H14.0564C15.8944 3.46289 17.3504 3.46289 18.4894 3.61589C19.6614 3.77389 20.6104 4.10589 21.3594 4.85389C22.1074 5.60289 22.4394 6.55189 22.5974 7.72389C22.6874 8.39689 22.7244 9.17989 22.7394 10.0869C22.7518 10.163 22.7531 10.2404 22.7434 10.3169C22.7494 10.8822 22.7517 11.4956 22.7504 12.1569V13.2129C22.7504 13.4118 22.6713 13.6026 22.5307 13.7432C22.39 13.8839 22.1993 13.9629 22.0004 13.9629C21.8015 13.9629 21.6107 13.8839 21.47 13.7432C21.3294 13.6026 21.2504 13.4118 21.2504 13.2129V12.2129C21.2504 11.7676 21.2497 11.3509 21.2484 10.9629H2.75236C2.75036 11.3509 2.7497 11.7676 2.75036 12.2129C2.75036 14.1199 2.75236 15.4749 2.89036 16.5029C3.02536 17.5079 3.27936 18.0879 3.70236 18.5109C4.12536 18.9339 4.70536 19.1879 5.71136 19.3229C6.73936 19.4609 8.09336 19.4629 10.0004 19.4629H13.0004C13.1993 19.4629 13.39 19.5419 13.5307 19.6826C13.6713 19.8232 13.7504 20.014 13.7504 20.2129C13.7504 20.4118 13.6713 20.6026 13.5307 20.7432C13.39 20.8839 13.1993 20.9629 13.0004 20.9629H9.94436C8.10636 20.9629 6.65036 20.9629 5.51136 20.8099C4.33936 20.6519 3.39036 20.3199 2.64136 19.5719C1.89336 18.8229 1.56136 17.8739 1.40336 16.7019C1.25036 15.5619 1.25036 14.1069 1.25036 12.2689V12.1569C1.24903 11.4956 1.25136 10.8822 1.25736 10.3169C1.24728 10.2405 1.24829 10.163 1.26036 10.0869C1.27636 9.17989 1.31336 8.39689 1.40336 7.72389C1.56136 6.55189 1.89336 5.60289 2.64136 4.85389C3.39036 4.10589 4.33936 3.77389 5.51136 3.61589C6.65136 3.46289 8.10636 3.46289 9.94436 3.46289ZM2.77636 9.46289H21.2244C21.2112 8.94802 21.1731 8.43409 21.1104 7.92289C20.9754 6.91789 20.7214 6.33789 20.2984 5.91489C19.8754 5.49189 19.2954 5.23789 18.2894 5.10289C17.2624 4.96489 15.9074 4.96289 14.0004 4.96289H10.0004C8.09336 4.96289 6.73936 4.96489 5.71036 5.10289C4.70536 5.23789 4.12536 5.49189 3.70236 5.91489C3.27936 6.33789 3.02536 6.91789 2.89036 7.92289C2.83036 8.36789 2.79636 8.87489 2.77636 9.46189M18.0004 14.9629C17.4036 14.9629 16.8313 15.1999 16.4094 15.6219C15.9874 16.0439 15.7504 16.6162 15.7504 17.2129C15.7504 17.8096 15.9874 18.3819 16.4094 18.8039C16.8313 19.2258 17.4036 19.4629 18.0004 19.4629C18.5971 19.4629 19.1694 19.2258 19.5914 18.8039C20.0133 18.3819 20.2504 17.8096 20.2504 17.2129C20.2504 16.6162 20.0133 16.0439 19.5914 15.6219C19.1694 15.1999 18.5971 14.9629 18.0004 14.9629ZM14.2504 17.2129C14.2505 16.6282 14.3874 16.0517 14.6501 15.5293C14.9128 15.007 15.294 14.5533 15.7632 14.2045C16.2324 13.8557 16.7767 13.6214 17.3526 13.5204C17.9285 13.4194 18.5201 13.4545 19.08 13.6228C19.6399 13.7911 20.1527 14.0881 20.5775 14.4899C21.0022 14.8917 21.3271 15.3872 21.5262 15.937C21.7253 16.4867 21.7931 17.0754 21.7242 17.656C21.6553 18.2366 21.4516 18.793 21.1294 19.2809L22.0304 20.1829C22.1041 20.2516 22.1632 20.3344 22.2041 20.4264C22.2451 20.5184 22.2672 20.6177 22.269 20.7184C22.2707 20.8191 22.2522 20.9191 22.2145 21.0125C22.1768 21.1059 22.1206 21.1907 22.0494 21.2619C21.9782 21.3331 21.8933 21.3893 21.8 21.427C21.7066 21.4647 21.6065 21.4833 21.5058 21.4815C21.4051 21.4797 21.3058 21.4577 21.2138 21.4167C21.1218 21.3757 21.039 21.3166 20.9704 21.2429L20.0684 20.3419C19.5031 20.7156 18.8472 20.9291 18.1703 20.9598C17.4935 20.9905 16.8209 20.8373 16.2241 20.5163C15.6274 20.1954 15.1288 19.7187 14.7812 19.1371C14.4337 18.5554 14.2502 17.8905 14.2504 17.2129ZM5.25036 16.2129C5.25036 16.014 5.32938 15.8232 5.47003 15.6826C5.61069 15.5419 5.80145 15.4629 6.00036 15.4629H10.0004C10.1993 15.4629 10.39 15.5419 10.5307 15.6826C10.6713 15.8232 10.7504 16.014 10.7504 16.2129C10.7504 16.4118 10.6713 16.6026 10.5307 16.7432C10.39 16.8839 10.1993 16.9629 10.0004 16.9629H6.00036C5.80145 16.9629 5.61069 16.8839 5.47003 16.7432C5.32938 16.6026 5.25036 16.4118 5.25036 16.2129Z" fill="#FFC000"/>
</svg>
