<svg width="16" height="17" viewBox="0 0 16 17" fill="none" xmlns="http://www.w3.org/2000/svg">
<path d="M9 13.2617H13.086L11.793 14.5547L12.5 15.2617L15 12.7617L12.5 10.2617L11.793 10.9687L13.086 12.2617H9V13.2617ZM5 10.7617H7.5V11.7617H5V10.7617ZM5 8.26172H10V9.26172H5V8.26172Z" fill="#FFC000"/>
<path d="M12.35 4.91172L8.85 1.41172C8.75 1.31172 8.65 1.26172 8.5 1.26172H3.5C2.95 1.26172 2.5 1.71172 2.5 2.26172V14.2617C2.5 14.8132 2.949 15.2617 3.5 15.2617H7.5V14.2617H3.5V2.26172H7.5V5.26172C7.5 5.81172 7.95 6.26172 8.5 6.26172H11.5V9.26172H12.5V5.26172C12.5 5.11172 12.45 5.01172 12.35 4.91172ZM8.5 5.26172V2.46172L11.3 5.26172H8.5Z" fill="#FFC000"/>
</svg>
