<svg width="20" height="21" viewBox="0 0 20 21" fill="none" xmlns="http://www.w3.org/2000/svg">
<g clip-path="url(#clip0_250_15728)">
<path d="M17.5 13H20V20.5H10V13H12.5V10.5H17.5V13ZM13.75 13H16.25V11.75H13.75V13ZM18.75 16.75H17.5V18H16.25V16.75H13.75V18H12.5V16.75H11.25V19.25H18.75V16.75ZM11.25 14.25V15.5H18.75V14.25H11.25ZM8.75 9.25C8.75 9.85547 8.61654 10.4219 8.34961 10.9492C8.08268 11.4766 7.70182 11.9193 7.20703 12.2773C7.5 12.4271 7.77669 12.5996 8.03711 12.7949C8.29753 12.9902 8.53516 13.2083 8.75 13.4492V16.75C8.75 16.2357 8.65234 15.7507 8.45703 15.2949C8.26172 14.8392 7.99479 14.4421 7.65625 14.1035C7.31771 13.765 6.91732 13.4948 6.45508 13.293C5.99284 13.0911 5.50781 12.9935 5 13C4.47917 13 3.99414 13.0977 3.54492 13.293C3.0957 13.4883 2.69857 13.7552 2.35352 14.0938C2.00846 14.4323 1.73828 14.8327 1.54297 15.2949C1.34766 15.7572 1.25 16.2422 1.25 16.75H0C0 16.2747 0.0651042 15.8158 0.195312 15.373C0.325521 14.9303 0.511068 14.5104 0.751953 14.1133C0.992839 13.7161 1.28906 13.3646 1.64062 13.0586C1.99219 12.7526 2.3763 12.4889 2.79297 12.2676C2.30469 11.916 1.92708 11.4766 1.66016 10.9492C1.39323 10.4219 1.25651 9.85547 1.25 9.25C1.25 8.73568 1.34766 8.25065 1.54297 7.79492C1.73828 7.33919 2.00521 6.94206 2.34375 6.60352C2.68229 6.26497 3.07943 5.99479 3.53516 5.79297C3.99089 5.59115 4.47917 5.49349 5 5.5C5.46875 5.5 5.91471 5.58138 6.33789 5.74414C6.76107 5.9069 7.14844 6.14779 7.5 6.4668C7.70833 6.27799 7.93945 6.11198 8.19336 5.96875C7.97201 5.74089 7.80273 5.47721 7.68555 5.17773C7.56836 4.87826 7.50651 4.56901 7.5 4.25C7.5 3.90495 7.5651 3.58268 7.69531 3.2832C7.82552 2.98372 8.00456 2.7168 8.23242 2.48242C8.46029 2.24805 8.72396 2.06901 9.02344 1.94531C9.32292 1.82161 9.64844 1.75651 10 1.75C10.3451 1.75 10.6673 1.8151 10.9668 1.94531C11.2663 2.07552 11.5332 2.25456 11.7676 2.48242C12.002 2.71029 12.181 2.97396 12.3047 3.27344C12.4284 3.57292 12.4935 3.89844 12.5 4.25C12.5 4.56901 12.4414 4.87826 12.3242 5.17773C12.207 5.47721 12.0345 5.74089 11.8066 5.96875C12.347 6.26823 12.7865 6.67188 13.125 7.17969C13.4635 6.67188 13.903 6.26823 14.4434 5.96875C14.222 5.74089 14.0527 5.47721 13.9355 5.17773C13.8184 4.87826 13.7565 4.56901 13.75 4.25C13.75 3.90495 13.8151 3.58268 13.9453 3.2832C14.0755 2.98372 14.2546 2.7168 14.4824 2.48242C14.7103 2.24805 14.974 2.06901 15.2734 1.94531C15.5729 1.82161 15.8984 1.75651 16.25 1.75C16.5951 1.75 16.9173 1.8151 17.2168 1.94531C17.5163 2.07552 17.7832 2.25456 18.0176 2.48242C18.252 2.71029 18.431 2.97396 18.5547 3.27344C18.6784 3.57292 18.7435 3.89844 18.75 4.25C18.75 4.56901 18.6914 4.87826 18.5742 5.17773C18.457 5.47721 18.2845 5.74089 18.0566 5.96875C18.3561 6.13151 18.6263 6.33008 18.8672 6.56445C19.1081 6.79883 19.3099 7.05599 19.4727 7.33594C19.6354 7.61589 19.7656 7.92188 19.8633 8.25391C19.9609 8.58594 20.0065 8.91797 20 9.25H18.75C18.75 8.90495 18.6849 8.58268 18.5547 8.2832C18.4245 7.98372 18.2454 7.7168 18.0176 7.48242C17.7897 7.24805 17.526 7.06901 17.2266 6.94531C16.9271 6.82161 16.6016 6.75651 16.25 6.75C15.9049 6.75 15.5827 6.8151 15.2832 6.94531C14.9837 7.07552 14.7168 7.25456 14.4824 7.48242C14.248 7.71029 14.069 7.97396 13.9453 8.27344C13.8216 8.57292 13.7565 8.89844 13.75 9.25H12.5C12.5 8.90495 12.4349 8.58268 12.3047 8.2832C12.1745 7.98372 11.9954 7.7168 11.7676 7.48242C11.5397 7.24805 11.276 7.06901 10.9766 6.94531C10.6771 6.82161 10.3516 6.75651 10 6.75C9.68099 6.75 9.37175 6.80859 9.07227 6.92578C8.77279 7.04297 8.50911 7.21549 8.28125 7.44336C8.4375 7.7168 8.55469 8.00651 8.63281 8.3125C8.71094 8.61849 8.75 8.93099 8.75 9.25ZM16.25 3C16.0742 3 15.9115 3.03255 15.7617 3.09766C15.612 3.16276 15.4818 3.25065 15.3711 3.36133C15.2604 3.47201 15.1693 3.60547 15.0977 3.76172C15.026 3.91797 14.9935 4.08073 15 4.25C15 4.42578 15.0326 4.58854 15.0977 4.73828C15.1628 4.88802 15.2507 5.01823 15.3613 5.12891C15.472 5.23958 15.6055 5.33073 15.7617 5.40234C15.918 5.47396 16.0807 5.50651 16.25 5.5C16.4258 5.5 16.5885 5.46745 16.7383 5.40234C16.888 5.33724 17.0182 5.24935 17.1289 5.13867C17.2396 5.02799 17.3307 4.89453 17.4023 4.73828C17.474 4.58203 17.5065 4.41927 17.5 4.25C17.5 4.07422 17.4674 3.91146 17.4023 3.76172C17.3372 3.61198 17.2493 3.48177 17.1387 3.37109C17.028 3.26042 16.8945 3.16927 16.7383 3.09766C16.582 3.02604 16.4193 2.99349 16.25 3ZM10 3C9.82422 3 9.66146 3.03255 9.51172 3.09766C9.36198 3.16276 9.23177 3.25065 9.12109 3.36133C9.01042 3.47201 8.91927 3.60547 8.84766 3.76172C8.77604 3.91797 8.74349 4.08073 8.75 4.25C8.75 4.42578 8.78255 4.58854 8.84766 4.73828C8.91276 4.88802 9.00065 5.01823 9.11133 5.12891C9.222 5.23958 9.35547 5.33073 9.51172 5.40234C9.66797 5.47396 9.83073 5.50651 10 5.5C10.1758 5.5 10.3385 5.46745 10.4883 5.40234C10.638 5.33724 10.7682 5.24935 10.8789 5.13867C10.9896 5.02799 11.0807 4.89453 11.1523 4.73828C11.224 4.58203 11.2565 4.41927 11.25 4.25C11.25 4.07422 11.2174 3.91146 11.1523 3.76172C11.0872 3.61198 10.9993 3.48177 10.8887 3.37109C10.778 3.26042 10.6445 3.16927 10.4883 3.09766C10.332 3.02604 10.1693 2.99349 10 3ZM5 11.75C5.34505 11.75 5.66732 11.6849 5.9668 11.5547C6.26628 11.4245 6.5332 11.2454 6.76758 11.0176C7.00195 10.7897 7.18099 10.526 7.30469 10.2266C7.42839 9.92708 7.49349 9.60156 7.5 9.25C7.5 8.90495 7.4349 8.58268 7.30469 8.2832C7.17448 7.98372 6.99544 7.7168 6.76758 7.48242C6.53971 7.24805 6.27604 7.06901 5.97656 6.94531C5.67708 6.82161 5.35156 6.75651 5 6.75C4.65495 6.75 4.33268 6.8151 4.0332 6.94531C3.73372 7.07552 3.4668 7.25456 3.23242 7.48242C2.99805 7.71029 2.81901 7.97396 2.69531 8.27344C2.57161 8.57292 2.50651 8.89844 2.5 9.25C2.5 9.59505 2.5651 9.91732 2.69531 10.2168C2.82552 10.5163 3.00456 10.7832 3.23242 11.0176C3.46029 11.252 3.72396 11.431 4.02344 11.5547C4.32292 11.6784 4.64844 11.7435 5 11.75Z" fill="#FBBD00"/>
</g>
<defs>
<clipPath id="clip0_250_15728">
<rect width="20" height="20" fill="white" transform="translate(0 0.5)"/>
</clipPath>
</defs>
</svg>
