<svg width="52" height="52" viewBox="0 0 52 52" fill="none" xmlns="http://www.w3.org/2000/svg">
<path d="M35.0568 42.4667L30.7018 34.9267C32.8251 33.3667 34.2984 30.94 34.6018 28.1667H43.3334C43.1545 31.0282 42.3139 33.8091 40.8777 36.2905C39.4414 38.7719 37.4489 40.8861 35.0568 42.4667ZM28.1668 15.2317V6.5C37.4834 7.06333 44.9368 14.5167 45.5001 23.8333H36.7684C36.5257 21.6354 35.5414 19.5858 33.9779 18.0222C32.4143 16.4587 30.3646 15.4744 28.1668 15.2317ZM15.1668 27.0833C15.1668 28.47 15.4484 29.7917 15.9901 30.9833L8.45009 35.3383C7.159 32.7787 6.49086 29.9502 6.50009 27.0833C6.50009 17.2683 14.1701 9.25167 23.8334 8.66667V17.3983C18.9584 17.94 15.1668 22.0567 15.1668 27.0833ZM24.9168 45.5C18.4818 45.5 12.8268 42.25 9.53343 37.2233L17.0734 32.8683C17.9755 34.1009 19.1563 35.1026 20.5195 35.7917C21.8826 36.4808 23.3894 36.8377 24.9168 36.8333C26.3034 36.8333 27.6251 36.5517 28.8168 36.01L33.1718 43.55C30.6801 44.8067 27.8851 45.5 24.9168 45.5Z" fill="#FFC000"/>
</svg>
