<svg width="169" height="169" viewBox="0 0 169 169" fill="none" xmlns="http://www.w3.org/2000/svg">
<g clip-path="url(#clip0_696_2167)">
<path d="M8.45 138.017H83.3452C84.0829 138.02 84.8139 137.876 85.4957 137.594C86.1775 137.312 86.7965 136.898 87.3167 136.375L105.391 118.3C105.914 117.78 106.329 117.161 106.611 116.479C106.893 115.797 107.036 115.066 107.033 114.329V8.45C107.033 6.20892 106.143 4.05963 104.558 2.47495C102.974 0.890265 100.824 0 98.5833 0L8.45 0C6.20892 0 4.05963 0.890265 2.47495 2.47495C0.890265 4.05963 0 6.20892 0 8.45L0 129.567C0 131.808 0.890265 133.957 2.47495 135.542C4.05963 137.126 6.20892 138.017 8.45 138.017ZM5.63333 129.567V50.7H101.4V112.667H90.1333C87.8923 112.667 85.743 113.557 84.1583 115.142C82.5736 116.726 81.6833 118.876 81.6833 121.117V132.383H8.45C7.70297 132.383 6.98654 132.087 6.45832 131.558C5.93009 131.03 5.63333 130.314 5.63333 129.567ZM97.4201 118.3L87.3167 128.409V121.117C87.3167 120.37 87.6134 119.653 88.1417 119.125C88.6699 118.597 89.3863 118.3 90.1333 118.3H97.4201ZM8.45 5.63333H98.5833C99.3304 5.63333 100.047 5.93009 100.575 6.45832C101.103 6.98654 101.4 7.70297 101.4 8.45V45.0667H5.63333V8.45C5.63333 7.70297 5.93009 6.98654 6.45832 6.45832C6.98654 5.93009 7.70297 5.63333 8.45 5.63333Z" fill="white"/>
<path d="M8.45 169H89.6855C92.2418 169.001 94.75 168.305 96.9412 166.989L104.304 162.564C105.138 162.064 105.829 161.356 106.308 160.509C106.787 159.662 107.039 158.706 107.039 157.733C107.039 156.761 106.787 155.804 106.308 154.958C105.829 154.111 105.138 153.403 104.304 152.903L96.9412 148.478C94.75 147.161 92.2418 146.466 89.6855 146.467H8.45C6.20892 146.467 4.05963 147.357 2.47495 148.942C0.890265 150.526 0 152.676 0 154.917L0 160.55C0 162.791 0.890265 164.94 2.47495 166.525C4.05963 168.11 6.20892 169 8.45 169ZM25.35 163.367V152.1H81.6833V163.367H25.35ZM94.0372 153.308L101.4 157.733L94.0372 162.158C92.7237 162.95 91.219 163.368 89.6855 163.367H87.3167V152.1H89.6855C91.219 152.099 92.7237 152.517 94.0372 153.308ZM5.63333 154.917C5.63333 154.17 5.93009 153.453 6.45832 152.925C6.98654 152.397 7.70297 152.1 8.45 152.1H19.7167V163.367H8.45C7.70297 163.367 6.98654 163.07 6.45832 162.542C5.93009 162.014 5.63333 161.297 5.63333 160.55V154.917Z" fill="white"/>
<path d="M25.3509 39.4333C28.1363 39.4333 30.8592 38.6073 33.1752 37.0598C35.4912 35.5123 37.2963 33.3128 38.3622 30.7394C39.4282 28.166 39.707 25.3343 39.1636 22.6024C38.6202 19.8705 37.2789 17.3611 35.3093 15.3915C33.3397 13.4219 30.8303 12.0806 28.0984 11.5372C25.3665 10.9938 22.5348 11.2727 19.9615 12.3386C17.3881 13.4046 15.1885 15.2097 13.641 17.5257C12.0936 19.8417 11.2676 22.5645 11.2676 25.3499C11.2721 29.0837 12.7573 32.6633 15.3974 35.3034C18.0376 37.9436 21.6172 39.4288 25.3509 39.4333ZM25.3509 16.8999C27.0222 16.8999 28.6559 17.3955 30.0455 18.324C31.4351 19.2525 32.5181 20.5722 33.1577 22.1163C33.7973 23.6603 33.9646 25.3593 33.6385 26.9985C33.3125 28.6376 32.5077 30.1432 31.326 31.325C30.1442 32.5067 28.6386 33.3115 26.9994 33.6376C25.3603 33.9636 23.6613 33.7963 22.1172 33.1567C20.5732 32.5172 19.2535 31.4341 18.325 30.0445C17.3965 28.6549 16.9009 27.0212 16.9009 25.3499C16.9009 23.1089 17.7912 20.9596 19.3759 19.3749C20.9605 17.7902 23.1098 16.8999 25.3509 16.8999Z" fill="white"/>
<path d="M135.2 45.0669C132.972 45.0669 130.794 45.7277 128.941 46.9657C127.088 48.2037 125.644 49.9633 124.791 52.022C123.938 54.0807 123.715 56.3461 124.15 58.5316C124.585 60.7171 125.658 62.7246 127.234 64.3003C128.809 65.876 130.817 66.949 133.002 67.3837C135.188 67.8185 137.453 67.5954 139.512 66.7426C141.571 65.8899 143.33 64.4458 144.568 62.593C145.806 60.7402 146.467 58.5619 146.467 56.3336C146.467 53.3455 145.28 50.4797 143.167 48.3668C141.054 46.2539 138.188 45.0669 135.2 45.0669ZM135.2 61.9669C134.086 61.9669 132.997 61.6365 132.071 61.0175C131.144 60.3985 130.422 59.5187 129.996 58.4893C129.569 57.46 129.458 56.3273 129.675 55.2346C129.893 54.1418 130.429 53.138 131.217 52.3502C132.005 51.5624 133.008 51.0258 134.101 50.8085C135.194 50.5911 136.327 50.7027 137.356 51.129C138.385 51.5554 139.265 52.2774 139.884 53.2038C140.503 54.1302 140.834 55.2194 140.834 56.3336C140.834 57.8276 140.24 59.2605 139.184 60.3169C138.127 61.3734 136.694 61.9669 135.2 61.9669Z" fill="white"/>
<path d="M160.549 0H121.116C118.875 0 116.726 0.890265 115.141 2.47495C113.556 4.05963 112.666 6.20892 112.666 8.45V70.4167C112.666 72.6578 113.556 74.807 115.141 76.3917C116.726 77.9764 118.875 78.8667 121.116 78.8667H160.549C162.79 78.8667 164.94 77.9764 166.524 76.3917C168.109 74.807 168.999 72.6578 168.999 70.4167V8.45C168.999 6.20892 168.109 4.05963 166.524 2.47495C164.94 0.890265 162.79 0 160.549 0ZM163.366 70.4167C163.366 71.1637 163.069 71.8801 162.541 72.4084C162.013 72.9366 161.296 73.2333 160.549 73.2333H121.116C120.369 73.2333 119.653 72.9366 119.124 72.4084C118.596 71.8801 118.299 71.1637 118.299 70.4167V8.45C118.299 7.70297 118.596 6.98654 119.124 6.45832C119.653 5.93009 120.369 5.63333 121.116 5.63333H160.549C161.296 5.63333 162.013 5.93009 162.541 6.45832C163.069 6.98654 163.366 7.70297 163.366 8.45V70.4167Z" fill="white"/>
<path d="M160.549 90.1333H121.116C118.875 90.1333 116.726 91.0236 115.141 92.6083C113.556 94.1929 112.666 96.3422 112.666 98.5833V160.55C112.666 162.791 113.556 164.94 115.141 166.525C116.726 168.11 118.875 169 121.116 169H160.549C162.79 169 164.94 168.11 166.524 166.525C168.109 164.94 168.999 162.791 168.999 160.55V98.5833C168.999 96.3422 168.109 94.1929 166.524 92.6083C164.94 91.0236 162.79 90.1333 160.549 90.1333ZM118.299 158.992V100.141L142.34 126.237C143.172 127.147 143.633 128.335 143.633 129.568C143.633 130.801 143.172 131.989 142.34 132.899L118.299 158.992ZM163.366 160.55C163.366 161.297 163.069 162.013 162.541 162.542C162.013 163.07 161.296 163.367 160.549 163.367H121.93L146.466 136.718C148.252 134.765 149.243 132.215 149.243 129.568C149.243 126.921 148.252 124.371 146.466 122.418L121.93 95.7666H160.549C161.296 95.7666 162.013 96.0634 162.541 96.5916C163.069 97.1198 163.366 97.8363 163.366 98.5833V160.55Z" fill="white"/>
<path d="M47.8831 16.8999H90.1331C90.8801 16.8999 91.5965 16.6032 92.1248 16.075C92.653 15.5467 92.9497 14.8303 92.9497 14.0833C92.9497 13.3362 92.653 12.6198 92.1248 12.0916C91.5965 11.5634 90.8801 11.2666 90.1331 11.2666H47.8831C47.136 11.2666 46.4196 11.5634 45.8914 12.0916C45.3632 12.6198 45.0664 13.3362 45.0664 14.0833C45.0664 14.8303 45.3632 15.5467 45.8914 16.075C46.4196 16.6032 47.136 16.8999 47.8831 16.8999Z" fill="white"/>
<path d="M47.8831 28.1665H61.9664C62.7134 28.1665 63.4299 27.8698 63.9581 27.3416C64.4863 26.8133 64.7831 26.0969 64.7831 25.3499C64.7831 24.6028 64.4863 23.8864 63.9581 23.3582C63.4299 22.83 62.7134 22.5332 61.9664 22.5332H47.8831C47.136 22.5332 46.4196 22.83 45.8914 23.3582C45.3632 23.8864 45.0664 24.6028 45.0664 25.3499C45.0664 26.0969 45.3632 26.8133 45.8914 27.3416C46.4196 27.8698 47.136 28.1665 47.8831 28.1665Z" fill="white"/>
<path d="M47.8831 39.4331H70.4164C71.1634 39.4331 71.8799 39.1364 72.4081 38.6082C72.9363 38.0799 73.2331 37.3635 73.2331 36.6165C73.2331 35.8694 72.9363 35.153 72.4081 34.6248C71.8799 34.0966 71.1634 33.7998 70.4164 33.7998H47.8831C47.136 33.7998 46.4196 34.0966 45.8914 34.6248C45.3632 35.153 45.0664 35.8694 45.0664 36.6165C45.0664 37.3635 45.3632 38.0799 45.8914 38.6082C46.4196 39.1364 47.136 39.4331 47.8831 39.4331Z" fill="white"/>
<path d="M87.3168 61.9666C87.3168 61.2195 87.0201 60.5031 86.4918 59.9749C85.9636 59.4467 85.2472 59.1499 84.5001 59.1499H22.5335C21.7864 59.1499 21.07 59.4467 20.5418 59.9749C20.0136 60.5031 19.7168 61.2195 19.7168 61.9666C19.7168 62.7136 20.0136 63.43 20.5418 63.9583C21.07 64.4865 21.7864 64.7832 22.5335 64.7832H84.5001C85.2472 64.7832 85.9636 64.4865 86.4918 63.9583C87.0201 63.43 87.3168 62.7136 87.3168 61.9666Z" fill="white"/>
<path d="M78.8663 73.2334H28.1663C27.4192 73.2334 26.7028 73.5302 26.1746 74.0584C25.6464 74.5866 25.3496 75.303 25.3496 76.0501C25.3496 76.7971 25.6464 77.5135 26.1746 78.0418C26.7028 78.57 27.4192 78.8667 28.1663 78.8667H78.8663C79.6133 78.8667 80.3297 78.57 80.858 78.0418C81.3862 77.5135 81.683 76.7971 81.683 76.0501C81.683 75.303 81.3862 74.5866 80.858 74.0584C80.3297 73.5302 79.6133 73.2334 78.8663 73.2334Z" fill="white"/>
<path d="M78.8663 84.5H28.1663C27.4192 84.5 26.7028 84.7968 26.1746 85.325C25.6464 85.8532 25.3496 86.5696 25.3496 87.3167C25.3496 88.0637 25.6464 88.7801 26.1746 89.3084C26.7028 89.8366 27.4192 90.1333 28.1663 90.1333H78.8663C79.6133 90.1333 80.3297 89.8366 80.858 89.3084C81.3862 88.7801 81.683 88.0637 81.683 87.3167C81.683 86.5696 81.3862 85.8532 80.858 85.325C80.3297 84.7968 79.6133 84.5 78.8663 84.5Z" fill="white"/>
<path d="M78.8663 95.7666H28.1663C27.4192 95.7666 26.7028 96.0634 26.1746 96.5916C25.6464 97.1198 25.3496 97.8362 25.3496 98.5833C25.3496 99.3303 25.6464 100.047 26.1746 100.575C26.7028 101.103 27.4192 101.4 28.1663 101.4H78.8663C79.6133 101.4 80.3297 101.103 80.858 100.575C81.3862 100.047 81.683 99.3303 81.683 98.5833C81.683 97.8362 81.3862 97.1198 80.858 96.5916C80.3297 96.0634 79.6133 95.7666 78.8663 95.7666Z" fill="white"/>
<path d="M81.683 109.85C81.683 109.103 81.3862 108.386 80.858 107.858C80.3297 107.33 79.6133 107.033 78.8663 107.033H28.1663C27.4192 107.033 26.7028 107.33 26.1746 107.858C25.6464 108.386 25.3496 109.103 25.3496 109.85C25.3496 110.597 25.6464 111.313 26.1746 111.842C26.7028 112.37 27.4192 112.667 28.1663 112.667H78.8663C79.6133 112.667 80.3297 112.37 80.858 111.842C81.3862 111.313 81.683 110.597 81.683 109.85Z" fill="white"/>
<path d="M126.75 39.4333C127.497 39.4333 128.214 39.1365 128.742 38.6083C129.27 38.0801 129.567 37.3636 129.567 36.6166V14.0833C129.567 13.3362 129.27 12.6198 128.742 12.0916C128.214 11.5634 127.497 11.2666 126.75 11.2666C126.003 11.2666 125.287 11.5634 124.759 12.0916C124.23 12.6198 123.934 13.3362 123.934 14.0833V36.6166C123.934 37.3636 124.23 38.0801 124.759 38.6083C125.287 39.1365 126.003 39.4333 126.75 39.4333Z" fill="white"/>
<path d="M138.016 39.4334C138.763 39.4334 139.479 39.1367 140.008 38.6084C140.536 38.0802 140.833 37.3638 140.833 36.6168V28.1668C140.833 27.4197 140.536 26.7033 140.008 26.1751C139.479 25.6469 138.763 25.3501 138.016 25.3501C137.269 25.3501 136.552 25.6469 136.024 26.1751C135.496 26.7033 135.199 27.4197 135.199 28.1668V36.6168C135.199 37.3638 135.496 38.0802 136.024 38.6084C136.552 39.1367 137.269 39.4334 138.016 39.4334Z" fill="white"/>
<path d="M149.283 19.7168C148.536 19.7168 147.82 20.0136 147.292 20.5418C146.764 21.07 146.467 21.7864 146.467 22.5335V36.6168C146.467 37.3638 146.764 38.0803 147.292 38.6085C147.82 39.1367 148.536 39.4335 149.283 39.4335C150.03 39.4335 150.747 39.1367 151.275 38.6085C151.803 38.0803 152.1 37.3638 152.1 36.6168V22.5335C152.1 21.7864 151.803 21.07 151.275 20.5418C150.747 20.0136 150.03 19.7168 149.283 19.7168Z" fill="white"/>
</g>
<rect x="0.5" y="0.5" width="168" height="168" stroke="url(#paint0_linear_696_2167)"/>
<defs>
<linearGradient id="paint0_linear_696_2167" x1="84.5" y1="0" x2="84.5" y2="169" gradientUnits="userSpaceOnUse">
<stop stop-color="white"/>
<stop offset="1" stop-color="#FFC000"/>
</linearGradient>
<clipPath id="clip0_696_2167">
<rect width="169" height="169" fill="white"/>
</clipPath>
</defs>
</svg>
