<svg width="24" height="24" viewBox="0 0 24 24" fill="none" xmlns="http://www.w3.org/2000/svg">
<path d="M2 12C2 7.286 2 4.929 3.464 3.464C4.93 2 7.286 2 12 2C16.714 2 19.071 2 20.535 3.464C22 4.93 22 7.286 22 12C22 16.714 22 19.071 20.535 20.535C19.072 22 16.714 22 12 22C7.286 22 4.929 22 3.464 20.535C2 19.072 2 16.714 2 12Z" stroke="#FFC000" stroke-width="1.5"/>
<path d="M17 15H12M7 10L7.234 10.195C8.516 11.263 9.157 11.797 9.157 12.5C9.157 13.203 8.517 13.737 7.234 14.805L7 15" stroke="#FFC000" stroke-width="1.5" stroke-linecap="round"/>
</svg>
