<svg width="24" height="25" viewBox="0 0 24 25" fill="none" xmlns="http://www.w3.org/2000/svg">
<path d="M7 8.97955L8.635 7.36555L7 5.74955L5.384 7.36555L7 8.97955ZM4.616 14.2696C4.15533 14.2696 3.771 14.1152 3.463 13.8066C3.155 13.4979 3.00067 13.1136 3 12.6536V4.88355C3 4.42355 3.15433 4.03955 3.463 3.73155C3.77167 3.42355 4.15567 3.26922 4.615 3.26855H19.385C19.845 3.26855 20.229 3.42289 20.537 3.73155C20.845 4.04022 20.9993 4.42422 21 4.88355V12.6536C21 13.1136 20.8457 13.4979 20.537 13.8066C20.2283 14.1152 19.844 14.2692 19.384 14.2686H16.314C16.3447 14.1019 16.365 13.9352 16.375 13.7686C16.385 13.6019 16.3863 13.4352 16.379 13.2686H19.384C19.538 13.2686 19.6793 13.2046 19.808 13.0766C19.9367 12.9486 20.0007 12.8076 20 12.6536V4.88355C20 4.73022 19.936 4.58922 19.808 4.46055C19.68 4.33189 19.5387 4.26789 19.384 4.26855H4.616C4.462 4.26855 4.32067 4.33255 4.192 4.46055C4.06333 4.58855 3.99933 4.72989 4 4.88455V12.6536C4 12.8069 4.064 12.9479 4.192 13.0766C4.32 13.2052 4.461 13.2692 4.615 13.2686H7.621C7.613 13.4352 7.61433 13.6019 7.625 13.7686C7.63567 13.9352 7.65633 14.1019 7.687 14.2686L4.616 14.2696ZM16.498 7.76955C16.7747 7.76955 17.011 7.67222 17.207 7.47755C17.403 7.28289 17.5007 7.04755 17.5 6.77155C17.4993 6.49555 17.4023 6.25889 17.209 6.06155C17.0157 5.86422 16.78 5.76655 16.502 5.76855C16.224 5.77055 15.9877 5.86755 15.793 6.05955C15.5983 6.25155 15.5007 6.48722 15.5 6.76655C15.4993 7.04589 15.5963 7.28222 15.791 7.47555C15.9857 7.66889 16.2213 7.76755 16.498 7.76955ZM6 21.7306V20.3226C6 19.9319 6.108 19.5666 6.324 19.2266C6.54 18.8866 6.83133 18.6366 7.198 18.4766C7.96333 18.1319 8.746 17.8699 9.546 17.6906C10.346 17.5112 11.164 17.4219 12 17.4226C12.836 17.4232 13.654 17.5126 14.454 17.6906C15.254 17.8686 16.0367 18.1306 16.802 18.4766C17.1687 18.6366 17.46 18.8849 17.676 19.2216C17.892 19.5589 18 19.9239 18 20.3166V21.7306H6ZM7 20.7306H17V20.3226C17 20.1226 16.9417 19.9392 16.825 19.7726C16.7083 19.6059 16.5583 19.4809 16.375 19.3976C15.675 19.0809 14.9583 18.8392 14.225 18.6726C13.4917 18.5059 12.75 18.4226 12 18.4226C11.25 18.4226 10.5083 18.5059 9.775 18.6726C9.04167 18.8392 8.325 19.0809 7.625 19.3976C7.44167 19.4809 7.29167 19.6059 7.175 19.7726C7.05833 19.9392 7 20.1226 7 20.3226V20.7306ZM12 16.0376C11.3027 16.0376 10.7117 15.7952 10.227 15.3106C9.74233 14.8266 9.5 14.2356 9.5 13.5376C9.5 12.8396 9.74233 12.2486 10.227 11.7646C10.7117 11.2806 11.3027 11.0382 12 11.0376C12.6973 11.0369 13.2883 11.2792 13.773 11.7646C14.2577 12.2499 14.5 12.8409 14.5 13.5376C14.5 14.2342 14.2577 14.8252 13.773 15.3106C13.2883 15.7959 12.6973 16.0382 12 16.0376ZM12 15.0376C12.4167 15.0376 12.771 14.8919 13.063 14.6006C13.355 14.3092 13.5007 13.9549 13.5 13.5376C13.4993 13.1202 13.3537 12.7662 13.063 12.4756C12.7723 12.1849 12.418 12.0389 12 12.0376C11.582 12.0362 11.228 12.1822 10.938 12.4756C10.648 12.7689 10.502 13.1229 10.5 13.5376C10.498 13.9522 10.644 14.3066 10.938 14.6006C11.232 14.8946 11.586 15.0402 12 15.0376Z" fill="#FFC000"/>
</svg>
