<svg width="24" height="24" viewBox="0 0 24 24" fill="none" xmlns="http://www.w3.org/2000/svg">
<path d="M18.0004 5.538C18.0004 4.688 18.6724 4 19.5004 4C20.3284 4 21.0004 4.689 21.0004 5.538C21.0004 5.845 20.9134 6.13 20.7624 6.37C20.3144 7.084 19.5004 7.766 19.5004 8.615V9M19.5004 11H19.5094M6.18037 15.296C4.92237 16.034 1.62537 17.539 3.63337 19.422C4.61437 20.342 5.70737 21 7.08137 21H14.9194C16.2934 21 17.3864 20.342 18.3664 19.422C20.3754 17.539 17.0784 16.033 15.8204 15.296C14.3559 14.447 12.6932 13.9998 11.0004 13.9998C9.30758 13.9998 7.64483 14.447 6.18037 15.296ZM15.0004 7C15.0004 8.06087 14.5789 9.07828 13.8288 9.82843C13.0786 10.5786 12.0612 11 11.0004 11C9.9395 11 8.92209 10.5786 8.17194 9.82843C7.42179 9.07828 7.00037 8.06087 7.00037 7C7.00037 5.93913 7.42179 4.92172 8.17194 4.17157C8.92209 3.42143 9.9395 3 11.0004 3C12.0612 3 13.0786 3.42143 13.8288 4.17157C14.5789 4.92172 15.0004 5.93913 15.0004 7Z" stroke="#FFC000" stroke-width="1.5" stroke-linecap="round" stroke-linejoin="round"/>
</svg>
