<svg width="117" height="116" viewBox="0 0 117 116" fill="none" xmlns="http://www.w3.org/2000/svg">
<rect x="0.5" width="116" height="116" rx="58" fill="#FFC000"/>
<path d="M49.5326 52.0558V52.0506M43.5974 60.2966C42.5899 60.48 41.5333 60.564 40.4716 60.564C36.9479 60.564 32.0215 57.6487 32.0215 52.1397C32.0215 49.5654 33.2447 46.9718 35.1628 45.2125C35.6084 42.376 37.9037 38.3667 44.8736 38.3667C46.3809 38.3667 47.8044 38.6199 49.0805 39.0552C50.451 36.7495 53.9708 34.7539 57.7205 34.7539C61.4495 34.7539 64.0238 36.1399 65.2884 37.8268" stroke="#161616" stroke-width="2" stroke-linecap="round" stroke-linejoin="round"/>
<path d="M77.2702 43.8613C76.2123 40.9279 74.0152 38.5164 71.0547 37.5709C67.624 36.473 61.5777 37.5128 58.6392 45.2343C56.6461 50.4708 57.2778 55.7317 61.4279 57.6486C62.8875 58.3241 65.454 58.3641 68.1213 57.8074C68.9609 58.7568 70.6116 59.7527 73.5799 60.879C77.1191 62.2211 81.047 61.5636 82.9496 54.5589C84.0928 50.3519 82.2521 45.5831 77.2702 43.8613Z" stroke="#161616" stroke-width="2" stroke-linecap="round" stroke-linejoin="round"/>
<path d="M82.2837 56.5728C84.1592 58.9197 85.1615 62.3594 84.9523 65.5434C84.7004 69.2569 82.1687 72.0185 77.9928 72.5235C77.2069 72.6197 76.4134 72.6387 75.6238 72.5804C72.4567 72.3556 68.2446 70.3329 66.4323 67.003C66.1216 66.447 65.887 65.8518 65.7348 65.2334C64.7945 67.0611 63.4344 68.4471 61.8004 69.3564C60.1936 70.2541 58.3233 70.6894 56.3328 70.6325C54.9209 70.585 53.5249 70.3192 52.1943 69.8446C47.4926 68.2055 43.876 64.3447 43.597 60.2953C43.5189 59.2256 43.6841 58.1521 44.0801 57.1553C44.9726 54.9013 47.016 53.0116 49.5309 52.0558V52.0506C52.0109 51.1103 54.9468 51.0728 57.6981 52.4808" stroke="#161616" stroke-width="2" stroke-linecap="round" stroke-linejoin="round"/>
<path d="M56.332 70.6323C57.0037 72.3128 58.0758 74.3614 59.1259 76.1C61.1642 79.4712 63.3019 81.8711 64.7989 81.0987C65.4757 80.7525 66.0169 79.3872 66.1009 77.659C67.6263 78.0745 69.1996 78.2881 70.7806 78.2945C73.9956 78.2945 77.1098 75.3327 77.992 72.5233" stroke="#161616" stroke-width="2" stroke-linecap="round" stroke-linejoin="round"/>
</svg>
