<svg width="24" height="25" viewBox="0 0 24 25" fill="none" xmlns="http://www.w3.org/2000/svg">
<path d="M14 2.5H10C6.72 2.5 5.081 2.5 3.919 3.314C3.48904 3.61507 3.11507 3.98904 2.814 4.419C2 5.58 2 7.22 2 10.5C2 13.78 2 15.419 2.814 16.581C3.11507 17.011 3.48904 17.3849 3.919 17.686C5.08 18.5 6.72 18.5 10 18.5H14C17.28 18.5 18.919 18.5 20.081 17.686C20.511 17.3849 20.8849 17.011 21.186 16.581C22 15.42 22 13.78 22 10.5" stroke="#FFC000" stroke-width="1.5" stroke-linecap="round" stroke-linejoin="round"/>
<path d="M14.656 22.5001L14.236 22.0811C13.7755 21.6208 13.4716 21.0271 13.3675 20.3843C13.2634 19.7415 13.3643 19.0823 13.656 18.5001M9 22.5001L9.42 22.0811C9.88052 21.6208 10.1844 21.0271 10.2885 20.3843C10.3926 19.7415 10.2917 19.0823 10 18.5001M7 22.5001H17M8 10.5001H15M18.83 3.25411C19.128 2.93111 19.277 2.77012 19.435 2.67612C19.6219 2.56404 19.835 2.50318 20.0528 2.49967C20.2707 2.49616 20.4856 2.55012 20.676 2.65611C20.837 2.74611 20.991 2.90312 21.298 3.21712C21.605 3.53112 21.758 3.68712 21.846 3.85212C22.058 4.24912 22.051 4.73011 21.828 5.12011C21.736 5.28211 21.578 5.43411 21.262 5.73911L17.5 9.36212C16.901 9.93912 16.602 10.2271 16.227 10.3731C15.853 10.5201 15.441 10.5091 14.618 10.4871L14.506 10.4851C14.256 10.4781 14.13 10.4751 14.057 10.3921C13.985 10.3091 13.995 10.1821 14.014 9.92611L14.025 9.78812C14.081 9.06912 14.109 8.71011 14.249 8.38811C14.389 8.06411 14.632 7.80211 15.116 7.27811L18.83 3.25411Z" stroke="#FFC000" stroke-width="1.5" stroke-linecap="round" stroke-linejoin="round"/>
</svg>
