<svg width="20" height="21" viewBox="0 0 20 21" fill="none" xmlns="http://www.w3.org/2000/svg">
<g clip-path="url(#clip0_250_24873)">
<path d="M13.5717 2.64258H15.7146C16.0934 2.64258 16.4568 2.79309 16.7247 3.061C16.9926 3.32891 17.1431 3.69227 17.1431 4.07115V18.3569C17.1431 18.7357 16.9926 19.0991 16.7247 19.367C16.4568 19.6349 16.0934 19.7854 15.7146 19.7854H4.28599C3.90711 19.7854 3.54375 19.6349 3.27584 19.367C3.00793 19.0991 2.85742 18.7357 2.85742 18.3569V4.07115C2.85742 3.69227 3.00793 3.32891 3.27584 3.061C3.54375 2.79309 3.90711 2.64258 4.28599 2.64258H6.42885" stroke="#FBBD00" stroke-linecap="round" stroke-linejoin="round"/>
<path d="M10.647 13.1182L14.2184 16.6896M14.2213 13.1182L10.6498 16.6896M12.1441 1.21387H7.85839C7.47951 1.21387 7.11615 1.36438 6.84824 1.63229C6.58033 1.9002 6.42982 2.26356 6.42982 2.64244V3.35672C6.42982 3.7356 6.58033 4.09897 6.84824 4.36688C7.11615 4.63479 7.47951 4.7853 7.85839 4.7853H12.1441C12.523 4.7853 12.8864 4.63479 13.1543 4.36688C13.4222 4.09897 13.5727 3.7356 13.5727 3.35672V2.64244C13.5727 2.26356 13.4222 1.9002 13.1543 1.63229C12.8864 1.36438 12.523 1.21387 12.1441 1.21387ZM5.78125 9.36101C5.78125 9.83461 5.96939 10.2888 6.30427 10.6237C6.63916 10.9586 7.09336 11.1467 7.56696 11.1467C8.04057 11.1467 8.49477 10.9586 8.82966 10.6237C9.16454 10.2888 9.35268 9.83461 9.35268 9.36101C9.35268 8.88741 9.16454 8.43321 8.82966 8.09832C8.49477 7.76343 8.04057 7.5753 7.56696 7.5753C7.09336 7.5753 6.63916 7.76343 6.30427 8.09832C5.96939 8.43321 5.78125 8.88741 5.78125 9.36101Z" stroke="#FBBD00" stroke-linecap="round" stroke-linejoin="round"/>
</g>
<defs>
<clipPath id="clip0_250_24873">
<rect width="20" height="20" fill="white" transform="translate(0 0.5)"/>
</clipPath>
</defs>
</svg>
