<svg width="69" height="69" viewBox="0 0 69 69" fill="none" xmlns="http://www.w3.org/2000/svg">
<path d="M17.5008 12.3992C17.5008 11.9484 17.6799 11.5159 17.9987 11.1971C18.3175 10.8783 18.7499 10.6992 19.2008 10.6992H29.4008C29.8517 10.6992 30.2841 10.8783 30.6029 11.1971C30.9217 11.5159 31.1008 11.9484 31.1008 12.3992V22.5992C31.1008 23.0501 30.9217 23.4825 30.6029 23.8013C30.2841 24.1201 29.8517 24.2992 29.4008 24.2992H19.2008C18.7499 24.2992 18.3175 24.1201 17.9987 23.8013C17.6799 23.4825 17.5008 23.0501 17.5008 22.5992V12.3992ZM39.6008 10.6992C39.1499 10.6992 38.7175 10.8783 38.3987 11.1971C38.0799 11.5159 37.9008 11.9484 37.9008 12.3992V22.5992C37.9008 23.0501 38.0799 23.4825 38.3987 23.8013C38.7175 24.1201 39.1499 24.2992 39.6008 24.2992H49.8008C50.2517 24.2992 50.6841 24.1201 51.0029 23.8013C51.3217 23.4825 51.5008 23.0501 51.5008 22.5992V12.3992C51.5008 11.9484 51.3217 11.5159 51.0029 11.1971C50.6841 10.8783 50.2517 10.6992 49.8008 10.6992H39.6008ZM41.3008 20.8992V14.0992H48.1008V20.8992H41.3008ZM7.30078 41.2992C7.30078 37.6923 8.73363 34.2331 11.2841 31.6826C13.8346 29.1321 17.2938 27.6992 20.9008 27.6992H48.1008C52.8268 27.6992 56.985 30.1064 59.4228 33.7614C56.2329 31.8405 52.5398 30.9214 48.8216 31.123C48.5817 31.1066 48.3413 31.0987 48.1008 31.0992H20.9008C18.1956 31.0992 15.6012 32.1739 13.6883 34.0867C11.7754 35.9996 10.7008 38.594 10.7008 41.2992C10.7008 44.0044 11.7754 46.5988 13.6883 48.5117C15.6012 50.4246 18.1956 51.4992 20.9008 51.4992H31.1756C31.2821 52.6688 31.4918 53.8022 31.8046 54.8992H20.9008C17.2938 54.8992 13.8346 53.4664 11.2841 50.9159C8.73363 48.3654 7.30078 44.9062 7.30078 41.2992ZM34.5008 37.8992C34.775 37.8992 35.0414 37.931 35.2998 37.9944C33.9083 39.6993 32.8287 41.6364 32.1106 43.7166C31.6314 43.2427 31.3038 42.637 31.1696 41.9765C31.0353 41.316 31.1004 40.6305 31.3565 40.0071C31.6127 39.3836 32.0483 38.8504 32.6082 38.4751C33.168 38.0998 33.8268 37.8993 34.5008 37.8992ZM20.9008 44.6992C21.8025 44.6992 22.6673 44.341 23.3049 43.7034C23.9426 43.0658 24.3008 42.201 24.3008 41.2992C24.3008 40.3975 23.9426 39.5327 23.3049 38.8951C22.6673 38.2574 21.8025 37.8992 20.9008 37.8992C19.999 37.8992 19.1342 38.2574 18.4966 38.8951C17.859 39.5327 17.5008 40.3975 17.5008 41.2992C17.5008 42.201 17.859 43.0658 18.4966 43.7034C19.1342 44.341 19.999 44.6992 20.9008 44.6992ZM65.1008 49.7992C65.1008 53.857 63.4888 57.7486 60.6195 60.618C57.7502 63.4873 53.8586 65.0992 49.8008 65.0992C45.743 65.0992 41.8514 63.4873 38.982 60.618C36.1127 57.7486 34.5008 53.857 34.5008 49.7992C34.5008 45.7414 36.1127 41.8498 38.982 38.9805C41.8514 36.1112 45.743 34.4992 49.8008 34.4992C53.8586 34.4992 57.7502 36.1112 60.6195 38.9805C63.4888 41.8498 65.1008 45.7414 65.1008 49.7992ZM55.3972 43.4956L46.4008 52.4954L44.2044 50.2956C43.8852 49.9764 43.4522 49.7971 43.0008 49.7971C42.5493 49.7971 42.1164 49.9764 41.7972 50.2956C41.478 50.6148 41.2986 51.0478 41.2986 51.4992C41.2986 51.9507 41.478 52.3836 41.7972 52.7028L45.1972 56.1028C45.3551 56.2611 45.5427 56.3867 45.7492 56.4724C45.9558 56.5581 46.1772 56.6023 46.4008 56.6023C46.6244 56.6023 46.8458 56.5581 47.0523 56.4724C47.2589 56.3867 47.4465 56.2611 47.6044 56.1028L57.8044 45.9028C58.1236 45.5836 58.3029 45.1507 58.3029 44.6992C58.3029 44.2478 58.1236 43.8148 57.8044 43.4956C57.4852 43.1764 57.0522 42.9971 56.6008 42.9971C56.1493 42.9971 55.7164 43.1764 55.3972 43.4956Z" fill="#FFC000"/>
</svg>
