<svg width="16" height="17" viewBox="0 0 16 17" fill="none" xmlns="http://www.w3.org/2000/svg">
<path d="M8 2.5C9.18669 2.5 10.3467 2.85189 11.3334 3.51118C12.3201 4.17047 13.0892 5.10754 13.5433 6.2039C13.9974 7.30026 14.1162 8.50666 13.8847 9.67054C13.6532 10.8344 13.0818 11.9035 12.2426 12.7426C11.4035 13.5818 10.3344 14.1532 9.17054 14.3847C8.00666 14.6162 6.80026 14.4974 5.7039 14.0433C4.60755 13.5892 3.67047 12.8201 3.01119 11.8334C2.3519 10.8467 2 9.68669 2 8.5C2 6.9087 2.63214 5.38258 3.75736 4.25736C4.88258 3.13214 6.4087 2.5 8 2.5ZM8 1.5C6.61553 1.5 5.26216 1.91054 4.11101 2.67971C2.95987 3.44888 2.06266 4.54213 1.53285 5.82122C1.00303 7.1003 0.86441 8.50776 1.13451 9.86563C1.4046 11.2235 2.07129 12.4708 3.05026 13.4497C4.02922 14.4287 5.2765 15.0954 6.63437 15.3655C7.99224 15.6356 9.3997 15.497 10.6788 14.9672C11.9579 14.4373 13.0511 13.5401 13.8203 12.389C14.5895 11.2378 15 9.88447 15 8.5C15 6.64348 14.2625 4.86301 12.9497 3.55025C11.637 2.2375 9.85652 1.5 8 1.5Z" fill="#FFC000"/>
<path d="M8 6.5C8.39556 6.5 8.78224 6.6173 9.11114 6.83706C9.44004 7.05682 9.69638 7.36918 9.84776 7.73463C9.99914 8.10009 10.0387 8.50222 9.96157 8.89018C9.8844 9.27814 9.69392 9.63451 9.41421 9.91421C9.13451 10.1939 8.77814 10.3844 8.39018 10.4616C8.00222 10.5387 7.60009 10.4991 7.23463 10.3478C6.86918 10.1964 6.55682 9.94004 6.33706 9.61114C6.1173 9.28224 6 8.89556 6 8.5C6 7.96957 6.21071 7.46086 6.58579 7.08579C6.96086 6.71071 7.46957 6.5 8 6.5ZM8 5.5C7.40666 5.5 6.82664 5.67595 6.33329 6.00559C5.83994 6.33524 5.45543 6.80377 5.22836 7.35195C5.0013 7.90013 4.94189 8.50333 5.05765 9.08527C5.1734 9.66721 5.45912 10.2018 5.87868 10.6213C6.29824 11.0409 6.83279 11.3266 7.41473 11.4424C7.99667 11.5581 8.59987 11.4987 9.14805 11.2716C9.69623 11.0446 10.1648 10.6601 10.4944 10.1667C10.8241 9.67336 11 9.09334 11 8.5C11 7.70435 10.6839 6.94129 10.1213 6.37868C9.55871 5.81607 8.79565 5.5 8 5.5Z" fill="#FFC000"/>
</svg>
