<svg width="25" height="23" viewBox="0 0 25 23" fill="none" xmlns="http://www.w3.org/2000/svg">
<path d="M1 1.18359L0.999999 22.6971" stroke="#FAFAFA" stroke-width="0.496465" stroke-linecap="round"/>
<path d="M19.0183 12.161C18.8698 12.0204 18.6685 11.9414 18.4586 11.9414C18.2486 11.9414 18.0473 12.0204 17.8988 12.161L16.6369 13.3565C16.0519 13.1915 14.9602 12.8165 14.2683 12.161C13.5763 11.5055 13.1805 10.4712 13.0063 9.917L14.2683 8.7215C14.4167 8.58085 14.5001 8.39012 14.5001 8.19125C14.5001 7.99237 14.4167 7.80164 14.2683 7.661L11.1016 4.661C10.9531 4.52039 10.7518 4.44141 10.5419 4.44141C10.332 4.44141 10.1306 4.52039 9.98218 4.661L7.83518 6.695C7.53435 6.98 7.36493 7.3715 7.37127 7.77125C7.38947 8.83925 7.68793 12.5487 10.7738 15.4722C13.8598 18.3957 17.7753 18.6777 18.9035 18.6957H18.9256C19.3436 18.6957 19.7387 18.5397 20.0379 18.2562L22.1849 16.2222C22.3333 16.0816 22.4167 15.8909 22.4167 15.692C22.4167 15.4931 22.3333 15.3024 22.1849 15.1617L19.0183 12.161ZM18.9177 17.195C17.9297 17.1792 14.5493 16.928 11.8933 14.411C9.22852 11.8865 8.97043 8.67275 8.9546 7.7555L10.5419 6.25175L12.5891 8.19125L11.5655 9.161C11.4725 9.24908 11.404 9.35775 11.3665 9.47717C11.3289 9.59659 11.3233 9.72301 11.3502 9.845C11.3692 9.93125 11.8339 11.9765 13.1481 13.2215C14.4622 14.4665 16.6211 14.9067 16.7121 14.9247C16.8408 14.951 16.9744 14.9462 17.1006 14.9107C17.2268 14.8752 17.3415 14.8101 17.4341 14.7215L18.4586 13.7517L20.5058 15.6912L18.9177 17.195Z" fill="#FAFAFA"/>
</svg>
