<svg width="20" height="21" viewBox="0 0 20 21" fill="none" xmlns="http://www.w3.org/2000/svg">
<path d="M4.704 2.78115C4.74972 2.68227 4.7619 2.57117 4.73869 2.46474C4.71547 2.35831 4.65814 2.26237 4.5754 2.19151C4.49266 2.12066 4.38904 2.07876 4.2803 2.0722C4.17157 2.06563 4.06366 2.09476 3.973 2.15515L3.971 2.15615L3.968 2.15814L3.959 2.16415L3.929 2.18415L3.827 2.25915C3.71385 2.34488 3.60378 2.4346 3.497 2.52815C3.245 2.74815 2.92 3.07515 2.689 3.46515C2.48709 3.78833 2.32524 4.13488 2.207 4.49715C2.087 4.85615 2 5.24515 2 5.57115C2 6.42415 2.316 7.15114 2.809 7.59715L2.745 7.67114C2.465 8.01514 2.302 8.46114 2.2 8.90114C2 9.77114 2 10.8171 2 11.5461V11.5711C2 14.3581 2.379 15.9391 2.796 16.8431C3.006 17.2981 3.229 17.5881 3.422 17.7701C3.519 17.8621 3.607 17.9251 3.68 17.9681C3.72261 17.9938 3.76706 18.0161 3.813 18.0351C3.813 18.0351 3.926 18.0711 4 18.0711C4.074 18.0711 4.187 18.0351 4.187 18.0351C4.23294 18.0161 4.27739 17.9938 4.32 17.9681C4.41292 17.9117 4.49943 17.8453 4.578 17.7701C4.771 17.5871 4.994 17.2981 5.204 16.8431C5.621 15.9391 6 14.3581 6 11.5711V11.5461C6 10.8161 6 9.77114 5.8 8.90114C5.698 8.46114 5.535 8.01514 5.255 7.67114L5.191 7.59715C5.684 7.15114 6 6.42415 6 5.57115C6 4.87415 5.859 4.39514 5.604 4.01215C5.49054 3.84766 5.35979 3.6958 5.214 3.55914L5.044 3.39915C4.983 3.34215 4.927 3.29014 4.854 3.21714C4.704 3.06714 4.687 2.94715 4.687 2.88415C4.6866 2.84908 4.69236 2.81422 4.704 2.78115ZM5 5.57115C5 6.64115 4.386 7.07015 4.002 7.07115H4C3.615 7.07115 3 6.64315 3 5.57115C3 5.39814 3.052 5.12415 3.156 4.81415C3.25053 4.52139 3.38121 4.24156 3.545 3.98115C3.632 3.83415 3.745 3.69115 3.867 3.56015C3.935 3.68281 4.02833 3.80448 4.147 3.92515C4.22 3.99815 4.315 4.08615 4.396 4.16215L4.52 4.27814C4.625 4.38014 4.706 4.46915 4.771 4.56815C4.891 4.74715 5 5.01815 5 5.57115ZM3.175 9.12615C3.261 8.75215 3.379 8.47615 3.52 8.30315C3.57485 8.22857 3.64703 8.16847 3.73031 8.12804C3.8136 8.08762 3.90547 8.06809 3.998 8.07115H4C4.21 8.07115 4.354 8.14915 4.48 8.30315C4.621 8.47615 4.74 8.75215 4.825 9.12615C4.998 9.87415 5 10.8141 5 11.5711C5 14.2841 4.629 15.7031 4.296 16.4241C4.186 16.6611 4.083 16.8191 4 16.9241C3.88145 16.7701 3.78205 16.6022 3.704 16.4241C3.371 15.7031 3 14.2841 3 11.5711C3 10.8141 3.002 9.87415 3.175 9.12615ZM9 13.0711C8.285 13.0711 7.604 12.9211 6.99 12.6511C7.00333 12.2951 7.01 11.9251 7.01 11.5411C7.61571 11.8885 8.30178 12.0712 9 12.0711V10.0711C9 9.54071 9.21071 9.032 9.58579 8.65693C9.96086 8.28186 10.4696 8.07115 11 8.07115H13C13.0001 7.36087 12.8111 6.66337 12.4523 6.05034C12.0936 5.43731 11.5781 4.93086 10.9588 4.58303C10.3395 4.23521 9.63879 4.05856 8.92863 4.07123C8.21846 4.0839 7.52448 4.28544 6.918 4.65515C6.85565 4.31959 6.74163 3.99574 6.58 3.69515C7.34127 3.27409 8.19922 3.05894 9.06908 3.07096C9.93895 3.08298 10.7906 3.32175 11.54 3.76368C12.2893 4.20561 12.9104 4.8354 13.3418 5.59084C13.7732 6.34627 14.0001 7.2012 14 8.07115H16C16.5304 8.07115 17.0391 8.28186 17.4142 8.65693C17.7893 9.032 18 9.54071 18 10.0711V15.0711C18 15.6016 17.7893 16.1103 17.4142 16.4854C17.0391 16.8604 16.5304 17.0711 16 17.0711H11C10.4696 17.0711 9.96086 16.8604 9.58579 16.4854C9.21071 16.1103 9 15.6016 9 15.0711V13.0711ZM13.9 9.07115C13.7028 10.0315 13.2282 10.9129 12.535 11.6061C11.8417 12.2994 10.9603 12.774 10 12.9711V15.0711C10 15.3364 10.1054 15.5907 10.2929 15.7783C10.4804 15.9658 10.7348 16.0711 11 16.0711H16C16.2652 16.0711 16.5196 15.9658 16.7071 15.7783C16.8946 15.5907 17 15.3364 17 15.0711V10.0711C17 9.80593 16.8946 9.55157 16.7071 9.36404C16.5196 9.1765 16.2652 9.07115 16 9.07115H13.9ZM12.874 9.07115H11C10.7348 9.07115 10.4804 9.1765 10.2929 9.36404C10.1054 9.55157 10 9.80593 10 10.0711V11.9451C10.6917 11.7656 11.3228 11.4045 11.8281 10.8992C12.3334 10.394 12.6945 9.76282 12.874 9.07115Z" fill="#FFC000"/>
</svg>
