<svg width="117" height="116" viewBox="0 0 117 116" fill="none" xmlns="http://www.w3.org/2000/svg">
<rect x="0.5" width="116" height="116" rx="58" fill="#FFC000"/>
<path d="M50.7577 42.5001C50.7577 40.4467 51.5734 38.4774 53.0254 37.0255C54.4774 35.5735 56.4466 34.7578 58.5 34.7578C60.5534 34.7578 62.5226 35.5735 63.9746 37.0255C65.4265 38.4774 66.2423 40.4467 66.2423 42.5001C66.2423 44.5534 65.4265 46.5227 63.9746 47.9747C62.5226 49.4266 60.5534 50.2423 58.5 50.2423C56.4466 50.2423 54.4774 49.4266 53.0254 47.9747C51.5734 46.5227 50.7577 44.5534 50.7577 42.5001ZM58.5 38.6328C57.9921 38.6328 57.4893 38.7328 57.0201 38.9272C56.5509 39.1215 56.1245 39.4064 55.7654 39.7655C55.4063 40.1246 55.1215 40.5509 54.9271 41.0201C54.7328 41.4893 54.6327 41.9922 54.6327 42.5001C54.6327 43.0079 54.7328 43.5108 54.9271 43.98C55.1215 44.4492 55.4063 44.8755 55.7654 45.2346C56.1245 45.5937 56.5509 45.8786 57.0201 46.0729C57.4893 46.2673 57.9921 46.3673 58.5 46.3673C59.5257 46.3673 60.5093 45.9599 61.2346 45.2346C61.9598 44.5094 62.3673 43.5257 62.3673 42.5001C62.3673 41.4744 61.9598 40.4908 61.2346 39.7655C60.5093 39.0403 59.5257 38.6328 58.5 38.6328ZM70.125 44.4376C70.125 43.6743 70.2753 42.9184 70.5675 42.2132C70.8596 41.508 71.2877 40.8672 71.8274 40.3275C72.3672 39.7878 73.0079 39.3596 73.7132 39.0675C74.4184 38.7754 75.1742 38.6251 75.9375 38.6251C76.7008 38.6251 77.4566 38.7754 78.1618 39.0675C78.8671 39.3596 79.5078 39.7878 80.0476 40.3275C80.5873 40.8672 81.0154 41.508 81.3075 42.2132C81.5997 42.9184 81.75 43.6743 81.75 44.4376C81.75 45.9791 81.1376 47.4576 80.0476 48.5476C78.9575 49.6377 77.4791 50.2501 75.9375 50.2501C74.3959 50.2501 72.9175 49.6377 71.8274 48.5476C70.7374 47.4576 70.125 45.9791 70.125 44.4376ZM75.9375 42.5001C75.4236 42.5001 74.9308 42.7042 74.5675 43.0675C74.2041 43.4309 74 43.9237 74 44.4376C74 44.9514 74.2041 45.4442 74.5675 45.8076C74.9308 46.1709 75.4236 46.3751 75.9375 46.3751C76.4514 46.3751 76.9442 46.1709 77.3075 45.8076C77.6709 45.4442 77.875 44.9514 77.875 44.4376C77.875 43.9237 77.6709 43.4309 77.3075 43.0675C76.9442 42.7042 76.4514 42.5001 75.9375 42.5001ZM41.0625 38.6251C39.5209 38.6251 38.0425 39.2374 36.9524 40.3275C35.8624 41.4176 35.25 42.896 35.25 44.4376C35.25 45.9791 35.8624 47.4576 36.9524 48.5476C38.0425 49.6377 39.5209 50.2501 41.0625 50.2501C42.6041 50.2501 44.0825 49.6377 45.1726 48.5476C46.2626 47.4576 46.875 45.9791 46.875 44.4376C46.875 42.896 46.2626 41.4176 45.1726 40.3275C44.0825 39.2374 42.6041 38.6251 41.0625 38.6251ZM39.125 44.4376C39.125 43.9237 39.3291 43.4309 39.6925 43.0675C40.0558 42.7042 40.5486 42.5001 41.0625 42.5001C41.5764 42.5001 42.0692 42.7042 42.4325 43.0675C42.7959 43.4309 43 43.9237 43 44.4376C43 44.9514 42.7959 45.4442 42.4325 45.8076C42.0692 46.1709 41.5764 46.3751 41.0625 46.3751C40.5486 46.3751 40.0558 46.1709 39.6925 45.8076C39.3291 45.4442 39.125 44.9514 39.125 44.4376ZM44.0385 54.1251C43.3582 55.3032 43.0001 56.6396 43 58.0001H35.25V67.6876C35.2497 68.6514 35.4891 69.6002 35.9466 70.4486C36.4041 71.2969 37.0654 72.0182 37.871 72.5474C38.6766 73.0766 39.6011 73.3972 40.5614 73.4803C41.5216 73.5634 42.4875 73.4064 43.372 73.0234C43.6588 74.3061 44.1083 75.5306 44.6895 76.6737C43.2188 77.2675 41.6248 77.4911 40.0475 77.325C38.4701 77.1588 36.9577 76.6079 35.6431 75.7206C34.3284 74.8333 33.2517 73.6368 32.5076 72.2362C31.7634 70.8355 31.3745 69.2736 31.375 67.6876V58.0001C31.375 56.9724 31.7833 55.9867 32.51 55.26C33.2367 54.5333 34.2223 54.1251 35.25 54.1251H44.0385ZM72.3105 76.6737C73.7812 77.2675 75.3752 77.4911 76.9525 77.325C78.5299 77.1588 80.0423 76.6079 81.3569 75.7206C82.6716 74.8333 83.7483 73.6368 84.4924 72.2362C85.2366 70.8355 85.6255 69.2736 85.625 67.6876V58.0001C85.625 56.9724 85.2167 55.9867 84.49 55.26C83.7633 54.5333 82.7777 54.1251 81.75 54.1251H72.9615C73.6203 55.2643 74 56.5857 74 58.0001H81.75V67.6876C81.7503 68.6514 81.5109 69.6002 81.0534 70.4486C80.5959 71.2969 79.9346 72.0182 79.129 72.5474C78.3234 73.0766 77.3989 73.3972 76.4386 73.4803C75.4784 73.5634 74.5125 73.4064 73.628 73.0234C73.3335 74.3099 72.8943 75.5267 72.3105 76.6737ZM50.75 54.1212C49.7223 54.1212 48.7367 54.5294 48.01 55.2561C47.2833 55.9829 46.875 56.9685 46.875 57.9962V69.6251C46.875 72.7082 48.0998 75.6651 50.2799 77.8452C52.46 80.0253 55.4169 81.2501 58.5 81.2501C61.5831 81.2501 64.54 80.0253 66.7201 77.8452C68.9002 75.6651 70.125 72.7082 70.125 69.6251V58.0001C70.125 56.9724 69.7167 55.9867 68.99 55.26C68.2633 54.5333 67.2777 54.1251 66.25 54.1251L50.75 54.1212ZM50.75 57.9962H66.25V69.6251C66.25 71.6805 65.4335 73.6517 63.9801 75.1051C62.5267 76.5585 60.5554 77.3751 58.5 77.3751C56.4446 77.3751 54.4733 76.5585 53.0199 75.1051C51.5665 73.6517 50.75 71.6805 50.75 69.6251V57.9962Z" fill="#161616"/>
</svg>
