<svg width="10" height="16" viewBox="0 0 10 16" fill="none" xmlns="http://www.w3.org/2000/svg">
<path d="M6.35138 3.0897L4.60509 6.16417C4.53641 6.28517 4.56915 6.43851 4.67897 6.52437C6.9376 8.28982 8.10685 9.88676 7.10891 11.2641C4.95131 14.2467 1.6652 10.0689 3.69182 6.09229L3.72057 6.04437C3.73974 6.00284 3.7621 5.96131 3.78446 5.91978C3.78766 5.9102 3.79085 5.907 3.79405 5.89742C3.79724 5.89742 3.79724 5.90061 3.80044 5.90061L5.82066 2.30142C5.81747 2.30142 5.81747 2.29822 5.81427 2.29822C5.83983 2.25669 5.86539 2.21516 5.89414 2.17044L5.89734 2.16405C6.12815 1.80145 6.46958 1.30868 6.81101 0.818294C6.88129 0.717262 6.80861 0.578295 6.68522 0.578295H5.33108C5.27757 0.578295 5.22925 0.604251 5.2017 0.649775C4.04802 2.53743 2.22387 5.52125 2.17674 5.61589C1.60769 6.66773 1.16004 7.78307 0.875717 8.94673C-1.04548 16.8643 7.46991 17.6314 9.66904 10.6375C10.7556 7.17449 9.00016 4.84477 6.77347 3.00984C6.6393 2.89962 6.43723 2.93876 6.35138 3.0897Z" fill="#FFC000"/>
</svg>
