<svg width="69" height="69" viewBox="0 0 69 69" fill="none" xmlns="http://www.w3.org/2000/svg">
<path d="M38.8639 6.16797H30.1373C18.3903 6.16797 12.5224 6.16797 9.03744 9.82297C5.55244 13.478 5.92077 19.2551 6.65177 30.8066L7.16177 38.8391C7.32894 41.494 7.4111 42.82 7.71144 43.9278C8.28841 46.0343 9.44339 47.9372 11.0457 49.4213C12.648 50.9055 14.6337 51.9116 16.7781 52.3258C17.9199 52.5496 19.2686 52.5496 21.9659 52.5496C22.6799 52.5496 23.0369 52.5496 23.3316 52.6091C24.4791 52.8443 25.3744 53.7283 25.6124 54.8588C25.6748 55.1506 25.6748 55.502 25.6748 56.2046V58.7263C25.6748 61.112 25.6748 62.3048 26.4511 62.7128C27.2274 63.1208 28.2361 62.4635 30.2478 61.1403L42.2243 53.2693C42.4513 53.1074 42.6899 52.9625 42.9383 52.8358C43.2098 52.7046 43.5006 52.6175 43.7996 52.578C44.0036 52.5496 44.2161 52.5496 44.6354 52.5496C49.5824 52.5496 52.0588 52.5496 54.0619 51.8045C55.5059 51.2714 56.8306 50.4587 57.96 49.4129C59.0894 48.3671 60.0014 47.1088 60.6438 45.71C61.5221 43.7833 61.6751 41.3523 61.9839 36.4846L62.3438 30.8038C63.0776 19.2551 63.4431 13.4808 59.9581 9.82297C56.4759 6.16797 50.6081 6.16797 38.8668 6.16797" stroke="#FFC000" stroke-width="4.25" stroke-linecap="round" stroke-linejoin="round"/>
<path d="M45.8333 23.1693L49.3098 26.1641C50.769 27.4249 51.5 28.0539 51.5 28.8359C51.5 29.6179 50.769 30.2469 49.3098 31.5078L45.8333 34.5026M23.1667 23.1693L19.6902 26.1641C18.231 27.4249 17.5 28.0539 17.5 28.8359C17.5 29.6179 18.231 30.2469 19.6902 31.5078L23.1667 34.5026M37.3333 20.3359L31.6667 37.3359" stroke="#FFC000" stroke-width="4.25" stroke-linecap="round" stroke-linejoin="round"/>
</svg>
