<svg width="25" height="25" viewBox="0 0 25 25" fill="none" xmlns="http://www.w3.org/2000/svg">
<path d="M10.6549 15.2728L10.6459 15.2518C10.5107 15.2148 10.3766 15.1738 10.2439 15.1288L10.2339 15.1248C8.85246 14.6522 7.65339 13.7594 6.80453 12.5714C5.95566 11.3835 5.49951 9.95985 5.49991 8.4998C5.49946 6.7079 6.18621 4.98407 7.4187 3.68336C8.65118 2.38265 10.3356 1.60411 12.1249 1.50811C13.9142 1.41211 15.6722 2.00595 17.0368 3.16732C18.4014 4.32869 19.2686 5.96914 19.4599 7.7508C19.5039 8.1628 19.1639 8.4998 18.7499 8.4998C18.3359 8.4998 18.0049 8.1618 17.9499 7.7518C17.8169 6.78406 17.4286 5.86921 16.8249 5.10124C16.2212 4.33328 15.424 3.73991 14.515 3.38212C13.6061 3.02433 12.6183 2.91503 11.6531 3.06545C10.6879 3.21586 9.78018 3.62057 9.02321 4.23798C8.26624 4.85539 7.68733 5.66323 7.34597 6.57847C7.00461 7.49371 6.91311 8.48334 7.08089 9.44565C7.24866 10.408 7.66965 11.3083 8.30059 12.054C8.93153 12.7997 9.74967 13.364 10.6709 13.6888C10.8565 13.2693 11.1806 12.9264 11.589 12.7175C11.9973 12.5085 12.4651 12.4463 12.9138 12.5413C13.3626 12.6362 13.7651 12.8825 14.0538 13.2389C14.3426 13.5953 14.5001 14.0401 14.4999 14.4988C14.4999 15.0968 14.2379 15.6328 13.8229 15.9988C13.4577 16.3214 12.9872 16.4995 12.4999 16.4998C12.1054 16.5012 11.7193 16.3853 11.3908 16.1668C11.0623 15.9484 10.8062 15.6372 10.6549 15.2728ZM8.49691 15.9998C7.75987 15.6059 7.08494 15.1056 6.49391 14.5148C5.94605 14.5785 5.44068 14.8413 5.07381 15.2531C4.70694 15.665 4.50413 16.1972 4.50391 16.7488V17.3268C4.50391 18.2188 4.82191 19.0828 5.40191 19.7618C6.96791 21.5958 9.35391 22.5018 12.4999 22.5018C15.6459 22.5018 18.0329 21.5958 19.6019 19.7618C20.1833 19.0825 20.5028 18.2179 20.5029 17.3238V16.7488C20.5029 16.1524 20.2661 15.5804 19.8446 15.1585C19.4231 14.7366 18.8513 14.4993 18.2549 14.4988H15.9999C15.9999 15.0368 15.8799 15.5448 15.6629 15.9988H18.2549C18.4535 15.9993 18.6437 16.0786 18.7839 16.2192C18.9242 16.3598 19.0029 16.5502 19.0029 16.7488V17.3238C19.0031 17.8602 18.8116 18.3791 18.4629 18.7868C17.2059 20.2548 15.2389 21.0008 12.4999 21.0008C9.76091 21.0008 7.79591 20.2548 6.54291 18.7878C6.19448 18.3804 6.00298 17.8619 6.00291 17.3258V16.7488C6.00291 16.5499 6.08192 16.3591 6.22258 16.2185C6.36323 16.0778 6.55399 15.9988 6.75291 15.9988L8.49691 15.9998ZM8.49991 8.4998C8.50009 7.80985 8.67873 7.13167 9.01848 6.53117C9.35822 5.93067 9.84752 5.42826 10.4388 5.07274C11.0301 4.71723 11.7033 4.52072 12.393 4.50228C13.0827 4.48385 13.7655 4.64413 14.3749 4.96755C14.9844 5.29097 15.4998 5.76653 15.8712 6.34803C16.2425 6.92953 16.4571 7.59719 16.4941 8.28615C16.5312 8.9751 16.3894 9.66192 16.0825 10.2799C15.7757 10.8978 15.3142 11.4259 14.7429 11.8128C14.1135 11.2875 13.3197 10.9997 12.4999 10.9998C13.1629 10.9998 13.7988 10.7364 14.2677 10.2676C14.7365 9.79872 14.9999 9.16284 14.9999 8.4998C14.9999 7.83675 14.7365 7.20087 14.2677 6.73203C13.7988 6.26319 13.1629 5.9998 12.4999 5.9998C11.8369 5.9998 11.201 6.26319 10.7321 6.73203C10.2633 7.20087 9.99991 7.83675 9.99991 8.4998C9.99991 9.16284 10.2633 9.79872 10.7321 10.2676C11.201 10.7364 11.8369 10.9998 12.4999 10.9998C11.6459 10.9998 10.8639 11.3058 10.2579 11.8128C9.7158 11.4469 9.27193 10.9534 8.96538 10.3757C8.65882 9.79802 8.49897 9.1538 8.49991 8.4998Z" fill="#FFC000"/>
</svg>
