<svg width="25" height="24" viewBox="0 0 25 24" fill="none" xmlns="http://www.w3.org/2000/svg">
<path d="M4.5 8C4.5 5.172 4.5 3.757 5.379 2.879C6.257 2 7.672 2 10.5 2H14.5C17.328 2 18.743 2 19.621 2.879C20.5 3.757 20.5 5.172 20.5 8V16C20.5 18.828 20.5 20.243 19.621 21.121C18.743 22 17.328 22 14.5 22H10.5C7.672 22 6.257 22 5.379 21.121C4.5 20.243 4.5 18.828 4.5 16V8Z" stroke="#FFC000" stroke-width="1.5"/>
<path d="M20.398 16H8.398C7.468 16 7.003 16 6.621 16.102C6.11231 16.2384 5.64849 16.5063 5.27618 16.8788C4.90386 17.2513 4.63616 17.7152 4.5 18.224" stroke="#FFC000" stroke-width="1.5"/>
<path d="M8.5 7H16.5M8.5 10.5H13.5" stroke="#FFC000" stroke-width="1.5" stroke-linecap="round"/>
</svg>
