<svg width="16" height="17" viewBox="0 0 16 17" fill="none" xmlns="http://www.w3.org/2000/svg">
<path d="M10 6.86491L13.0353 5.34758C13.1369 5.2968 13.2499 5.27283 13.3633 5.27794C13.4768 5.28305 13.5871 5.31707 13.6837 5.37678C13.7804 5.43648 13.8602 5.51989 13.9155 5.61909C13.9709 5.71829 13.9999 5.82998 14 5.94358V10.4529C13.9999 10.5665 13.9709 10.6782 13.9155 10.7774C13.8602 10.8766 13.7804 10.96 13.6837 11.0197C13.5871 11.0794 13.4768 11.1134 13.3633 11.1185C13.2499 11.1237 13.1369 11.0997 13.0353 11.0489L10 9.53158V6.86491ZM2 5.53158C2 5.17795 2.14048 4.83881 2.39052 4.58877C2.64057 4.33872 2.97971 4.19824 3.33333 4.19824H8.66667C9.02029 4.19824 9.35943 4.33872 9.60948 4.58877C9.85952 4.83881 10 5.17795 10 5.53158V10.8649C10 11.2185 9.85952 11.5577 9.60948 11.8077C9.35943 12.0578 9.02029 12.1982 8.66667 12.1982H3.33333C2.97971 12.1982 2.64057 12.0578 2.39052 11.8077C2.14048 11.5577 2 11.2185 2 10.8649V5.53158Z" stroke="#FFC000" stroke-width="1.33333" stroke-linecap="round" stroke-linejoin="round"/>
</svg>
