<svg width="29" height="29" viewBox="0 0 29 29" fill="none" xmlns="http://www.w3.org/2000/svg">
<path d="M15.4999 11.7791C15.4999 11.5801 15.5789 11.3894 15.7196 11.2487C15.8602 11.1081 16.051 11.0291 16.2499 11.0291H21.7499C21.9488 11.0291 22.1396 11.1081 22.2802 11.2487C22.4209 11.3894 22.4999 11.5801 22.4999 11.7791C22.4999 11.978 22.4209 12.1687 22.2802 12.3094C22.1396 12.45 21.9488 12.5291 21.7499 12.5291H16.2499C16.051 12.5291 15.8602 12.45 15.7196 12.3094C15.5789 12.1687 15.4999 11.978 15.4999 11.7791ZM16.2499 15.0291C16.051 15.0291 15.8602 15.1081 15.7196 15.2487C15.5789 15.3894 15.4999 15.5801 15.4999 15.7791C15.4999 15.978 15.5789 16.1687 15.7196 16.3094C15.8602 16.45 16.051 16.5291 16.2499 16.5291H21.7499C21.9488 16.5291 22.1396 16.45 22.2802 16.3094C22.4209 16.1687 22.4999 15.978 22.4999 15.7791C22.4999 15.5801 22.4209 15.3894 22.2802 15.2487C22.1396 15.1081 21.9488 15.0291 21.7499 15.0291H16.2499ZM11.7499 11.7791C11.7499 12.2432 11.5655 12.6883 11.2373 13.0165C10.9092 13.3447 10.464 13.5291 9.99991 13.5291C9.53578 13.5291 9.09066 13.3447 8.76247 13.0165C8.43428 12.6883 8.24991 12.2432 8.24991 11.7791C8.24991 11.3149 8.43428 10.8698 8.76247 10.5416C9.09066 10.2134 9.53578 10.0291 9.99991 10.0291C10.464 10.0291 10.9092 10.2134 11.2373 10.5416C11.5655 10.8698 11.7499 11.3149 11.7499 11.7791ZM7.49991 14.5291H12.4999C12.7651 14.5291 13.0195 14.6344 13.207 14.8219C13.3945 15.0095 13.4999 15.2638 13.4999 15.5291V16.0291C13.4999 16.0291 12.9999 18.5291 9.99991 18.5291C6.99991 18.5291 6.49991 16.0291 6.49991 16.0291V15.5291C6.49991 15.2638 6.60526 15.0095 6.7928 14.8219C6.98034 14.6344 7.23469 14.5291 7.49991 14.5291ZM2.50391 6.77905C2.50391 6.04971 2.79364 5.35023 3.30936 4.83451C3.82509 4.31878 4.52456 4.02905 5.25391 4.02905H23.7499C24.4793 4.02905 25.1787 4.31878 25.6945 4.83451C26.2102 5.35023 26.4999 6.04971 26.4999 6.77905V21.2791C26.4999 22.0084 26.2102 22.7079 25.6945 23.2236C25.1787 23.7393 24.4793 24.0291 23.7499 24.0291H5.25491C4.52556 24.0291 3.82609 23.7393 3.31036 23.2236C2.79464 22.7079 2.50491 22.0084 2.50491 21.2791L2.50391 6.77905ZM5.25391 5.52905C4.56391 5.52905 4.00391 6.08905 4.00391 6.77905V21.2791C4.00391 21.9691 4.56391 22.5291 5.25391 22.5291H23.7499C24.4399 22.5291 24.9999 21.9691 24.9999 21.2791V6.77905C24.9999 6.08905 24.4399 5.52905 23.7499 5.52905H5.25391Z" fill="#FFC000"/>
</svg>
