<svg width="24" height="25" viewBox="0 0 24 25" fill="none" xmlns="http://www.w3.org/2000/svg">
<path d="M4 4.5C3.73478 4.5 3.48043 4.60536 3.29289 4.79289C3.10536 4.98043 3 5.23478 3 5.5C3 5.76522 3.10536 6.01957 3.29289 6.20711C3.48043 6.39464 3.73478 6.5 4 6.5H12C12.2652 6.5 12.5196 6.39464 12.7071 6.20711C12.8946 6.01957 13 5.76522 13 5.5C13 5.23478 12.8946 4.98043 12.7071 4.79289C12.5196 4.60536 12.2652 4.5 12 4.5H4ZM20.837 6.106C20.969 5.849 20.775 5.55 20.457 5.523L19.892 5.481L19.428 5.455L18.901 5.435L18.316 5.424H17.706L17.151 5.434L16.647 5.452L15.997 5.488L15.487 5.528C15.191 5.554 15.026 5.826 15.155 6.08L15.305 6.369L15.495 6.715L15.723 7.113C15.763 7.183 15.806 7.25533 15.852 7.33L16.14 7.797L16.462 8.293L16.772 8.748L16.92 8.956L17.194 9.331L17.436 9.649L17.642 9.91C17.825 10.136 18.172 10.145 18.346 9.93L18.672 9.515L18.935 9.165L19.227 8.757C19.3803 8.53967 19.5403 8.303 19.707 8.047L19.863 7.804L20.145 7.347L20.389 6.931L20.497 6.741L20.685 6.396L20.837 6.106ZM20.837 16.106C20.969 15.848 20.775 15.55 20.457 15.523L19.892 15.48L19.428 15.455L18.901 15.435L18.316 15.424H17.706L17.151 15.434L16.647 15.452L16.199 15.475L15.641 15.515L15.487 15.527C15.191 15.554 15.026 15.826 15.155 16.08L15.305 16.368L15.495 16.714L15.723 17.113C15.763 17.183 15.806 17.2553 15.852 17.33L16.14 17.797L16.3 18.045C16.4093 18.215 16.516 18.3757 16.62 18.527L16.92 18.956L17.194 19.331L17.436 19.649L17.642 19.909C17.825 20.136 18.172 20.145 18.346 19.93L18.672 19.515L18.935 19.165L19.227 18.757C19.3803 18.5397 19.5403 18.303 19.707 18.047L20.008 17.571L20.272 17.134C20.3533 16.9947 20.4283 16.8633 20.497 16.74L20.685 16.396L20.837 16.106ZM3 12.5C3 12.2348 3.10536 11.9804 3.29289 11.7929C3.48043 11.6054 3.73478 11.5 4 11.5H12C12.2652 11.5 12.5196 11.6054 12.7071 11.7929C12.8946 11.9804 13 12.2348 13 12.5C13 12.7652 12.8946 13.0196 12.7071 13.2071C12.5196 13.3946 12.2652 13.5 12 13.5H4C3.73478 13.5 3.48043 13.3946 3.29289 13.2071C3.10536 13.0196 3 12.7652 3 12.5ZM4 18.5C3.73478 18.5 3.48043 18.6054 3.29289 18.7929C3.10536 18.9804 3 19.2348 3 19.5C3 19.7652 3.10536 20.0196 3.29289 20.2071C3.48043 20.3946 3.73478 20.5 4 20.5H12C12.2652 20.5 12.5196 20.3946 12.7071 20.2071C12.8946 20.0196 13 19.7652 13 19.5C13 19.2348 12.8946 18.9804 12.7071 18.7929C12.5196 18.6054 12.2652 18.5 12 18.5H4Z" fill="#FFC000"/>
</svg>
