<svg width="25" height="23" viewBox="0 0 25 23" fill="none" xmlns="http://www.w3.org/2000/svg">
<path d="M1 1.18359L0.999999 22.6971" stroke="#F5F5F5" stroke-width="0.496465" stroke-linecap="round"/>
<path d="M8.95898 6.39844H19.2507C19.8805 6.39844 20.4846 6.64866 20.93 7.09406C21.3754 7.53946 21.6257 8.14355 21.6257 8.77344V15.8984C21.6257 16.5283 21.3754 17.1324 20.93 17.5778C20.4846 18.0232 19.8805 18.2734 19.2507 18.2734H8.95898C8.3291 18.2734 7.725 18.0232 7.27961 17.5778C6.83421 17.1324 6.58398 16.5283 6.58398 15.8984V8.77344C6.58398 8.14355 6.83421 7.53946 7.27961 7.09406C7.725 6.64866 8.3291 6.39844 8.95898 6.39844ZM8.95898 7.1901C8.56315 7.1901 8.21482 7.32469 7.94565 7.56219L14.1048 11.5443L20.264 7.56219C19.9948 7.32469 19.6465 7.1901 19.2507 7.1901H8.95898ZM14.1048 12.5022L7.47857 8.20344C7.41523 8.3776 7.37565 8.57552 7.37565 8.77344V15.8984C7.37565 16.3184 7.54247 16.7211 7.8394 17.018C8.13633 17.315 8.53906 17.4818 8.95898 17.4818H19.2507C19.6706 17.4818 20.0733 17.315 20.3702 17.018C20.6672 16.7211 20.834 16.3184 20.834 15.8984V8.77344C20.834 8.57552 20.7944 8.3776 20.7311 8.20344L14.1048 12.5022Z" fill="#F5F5F5"/>
</svg>
