<svg width="52" height="52" viewBox="0 0 52 52" fill="none" xmlns="http://www.w3.org/2000/svg">
<path d="M13 23.4997L6.5 19.7925V12.376L13 8.66667L19.5 12.376V19.7925L13 23.4997ZM13 21.0167L17.3333 18.551V13.6175L13 11.1497L8.66667 13.6175V18.551L13 21.0167ZM35.2517 23.6795V21.1835L41.1667 24.6263V38.5428L29.25 45.5L17.3333 38.5407V24.6263L23.2483 21.1835V23.6795L19.5 25.8678V37.3057L29.25 42.9607L39 37.3057V25.8657L35.2517 23.6795ZM28.1667 30.3333V6.5H45.5L41.9163 11.9167L45.5 17.3333H30.3333V30.3333H28.1667Z" fill="#FFC000"/>
</svg>
