<svg width="53" height="52" viewBox="0 0 53 52" fill="none" xmlns="http://www.w3.org/2000/svg">
<path d="M26.5007 23.832C29.3738 23.832 32.1293 24.9734 34.161 27.0051C36.1926 29.0367 37.334 31.7922 37.334 34.6654V47.6654H33.0007V34.6654C33.0008 33.0074 32.3673 31.4121 31.2299 30.2058C30.0925 28.9995 28.5371 28.2735 26.882 28.1762L26.5007 28.1654C24.8427 28.1653 23.2474 28.7987 22.0411 29.9362C20.8348 31.0736 20.1088 32.6289 20.0115 34.284L20.0007 34.6654V47.6654H15.6673V34.6654C15.6673 31.7922 16.8087 29.0367 18.8403 27.0051C20.872 24.9734 23.6275 23.832 26.5007 23.832ZM12.4173 30.332C13.024 30.3335 13.609 30.4014 14.1723 30.5357C13.8032 31.6389 13.5839 32.7867 13.5202 33.9482L13.5007 34.6654V34.8517C13.2516 34.7628 12.9925 34.7046 12.7293 34.6784L12.4173 34.6654C11.6097 34.6654 10.8311 34.966 10.2331 35.5087C9.63508 36.0515 9.26055 36.7974 9.18249 37.6012L9.16732 37.9154V47.6654H4.83398V37.9154C4.83398 35.9042 5.63294 33.9753 7.05509 32.5532C8.47724 31.131 10.4061 30.332 12.4173 30.332ZM40.584 30.332C42.5952 30.332 44.5241 31.131 45.9462 32.5532C47.3684 33.9753 48.1673 35.9042 48.1673 37.9154V47.6654H43.834V37.9154C43.834 37.1078 43.5334 36.3292 42.9906 35.7311C42.4479 35.1331 41.702 34.7586 40.8982 34.6805L40.584 34.6654C40.2027 34.6668 39.8416 34.7282 39.5007 34.8495V34.6654C39.5007 33.2224 39.2667 31.8357 38.8333 30.54C39.3923 30.4035 39.9817 30.332 40.584 30.332ZM12.4173 17.332C13.8539 17.332 15.2317 17.9027 16.2475 18.9185C17.2633 19.9344 17.834 21.3121 17.834 22.7487C17.834 24.1853 17.2633 25.563 16.2475 26.5789C15.2317 27.5947 13.8539 28.1654 12.4173 28.1654C10.9807 28.1654 9.60298 27.5947 8.58716 26.5789C7.57134 25.563 7.00065 24.1853 7.00065 22.7487C7.00065 21.3121 7.57134 19.9344 8.58716 18.9185C9.60298 17.9027 10.9807 17.332 12.4173 17.332ZM40.584 17.332C42.0206 17.332 43.3983 17.9027 44.4142 18.9185C45.43 19.9344 46.0007 21.3121 46.0007 22.7487C46.0007 24.1853 45.43 25.563 44.4142 26.5789C43.3983 27.5947 42.0206 28.1654 40.584 28.1654C39.1474 28.1654 37.7697 27.5947 36.7538 26.5789C35.738 25.563 35.1673 24.1853 35.1673 22.7487C35.1673 21.3121 35.738 19.9344 36.7538 18.9185C37.7697 17.9027 39.1474 17.332 40.584 17.332ZM12.4173 21.6654C12.13 21.6654 11.8545 21.7795 11.6513 21.9827C11.4481 22.1858 11.334 22.4614 11.334 22.7487C11.334 23.036 11.4481 23.3116 11.6513 23.5147C11.8545 23.7179 12.13 23.832 12.4173 23.832C12.7046 23.832 12.9802 23.7179 13.1834 23.5147C13.3865 23.3116 13.5007 23.036 13.5007 22.7487C13.5007 22.4614 13.3865 22.1858 13.1834 21.9827C12.9802 21.7795 12.7046 21.6654 12.4173 21.6654ZM40.584 21.6654C40.2967 21.6654 40.0211 21.7795 39.818 21.9827C39.6148 22.1858 39.5007 22.4614 39.5007 22.7487C39.5007 23.036 39.6148 23.3116 39.818 23.5147C40.0211 23.7179 40.2967 23.832 40.584 23.832C40.8713 23.832 41.1469 23.7179 41.35 23.5147C41.5532 23.3116 41.6673 23.036 41.6673 22.7487C41.6673 22.4614 41.5532 22.1858 41.35 21.9827C41.1469 21.7795 40.8713 21.6654 40.584 21.6654ZM26.5007 4.33203C28.7992 4.33203 31.0036 5.24512 32.6289 6.87044C34.2542 8.49576 35.1673 10.7002 35.1673 12.9987C35.1673 15.2972 34.2542 17.5016 32.6289 19.127C31.0036 20.7523 28.7992 21.6654 26.5007 21.6654C24.2021 21.6654 21.9977 20.7523 20.3724 19.127C18.7471 17.5016 17.834 15.2972 17.834 12.9987C17.834 10.7002 18.7471 8.49576 20.3724 6.87044C21.9977 5.24512 24.2021 4.33203 26.5007 4.33203ZM26.5007 8.66537C25.3514 8.66537 24.2492 9.12191 23.4365 9.93457C22.6239 10.7472 22.1673 11.8494 22.1673 12.9987C22.1673 14.148 22.6239 15.2502 23.4365 16.0628C24.2492 16.8755 25.3514 17.332 26.5007 17.332C27.6499 17.332 28.7521 16.8755 29.5648 16.0628C30.3774 15.2502 30.834 14.148 30.834 12.9987C30.834 11.8494 30.3774 10.7472 29.5648 9.93457C28.7521 9.12191 27.6499 8.66537 26.5007 8.66537Z" fill="#FFC000"/>
</svg>
