<svg width="24" height="25" viewBox="0 0 24 25" fill="none" xmlns="http://www.w3.org/2000/svg">
<path fill-rule="evenodd" clip-rule="evenodd" d="M11 2.4834C12.933 2.4834 14.5 4.05038 14.5 5.98337C14.5 7.85195 13.0358 9.37852 11.1921 9.47818L11 9.48338C9.06705 9.48338 7.50002 7.9164 7.50002 5.98337C7.50002 4.11484 8.9643 2.58821 10.808 2.48855L11 2.4834ZM4 20.4834H12.8027C12.4449 19.8652 12.2012 19.1878 12.083 18.4834H6.00002V16.8834L6.00522 16.6892C6.10164 14.8909 7.52936 13.4834 9.25 13.4834H12.75L12.9332 13.4887C13.1117 13.4992 13.2866 13.5248 13.4567 13.5643C13.9623 12.9784 14.5761 12.4955 15.2645 12.1419C14.5178 11.722 13.661 11.4834 12.75 11.4834H9.25L9.03362 11.4879C6.23448 11.6046 4 13.9756 4 16.8834V20.4834ZM9.50003 5.98337C9.50003 5.15495 10.1716 4.48337 11 4.48337C11.8285 4.48337 12.5 5.15495 12.5 5.98337C12.5 6.81179 11.8285 7.48337 11 7.48337C10.1716 7.48337 9.50003 6.81179 9.50003 5.98337ZM15.0611 21.5285L18 19.7334L20.9389 21.5285L20.1399 18.1786L22.7553 15.9383L19.3225 15.6631L18 12.4834L16.6775 15.6631L13.2447 15.9383L15.8601 18.1786L15.0611 21.5285Z" fill="#FFC000"/>
</svg>
