<svg width="1136" height="597" viewBox="0 0 1136 597" fill="none" xmlns="http://www.w3.org/2000/svg">
<path d="M1110.29 439.718L1087.88 440.197L1076.5 440.385C1072.69 440.47 1068.87 440.385 1065.06 440.487H1064.31V439.718L1064.2 420.552V419.698H1065.06L1087.67 419.8C1095.22 419.8 1102.76 419.988 1110.29 420.074H1110.77V420.552C1110.77 423.798 1110.63 427.026 1110.55 430.221L1110.29 439.718ZM1110.29 439.718L1110.05 430.067C1109.97 426.889 1109.86 423.746 1109.83 420.603L1110.29 421.081C1102.76 421.167 1095.22 421.355 1087.67 421.355L1065.06 421.457L1065.91 420.603V439.718L1065.14 438.967C1068.87 438.967 1072.59 438.967 1076.33 439.052L1087.45 439.343L1110.29 439.718Z" fill="#EBEBEB"/>
<path d="M1085.06 463.824L1062.65 464.303L1051.25 464.491C1047.46 464.491 1043.64 464.491 1039.83 464.593H1039.07V463.824V444.709V443.855H1039.93L1062.55 443.975C1070.08 443.975 1077.63 444.162 1085.16 444.248H1085.64V444.709C1085.64 447.955 1085.5 451.183 1085.42 454.378L1085.06 463.824ZM1085.06 463.824L1084.82 454.173C1084.74 450.995 1084.63 447.852 1084.6 444.709L1085.06 445.187C1077.53 445.273 1069.98 445.461 1062.44 445.461L1039.83 445.563L1040.68 444.709V463.824L1039.91 463.073C1043.64 463.073 1047.36 463.073 1051.1 463.158L1062.32 463.363L1085.06 463.824Z" fill="#EBEBEB"/>
<path d="M1135.52 463.824L1113.11 464.303L1101.73 464.491C1097.92 464.491 1094.1 464.491 1090.29 464.593H1089.54V463.824L1089.43 444.709V443.855H1090.29L1112.9 443.975C1120.46 443.975 1127.99 444.162 1135.52 444.248H1136V444.709C1136 447.955 1135.85 451.183 1135.78 454.378L1135.52 463.824ZM1135.52 463.824L1135.28 454.173C1135.28 450.995 1135.1 447.852 1135.06 444.709L1135.52 445.187C1127.99 445.273 1120.46 445.461 1112.9 445.461L1090.29 445.563L1091.14 444.709V463.824L1090.37 463.073C1094.11 463.073 1097.82 463.073 1101.56 463.158L1112.8 463.363L1135.52 463.824Z" fill="#EBEBEB"/>
<path d="M465.294 212.266L442.881 212.745L431.504 212.932C427.695 212.932 423.869 212.932 420.059 212.932H419.308V212.164L419.205 193.048V192.194H420.059L442.676 192.297C450.227 192.297 457.76 192.485 465.294 192.57H465.772V193.031C465.772 196.277 465.618 199.489 465.533 202.683L465.294 212.266ZM465.294 212.266L465.054 202.598C465.054 199.42 464.866 196.277 464.832 193.151L465.294 193.612C457.76 193.612 450.227 193.885 442.676 193.885L420.059 194.005L420.913 193.151L420.828 212.266L420.059 211.497C423.783 211.497 427.507 211.497 431.248 211.6L442.488 211.788L465.294 212.266Z" fill="#EBEBEB"/>
<path d="M440.027 236.368L417.615 236.846L406.221 237.034C402.428 237.034 398.602 237.034 394.793 237.119H394.041V236.351L393.904 217.27V216.416H394.758L417.376 216.518C424.909 216.518 432.459 216.706 439.993 216.791H440.471V217.27C440.471 220.515 440.334 223.727 440.249 226.921L440.027 236.368ZM440.027 236.368L439.788 226.699C439.702 223.522 439.6 220.379 439.566 217.253L440.027 217.714C432.494 217.799 424.943 217.987 417.41 217.987L394.793 218.107L395.647 217.253L395.613 236.368L394.844 235.599C398.568 235.599 402.292 235.599 406.033 235.702L417.256 235.89L440.027 236.368Z" fill="#EBEBEB"/>
<path d="M490.522 236.368L468.11 236.846L456.733 237.034C452.924 237.034 449.114 237.034 445.288 237.119H444.536V236.351L444.434 217.27V216.416H445.288L467.905 216.518C475.455 216.518 482.989 216.706 490.522 216.791H491V217.27C491 220.515 490.847 223.727 490.778 226.921L490.522 236.368ZM490.522 236.368L490.283 226.699C490.283 223.522 490.095 220.379 490.061 217.253L490.522 217.714C482.989 217.799 475.455 217.987 467.905 217.987L445.288 218.107L446.142 217.253L446.056 236.368L445.288 235.599C449.029 235.599 452.736 235.599 456.477 235.702L467.717 235.89L490.522 236.368Z" fill="#EBEBEB"/>
<path d="M96.4645 338.745L74.0523 339.223L62.6583 339.411C58.866 339.411 55.0396 339.411 51.2302 339.496H50.5469V338.728V319.612V318.758H51.401L74.0182 318.861C81.5515 318.861 89.102 319.049 96.6354 319.134H97.1137V319.595C97.1137 322.841 96.977 326.053 96.8916 329.247L96.4645 338.745ZM96.4645 338.745L96.2254 329.076C96.2254 325.899 96.0375 322.756 96.0033 319.629L96.4645 320.091C88.9312 320.176 81.3807 320.364 73.8473 320.364L51.2302 320.484L52.0843 319.629L51.9989 338.745L51.2302 337.976C54.9542 337.976 58.6781 337.976 62.4192 338.079L73.6424 338.266L96.4645 338.745Z" fill="#EBEBEB"/>
<path d="M846.35 212.249L823.938 212.727L812.561 212.915C808.752 213.001 804.925 212.915 801.116 213.001H800.364V212.232L800.262 193.117V192.262H801.116L823.733 192.365C831.283 192.365 838.817 192.57 846.35 192.655H846.829V193.117C846.829 196.362 846.692 199.591 846.606 202.768L846.35 212.249ZM846.35 212.249L846.111 202.597C846.026 199.403 845.923 196.26 845.889 193.134L846.35 193.595C838.817 193.68 831.283 193.868 823.733 193.885L801.116 193.988L801.97 193.134L801.885 212.249L801.116 211.48C804.84 211.48 808.564 211.48 812.305 211.583L823.545 211.771L846.35 212.249Z" fill="#EBEBEB"/>
<path d="M1107.68 26.5963L1085.27 27.0747L1073.87 27.2626C1070.08 27.2626 1066.25 27.2626 1062.44 27.3651H1061.69V26.5963V7.48108V6.62695H1062.55L1085.16 6.72945C1092.7 6.72945 1100.25 6.93444 1107.78 7.01985H1108.26V7.48108C1108.26 10.7267 1108.12 13.9553 1108.04 17.1327L1107.68 26.5963ZM1107.68 26.5963L1107.44 16.9448C1107.35 13.7503 1107.25 10.6072 1107.22 7.48108L1107.68 7.9423C1100.15 7.9423 1092.6 8.21563 1085.06 8.23271L1062.44 8.3352L1063.3 7.48108L1063.21 26.5963L1062.44 25.8276C1066.17 25.8276 1069.89 25.8276 1073.63 25.9301L1084.86 26.118L1107.68 26.5963Z" fill="#EBEBEB"/>
<path d="M1132.91 50.7006L1110.5 51.1789L1099.12 51.3668C1095.31 51.4522 1091.48 51.3668 1087.67 51.4522H1086.92V50.6835L1086.82 31.5682V30.7141H1087.67L1110.29 30.8166C1117.84 30.8166 1125.38 31.0216 1132.91 31.107H1133.39V31.5682C1133.39 34.8139 1133.23 38.0425 1133.15 41.2198L1132.91 50.7006ZM1132.91 50.7006L1132.67 41.049C1132.67 37.8546 1132.48 34.7114 1132.45 31.5853L1132.91 32.0465C1125.38 32.132 1117.84 32.3199 1110.29 32.3369L1087.67 32.4394L1088.53 31.5853V50.7006L1087.76 49.9319C1091.48 49.9319 1095.21 49.9319 1098.95 50.0344L1110.19 50.2223L1132.91 50.7006Z" fill="#EBEBEB"/>
<path d="M46.0031 26.6139L23.5738 27.0922L12.1969 27.2801C8.40457 27.2801 4.5781 27.2801 0.768712 27.3826H0V26.6139V7.49865V6.64453H0.871202L23.4884 6.76411C31.0217 6.76411 38.5551 6.95201 46.1056 7.03743H46.5668V7.49865C46.5668 10.7443 46.413 13.9729 46.3447 17.1673L46.0031 26.6139ZM46.0031 26.6139L45.7468 16.9623C45.7468 13.7679 45.5589 10.6247 45.5247 7.49865L46.0031 7.95988C38.4526 8.06238 30.9192 8.2332 23.3859 8.25028L0.768712 8.35278L1.62283 7.49865L1.52034 26.6139L0.768712 25.9477C4.49269 25.9477 8.19958 25.9477 11.9406 25.9477L23.1809 26.1356L46.0031 26.6139Z" fill="#EBEBEB"/>
<path d="M600.056 263.72C597.96 265.699 595.359 267.065 592.539 267.666C590.831 268.11 588.935 268.366 587.124 268.691H580.94C578.395 268.298 575.816 267.99 573.339 267.495C564.082 265.508 555.314 261.699 547.544 256.289C527.084 242.763 509.845 224.906 497.049 203.982C492.758 197.078 489.803 189.429 488.336 181.433C487.961 179.332 487.67 177.214 487.346 175.096V168.912C487.858 166.537 488.268 164.129 488.9 161.789C489.523 159.592 490.7 157.592 492.317 155.98C492.624 156.254 492.897 156.476 493.171 156.749C503.01 166.577 512.855 176.405 522.706 186.234C523.025 186.499 523.253 186.857 523.357 187.259C523.461 187.66 523.437 188.084 523.287 188.471C522.539 190.907 522.438 193.496 522.995 195.982C523.552 198.468 524.748 200.767 526.465 202.65C534.867 212.194 543.865 221.197 553.404 229.606C555.305 231.333 557.625 232.532 560.132 233.087C562.64 233.641 565.25 233.531 567.702 232.766C568.419 232.578 568.932 232.459 569.546 233.074C579.602 243.186 589.681 253.276 599.782 263.344C599.834 263.395 599.902 263.549 600.056 263.72Z" fill="#EBEBEB"/>
<path d="M619.392 241.631V243.681C618.501 244.965 617.537 246.197 616.505 247.371C613.465 250.531 610.322 253.589 607.23 256.681L606.273 257.586L575.9 227.231C579.881 223.302 583.844 219.287 587.944 215.375C588.388 214.963 588.91 214.644 589.48 214.437C590.05 214.23 590.656 214.14 591.261 214.172C591.867 214.204 592.46 214.357 593.005 214.623C593.55 214.888 594.036 215.26 594.435 215.717C596.724 217.938 598.945 220.21 601.268 222.448C606.546 227.743 611.859 233.004 617.086 238.334C617.94 239.371 618.711 240.473 619.392 241.631Z" fill="#EBEBEB"/>
<path d="M539.772 169.066C536.014 172.704 532.17 176.257 528.446 179.776L498.312 149.66C498.979 149.062 499.747 148.43 500.448 147.747C503.215 144.996 505.931 142.178 508.75 139.479C509.895 138.474 511.098 137.539 512.354 136.677H514.421C515.573 137.385 516.669 138.178 517.701 139.052C525.081 146.363 532.432 153.708 539.755 161.088C542.522 163.855 542.522 166.349 539.772 169.066Z" fill="#EBEBEB"/>
<path d="M34.7617 185.824H232.457V60.4045H34.7617V185.824Z" fill="#EBEBEB"/>
<path d="M269.442 185.824H232.459V147.303L269.442 185.824Z" fill="#EBEBEB"/>
<path d="M209.568 82.082H57.6367V84.4736H209.568V82.082Z" fill="white"/>
<path d="M136.165 94.9624H57.6367V97.3539H136.165V94.9624Z" fill="white"/>
<path d="M180.494 120.704H57.6367V123.095H180.494V120.704Z" fill="white"/>
<path d="M209.568 133.567H57.6367V135.958H209.568V133.567Z" fill="white"/>
<path d="M209.568 146.432H57.6367V148.823H209.568V146.432Z" fill="white"/>
<path d="M111.617 159.312H57.6367V161.704H111.617V159.312Z" fill="white"/>
<path d="M1101.53 235.909H903.832V346.518H1101.53V235.909Z" fill="#DBDBDB"/>
<path d="M866.85 346.536H903.833V308.015L866.85 346.536Z" fill="#DBDBDB"/>
<path d="M1059.44 293.665H927.168V296.057H1059.44V293.665Z" fill="white"/>
<path d="M1032.24 306.545H927.168V308.937H1032.24V306.545Z" fill="white"/>
<path d="M1040.17 267.922H927.168V270.313H1040.17V267.922Z" fill="white"/>
<path d="M1074.71 255.059H927.168V257.45H1074.71V255.059Z" fill="white"/>
<path d="M1043.14 319.408H927.168V321.8H1043.14V319.408Z" fill="white"/>
<path d="M1001.65 118.347H638.629V134.268H1001.65V118.347Z" fill="#EBEBEB"/>
<path d="M674.893 134.285H658.973V186.933H674.893V134.285Z" fill="#EBEBEB"/>
<path d="M674.893 134.285H658.973V150.564H674.893V134.285Z" fill="#DBDBDB"/>
<path d="M981.302 134.285H965.381V186.933H981.302V134.285Z" fill="#EBEBEB"/>
<path d="M981.302 134.285H965.381V150.564H981.302V134.285Z" fill="#DBDBDB"/>
<path d="M731.949 118.348V16.8955H706.394V118.348H731.949Z" fill="#C7C7C7"/>
<path d="M731.949 22.6165V11.4617L706.394 11.4617V22.6165H731.949Z" fill="#DBDBDB"/>
<path d="M731.932 41.049V36.915H706.376V41.049H731.932Z" fill="#DBDBDB"/>
<path d="M735.127 105.057V93.9019H706.394V105.057H735.127Z" fill="#DBDBDB"/>
<path d="M749.801 118.347V0L731.95 0V118.347H749.801Z" fill="#DBDBDB"/>
<path d="M746.162 56.6439V11.1191H735.451V56.6439H746.162Z" fill="#EBEBEB"/>
<path d="M876.772 105.704L792.607 22.5027L780.058 35.1979L864.222 118.399L876.772 105.704Z" fill="#C7C7C7"/>
<path d="M854.563 88.692L822.188 56.687L814.658 64.3041L847.033 96.3091L854.563 88.692Z" fill="#DBDBDB"/>
<path d="M780.104 118.383V28.4778L749.782 28.4778V118.383H780.104Z" fill="#A6A6A6"/>
<path d="M780.104 108.833V100.463H749.782V108.833H780.104Z" fill="#C7C7C7"/>
<path d="M780.104 94.9773V91.7317H749.782V94.9773H780.104Z" fill="#C7C7C7"/>
<path d="M706.393 118.38V33.8904H685.449V118.38H706.393Z" fill="#A6A6A6"/>
<path d="M706.393 109.412V101.537H685.449V109.412H706.393Z" fill="#C7C7C7"/>
<path d="M706.393 59.1748V51.2998H685.449V59.1748H706.393Z" fill="#C7C7C7"/>
<path d="M706.393 67.6293V64.5715H685.449V67.6293H706.393Z" fill="#C7C7C7"/>
<path d="M963.484 78.9877L961.212 85.0178L959.812 88.6906L957.523 94.7378L948.605 118.363H900.382L891.431 94.7378L889.141 88.6906L887.758 85.0178L885.469 78.9877L903.269 53.0395L894.044 35.9399H954.96L945.684 53.0395L963.484 78.9877Z" fill="#DBDBDB"/>
<path d="M963.484 78.9895L961.212 85.0196H887.758L885.469 78.9895H963.484Z" fill="#A6A6A6"/>
<path d="M959.811 88.6917L957.522 94.7388H891.43L889.141 88.6917H959.811Z" fill="#A6A6A6"/>
<path d="M22.9062 578.786L159.224 578.376L295.525 578.222L568.144 577.949L840.763 578.222L977.064 578.376L1113.38 578.786L977.064 579.213L840.763 579.367L568.144 579.64L295.525 579.367L159.224 579.213L22.9062 578.786Z" fill="#263238"/>
<path d="M553.352 578.754H762.885L721.118 335.722H564.421L553.352 578.754Z" fill="#DBDBDB"/>
<path d="M553.352 578.754H571.732L582.033 335.722H564.421L553.352 578.754Z" fill="#A6A6A6"/>
<path d="M735.416 383.364C759.126 436.32 816.421 524.209 842.062 502.429C880.412 469.87 906.377 397.85 916.627 368.725C922.383 352.411 839.277 325.113 834.187 339.924C826.944 360.969 815.584 404.956 809.007 411.192C805.591 414.454 778.361 376.241 757.76 358.116C728.019 331.997 727.848 366.453 735.416 383.364Z" fill="#AD6359"/>
<path d="M937.383 344.212C929.986 360.851 901.51 388.985 892.046 393.137C882.582 397.288 832.599 352.139 833.641 341.513C834.683 330.888 864.509 275.233 881.028 266.692C897.547 258.151 945.053 326.959 937.383 344.212Z" fill="#AD6359"/>
<path d="M837.552 329.83C837.552 329.83 838.748 306.154 832.769 286.133C827.747 269.307 818.403 244.896 827.337 241.855C845.718 235.62 869.018 296.519 869.018 296.519C869.018 296.519 874.997 325.047 857.351 332.836C846.281 337.722 837.552 329.83 837.552 329.83Z" fill="#AD6359"/>
<path d="M858.273 284.919C859.469 294.502 870.077 287.6 870.077 287.6C870.077 287.6 857.214 301.266 862.27 310.611C867.19 319.647 879.694 310.85 880.6 310.235C879.916 310.969 868.437 323.781 874.501 332.698C880.805 341.957 891.84 330.99 892.557 330.272C892.13 331.144 886.766 342.948 892.916 348.687C903.473 358.51 918.027 328.718 929.233 325.387C929.233 325.387 937.057 343.716 937.382 344.178C937.382 344.178 951.816 316.094 946.487 301.232C945.74 299.061 944.275 297.209 942.334 295.983C940.393 294.756 938.092 294.228 935.81 294.485C935.81 294.485 941.464 285.943 936.92 278.769C934.563 275.096 926.671 275.574 926.671 275.574C926.671 275.574 930.907 268.554 926.466 262.438C922.93 257.535 915.499 258.782 915.499 258.782C915.499 258.782 916.439 250.139 911.211 246.312C900.586 238.591 855.693 264.402 858.273 284.919Z" fill="#AD6359"/>
<path d="M914.219 258.835C914.373 258.75 914.219 258.528 914.133 258.579C897.29 263.465 880.293 273.953 869.463 287.91C869.104 288.371 869.685 289.14 870.18 288.713C884.171 276.499 897.41 266.813 914.219 258.835Z" fill="#263238"/>
<path d="M926.774 275.353C926.962 275.268 926.774 274.96 926.62 275.012C909.281 280.136 890.474 292.538 879.865 310.048C879.507 310.646 879.78 311.551 880.258 310.902C888.185 299.832 911.605 282.477 926.774 275.353Z" fill="#263238"/>
<path d="M892.233 331.725C903.046 315.326 918.027 304.035 935.093 294.656C935.298 294.537 935.093 294.246 934.905 294.298C925.304 296.604 915.055 303.71 907.573 309.928C900.492 315.553 895.013 322.94 891.686 331.349C891.532 331.725 892.011 332.101 892.233 331.725Z" fill="#263238"/>
<path d="M869.737 287.583C869.31 288.129 870.591 288.146 870.181 288.71C868.473 291.067 859.334 306.185 863.519 310.917C866.935 314.692 874.264 312.779 876.826 310.917L883.232 306.288L878.825 312.933C876.841 315.844 875.341 319.058 874.383 322.448C873.853 323.992 873.656 325.631 873.806 327.256C873.956 328.882 874.45 330.457 875.254 331.877C876.008 333.194 877.193 334.21 878.609 334.754C880.025 335.299 881.585 335.339 883.027 334.867C886.24 333.761 889.116 331.85 891.38 329.315L897.872 322.482L893.977 331.023C892.888 333.386 892.102 335.877 891.636 338.437C891.114 340.843 891.31 343.35 892.2 345.646C892.641 346.657 893.353 347.525 894.258 348.156C895.162 348.786 896.224 349.153 897.325 349.216C899.82 348.963 902.19 348.003 904.158 346.449C908.471 343.153 912.52 339.526 916.269 335.601C918.234 333.688 920.198 331.758 922.265 329.913C924.207 327.97 926.535 326.457 929.098 325.471C926.662 326.706 924.491 328.406 922.709 330.477C920.813 332.441 919.003 334.491 917.192 336.558C913.633 340.825 909.688 344.754 905.405 348.294C903.108 350.242 900.296 351.482 897.308 351.864C895.661 351.88 894.044 351.419 892.653 350.537C891.262 349.655 890.155 348.389 889.467 346.893C888.271 344.075 887.944 340.964 888.527 337.959C888.987 335.1 889.819 332.315 891.004 329.674L893.601 331.382C890.969 334.42 887.589 336.716 883.796 338.044C881.67 338.724 879.374 338.639 877.304 337.805C875.304 336.928 873.613 335.47 872.453 333.62C871.436 331.817 870.812 329.819 870.624 327.758C870.435 325.697 870.686 323.619 871.36 321.662C872.451 317.949 874.154 314.445 876.399 311.293L878.398 313.24C874.981 315.461 867.055 318.502 861.093 313.326C854.499 305.314 867.226 290.179 869.737 287.583Z" fill="#263238"/>
<path d="M870.076 287.601C868.23 288.338 866.284 288.793 864.303 288.951C863.507 289.033 862.704 288.901 861.977 288.567C861.25 288.234 860.625 287.711 860.169 287.055C859.364 285.474 859.037 283.693 859.229 281.93C859.332 279.983 859.537 277.95 859.844 275.849C858.543 277.565 857.623 279.539 857.145 281.64C856.816 282.773 856.715 283.96 856.847 285.133C856.979 286.306 857.342 287.441 857.914 288.473C858.661 289.545 859.715 290.367 860.937 290.83C862.114 291.214 863.374 291.262 864.576 290.967C866.718 290.452 868.643 289.275 870.076 287.601Z" fill="#263238"/>
<path d="M829.13 341.514L915.636 401.764C915.636 401.764 863.962 508.819 832.034 508.529C800.107 508.238 753.985 428.053 738.081 393.393C722.177 358.733 731.658 329.368 763.841 360.936C796.025 392.505 807.555 405.522 808.597 405.095C810.545 404.309 829.13 341.514 829.13 341.514Z" fill="#FFC727"/>
<path d="M915.636 401.764C915.636 401.764 879.763 476.004 849.373 500.671C843.275 505.625 837.416 508.581 832.035 508.512C800.107 508.239 753.985 428.037 737.996 393.394C728.105 371.938 728.02 352.515 737.005 348.33C742.557 345.751 751.525 348.928 763.773 360.988C796.23 392.779 807.47 405.556 808.529 405.129C810.545 404.309 829.148 341.531 829.148 341.531L915.636 401.764Z" fill="#FFC727"/>
<path d="M862.099 488.031C861.04 489.261 859.964 490.456 858.888 491.618C849.153 497.747 838.232 501.747 826.841 503.354C823.699 503.701 820.537 503.826 817.378 503.729L815.413 502.499C819.184 502.727 822.967 502.63 826.722 502.209C831.216 501.718 835.637 500.697 839.892 499.168L843.121 498.109L846.247 496.794C847.289 496.35 848.365 495.974 849.373 495.461L852.397 493.924C855.76 492.181 859.002 490.212 862.099 488.031ZM796.469 393.718C786.598 398.208 777.594 404.401 769.871 412.014C764.862 416.949 760.231 422.254 756.017 427.883C756.222 428.259 756.444 428.652 756.684 429.028C760.947 423.304 765.648 417.918 770.742 412.919C777.214 406.561 784.588 401.19 792.625 396.981L795.649 395.444C796.204 395.162 796.774 394.911 797.357 394.692L796.469 393.718ZM871.187 399.168C862.983 395.152 854.4 391.965 845.564 389.653C844.641 389.431 843.719 389.209 842.779 389.021C842.181 388.884 841.566 388.747 840.968 388.645C833.501 387.08 825.836 386.688 818.249 387.483C817.138 387.637 816.045 387.808 814.935 388.013C814.815 388.406 814.678 388.816 814.559 389.192C815.823 388.969 817.104 388.782 818.385 388.628C825.428 387.884 832.542 388.177 839.499 389.499L841.361 389.841C842.677 390.114 843.992 390.404 845.307 390.729C854.069 392.987 862.584 396.111 870.726 400.056C882.923 406.039 894.753 412.742 906.155 420.128C906.326 419.837 906.48 419.547 906.616 419.274C895.217 411.873 883.386 405.159 871.187 399.168ZM880.156 377.063C866.306 377.635 852.811 381.613 840.866 388.645L839.397 389.499C836.38 391.307 833.466 393.28 830.668 395.41C816.028 406.547 804.344 420.862 793.223 435.263C787.654 442.489 782.188 449.766 776.414 456.804C776.004 457.316 775.577 457.812 775.15 458.324L775.799 459.264C776.294 458.683 776.79 458.102 777.268 457.556C783.076 450.5 788.559 443.223 794.145 436.014C805.266 421.665 816.933 407.453 831.419 396.469C834.559 394.074 837.845 391.877 841.259 389.892C841.72 389.601 842.198 389.328 842.677 389.072C846.655 386.839 850.801 384.92 855.078 383.332L858.273 382.171C859.332 381.795 860.442 381.539 861.536 381.214L864.798 380.309L868.215 379.642C872.625 378.648 877.138 378.178 881.659 378.242H881.864L880.156 377.063ZM773.988 371.101C768.02 373.754 761.783 375.752 755.385 377.063L752.054 377.712C750.944 377.917 749.816 377.985 748.638 378.139L745.221 378.532L741.805 378.669C738.685 378.885 735.553 378.828 732.444 378.498L732.751 379.625C747.191 380.679 761.663 378.07 774.825 372.041C774.637 371.716 774.313 371.409 773.988 371.101ZM749.355 349.885C743.306 353.994 737.033 357.764 730.564 361.176C730.564 361.637 730.564 362.099 730.564 362.577C737.466 358.967 744.14 354.94 750.551 350.517C750.141 350.295 749.748 350.073 749.355 349.885Z" fill="white"/>
<path d="M895.188 411.807C892.899 409.911 890.593 408.066 888.27 406.221C883.555 402.497 878.841 398.79 874.126 395.101C864.73 387.772 855.13 380.7 845.461 373.748C839.978 369.784 834.58 365.616 828.926 361.909C828.899 361.889 828.868 361.875 828.835 361.866C828.803 361.858 828.769 361.856 828.736 361.861C828.702 361.865 828.67 361.877 828.641 361.894C828.612 361.911 828.587 361.934 828.567 361.961C828.547 361.988 828.532 362.018 828.524 362.051C828.515 362.083 828.513 362.117 828.518 362.151C828.523 362.184 828.534 362.216 828.551 362.245C828.569 362.274 828.591 362.299 828.618 362.319C833.111 366.283 837.928 369.904 842.592 373.679C847.255 377.454 851.884 381.247 856.616 384.937C866.023 392.248 875.544 399.417 885.178 406.443C887.86 408.425 890.508 410.509 893.292 412.371C894.71 413.328 896.06 414.387 897.495 415.309C898.93 416.232 900.467 417.017 901.868 418.059C901.9 418.078 901.937 418.084 901.973 418.077C902.01 418.07 902.042 418.05 902.065 418.021C902.088 417.992 902.099 417.956 902.097 417.919C902.096 417.882 902.081 417.847 902.056 417.82C899.715 415.856 897.529 413.721 895.188 411.807Z" fill="#263238"/>
<path d="M809.264 403.18C805.962 412.104 803.246 421.234 801.132 430.512C800.005 435.09 799.117 439.72 798.245 444.332C797.323 448.915 796.707 453.555 796.4 458.22C796.4 458.391 796.657 458.391 796.691 458.22C798.126 453.761 799.185 449.115 800.21 444.554C801.235 439.993 802.396 435.398 803.421 430.888C805.488 421.697 807.914 412.593 809.708 403.351C809.719 403.322 809.724 403.291 809.723 403.259C809.723 403.228 809.716 403.197 809.703 403.169C809.69 403.14 809.672 403.115 809.649 403.093C809.627 403.072 809.6 403.055 809.571 403.043C809.542 403.032 809.511 403.027 809.479 403.028C809.448 403.028 809.418 403.035 809.389 403.048C809.36 403.061 809.335 403.079 809.313 403.102C809.292 403.124 809.275 403.151 809.264 403.18Z" fill="#263238"/>
<path opacity="0.1" d="M849.373 500.669C843.275 505.623 837.416 508.578 832.035 508.51C800.107 508.237 753.985 428.034 737.996 393.391C728.105 371.936 728.02 352.513 737.005 348.328L849.373 500.669Z" fill="black"/>
<path d="M799.852 578.755H592.18C589.891 574.553 623.92 392.659 693.958 341.429C709.503 330.069 737.074 337.38 744.727 348.433C783.265 403.968 799.852 578.755 799.852 578.755Z" fill="#FFC727"/>
<path d="M789.056 498.007C783.872 496.171 778.791 494.055 773.836 491.669C766.883 488.338 760.17 484.648 753.49 480.753L752.517 480.173C745.684 476.124 738.851 471.836 732.154 467.515L731.198 466.9L726.654 463.961C711.28 454.105 696.145 443.958 679.728 436.066C671.614 432.008 662.998 429.044 654.105 427.251C649.642 426.455 645.099 426.203 640.575 426.5C639.448 426.5 638.338 426.739 637.159 426.892C636.39 427.046 635.621 427.149 634.836 427.302C634.955 427.029 635.058 426.773 635.194 426.5C635.809 426.38 636.441 426.278 637.056 426.141C638.184 426.004 639.328 425.833 640.473 425.748C645.041 425.441 649.63 425.688 654.139 426.483C663.126 428.26 671.835 431.23 680.036 435.314C696.537 443.206 711.775 453.353 727.115 463.176L731.625 466.063L732.599 466.678C739.432 471.068 746.265 475.424 753.354 479.541L754.327 480.121C760.819 483.897 767.43 487.484 774.229 490.713C778.978 492.984 783.841 495.008 788.8 496.777L789.056 498.007ZM770.573 411.279L769.872 411.945C756.702 424.774 746.862 440.422 737.587 456.069C735.628 459.406 733.658 462.737 731.676 466.063C731.522 466.353 731.369 466.626 731.198 466.9C728.687 471.136 726.158 475.355 723.528 479.506C721.222 483.162 718.813 486.766 716.251 490.251C716.012 490.576 715.789 490.9 715.55 491.208C712.957 494.71 710.162 498.058 707.18 501.235C704.071 504.534 700.637 507.51 696.93 510.118L695.547 511.092C695.085 511.417 694.573 511.673 694.095 511.963L691.174 513.671C689.16 514.687 687.083 515.572 684.956 516.319C676.339 519.181 667.318 520.64 658.239 520.641C649.191 520.605 640.175 519.58 631.351 517.583C622.81 515.773 614.525 513.347 606.171 510.921C606.171 511.194 606.035 511.468 605.949 511.724C614.285 514.167 622.656 516.627 631.163 518.454C640.092 520.491 649.217 521.545 658.375 521.598C667.557 521.603 676.681 520.138 685.4 517.259C687.577 516.51 689.7 515.614 691.754 514.577L694.744 512.869C695.249 512.599 695.74 512.302 696.213 511.98L697.631 510.989C701.394 508.355 704.88 505.344 708.034 502.004C711.214 498.6 714.192 495.012 716.951 491.259C717.207 490.935 717.429 490.627 717.651 490.303C720.077 486.989 722.366 483.589 724.484 480.139C727.132 475.987 729.609 471.768 732.171 467.549L732.667 466.712L738.594 456.701C747.887 441.071 757.727 425.56 770.761 412.885L770.983 412.68C770.829 412.185 770.692 411.723 770.573 411.279ZM780.429 451.85C779.114 453.558 777.782 455.164 776.432 456.804C770.776 463.914 764.455 470.469 757.556 476.38C756.189 477.457 754.823 478.533 753.405 479.541L752.517 480.173C750.54 481.568 748.468 482.824 746.316 483.931L744.83 484.734C744.334 485.007 743.788 485.195 743.275 485.434L740.166 486.767C738.046 487.532 735.878 488.154 733.675 488.629C728.38 489.762 722.981 490.335 717.566 490.337H716.251C713.039 490.337 709.828 490.081 706.633 489.739C697.618 488.604 688.756 486.479 680.207 483.401C671.665 480.446 663.244 476.807 654.873 473.152C646.542 469.383 637.984 466.137 629.25 463.432C626.67 462.697 624.125 462.048 621.392 461.57L621.135 462.304C623.8 462.8 626.448 463.432 629.028 464.184C637.712 466.897 646.218 470.149 654.498 473.92C662.868 477.525 671.238 481.181 679.865 484.17C688.488 487.272 697.424 489.426 706.514 490.593C709.52 490.935 712.527 491.157 715.533 491.208C715.977 491.208 716.404 491.208 716.849 491.208C722.584 491.301 728.313 490.762 733.931 489.602C736.177 489.106 738.39 488.473 740.559 487.706L743.736 486.339C744.266 486.1 744.795 485.912 745.308 485.639L746.828 484.819C749.161 483.63 751.399 482.265 753.525 480.736L754.413 480.104C755.711 479.165 756.992 478.174 758.256 477.166C765.226 471.231 771.61 464.641 777.32 457.487C778.459 456.086 779.598 454.669 780.737 453.234C780.634 452.79 780.532 452.311 780.429 451.85ZM758.974 376.26C757.778 376.551 756.582 376.824 755.387 377.063L752.055 377.712C750.945 377.917 749.818 377.985 748.639 378.139L745.222 378.532L741.806 378.669C737.295 378.961 732.765 378.72 728.311 377.951C721.322 376.743 714.552 374.504 708.222 371.306L706.514 370.469C705.318 369.854 704.139 369.205 702.978 368.539C695.157 363.948 687.82 358.579 681.078 352.515L680.326 353.267C687.132 359.395 694.531 364.832 702.414 369.495C703.234 369.974 704.122 370.435 704.908 370.879L706.616 371.733C713.371 375.277 720.63 377.76 728.14 379.096C738.55 380.557 749.145 379.977 759.333 377.388C759.264 377.012 759.111 376.636 758.974 376.26ZM746.811 351.576C737.739 357.661 728.058 362.785 717.925 366.865C714.25 368.297 710.49 369.5 706.667 370.469L705.062 370.879C700.621 371.912 696.111 372.614 691.566 372.98L688.15 373.202C687.023 373.288 685.895 373.202 684.734 373.202H681.317L677.901 372.929C673.785 372.691 669.707 372.01 665.738 370.896C665.499 371.221 665.26 371.545 665.037 371.887C678.68 375.313 692.965 375.26 706.582 371.733L708.29 371.306C711.698 370.404 715.051 369.309 718.335 368.026C728.52 363.919 738.252 358.767 747.375 352.652L746.811 351.576ZM797.905 560.887C796.197 560.887 794.352 561.041 792.575 561.092H792.438L791.396 561.178C782.642 562.094 774.134 564.625 766.302 568.643C760.699 571.569 755.345 574.952 750.296 578.756H751.372C756.19 575.188 761.285 572.012 766.61 569.258C774.509 565.225 783.098 562.715 791.926 561.861H792.558H792.968C794.676 561.861 796.282 561.673 797.922 561.69C797.956 561.383 797.939 561.144 797.905 560.887ZM798.793 568.745C796.937 566.388 795.018 564.07 793.036 561.793C792.848 561.554 792.643 561.331 792.438 561.109L791.738 560.289C785.769 553.333 778.905 547.198 771.324 542.045C767.477 539.535 763.335 537.51 758.991 536.015C757.915 535.657 756.787 535.349 755.694 535.042C754.601 534.734 753.456 534.495 752.278 534.341C750.023 533.914 747.717 533.88 745.445 533.658C736.26 533.322 727.099 534.779 718.471 537.946C709.924 541.195 701.76 545.377 694.129 550.416C680.463 559.213 668.01 569.565 654.703 578.756H655.266C668.505 569.719 680.89 559.555 694.419 550.945C702.022 545.943 710.158 541.8 718.676 538.595C727.218 535.468 736.287 534.035 745.376 534.375C747.614 534.614 749.903 534.649 752.124 535.076C753.251 535.229 754.327 535.554 755.438 535.776C756.548 535.998 757.624 536.374 758.683 536.733C762.964 538.215 767.044 540.223 770.829 542.712C778.344 547.83 785.141 553.932 791.038 560.853C791.14 560.973 791.243 561.075 791.328 561.195L791.926 561.861C794.317 564.645 796.658 567.481 798.913 570.402C798.93 569.856 798.861 569.326 798.759 568.745H798.793Z" fill="white"/>
<path d="M666.385 363.722C624.106 412.629 567.119 499.015 590.402 518.113C628.684 549.511 740.489 567.652 766.147 570.693C777.216 572.026 799.389 499.664 791.992 490.303C784.596 480.942 666.385 474.331 665.582 467.071C665.121 462.954 683.075 427.149 694.622 383.23C707.895 332.598 678.292 349.937 666.385 363.722Z" fill="#AD6359"/>
<path d="M772.622 484.341C772.622 484.341 806.548 484.085 828.738 484.956C841.123 485.434 862.271 488.168 871.205 492.694C884.564 499.442 936.118 536.255 927.475 548.947C919.634 560.426 879.353 523.187 879.353 523.187C879.353 523.187 923.324 557.181 911.349 569.309C899.374 581.438 859.452 533.299 859.452 533.299C859.452 533.299 903.867 569.173 889.535 579.764C878.704 587.707 840.098 546.162 840.098 546.162C840.098 546.162 878.038 577.304 867.259 585.965C855.301 595.531 817.293 559.418 817.293 559.418C786.203 576.808 764.337 572.367 748.963 567.362C745.359 566.081 772.622 484.341 772.622 484.341Z" fill="#AD6359"/>
<path d="M864.901 510.459C870.214 514.268 875.612 518.078 880.566 522.416C885.519 526.755 890.32 531.111 894.864 535.826C905.984 547.374 911.143 556.325 910.75 555.813C901.799 543.53 884.307 528.002 879.353 523.732C874.399 519.461 869.667 514.969 864.73 510.715C864.611 510.527 864.781 510.373 864.901 510.459Z" fill="#263238"/>
<path d="M849.187 528.07C855.746 533.195 862.46 538.081 868.797 543.53C875.135 548.979 883.71 556.837 889.638 562.68C890.082 563.124 889.638 563.978 889.16 563.551C883.01 557.948 873.871 550.295 867.653 544.76C861.435 539.225 855.439 533.469 849.05 528.19C848.947 528.173 849.084 527.985 849.187 528.07Z" fill="#263238"/>
<path d="M832.924 540.746C843.361 548.109 852.432 557.384 861.11 566.694C861.554 567.155 861.11 567.224 860.563 566.78C851.356 557.982 844.181 551.013 832.667 541.156C832.531 540.951 832.753 540.592 832.924 540.746Z" fill="#263238"/>
<path d="M767.856 483.263C783.333 483.161 828.789 483.041 844.232 484.237C857.898 485.279 869.155 488.217 880.618 495.802C905.216 512.064 921.069 531.163 925.032 536.8C927.424 540.216 930.891 545.734 927.731 549.56C923.853 554.207 909.589 549.663 894.54 536.048C893.993 535.553 894.335 535.245 894.899 535.707C916.03 552.789 924.434 550.842 926.638 547.921C928.073 546.024 926.638 542.796 925.408 540.233C923.35 536.607 920.836 533.26 917.926 530.274C908.219 519.891 897.482 510.521 885.879 502.31C873.448 493.031 858.639 487.469 843.173 486.27C827.355 484.972 783.589 485.382 767.788 483.861C767.463 483.759 767.515 483.28 767.856 483.263Z" fill="#263238"/>
<path d="M913.859 562.475C912.988 558.256 909.947 554.396 907.539 550.911C904.613 546.525 901.253 542.445 897.511 538.731C897.358 538.577 897.067 538.731 897.221 538.97C900.408 542.695 903.369 546.609 906.087 550.689C907.532 552.933 908.844 555.26 910.016 557.658C911.126 559.964 912.442 562.629 911.861 565.26C910.767 570.282 904.379 570.163 900.603 568.813C898.157 567.893 895.802 566.749 893.565 565.397C890.519 563.456 887.629 561.28 884.922 558.888C884.7 558.683 884.085 558.769 884.324 558.991C889.961 564.355 900.638 575.509 909.35 571.427C911.022 570.688 912.385 569.391 913.208 567.759C914.03 566.126 914.261 564.259 913.859 562.475Z" fill="#263238"/>
<path d="M773.134 479.948L732.495 572.194C732.495 572.194 590.471 540.13 582.237 513.174C574.004 486.218 618.503 414.095 658.664 369.066C698.159 324.822 704.001 354.836 694.179 389.053C684.356 423.269 668.248 462.712 670.041 465.667C671.835 468.623 773.134 479.948 773.134 479.948Z" fill="#FFC727"/>
<path d="M679.181 434.904C679.079 435.16 678.993 435.433 678.891 435.689C671.002 431.809 662.641 428.972 654.019 427.251C649.556 426.455 645.013 426.202 640.49 426.499C639.362 426.499 638.252 426.738 637.073 426.892C635.894 427.046 634.852 427.234 633.759 427.541C631.538 428.019 629.437 428.874 627.268 429.54C618.897 432.725 611.218 437.492 604.651 443.582L605.727 441.72C611.991 436.188 619.201 431.831 627.012 428.856C629.198 428.173 631.333 427.302 633.588 426.824C634.699 426.516 635.843 426.38 637.005 426.14C638.166 425.901 639.277 425.833 640.421 425.747C644.99 425.441 649.578 425.687 654.087 426.482C662.783 428.186 671.218 431.017 679.181 434.904ZM754.344 480.121L753.37 479.54L749.476 477.234L747.118 476.961C748.827 478.037 750.689 479.13 752.482 480.172L753.456 480.753C758.581 483.742 763.705 486.612 768.967 489.294L769.377 488.355C764.32 485.741 759.315 482.991 754.344 480.121ZM726.619 474.467C725.594 476.175 724.552 477.883 723.493 479.506C721.187 483.162 718.778 486.766 716.216 490.251C715.977 490.575 715.755 490.9 715.516 491.207C712.923 494.71 710.128 498.058 707.145 501.235C704.037 504.533 700.603 507.509 696.896 510.118L695.512 511.091C695.051 511.416 694.538 511.672 694.06 511.963L691.139 513.671C689.126 514.687 687.049 515.571 684.921 516.319C676.304 519.18 667.284 520.64 658.204 520.641C649.168 520.602 640.164 519.577 631.35 517.583C622.451 515.687 613.721 513.107 604.958 510.562C597.186 508.307 589.362 506.035 581.367 504.549C581.367 504.822 581.367 505.096 581.367 505.352C589.276 506.838 597.015 509.127 604.753 511.365C613.499 513.927 622.263 516.49 631.197 518.454C640.126 520.491 649.251 521.545 658.409 521.597C667.591 521.602 676.715 520.137 685.434 517.258C687.61 516.51 689.734 515.614 691.788 514.576L694.778 512.868C695.283 512.598 695.773 512.302 696.247 511.98L697.665 510.989C701.428 508.354 704.914 505.344 708.068 502.004C711.248 498.6 714.225 495.012 716.985 491.259C717.241 490.934 717.463 490.627 717.685 490.302C720.111 486.988 722.4 483.589 724.518 480.138C725.68 478.327 726.807 476.482 727.935 474.655L726.619 474.467ZM755.523 477.883C754.822 478.43 754.105 478.976 753.37 479.489L752.482 480.121C750.505 481.516 748.433 482.772 746.281 483.879L744.795 484.682C744.3 484.955 743.753 485.143 743.241 485.382L740.132 486.715C738.012 487.48 735.843 488.102 733.64 488.577C728.346 489.711 722.946 490.283 717.532 490.285H716.216C713.005 490.285 709.793 490.029 706.599 489.687C697.584 488.552 688.721 486.427 680.172 483.35C671.631 480.394 663.209 476.756 654.839 473.1C646.508 469.331 637.95 466.085 629.215 463.38C620.452 460.869 611.108 459.502 602.037 461.279C599.151 461.859 596.358 462.83 593.735 464.166C593.564 464.508 593.393 464.866 593.24 465.208C596.047 463.711 599.056 462.629 602.174 461.996C611.091 460.288 620.315 461.621 628.993 464.132C637.677 466.845 646.184 470.097 654.463 473.869C662.833 477.473 671.204 481.129 679.831 484.118C688.463 487.241 697.41 489.411 706.513 490.592C709.52 490.934 712.526 491.156 715.533 491.207C715.977 491.207 716.404 491.207 716.848 491.207C722.584 491.3 728.313 490.762 733.931 489.602C736.177 489.105 738.39 488.472 740.559 487.706L743.736 486.339C744.266 486.1 744.795 485.912 745.308 485.639L746.828 484.819C749.16 483.63 751.399 482.265 753.524 480.736L754.413 480.104C755.301 479.455 756.121 478.771 757.077 478.088L755.523 477.883ZM681.146 352.43C680.411 351.78 679.694 351.148 678.976 350.482L678.054 351.08L680.445 353.215C686.007 358.195 691.947 362.736 698.211 366.796C698.211 366.369 698.211 365.942 698.211 365.532C692.215 361.614 686.522 357.252 681.18 352.481L681.146 352.43ZM691.532 372.929L688.116 373.151C686.988 373.236 685.861 373.151 684.699 373.151H681.283L677.866 372.877C673.349 372.607 668.878 371.816 664.542 370.52C662.646 369.956 660.766 369.307 658.922 368.555L658.512 369.017L658.119 369.461C660.11 370.295 662.146 371.02 664.217 371.63C675.037 374.519 686.335 375.147 697.408 373.475C697.408 373.048 697.528 372.638 697.596 372.211C695.7 372.587 693.633 372.826 691.566 372.98L691.532 372.929ZM745.444 533.606C736.257 533.287 727.095 534.761 718.471 537.945C709.923 541.195 701.76 545.377 694.129 550.415C689.858 553.183 685.69 556.087 681.573 559.076L682.239 559.264C686.236 556.377 690.285 553.593 694.436 550.945C702.039 545.942 710.175 541.8 718.693 538.594C727.235 535.467 736.303 534.034 745.393 534.375C746.572 534.494 747.75 534.563 748.929 534.665L749.254 533.948C748.041 533.845 746.742 533.777 745.478 533.657L745.444 533.606Z" fill="white"/>
<path d="M716.198 556.939C717.581 554.309 718.914 551.678 720.246 549.03C722.923 543.666 725.587 538.291 728.241 532.904C733.502 522.211 738.49 511.38 743.291 500.448C746.041 494.264 749.03 488.148 751.507 481.845C751.537 481.782 751.54 481.709 751.516 481.643C751.492 481.578 751.443 481.524 751.379 481.495C751.316 481.465 751.243 481.462 751.177 481.486C751.112 481.51 751.058 481.559 751.029 481.623C748.074 486.833 745.511 492.282 742.778 497.629C740.045 502.976 737.26 508.272 734.63 513.67C729.391 524.363 724.312 535.142 719.392 546.007C718.009 549.047 716.505 552.054 715.258 555.163C714.609 556.751 713.857 558.289 713.225 559.895C712.593 561.5 712.115 563.14 711.517 564.729C711.509 564.746 711.505 564.764 711.504 564.783C711.503 564.801 711.506 564.82 711.512 564.837C711.519 564.855 711.529 564.871 711.541 564.884C711.554 564.898 711.569 564.909 711.586 564.917C711.602 564.925 711.621 564.929 711.639 564.93C711.658 564.931 711.676 564.928 711.694 564.922C711.711 564.915 711.727 564.906 711.741 564.893C711.754 564.881 711.766 564.865 711.773 564.849C713.157 562.201 714.78 559.638 716.198 556.939Z" fill="#263238"/>
<path d="M735.554 565.858L732.701 572.315L732.616 572.52H732.342C718.898 570.026 705.54 567.037 692.267 563.706C678.994 560.375 665.823 556.599 652.789 552.397C639.709 548.263 626.881 543.369 614.371 537.74C608.094 534.917 602.03 531.639 596.229 527.935C593.335 526.048 590.598 523.928 588.047 521.597C585.416 519.342 583.4 516.456 582.188 513.21C583.698 516.258 585.904 518.909 588.628 520.948C591.324 523.02 594.186 524.865 597.186 526.466C603.119 529.764 609.246 532.702 615.532 535.263C628.088 540.474 640.985 544.915 653.951 549.083C666.917 553.251 680.002 557.129 693.121 560.853C706.24 564.577 719.411 568.267 732.599 571.803L732.257 571.974L735.554 565.858Z" fill="#263238"/>
<path d="M771.513 483.536L772.93 479.864L773.084 480.12C758.837 479.18 744.608 478.036 730.378 476.55C716.148 475.064 702.004 473.441 687.86 471.323C684.324 470.776 680.788 470.195 677.252 469.512C675.543 469.153 673.716 468.811 671.888 468.299C671.426 468.162 670.982 468.026 670.487 467.838C670.203 467.745 669.928 467.625 669.667 467.479C669.467 467.372 669.279 467.246 669.103 467.103C668.919 466.949 668.763 466.764 668.642 466.557C668.572 466.423 668.51 466.286 668.454 466.147C668.444 466.079 668.444 466.01 668.454 465.942C668.386 465.291 668.42 464.634 668.557 463.994C668.642 463.533 668.727 463.038 668.847 462.61C670.658 455.521 672.947 448.825 675.27 442.112C679.916 428.599 684.973 415.258 690.303 402.002C686.186 415.668 681.966 429.334 677.764 443C675.748 449.833 673.528 456.666 671.973 463.499C671.871 463.926 671.819 464.319 671.734 464.729C671.649 465.139 671.734 465.617 671.648 465.446C671.629 465.355 671.595 465.269 671.546 465.19C671.546 465.019 671.239 464.848 671.307 464.882C671.221 464.882 671.375 464.917 671.307 464.882L671.734 465.053L672.861 465.412C674.57 465.856 676.278 466.181 677.986 466.522C681.403 467.154 684.973 467.701 688.475 468.231C695.513 469.29 702.562 470.286 709.623 471.22L730.822 474.073C744.949 475.952 759.077 477.968 773.204 480.035H773.46L773.357 480.257L771.513 483.536Z" fill="#263238"/>
<path d="M691.822 410.749C690.819 413.159 689.553 415.45 688.047 417.582C686.631 419.762 684.904 421.724 682.922 423.407C684.22 421.135 685.604 418.982 687.073 416.847C688.499 414.697 690.086 412.658 691.822 410.749Z" fill="#263238"/>
<path d="M733.213 379.197C721.153 382.613 699.424 364.967 690.507 350.259C689.892 349.251 692.317 307.706 691.942 299.421C691.942 297.713 744.453 309.671 744.453 309.671C744.453 309.671 740.131 327.266 740.883 341.701C740.934 342.93 744.846 375.883 733.213 379.197Z" fill="#AD6359"/>
<path d="M691.139 325.439C715.72 342.794 739.67 336.132 740.678 335.825C741.082 327.019 742.3 318.27 744.316 309.688C744.316 309.688 691.702 297.731 691.788 299.439C692.095 303.317 691.668 314.523 691.139 325.439Z" fill="#263238"/>
<path d="M744.197 275.456C745.546 287.721 755.369 296.707 766.114 295.511C776.859 294.315 784.495 283.433 783.196 271.185C781.898 258.937 772.041 249.935 761.279 251.131C750.517 252.326 742.847 263.208 744.197 275.456Z" fill="#455A64"/>
<path d="M737.979 276.924C739.483 290.59 750.398 300.549 762.356 299.233C774.314 297.918 782.855 285.806 781.3 272.158C779.746 258.509 768.899 248.533 756.924 249.848C744.949 251.163 736.476 263.292 737.979 276.924Z" fill="#C7C7C7"/>
<path d="M684.664 237.004C678.925 255.419 688.337 308.75 701.371 320.708C720.281 338.047 751.405 339.874 766.165 317.121C780.48 295.05 766.985 225.781 752.396 214.899C730.924 198.842 693.137 209.826 684.664 237.004Z" fill="#AD6359"/>
<path d="M728.977 270.484C728.977 270.365 728.738 270.706 728.772 270.86C729.558 274.413 729.882 278.632 726.876 280.443C726.773 280.443 726.876 280.682 726.876 280.631C730.788 279.316 730.309 273.73 728.977 270.484Z" fill="#263238"/>
<path d="M725.063 267.358C719.221 268.024 720.981 279.674 726.396 279.059C731.811 278.445 729.966 266.811 725.063 267.358Z" fill="#263238"/>
<path d="M749.715 267.684C749.715 267.547 750.023 267.821 750.04 267.974C750.467 271.596 751.577 275.662 755.011 276.379C755.113 276.379 755.147 276.584 755.011 276.584C750.928 276.618 749.544 271.186 749.715 267.684Z" fill="#263238"/>
<path d="M752.363 263.395C758.103 262.08 760.306 273.645 754.994 274.875C749.681 276.105 747.511 264.54 752.363 263.395Z" fill="#263238"/>
<path d="M719.666 262.728C721.131 262.052 722.557 261.294 723.936 260.456C725.55 259.866 726.925 258.762 727.848 257.313C728.048 256.8 728.073 256.235 727.918 255.707C727.764 255.179 727.439 254.716 726.994 254.392C726.022 253.882 724.931 253.642 723.834 253.696C722.738 253.75 721.676 254.096 720.759 254.699C718.7 255.628 717.061 257.291 716.164 259.363C715.984 259.847 715.95 260.372 716.065 260.875C716.18 261.378 716.439 261.836 716.811 262.194C717.183 262.551 717.651 262.792 718.159 262.887C718.666 262.982 719.189 262.927 719.666 262.728Z" fill="#263238"/>
<path d="M756.053 256.885C754.439 256.805 752.831 256.64 751.236 256.39C749.521 256.454 747.833 255.95 746.435 254.955C746.051 254.556 745.811 254.041 745.752 253.49C745.694 252.939 745.82 252.385 746.111 251.914C746.826 251.079 747.75 250.448 748.788 250.085C749.826 249.722 750.941 249.64 752.021 249.847C754.276 249.941 756.414 250.873 758.017 252.461C758.361 252.841 758.587 253.312 758.668 253.819C758.749 254.325 758.682 254.843 758.474 255.312C758.266 255.78 757.926 256.178 757.497 256.458C757.067 256.737 756.565 256.885 756.053 256.885Z" fill="#263238"/>
<path d="M730.958 304.29C731.949 305.007 732.991 305.998 734.374 305.998C735.712 305.772 736.987 305.266 738.115 304.512C738.136 304.487 738.165 304.471 738.197 304.468C738.229 304.465 738.261 304.474 738.286 304.495C738.311 304.515 738.327 304.545 738.33 304.577C738.333 304.609 738.324 304.641 738.303 304.666C737.898 305.456 737.285 306.121 736.529 306.587C735.773 307.054 734.904 307.305 734.016 307.313C733.253 307.236 732.53 306.933 731.94 306.443C731.349 305.953 730.918 305.299 730.702 304.563C730.548 304.392 730.804 304.187 730.958 304.29Z" fill="#263238"/>
<path d="M733.111 292.931C734.242 294.218 735.628 295.257 737.18 295.983C738.732 296.709 740.417 297.106 742.13 297.15C743.631 297.21 745.132 297.054 746.589 296.689C746.869 296.638 747.144 296.558 747.409 296.45C747.669 296.384 747.925 296.304 748.177 296.211C748.365 296.148 748.526 296.025 748.637 295.862C748.748 295.698 748.803 295.503 748.792 295.306C748.782 295.182 748.753 295.061 748.707 294.947V294.639C748.348 291.855 747.443 287.67 747.443 287.67C748.536 288.028 754.071 289.566 753.763 288.131C751.235 276.173 748.416 262.986 743.377 251.694C743.343 251.62 743.283 251.56 743.209 251.526C743.134 251.492 743.05 251.486 742.972 251.508C742.893 251.531 742.825 251.581 742.78 251.65C742.736 251.718 742.717 251.801 742.728 251.882C744.71 263.413 748.707 274.516 750.893 286.047C748.924 285.469 746.882 285.176 744.829 285.176C744.453 285.346 746.725 293.221 746.777 294.486C746.787 294.53 746.787 294.577 746.777 294.622C742.198 295.921 738.474 295.049 733.469 292.607C733.094 292.436 732.854 292.675 733.111 292.931Z" fill="#263238"/>
<path d="M744.726 295.527C743.512 297.738 741.746 299.597 739.601 300.925C738.405 301.607 737.027 301.905 735.655 301.779C732.666 301.455 732.239 298.824 732.376 296.484C732.489 295.239 732.747 294.012 733.144 292.828C736.619 294.937 740.677 295.883 744.726 295.527Z" fill="#263238"/>
<path d="M739.584 300.976C738.387 301.658 737.01 301.956 735.638 301.831C732.648 301.506 732.221 298.875 732.358 296.535C735.552 296.33 738.866 297.97 739.584 300.976Z" fill="#FF99BA"/>
<path opacity="0.2" d="M693.41 255.947C691.309 261.242 686.987 273.678 684.528 274.549C682.187 257.262 682.102 241.58 686.39 231.946C688.162 227.967 690.652 224.348 693.735 221.269C694.094 225.899 695.648 250.412 693.41 255.947Z" fill="#263238"/>
<path d="M739.618 231.228C738.155 233.764 736.066 235.88 733.55 237.376C731.035 238.872 728.177 239.696 725.251 239.77C722.273 239.848 719.324 239.163 716.685 237.782C714.045 236.401 711.802 234.369 710.167 231.878C710.159 231.862 710.146 231.848 710.132 231.837C710.118 231.826 710.102 231.818 710.084 231.813C710.067 231.808 710.048 231.807 710.031 231.809C710.013 231.812 709.995 231.817 709.98 231.826C709.964 231.835 709.95 231.847 709.939 231.862C709.928 231.876 709.92 231.892 709.915 231.91C709.91 231.927 709.909 231.945 709.911 231.963C709.914 231.981 709.919 231.999 709.928 232.014C711.414 234.795 713.632 237.116 716.342 238.727C719.051 240.337 722.15 241.177 725.303 241.153C728.39 240.979 731.378 239.996 733.966 238.302C736.554 236.607 738.65 234.262 740.045 231.502C740.081 231.445 740.093 231.376 740.079 231.311C740.064 231.245 740.024 231.188 739.968 231.152C739.911 231.115 739.842 231.103 739.777 231.117C739.711 231.132 739.654 231.172 739.618 231.228Z" fill="#263238"/>
<path d="M775.253 203.743C772.792 199.204 768.804 195.682 763.995 193.801C757.333 191.17 750.654 192.93 744.043 194.826C744.007 194.826 743.972 194.84 743.946 194.866C743.921 194.892 743.906 194.926 743.906 194.963C743.906 194.999 743.921 195.034 743.946 195.059C743.972 195.085 744.007 195.099 744.043 195.099C749.663 193.511 755.471 192.229 761.211 193.972C765.961 195.393 770.076 198.41 772.861 202.513C775.577 206.762 776.673 211.847 775.948 216.837C775.224 221.827 772.727 226.39 768.915 229.691C766.668 231.535 764.068 232.9 761.274 233.702C758.48 234.504 755.552 234.726 752.67 234.355C752.447 234.355 752.345 234.662 752.584 234.696C756.508 235.362 760.54 234.921 764.227 233.421C767.914 231.922 771.11 229.425 773.456 226.209C775.801 222.994 777.204 219.188 777.507 215.22C777.809 211.251 776.999 207.277 775.167 203.743H775.253Z" fill="#263238"/>
<path d="M683.109 247.645C683.109 247.645 670.759 231.776 676.738 220.313C680.154 213.805 694.862 212.011 694.862 212.011C694.862 212.011 698.279 204.478 709.912 199.592C721.545 194.707 737.244 197.577 737.244 197.577C737.244 197.577 747.681 188.899 759.639 193.203C776.311 199.216 778.43 222.636 764.49 232.715C754.685 239.804 738.491 232.869 738.491 232.869C737.124 233.296 724.312 244.434 711.261 233.552C711.261 233.552 703.83 242.913 694.965 238.814C694.126 241.319 692.54 243.509 690.421 245.088C688.302 246.666 685.751 247.559 683.109 247.645Z" fill="#263238"/>
<path d="M695.784 280.476C695.784 280.476 683.502 263.394 675.746 267.818C667.991 272.243 677.454 297.063 686.611 300.275C687.76 300.781 689 301.049 690.257 301.064C691.513 301.079 692.759 300.84 693.92 300.361C695.081 299.882 696.134 299.174 697.015 298.279C697.896 297.383 698.587 296.319 699.047 295.15L695.784 280.476Z" fill="#AD6359"/>
<path d="M678.618 274.893C678.464 274.893 678.447 275.081 678.618 275.132C685.092 277.66 688.56 283.571 691.02 289.72C689.072 287.363 686.459 286.099 683.298 288.422C683.128 288.542 683.298 288.798 683.469 288.764C684.595 288.405 685.803 288.401 686.931 288.753C688.058 289.104 689.05 289.794 689.773 290.728C690.988 292.318 692.025 294.037 692.865 295.853C693.172 296.417 694.197 296.092 693.975 295.443V295.289C693.975 286.987 687.432 275.593 678.618 274.893Z" fill="#263238"/>
<path d="M685.553 268.519C685.553 268.519 678.908 242.042 684.084 225.813C689.841 207.774 711.553 190.111 737.211 197.61C737.211 197.61 708.734 201.283 694.897 225.079C688.543 236.012 694.641 267.58 694.641 267.58L685.553 268.519Z" fill="#C7C7C7"/>
<path d="M713.124 277.438C715.72 291.104 708.153 303.984 696.195 306.273C684.237 308.562 672.416 299.44 669.802 285.774C667.189 272.108 674.773 259.228 686.731 256.939C698.689 254.65 710.51 263.806 713.124 277.438Z" fill="#C7C7C7"/>
<path d="M706.667 277.88C709.008 290.129 702.192 301.796 691.447 303.795C680.702 305.793 670.077 297.559 667.736 285.328C665.396 273.097 672.195 261.413 682.94 259.414C693.685 257.416 704.31 265.615 706.667 277.88Z" fill="#455A64"/>
<path d="M28.8516 578.754H238.385L196.601 335.721H39.921L28.8516 578.754Z" fill="#DBDBDB"/>
<path d="M28.8516 578.754H47.2152L57.533 335.721H39.921L28.8516 578.754Z" fill="#A6A6A6"/>
<path d="M153.042 229.725C133.585 249.079 127.999 280.972 127.999 280.972C127.999 280.972 109.345 313.07 114.555 330.511C115.933 335.456 118.49 339.993 122.007 343.733C125.524 347.473 129.896 350.304 134.747 351.984L132.902 342.349C132.902 342.349 139.154 354.734 160.046 359.722C180.938 364.71 208.577 358.287 222.961 351.01C231.486 346.742 238.76 340.339 244.074 332.424L238.694 346.432C238.694 346.432 258.97 345.714 271.014 324.139C283.057 302.564 248.465 271.559 245.526 264.88C242.588 258.201 238.864 209.533 187.668 217.921C187.737 217.801 166.503 216.4 153.042 229.725Z" fill="#263238"/>
<path d="M127.418 350.6C122.088 346.62 116.827 342.059 113.888 336.422C110.684 330.579 109.547 323.825 110.66 317.255C112.078 309.38 116.229 302.428 120.26 295.646C124.292 288.864 129.143 281.98 133.192 274.856C133.414 274.464 132.816 274.139 132.542 274.446C127.994 279.789 123.75 285.383 119.833 291.204C115.825 296.527 112.454 302.3 109.789 308.406C107.297 314.029 106.478 320.25 107.431 326.326C108.439 331.264 110.631 335.884 113.82 339.787C117.595 344.485 122.361 347.491 127.144 351.027C127.418 351.249 127.708 350.822 127.418 350.6Z" fill="#263238"/>
<path d="M275.404 301.828C269.254 283.909 253.197 272.532 243.34 256.902C238.044 248.446 233.928 239.085 227.026 231.739C226.838 231.534 226.497 231.859 226.668 232.064C232.339 238.675 235.619 246.635 239.719 254.271C244.087 261.785 249.191 268.846 254.956 275.351C265.103 287.513 277.249 301.914 274.925 318.945C273.849 326.803 269.203 335.515 261.14 337.958C260.832 338.06 261.02 338.573 261.328 338.436C264.508 337.159 267.394 335.248 269.811 332.82C272.228 330.391 274.125 327.495 275.387 324.309C278.104 317.063 278.11 309.079 275.404 301.828Z" fill="#263238"/>
<path d="M276.137 306.649C276.692 299.862 275.128 293.07 271.662 287.209C268.125 281.435 262.574 277.267 257.022 273.543C250.616 269.289 243.868 265.241 239.803 258.493C239.632 258.203 239.222 258.493 239.376 258.783C245.833 269.921 258.166 275.114 266.417 284.493C275.898 295.203 275.915 310.8 269.39 323.048C265.242 330.514 259.389 336.894 252.307 341.668C252.188 341.668 252.307 341.924 252.444 341.838C264.521 333.912 275.163 321.715 276.137 306.649Z" fill="#263238"/>
<path d="M198.72 388.284C250.565 416.743 312.625 452.463 350.651 444.058C367.511 440.334 443.221 341.085 446.432 329.606C449.183 319.749 380.631 280.067 372.978 287.839C360.063 300.873 325.147 374.259 320.022 375.489C314.897 376.719 271.371 367.887 226.069 359.705C182.474 351.881 162.727 368.537 198.72 388.284Z" fill="#EB9481"/>
<path d="M439.072 341.975C444.982 334.527 469.103 298.004 473.527 286.337C477.951 274.67 488.303 240.214 479.728 235.875C471.153 231.536 467.36 241.359 467.36 241.359C467.36 241.359 469.427 226.104 460.391 222.568C451.354 219.032 445.888 234.526 445.888 234.526C445.888 234.526 446.861 218.708 437.586 215.735C428.31 212.763 425.44 229.401 425.44 229.401C425.44 229.401 427.011 214.984 418.368 215.735C407.982 216.743 408.118 243.665 402.242 256.169C400.909 259.005 371.135 311.824 371.135 311.824L439.072 341.975Z" fill="#EB9481"/>
<path d="M425.644 228.05C425.644 247.849 422.227 256.527 411.978 273.029C411.773 273.336 412.2 273.712 412.456 273.404C424.072 258.167 429.914 247.917 426.669 227.999C426.447 227.025 425.644 227.111 425.644 228.05Z" fill="#263238"/>
<path d="M445.784 232.972C444.076 253.471 440.42 262.969 430.837 281.059C430.7 281.315 431.128 281.571 431.281 281.315C442.163 264.369 447.766 253.983 446.809 233.228C446.86 232.288 445.87 232.032 445.784 232.972Z" fill="#263238"/>
<path d="M466.777 242.265C463.651 262.047 460.132 272.569 448.584 288.934C448.554 288.971 448.531 289.014 448.517 289.06C448.504 289.106 448.499 289.154 448.504 289.201C448.509 289.249 448.523 289.295 448.545 289.337C448.568 289.379 448.599 289.417 448.636 289.447C448.673 289.477 448.715 289.5 448.761 289.514C448.807 289.528 448.855 289.532 448.902 289.527C448.95 289.523 448.996 289.509 449.038 289.486C449.08 289.463 449.118 289.433 449.148 289.396C462.558 273.851 467.05 260.765 467.375 242.419C467.358 241.189 466.982 241.018 466.777 242.265Z" fill="#263238"/>
<path d="M356.459 317.804C356.459 317.804 355.007 293.052 356.784 282.034C358.56 271.016 380.238 232.375 388.779 236.577C399.9 242.027 391.769 266.796 386.2 278.412C386.2 278.412 411.926 290.951 409.945 309.998C407.963 329.045 356.459 317.804 356.459 317.804Z" fill="#EB9481"/>
<path d="M391.41 239.069C397.97 251.352 389.702 266.128 385.123 277.795C385.049 277.964 385.016 278.148 385.028 278.332C385.04 278.516 385.096 278.695 385.191 278.852C385.287 279.01 385.419 279.142 385.577 279.238C385.735 279.333 385.913 279.389 386.097 279.401C396.535 285.38 409.517 296.859 410.628 309.5C410.628 309.577 410.658 309.651 410.713 309.706C410.767 309.76 410.841 309.791 410.918 309.791C410.995 309.791 411.069 309.76 411.123 309.706C411.178 309.651 411.208 309.577 411.208 309.5C411.858 295.834 400.019 283.467 388.181 277.642C393.033 265.684 400.703 250.566 391.598 239.001C391.478 238.95 391.376 239.001 391.41 239.069Z" fill="#263238"/>
<path d="M307.689 371.442L245.287 423.749C245.287 423.749 207.193 403.933 179.058 381.162C150.923 358.391 182.082 347.322 230.391 355.436C278.7 363.55 307.689 371.442 307.689 371.442Z" fill="#FFC727"/>
<path d="M233.774 381.949C232.006 379.535 229.959 377.339 227.676 375.406C230.203 380.837 233.853 385.669 238.386 389.584C237.162 386.863 235.613 384.299 233.774 381.949ZM179.11 381.197L179.862 381.778C180.357 381.248 180.853 380.684 181.314 380.069C180.528 380.428 179.794 380.804 179.076 381.265L179.11 381.197ZM283.57 381.539C280.618 381.105 277.625 381.013 274.653 381.265C277.441 382.318 280.341 383.045 283.296 383.435C286.247 383.882 289.24 383.98 292.213 383.725C289.415 382.663 286.503 381.929 283.535 381.539H283.57ZM262.678 361.313C262.639 362.453 262.679 363.595 262.797 364.729C263.214 363.704 263.568 362.655 263.856 361.586L262.678 361.313Z" fill="white"/>
<path d="M231.314 412.575C244.007 400.379 257.57 389.053 271.322 378.018C275.216 374.909 279.18 371.868 283.279 368.947C283.399 368.862 283.553 368.947 283.433 369.101C276.976 375.062 270.262 380.751 263.583 386.473C256.904 392.196 250.139 397.919 243.289 403.471C239.412 406.614 235.551 409.757 231.622 412.815C231.383 412.934 231.161 412.729 231.314 412.575Z" fill="#263238"/>
<path d="M271.798 401.523L245.269 423.73C245.269 423.73 207.175 403.932 179.04 381.161C169.047 373.081 166.536 366.487 169.593 361.687L271.798 401.523Z" fill="#263238"/>
<path d="M258.953 578.55H60.0957C60.0957 578.55 103.297 411.706 143.287 364.729C144.176 363.653 145.098 362.628 146.02 361.671C146.208 361.449 146.379 361.295 146.567 361.108C149.663 357.8 153.267 355.009 157.244 352.84C157.944 352.464 158.644 352.105 159.379 351.798C174.753 344.708 191.05 350.585 202.785 360.629C206.509 363.807 248.669 418.71 252.325 439.567C255.553 458.033 243.083 477.866 243.083 477.866L258.953 578.55Z" fill="#FFC727"/>
<path d="M213.291 470.724C204.824 471.55 196.431 473.006 188.18 475.08C184.08 476.173 180.083 477.437 176.069 478.787C174.07 479.47 172.071 480.085 170.056 480.683C167.957 481.366 165.783 481.79 163.581 481.947C163.541 481.947 163.502 481.963 163.473 481.992C163.444 482.021 163.428 482.06 163.428 482.101C163.428 482.141 163.444 482.18 163.473 482.209C163.502 482.238 163.541 482.254 163.581 482.254C165.667 482.343 167.756 482.285 169.834 482.084C171.834 481.833 173.814 481.445 175.761 480.922C179.929 479.846 184.029 478.599 188.18 477.505C196.551 475.285 204.904 473.064 213.411 471.441C213.506 471.425 213.591 471.372 213.647 471.294C213.703 471.215 213.726 471.118 213.71 471.023C213.694 470.928 213.641 470.843 213.563 470.787C213.484 470.73 213.387 470.708 213.291 470.724Z" fill="#263238"/>
<path d="M234.303 478.054C227.314 477.382 220.294 477.103 213.274 477.217C209.857 477.302 206.287 477.576 202.785 477.934C201.077 478.122 199.369 478.327 197.797 478.549C196.226 478.771 194.176 479.284 192.348 479.506C192.16 479.506 192.16 479.831 192.348 479.813C194.056 479.66 195.85 479.813 197.592 479.728L202.837 479.54C206.253 479.438 209.823 479.352 213.325 479.198C220.329 478.908 227.316 478.686 234.32 478.618C234.695 478.635 234.661 478.088 234.303 478.054Z" fill="#263238"/>
<path d="M124.395 403.951C123.455 402.755 122.499 401.577 121.457 400.535L120.722 402.072C121.405 403.131 122.14 404.173 122.892 405.181C124.661 407.578 126.708 409.757 128.99 411.672C127.743 408.939 126.202 406.35 124.395 403.951ZM147.473 360.186C147.125 362.854 147.068 365.552 147.302 368.232C148.364 365.431 149.081 362.511 149.438 359.537C149.438 359.093 149.557 358.631 149.609 358.187C148.891 358.819 148.174 359.486 147.473 360.186ZM207.826 415.772C206.762 418.57 206.028 421.482 205.639 424.45C205.209 427.408 205.111 430.405 205.349 433.384C206.421 430.591 207.144 427.677 207.501 424.706C207.97 421.752 208.079 418.752 207.826 415.772ZM169.817 511.981C168.764 514.768 168.042 517.669 167.665 520.624C167.231 523.582 167.14 526.58 167.391 529.558C169.422 523.934 170.248 517.945 169.817 511.981ZM105.211 439.346C104.168 442.154 103.446 445.071 103.059 448.041C102.624 450.993 102.532 453.985 102.785 456.958C103.831 454.158 104.548 451.246 104.921 448.28C105.369 445.324 105.466 442.325 105.211 439.346ZM158.679 427.149C155.727 426.716 152.735 426.624 149.762 426.876C152.551 427.928 155.451 428.656 158.406 429.045C161.357 429.493 164.35 429.59 167.323 429.336C164.544 428.254 161.649 427.497 158.696 427.081L158.679 427.149ZM230.221 509.145C227.263 508.711 224.265 508.62 221.286 508.872C226.911 510.902 232.9 511.728 238.864 511.297C236.082 510.242 233.187 509.509 230.238 509.111L230.221 509.145ZM96.67 501.27C93.7687 500.849 90.8303 500.746 87.9067 500.962H87.7358H87.8896C90.649 501.98 93.5141 502.685 96.4308 503.064C99.3828 503.497 102.375 503.589 105.348 503.337C102.545 502.315 99.6328 501.621 96.67 501.27ZM171.696 571.803C168.744 571.37 165.752 571.278 162.779 571.53C168.409 573.564 174.405 574.385 180.374 573.939C177.549 572.896 174.615 572.18 171.628 571.803H171.696ZM90.9986 563.16C88.0409 562.726 85.0431 562.634 82.0645 562.886C84.8547 563.926 87.7549 564.642 90.7082 565.022C93.6636 565.481 96.6644 565.572 99.6423 565.295C96.8301 564.251 93.9067 563.534 90.9303 563.16H90.9986ZM173.644 384.682C171.237 386.472 169.042 388.529 167.101 390.815C169.827 389.574 172.405 388.033 174.788 386.22C177.19 384.436 179.369 382.372 181.279 380.07C178.572 381.322 176.011 382.869 173.644 384.682ZM194.928 476.125C192.528 477.889 190.348 479.937 188.437 482.223C191.154 480.991 193.717 479.443 196.073 477.611C198.477 475.851 200.658 473.803 202.564 471.512C199.848 472.762 197.286 474.321 194.928 476.159V476.125ZM120.295 532.018C117.881 533.779 115.694 535.834 113.787 538.134C116.494 536.882 119.055 535.335 121.422 533.522C123.824 531.739 126.018 529.694 127.965 527.423C125.223 528.635 122.645 530.191 120.295 532.053V532.018ZM244.245 451.611C242.477 449.198 240.43 447.002 238.147 445.069C240.674 450.499 244.324 455.332 248.858 459.247C247.631 456.537 246.082 453.985 244.245 451.645V451.611ZM218.81 555.08C217.027 552.678 214.982 550.484 212.711 548.537C213.909 551.28 215.453 553.857 217.306 556.207C219.071 558.613 221.119 560.798 223.405 562.716C222.159 560.009 220.618 557.448 218.81 555.08ZM143.92 473.699C142.147 471.289 140.101 469.094 137.822 467.156C139.033 469.895 140.582 472.472 142.434 474.826C144.194 477.236 146.242 479.422 148.532 481.335C147.288 478.623 145.741 476.062 143.92 473.699Z" fill="white"/>
<path d="M139.222 366.027C100.974 396.861 3.02361 519.051 25.1112 547.289C47.1989 575.526 194.005 562.663 236.626 549.304C249.301 545.341 214.727 464.9 201.026 461.193C189.615 458.101 126.342 476.807 125.112 473.151C123.728 469.017 140.742 446.143 162.369 396.587C187.309 339.429 156.117 352.412 139.222 366.027Z" fill="#EB9481"/>
<path d="M270.125 454.479C299.353 457.896 306.34 463.208 332.527 452.959C349.712 446.245 361.38 454.325 348.807 468.828C328.308 492.556 289.633 496.16 275.882 493.495L270.125 454.479Z" fill="#EB9481"/>
<path d="M188.146 462.219C188.146 462.219 224.413 452.841 255.913 453.353C277.71 453.712 325.028 459.776 357.143 516.336C364.762 529.746 366.112 554.276 345.698 536.835C331.212 524.484 325.763 512.27 316.026 506.616C316.026 506.616 314.027 537.997 300.293 545.12C288.28 551.331 275.841 556.68 263.07 561.126C261.717 558.976 260.507 556.739 259.449 554.43C259.449 554.43 245.988 559.862 225.284 552.329L188.146 462.219Z" fill="#EB9481"/>
<path d="M276.667 457.025C285.208 464.678 302.837 481.179 312.54 499.731C323.404 520.332 338.778 562.936 323.49 570.811C312.284 576.585 304.972 560.818 304.972 560.818C304.972 560.818 307.62 579.779 296.431 582.769C286.182 585.502 281.245 572.963 281.245 572.963C281.245 572.963 280.869 584.733 270.483 585.468C257.978 586.322 260.814 561.552 247.387 551.456C244.364 549.185 276.667 457.025 276.667 457.025Z" fill="#EB9481"/>
<path d="M288.932 507.674C295.765 516.216 306.203 539.448 305.314 560.51C305.314 560.989 304.921 561.228 304.853 560.784C301.649 542.544 296.239 524.762 288.744 507.828C288.724 507.803 288.714 507.771 288.717 507.739C288.721 507.707 288.736 507.678 288.761 507.657C288.786 507.637 288.818 507.627 288.85 507.63C288.882 507.634 288.912 507.649 288.932 507.674Z" fill="#263238"/>
<path d="M268.451 519.155C273.576 527.098 283.296 551.611 281.656 572.879C281.656 573.357 281.229 573.562 281.178 573.118C278.92 554.727 274.582 536.652 268.246 519.24C268.246 519.216 268.253 519.193 268.266 519.173C268.279 519.153 268.298 519.137 268.32 519.128C268.342 519.119 268.366 519.116 268.389 519.121C268.413 519.126 268.434 519.137 268.451 519.155Z" fill="#263238"/>
<path d="M316.077 506.477C324.618 511.602 329.384 517.632 335.739 525.029C338.845 528.732 342.153 532.262 345.647 535.603C348.858 538.592 353.59 543.085 358.407 540.949C361.089 539.754 361.824 536.542 362.046 533.877C362.256 530.881 361.819 527.875 360.765 525.063C360.765 524.926 360.97 524.824 361.021 524.977C362.069 527.458 362.76 530.075 363.071 532.75C363.477 535.264 363.113 537.842 362.029 540.147C359.364 544.861 353.214 543.973 349.354 541.496C347.07 539.914 344.947 538.112 343.016 536.115C341.12 534.253 339.309 532.306 337.55 530.324C333.945 526.224 330.58 521.937 327.027 517.82C323.545 513.894 319.813 510.196 315.855 506.75C315.701 506.614 315.906 506.374 316.077 506.477Z" fill="#263238"/>
<path d="M326.942 543.822C325.934 537.963 318.691 512.783 315.821 506.651C315.803 506.619 315.798 506.581 315.808 506.546C315.817 506.511 315.841 506.481 315.872 506.463C315.904 506.445 315.942 506.44 315.977 506.449C316.012 506.459 316.042 506.482 316.06 506.514C321.475 515.175 328.308 536.203 329.504 542.678C330.7 549.152 331.844 557.163 330.187 563.535C327.693 573.136 320.86 573.306 318.383 573.17C315.457 572.956 312.691 571.751 310.542 569.753C308.095 567.2 306.189 564.179 304.939 560.87C304.939 560.717 305.093 560.58 305.179 560.734C307.536 565.38 312.097 570.556 317.495 571.222C318.69 571.408 319.911 571.352 321.084 571.058C322.258 570.765 323.361 570.24 324.328 569.514C326.355 567.573 327.612 564.964 327.864 562.169C328.609 556.045 328.297 549.84 326.942 543.822Z" fill="#263238"/>
<path d="M281.655 572.877C282.697 574.363 284.422 579.061 288.573 581.042C290.017 581.865 291.639 582.324 293.299 582.381C294.96 582.437 296.609 582.089 298.105 581.367C300.959 579.596 303.011 576.784 303.828 573.526C304.518 569.358 304.89 565.144 304.938 560.919C304.938 560.714 305.195 560.697 305.212 560.919C305.744 565.501 305.582 570.137 304.733 574.671C304.332 576.447 303.58 578.125 302.521 579.606C301.462 581.088 300.117 582.343 298.567 583.297C296.924 584.194 295.066 584.62 293.196 584.526C291.327 584.433 289.52 583.824 287.976 582.768C286.421 581.691 281.911 576.823 281.143 572.997C281.16 572.877 281.604 572.809 281.655 572.877Z" fill="#263238"/>
<path d="M248.704 549.955C249.939 551.323 251.011 552.831 251.899 554.447C252.907 556.155 253.863 557.778 254.769 559.487C256.568 562.939 258.005 566.568 259.056 570.317C260.15 574.075 261.004 578.175 263.583 581.267C264.791 582.795 266.448 583.905 268.322 584.439C270.195 584.972 272.189 584.902 274.021 584.239C275.959 583.469 277.571 582.05 278.582 580.225C279.753 578.256 280.535 576.082 280.888 573.819C280.88 573.798 280.877 573.776 280.88 573.754C280.883 573.732 280.891 573.711 280.904 573.693C280.916 573.675 280.933 573.66 280.953 573.65C280.972 573.64 280.994 573.634 281.016 573.634C281.038 573.634 281.06 573.64 281.079 573.65C281.099 573.66 281.115 573.675 281.128 573.693C281.141 573.711 281.149 573.732 281.151 573.754C281.154 573.776 281.152 573.798 281.144 573.819C280.998 575.871 280.643 577.903 280.085 579.883C279.439 581.662 278.338 583.241 276.89 584.461C275.373 585.62 273.566 586.338 271.668 586.537C269.769 586.736 267.853 586.408 266.128 585.589C262.302 583.88 260.15 580.02 258.817 576.193C257.331 571.94 256.34 567.549 254.649 563.347C253.778 561.126 252.941 558.906 251.882 556.77C250.823 554.635 249.353 552.414 248.465 550.125C248.363 549.989 248.568 549.801 248.704 549.955Z" fill="#263238"/>
<path d="M235.363 555.248C240.763 556.029 246.225 556.298 251.676 556.051C251.847 556.051 251.95 556.546 251.779 556.581C249.076 557.087 246.327 557.299 243.579 557.213C240.793 557.095 238.041 556.56 235.414 555.624C235.192 555.504 235.192 555.214 235.363 555.248Z" fill="#263238"/>
<path d="M67.6289 491.445C76.7607 487.038 86.1974 483.293 95.8662 480.239C105.434 477.248 115.209 474.964 125.111 473.406C130.766 472.467 136.437 471.8 142.194 471.1C142.365 471.1 142.399 471.339 142.194 471.356C132.244 472.967 122.394 475.146 112.692 477.882C103.035 480.513 93.4348 483.32 83.8914 486.303C78.4934 488.012 73.1636 489.925 67.8168 491.787C67.6289 491.924 67.4581 491.565 67.6289 491.445Z" fill="#263238"/>
<path d="M59.3105 440.216L140.264 449.013C140.264 449.013 160.917 411.432 171.662 376.806C182.407 342.18 151.897 348.91 116.246 382.477C80.5953 416.044 59.3105 440.216 59.3105 440.216Z" fill="#FFC727"/>
<path d="M59.3105 440.216L140.264 449.013C140.264 449.013 160.917 411.432 171.662 376.806C182.407 342.18 151.897 348.91 116.246 382.477C80.5953 416.044 59.3105 440.216 59.3105 440.216Z" fill="#FFC727"/>
<path d="M147.61 359.058C147.618 359.144 147.618 359.229 147.61 359.315C147.176 362.272 147.085 365.27 147.337 368.249C148.398 365.448 149.115 362.528 149.472 359.554C149.472 359.041 149.608 358.546 149.66 358.033L147.61 359.058ZM105.211 439.346C104.47 441.21 103.898 443.136 103.503 445.103L105.211 445.274C105.399 443.302 105.399 441.317 105.211 439.346ZM77.1276 421.119L76.3418 421.939C77.2301 421.939 78.05 421.939 79.0237 421.785C78.3746 421.529 77.7596 421.307 77.1276 421.119ZM149.779 426.807C150.258 426.995 150.753 427.183 151.248 427.337C151.337 427.114 151.44 426.897 151.556 426.688C150.975 426.705 150.377 426.739 149.779 426.807ZM124.395 403.951C122.613 401.549 120.567 399.355 118.296 397.409C119.498 400.155 121.042 402.737 122.891 405.096C124.661 407.492 126.708 409.671 128.99 411.587C127.738 408.884 126.197 406.324 124.395 403.951Z" fill="white"/>
<path d="M136.983 448.262C137.427 448.262 140.4 448.262 140.4 448.262C140.758 447.219 147.728 431.179 149.436 427.763C152.955 420.742 156.884 413.909 160.711 407.059C160.83 406.837 161.172 407.059 161.052 407.212C158.353 413.191 155.757 419.17 153.006 425.183C153.69 424.38 154.373 423.577 155.039 422.757C156.389 421.049 157.619 419.341 158.9 417.53C159.019 417.376 159.259 417.53 159.173 417.718C157.951 420.189 156.405 422.487 154.578 424.551C153.802 425.458 152.963 426.308 152.067 427.096C151.845 427.592 151.623 428.104 151.384 428.583C149.675 431.999 141.254 449.218 140.946 449.201L137.051 448.723C136.761 448.791 136.761 448.244 136.983 448.262Z" fill="#263238"/>
<path d="M74.5652 426.463C92.126 427.642 109.636 430.05 127.043 432.784C131.985 433.569 136.893 434.463 141.768 435.466C141.904 435.466 141.904 435.705 141.768 435.688C133.021 434.919 124.292 433.791 115.563 432.715C106.834 431.639 98.0365 430.477 89.3074 429.094C84.3877 428.342 79.4508 427.591 74.5482 426.753C74.3432 426.771 74.3432 426.446 74.5652 426.463Z" fill="#263238"/>
<path d="M167.613 354.104C167.921 357.657 181.143 382.358 196.978 383.879C202.103 384.357 206.049 356.325 206.049 356.325L206.8 354.326L217.443 326.277L186.524 299.543L182.031 295.955C182.031 295.955 179.622 303.813 176.735 313.636C176.599 314.097 176.445 314.558 176.308 315.036C176.172 315.515 175.967 316.113 175.813 316.625C175.369 318.094 174.907 319.58 174.498 321.084C174.173 322.228 173.848 323.339 173.541 324.5C173.233 325.662 172.926 326.892 172.584 328.087C170.337 336.636 168.676 345.329 167.613 354.104Z" fill="#EB9481"/>
<path d="M176.734 313.636C178.495 322.193 182.096 330.264 187.288 337.291C192.479 344.317 199.137 350.13 206.8 354.326L217.442 326.277L186.523 299.543L182.03 295.955C182.03 295.955 179.621 303.813 176.734 313.636Z" fill="#263238"/>
<path d="M226.804 283.194C229.52 295.152 240.282 303.027 250.839 300.652C261.396 298.278 267.734 286.577 265.018 274.55C262.302 262.524 251.54 254.701 240.983 257.092C230.426 259.484 224.088 271.151 226.804 283.194Z" fill="#455A64"/>
<path d="M220.773 285.347C223.813 298.722 235.771 307.417 247.524 304.769C259.277 302.122 266.315 289.122 263.291 275.729C260.267 262.337 248.293 253.659 236.557 256.306C224.821 258.954 217.749 271.937 220.773 285.347Z" fill="#C7C7C7"/>
<path d="M255.315 268.228C269.664 318.878 240.948 333.142 230.016 336.285C220.091 339.086 185.96 347.354 166.452 298.447C146.944 249.54 165.956 226.855 188.3 219.253C210.644 211.651 240.965 217.562 255.315 268.228Z" fill="#EB9481"/>
<path d="M237.686 261.859C236.483 261.978 235.274 262.029 234.065 262.012C232.794 262.255 231.478 262.069 230.324 261.483C229.995 261.229 229.76 260.873 229.655 260.471C229.55 260.07 229.581 259.644 229.743 259.262C230.179 258.558 230.795 257.984 231.528 257.6C232.262 257.215 233.084 257.034 233.911 257.076C235.594 256.888 237.286 257.333 238.66 258.323C238.956 258.571 239.175 258.899 239.291 259.268C239.406 259.637 239.412 260.031 239.31 260.404C239.207 260.776 239 261.112 238.712 261.37C238.424 261.627 238.068 261.797 237.686 261.859Z" fill="#263238"/>
<path d="M204.29 273.645C205.451 273.286 206.591 272.864 207.706 272.381C208.971 272.102 210.11 271.418 210.952 270.434C211.152 270.07 211.226 269.651 211.164 269.24C211.103 268.83 210.908 268.451 210.61 268.162C209.933 267.685 209.14 267.397 208.315 267.328C207.489 267.259 206.66 267.411 205.913 267.769C204.292 268.257 202.911 269.328 202.035 270.776C201.855 271.117 201.778 271.503 201.813 271.888C201.848 272.272 201.993 272.638 202.232 272.942C202.47 273.245 202.791 273.473 203.157 273.598C203.522 273.723 203.915 273.739 204.29 273.645Z" fill="#263238"/>
<path d="M214.538 282.579C214.538 282.442 214.316 282.818 214.367 282.955C215.46 286.371 216.075 290.471 213.342 292.504C213.257 292.504 213.342 292.726 213.427 292.692C217.049 291.069 216.092 285.602 214.538 282.579Z" fill="#263238"/>
<path d="M210.405 279.845C204.734 281.007 207.467 292.247 212.728 291.171C217.99 290.095 215.154 278.872 210.405 279.845Z" fill="#263238"/>
<path d="M208.338 280.972C207.518 281.86 206.817 283.21 205.673 283.62C204.528 284.03 203.008 283.159 201.846 282.236C201.727 282.151 201.641 282.236 201.676 282.424C202.171 284.577 203.538 286.592 205.929 286.353C208.321 286.114 209.158 283.859 209.158 281.553C209.175 281.126 208.679 280.63 208.338 280.972Z" fill="#263238"/>
<path d="M234.508 276.413C234.508 276.276 234.832 276.515 234.849 276.652C235.567 280.171 236.968 284.083 240.401 284.493C240.504 284.493 240.538 284.681 240.401 284.698C236.438 285.056 234.627 279.846 234.508 276.413Z" fill="#263238"/>
<path d="M236.745 272.038C242.246 270.33 245.287 281.434 240.162 283.057C235.037 284.679 232.15 273.49 236.745 272.038Z" fill="#263238"/>
<path d="M239.308 272.126C240.35 272.467 241.512 273.304 242.588 273.082C243.664 272.86 244.398 271.374 244.86 269.99C244.86 269.854 245.031 269.99 245.065 269.99C245.714 272.109 245.628 274.517 243.681 275.491C241.734 276.465 240.042 274.927 238.949 272.946C238.744 272.672 238.881 271.938 239.308 272.126Z" fill="#263238"/>
<path d="M222.431 310.663C223.421 311.33 224.481 312.372 225.847 312.15C227.154 311.866 228.387 311.314 229.469 310.527C229.489 310.502 229.518 310.486 229.55 310.483C229.583 310.48 229.614 310.489 229.639 310.51C229.664 310.53 229.68 310.559 229.683 310.592C229.687 310.624 229.677 310.656 229.657 310.68C229.287 311.47 228.71 312.146 227.989 312.636C227.267 313.126 226.427 313.412 225.557 313.465C224.794 313.427 224.061 313.16 223.452 312.7C222.843 312.241 222.386 311.608 222.14 310.885C222.021 310.698 222.277 310.578 222.431 310.663Z" fill="#263238"/>
<path d="M233.892 293.306C233.892 293.306 235.925 298.311 236.557 300.754C236.557 300.993 228.153 305.093 222.72 300.071C222.664 300.032 222.625 299.973 222.612 299.906C222.599 299.838 222.614 299.769 222.652 299.712C222.691 299.656 222.75 299.617 222.817 299.604C222.885 299.591 222.954 299.605 223.011 299.644C226.674 300.978 230.671 301.092 234.405 299.968C234.405 299.251 230.613 291.513 230.988 291.427C232.931 291.108 234.907 291.05 236.865 291.256C232.902 280.717 227.299 270.894 223.523 260.32C223.49 260.242 223.487 260.154 223.515 260.074C223.543 259.993 223.6 259.926 223.675 259.886C223.749 259.845 223.837 259.834 223.919 259.854C224.002 259.874 224.074 259.925 224.121 259.996C230.732 269.886 235.549 281.929 239.905 292.708C240.486 294.024 235.037 293.477 233.892 293.306Z" fill="#263238"/>
<path d="M234.389 301.148C233.482 303.415 232.012 305.414 230.119 306.956C229.056 307.753 227.774 308.206 226.446 308.254C223.525 308.254 222.756 305.845 222.654 303.573C222.613 302.37 222.71 301.167 222.944 299.986C226.537 301.588 230.548 301.995 234.389 301.148Z" fill="#263238"/>
<path d="M230.117 306.956C229.054 307.753 227.773 308.206 226.445 308.254C223.524 308.254 222.755 305.845 222.652 303.573C225.642 303.044 229.058 304.205 230.117 306.956Z" fill="#FF99BA"/>
<path d="M168.896 296.757C178.701 297.389 179.828 274.959 179.828 274.959C179.828 274.959 220.826 265.41 222.295 231.45C222.295 231.45 230.717 252.53 253.044 260.935C253.044 260.935 249.337 224.037 219.579 218.638C219.579 218.638 182.374 207.603 163.668 237.737C144.963 267.87 162.319 296.329 168.896 296.757Z" fill="#263238"/>
<path d="M222.294 228.939C223.103 234.12 222.795 239.415 221.388 244.467C220.061 249.601 217.676 254.402 214.385 258.56C213.578 259.606 212.705 260.598 211.771 261.533L210.404 262.985C209.926 263.429 209.414 263.839 208.901 264.266C207.876 265.086 206.885 265.974 205.826 266.743C204.767 267.511 203.606 268.143 202.41 268.827C201.846 269.151 201.299 269.51 200.702 269.818L198.993 270.637L195.423 272.26C192.963 273.114 190.469 273.832 187.992 274.515C190.298 273.337 192.69 272.397 194.962 271.218L198.293 269.339L200.001 268.4C200.531 268.058 201.026 267.665 201.539 267.289C202.564 266.538 203.588 265.803 204.63 265.086C205.673 264.368 206.51 263.377 207.449 262.609L208.867 261.362L210.131 259.961C211 259.064 211.816 258.117 212.574 257.125C215.678 253.165 218.087 248.705 219.697 243.938C220.521 241.544 221.15 239.087 221.576 236.592C222.031 234.066 222.271 231.506 222.294 228.939Z" fill="#263238"/>
<path d="M176.206 296.227C176.206 296.227 161.823 282.237 155.28 287.686C148.737 293.136 161.703 314.899 170.911 316.436C172.077 316.717 173.289 316.758 174.472 316.559C175.655 316.359 176.786 315.922 177.796 315.274C178.806 314.626 179.675 313.781 180.35 312.789C181.025 311.796 181.492 310.678 181.724 309.501L176.206 296.227Z" fill="#EB9481"/>
<path d="M159.157 293.818C159.125 293.818 159.095 293.831 159.072 293.853C159.05 293.876 159.037 293.906 159.037 293.938C159.037 293.97 159.05 294 159.072 294.023C159.095 294.045 159.125 294.058 159.157 294.058C165.665 295.339 169.902 300.327 173.25 305.691C171.029 303.812 168.347 303.06 165.768 305.691C165.631 305.844 165.768 306.049 165.99 305.981C166.987 305.444 168.127 305.227 169.252 305.362C170.377 305.496 171.433 305.975 172.276 306.733C173.678 308.005 174.938 309.425 176.034 310.969C176.41 311.465 177.332 310.969 177.008 310.405L176.922 310.269C175.59 302.684 167.544 293.016 159.157 293.818Z" fill="#263238"/>
<path d="M166.366 289.103C166.366 289.103 157.039 264.248 160.267 248.02C163.855 229.947 186.25 209.328 211.856 217.05C211.856 217.05 181.398 221.611 170.636 246.09C165.682 257.364 175.044 287.207 175.044 287.207L166.366 289.103Z" fill="#C7C7C7"/>
<path d="M180.751 324.528C192.056 321.007 197.965 307.704 193.951 294.814C189.936 281.924 177.517 274.329 166.213 277.85C154.908 281.371 148.999 294.674 153.013 307.564C157.028 320.454 169.447 328.049 180.751 324.528Z" fill="#C7C7C7"/>
<path d="M187.787 295.852C191.391 307.434 186.079 319.392 175.829 322.552C165.58 325.712 154.51 318.896 150.889 307.314C147.267 295.732 152.597 283.775 162.846 280.597C173.096 277.42 184.182 284.338 187.787 295.852Z" fill="#455A64"/>
<path d="M206.68 354.496L197.285 378.206L167.732 348.397L159.447 358.032C159.447 358.032 188.487 405.487 188.59 403.335L198.259 382.836L212.403 396.963L211.122 361.397L206.68 354.496Z" fill="#EBEBEB"/>
<path d="M212.83 379.367C212.403 373.508 212.164 367.563 211.481 361.721C211.481 361.516 211.122 361.431 211.071 361.721C209.926 367.392 211.617 389.856 211.617 395.237C211.037 394.622 198.515 382.801 198.396 382.989C196.294 386.234 189.205 401.13 188.727 402.48C184.132 394.947 164.692 365.24 159.277 358.065C159.244 358.033 159.202 358.012 159.157 358.006C159.111 358 159.065 358.01 159.025 358.034C158.986 358.057 158.956 358.093 158.939 358.136C158.923 358.179 158.921 358.227 158.935 358.27C162.984 366.231 188.095 405.435 188.454 405.333C192.189 398.306 195.565 391.093 198.566 383.723C200.685 386.303 213.326 399.644 213.36 398.773C213.518 392.3 213.342 385.822 212.83 379.367Z" fill="#263238"/>
<path d="M377.641 196.516C376.616 206.343 372.88 215.691 366.851 223.518C360.822 231.345 352.736 237.343 343.497 240.842C334.257 244.341 324.227 245.204 314.526 243.335C304.824 241.465 295.833 236.936 288.556 230.254L261.873 234.166L275.232 211.105C272.208 203.604 270.931 195.513 271.496 187.445C272.062 179.377 274.456 171.544 278.496 164.538C282.537 157.532 288.118 151.537 294.818 147.008C301.518 142.478 309.161 139.531 317.168 138.392C325.174 137.252 333.336 137.949 341.033 140.43C348.731 142.91 355.764 147.11 361.598 152.71C367.433 158.31 371.917 165.165 374.712 172.754C377.506 180.344 378.537 188.47 377.726 196.516H377.641Z" fill="white"/>
<path d="M377.641 196.518C376.608 206.35 372.884 215.706 366.879 223.559C363.929 227.482 360.404 230.937 356.424 233.809C352.494 236.787 348.164 239.197 343.561 240.966C338.955 242.768 334.119 243.918 329.195 244.383C326.736 244.608 324.264 244.653 321.798 244.519C319.322 244.461 316.854 244.204 314.418 243.751C304.579 241.98 295.428 237.502 287.992 230.819L288.624 231.007L261.975 235.107L260.045 235.397L261.019 233.689L274.326 210.577V211.499C271.197 203.855 269.867 195.593 270.439 187.353C271.01 179.113 273.468 171.115 277.623 163.976C281.771 156.863 287.477 150.783 294.312 146.193C301.142 141.67 308.907 138.752 317.025 137.657C325.143 136.563 333.403 137.32 341.187 139.872C348.875 142.499 355.879 146.813 361.686 152.496C367.5 158.15 371.957 165.049 374.72 172.674C377.484 180.299 378.482 188.451 377.641 196.518ZM377.641 196.518C378.493 188.487 377.49 180.368 374.709 172.787C371.928 165.205 367.444 158.363 361.601 152.788C355.759 147.213 348.715 143.054 341.011 140.631C333.307 138.208 325.15 137.586 317.169 138.813C309.261 140.001 301.729 142.981 295.149 147.525C288.633 152.096 283.189 158.03 279.194 164.915C275.264 171.825 272.951 179.536 272.43 187.469C271.909 195.401 273.194 203.349 276.188 210.713L276.376 211.192L276.12 211.619L262.693 234.646L261.736 233.228L288.436 229.487H288.812L289.068 229.743C296.223 236.421 305.095 240.976 314.692 242.897C317.074 243.375 319.49 243.666 321.918 243.768C324.346 243.939 326.783 243.939 329.212 243.768C334.082 243.388 338.877 242.336 343.459 240.642C348.067 238.982 352.402 236.644 356.322 233.706C360.328 230.854 363.866 227.396 366.81 223.457C372.834 215.647 376.582 206.324 377.641 196.518Z" fill="#263238"/>
<path d="M347.883 199.045C351.449 199.045 354.34 196.154 354.34 192.588C354.34 189.022 351.449 186.131 347.883 186.131C344.317 186.131 341.426 189.022 341.426 192.588C341.426 196.154 344.317 199.045 347.883 199.045Z" fill="#263238"/>
<path d="M324.736 199.045C328.303 199.045 331.194 196.154 331.194 192.588C331.194 189.022 328.303 186.131 324.736 186.131C321.17 186.131 318.279 189.022 318.279 192.588C318.279 196.154 321.17 199.045 324.736 199.045Z" fill="#263238"/>
<path d="M301.606 199.045C305.172 199.045 308.063 196.154 308.063 192.588C308.063 189.022 305.172 186.131 301.606 186.131C298.039 186.131 295.148 189.022 295.148 192.588C295.148 196.154 298.039 199.045 301.606 199.045Z" fill="#263238"/>
<path d="M908.084 196.516C907.059 206.343 903.323 215.691 897.294 223.518C891.265 231.345 883.179 237.343 873.94 240.842C864.7 244.341 854.67 245.204 844.969 243.334C835.268 241.465 826.277 236.936 818.999 230.254L792.316 234.166L805.658 211.105C802.621 203.6 801.334 195.502 801.892 187.425C802.45 179.348 804.84 171.505 808.881 164.489C812.921 157.473 818.505 151.469 825.211 146.932C831.916 142.396 839.566 139.445 847.581 138.304C855.597 137.163 863.766 137.862 871.471 140.348C879.176 142.834 886.214 147.041 892.051 152.651C897.889 158.261 902.372 165.126 905.162 172.726C907.951 180.327 908.974 188.462 908.153 196.516H908.084Z" fill="white"/>
<path d="M908.085 196.517C907.045 206.347 903.322 215.702 897.323 223.559C895.823 225.503 894.208 227.357 892.489 229.111C890.71 230.814 888.827 232.405 886.851 233.877C882.926 236.862 878.595 239.272 873.988 241.034C869.388 242.837 864.558 243.987 859.639 244.451C857.174 244.675 854.697 244.721 852.225 244.587C849.749 244.528 847.281 244.27 844.846 243.818C835.016 242.013 825.883 237.506 818.47 230.802L819.102 230.99L792.454 235.089L790.523 235.38L791.497 233.672L804.77 210.559V211.481C801.643 203.838 800.312 195.578 800.88 187.338C801.449 179.099 803.902 171.1 808.05 163.958C812.205 156.845 817.916 150.765 824.757 146.175C831.586 141.652 839.351 138.734 847.469 137.64C855.587 136.545 863.847 137.302 871.631 139.855C879.321 142.48 886.325 146.793 892.13 152.479C897.95 158.132 902.41 165.034 905.174 172.662C907.938 180.291 908.933 188.448 908.085 196.517ZM908.085 196.517C908.937 188.487 907.934 180.368 905.153 172.786C902.373 165.204 897.888 158.362 892.046 152.787C886.203 147.212 879.159 143.053 871.455 140.63C863.752 138.207 855.595 137.586 847.613 138.813C839.705 140.001 832.174 142.98 825.594 147.525C819.077 152.096 813.633 158.03 809.639 164.915C805.681 171.822 803.344 179.538 802.806 187.481C802.304 195.407 803.582 203.345 806.547 210.713L806.752 211.191L806.496 211.618L793.069 234.645L792.112 233.227L818.812 229.486H819.188L819.444 229.743C826.575 236.407 835.416 240.96 844.982 242.896C847.365 243.374 849.781 243.666 852.208 243.767C854.637 243.938 857.074 243.938 859.502 243.767C864.373 243.387 869.167 242.335 873.749 240.641C878.356 238.978 882.691 236.641 886.612 233.706C890.608 230.847 894.14 227.39 897.084 223.456C903.175 215.669 906.983 206.342 908.085 196.517Z" fill="#263238"/>
<path d="M878.242 199.045C881.809 199.045 884.699 196.154 884.699 192.588C884.699 189.022 881.809 186.131 878.242 186.131C874.676 186.131 871.785 189.022 871.785 192.588C871.785 196.154 874.676 199.045 878.242 199.045Z" fill="#263238"/>
<path d="M855.113 199.045C858.68 199.045 861.571 196.154 861.571 192.588C861.571 189.022 858.68 186.131 855.113 186.131C851.547 186.131 848.656 189.022 848.656 192.588C848.656 196.154 851.547 199.045 855.113 199.045Z" fill="#263238"/>
<path d="M838.44 192.587C838.443 193.864 838.067 195.115 837.36 196.179C836.652 197.243 835.645 198.073 834.465 198.564C833.286 199.056 831.987 199.186 830.733 198.939C829.48 198.692 828.327 198.078 827.423 197.176C826.518 196.273 825.901 195.123 825.651 193.87C825.4 192.617 825.527 191.317 826.015 190.137C826.503 188.956 827.331 187.946 828.393 187.236C829.456 186.526 830.705 186.146 831.983 186.146C833.692 186.146 835.332 186.824 836.542 188.032C837.753 189.239 838.435 190.877 838.44 192.587Z" fill="#263238"/>
<path d="M289.36 574.588H277.932V582.053H289.36V574.588Z" fill="#455A64"/>
<path d="M304.188 574.093H292.76V581.558H304.188V574.093Z" fill="#455A64"/>
<path d="M319.014 573.599H307.586V581.064H319.014V573.599Z" fill="#455A64"/>
<path d="M333.825 573.103H322.396V580.568H333.825V573.103Z" fill="#455A64"/>
<path d="M348.653 572.606H337.225V580.071H348.653V572.606Z" fill="#455A64"/>
<path d="M363.481 572.13H352.053V579.595H363.481V572.13Z" fill="#455A64"/>
<path d="M378.291 571.633H366.863V579.098H378.291V571.633Z" fill="#455A64"/>
<path d="M393.12 571.139H381.691V578.604H393.12V571.139Z" fill="#455A64"/>
<path d="M407.93 570.643H396.502V578.108H407.93V570.643Z" fill="#455A64"/>
<path d="M410.731 586.341H275.131V577.254L410.731 573.478V586.341Z" fill="#37474F"/>
<path d="M543.085 550.537H319.236L354.836 383.88H578.685L543.085 550.537Z" fill="#455A64"/>
<path d="M551.369 550.537H327.504L363.104 383.88H586.969L551.369 550.537Z" fill="#37474F"/>
<path d="M476.583 457.557C475.897 461.351 473.93 464.795 471.011 467.313C468.091 469.831 464.397 471.272 460.543 471.394C458.804 471.448 457.076 471.107 455.487 470.397C453.899 469.687 452.492 468.627 451.373 467.295C450.253 465.964 449.45 464.396 449.023 462.709C448.597 461.022 448.558 459.261 448.91 457.557C449.589 453.762 451.551 450.314 454.468 447.792C457.385 445.271 461.079 443.827 464.933 443.703C466.675 443.646 468.408 443.985 470 444.695C471.592 445.404 473.002 446.466 474.123 447.8C475.245 449.134 476.05 450.706 476.476 452.396C476.902 454.086 476.939 455.851 476.583 457.557Z" fill="#263238"/>
<path d="M488.063 594.062H377.967V585.504L488.063 581.95V594.062Z" fill="#455A64"/>
<path d="M517.992 594.045H458.869L423.27 500.655H482.392L517.992 594.045Z" fill="#455A64"/>
<path d="M527.711 594.045H468.606L433.006 500.655H492.111L527.711 594.045Z" fill="#263238"/>
<path d="M270.911 596.336H157.449C147.763 596.336 161.771 568.748 197.131 558.174C232.492 547.6 282.1 585.984 270.911 596.336Z" fill="#37474F"/>
<path d="M226.496 596.335C226.572 593.192 227.09 590.076 228.034 587.077C228.944 584.045 230.224 581.136 231.843 578.416C233.466 575.679 235.5 573.207 237.873 571.087C240.226 568.984 242.933 567.313 245.868 566.151C244.655 567.141 243.271 567.859 242.161 568.935L240.452 570.421L238.847 572.129C236.748 574.327 234.909 576.757 233.363 579.372C231.792 581.988 230.444 584.731 229.332 587.572C228.192 590.427 227.245 593.354 226.496 596.335Z" fill="#263238"/>
<path d="M239.855 570.08C246.607 572.217 252.995 575.368 258.8 579.424C261.738 581.454 264.397 583.861 266.709 586.582C269.135 589.289 270.61 592.714 270.911 596.336C269.971 592.996 268.168 589.962 265.684 587.538C263.264 585.073 260.615 582.843 257.775 580.876C254.956 578.843 252.001 577.016 248.995 575.222C245.988 573.428 242.964 571.737 239.855 570.08Z" fill="#263238"/>
<path d="M813.551 574.588H802.123V582.053H813.551V574.588Z" fill="#455A64"/>
<path d="M828.381 574.093H816.953V581.558H828.381V574.093Z" fill="#455A64"/>
<path d="M843.207 573.599H831.779V581.064H843.207V573.599Z" fill="#455A64"/>
<path d="M858.018 573.103H846.59V580.568H858.018V573.103Z" fill="#455A64"/>
<path d="M872.844 572.606H861.416V580.071H872.844V572.606Z" fill="#455A64"/>
<path d="M887.672 572.13H876.244V579.595H887.672V572.13Z" fill="#455A64"/>
<path d="M902.483 571.633H891.055V579.098H902.483V571.633Z" fill="#455A64"/>
<path d="M917.311 571.139H905.883V578.604H917.311V571.139Z" fill="#455A64"/>
<path d="M932.137 570.643H920.709V578.108H932.137V570.643Z" fill="#455A64"/>
<path d="M934.94 586.341H799.34V577.254L934.94 573.478V586.341Z" fill="#37474F"/>
<path d="M1067.28 550.537H843.43L879.029 383.88H1102.88L1067.28 550.537Z" fill="#455A64"/>
<path d="M1075.56 550.537H851.713L887.313 383.88H1111.16L1075.56 550.537Z" fill="#37474F"/>
<path d="M1000.77 457.557C1000.09 461.348 998.125 464.79 995.209 467.308C992.293 469.826 988.602 471.268 984.752 471.394C983.011 471.451 981.281 471.112 979.69 470.403C978.1 469.694 976.691 468.634 975.569 467.302C974.448 465.97 973.643 464.401 973.216 462.713C972.788 461.025 972.749 459.262 973.101 457.557C973.784 453.763 975.747 450.317 978.663 447.796C981.579 445.275 985.272 443.83 989.125 443.703C990.867 443.646 992.599 443.985 994.191 444.695C995.783 445.404 997.193 446.466 998.315 447.8C999.437 449.134 1000.24 450.706 1000.67 452.396C1001.09 454.086 1001.13 455.851 1000.77 457.557Z" fill="#263238"/>
<path d="M1012.25 594.062H902.158V585.504L1012.25 581.95V594.062Z" fill="#455A64"/>
<path d="M1042.18 594.045H983.061L947.461 500.655H1006.58L1042.18 594.045Z" fill="#455A64"/>
<path d="M1051.92 594.045H992.799L957.199 500.655H1016.32L1051.92 594.045Z" fill="#263238"/>
<path d="M795.153 596.336H681.64C671.955 596.336 685.962 568.748 721.323 558.174C756.684 547.6 806.291 585.984 795.153 596.336Z" fill="#37474F"/>
<path d="M750.604 596.335C750.688 593.193 751.205 590.077 752.141 587.077C753.059 584.048 754.338 581.14 755.95 578.416C757.584 575.687 759.617 573.217 761.98 571.087C764.334 568.984 767.04 567.313 769.975 566.151C768.762 567.141 767.379 567.859 766.268 568.935L764.56 570.421L762.954 572.129C760.845 574.322 758.999 576.752 757.454 579.372C755.883 581.988 754.534 584.731 753.422 587.572C752.288 590.427 751.347 593.355 750.604 596.335Z" fill="#263238"/>
<path d="M764.047 570.08C770.799 572.217 777.186 575.368 782.991 579.424C785.931 581.458 788.595 583.864 790.918 586.582C793.336 589.27 794.822 592.667 795.154 596.267C794.207 592.926 792.399 589.892 789.91 587.47C787.489 585.005 784.841 582.774 782.001 580.808C779.199 578.775 776.227 576.947 773.22 575.154C770.214 573.36 767.173 571.737 764.047 570.08Z" fill="#263238"/>
</svg>
