<svg width="639" height="476" viewBox="0 0 639 476" fill="none" xmlns="http://www.w3.org/2000/svg">
<path d="M638.5 418.069H0.5V418.388H638.5V418.069Z" fill="#EBEBEB"/>
<path d="M574.574 438.599H532.312V438.918H574.574V438.599Z" fill="#EBEBEB"/>
<path d="M423.135 442.071H412.047V442.39H423.135V442.071Z" fill="#EBEBEB"/>
<path d="M531.035 426.759H506.549V427.078H531.035V426.759Z" fill="#EBEBEB"/>
<path d="M122.55 428.903H67.4395V429.222H122.55V428.903Z" fill="#EBEBEB"/>
<path d="M141.995 428.903H133.918V429.222H141.995V428.903Z" fill="#EBEBEB"/>
<path d="M287.792 434.287H168.256V434.606H287.792V434.287Z" fill="#EBEBEB"/>
<path d="M302.912 361.159H56.5291C54.5989 361.156 52.749 360.387 51.3854 359.021C50.0217 357.655 49.2559 355.804 49.2559 353.873V7.5288C49.2727 5.60973 50.046 3.77478 51.4078 2.42253C52.7696 1.07027 54.6099 0.309928 56.5291 0.306641H302.912C304.844 0.306641 306.697 1.07427 308.064 2.44065C309.43 3.80703 310.198 5.66024 310.198 7.5926V353.873C310.198 355.806 309.43 357.659 308.064 359.025C306.697 360.392 304.844 361.159 302.912 361.159ZM56.5291 0.561842C54.6835 0.565222 52.9147 1.30073 51.6109 2.60692C50.3071 3.91311 49.5749 5.68326 49.5749 7.5288V353.873C49.5749 355.719 50.3071 357.489 51.6109 358.795C52.9147 360.102 54.6835 360.837 56.5291 360.84H302.912C304.759 360.837 306.529 360.102 307.835 358.796C309.14 357.49 309.876 355.72 309.879 353.873V7.5288C309.876 5.68208 309.14 3.91197 307.835 2.60614C306.529 1.30031 304.759 0.565215 302.912 0.561842H56.5291Z" fill="#EBEBEB"/>
<path d="M578.924 361.159H332.528C330.597 361.156 328.746 360.387 327.38 359.022C326.014 357.656 325.246 355.805 325.242 353.873V7.5288C325.262 5.60856 326.038 3.77363 327.402 2.42173C328.766 1.06983 330.608 0.309892 332.528 0.306641H578.924C580.841 0.313282 582.678 1.07511 584.037 2.42701C585.396 3.7789 586.167 5.61193 586.184 7.5288V353.873C586.184 355.801 585.42 357.651 584.059 359.016C582.698 360.382 580.852 361.153 578.924 361.159ZM332.528 0.561842C330.681 0.565215 328.911 1.30031 327.605 2.60614C326.3 3.91197 325.565 5.68208 325.561 7.5288V353.873C325.565 355.72 326.3 357.49 327.605 358.796C328.911 360.102 330.681 360.837 332.528 360.84H578.924C580.77 360.837 582.541 360.102 583.846 358.796C585.152 357.49 585.887 355.72 585.891 353.873V7.5288C585.887 5.68208 585.152 3.91197 583.846 2.60614C582.541 1.30031 580.77 0.565215 578.924 0.561842H332.528Z" fill="#EBEBEB"/>
<path d="M344.357 418.07H561.954L577.393 36.2651H359.797L344.357 418.07Z" fill="#E6E6E6"/>
<path d="M339.035 418.07H556.631L572.071 36.2651H354.475L339.035 418.07Z" fill="#F0F0F0"/>
<path d="M546.206 407.209L560.778 47.1221H364.899L350.34 407.209H546.206Z" fill="#FAFAFA"/>
<path d="M132.426 110.374L143.808 138.446C143.476 219.612 147.151 224.295 147.177 238.255H118.441C117.408 170.308 127.475 185.581 132.426 110.374Z" fill="#EBEBEB"/>
<path d="M148.517 193.264C125.332 129.566 72.0715 149.293 74.5086 172.567C76.9458 195.841 161.774 229.898 148.517 193.264Z" fill="#EBEBEB"/>
<path d="M139.724 229.986C127.092 188.937 93.5332 195.636 93.5332 214.495C93.5332 233.355 146.985 253.605 139.724 229.986Z" fill="#EBEBEB"/>
<path d="M138.819 155.902C119.002 101.034 69.6466 108.575 73.6278 131.735C77.6089 154.894 150.213 187.458 138.819 155.902Z" fill="#EBEBEB"/>
<path d="M138.958 131.289C140.795 93.9021 103.766 78.5136 106.331 100.856C108.895 123.199 137.899 152.79 138.958 131.289Z" fill="#EBEBEB"/>
<path d="M136.19 169.568C144.012 123.505 191.454 105.972 186.158 132.054C180.863 158.135 131.698 196.058 136.19 169.568Z" fill="#EBEBEB"/>
<path d="M132.196 143.525C122.983 95.2153 165.601 73.753 166.826 97.04C168.051 120.327 137.491 171.29 132.196 143.525Z" fill="#EBEBEB"/>
<path d="M128.496 198.087C147.33 151.538 187.651 163.086 183.581 184.268C179.51 205.449 117.663 224.883 128.496 198.087Z" fill="#EBEBEB"/>
<path d="M137.798 230.599C137.377 200.562 164.594 192.803 164.951 210.183C165.308 227.562 138.027 247.85 137.798 230.599Z" fill="#EBEBEB"/>
<path d="M129.465 266.991C122.31 267.012 115.364 264.586 109.777 260.116C104.191 255.646 100.3 249.4 98.7518 242.415C98.0077 238.67 96.936 234.998 95.5491 231.441L95.3066 230.867H163.598L163.356 231.441C161.969 234.998 160.897 238.67 160.153 242.415C158.608 249.397 154.722 255.641 149.14 260.111C143.558 264.581 136.616 267.008 129.465 266.991Z" fill="#E0E0E0"/>
<path d="M63.5348 418.056H93.8398L93.8398 266.939H63.5348L63.5348 418.056Z" fill="#E6E6E6"/>
<path d="M72.632 418.07H63.5469V399.861H82.151L72.632 418.07Z" fill="#F0F0F0"/>
<path d="M271.265 418.056H301.57V266.939H271.265V418.056Z" fill="#E6E6E6"/>
<path d="M63.5338 411.995H279.178V266.939H63.5338L63.5338 411.995Z" fill="#F0F0F0"/>
<path d="M270.106 418.07H279.191V399.861H260.574L270.106 418.07Z" fill="#F0F0F0"/>
<path d="M70.5906 335.192H272.135V277.147H70.5906V335.192Z" fill="#E6E6E6"/>
<path d="M125.025 295.189H211.589C220.457 295.189 228.93 288.03 235.029 275.385H101.598C107.684 288.03 116.17 295.189 125.025 295.189Z" fill="#F0F0F0"/>
<path d="M70.5906 402.629H272.135V344.584H70.5906V402.629Z" fill="#E6E6E6"/>
<path d="M125.025 362.614H211.589C220.457 362.614 228.93 355.456 235.029 342.811H101.598C107.684 355.456 116.17 362.614 125.025 362.614Z" fill="#F0F0F0"/>
<path d="M319.499 475.693C456.137 475.693 566.903 469.226 566.903 461.249C566.903 453.272 456.137 446.805 319.499 446.805C182.862 446.805 72.0957 453.272 72.0957 461.249C72.0957 469.226 182.862 475.693 319.499 475.693Z" fill="#F5F5F5"/>
<path d="M517.113 332.832H186.936C185.242 332.857 183.563 332.524 182.008 331.853C180.453 331.182 179.057 330.19 177.914 328.941C176.77 327.692 175.903 326.215 175.371 324.608C174.839 323 174.653 321.298 174.827 319.613L194.656 83.553C195.014 79.9782 196.67 76.6588 199.311 74.2228C201.951 71.7868 205.393 70.4031 208.985 70.3336H539.163C540.856 70.3108 542.535 70.646 544.09 71.3172C545.644 71.9885 547.04 72.9806 548.184 74.2287C549.329 75.4768 550.196 76.9527 550.731 78.5595C551.265 80.1664 551.454 81.8681 551.285 83.553L531.456 319.613C531.092 323.188 529.432 326.506 526.79 328.941C524.148 331.376 520.706 332.76 517.113 332.832Z" fill="#FFC000"/>
<path opacity="0.7" d="M517.113 332.832H186.936C185.242 332.857 183.563 332.524 182.008 331.853C180.453 331.182 179.057 330.19 177.914 328.941C176.77 327.692 175.903 326.215 175.371 324.608C174.839 323 174.653 321.298 174.827 319.613L194.656 83.553C195.014 79.9782 196.67 76.6588 199.311 74.2228C201.951 71.7868 205.393 70.4031 208.985 70.3336H539.163C540.856 70.3108 542.535 70.646 544.09 71.3172C545.644 71.9885 547.04 72.9806 548.184 74.2287C549.329 75.4768 550.196 76.9527 550.731 78.5595C551.265 80.1664 551.454 81.8681 551.285 83.553L531.456 319.613C531.092 323.188 529.432 326.506 526.79 328.941C524.148 331.376 520.706 332.76 517.113 332.832Z" fill="white"/>
<path d="M187.37 327.729C186.329 327.747 185.297 327.544 184.34 327.134C183.384 326.723 182.526 326.114 181.822 325.347C181.119 324.579 180.587 323.672 180.261 322.683C179.935 321.695 179.822 320.649 179.931 319.613L199.76 83.5535C199.978 81.3571 200.996 79.3173 202.619 77.8213C204.242 76.3254 206.357 75.4773 208.564 75.4381H538.729C539.77 75.42 540.803 75.6229 541.76 76.0335C542.717 76.4441 543.576 77.0529 544.28 77.8199C544.984 78.5868 545.518 79.4944 545.846 80.4828C546.173 81.4711 546.288 82.5177 546.181 83.5535L526.352 319.613C526.133 321.81 525.116 323.85 523.493 325.346C521.87 326.842 519.754 327.69 517.548 327.729H187.37Z" fill="white"/>
<path d="M218.197 91.8848H225.075L224.922 93.6839H222.625L222.153 99.1835H219.894L220.366 93.6839H218.057L218.197 91.8848Z" fill="#FFC000"/>
<path d="M229.376 97.9841H226.824L226.364 99.1835H224.055L227.423 91.8848H229.886L232.017 99.1835H229.644L229.376 97.9841ZM229.031 96.4018L228.444 93.7733L227.436 96.4018H229.031Z" fill="#FFC000"/>
<path d="M232.528 96.7722L234.685 96.6318C234.686 96.914 234.761 97.191 234.902 97.4357C235.012 97.5838 235.157 97.7021 235.324 97.7801C235.491 97.8581 235.675 97.8932 235.859 97.8823C236.133 97.8999 236.405 97.8184 236.624 97.6526C236.709 97.592 236.781 97.514 236.833 97.4238C236.886 97.3337 236.919 97.2333 236.931 97.1295C236.942 97.0341 236.929 96.9374 236.893 96.8482C236.858 96.7591 236.8 96.6803 236.726 96.6191C236.391 96.3915 236.006 96.2471 235.603 96.198C234.86 96.0733 234.158 95.7665 233.562 95.3048C233.37 95.1257 233.224 94.9044 233.133 94.6585C233.042 94.4126 233.01 94.1489 233.039 93.8884C233.082 93.504 233.227 93.1382 233.46 92.8293C233.731 92.4763 234.093 92.203 234.506 92.0382C235.091 91.8277 235.71 91.7324 236.331 91.7575C237.067 91.6997 237.801 91.8834 238.423 92.2807C238.665 92.4819 238.856 92.7365 238.982 93.0244C239.109 93.3123 239.166 93.6255 239.151 93.9395L237.02 94.0543C237.015 93.7877 236.911 93.5325 236.726 93.3397C236.515 93.1792 236.251 93.102 235.986 93.1228C235.773 93.1077 235.562 93.1663 235.387 93.2887C235.32 93.3329 235.263 93.3913 235.221 93.4596C235.18 93.5279 235.153 93.6046 235.144 93.6842C235.142 93.7446 235.153 93.8047 235.177 93.86C235.202 93.9153 235.238 93.9643 235.284 94.0032C235.505 94.1535 235.759 94.2457 236.025 94.2712C236.737 94.404 237.431 94.6225 238.092 94.922C238.453 95.0991 238.755 95.3786 238.959 95.7259C239.127 96.0611 239.194 96.438 239.151 96.8105C239.104 97.2732 238.932 97.7144 238.653 98.0865C238.355 98.4849 237.953 98.7938 237.492 98.9797C236.923 99.1997 236.315 99.3038 235.706 99.2859C235.254 99.344 234.795 99.3108 234.357 99.188C233.919 99.0652 233.509 98.8555 233.154 98.5713C232.721 98.0748 232.497 97.4301 232.528 96.7722Z" fill="#FFC000"/>
<path d="M240.72 91.8848H242.94L242.71 94.6409L245.262 91.8848H248.261L245.492 94.6409L247.891 99.1835H245.122L243.846 96.1849L242.57 97.4609L242.417 99.2345H240.158L240.72 91.8848Z" fill="#FFC000"/>
<path d="M252.6 91.8849H256.351C256.672 91.8556 256.996 91.8914 257.303 91.9901C257.61 92.0887 257.894 92.2483 258.138 92.4591C258.335 92.683 258.48 92.9481 258.562 93.2351C258.643 93.5221 258.66 93.8237 258.61 94.1179C258.577 94.7787 258.289 95.4009 257.806 95.8533C257.212 96.3077 256.472 96.53 255.726 96.4785H254.45L254.22 99.1836H251.949L252.6 91.8849ZM254.603 94.9983H255.165C255.492 95.0263 255.819 94.9456 256.096 94.7687C256.187 94.6983 256.263 94.6098 256.317 94.5087C256.372 94.4077 256.406 94.2963 256.415 94.1817C256.431 93.9745 256.367 93.7692 256.237 93.6075C256.121 93.5107 255.986 93.4392 255.841 93.3974C255.696 93.3557 255.544 93.3447 255.394 93.3651H254.744L254.603 94.9983Z" fill="#FFC000"/>
<path d="M263.1 97.9841H260.548L260.089 99.1835H257.779L261.148 91.8848H263.611L265.742 99.1835H263.355L263.1 97.9841ZM262.756 96.4018L262.169 93.7733L261.161 96.4018H262.756Z" fill="#FFC000"/>
<path d="M267.07 91.8848H269.175L271.587 95.9169L271.931 91.8848H274.062L273.45 99.1835H271.319L268.92 95.1769L268.575 99.1835H266.457L267.07 91.8848Z" fill="#FFC000"/>
<path d="M275.554 91.8848H281.602L281.475 93.4415H277.647L277.545 94.6026H281.066L280.939 96.0956H277.43L277.302 97.5374H281.219L281.079 99.1835H274.916L275.554 91.8848Z" fill="#FFC000"/>
<path d="M282.929 91.8848H285.187L284.728 97.3843H288.25L288.097 99.1835H282.316L282.929 91.8848Z" fill="#FFC000"/>
<path opacity="0.1" d="M323.329 102.45H304.189C303.685 102.459 303.184 102.359 302.72 102.159C302.257 101.96 301.841 101.663 301.501 101.29C301.16 100.918 300.903 100.477 300.747 99.9967C300.59 99.5169 300.537 99.0092 300.591 98.5073L301.152 91.7062C301.264 90.6429 301.76 89.657 302.547 88.9334C303.334 88.2097 304.358 87.7983 305.427 87.7761H324.567C325.07 87.77 325.569 87.8702 326.03 88.07C326.492 88.2699 326.906 88.565 327.246 88.936C327.585 89.307 327.843 89.7455 328.001 90.2229C328.16 90.7003 328.216 91.2057 328.165 91.7062L327.54 98.5583C327.427 99.6062 326.938 100.577 326.164 101.293C325.39 102.008 324.383 102.419 323.329 102.45Z" fill="#FFC000"/>
<path opacity="0.1" d="M524.13 99.4998C526.78 96.9586 527.034 92.9234 524.698 90.4871C522.362 88.0507 518.319 88.1357 515.669 90.677C513.019 93.2182 512.765 97.2534 515.102 99.6897C517.438 102.126 521.48 102.041 524.13 99.4998Z" fill="#FFC000"/>
<path opacity="0.1" d="M498.616 99.5028C501.266 96.9615 501.521 92.9264 499.184 90.49C496.848 88.0536 492.806 88.1387 490.156 90.6799C487.506 93.2212 487.251 97.2563 489.588 99.6927C491.924 102.129 495.966 102.044 498.616 99.5028Z" fill="#FFC000"/>
<path opacity="0.1" d="M473.089 99.5062C475.739 96.9649 475.993 92.9298 473.657 90.4934C471.321 88.0571 467.278 88.1421 464.628 90.6833C461.978 93.2246 461.724 97.2597 464.06 99.6961C466.397 102.132 470.439 102.047 473.089 99.5062Z" fill="#FFC000"/>
<path opacity="0.1" d="M304.786 121.732H224.22C219.397 121.732 215.147 125.369 214.777 129.822L198.189 327.729H296.288L312.876 129.822C313.234 125.356 309.597 121.732 304.786 121.732Z" fill="#FFC000"/>
<path d="M302.286 126.63H225.892C224.159 126.67 222.5 127.34 221.225 128.514C219.95 129.688 219.146 131.286 218.963 133.01L215.135 178.819C215.052 179.633 215.143 180.455 215.4 181.231C215.658 182.008 216.078 182.721 216.631 183.324C217.184 183.927 217.859 184.405 218.611 184.728C219.362 185.052 220.174 185.212 220.992 185.199H297.374C299.109 185.167 300.772 184.5 302.049 183.324C303.326 182.148 304.128 180.545 304.302 178.819L308.13 133.01C308.209 132.198 308.116 131.378 307.858 130.605C307.599 129.831 307.181 129.12 306.629 128.518C306.078 127.917 305.407 127.438 304.659 127.112C303.91 126.787 303.102 126.623 302.286 126.63Z" fill="white"/>
<path d="M296.786 192.129H220.392C218.658 192.166 216.998 192.835 215.722 194.009C214.446 195.184 213.643 196.784 213.463 198.509L209.635 244.317C209.552 245.131 209.643 245.953 209.901 246.73C210.158 247.506 210.578 248.22 211.131 248.822C211.684 249.425 212.359 249.904 213.111 250.227C213.862 250.55 214.674 250.71 215.492 250.697H291.874C293.609 250.665 295.273 249.998 296.549 248.823C297.826 247.647 298.628 246.044 298.802 244.317L302.63 198.509C302.709 197.697 302.616 196.877 302.358 196.103C302.099 195.329 301.681 194.618 301.129 194.017C300.578 193.415 299.907 192.936 299.159 192.611C298.41 192.286 297.602 192.121 296.786 192.129Z" fill="white"/>
<path d="M291.286 257.638H214.867C213.132 257.672 211.47 258.34 210.194 259.515C208.918 260.69 208.115 262.292 207.938 264.018L204.11 309.826C204.027 310.64 204.117 311.462 204.375 312.239C204.633 313.016 205.052 313.729 205.606 314.331C206.159 314.934 206.834 315.413 207.585 315.736C208.337 316.059 209.149 316.219 209.967 316.206H286.323C288.057 316.172 289.719 315.504 290.996 314.329C292.272 313.153 293.074 311.552 293.251 309.826L297.079 264.018C297.162 263.209 297.073 262.392 296.819 261.62C296.565 260.848 296.151 260.138 295.605 259.536C295.059 258.935 294.392 258.455 293.648 258.128C292.904 257.8 292.099 257.634 291.286 257.638Z" fill="white"/>
<path opacity="0.5" d="M240.157 152.354H226.644C226.27 152.36 225.899 152.286 225.555 152.138C225.211 151.99 224.902 151.77 224.649 151.494C224.396 151.218 224.204 150.892 224.086 150.536C223.968 150.181 223.927 149.805 223.965 149.432L225.1 135.919C225.184 135.129 225.553 134.397 226.138 133.859C226.722 133.321 227.483 133.015 228.278 132.997H241.778C242.152 132.992 242.523 133.066 242.867 133.214C243.211 133.362 243.52 133.581 243.773 133.857C244.026 134.133 244.218 134.46 244.336 134.815C244.454 135.171 244.495 135.547 244.457 135.919L243.322 149.432C243.241 150.221 242.875 150.954 242.292 151.492C241.709 152.03 240.95 152.337 240.157 152.354Z" fill="#FFC000"/>
<path opacity="0.5" d="M297.872 162.882H224.221C224.045 162.883 223.87 162.847 223.708 162.776C223.547 162.706 223.401 162.603 223.281 162.473C223.161 162.344 223.069 162.191 223.012 162.024C222.954 161.857 222.931 161.68 222.945 161.504C222.983 161.13 223.155 160.783 223.429 160.527C223.704 160.271 224.063 160.124 224.438 160.113H298.089C298.267 160.113 298.443 160.149 298.606 160.22C298.768 160.291 298.914 160.396 299.035 160.527C299.155 160.658 299.246 160.812 299.303 160.98C299.36 161.149 299.381 161.327 299.365 161.504C299.325 161.876 299.152 162.22 298.877 162.473C298.603 162.727 298.246 162.872 297.872 162.882Z" fill="#FFC000"/>
<path opacity="0.2" d="M288.121 141.228H254.243C253.961 141.231 253.681 141.175 253.422 141.062C253.163 140.95 252.931 140.784 252.741 140.576C252.551 140.367 252.406 140.121 252.318 139.853C252.229 139.585 252.198 139.301 252.227 139.021C252.289 138.427 252.566 137.876 253.005 137.472C253.445 137.068 254.017 136.838 254.613 136.826H288.491C288.772 136.823 289.051 136.879 289.309 136.99C289.567 137.102 289.798 137.267 289.988 137.474C290.179 137.681 290.323 137.925 290.412 138.192C290.502 138.458 290.534 138.741 290.507 139.021C290.448 139.617 290.173 140.17 289.733 140.577C289.293 140.984 288.72 141.215 288.121 141.228Z" fill="#263238"/>
<path opacity="0.2" d="M274.112 148.527H253.633C253.352 148.53 253.073 148.474 252.815 148.363C252.557 148.251 252.326 148.086 252.135 147.879C251.945 147.672 251.801 147.428 251.711 147.161C251.622 146.895 251.59 146.612 251.617 146.333C251.675 145.739 251.949 145.187 252.386 144.78C252.823 144.374 253.393 144.141 253.99 144.125H274.483C274.765 144.122 275.045 144.178 275.303 144.291C275.562 144.403 275.795 144.569 275.985 144.777C276.175 144.986 276.319 145.232 276.408 145.5C276.497 145.768 276.527 146.052 276.499 146.333C276.437 146.926 276.16 147.477 275.72 147.881C275.281 148.285 274.709 148.515 274.112 148.527Z" fill="#263238"/>
<path opacity="0.5" d="M234.657 217.865H221.144C220.77 217.87 220.399 217.796 220.055 217.648C219.711 217.5 219.402 217.281 219.149 217.005C218.896 216.729 218.704 216.402 218.586 216.047C218.468 215.691 218.427 215.315 218.465 214.942L219.6 201.43C219.681 200.638 220.049 199.904 220.635 199.366C221.22 198.828 221.982 198.522 222.778 198.508H236.278C236.652 198.502 237.023 198.576 237.367 198.724C237.711 198.872 238.02 199.092 238.273 199.368C238.526 199.644 238.718 199.97 238.836 200.325C238.954 200.681 238.995 201.057 238.957 201.43L237.834 214.942C237.753 215.734 237.386 216.468 236.8 217.006C236.215 217.545 235.452 217.85 234.657 217.865Z" fill="#FFC000"/>
<path opacity="0.5" d="M292.371 228.391H218.695C218.518 228.391 218.342 228.355 218.179 228.284C218.016 228.212 217.87 228.108 217.75 227.977C217.63 227.846 217.538 227.692 217.481 227.523C217.424 227.355 217.403 227.177 217.419 227C217.459 226.628 217.633 226.284 217.907 226.03C218.182 225.777 218.539 225.632 218.912 225.622H292.563C292.739 225.621 292.914 225.657 293.076 225.727C293.238 225.798 293.383 225.901 293.503 226.031C293.623 226.16 293.715 226.313 293.773 226.48C293.83 226.647 293.853 226.824 293.839 227C293.802 227.369 293.634 227.713 293.365 227.969C293.095 228.224 292.742 228.374 292.371 228.391Z" fill="#FFC000"/>
<path opacity="0.2" d="M282.623 206.738H248.732C248.451 206.74 248.173 206.682 247.916 206.569C247.658 206.456 247.428 206.289 247.239 206.081C247.05 205.873 246.907 205.627 246.819 205.36C246.731 205.093 246.701 204.81 246.729 204.531C246.791 203.939 247.066 203.39 247.503 202.986C247.939 202.583 248.508 202.351 249.103 202.336H282.993C283.274 202.333 283.553 202.389 283.811 202.501C284.069 202.612 284.3 202.777 284.49 202.984C284.681 203.191 284.825 203.436 284.914 203.702C285.004 203.969 285.036 204.251 285.009 204.531C284.95 205.127 284.675 205.681 284.235 206.087C283.795 206.494 283.222 206.726 282.623 206.738Z" fill="#263238"/>
<path opacity="0.2" d="M268.612 214.037H248.119C247.839 214.04 247.561 213.984 247.303 213.873C247.046 213.761 246.815 213.596 246.626 213.389C246.437 213.181 246.293 212.936 246.206 212.67C246.118 212.404 246.087 212.121 246.116 211.842C246.175 211.248 246.448 210.697 246.885 210.29C247.322 209.884 247.893 209.651 248.489 209.635H268.982C269.264 209.632 269.544 209.688 269.803 209.8C270.062 209.913 270.294 210.079 270.484 210.287C270.675 210.496 270.819 210.742 270.907 211.01C270.996 211.278 271.027 211.562 270.998 211.842C270.936 212.436 270.659 212.987 270.22 213.391C269.78 213.795 269.209 214.025 268.612 214.037Z" fill="#263238"/>
<path d="M263.356 234.771H289.999C290.417 234.763 290.831 234.844 291.215 235.009C291.599 235.173 291.943 235.418 292.225 235.725C292.508 236.033 292.721 236.397 292.852 236.793C292.983 237.19 293.029 237.61 292.985 238.025L292.59 242.784C292.502 243.667 292.094 244.487 291.443 245.089C290.791 245.691 289.942 246.033 289.055 246.051H262.361C261.943 246.057 261.529 245.974 261.145 245.808C260.761 245.642 260.417 245.397 260.135 245.088C259.853 244.779 259.639 244.415 259.508 244.018C259.377 243.62 259.332 243.2 259.375 242.784L259.771 238.025C259.862 237.136 260.279 236.312 260.94 235.711C261.602 235.111 262.463 234.776 263.356 234.771Z" fill="#FFC000"/>
<path d="M265.385 241.891H263.828L263.547 242.619H262.156L264.198 238.191H265.691L266.967 242.619H265.538L265.385 241.891ZM265.18 240.934L264.836 239.339L264.211 240.934H265.18Z" fill="white"/>
<path d="M270.413 240.807L271.587 241.177C271.486 241.484 271.331 241.769 271.128 242.02C270.939 242.239 270.704 242.413 270.439 242.53C270.121 242.651 269.783 242.707 269.443 242.696C269.046 242.714 268.65 242.644 268.282 242.492C267.966 242.331 267.71 242.071 267.555 241.752C267.351 241.332 267.275 240.861 267.338 240.399C267.36 239.762 267.62 239.157 268.065 238.702C268.537 238.291 269.15 238.08 269.775 238.115C270.225 238.09 270.671 238.206 271.051 238.447C271.377 238.71 271.599 239.081 271.676 239.493L270.4 239.761C270.382 239.658 270.348 239.559 270.298 239.468C270.232 239.365 270.139 239.281 270.03 239.225C269.922 239.163 269.798 239.132 269.673 239.136C269.526 239.133 269.38 239.166 269.249 239.233C269.117 239.299 269.004 239.398 268.92 239.519C268.753 239.777 268.665 240.079 268.665 240.386C268.594 240.727 268.639 241.082 268.793 241.394C268.863 241.489 268.956 241.564 269.063 241.613C269.17 241.662 269.288 241.683 269.405 241.675C269.517 241.68 269.63 241.663 269.735 241.623C269.84 241.584 269.936 241.523 270.018 241.445C270.199 241.268 270.335 241.049 270.413 240.807Z" fill="white"/>
<path d="M275.235 240.807L276.409 241.177C276.309 241.484 276.153 241.769 275.95 242.02C275.761 242.239 275.526 242.413 275.261 242.53C274.944 242.651 274.605 242.707 274.266 242.696C273.868 242.714 273.472 242.644 273.105 242.492C272.788 242.331 272.533 242.071 272.377 241.752C272.173 241.332 272.097 240.861 272.16 240.399C272.182 239.762 272.442 239.157 272.888 238.702C273.359 238.291 273.973 238.08 274.597 238.115C275.047 238.091 275.492 238.207 275.873 238.447C276.196 238.714 276.416 239.083 276.499 239.493L275.223 239.761C275.205 239.658 275.17 239.559 275.121 239.468C275.051 239.368 274.959 239.285 274.853 239.225C274.74 239.161 274.612 239.13 274.483 239.136C274.337 239.134 274.194 239.167 274.064 239.234C273.935 239.301 273.825 239.399 273.743 239.519C273.576 239.778 273.483 240.078 273.475 240.386C273.412 240.729 273.461 241.082 273.615 241.394C273.684 241.49 273.777 241.566 273.885 241.615C273.992 241.664 274.11 241.685 274.227 241.675C274.338 241.684 274.449 241.67 274.554 241.635C274.66 241.6 274.757 241.544 274.84 241.471C275.025 241.286 275.161 241.058 275.235 240.807Z" fill="white"/>
<path d="M277.392 238.191H281.067L280.977 239.135H278.668L278.604 239.837H280.735L280.658 240.743H278.527L278.451 241.623H280.824L280.735 242.619H276.996L277.392 238.191Z" fill="white"/>
<path d="M281.794 238.191H284.078C284.274 238.173 284.471 238.195 284.658 238.256C284.844 238.318 285.016 238.417 285.163 238.548C285.278 238.687 285.363 238.848 285.411 239.022C285.459 239.196 285.47 239.378 285.443 239.556C285.434 239.755 285.386 239.95 285.3 240.129C285.215 240.309 285.094 240.47 284.946 240.602C284.58 240.878 284.126 241.01 283.67 240.972H282.917L282.777 242.618H281.398L281.794 238.191ZM283.07 240.079H283.415C283.612 240.093 283.808 240.044 283.976 239.939C284.028 239.899 284.072 239.849 284.105 239.792C284.138 239.735 284.159 239.672 284.167 239.607C284.175 239.541 284.171 239.475 284.153 239.412C284.136 239.348 284.106 239.289 284.065 239.237C283.995 239.178 283.914 239.133 283.826 239.107C283.738 239.081 283.646 239.073 283.555 239.084H283.159L283.07 240.079Z" fill="white"/>
<path d="M285.966 238.191H290.151L290.062 239.288H288.671L288.378 242.619H287L287.293 239.288H285.902L285.966 238.191Z" fill="white"/>
<path opacity="0.5" d="M229.146 283.375H215.646C215.271 283.379 214.9 283.303 214.556 283.154C214.212 283.004 213.903 282.783 213.651 282.506C213.398 282.23 213.206 281.902 213.088 281.546C212.97 281.19 212.929 280.813 212.967 280.44L214.102 266.991C214.183 266.202 214.549 265.47 215.132 264.932C215.715 264.393 216.474 264.087 217.267 264.069H230.78C231.154 264.064 231.525 264.137 231.869 264.286C232.213 264.434 232.522 264.653 232.775 264.929C233.028 265.205 233.22 265.532 233.338 265.887C233.456 266.242 233.497 266.619 233.459 266.991L232.324 280.491C232.229 281.273 231.855 281.995 231.272 282.525C230.689 283.054 229.934 283.356 229.146 283.375Z" fill="#FFC000"/>
<path opacity="0.25" d="M286.859 293.902H213.221C213.043 293.902 212.867 293.866 212.704 293.795C212.541 293.724 212.395 293.619 212.275 293.488C212.155 293.357 212.064 293.203 212.007 293.035C211.95 292.866 211.929 292.688 211.945 292.511C211.985 292.139 212.158 291.795 212.432 291.542C212.707 291.288 213.064 291.143 213.438 291.133H287.088C287.265 291.132 287.439 291.168 287.601 291.239C287.763 291.309 287.909 291.412 288.029 291.542C288.149 291.671 288.24 291.824 288.298 291.991C288.356 292.158 288.378 292.335 288.364 292.511C288.327 292.887 288.153 293.236 287.876 293.492C287.598 293.749 287.236 293.894 286.859 293.902Z" fill="#FFC000"/>
<path opacity="0.25" d="M272.606 293.902H213.221C213.043 293.902 212.867 293.866 212.704 293.795C212.541 293.724 212.395 293.619 212.275 293.488C212.155 293.357 212.064 293.203 212.007 293.035C211.95 292.866 211.929 292.688 211.945 292.511C211.985 292.139 212.158 291.795 212.432 291.542C212.707 291.288 213.064 291.143 213.438 291.133H272.823C272.999 291.132 273.174 291.168 273.336 291.239C273.498 291.309 273.643 291.412 273.763 291.542C273.883 291.671 273.975 291.824 274.032 291.991C274.09 292.158 274.113 292.335 274.099 292.511C274.061 292.885 273.889 293.232 273.615 293.488C273.34 293.744 272.981 293.891 272.606 293.902Z" fill="#FFC000"/>
<path opacity="0.2" d="M277.125 272.236H243.235C242.954 272.24 242.676 272.184 242.418 272.072C242.161 271.96 241.93 271.795 241.741 271.588C241.552 271.381 241.409 271.136 241.321 270.869C241.233 270.603 241.202 270.321 241.231 270.042C241.29 269.449 241.564 268.899 242.002 268.494C242.439 268.09 243.009 267.86 243.605 267.847H277.495C277.777 267.842 278.056 267.897 278.315 268.008C278.574 268.119 278.807 268.283 278.997 268.491C279.188 268.698 279.332 268.944 279.421 269.211C279.509 269.478 279.54 269.762 279.511 270.042C279.452 270.637 279.176 271.189 278.736 271.593C278.296 271.998 277.723 272.227 277.125 272.236Z" fill="#263238"/>
<path opacity="0.2" d="M263.112 279.546H242.619C242.338 279.548 242.06 279.49 241.802 279.377C241.545 279.264 241.314 279.097 241.125 278.889C240.936 278.681 240.793 278.435 240.706 278.168C240.618 277.901 240.587 277.618 240.616 277.339C240.672 276.745 240.946 276.193 241.383 275.788C241.821 275.383 242.393 275.154 242.989 275.144H263.482C263.762 275.143 264.04 275.2 264.297 275.313C264.554 275.425 264.785 275.59 264.974 275.796C265.164 276.003 265.309 276.247 265.399 276.512C265.489 276.778 265.523 277.059 265.498 277.339C265.439 277.935 265.163 278.488 264.724 278.895C264.284 279.302 263.711 279.534 263.112 279.546Z" fill="#263238"/>
<path opacity="0.1" d="M410.095 121.732H329.465C324.654 121.732 320.405 125.369 320.035 129.822L303.447 327.729H401.533L418.121 129.822C418.491 125.356 414.855 121.732 410.095 121.732Z" fill="#FFC000"/>
<path d="M407.544 126.63H331.15C329.416 126.668 327.756 127.336 326.48 128.511C325.204 129.686 324.401 131.285 324.221 133.01L320.393 178.819C320.31 179.632 320.4 180.453 320.657 181.228C320.914 182.004 321.333 182.717 321.885 183.319C322.436 183.922 323.11 184.401 323.86 184.725C324.61 185.049 325.42 185.21 326.237 185.199H402.631C404.366 185.164 406.028 184.496 407.304 183.321C408.58 182.146 409.383 180.545 409.56 178.819L413.388 133.01C413.469 132.198 413.377 131.377 413.12 130.603C412.862 129.828 412.443 129.116 411.892 128.514C411.34 127.912 410.668 127.433 409.919 127.108C409.17 126.784 408.36 126.621 407.544 126.63Z" fill="white"/>
<path d="M402.03 192.129H325.648C323.914 192.164 322.252 192.831 320.976 194.007C319.699 195.182 318.897 196.783 318.72 198.509L314.892 244.318C314.811 245.131 314.903 245.953 315.161 246.728C315.42 247.504 315.839 248.216 316.392 248.819C316.945 249.421 317.619 249.9 318.37 250.223C319.12 250.547 319.931 250.709 320.749 250.698H397.143C398.877 250.66 400.537 249.992 401.813 248.817C403.088 247.642 403.892 246.042 404.071 244.318L407.899 198.509C407.981 197.694 407.888 196.872 407.629 196.095C407.37 195.319 406.949 194.606 406.395 194.003C405.841 193.401 405.165 192.922 404.413 192.599C403.661 192.276 402.848 192.116 402.03 192.129Z" fill="white"/>
<path d="M396.532 257.637H320.15C318.415 257.669 316.751 258.335 315.475 259.511C314.198 260.687 313.396 262.29 313.222 264.017L309.394 309.825C309.313 310.639 309.405 311.46 309.663 312.236C309.922 313.011 310.341 313.724 310.894 314.326C311.447 314.928 312.121 315.407 312.872 315.731C313.622 316.055 314.433 316.216 315.251 316.205H391.645C393.378 316.168 395.039 315.499 396.315 314.324C397.59 313.15 398.394 311.55 398.573 309.825L402.401 264.017C402.485 263.202 402.394 262.378 402.135 261.601C401.877 260.823 401.456 260.11 400.902 259.507C400.347 258.904 399.671 258.425 398.917 258.103C398.164 257.781 397.351 257.622 396.532 257.637Z" fill="white"/>
<path opacity="0.5" d="M345.4 152.355H331.9C331.526 152.361 331.154 152.287 330.811 152.139C330.467 151.991 330.158 151.771 329.905 151.495C329.652 151.219 329.46 150.893 329.342 150.537C329.224 150.182 329.183 149.806 329.221 149.433L330.356 135.92C330.437 135.13 330.806 134.398 331.392 133.861C331.977 133.325 332.739 133.022 333.534 133.011H347.046C347.421 133.006 347.792 133.079 348.136 133.228C348.48 133.376 348.788 133.595 349.042 133.871C349.295 134.147 349.486 134.473 349.604 134.829C349.722 135.184 349.764 135.561 349.726 135.933L348.59 149.446C348.503 150.236 348.132 150.967 347.544 151.503C346.957 152.038 346.195 152.341 345.4 152.355Z" fill="#FFC000"/>
<path opacity="0.25" d="M403.115 162.882H329.477C329.301 162.883 329.126 162.847 328.964 162.776C328.802 162.706 328.657 162.603 328.537 162.473C328.417 162.344 328.325 162.191 328.268 162.024C328.21 161.857 328.187 161.68 328.201 161.504C328.236 161.129 328.407 160.78 328.682 160.524C328.958 160.267 329.318 160.121 329.694 160.113H403.345C403.523 160.113 403.699 160.149 403.861 160.22C404.024 160.291 404.17 160.396 404.29 160.527C404.411 160.658 404.502 160.812 404.559 160.98C404.616 161.149 404.637 161.327 404.621 161.504C404.581 161.878 404.406 162.224 404.128 162.477C403.851 162.731 403.491 162.875 403.115 162.882Z" fill="#FFC000"/>
<path opacity="0.25" d="M361.071 162.882H329.477C329.301 162.883 329.126 162.847 328.964 162.776C328.802 162.706 328.657 162.603 328.537 162.473C328.417 162.344 328.325 162.191 328.268 162.024C328.21 161.857 328.187 161.68 328.201 161.504C328.236 161.129 328.407 160.78 328.682 160.524C328.958 160.267 329.318 160.121 329.694 160.113H361.301C361.478 160.113 361.654 160.149 361.817 160.22C361.98 160.291 362.126 160.396 362.246 160.527C362.366 160.658 362.458 160.812 362.515 160.98C362.572 161.149 362.593 161.327 362.577 161.504C362.537 161.878 362.361 162.224 362.084 162.477C361.807 162.731 361.447 162.875 361.071 162.882Z" fill="#FFC000"/>
<path opacity="0.2" d="M393.38 141.228H359.489C359.207 141.231 358.927 141.175 358.668 141.062C358.41 140.95 358.177 140.784 357.987 140.576C357.797 140.367 357.652 140.121 357.564 139.853C357.475 139.585 357.445 139.301 357.473 139.021C357.535 138.427 357.812 137.876 358.251 137.472C358.691 137.068 359.263 136.838 359.859 136.826H393.75C394.031 136.823 394.309 136.879 394.566 136.99C394.823 137.102 395.054 137.267 395.243 137.474C395.433 137.682 395.576 137.926 395.664 138.193C395.752 138.459 395.782 138.741 395.753 139.021C395.694 139.614 395.421 140.166 394.984 140.573C394.547 140.979 393.977 141.212 393.38 141.228Z" fill="#263238"/>
<path opacity="0.2" d="M379.369 148.527H358.877C358.596 148.53 358.317 148.474 358.059 148.363C357.801 148.251 357.57 148.086 357.38 147.879C357.189 147.672 357.045 147.428 356.956 147.161C356.866 146.895 356.834 146.612 356.861 146.333C356.92 145.736 357.195 145.183 357.635 144.776C358.075 144.369 358.648 144.138 359.247 144.125H379.739C380.021 144.124 380.299 144.181 380.556 144.294C380.814 144.408 381.044 144.574 381.233 144.782C381.422 144.99 381.565 145.236 381.653 145.503C381.741 145.77 381.771 146.053 381.743 146.333C381.681 146.924 381.406 147.473 380.969 147.877C380.533 148.281 379.964 148.512 379.369 148.527Z" fill="#263238"/>
<path opacity="0.5" d="M339.917 217.865H326.404C326.03 217.87 325.658 217.797 325.314 217.648C324.971 217.5 324.662 217.281 324.409 217.005C324.156 216.729 323.964 216.402 323.846 216.047C323.728 215.692 323.687 215.315 323.725 214.943L324.86 201.43C324.938 200.64 325.303 199.906 325.887 199.367C326.47 198.829 327.231 198.523 328.025 198.508H341.525C341.9 198.5 342.272 198.573 342.617 198.72C342.962 198.868 343.271 199.087 343.525 199.363C343.778 199.64 343.97 199.967 344.087 200.323C344.204 200.68 344.244 201.057 344.204 201.43L343.081 214.943C342.998 215.731 342.631 216.462 342.049 216.999C341.467 217.537 340.709 217.844 339.917 217.865Z" fill="#FFC000"/>
<path opacity="0.25" d="M397.616 228.391H323.978C323.801 228.391 323.625 228.355 323.462 228.284C323.299 228.212 323.153 228.108 323.033 227.977C322.913 227.846 322.821 227.692 322.765 227.523C322.708 227.355 322.686 227.177 322.702 227C322.743 226.626 322.918 226.28 323.195 226.026C323.472 225.773 323.832 225.629 324.208 225.622H397.846C398.023 225.621 398.197 225.657 398.359 225.727C398.521 225.798 398.667 225.901 398.786 226.031C398.906 226.16 398.998 226.313 399.056 226.48C399.114 226.647 399.136 226.824 399.122 227C399.085 227.376 398.911 227.725 398.633 227.981C398.356 228.237 397.994 228.383 397.616 228.391Z" fill="#FFC000"/>
<path opacity="0.25" d="M327.909 228.391H323.978C323.801 228.391 323.625 228.355 323.462 228.284C323.299 228.212 323.153 228.108 323.033 227.977C322.913 227.846 322.821 227.692 322.765 227.523C322.708 227.355 322.686 227.177 322.702 227C322.743 226.626 322.918 226.28 323.195 226.026C323.472 225.773 323.832 225.629 324.208 225.622H328.138C328.315 225.621 328.489 225.657 328.651 225.727C328.813 225.798 328.959 225.901 329.079 226.031C329.198 226.16 329.29 226.313 329.348 226.48C329.406 226.647 329.428 226.824 329.414 227C329.377 227.376 329.203 227.725 328.925 227.981C328.648 228.237 328.286 228.383 327.909 228.391Z" fill="#FFC000"/>
<path opacity="0.2" d="M387.879 206.738H353.95C353.668 206.742 353.388 206.685 353.129 206.573C352.871 206.46 352.638 206.294 352.448 206.086C352.258 205.878 352.113 205.631 352.025 205.363C351.936 205.095 351.905 204.812 351.934 204.531C351.996 203.937 352.273 203.386 352.712 202.982C353.152 202.578 353.724 202.348 354.32 202.336H388.211C388.492 202.333 388.77 202.389 389.027 202.501C389.284 202.612 389.515 202.777 389.704 202.985C389.894 203.192 390.037 203.437 390.125 203.703C390.213 203.97 390.243 204.252 390.214 204.531C390.156 205.118 389.888 205.665 389.459 206.071C389.03 206.476 388.469 206.713 387.879 206.738Z" fill="#263238"/>
<path opacity="0.2" d="M373.869 214.037H353.377C353.096 214.04 352.817 213.984 352.559 213.872C352.301 213.761 352.07 213.596 351.88 213.389C351.689 213.182 351.545 212.937 351.456 212.671C351.366 212.404 351.334 212.122 351.361 211.842C351.42 211.246 351.695 210.693 352.135 210.286C352.575 209.879 353.148 209.648 353.747 209.635H374.227C374.509 209.632 374.789 209.688 375.048 209.8C375.307 209.913 375.539 210.079 375.729 210.287C375.919 210.496 376.064 210.742 376.152 211.01C376.241 211.278 376.272 211.562 376.243 211.842C376.181 212.434 375.906 212.983 375.469 213.387C375.033 213.791 374.464 214.022 373.869 214.037Z" fill="#263238"/>
<path opacity="0.5" d="M334.402 283.374H320.902C320.527 283.377 320.155 283.302 319.812 283.152C319.468 283.003 319.159 282.782 318.906 282.505C318.654 282.228 318.462 281.901 318.344 281.545C318.226 281.189 318.185 280.812 318.222 280.439L319.358 266.939C319.436 266.149 319.801 265.415 320.385 264.876C320.968 264.338 321.729 264.032 322.523 264.017H336.086C336.461 264.011 336.832 264.085 337.176 264.233C337.52 264.382 337.829 264.601 338.082 264.877C338.335 265.153 338.527 265.479 338.645 265.835C338.763 266.19 338.804 266.566 338.766 266.939L337.63 280.439C337.551 281.241 337.177 281.985 336.581 282.528C335.985 283.07 335.208 283.371 334.402 283.374Z" fill="#FFC000"/>
<path opacity="0.5" d="M392.116 293.902H318.478C318.301 293.902 318.125 293.866 317.962 293.795C317.799 293.724 317.653 293.619 317.533 293.488C317.413 293.357 317.321 293.203 317.265 293.035C317.208 292.866 317.186 292.688 317.202 292.511C317.243 292.137 317.418 291.791 317.695 291.538C317.972 291.284 318.332 291.14 318.708 291.133H392.346C392.523 291.132 392.697 291.168 392.859 291.239C393.021 291.309 393.167 291.412 393.286 291.542C393.406 291.671 393.498 291.824 393.556 291.991C393.614 292.158 393.636 292.335 393.622 292.511C393.585 292.887 393.411 293.236 393.133 293.492C392.856 293.749 392.494 293.894 392.116 293.902Z" fill="#FFC000"/>
<path opacity="0.2" d="M382.382 272.236H348.491C348.21 272.242 347.93 272.187 347.671 272.076C347.412 271.965 347.18 271.8 346.989 271.593C346.799 271.385 346.655 271.14 346.566 270.872C346.477 270.605 346.446 270.322 346.475 270.042C346.535 269.447 346.811 268.895 347.251 268.49C347.691 268.085 348.264 267.857 348.861 267.847H382.739C383.021 267.842 383.3 267.897 383.559 268.008C383.818 268.119 384.051 268.283 384.241 268.491C384.432 268.698 384.576 268.944 384.665 269.211C384.753 269.478 384.784 269.762 384.755 270.042C384.696 270.634 384.422 271.185 383.985 271.589C383.548 271.994 382.977 272.224 382.382 272.236Z" fill="#263238"/>
<path opacity="0.2" d="M368.358 279.546H347.878C347.596 279.55 347.316 279.493 347.057 279.381C346.798 279.268 346.566 279.103 346.376 278.894C346.185 278.686 346.041 278.439 345.953 278.171C345.864 277.903 345.833 277.62 345.862 277.339C345.924 276.745 346.201 276.195 346.64 275.79C347.079 275.386 347.651 275.156 348.248 275.144H368.728C369.009 275.141 369.288 275.197 369.545 275.309C369.803 275.42 370.035 275.585 370.225 275.792C370.415 275.999 370.56 276.244 370.649 276.51C370.739 276.777 370.771 277.059 370.744 277.339C370.685 277.935 370.409 278.489 369.97 278.895C369.53 279.302 368.957 279.534 368.358 279.546Z" fill="#263238"/>
<path d="M363.05 300.281H389.68C390.097 300.275 390.511 300.358 390.893 300.523C391.276 300.688 391.62 300.932 391.902 301.24C392.183 301.547 392.397 301.91 392.529 302.306C392.661 302.701 392.707 303.12 392.666 303.535L392.271 308.294C392.178 309.174 391.768 309.989 391.117 310.588C390.467 311.187 389.62 311.528 388.736 311.548H362.106C361.689 311.554 361.276 311.471 360.893 311.306C360.51 311.141 360.167 310.897 359.885 310.59C359.603 310.282 359.389 309.919 359.257 309.524C359.125 309.128 359.079 308.709 359.12 308.294L359.516 303.535C359.608 302.656 360.019 301.84 360.669 301.241C361.32 300.642 362.166 300.301 363.05 300.281Z" fill="#FFC000"/>
<path d="M365.143 307.402H363.587L363.306 308.129H361.902L363.957 303.701H365.437L366.713 308.129H365.284L365.143 307.402ZM364.939 306.445L364.582 304.85L363.957 306.445H364.939Z" fill="white"/>
<path d="M370.169 306.318L371.33 306.675C371.242 306.988 371.09 307.279 370.884 307.53C370.695 307.749 370.459 307.924 370.195 308.04C369.873 308.163 369.53 308.219 369.186 308.206C368.789 308.223 368.393 308.153 368.025 308.002C367.712 307.837 367.457 307.578 367.298 307.262C367.085 306.757 367.021 306.201 367.114 305.661C367.206 305.12 367.452 304.618 367.821 304.212C368.293 303.801 368.906 303.59 369.531 303.625C369.98 303.603 370.425 303.719 370.807 303.957C371.125 304.225 371.342 304.595 371.419 305.003L370.143 305.271C370.119 305.169 370.08 305.07 370.029 304.978C369.967 304.876 369.879 304.792 369.773 304.735C369.661 304.671 369.533 304.641 369.403 304.646C369.259 304.642 369.116 304.674 368.987 304.739C368.858 304.803 368.747 304.899 368.663 305.016C368.499 305.281 368.407 305.585 368.395 305.897C368.328 306.239 368.377 306.594 368.536 306.905C368.605 306.997 368.696 307.071 368.8 307.12C368.905 307.169 369.02 307.192 369.135 307.185C369.248 307.193 369.361 307.176 369.467 307.137C369.572 307.097 369.668 307.035 369.748 306.956C369.943 306.785 370.089 306.564 370.169 306.318Z" fill="white"/>
<path d="M374.98 306.317L376.153 306.675C376.061 306.988 375.904 307.279 375.694 307.53C375.505 307.749 375.27 307.923 375.005 308.04C374.688 308.161 374.349 308.217 374.01 308.206C373.612 308.224 373.216 308.154 372.849 308.002C372.535 307.837 372.281 307.578 372.121 307.262C371.917 306.842 371.841 306.371 371.904 305.909C371.927 305.272 372.186 304.667 372.632 304.212C373.105 303.803 373.717 303.593 374.342 303.625C374.791 303.6 375.237 303.716 375.618 303.957C375.944 304.22 376.166 304.591 376.243 305.003L374.967 305.271C374.951 305.168 374.916 305.068 374.865 304.978C374.803 304.875 374.715 304.791 374.61 304.735C374.496 304.673 374.369 304.642 374.239 304.646C374.094 304.643 373.949 304.676 373.818 304.74C373.687 304.804 373.574 304.899 373.487 305.016C373.327 305.282 373.239 305.586 373.231 305.896C373.164 306.239 373.213 306.594 373.372 306.904C373.441 306.997 373.532 307.071 373.636 307.12C373.741 307.169 373.856 307.191 373.972 307.185C374.084 307.193 374.197 307.176 374.303 307.136C374.408 307.097 374.504 307.035 374.584 306.955C374.777 306.787 374.915 306.565 374.98 306.317Z" fill="white"/>
<path d="M377.071 303.701H380.746L380.67 304.645H378.36V305.347H380.491L380.415 306.253H378.194L378.118 307.134H380.478L380.389 308.129H376.65L377.071 303.701Z" fill="white"/>
<path d="M381.551 303.702H383.822C384.017 303.685 384.213 303.707 384.399 303.766C384.585 303.825 384.758 303.921 384.907 304.047C385.022 304.186 385.107 304.347 385.155 304.521C385.204 304.695 385.215 304.877 385.187 305.055C385.169 305.457 384.995 305.837 384.703 306.114C384.334 306.383 383.882 306.514 383.427 306.484H382.686L382.546 308.13H381.168L381.551 303.702ZM382.763 305.591H383.095C383.296 305.607 383.498 305.558 383.669 305.451C383.725 305.409 383.772 305.355 383.805 305.293C383.838 305.232 383.857 305.163 383.86 305.093C383.868 305.031 383.862 304.968 383.842 304.908C383.822 304.848 383.789 304.794 383.746 304.749C383.676 304.689 383.594 304.645 383.506 304.619C383.418 304.592 383.326 304.584 383.235 304.596H382.84L382.763 305.591Z" fill="white"/>
<path d="M385.711 303.701H389.884L389.795 304.799H388.404L388.11 308.129H386.745L387.038 304.799H385.635L385.711 303.701Z" fill="white"/>
<path opacity="0.1" d="M515.288 121.731H434.722C432.432 121.696 430.209 122.499 428.47 123.989C426.731 125.479 425.596 127.553 425.279 129.82L408.691 327.728H506.778L523.366 129.82C523.748 125.354 520.112 121.731 515.288 121.731Z" fill="#FFC000"/>
<path d="M512.787 126.63H436.406C434.671 126.665 433.009 127.333 431.733 128.508C430.457 129.683 429.654 131.285 429.477 133.01L425.649 178.819C425.566 179.633 425.656 180.455 425.914 181.232C426.172 182.008 426.591 182.721 427.145 183.324C427.698 183.927 428.373 184.406 429.124 184.729C429.876 185.052 430.688 185.212 431.506 185.199H507.887C509.623 185.167 511.286 184.5 512.563 183.324C513.84 182.149 514.641 180.546 514.816 178.819L518.644 133.01C518.725 132.197 518.633 131.375 518.374 130.6C518.116 129.824 517.696 129.112 517.144 128.509C516.591 127.907 515.917 127.428 515.166 127.105C514.415 126.781 513.605 126.619 512.787 126.63Z" fill="white"/>
<path d="M507.287 192.129H430.906C429.171 192.163 427.509 192.831 426.233 194.006C424.957 195.182 424.154 196.783 423.977 198.509L420.149 244.317C420.066 245.131 420.156 245.954 420.414 246.73C420.672 247.507 421.091 248.22 421.645 248.822C422.198 249.425 422.873 249.904 423.624 250.227C424.376 250.55 425.188 250.71 426.006 250.697H502.387C504.123 250.665 505.786 249.999 507.063 248.823C508.34 247.647 509.141 246.044 509.316 244.317L513.144 198.509C513.223 197.696 513.13 196.875 512.87 196.1C512.611 195.325 512.191 194.614 511.639 194.012C511.086 193.41 510.413 192.932 509.664 192.607C508.914 192.283 508.104 192.12 507.287 192.129Z" fill="white"/>
<path d="M501.789 257.638H425.408C423.674 257.675 422.013 258.344 420.738 259.519C419.462 260.693 418.659 262.293 418.479 264.018L414.651 309.826C414.568 310.64 414.658 311.463 414.916 312.239C415.174 313.016 415.593 313.729 416.147 314.332C416.7 314.934 417.375 315.413 418.126 315.736C418.878 316.059 419.69 316.22 420.508 316.206H496.864C498.599 316.175 500.263 315.508 501.539 314.332C502.816 313.156 503.618 311.553 503.792 309.826L507.62 264.018C507.701 263.207 507.61 262.387 507.353 261.613C507.096 260.839 506.679 260.128 506.128 259.527C505.578 258.925 504.908 258.445 504.16 258.12C503.412 257.795 502.604 257.63 501.789 257.638Z" fill="white"/>
<path opacity="0.5" d="M450.66 152.354H437.159C436.784 152.362 436.412 152.289 436.067 152.142C435.722 151.994 435.413 151.775 435.159 151.499C434.906 151.222 434.714 150.895 434.597 150.539C434.48 150.182 434.44 149.805 434.48 149.432L435.603 135.919C435.686 135.129 436.055 134.397 436.64 133.859C437.225 133.321 437.986 133.015 438.78 132.997H452.28C452.654 132.992 453.026 133.066 453.37 133.214C453.714 133.362 454.022 133.581 454.275 133.857C454.528 134.133 454.72 134.46 454.838 134.815C454.956 135.171 454.998 135.547 454.96 135.919L453.824 149.432C453.746 150.222 453.381 150.956 452.797 151.495C452.214 152.034 451.453 152.339 450.66 152.354Z" fill="#FFC000"/>
<path opacity="0.5" d="M508.349 162.882H434.723C434.547 162.883 434.372 162.847 434.21 162.776C434.049 162.706 433.903 162.603 433.783 162.473C433.663 162.344 433.571 162.191 433.514 162.024C433.456 161.857 433.433 161.68 433.447 161.504C433.485 161.128 433.659 160.779 433.936 160.523C434.214 160.267 434.575 160.121 434.953 160.113H508.604C508.782 160.113 508.957 160.149 509.12 160.22C509.283 160.291 509.429 160.396 509.549 160.527C509.669 160.658 509.761 160.812 509.818 160.98C509.875 161.149 509.896 161.327 509.88 161.504C509.842 161.883 509.664 162.234 509.381 162.489C509.098 162.744 508.73 162.884 508.349 162.882Z" fill="#FFC000"/>
<path opacity="0.2" d="M498.623 141.228H464.745C464.463 141.231 464.183 141.175 463.924 141.062C463.665 140.95 463.433 140.784 463.243 140.576C463.052 140.367 462.908 140.121 462.82 139.853C462.731 139.585 462.7 139.301 462.729 139.021C462.791 138.427 463.068 137.876 463.507 137.472C463.947 137.068 464.518 136.838 465.115 136.826H498.993C499.274 136.823 499.553 136.879 499.811 136.99C500.069 137.102 500.3 137.267 500.49 137.474C500.681 137.681 500.825 137.925 500.914 138.192C501.004 138.458 501.036 138.741 501.009 139.021C500.95 139.617 500.675 140.17 500.235 140.577C499.795 140.984 499.222 141.215 498.623 141.228Z" fill="#263238"/>
<path opacity="0.2" d="M484.613 148.527H464.197C463.916 148.53 463.638 148.474 463.38 148.363C463.122 148.251 462.89 148.086 462.7 147.879C462.51 147.672 462.365 147.428 462.276 147.161C462.186 146.895 462.154 146.612 462.181 146.333C462.24 145.737 462.516 145.183 462.955 144.776C463.395 144.369 463.968 144.138 464.567 144.125H485.047C485.329 144.122 485.609 144.178 485.868 144.291C486.127 144.403 486.359 144.569 486.549 144.777C486.74 144.986 486.884 145.232 486.972 145.5C487.061 145.768 487.092 146.052 487.063 146.333C487 146.937 486.714 147.497 486.261 147.902C485.808 148.308 485.221 148.531 484.613 148.527Z" fill="#263238"/>
<path opacity="0.5" d="M445.161 217.865H431.648C431.274 217.87 430.902 217.796 430.559 217.648C430.215 217.5 429.906 217.281 429.653 217.005C429.4 216.729 429.208 216.402 429.09 216.047C428.972 215.691 428.931 215.315 428.969 214.942L430.104 201.43C430.188 200.639 430.557 199.907 431.142 199.369C431.726 198.831 432.487 198.525 433.282 198.508H446.782C447.156 198.502 447.527 198.576 447.871 198.724C448.215 198.872 448.524 199.092 448.777 199.368C449.03 199.644 449.222 199.97 449.34 200.325C449.458 200.681 449.499 201.057 449.461 201.43L448.377 214.942C448.298 215.741 447.925 216.482 447.331 217.022C446.737 217.562 445.964 217.862 445.161 217.865Z" fill="#FFC000"/>
<path opacity="0.5" d="M502.872 228.391H429.234C429.057 228.391 428.881 228.355 428.718 228.284C428.555 228.212 428.409 228.108 428.289 227.977C428.169 227.846 428.077 227.692 428.02 227.523C427.963 227.355 427.942 227.177 427.958 227C427.998 226.628 428.172 226.284 428.446 226.03C428.721 225.777 429.078 225.632 429.451 225.622H503.102C503.278 225.621 503.453 225.657 503.615 225.727C503.777 225.798 503.922 225.901 504.042 226.031C504.162 226.16 504.254 226.313 504.312 226.48C504.37 226.647 504.392 226.824 504.378 227C504.341 227.376 504.167 227.725 503.889 227.981C503.612 228.237 503.25 228.383 502.872 228.391Z" fill="#FFC000"/>
<path opacity="0.2" d="M493.125 206.738H459.247C458.965 206.742 458.685 206.685 458.426 206.573C458.167 206.46 457.935 206.294 457.745 206.086C457.554 205.878 457.41 205.631 457.322 205.363C457.233 205.095 457.202 204.812 457.231 204.531C457.293 203.937 457.57 203.386 458.009 202.982C458.449 202.578 459.02 202.348 459.617 202.336H493.495C493.776 202.333 494.055 202.389 494.313 202.501C494.571 202.612 494.802 202.777 494.992 202.984C495.182 203.191 495.327 203.436 495.416 203.702C495.506 203.969 495.538 204.251 495.511 204.531C495.452 205.127 495.177 205.681 494.737 206.087C494.297 206.494 493.724 206.726 493.125 206.738Z" fill="#263238"/>
<path opacity="0.2" d="M479.115 214.037H458.584C458.303 214.04 458.024 213.984 457.766 213.872C457.508 213.761 457.277 213.596 457.087 213.389C456.896 213.182 456.752 212.937 456.663 212.671C456.573 212.404 456.541 212.122 456.568 211.842C456.627 211.246 456.902 210.693 457.342 210.286C457.782 209.879 458.355 209.648 458.954 209.635H479.434C479.716 209.632 479.996 209.688 480.255 209.8C480.514 209.913 480.746 210.079 480.936 210.287C481.126 210.496 481.271 210.742 481.359 211.01C481.448 211.278 481.479 211.562 481.45 211.842C481.389 212.428 481.12 212.971 480.691 213.374C480.262 213.777 479.703 214.013 479.115 214.037Z" fill="#263238"/>
<path d="M473.805 234.771H500.461C500.878 234.765 501.291 234.848 501.674 235.013C502.057 235.178 502.4 235.422 502.682 235.729C502.964 236.036 503.178 236.4 503.31 236.795C503.441 237.191 503.488 237.61 503.447 238.025L503.039 242.784C502.954 243.668 502.547 244.489 501.895 245.092C501.243 245.695 500.392 246.036 499.504 246.051H472.861C472.443 246.056 472.029 245.974 471.645 245.808C471.261 245.642 470.917 245.396 470.635 245.088C470.353 244.779 470.139 244.414 470.008 244.017C469.877 243.62 469.832 243.2 469.875 242.784L470.271 238.025C470.364 237.145 470.774 236.33 471.424 235.731C472.075 235.132 472.921 234.791 473.805 234.771Z" fill="#FFC000"/>
<path d="M475.888 241.891H474.331L474.05 242.619H472.621L474.663 238.191H476.168L477.444 242.619H476.015L475.888 241.891ZM475.683 240.934L475.339 239.339L474.714 240.934H475.683Z" fill="white"/>
<path d="M480.913 240.807L482.087 241.177C481.992 241.486 481.835 241.772 481.628 242.019C481.439 242.239 481.204 242.413 480.939 242.53C480.621 242.651 480.283 242.707 479.943 242.696C479.546 242.714 479.15 242.644 478.782 242.491C478.466 242.33 478.21 242.071 478.055 241.751C477.851 241.332 477.775 240.861 477.838 240.399C477.86 239.762 478.12 239.157 478.565 238.702C479.038 238.293 479.651 238.083 480.275 238.115C480.725 238.089 481.171 238.205 481.551 238.447C481.877 238.71 482.099 239.081 482.176 239.493L480.9 239.761C480.882 239.658 480.848 239.559 480.798 239.467C480.737 239.365 480.648 239.281 480.543 239.225C480.43 239.163 480.302 239.132 480.173 239.136C480.026 239.133 479.88 239.167 479.749 239.234C479.618 239.301 479.505 239.398 479.42 239.518C479.259 239.779 479.171 240.079 479.165 240.386C479.096 240.728 479.145 241.084 479.305 241.394C479.372 241.489 479.462 241.565 479.568 241.615C479.673 241.664 479.789 241.685 479.905 241.675C480.018 241.682 480.131 241.666 480.236 241.626C480.342 241.587 480.438 241.525 480.518 241.445C480.71 241.277 480.848 241.055 480.913 240.807Z" fill="white"/>
<path d="M485.735 240.807L486.909 241.177C486.809 241.484 486.653 241.769 486.45 242.02C486.261 242.239 486.026 242.413 485.761 242.53C485.444 242.651 485.105 242.707 484.766 242.696C484.368 242.714 483.972 242.644 483.604 242.492C483.288 242.331 483.033 242.071 482.877 241.752C482.673 241.332 482.597 240.861 482.66 240.399C482.682 239.762 482.942 239.157 483.388 238.702C483.859 238.291 484.473 238.08 485.097 238.115C485.547 238.09 485.993 238.206 486.373 238.447C486.7 238.71 486.921 239.081 486.999 239.493L485.723 239.761C485.705 239.658 485.67 239.559 485.621 239.468C485.554 239.365 485.462 239.281 485.353 239.225C485.244 239.163 485.12 239.132 484.995 239.136C484.848 239.133 484.702 239.166 484.571 239.233C484.439 239.299 484.327 239.398 484.242 239.519C484.075 239.777 483.987 240.079 483.987 240.386C483.916 240.727 483.961 241.082 484.115 241.394C484.185 241.489 484.278 241.564 484.385 241.613C484.492 241.662 484.61 241.683 484.727 241.675C484.844 241.689 484.963 241.678 485.075 241.643C485.187 241.608 485.29 241.549 485.378 241.471C485.549 241.282 485.672 241.054 485.735 240.807Z" fill="white"/>
<path d="M487.83 238.191H491.505L491.416 239.135H489.119L489.055 239.837H491.199L491.109 240.743H488.978L488.902 241.623H491.275L491.186 242.619H487.447L487.83 238.191Z" fill="white"/>
<path d="M492.296 238.191H494.58C494.776 238.173 494.973 238.195 495.16 238.256C495.346 238.318 495.518 238.417 495.665 238.548C495.785 238.684 495.872 238.845 495.921 239.02C495.969 239.194 495.978 239.378 495.945 239.556C495.936 239.755 495.888 239.95 495.802 240.129C495.717 240.309 495.596 240.47 495.448 240.602C495.084 240.882 494.628 241.014 494.172 240.972H493.419L493.278 242.618H491.9L492.296 238.191ZM493.572 240.079H493.904C494.101 240.095 494.298 240.046 494.465 239.939C494.517 239.899 494.561 239.849 494.594 239.792C494.627 239.735 494.648 239.672 494.656 239.607C494.665 239.541 494.66 239.475 494.642 239.412C494.625 239.348 494.595 239.289 494.554 239.237C494.485 239.178 494.403 239.133 494.315 239.107C494.227 239.081 494.135 239.073 494.044 239.084H493.649L493.572 240.079Z" fill="white"/>
<path d="M496.466 238.191H500.69L500.588 239.288H499.197L498.903 242.619H497.538L497.819 239.288H496.428L496.466 238.191Z" fill="white"/>
<path opacity="0.5" d="M439.661 283.374H426.148C425.773 283.377 425.402 283.302 425.058 283.152C424.714 283.003 424.405 282.782 424.152 282.505C423.9 282.228 423.708 281.901 423.59 281.545C423.472 281.189 423.431 280.812 423.469 280.439L424.604 266.939C424.688 266.149 425.057 265.416 425.641 264.878C426.226 264.34 426.987 264.034 427.781 264.017H441.282C441.656 264.011 442.027 264.085 442.371 264.233C442.715 264.382 443.024 264.601 443.277 264.877C443.53 265.153 443.722 265.479 443.84 265.835C443.958 266.19 443.999 266.566 443.961 266.939L442.825 280.439C442.745 281.229 442.379 281.963 441.797 282.503C441.214 283.044 440.455 283.353 439.661 283.374Z" fill="#FFC000"/>
<path opacity="0.25" d="M497.373 293.902H423.723C423.545 293.902 423.369 293.866 423.206 293.795C423.043 293.724 422.897 293.619 422.777 293.488C422.657 293.357 422.566 293.203 422.509 293.035C422.452 292.866 422.431 292.688 422.447 292.511C422.487 292.139 422.66 291.795 422.934 291.542C423.209 291.288 423.566 291.143 423.94 291.133H497.59C497.767 291.132 497.941 291.168 498.103 291.239C498.265 291.309 498.411 291.412 498.531 291.542C498.651 291.671 498.742 291.824 498.8 291.991C498.858 292.158 498.88 292.335 498.866 292.511C498.829 292.885 498.657 293.232 498.382 293.488C498.107 293.744 497.749 293.891 497.373 293.902Z" fill="#FFC000"/>
<path opacity="0.2" d="M487.625 272.236H453.747C453.466 272.242 453.186 272.187 452.927 272.076C452.668 271.965 452.436 271.8 452.245 271.593C452.055 271.385 451.91 271.14 451.822 270.872C451.733 270.605 451.702 270.322 451.731 270.042C451.79 269.449 452.064 268.899 452.502 268.494C452.939 268.09 453.509 267.86 454.105 267.847H487.995C488.277 267.842 488.556 267.897 488.815 268.008C489.074 268.119 489.307 268.283 489.497 268.491C489.688 268.698 489.832 268.944 489.921 269.211C490.009 269.478 490.04 269.762 490.011 270.042C489.952 270.637 489.676 271.189 489.236 271.593C488.796 271.998 488.223 272.227 487.625 272.236Z" fill="#263238"/>
<path opacity="0.2" d="M473.614 279.546H453.198C452.916 279.55 452.636 279.493 452.377 279.381C452.119 279.268 451.886 279.103 451.696 278.894C451.506 278.686 451.361 278.439 451.273 278.171C451.184 277.903 451.154 277.62 451.182 277.339C451.244 276.747 451.519 276.198 451.956 275.795C452.392 275.391 452.961 275.16 453.556 275.144H474.048C474.329 275.141 474.608 275.197 474.866 275.309C475.124 275.42 475.355 275.585 475.545 275.792C475.736 275.999 475.88 276.244 475.969 276.51C476.059 276.777 476.091 277.059 476.064 277.339C476.004 277.946 475.719 278.508 475.266 278.917C474.813 279.325 474.224 279.549 473.614 279.546Z" fill="#263238"/>
<path d="M148.442 114.662C148.569 122.318 148.977 135.767 144.945 140.488C154.21 143.517 162.52 148.919 169.049 156.157C174.574 147.123 167.377 142.274 167.377 142.274C159.415 139.722 160.997 134.72 162.643 129.208L148.442 114.662Z" fill="#B55B52"/>
<path d="M141.499 154.229L136.804 163.264L132.172 172.31C130.666 175.335 129.186 178.346 127.821 181.319C127.144 182.812 126.545 184.292 125.958 185.721C125.449 186.933 125.023 188.178 124.682 189.447V187.418C124.843 189.258 125.18 191.079 125.69 192.854C126.25 194.822 126.923 196.756 127.706 198.647C128.497 200.599 129.403 202.552 130.373 204.504C131.342 206.456 132.427 208.459 133.397 210.284L133.537 210.527C133.955 211.295 134.091 212.185 133.921 213.043C133.752 213.902 133.288 214.674 132.61 215.226C131.932 215.778 131.083 216.077 130.208 216.069C129.333 216.061 128.489 215.748 127.821 215.184C125.905 213.582 124.114 211.837 122.461 209.965C120.815 208.104 119.289 206.139 117.893 204.083C116.436 201.945 115.156 199.692 114.065 197.345C112.875 194.834 111.985 192.192 111.411 189.473C111.316 188.924 111.316 188.363 111.411 187.814V187.444C111.694 185.316 112.155 183.216 112.789 181.166C113.351 179.316 113.989 177.58 114.64 175.858C115.916 172.438 117.332 169.159 118.799 165.93C120.267 162.702 121.798 159.55 123.38 156.373C124.962 153.196 126.596 150.146 128.382 147.033C129.368 145.361 130.964 144.137 132.835 143.619C134.705 143.101 136.703 143.33 138.409 144.256C140.114 145.182 141.394 146.734 141.977 148.585C142.561 150.436 142.403 152.441 141.538 154.178L141.499 154.229Z" fill="#B55B52"/>
<path d="M137.953 212.964L136.218 211.867L131.292 208.702L127.783 213.934C129.059 219.038 134.163 221.475 134.163 221.475L136.115 221.921C136.792 222.095 137.509 222.004 138.12 221.668C138.732 221.331 139.192 220.774 139.408 220.11L139.969 218.604C140.289 217.572 140.265 216.465 139.901 215.448C139.538 214.431 138.854 213.559 137.953 212.964Z" fill="#B55B52"/>
<path d="M235.961 190.545L259.069 177.262C259.429 177.05 259.83 176.916 260.245 176.87C260.66 176.824 261.081 176.866 261.478 176.993C261.876 177.121 262.242 177.332 262.553 177.611C262.863 177.89 263.111 178.232 263.28 178.614L265.284 182.94C265.647 183.749 265.702 184.664 265.436 185.511C265.17 186.358 264.603 187.077 263.842 187.534L240.733 200.804C240.378 201.019 239.982 201.156 239.57 201.208C239.159 201.259 238.741 201.224 238.344 201.103C237.947 200.983 237.58 200.781 237.266 200.509C236.952 200.238 236.699 199.904 236.523 199.528L234.519 195.202C234.137 194.386 234.073 193.456 234.34 192.595C234.606 191.734 235.185 191.003 235.961 190.545Z" fill="#FFC000"/>
<path d="M241.321 195.674L239.969 196.452L240.084 197.23L238.871 197.932L238.438 193.058L239.714 192.318L243.031 195.521L241.755 196.235L241.321 195.674ZM240.658 194.946L239.56 193.747L239.816 195.431L240.658 194.946Z" fill="white"/>
<path d="M245.136 192.243L246.336 191.975C246.393 192.291 246.393 192.615 246.336 192.932C246.277 193.212 246.159 193.477 245.991 193.71C245.778 193.977 245.513 194.198 245.213 194.361C244.873 194.574 244.489 194.709 244.09 194.756C243.736 194.775 243.387 194.676 243.095 194.476C242.709 194.217 242.411 193.848 242.24 193.416C241.94 192.853 241.863 192.197 242.023 191.579C242.239 190.994 242.661 190.509 243.21 190.214C243.586 189.962 244.034 189.841 244.486 189.869C244.895 189.939 245.269 190.146 245.545 190.456L244.613 191.311C244.541 191.234 244.459 191.165 244.371 191.107C244.267 191.046 244.146 191.019 244.026 191.03C243.9 191.033 243.777 191.068 243.669 191.132C243.537 191.199 243.424 191.299 243.342 191.422C243.259 191.545 243.209 191.687 243.197 191.834C243.191 192.142 243.266 192.445 243.414 192.715C243.523 193.047 243.738 193.334 244.026 193.531C244.134 193.574 244.25 193.591 244.366 193.58C244.481 193.569 244.592 193.53 244.69 193.467C244.889 193.363 245.041 193.184 245.111 192.97C245.183 192.734 245.191 192.483 245.136 192.243Z" fill="white"/>
<path d="M249.32 189.83L250.52 189.562C250.589 189.877 250.589 190.203 250.52 190.519C250.472 190.807 250.353 191.078 250.175 191.31C249.962 191.577 249.697 191.798 249.397 191.961C249.061 192.174 248.682 192.309 248.287 192.356C247.933 192.375 247.583 192.276 247.291 192.075C246.899 191.816 246.596 191.442 246.424 191.004C246.124 190.444 246.051 189.791 246.22 189.179C246.421 188.586 246.847 188.095 247.406 187.814C247.782 187.561 248.231 187.44 248.682 187.469C249.093 187.535 249.467 187.743 249.741 188.056L248.797 188.911C248.734 188.824 248.651 188.754 248.555 188.707C248.452 188.643 248.33 188.616 248.21 188.63C248.084 188.634 247.962 188.669 247.853 188.732C247.724 188.802 247.614 188.902 247.534 189.025C247.454 189.147 247.406 189.288 247.393 189.434C247.403 189.76 247.481 190.08 247.625 190.372C247.768 190.665 247.972 190.924 248.223 191.131C248.331 191.173 248.447 191.189 248.562 191.178C248.677 191.167 248.789 191.129 248.886 191.067C249.086 190.963 249.237 190.784 249.307 190.57C249.374 190.328 249.379 190.073 249.32 189.83Z" fill="white"/>
<path d="M249.82 186.526L253.01 184.688L253.406 185.556L251.415 186.705L251.709 187.343L253.559 186.283L253.942 187.1L252.092 188.159L252.462 188.963L254.516 187.776L254.937 188.695L251.696 190.558L249.82 186.526Z" fill="white"/>
<path d="M253.699 184.292L255.677 183.156C255.838 183.046 256.018 182.969 256.209 182.93C256.4 182.89 256.596 182.889 256.787 182.927C256.959 182.983 257.117 183.078 257.247 183.204C257.377 183.33 257.478 183.484 257.54 183.654C257.632 183.832 257.687 184.026 257.703 184.225C257.718 184.425 257.693 184.625 257.629 184.815C257.456 185.235 257.133 185.576 256.723 185.772L256.073 186.142L256.774 187.648L255.575 188.337L253.699 184.292ZM255.703 185.325L255.996 185.16C256.176 185.077 256.324 184.938 256.417 184.764C256.445 184.7 256.46 184.63 256.46 184.56C256.46 184.49 256.445 184.42 256.417 184.356C256.362 184.241 256.267 184.15 256.149 184.1C256.058 184.086 255.965 184.09 255.875 184.112C255.785 184.134 255.7 184.173 255.626 184.228L255.294 184.432L255.703 185.325Z" fill="white"/>
<path d="M257.309 182.214L260.932 180.147L261.392 181.142L260.116 181.831L261.532 184.881L260.345 185.557L258.929 182.52L257.653 183.209L257.309 182.214Z" fill="white"/>
<path d="M228.535 192.638L224.707 194.373C223.956 194.706 223.368 195.322 223.069 196.087C222.77 196.851 222.786 197.703 223.112 198.456L224.477 201.659C224.648 202.043 224.907 202.382 225.233 202.648C225.559 202.913 225.942 203.099 226.353 203.19C229.619 203.867 234.328 201.991 237.709 200.294C238.262 200.024 238.752 199.638 239.145 199.164C239.538 198.69 239.825 198.138 239.988 197.544C240.151 196.95 240.186 196.328 240.09 195.72C239.994 195.112 239.77 194.531 239.432 194.016L237.952 191.745C237.324 190.801 236.352 190.14 235.244 189.901C234.136 189.663 232.979 189.867 232.018 190.469L228.535 192.638Z" fill="#B55B52"/>
<path d="M134.927 141.101C128.215 144.074 122.077 151.156 117.062 164.247C118.683 169.645 135.271 178.5 135.271 178.5C135.271 178.5 155.968 134.593 134.927 141.101Z" fill="#263238"/>
<path d="M190.333 157.867C190.269 162.742 198.32 174.009 189.057 180.542C188.253 190.38 187.155 200.065 185.05 216.206H135.49C140.199 198.342 136.128 186.335 128.574 154.958C128.145 153.27 128.085 151.51 128.399 149.797C128.713 148.084 129.393 146.46 130.392 145.034C131.392 143.608 132.687 142.414 134.19 141.535C135.693 140.656 137.369 140.112 139.101 139.94C141.066 139.735 143.159 139.569 145.303 139.467C152.792 138.937 160.309 138.937 167.799 139.467C170.236 139.697 172.749 140.003 175.161 140.335C179.377 140.941 183.233 143.047 186.021 146.268C188.808 149.489 190.339 153.608 190.333 157.867Z" fill="#263238"/>
<path d="M167.989 137.921C156.568 135.012 132.107 135.369 127.654 138.802C123.201 142.234 132.567 148.104 133.103 148.576C129.874 150.375 133.103 159.69 146.513 162.255C159.924 164.82 162.885 148.219 166.764 144.735C168.741 142.962 169.826 140.218 167.989 137.921Z" fill="#FFC000"/>
<path opacity="0.2" d="M134.928 148.183C141.639 149.101 155.982 145.911 160.869 144.418C154.616 147.762 138.628 153.848 134.928 148.183Z" fill="black"/>
<path d="M188.799 151.958C189.488 155.365 190.165 158.938 190.93 162.409C191.696 165.88 192.436 169.389 193.24 172.821C194.044 176.253 194.937 179.66 195.907 182.927C196.392 184.56 196.94 186.155 197.476 187.648C197.958 189.003 198.538 190.321 199.212 191.591L196.66 189.281C196.66 189.281 196.749 189.281 196.787 189.358C196.825 189.435 197.144 189.498 197.323 189.588L198.944 190.073C200.13 190.404 201.496 190.685 202.772 190.953C205.451 191.463 208.246 191.961 211.053 192.395L219.564 193.735C222.396 194.22 225.28 194.641 228.113 195.151C228.995 195.311 229.791 195.782 230.356 196.478C230.921 197.174 231.218 198.049 231.193 198.945C231.168 199.842 230.824 200.699 230.221 201.363C229.619 202.027 228.798 202.453 227.909 202.565C224.936 202.935 222.014 203.126 219.053 203.343C216.093 203.56 213.145 203.611 210.121 203.636C207.097 203.662 204.15 203.636 201.074 203.394C199.531 203.279 197.974 203.152 196.315 202.909C195.473 202.794 194.618 202.641 193.674 202.424C193.176 202.284 192.742 202.195 192.142 201.99C191.844 201.903 191.55 201.801 191.262 201.684L190.216 201.212C189.309 200.787 188.534 200.126 187.97 199.298L187.715 198.902C186.497 197.04 185.427 195.086 184.512 193.058C183.644 191.183 182.943 189.333 182.253 187.508C180.901 183.833 179.778 180.196 178.77 176.547C177.762 172.898 176.869 169.261 176.052 165.612C175.235 161.962 174.521 158.338 173.934 154.536C173.624 152.6 174.086 150.621 175.219 149.021C176.352 147.422 178.067 146.331 179.996 145.982C181.925 145.633 183.914 146.054 185.536 147.155C187.158 148.255 188.284 149.948 188.672 151.869L188.799 151.958Z" fill="#B55B52"/>
<path d="M179.383 141.459C185.495 144.495 191.556 150.391 194.07 163.891C192.487 169.237 170.642 179.534 170.642 179.534C170.642 179.534 158.482 133.649 179.383 141.459Z" fill="#263238"/>
<path d="M178.517 108.765C178.402 109.735 178.823 110.603 179.461 110.692C180.099 110.781 180.737 110.092 180.839 109.123C180.941 108.153 180.533 107.285 179.895 107.183C179.257 107.081 178.645 107.796 178.517 108.765Z" fill="#263238"/>
<path d="M179.613 107.197L182.038 106.891C182.038 106.891 180.609 108.524 179.613 107.197Z" fill="#263238"/>
<path d="M178.796 109.825C179.391 112.182 180.301 114.448 181.501 116.562C180.951 116.838 180.348 116.989 179.733 117.007C179.118 117.025 178.506 116.908 177.941 116.665L178.796 109.825Z" fill="#A02724"/>
<path d="M180.787 102.08C180.932 102.078 181.069 102.018 181.17 101.914C181.276 101.805 181.335 101.658 181.335 101.506C181.335 101.354 181.276 101.207 181.17 101.098C180.514 100.432 179.709 99.9315 178.822 99.6386C177.934 99.3457 176.989 99.2685 176.066 99.4134C175.993 99.4299 175.923 99.4609 175.862 99.5048C175.8 99.5486 175.749 99.6043 175.709 99.6686C175.67 99.7329 175.644 99.8045 175.633 99.879C175.622 99.9536 175.626 100.03 175.645 100.103C175.681 100.253 175.775 100.382 175.907 100.464C176.038 100.545 176.196 100.571 176.347 100.536C177.074 100.44 177.813 100.514 178.506 100.754C179.2 100.993 179.828 101.39 180.341 101.914C180.398 101.973 180.468 102.018 180.545 102.047C180.623 102.076 180.705 102.087 180.787 102.08Z" fill="#263238"/>
<path d="M146.589 100.561C145.811 112.594 145.236 117.659 150.417 124.716C158.213 135.306 172.977 134.03 177.213 122.559C181.041 112.236 181.692 94.2958 170.756 87.7499C168.404 86.2956 165.712 85.4822 162.948 85.3905C160.184 85.2989 157.444 85.9322 155 87.2275C152.557 88.5228 150.495 90.435 149.019 92.7741C147.543 95.1132 146.706 97.7978 146.589 100.561Z" fill="#B55B52"/>
<path d="M170.209 111.42C178.401 108.23 177.316 99.0943 173.067 95.4704C181.374 98.8774 187.103 96.2233 180.825 87.1764C174.547 78.1296 140.198 76.2284 144.944 90.2644C129.632 85.339 134.124 105.717 134.928 119.076C123.852 130.241 151.414 139.926 168.844 134.286C186.274 128.646 170.209 111.42 170.209 111.42Z" fill="#263238"/>
<path d="M167.072 109.736C168.029 112.799 168.348 114.113 170.211 115.581C172.993 117.788 176.246 116.601 176.157 113.475C176.081 110.655 174.537 106.125 171.41 105.117C168.284 104.109 166.115 106.674 167.072 109.736Z" fill="#B55B52"/>
<path d="M185.035 216.205C185.035 216.205 186.783 280.171 189.118 322.266C191.594 360.878 194.771 451.206 194.771 451.206L185.022 451.716C185.022 451.716 163.42 375.718 164.338 329.795C138.984 265.561 148.095 218.132 148.095 218.132L185.035 216.205Z" fill="#B55B52"/>
<path d="M194.046 447.174C194.263 447.017 194.524 446.933 194.792 446.933C195.06 446.933 195.321 447.017 195.539 447.174C200.222 450.664 205.903 452.556 211.744 452.571C218.226 452.852 216.618 456.399 207.342 457.573C196.444 458.938 194.097 461.171 190.575 462.065C187.053 462.958 184.195 460.266 184.322 452.865C184.329 452.611 184.412 452.364 184.56 452.157C184.707 451.95 184.914 451.792 185.152 451.704C188.281 450.541 191.265 449.021 194.046 447.174Z" fill="#263238"/>
<path d="M172.086 216.205C172.086 216.205 154.222 291.91 143.874 327.141C132.989 364.145 124.376 448.59 124.427 451.397H115.993C115.993 451.397 105.083 382.953 118.545 327.115C119.821 236.519 135.439 216.205 135.439 216.205H172.086Z" fill="#B55B52"/>
<path d="M124.656 448.335C124.877 448.242 125.122 448.225 125.354 448.288C125.585 448.35 125.789 448.488 125.932 448.68C128.114 451.5 129.76 454.639 136.14 457.395C141.461 459.679 138.526 462.792 130.169 461.644C120.356 460.304 120.229 461.899 116.911 461.899C113.593 461.899 112.049 458.607 114.461 451.449C114.54 451.212 114.681 451 114.869 450.836C115.058 450.672 115.287 450.562 115.533 450.517C118.652 450.165 121.716 449.432 124.656 448.335Z" fill="#263238"/>
<path d="M115.481 309.812C114.486 319.166 112.648 339.441 112.648 339.441C112.648 339.441 141.996 345.464 193.445 342.44C193.177 336.264 193.126 327.332 193.126 327.332L115.481 309.812Z" fill="#263238"/>
<path d="M185.036 215.951C192.168 257.176 195.427 298.976 194.772 340.808C166.934 340.563 139.175 337.809 111.832 332.578C111.832 332.578 113.338 244.967 135.489 215.964C148.287 212.94 184.743 214.969 185.036 215.951Z" fill="#FFC000"/>
<path opacity="0.2" d="M133.408 250.824C148.299 262.104 159.592 264.235 159.592 264.235C159.592 264.235 147.406 268.548 133.408 250.824Z" fill="black"/>
<path d="M469.892 438.537H469.815C469.775 438.53 469.736 438.514 469.702 438.491C469.667 438.468 469.638 438.439 469.615 438.404C469.592 438.369 469.577 438.331 469.57 438.29C469.563 438.249 469.564 438.207 469.573 438.167C476.195 407.122 473.095 377.659 460.373 350.57C452.56 333.727 441.277 318.725 427.261 306.548C427.23 306.519 427.206 306.485 427.189 306.446C427.173 306.408 427.164 306.366 427.164 306.324C427.164 306.283 427.173 306.241 427.189 306.203C427.206 306.164 427.23 306.13 427.261 306.101C427.323 306.042 427.405 306.009 427.49 306.009C427.576 306.009 427.658 306.042 427.72 306.101C441.8 318.323 453.14 333.381 460.998 350.289C473.758 377.493 476.897 407.109 470.249 438.333C470.223 438.404 470.173 438.463 470.108 438.5C470.042 438.538 469.966 438.551 469.892 438.537Z" fill="#263238"/>
<path d="M481.823 380.391C479.701 384.979 476.458 388.959 472.394 391.964C471.704 386.938 472.41 381.818 474.436 377.166C476.461 372.514 479.728 368.509 483.878 365.589C484.448 370.617 483.741 375.708 481.823 380.391Z" fill="#263238"/>
<path d="M452.104 341.804C456.25 344.695 459.603 348.583 461.853 353.109C456.781 352.912 451.862 351.319 447.637 348.508C443.411 345.696 440.043 341.774 437.902 337.172C442.951 337.495 447.836 339.088 452.104 341.804Z" fill="#263238"/>
<path d="M447.102 310.184C447.785 315.192 447.197 320.29 445.393 325.011C442.105 321.15 439.942 316.46 439.139 311.454C438.335 306.447 438.923 301.316 440.837 296.62C444.031 300.544 446.186 305.208 447.102 310.184Z" fill="#FFC000"/>
<path d="M429.928 306.076C429.983 306.565 429.891 307.06 429.665 307.497C429.439 307.935 429.088 308.295 428.657 308.533C428.226 308.771 427.734 308.876 427.243 308.834C426.752 308.792 426.285 308.605 425.901 308.298C425.516 307.99 425.231 307.575 425.083 307.106C424.934 306.636 424.928 306.133 425.066 305.66C425.203 305.187 425.478 304.766 425.855 304.449C426.232 304.132 426.695 303.935 427.184 303.881C427.836 303.826 428.483 304.023 428.994 304.431C429.504 304.84 429.838 305.428 429.928 306.076Z" fill="#FFC000"/>
<path d="M477.383 432.196C477.321 432.196 477.26 432.178 477.208 432.144C477.156 432.11 477.115 432.062 477.09 432.005C466.359 406.485 464.202 380.684 470.71 355.368C474.676 339.66 481.915 324.967 491.955 312.252C491.985 312.221 492.021 312.196 492.06 312.18C492.099 312.163 492.142 312.154 492.185 312.154C492.228 312.154 492.27 312.163 492.31 312.18C492.349 312.196 492.385 312.221 492.414 312.252C492.473 312.312 492.506 312.392 492.506 312.475C492.506 312.559 492.473 312.639 492.414 312.699C482.453 325.334 475.274 339.931 471.348 355.534C464.891 380.697 467.022 406.344 477.728 431.749C477.744 431.789 477.753 431.831 477.753 431.873C477.753 431.916 477.744 431.958 477.727 431.998C477.711 432.037 477.686 432.072 477.656 432.102C477.625 432.132 477.589 432.155 477.549 432.17L477.383 432.196Z" fill="#263238"/>
<path d="M462.784 404.646C464.803 406.76 467.322 408.331 470.109 409.214C469.55 406.333 468.207 403.661 466.228 401.493C464.249 399.326 461.711 397.745 458.893 396.926C459.521 399.786 460.859 402.44 462.784 404.646Z" fill="#FFC000"/>
<path d="M472.06 356.72C470.27 359.473 469.204 362.633 468.959 365.907C471.959 364.548 474.528 362.39 476.385 359.669C478.241 356.949 479.314 353.77 479.486 350.48C476.526 351.904 473.972 354.05 472.06 356.72Z" fill="#FFC000"/>
<path d="M471.551 337.605C471.786 340.289 472.695 342.87 474.193 345.108C475.45 342.711 476.023 340.014 475.847 337.313C475.672 334.611 474.755 332.011 473.197 329.796C471.996 332.218 471.429 334.905 471.551 337.605Z" fill="#FFC000"/>
<path d="M487.552 321.401C485.301 322.883 483.461 324.911 482.205 327.296C484.906 327.258 487.545 326.477 489.832 325.039C492.119 323.601 493.965 321.56 495.169 319.142C492.48 319.238 489.859 320.015 487.552 321.401Z" fill="#FFC000"/>
<path d="M490.053 312.621C490.085 313.047 490.242 313.454 490.505 313.79C490.768 314.126 491.125 314.377 491.531 314.51C491.937 314.643 492.373 314.653 492.784 314.538C493.196 314.423 493.563 314.188 493.841 313.864C494.119 313.539 494.294 313.14 494.345 312.716C494.395 312.292 494.318 311.862 494.125 311.482C493.931 311.101 493.628 310.787 493.255 310.579C492.883 310.37 492.456 310.277 492.031 310.312C491.463 310.357 490.936 310.626 490.565 311.058C490.195 311.491 490.011 312.053 490.053 312.621Z" fill="#FFC000"/>
<path d="M497.862 452.969L496.662 452.522C497.468 450.285 497.865 447.921 497.836 445.542H499.112C499.141 448.073 498.718 450.588 497.862 452.969Z" fill="#FFC000"/>
<path d="M496.867 438.869C495.524 434.299 492.861 430.228 489.211 427.168L490.028 426.185C493.856 429.414 496.644 433.702 498.041 438.511L496.867 438.869Z" fill="#FFC000"/>
<path d="M482.831 426.734L485.383 416.13H462.134L464.686 426.734C461.139 428.434 458.144 431.101 456.047 434.429C453.95 437.756 452.835 441.609 452.832 445.542C452.832 457.026 462.185 461.25 473.72 461.25C485.255 461.25 494.608 457.077 494.608 445.542C494.612 441.617 493.509 437.77 491.426 434.443C489.343 431.117 486.364 428.445 482.831 426.734Z" fill="#FFC000"/>
</svg>
