<svg width="720" height="837" viewBox="0 0 720 837" fill="none" xmlns="http://www.w3.org/2000/svg">
<path d="M360 836.663C558.823 836.663 720 745.101 720 632.154C720 519.207 558.823 427.646 360 427.646C161.178 427.646 0 519.207 0 632.154C0 745.101 161.178 836.663 360 836.663Z" fill="#F5F5F5"/>
<path d="M509.809 761.1L241.083 605.937C238.719 604.575 236.756 602.614 235.391 600.252C234.025 597.89 233.307 595.21 233.307 592.482C233.307 589.753 234.025 587.073 235.391 584.711C236.756 582.349 238.719 580.388 241.083 579.026L267.592 562.31C272.168 559.674 277.356 558.287 282.637 558.287C287.918 558.287 293.106 559.674 297.682 562.31L566.444 717.491C568.808 718.853 570.772 720.813 572.137 723.176C573.502 725.538 574.221 728.218 574.221 730.946C574.221 733.674 573.502 736.354 572.137 738.717C570.772 741.079 568.808 743.04 566.444 744.402L539.935 761.1C535.357 763.749 530.161 765.145 524.872 765.145C519.583 765.145 514.387 763.749 509.809 761.1Z" fill="#E0E0E0"/>
<path d="M101.213 619.639C133.42 619.639 159.529 604.646 159.529 586.152C159.529 567.657 133.42 552.664 101.213 552.664C69.0055 552.664 42.8965 567.657 42.8965 586.152C42.8965 604.646 69.0055 619.639 101.213 619.639Z" fill="#E6E6E6"/>
<path d="M605.103 627.313L630.68 642.02C630.68 642.02 617.617 600.968 624.578 559.588C627.209 543.949 632.854 536.184 634.827 532.001C636.8 527.817 652.092 501.966 638.481 490.127C624.87 478.288 593.209 502.094 594.927 565.799C595.707 586.651 599.127 607.32 605.103 627.313Z" fill="#FFC000"/>
<path opacity="0.5" d="M605.103 627.313L630.68 642.02C630.68 642.02 617.617 600.968 624.578 559.588C627.209 543.949 632.854 536.184 634.827 532.001C636.8 527.817 652.092 501.966 638.481 490.127C624.87 478.288 593.209 502.094 594.927 565.799C595.707 586.651 599.127 607.32 605.103 627.313Z" fill="black"/>
<path d="M616.997 635.059C616.811 635.063 616.628 635.008 616.474 634.904C616.32 634.799 616.203 634.649 616.138 634.474C616.047 634.2 606.273 607.49 606.583 564.557C606.894 521.624 629.457 498.312 629.676 498.092C629.761 498.007 629.862 497.939 629.973 497.893C630.085 497.846 630.204 497.822 630.325 497.822C630.445 497.822 630.565 497.846 630.676 497.893C630.787 497.939 630.888 498.007 630.973 498.092C631.059 498.177 631.127 498.278 631.173 498.39C631.219 498.501 631.243 498.62 631.243 498.741C631.243 498.862 631.219 498.981 631.173 499.092C631.127 499.204 631.059 499.305 630.973 499.39C630.754 499.609 608.721 522.226 608.41 564.575C608.1 606.924 617.746 633.597 617.856 633.853C617.938 634.081 617.926 634.332 617.824 634.551C617.721 634.77 617.535 634.94 617.308 635.022C617.207 635.053 617.102 635.066 616.997 635.059Z" fill="white"/>
<path d="M615.772 633.597L650.74 653.694C654.383 655.847 658.704 656.549 662.842 655.658C666.98 654.768 670.63 652.351 673.065 648.889C675.379 645.287 676.356 640.987 675.823 636.74C674.143 618.58 666.25 614.396 675.915 606.303C685.579 598.209 688.101 597.643 687.552 589.86C687.004 582.077 681.688 578.679 679.167 575.61C676.646 572.541 669.667 566.11 674.417 556.61C679.167 547.109 685.652 537.92 675.823 533.718C669.959 531.197 660.185 534.558 653.754 541.537C647.323 548.516 642.025 553.54 635.868 555.221C629.711 556.902 616.886 557.176 617.434 567.791C617.982 578.405 620.796 582.041 618.275 586.773C613.525 595.615 592.862 600.639 615.772 633.597Z" fill="#FFC000"/>
<path d="M633.055 644.413C632.827 644.405 632.61 644.317 632.442 644.162C632.274 644.008 632.168 643.799 632.141 643.572C632.141 642.951 626.77 580.25 669.886 538.523C670.064 538.376 670.291 538.302 670.521 538.316C670.751 538.329 670.968 538.429 671.127 538.595C671.287 538.762 671.377 538.982 671.381 539.213C671.385 539.443 671.301 539.667 671.147 539.838C628.652 580.963 633.914 642.787 633.968 643.408C633.989 643.647 633.914 643.885 633.76 644.07C633.606 644.255 633.386 644.371 633.146 644.394L633.055 644.413Z" fill="white"/>
<path d="M639.978 590.445C639.748 590.445 639.526 590.359 639.357 590.203C639.188 590.048 639.083 589.834 639.065 589.604C638.682 584.745 637.314 580.015 635.043 575.702C632.772 571.39 629.646 567.585 625.856 564.52C625.757 564.451 625.673 564.363 625.609 564.261C625.544 564.159 625.5 564.045 625.48 563.927C625.46 563.808 625.463 563.686 625.49 563.568C625.517 563.451 625.567 563.34 625.637 563.241C625.704 563.143 625.791 563.06 625.891 562.995C625.991 562.931 626.104 562.887 626.221 562.867C626.338 562.846 626.459 562.85 626.575 562.876C626.691 562.903 626.801 562.953 626.897 563.022C630.936 566.225 634.266 570.232 636.675 574.789C639.084 579.346 640.52 584.354 640.892 589.495C640.912 589.739 640.835 589.982 640.678 590.17C640.521 590.358 640.296 590.476 640.051 590.499L639.978 590.445Z" fill="white"/>
<path d="M637 601.206C636.78 601.208 636.565 601.13 636.398 600.986C636.216 600.825 636.105 600.599 636.088 600.356C636.071 600.114 636.149 599.875 636.306 599.689C636.745 599.178 647.542 587.266 672.845 590.427C673.085 590.458 673.302 590.584 673.449 590.776C673.597 590.968 673.662 591.21 673.631 591.45C673.599 591.691 673.474 591.91 673.283 592.06C673.092 592.21 672.849 592.279 672.608 592.254C648.309 589.203 637.768 600.785 637.658 600.895C637.575 600.988 637.474 601.064 637.361 601.117C637.248 601.17 637.125 601.201 637 601.206Z" fill="white"/>
<path d="M501.625 742.556L265.291 606.102C248.611 596.474 235.092 570.641 235.092 548.407V42.3422C235.092 20.1082 248.611 9.8956 265.291 19.5236L501.625 155.978C518.305 165.606 531.825 191.439 531.825 213.673V719.738C531.825 741.953 518.305 752.184 501.625 742.556Z" fill="#455A64"/>
<path d="M528.848 140.066L292.495 3.61089C285.37 -0.499741 278.83 -0.974749 273.659 1.54644C273.027 1.86343 272.416 2.22357 271.833 2.62434L245.342 18.0255C250.676 14.8283 257.655 15.0659 265.31 19.4871L501.644 155.942C518.324 165.57 531.844 191.403 531.844 213.637V719.701C531.844 731.467 528.062 739.798 522.033 743.744L548.177 728.525C554.845 724.981 559.138 716.303 559.138 703.862V197.797C559.138 175.527 545.528 149.694 528.848 140.066Z" fill="#37474F"/>
<path d="M531.824 213.637V719.701C531.824 731.467 528.043 739.798 522.014 743.744L548.176 728.525C554.844 724.981 559.137 716.303 559.137 703.862V197.797L531.916 213.6L531.824 213.637Z" fill="#263238"/>
<path d="M559.046 237.058L531.824 252.77V265.047L559.046 249.317V237.058Z" fill="#37474F"/>
<path d="M547.116 318.704C544.686 320.111 542.713 318.613 542.713 315.379V288.98C542.738 287.33 543.149 285.708 543.913 284.246C544.678 282.783 545.775 281.52 547.116 280.558C549.546 279.151 551.519 280.558 551.519 283.883V310.282C551.494 311.933 551.083 313.554 550.318 315.017C549.554 316.479 548.457 317.742 547.116 318.704Z" fill="#37474F"/>
<path d="M542.694 315.452V288.98C542.719 287.33 543.13 285.708 543.895 284.246C544.659 282.783 545.756 281.52 547.097 280.558C547.498 280.277 547.965 280.107 548.452 280.062C548.939 280.017 549.429 280.1 549.874 280.302L546.567 278.603C546.115 278.385 545.613 278.291 545.113 278.329C544.613 278.368 544.131 278.538 543.717 278.822C542.375 279.784 541.276 281.047 540.509 282.509C539.741 283.972 539.326 285.593 539.296 287.244V313.626C539.228 314.292 539.329 314.965 539.591 315.582C539.853 316.198 540.267 316.738 540.794 317.152L544.247 318.978C543.698 318.583 543.264 318.047 542.991 317.427C542.718 316.807 542.615 316.125 542.694 315.452Z" fill="#455A64"/>
<path d="M547.116 382.593C544.686 384 542.713 382.593 542.713 379.268V352.868C542.739 351.218 543.151 349.597 543.915 348.135C544.68 346.673 545.776 345.409 547.116 344.446C549.546 343.039 551.519 344.446 551.519 347.789V374.171C551.497 375.821 551.087 377.444 550.322 378.907C549.557 380.37 548.459 381.633 547.116 382.593Z" fill="#37474F"/>
<path d="M542.695 379.268V352.869C542.721 351.219 543.133 349.598 543.898 348.135C544.662 346.673 545.758 345.409 547.098 344.446C547.501 344.171 547.968 344.003 548.454 343.958C548.939 343.913 549.429 343.993 549.875 344.191L546.568 342.473C546.119 342.246 545.615 342.146 545.113 342.185C544.61 342.224 544.128 342.399 543.718 342.692C542.373 343.652 541.272 344.914 540.504 346.377C539.736 347.84 539.322 349.463 539.297 351.115V377.569C539.227 378.235 539.327 378.909 539.59 379.526C539.852 380.143 540.267 380.683 540.795 381.095L544.248 382.922C543.676 382.517 543.228 381.96 542.954 381.315C542.679 380.67 542.59 379.961 542.695 379.268Z" fill="#455A64"/>
<path d="M493.367 170.174L261.125 36.0392C260.156 35.4816 259.058 35.1871 257.94 35.1851C256.821 35.183 255.722 35.4734 254.751 36.0274C253.779 36.5814 252.97 37.3797 252.402 38.3432C251.835 39.3067 251.529 40.4019 251.516 41.52V548.407C251.516 565.324 263.519 586.097 278.171 594.555L504.712 725.42C505.787 726.038 507.005 726.363 508.244 726.362C509.484 726.361 510.701 726.034 511.775 725.414C512.848 724.794 513.739 723.903 514.36 722.829C514.98 721.756 515.307 720.539 515.309 719.299V208.229C515.4 194.271 505.498 177.153 493.367 170.174Z" fill="#FFC000"/>
<path opacity="0.9" d="M493.367 170.174L261.125 36.0392C260.156 35.4816 259.058 35.1871 257.94 35.1851C256.821 35.183 255.722 35.4734 254.751 36.0274C253.779 36.5814 252.97 37.3797 252.402 38.3432C251.835 39.3067 251.529 40.4019 251.516 41.52V548.407C251.516 565.324 263.519 586.097 278.171 594.555L504.712 725.42C505.787 726.038 507.005 726.363 508.244 726.362C509.484 726.361 510.701 726.034 511.775 725.414C512.848 724.794 513.739 723.903 514.36 722.829C514.98 721.756 515.307 720.539 515.309 719.299V208.229C515.4 194.271 505.498 177.153 493.367 170.174Z" fill="white"/>
<path d="M330.586 71.0618L334.185 86.2072L411.173 130.602L424.473 123.513L330.586 71.0618Z" fill="#455A64"/>
<path d="M353.222 85.6957C353.222 88.2169 351.395 89.2217 349.276 87.9794C348.138 87.2241 347.194 86.2124 346.518 85.0258C345.842 83.8391 345.454 82.5105 345.385 81.1466C345.385 78.6437 347.212 77.6206 349.331 78.8812C350.468 79.6326 351.413 80.6409 352.089 81.8246C352.765 83.0083 353.153 84.3344 353.222 85.6957Z" fill="#263238"/>
<path d="M405.089 117.758C404.667 117.755 404.253 117.648 403.883 117.448L364.567 95.5245C364.012 95.1985 363.606 94.6684 363.437 94.0473C363.267 93.4263 363.347 92.7636 363.66 92.2008C363.972 91.6379 364.492 91.2195 365.109 91.035C365.726 90.8504 366.39 90.9142 366.96 91.2129L406.294 113.136C406.773 113.402 407.149 113.819 407.364 114.322C407.579 114.825 407.621 115.385 407.483 115.915C407.345 116.444 407.035 116.912 406.601 117.246C406.168 117.58 405.636 117.76 405.089 117.758Z" fill="#263238"/>
<path d="M300.223 141.527C297.83 140.139 296.094 141.345 296.094 144.396C296.094 145.921 296.471 147.423 297.192 148.768C297.912 150.113 298.953 151.26 300.223 152.105C300.903 152.518 301.684 152.736 302.48 152.736C303.275 152.736 304.056 152.518 304.736 152.105L308.554 159.011C307.211 159.752 305.688 160.106 304.156 160.031C302.623 159.957 301.142 159.458 299.876 158.591C296.774 156.693 294.188 154.06 292.346 150.924C290.504 147.789 289.464 144.247 289.316 140.614C289.316 133.836 293.866 131.479 300.132 135.133C303.671 137.412 306.57 140.556 308.554 144.268L304.736 147.3C303.794 144.996 302.232 142.997 300.223 141.527Z" fill="#FFC000"/>
<path d="M330.531 164.419C330.531 171.252 325.909 173.554 319.569 169.9C316.379 167.993 313.708 165.328 311.796 162.14C309.884 158.953 308.788 155.343 308.607 151.63C308.607 144.797 313.23 142.495 319.569 146.149C322.767 148.047 325.444 150.711 327.357 153.9C329.27 157.089 330.361 160.704 330.531 164.419ZM315.385 155.704C315.417 157.273 315.822 158.812 316.565 160.193C317.308 161.575 318.369 162.76 319.66 163.652C321.926 164.967 323.753 163.652 323.753 160.546C323.747 159.012 323.372 157.503 322.659 156.145C321.947 154.788 320.918 153.621 319.66 152.745C317.359 151.411 315.385 152.544 315.385 155.704Z" fill="#FFC000"/>
<path d="M337.895 157.166L345.787 173.608V161.77L351.761 165.223V188.261L346.281 185.082L338.425 168.785V180.551L332.414 177.08V153.987L337.895 157.166Z" fill="#FFC000"/>
<path d="M371.291 176.44V182.469L365.591 179.181V196.208L358.996 192.389V175.362L353.332 172.092V166.081L371.291 176.44Z" fill="#FFC000"/>
<path d="M384.152 203.662L376.662 199.332L375.639 201.999L368.879 198.089L377.301 179.911L384.079 183.821L392.191 211.554L385.157 207.498L384.152 203.662ZM382.526 197.267L380.48 189.393L378.379 194.874L382.526 197.267Z" fill="#FFC000"/>
<path d="M402.659 200.665C400.266 199.295 398.53 200.483 398.53 203.552C398.533 205.077 398.911 206.578 399.631 207.923C400.351 209.267 401.391 210.414 402.659 211.262C403.344 211.67 404.127 211.886 404.924 211.886C405.722 211.886 406.505 211.67 407.19 211.262L411.008 218.168C409.659 218.9 408.134 219.249 406.601 219.174C405.068 219.1 403.584 218.607 402.312 217.747C399.207 215.848 396.619 213.212 394.777 210.073C392.935 206.934 391.896 203.389 391.752 199.752C391.752 192.974 396.319 190.617 402.567 194.271C406.102 196.561 409.004 199.702 411.008 203.406L407.19 206.42C406.227 204.128 404.661 202.139 402.659 200.665Z" fill="#FFC000"/>
<path d="M429.021 209.782V215.793L423.321 212.504V229.586L416.726 225.768V208.741L411.062 205.47V199.46L429.021 209.782Z" fill="#FFC000"/>
<path d="M448.515 238.063C450.141 238.995 451.383 238.264 451.383 235.98V222.699L457.997 226.499V239.781C457.997 245.901 454.343 247.728 448.497 244.384C445.68 242.82 443.312 240.559 441.62 237.818C439.928 235.076 438.968 231.946 438.832 228.727V215.446L445.446 219.264V232.546C445.471 233.645 445.764 234.722 446.299 235.684C446.833 236.645 447.594 237.462 448.515 238.063Z" fill="#FFC000"/>
<path d="M468.648 238.136C467.899 237.716 467.424 237.698 467.424 238.392C467.424 241.278 477.746 245.444 477.746 253.793C477.746 258.908 473.855 258.927 469.361 256.332C465.41 253.912 462.007 250.695 459.367 246.887L461.815 242.576C463.824 245.686 466.403 248.389 469.415 250.541C470.384 251.107 471.005 251.107 471.005 250.285C471.005 247.289 460.664 243.306 460.664 235.213C460.664 230.609 464.026 229.732 469.214 232.655C472.557 234.677 475.499 237.296 477.892 240.383L475.499 244.804C473.522 242.287 471.218 240.044 468.648 238.136Z" fill="#FFC000"/>
<path d="M266.991 255.054C274.403 245.949 278.135 234.397 277.449 222.677C276.762 210.957 271.709 199.919 263.284 191.742C254.86 183.565 243.676 178.842 231.941 178.505C220.205 178.168 208.769 182.242 199.89 189.923C191.01 197.603 185.332 208.333 183.975 219.995C182.618 231.656 185.681 243.403 192.559 252.918C199.438 262.432 209.632 269.023 221.132 271.39C232.631 273.757 244.6 271.729 254.677 265.705L277.55 275.643L266.991 255.054Z" fill="#FFC000"/>
<path opacity="0.4" d="M266.991 255.054C274.403 245.949 278.135 234.397 277.449 222.677C276.762 210.957 271.709 199.919 263.284 191.742C254.86 183.565 243.676 178.842 231.941 178.505C220.205 178.168 208.769 182.242 199.89 189.923C191.01 197.603 185.332 208.333 183.975 219.995C182.618 231.656 185.681 243.403 192.559 252.918C199.438 262.432 209.632 269.023 221.132 271.39C232.631 273.757 244.6 271.729 254.677 265.705L277.55 275.643L266.991 255.054Z" fill="black"/>
<path d="M213.205 222.899C213.205 222.187 212.694 221.785 211.762 221.785C209.601 222.068 207.582 223.02 205.989 224.507L203.395 219.465C206.125 217.41 209.424 216.249 212.84 216.14C217.225 216.14 220.55 218.442 220.55 221.876C220.55 224.324 218.723 226.681 216.384 229.038L213.114 232.272H220.842V237.643H204.235V233.24L211.634 225.585C212.431 224.88 212.981 223.939 213.205 222.899Z" fill="white"/>
<path d="M234.361 216.45L229.319 228.545H231.383V224.47H237.741V228.545H240.153V233.532H237.741V237.643H231.383V233.532H222.34V229.001L227.821 216.45H234.361Z" fill="white"/>
<path d="M259.774 227.101V237.643H252.978V229.056C253.017 228.777 252.996 228.492 252.916 228.221C252.835 227.95 252.698 227.7 252.513 227.487C252.327 227.274 252.098 227.103 251.841 226.986C251.584 226.869 251.305 226.809 251.023 226.809C249.689 226.809 248.849 227.85 248.849 229.458V237.643H242.053V215.244H248.849V223.484C249.381 222.644 250.122 221.956 250.999 221.488C251.877 221.021 252.861 220.789 253.855 220.817C254.669 220.796 255.479 220.947 256.231 221.26C256.984 221.574 257.661 222.042 258.22 222.635C258.778 223.228 259.206 223.933 259.474 224.702C259.741 225.472 259.844 226.289 259.774 227.101Z" fill="white"/>
<path d="M481.382 396.861V623.86C481.386 626.427 480.714 628.95 479.432 631.175C478.151 633.4 476.306 635.248 474.084 636.533C471.861 637.819 469.34 638.496 466.772 638.497C464.205 638.498 461.683 637.822 459.459 636.539L337.2 565.945L315.532 553.449C308.071 549.135 301.873 542.938 297.558 535.477C293.242 528.017 290.961 519.554 290.941 510.936V283.919C290.938 281.352 291.61 278.829 292.891 276.604C294.173 274.379 296.017 272.531 298.24 271.246C300.462 269.96 302.984 269.283 305.552 269.282C308.119 269.281 310.641 269.957 312.865 271.24L456.828 354.348C464.293 358.656 470.491 364.852 474.802 372.315C479.112 379.777 481.381 388.243 481.382 396.861Z" fill="#FFC000"/>
<path opacity="0.5" d="M481.382 396.861V623.86C481.386 626.427 480.714 628.95 479.432 631.175C478.151 633.4 476.306 635.248 474.084 636.533C471.861 637.819 469.34 638.496 466.772 638.497C464.205 638.498 461.683 637.822 459.459 636.539L337.2 565.945L315.532 553.449C308.071 549.135 301.873 542.938 297.558 535.477C293.242 528.017 290.961 519.554 290.941 510.936V283.919C290.938 281.352 291.61 278.829 292.891 276.604C294.173 274.379 296.017 272.531 298.24 271.246C300.462 269.96 302.984 269.283 305.552 269.282C308.119 269.281 310.641 269.957 312.865 271.24L456.828 354.348C464.293 358.656 470.491 364.852 474.802 372.315C479.112 379.777 481.381 388.243 481.382 396.861Z" fill="white"/>
<path d="M410.955 531.178C410.955 531.178 433.847 569.142 417.313 611.948L337.146 565.945L410.955 531.178Z" fill="#263238"/>
<path d="M447.461 360.61C449.193 346.54 439.192 333.729 425.122 331.996C411.051 330.264 398.241 340.265 396.508 354.336C394.776 368.406 404.777 381.216 418.847 382.949C432.917 384.681 445.728 374.68 447.461 360.61Z" fill="#263238"/>
<path d="M422.117 285.472C422.117 285.472 429.991 272.684 432.403 273.615C434.814 274.547 430.832 286.733 430.832 286.733C430.832 286.733 442.743 289.218 440.533 292.214C438.322 295.21 423.761 294.497 423.761 294.497L422.117 285.472Z" fill="#263238"/>
<path d="M427.598 318.43C422.117 359.61 387.405 359.61 387.405 359.61L314.692 327.602C314.692 327.602 309.211 322.797 307.531 311.762C306.886 307.242 306.886 302.653 307.531 298.133C307.531 298.133 307.531 298.042 307.531 298.005C309.851 280.686 322.804 262.069 351.012 256.351C357.193 255.103 363.487 254.49 369.793 254.524C372.844 254.513 375.893 254.665 378.928 254.98C400.851 257.136 416.216 267.367 423.542 283.28C425.19 286.871 426.416 290.642 427.196 294.516C428.682 302.407 428.818 310.494 427.598 318.43Z" fill="#263238"/>
<path d="M253.033 398.085C253.033 398.085 227.218 397.19 217.279 422.347C217.279 422.347 228.241 429.746 242.619 422.347C256.997 414.948 253.033 398.085 253.033 398.085Z" fill="#FFC000"/>
<path opacity="0.5" d="M253.033 398.085C253.033 398.085 227.218 397.19 217.279 422.347C217.279 422.347 228.241 429.746 242.619 422.347C256.997 414.948 253.033 398.085 253.033 398.085Z" fill="black"/>
<path d="M252.302 410.198C252.302 410.198 244.994 378.446 241.14 378.062C237.285 377.678 236.536 387.745 236.846 393.427L227.712 373.769C227.422 373.158 227.01 372.613 226.501 372.167C225.993 371.722 225.399 371.385 224.755 371.178C224.111 370.971 223.432 370.898 222.759 370.963C222.086 371.028 221.434 371.231 220.842 371.558C211.708 376.582 195.685 391.855 229.465 429.618L252.302 410.198Z" fill="#945959"/>
<path d="M345.841 388.238L340.36 387.526C334.837 386.793 329.218 387.544 324.081 389.702C318.943 391.86 314.473 395.346 311.129 399.803L278.518 443.211L252.941 398.085C252.941 398.085 249.872 428.778 217.188 422.347L252.283 481.412C254.504 485.152 257.596 488.299 261.294 490.587C264.993 492.875 269.19 494.235 273.527 494.553C277.865 494.87 282.215 494.135 286.208 492.41C290.2 490.686 293.717 488.022 296.459 484.646L326.494 447.723L345.841 388.238Z" fill="#FFC000"/>
<path d="M415.449 489.542C408.141 508.068 407.337 511.685 411.795 520.948C414.9 527.788 417.346 534.909 419.103 542.213C419.103 542.213 385.231 580.177 337.018 565.964L315.351 553.467C310.844 550.868 306.786 547.562 303.329 543.675L309.925 494.493C310.257 491.905 309.994 489.274 309.157 486.802L302.233 466.504C298.854 456.591 298.351 445.923 300.783 435.735C303.214 425.548 308.48 416.257 315.972 408.937L339.247 386.192L400.377 394.011L409.511 396.624C415.492 398.353 420.647 402.183 424.03 407.408C427.413 412.634 428.797 418.905 427.927 425.069C424.931 446.627 420.035 477.905 415.449 489.542Z" fill="#FFC000"/>
<path opacity="0.5" d="M415.449 489.542C408.141 508.068 407.337 511.685 411.795 520.948C414.9 527.788 417.346 534.909 419.103 542.213C419.103 542.213 385.231 580.177 337.018 565.964L315.351 553.467C310.844 550.868 306.786 547.562 303.329 543.675L309.925 494.493C310.257 491.905 309.994 489.274 309.157 486.802L302.233 466.504C298.854 456.591 298.351 445.923 300.783 435.735C303.214 425.548 308.48 416.257 315.972 408.937L339.247 386.192L400.377 394.011L409.511 396.624C415.492 398.353 420.647 402.183 424.03 407.408C427.413 412.634 428.797 418.905 427.927 425.069C424.931 446.627 420.035 477.905 415.449 489.542Z" fill="black"/>
<path d="M378.581 434.204L366.341 423.772C365.045 422.663 363.481 421.911 361.806 421.591C360.13 421.271 358.4 421.393 356.786 421.945L341.988 427.042L339.996 418.748C339.686 417.458 339.117 416.244 338.324 415.179C337.531 414.114 336.531 413.221 335.384 412.554C334.236 411.886 332.966 411.458 331.649 411.295C330.331 411.132 328.995 411.237 327.719 411.605L321.307 413.432L332.159 392.641C335.702 385.87 341.16 380.291 347.852 376.6L352.109 374.262L387.278 376.089C387.278 376.089 400.377 381.57 400.377 393.902L378.581 434.094" fill="#FFC000"/>
<path d="M387.424 391.673L352.164 419.15V331.657H387.424V391.673Z" fill="#945959"/>
<path d="M352.711 384.456L341.986 427.116L387.276 391.673L352.711 384.456Z" fill="#945959"/>
<path d="M352.163 378.117C360.003 375.206 367.17 370.731 373.229 364.965C379.287 359.199 384.11 352.261 387.405 344.574V331.657H352.145L352.163 378.117Z" fill="#703838"/>
<path d="M359.764 266.819C346.391 266.819 317.964 274.273 314.675 309.277C311.387 344.282 314.566 371.394 332.616 374.024C350.666 376.655 392.613 363.556 398.24 318.248C403.867 272.939 372.79 266.819 359.764 266.819Z" fill="#945959"/>
<path d="M338.717 324.094V344.72L326.623 341.012L338.717 324.094Z" fill="#703838"/>
<path d="M352.163 331.859C354.484 331.859 356.365 329.977 356.365 327.657C356.365 325.336 354.484 323.455 352.163 323.455C349.842 323.455 347.961 325.336 347.961 327.657C347.961 329.977 349.842 331.859 352.163 331.859Z" fill="#263238"/>
<path d="M328.705 324.733C328.701 325.564 328.452 326.374 327.988 327.063C327.524 327.752 326.866 328.287 326.098 328.603C325.33 328.918 324.486 328.998 323.672 328.834C322.858 328.67 322.111 328.268 321.525 327.68C320.939 327.092 320.541 326.343 320.38 325.528C320.22 324.714 320.304 323.87 320.622 323.103C320.941 322.336 321.48 321.681 322.17 321.22C322.861 320.759 323.672 320.513 324.503 320.513C325.056 320.513 325.604 320.622 326.115 320.835C326.626 321.047 327.09 321.358 327.48 321.75C327.871 322.142 328.18 322.608 328.39 323.12C328.6 323.632 328.707 324.18 328.705 324.733Z" fill="#263238"/>
<path d="M319.37 315.964L327.591 311.086C327.591 311.086 324.449 307.816 321.306 309.771C318.164 311.726 319.37 315.964 319.37 315.964Z" fill="#263238"/>
<path d="M333.035 353.088C337.039 353.38 341.024 352.311 344.344 350.055C344.344 350.055 345.13 356.029 340.124 357.162C335.118 358.294 333.035 353.088 333.035 353.088Z" fill="#703838"/>
<path d="M325.855 278.731C325.855 278.731 330.88 327.054 396.595 328.57C396.595 328.57 416.454 280.54 377.211 264.937C337.968 249.335 325.855 278.731 325.855 278.731Z" fill="#263238"/>
<path d="M415.942 321.335L407.866 316.658C404.797 314.831 400.559 315.087 395.863 317.791C386.546 323.162 378.982 336.262 378.982 347.022C378.982 352.412 380.809 356.157 383.952 357.984L391.881 362.551L392.337 362.807L392.611 362.971C395.608 364.433 399.609 364.086 404.012 361.546C413.329 356.066 420.893 343.076 420.893 332.315C420.838 326.871 418.956 323.107 415.942 321.335Z" fill="#FFC000"/>
<path d="M415.879 348.853C422.468 337.441 422.468 325.106 415.879 321.302C409.291 317.498 398.609 323.666 392.02 335.078C385.431 346.49 385.431 358.825 392.019 362.629C398.608 366.432 409.29 360.265 415.879 348.853Z" fill="#FFC000"/>
<path opacity="0.5" d="M415.879 348.853C422.468 337.441 422.468 325.106 415.879 321.302C409.291 317.498 398.609 323.666 392.02 335.078C385.431 346.49 385.431 358.825 392.019 362.629C398.608 366.432 409.29 360.265 415.879 348.853Z" fill="black"/>
<path d="M419.176 331.475L413.695 328.278C411.612 327.035 408.707 327.2 405.492 329.045C402.133 331.24 399.337 334.195 397.332 337.67C395.326 341.145 394.166 345.044 393.945 349.05C393.945 352.704 395.242 355.317 397.343 356.522L402.824 359.646C402.922 359.717 403.026 359.779 403.135 359.829L403.318 359.939C404.602 360.426 405.987 360.591 407.35 360.419C408.713 360.247 410.013 359.743 411.137 358.952C414.493 356.759 417.287 353.807 419.293 350.335C421.299 346.863 422.46 342.969 422.683 338.965C422.537 335.257 421.258 332.681 419.176 331.475Z" fill="#FFC000"/>
<path d="M422.537 338.929C422.313 342.932 421.152 346.827 419.146 350.299C417.141 353.77 414.347 356.722 410.99 358.915C404.596 362.569 399.426 359.61 399.426 352.247C399.642 348.24 400.803 344.341 402.813 340.868C404.822 337.394 407.624 334.445 410.99 332.26C417.366 328.57 422.537 331.548 422.537 338.929Z" fill="#FFC000"/>
<path opacity="0.3" d="M422.537 338.929C422.313 342.932 421.152 346.827 419.146 350.299C417.141 353.77 414.347 356.722 410.99 358.915C404.596 362.569 399.426 359.61 399.426 352.247C399.642 348.24 400.803 344.341 402.813 340.868C404.822 337.394 407.624 334.445 410.99 332.26C417.366 328.57 422.537 331.548 422.537 338.929Z" fill="black"/>
<path d="M390.858 257.392C385.621 253.347 379.206 251.121 372.589 251.053H370.963C364.262 250.98 357.571 251.593 350.994 252.88C352.2 252.88 353.406 252.88 354.648 252.88H350.994V256.278H354.392C366.103 256.676 377.201 261.612 385.339 270.044C393.477 278.475 398.018 289.74 398.001 301.458V315.836C398.001 316.405 398.12 316.967 398.351 317.486C398.581 318.005 398.919 318.471 399.341 318.851C399.763 319.232 400.26 319.52 400.8 319.696C401.341 319.872 401.912 319.933 402.478 319.874H402.898L406.552 318.741C406.308 318.818 406.057 318.867 405.803 318.887C406.892 318.739 407.889 318.196 408.603 317.36C409.317 316.525 409.699 315.455 409.676 314.356V301.02C409.639 276.886 399.207 263.914 390.858 257.392Z" fill="#FFC000"/>
<path d="M367.856 373.02C366.349 373.02 364.86 372.696 363.49 372.07L352.071 366.79C351.893 366.726 351.729 366.626 351.591 366.495C351.453 366.365 351.344 366.208 351.27 366.033C351.196 365.858 351.16 365.67 351.162 365.48C351.165 365.291 351.207 365.104 351.286 364.931C351.364 364.759 351.478 364.604 351.619 364.478C351.761 364.351 351.927 364.256 352.107 364.197C352.288 364.138 352.478 364.117 352.667 364.136C352.856 364.154 353.038 364.212 353.204 364.305L364.622 369.585C366.078 370.262 367.71 370.468 369.288 370.173C370.867 369.878 372.314 369.098 373.428 367.941L384.39 356.614C384.647 356.357 384.995 356.213 385.358 356.213C385.721 356.213 386.069 356.357 386.326 356.614C386.579 356.873 386.72 357.22 386.72 357.582C386.72 357.944 386.579 358.291 386.326 358.55L375.365 369.877C374.389 370.879 373.221 371.674 371.931 372.214C370.64 372.754 369.255 373.028 367.856 373.02Z" fill="#FFC000"/>
<path opacity="0.5" d="M367.856 373.02C366.349 373.02 364.86 372.696 363.49 372.07L352.071 366.79C351.893 366.726 351.729 366.626 351.591 366.495C351.453 366.365 351.344 366.208 351.27 366.033C351.196 365.858 351.16 365.67 351.162 365.48C351.165 365.291 351.207 365.104 351.286 364.931C351.364 364.759 351.478 364.604 351.619 364.478C351.761 364.351 351.927 364.256 352.107 364.197C352.288 364.138 352.478 364.117 352.667 364.136C352.856 364.154 353.038 364.212 353.204 364.305L364.622 369.585C366.078 370.262 367.71 370.468 369.288 370.173C370.867 369.878 372.314 369.098 373.428 367.941L384.39 356.614C384.647 356.357 384.995 356.213 385.358 356.213C385.721 356.213 386.069 356.357 386.326 356.614C386.579 356.873 386.72 357.22 386.72 357.582C386.72 357.944 386.579 358.291 386.326 358.55L375.365 369.877C374.389 370.879 373.221 371.674 371.931 372.214C370.64 372.754 369.255 373.028 367.856 373.02Z" fill="black"/>
<path d="M355.068 362.953C355.068 364.008 354.755 365.04 354.169 365.917C353.583 366.794 352.749 367.478 351.775 367.882C350.8 368.285 349.727 368.391 348.692 368.185C347.658 367.979 346.707 367.471 345.961 366.725C345.215 365.979 344.707 365.029 344.501 363.994C344.295 362.959 344.401 361.886 344.805 360.912C345.208 359.937 345.892 359.104 346.769 358.517C347.647 357.931 348.678 357.618 349.733 357.618C351.148 357.618 352.505 358.18 353.505 359.181C354.506 360.181 355.068 361.538 355.068 362.953Z" fill="#FFC000"/>
<path opacity="0.5" d="M355.068 362.953C355.068 364.008 354.755 365.04 354.169 365.917C353.583 366.794 352.749 367.478 351.775 367.882C350.8 368.285 349.727 368.391 348.692 368.185C347.658 367.979 346.707 367.471 345.961 366.725C345.215 365.979 344.707 365.029 344.501 363.994C344.295 362.959 344.401 361.886 344.805 360.912C345.208 359.937 345.892 359.104 346.769 358.517C347.647 357.931 348.678 357.618 349.733 357.618C351.148 357.618 352.505 358.18 353.505 359.181C354.506 360.181 355.068 361.538 355.068 362.953Z" fill="black"/>
<path d="M409.638 301.02V314.356C409.662 315.455 409.28 316.525 408.566 317.36C407.851 318.196 406.855 318.739 405.765 318.887C405.163 318.951 404.555 318.888 403.979 318.701C403.403 318.515 402.873 318.209 402.424 317.804C401.974 317.399 401.614 316.904 401.369 316.351C401.123 315.798 400.996 315.199 400.997 314.594V301.02C401.007 294.541 399.707 288.128 397.174 282.165C394.641 276.202 390.928 270.813 386.258 266.323C381.589 261.832 376.059 258.333 370.002 256.035C363.944 253.737 357.485 252.689 351.012 252.953C357.588 251.666 364.279 251.053 370.98 251.126H372.57C379.187 251.194 385.602 253.42 390.839 257.465C399.207 263.914 409.638 276.886 409.638 301.02Z" fill="#FFC000"/>
<path opacity="0.5" d="M409.638 301.02V314.356C409.662 315.455 409.28 316.525 408.566 317.36C407.851 318.196 406.855 318.739 405.765 318.887C405.163 318.951 404.555 318.888 403.979 318.701C403.403 318.515 402.873 318.209 402.424 317.804C401.974 317.399 401.614 316.904 401.369 316.351C401.123 315.798 400.996 315.199 400.997 314.594V301.02C401.007 294.541 399.707 288.128 397.174 282.165C394.641 276.202 390.928 270.813 386.258 266.323C381.589 261.832 376.059 258.333 370.002 256.035C363.944 253.737 357.485 252.689 351.012 252.953C357.588 251.666 364.279 251.053 370.98 251.126H372.57C379.187 251.194 385.602 253.42 390.839 257.465C399.207 263.914 409.638 276.886 409.638 301.02Z" fill="black"/>
<path d="M389.105 552.353C389.105 552.353 380.263 576.706 411.869 587.668C411.869 587.668 422.191 572.504 411.869 560.099C401.547 547.694 389.105 552.353 389.105 552.353Z" fill="#FFC000"/>
<path opacity="0.7" d="M389.105 552.353C389.105 552.353 380.263 576.706 411.869 587.668C411.869 587.668 422.191 572.504 411.869 560.099C401.547 547.694 389.105 552.353 389.105 552.353Z" fill="black"/>
<path d="M400.194 553.467C400.194 553.467 369.318 564.776 369.483 569.161C369.647 573.545 382.6 570.549 382.6 570.549L377.868 573.655C372.886 576.906 369.026 581.614 366.815 587.138C366.334 588.356 366.317 589.709 366.768 590.939C367.22 592.169 368.108 593.189 369.264 593.806L380.993 600.018C381.655 600.369 382.381 600.584 383.128 600.65C383.875 600.716 384.627 600.632 385.341 600.402C386.055 600.172 386.715 599.801 387.283 599.311C387.851 598.822 388.315 598.223 388.647 597.552C389.301 596.26 390.205 595.11 391.305 594.17C392.406 593.229 393.682 592.515 395.06 592.071C401.436 589.951 413.33 583.849 418.098 567.151L400.194 553.467Z" fill="#945959"/>
<path d="M409.456 396.587C409.456 396.587 393.013 405.722 401.746 433.455C410.479 461.188 426.867 504.213 426.867 504.213L389.104 552.353C393.138 552.839 397.024 554.171 400.509 556.262C403.994 558.352 406.999 561.153 409.328 564.484C411.559 567.87 412.952 571.738 413.394 575.769C413.835 579.8 413.312 583.879 411.867 587.668L458.747 527.378C463.082 521.807 465.96 515.243 467.122 508.279C468.283 501.316 467.69 494.173 465.397 487.496L445.3 428.814C442.844 421.646 438.762 415.144 433.374 409.816C427.986 404.488 421.438 400.479 414.242 398.104L409.456 396.587Z" fill="#FFC000"/>
<path d="M131.906 232.765L59.2485 190.745C58.4124 190.166 57.445 189.804 56.4338 189.692C55.4226 189.58 54.3995 189.723 53.4571 190.106C53.2585 190.197 53.0689 190.308 52.8908 190.435L37.0877 199.697H37.1973C35.2059 200.83 33.9453 203.461 33.9453 207.224V288.048C33.9453 294.881 38.0925 302.828 43.2262 305.788L115.884 347.808C116.806 348.475 117.903 348.856 119.04 348.905C120.177 348.953 121.303 348.667 122.278 348.082C122.229 348.102 122.185 348.133 122.15 348.173L137.844 339.038C139.89 337.942 141.187 335.275 141.187 331.457V250.505C141.187 243.672 137.113 235.725 131.906 232.765Z" fill="#FFC000"/>
<path d="M138.593 240.42C137.123 237.294 134.807 234.642 131.906 232.765L59.2488 190.745C58.4126 190.166 57.4452 189.804 56.434 189.692C55.4228 189.58 54.3998 189.723 53.4573 190.106C53.2587 190.197 53.0691 190.308 52.891 190.435L37.0879 199.697C38.0546 199.203 39.1385 198.984 40.2212 199.065C41.3039 199.145 42.3435 199.522 43.2264 200.154L115.884 242.174C118.883 244.134 121.26 246.911 122.735 250.176L138.593 240.42Z" fill="#FFC000"/>
<path d="M125.165 340.701C125.165 344.355 123.996 346.894 122.15 348.009L137.844 338.874C139.89 337.778 141.187 335.111 141.187 331.292V250.505C141.11 246.988 140.222 243.537 138.593 240.42L122.735 250.176C124.258 253.201 125.088 256.527 125.165 259.913V340.701Z" fill="#FFC000"/>
<path opacity="0.3" d="M138.593 240.42C137.123 237.294 134.807 234.642 131.906 232.765L59.2488 190.745C58.4126 190.166 57.4452 189.804 56.434 189.692C55.4228 189.58 54.3998 189.723 53.4573 190.106C53.2587 190.197 53.0691 190.308 52.891 190.435L37.0879 199.697C38.0546 199.203 39.1385 198.984 40.2212 199.065C41.3039 199.145 42.3435 199.522 43.2264 200.154L115.884 242.174C118.883 244.134 121.26 246.911 122.735 250.176L138.593 240.42Z" fill="black"/>
<path opacity="0.6" d="M125.165 340.701C125.165 344.355 123.996 346.894 122.15 348.009L137.844 338.874C139.89 337.778 141.187 335.111 141.187 331.292V250.505C141.11 246.988 140.222 243.537 138.593 240.42L122.735 250.176C124.258 253.201 125.088 256.527 125.165 259.913V340.701Z" fill="black"/>
<path d="M103.863 283.061C103.863 293.529 99.7161 297.092 93.5045 293.493C91.791 292.517 90.2926 291.205 89.0995 289.635C87.9064 288.065 87.0433 286.27 86.5621 284.358C84.7352 286.605 81.9034 286.751 77.9207 284.449C71.3802 280.668 66.2282 271.661 66.2282 262.91C66.2282 254.159 71.3254 251.144 77.9207 254.944C81.2674 256.916 83.9707 259.816 85.7035 263.293V259.84L92.5911 263.823V282.75C92.4885 283.746 92.6607 284.751 93.0891 285.656C93.5175 286.561 94.1856 287.332 95.0209 287.884C97.3411 289.236 98.7661 286.952 98.7661 280.174C98.7661 268.317 91.166 255.748 79.9303 249.262C68.6946 242.777 61.1128 247.289 61.1128 259.493C61.26 265.969 63.0444 272.302 66.2996 277.902C69.5549 283.502 74.175 288.187 79.7293 291.52C82.7452 293.377 86.1699 294.469 89.7045 294.698L91.3305 301.001C87.2148 300.669 83.2377 299.36 79.7293 297.183C65.1138 288.724 55.4492 271.697 55.4492 256.278C55.4492 240.858 65.2051 235.268 79.9303 243.781C94.1622 251.984 103.863 268.409 103.863 283.061ZM85.8131 274.273C85.8486 271.957 85.2833 269.67 84.1723 267.637C83.0613 265.604 81.4424 263.893 79.4736 262.672C75.8197 260.535 73.2071 262.033 73.2071 267.002C73.1602 269.322 73.7121 271.616 74.8098 273.661C75.9075 275.706 77.5137 277.433 79.4736 278.676C83.1275 280.741 85.8131 279.407 85.8131 274.273Z" fill="#FFC000"/>
<g opacity="0.9">
<path d="M103.863 283.061C103.863 293.529 99.7161 297.092 93.5045 293.493C91.791 292.517 90.2926 291.205 89.0995 289.635C87.9064 288.065 87.0433 286.27 86.5621 284.358C84.7352 286.605 81.9034 286.751 77.9207 284.449C71.3802 280.668 66.2282 271.661 66.2282 262.91C66.2282 254.159 71.3254 251.144 77.9207 254.944C81.2674 256.916 83.9707 259.816 85.7035 263.293V259.84L92.5911 263.823V282.75C92.4885 283.746 92.6607 284.751 93.0891 285.656C93.5175 286.561 94.1856 287.332 95.0209 287.884C97.3411 289.236 98.7661 286.952 98.7661 280.174C98.7661 268.317 91.166 255.748 79.9303 249.262C68.6946 242.777 61.1128 247.289 61.1128 259.493C61.26 265.969 63.0444 272.302 66.2996 277.902C69.5549 283.502 74.175 288.187 79.7293 291.52C82.7452 293.377 86.1699 294.469 89.7045 294.698L91.3305 301.001C87.2148 300.669 83.2377 299.36 79.7293 297.183C65.1138 288.724 55.4492 271.697 55.4492 256.278C55.4492 240.858 65.2051 235.268 79.9303 243.781C94.1622 251.984 103.863 268.409 103.863 283.061ZM85.8131 274.273C85.8486 271.957 85.2833 269.67 84.1723 267.637C83.0613 265.604 81.4424 263.893 79.4736 262.672C75.8197 260.535 73.2071 262.033 73.2071 267.002C73.1602 269.322 73.7121 271.616 74.8098 273.661C75.9075 275.706 77.5137 277.433 79.4736 278.676C83.1275 280.741 85.8131 279.407 85.8131 274.273Z" fill="white"/>
</g>
<path d="M131.906 376.692L59.2485 334.672C58.4136 334.089 57.445 333.727 56.4325 333.618C55.4201 333.51 54.3967 333.658 53.4571 334.051C53.2585 334.143 53.0689 334.253 52.8908 334.38L37.0877 343.642H37.1973C35.2059 344.775 33.9453 347.406 33.9453 351.151V431.939C33.9453 438.79 38.0925 446.719 43.2262 449.678L115.884 491.698C116.804 492.369 117.902 492.754 119.04 492.802C120.177 492.851 121.304 492.562 122.278 491.972L122.15 492.082L137.844 482.856C139.89 481.778 141.187 479.202 141.187 475.274V394.413C141.187 387.58 137.113 379.651 131.906 376.692Z" fill="#FFC000"/>
<path d="M138.593 384.347C137.128 381.217 134.811 378.564 131.906 376.692L59.2488 334.672C58.4138 334.089 57.4452 333.727 56.4328 333.618C55.4203 333.51 54.3969 333.658 53.4573 334.051C53.2587 334.143 53.0691 334.253 52.891 334.38L37.0879 343.642C38.0524 343.144 39.1358 342.921 40.2188 342.998C41.3019 343.075 42.3426 343.45 43.2264 344.081L115.884 386.101C118.888 388.064 121.265 390.847 122.735 394.121L138.593 384.347Z" fill="#FFC000"/>
<path d="M125.165 484.61C125.165 488.263 123.996 490.803 122.15 492.009L137.844 482.783C139.89 481.705 141.187 479.129 141.187 475.201V394.413C141.11 390.903 140.222 387.457 138.593 384.347L122.735 394.103C124.257 397.122 125.087 400.442 125.165 403.822V484.61Z" fill="#FFC000"/>
<path opacity="0.3" d="M138.593 384.347C137.128 381.217 134.811 378.564 131.906 376.692L59.2488 334.672C58.4138 334.089 57.4452 333.727 56.4328 333.618C55.4203 333.51 54.3969 333.658 53.4573 334.051C53.2587 334.143 53.0691 334.253 52.891 334.38L37.0879 343.642C38.0524 343.144 39.1358 342.921 40.2188 342.998C41.3019 343.075 42.3426 343.45 43.2264 344.081L115.884 386.101C118.888 388.064 121.265 390.847 122.735 394.121L138.593 384.347Z" fill="black"/>
<path opacity="0.6" d="M125.165 484.61C125.165 488.263 123.996 490.803 122.15 492.009L137.844 482.783C139.89 481.705 141.187 479.129 141.187 475.201V394.413C141.11 390.903 140.222 387.457 138.593 384.347L122.735 394.103C124.257 397.122 125.087 400.442 125.165 403.822V484.61Z" fill="black"/>
<path d="M71.4345 412.811L53.9141 384.347V422.914L71.4345 412.811Z" fill="#FFC000"/>
<path d="M87.7129 421.013L105.197 451.286V412.774L87.7129 421.013Z" fill="#FFC000"/>
<path d="M56.5625 383.05L74.5579 412.281C74.6341 412.345 74.7017 412.418 74.7589 412.5C74.7747 412.572 74.7747 412.647 74.7589 412.719L80.1119 421.415L84.6427 419.278C84.7132 419.201 84.793 419.134 84.8802 419.077C85.0588 418.973 85.2586 418.91 85.4648 418.894L103.734 410.326L56.5625 383.05Z" fill="#FFC000"/>
<path d="M85.0629 422.256L80.1667 424.558C79.978 424.646 79.7719 424.689 79.5638 424.686C79.3116 424.689 79.063 424.626 78.8421 424.504C78.6212 424.383 78.4356 424.206 78.3032 423.991L72.9502 415.295L55.375 425.453L102.675 452.748L85.0629 422.256Z" fill="#FFC000"/>
<g opacity="0.9">
<path d="M71.4345 412.811L53.9141 384.347V422.914L71.4345 412.811Z" fill="white"/>
<path d="M87.7129 421.013L105.197 451.286V412.774L87.7129 421.013Z" fill="white"/>
<path d="M56.5625 383.05L74.5579 412.281C74.6341 412.345 74.7017 412.418 74.7589 412.5C74.7747 412.572 74.7747 412.647 74.7589 412.719L80.1119 421.415L84.6427 419.278C84.7132 419.201 84.793 419.134 84.8802 419.077C85.0588 418.973 85.2586 418.91 85.4648 418.894L103.734 410.326L56.5625 383.05Z" fill="white"/>
<path d="M85.0629 422.256L80.1667 424.558C79.978 424.646 79.7719 424.689 79.5638 424.686C79.3116 424.689 79.063 424.626 78.8421 424.504C78.6212 424.383 78.4356 424.206 78.3032 423.991L72.9502 415.295L55.375 425.453L102.675 452.748L85.0629 422.256Z" fill="white"/>
</g>
<path d="M131.906 88.9111L59.2485 46.8913C58.4136 46.3085 57.445 45.9461 56.4325 45.8375C55.4201 45.7289 54.3967 45.8777 53.4571 46.2701C53.2585 46.3618 53.0689 46.4719 52.8908 46.599L37.0877 55.8616H37.1973C35.2059 56.976 33.9453 59.6251 33.9453 63.3703V144.158C33.9453 150.991 38.0925 158.938 43.2262 161.898L115.884 203.917C116.804 204.589 117.902 204.973 119.04 205.022C120.177 205.07 121.304 204.782 122.278 204.191L122.15 204.283L137.844 195.148C139.89 194.07 141.187 191.494 141.187 187.566V106.578C141.187 99.7449 137.113 91.7976 131.906 88.9111Z" fill="#FFC000"/>
<path d="M138.593 96.5112C137.128 93.3766 134.811 90.7175 131.906 88.838L59.2488 46.8913C58.4138 46.3085 57.4452 45.9461 56.4328 45.8375C55.4203 45.7289 54.3969 45.8777 53.4573 46.2701C53.2587 46.3618 53.0691 46.4719 52.891 46.599L37.0879 55.8616C38.0524 55.3628 39.1358 55.1399 40.2188 55.2172C41.3019 55.2946 42.3426 55.6693 43.2264 56.3L115.884 98.3198C118.888 100.283 121.265 103.067 122.735 106.34L138.593 96.5112Z" fill="#FFC000"/>
<path d="M125.165 196.701C125.165 200.355 123.996 202.894 122.15 204.009L137.844 194.874C139.89 193.796 141.187 191.22 141.187 187.292V106.578C141.11 103.067 140.222 99.622 138.593 96.5112L122.735 106.267C124.257 109.286 125.087 112.606 125.165 115.986V196.701Z" fill="#FFC000"/>
<path opacity="0.3" d="M138.593 96.5112C137.128 93.3766 134.811 90.7175 131.906 88.838L59.2488 46.8913C58.4138 46.3085 57.4452 45.9461 56.4328 45.8375C55.4203 45.7289 54.3969 45.8777 53.4573 46.2701C53.2587 46.3618 53.0691 46.4719 52.891 46.599L37.0879 55.8616C38.0524 55.3628 39.1358 55.1399 40.2188 55.2172C41.3019 55.2946 42.3426 55.6693 43.2264 56.3L115.884 98.3198C118.888 100.283 121.265 103.067 122.735 106.34L138.593 96.5112Z" fill="black"/>
<path opacity="0.6" d="M125.165 196.701C125.165 200.355 123.996 202.894 122.15 204.009L137.844 194.874C139.89 193.796 141.187 191.22 141.187 187.292V106.578C141.11 103.067 140.222 99.622 138.593 96.5112L122.735 106.267C124.257 109.286 125.087 112.606 125.165 115.986V196.701Z" fill="black"/>
<path d="M101.397 161.989C98.6015 157.385 95.788 152.854 92.9928 148.214C92.5494 147.335 91.9296 146.557 91.1721 145.928C90.4145 145.299 89.5355 144.834 88.5899 144.56C87.2379 144.286 85.886 143.975 84.4975 143.573C84.003 143.367 83.5871 143.009 83.31 142.55C78.736 134.722 75.0997 126.382 72.4762 117.704C72.4204 117.518 72.4045 117.323 72.4297 117.131C72.4549 116.939 72.5206 116.754 72.6223 116.589C73.481 115.731 74.4493 114.945 75.3262 114.178C76.2032 113.41 76.6599 111.638 76.0205 109.336C74.6685 104.458 73.3714 99.5805 72.0195 94.7208C71.7578 93.34 71.1372 92.0524 70.22 90.9877C69.3027 89.9229 68.1212 89.1185 66.7944 88.6553C63.8482 87.8362 60.7205 87.9511 57.8423 88.9842C56.7279 89.4044 56.1433 90.4092 56.125 92.1448C56.6 95.4881 56.9106 98.7949 57.55 102.193C62.0565 126.698 72.8964 149.231 90.0697 169.79C90.518 170.472 91.1204 171.039 91.828 171.445C92.5357 171.851 93.329 172.085 94.1438 172.129C96.9869 172.061 99.7184 171.008 101.872 169.151C103.498 167.689 103.333 165.095 101.397 161.989Z" fill="#FFC000"/>
<path d="M101.177 137.088C100.795 131.833 99.3463 126.711 96.92 122.034C95.1085 118.38 92.8033 114.993 90.069 111.967C89.3565 111.163 88.7536 110.907 88.3882 111.51C88.0228 112.113 88.3882 112.972 89.0824 113.758L89.7949 114.58C94.8446 120.409 98.027 127.62 98.9297 135.279C98.9208 135.838 98.9759 136.395 99.0941 136.941C99.3236 137.57 99.692 138.138 100.172 138.604C100.556 138.878 100.994 138.604 101.305 138.604C101.195 137.855 101.213 137.471 101.177 137.088Z" fill="#FFC000"/>
<path d="M84.6251 122.088C86.9193 124.612 88.3133 127.824 88.5896 131.223C88.7099 131.74 88.9004 132.238 89.1559 132.703C90.2703 133.616 90.8184 133.306 90.8184 132.155C90.4278 127.796 88.6253 123.685 85.6847 120.444C84.9905 119.732 84.4241 119.512 84.0953 120.115C83.977 120.46 83.9642 120.831 84.0586 121.183C84.153 121.534 84.3502 121.85 84.6251 122.088Z" fill="#FFC000"/>
<g opacity="0.9">
<path d="M101.397 161.989C98.6015 157.385 95.788 152.854 92.9928 148.214C92.5494 147.335 91.9296 146.557 91.1721 145.928C90.4145 145.299 89.5355 144.834 88.5899 144.56C87.2379 144.286 85.886 143.975 84.4975 143.573C84.003 143.367 83.5871 143.009 83.31 142.55C78.736 134.722 75.0997 126.382 72.4762 117.704C72.4204 117.518 72.4045 117.323 72.4297 117.131C72.4549 116.939 72.5206 116.754 72.6223 116.589C73.481 115.731 74.4493 114.945 75.3262 114.178C76.2032 113.41 76.6599 111.638 76.0205 109.336C74.6685 104.458 73.3714 99.5805 72.0195 94.7208C71.7578 93.34 71.1372 92.0524 70.22 90.9877C69.3027 89.9229 68.1212 89.1185 66.7944 88.6553C63.8482 87.8362 60.7205 87.9511 57.8423 88.9842C56.7279 89.4044 56.1433 90.4092 56.125 92.1448C56.6 95.4881 56.9106 98.7949 57.55 102.193C62.0565 126.698 72.8964 149.231 90.0697 169.79C90.518 170.472 91.1204 171.039 91.828 171.445C92.5357 171.851 93.329 172.085 94.1438 172.129C96.9869 172.061 99.7184 171.008 101.872 169.151C103.498 167.689 103.333 165.095 101.397 161.989Z" fill="white"/>
<path d="M101.177 137.088C100.795 131.833 99.3463 126.711 96.92 122.034C95.1085 118.38 92.8033 114.993 90.069 111.967C89.3565 111.163 88.7536 110.907 88.3882 111.51C88.0228 112.113 88.3882 112.972 89.0824 113.758L89.7949 114.58C94.8446 120.409 98.027 127.62 98.9297 135.279C98.9208 135.838 98.9759 136.395 99.0941 136.941C99.3236 137.57 99.692 138.138 100.172 138.604C100.556 138.878 100.994 138.604 101.305 138.604C101.195 137.855 101.213 137.471 101.177 137.088Z" fill="white"/>
<path d="M84.6251 122.088C86.9193 124.612 88.3133 127.824 88.5896 131.223C88.7099 131.74 88.9004 132.238 89.1559 132.703C90.2703 133.616 90.8184 133.306 90.8184 132.155C90.4278 127.796 88.6253 123.685 85.6847 120.444C84.9905 119.732 84.4241 119.512 84.0953 120.115C83.977 120.46 83.9642 120.831 84.0586 121.183C84.153 121.534 84.3502 121.85 84.6251 122.088Z" fill="white"/>
</g>
<path d="M504.695 40.4605L521.813 50.1982V44.1327C521.813 43.7125 521.813 43.274 521.813 42.8538C521.813 42.4336 521.813 42.0317 521.813 41.6298V41.4106C522.434 33.3903 528.518 30.3027 535.935 34.596C539.294 36.6615 542.171 39.4209 544.376 42.6894C546.038 31.7277 554.936 27.8546 565.696 34.048C577.645 40.9538 587.327 57.7983 587.327 71.5369V84.5082C587.31 85.5458 587.566 86.5697 588.07 87.4771C588.573 88.3846 589.306 89.1438 590.196 89.6785L600.28 95.5795C602.457 96.87 604.261 98.7033 605.517 100.9C606.772 103.097 607.435 105.582 607.442 108.112C607.442 109.162 607.166 110.193 606.641 111.102C606.116 112.011 605.361 112.766 604.451 113.29C603.542 113.814 602.51 114.09 601.461 114.088C600.411 114.087 599.38 113.809 598.472 113.283L504.95 59.2233C502.469 57.7824 500.409 55.7175 498.973 53.2336C497.537 50.7498 496.776 47.9334 496.766 45.0644C496.765 44.1358 497.008 43.2232 497.471 42.4182C497.934 41.6131 498.6 40.9439 499.403 40.4776C500.207 40.0113 501.118 39.7642 502.047 39.7613C502.975 39.7583 503.889 39.9994 504.695 40.4605Z" fill="#E6E6E6"/>
<path d="M635.194 37.9211L647.636 45.0645V40.6068C647.636 40.2962 647.636 39.9856 647.636 39.675C647.636 39.3644 647.636 39.0721 647.636 38.7798V38.6702C648.093 32.8422 652.514 30.5951 657.903 33.7192C660.344 35.2146 662.437 37.214 664.042 39.5837C665.266 31.6547 671.733 28.7864 679.553 33.299C688.249 38.3231 695.283 50.5271 695.283 60.557V70.0023C695.289 70.7428 695.488 71.4688 695.859 72.1093C696.231 72.7498 696.762 73.2829 697.402 73.6562L704.71 77.9496C706.3 78.8847 707.617 80.2201 708.531 81.8228C709.444 83.4255 709.922 85.2395 709.916 87.0843C709.915 87.8399 709.717 88.5821 709.342 89.2378C708.966 89.8935 708.427 90.4401 707.776 90.8237C707.125 91.2072 706.385 91.4146 705.63 91.4252C704.874 91.4359 704.129 91.2494 703.467 90.8844L635.377 51.5684C633.573 50.5246 632.075 49.025 631.032 47.2198C629.99 45.4145 629.441 43.3671 629.439 41.2827C629.438 40.6081 629.614 39.9449 629.949 39.3595C630.284 38.7741 630.767 38.2869 631.35 37.9466C631.933 37.6064 632.594 37.4249 633.269 37.4204C633.943 37.416 634.607 37.5886 635.194 37.9211Z" fill="#E6E6E6"/>
</svg>
