<svg width="179" height="57" viewBox="0 0 179 57" fill="none" xmlns="http://www.w3.org/2000/svg">
<path d="M26.5881 27.5957C26.6473 27.6384 26.7064 27.6811 26.7656 27.7095C28.0548 27.1974 29.7934 27.7522 29.888 27.9514C28.9655 27.5673 27.9483 27.7664 27.2623 27.994C27.2623 27.994 27.2623 27.994 27.2741 27.994C27.1914 28.0225 27.1322 28.0367 27.0731 28.0652L26.9785 28.0936C25.4054 28.6057 24.4828 30.5547 24.9086 32.4467C25.2634 34.0258 26.458 35.0643 27.7472 35.0643C28.0074 35.0643 28.2677 35.0216 28.5279 34.9362L28.6225 34.9078C30.6569 34.2392 32.7503 33.4425 34.0514 31.6927C35.1159 30.2417 35.6245 28.2359 35.3879 26.3296C35.1869 24.6225 34.4417 23.1999 33.2826 22.3321C33.1289 22.2183 32.9751 22.1188 32.8213 22.0334C32.4547 21.9054 30.7988 21.4217 29.4978 22.1614C29.5806 21.9196 31.7095 20.9522 33.0697 21.7062C34.4535 21.0518 35.246 19.2451 34.8438 17.4811C34.418 15.5891 32.7976 14.4795 31.2246 15.0058C28.7881 15.8025 26.0322 16.7129 24.9086 19.3589C23.6194 22.389 24.3645 26.0166 26.6 27.6242" fill="white"/>
<path d="M12.7612 46.4103C8.18387 44.2622 4.50546 38.5718 6.32692 31.8714C6.82368 30.0505 8.26671 28.2723 9.92258 27.3903C10.1118 24.4171 11.9569 23.151 13.8139 23.6062C10.8688 23.3501 10.443 27.1627 10.443 27.1627C10.443 27.1627 10.443 27.1627 10.443 27.1769C10.1591 28.6849 10.7269 30.2924 11.9096 31.0606C13.3171 31.971 15.0912 31.7861 16.3095 30.5769L16.3686 30.5342C18.0008 29.1401 18.0481 27.3334 17.918 26.3803C17.4331 22.6389 15.2332 20.1209 12.1816 19.8364C7.55701 19.3811 2.31737 23.8907 0.744288 29.6664C-1.82232 39.1124 2.43564 49.1417 10.6441 53.0111C14.9375 55.0312 19.503 56.027 24.0921 56.027C32.0048 56.027 39.9885 53.0822 46.7894 47.4203C45.2282 45.1869 44.1046 43.0814 43.4067 41.6019C34.3586 49.0705 22.5072 50.991 12.7849 46.4103" fill="white"/>
<path d="M106.2 35.6039C108.412 38.7621 111.014 41.6926 113.817 44.2533C115.272 43.5278 117.957 42.1194 119.873 40.6968C116.478 38.0366 113.249 34.6935 110.706 31.0374C107.714 26.7412 103.291 17.9354 104.189 12.558C104.461 10.922 105.254 9.74131 106.673 8.87353C107.312 8.48943 108.033 8.3187 108.79 8.3187C110.458 8.3187 112.268 9.10111 113.592 9.99734C113.935 10.225 114.267 10.4668 114.598 10.7371C115.426 9.47101 117.436 6.56892 118.868 5.65846C118.075 4.97562 117.271 4.3639 116.478 3.82331C112.138 0.892784 107.478 0.423323 103.988 2.57143C100.972 4.42079 99.0444 7.39402 98.4175 11.1639C97.7552 15.1187 98.5122 19.8701 100.677 25.276C102.77 30.5253 105.431 34.5085 106.2 35.6039Z" fill="white"/>
<path d="M63.9132 31.8038C63.9132 31.8038 63.9723 31.8038 63.996 31.8038L71.199 31.5619C72.8313 31.505 74.1086 29.869 74.0613 27.9201C74.014 25.9569 72.642 24.4348 71.0334 24.4774L63.8303 24.7335C62.1981 24.7904 60.9208 26.4264 60.9681 28.3753C61.0154 30.2958 62.3282 31.818 63.9132 31.818" fill="white"/>
<path d="M71.0715 42.6117C71.0715 42.2988 71.0716 41.9715 71.0479 41.6586V41.6301C71.0479 41.5448 71.0479 41.4452 71.0242 41.3598C70.8468 39.6527 69.6641 38.344 68.2329 38.2586C66.8018 38.1875 65.5244 39.354 65.2169 41.0326C65.0986 41.7013 65.0513 42.3557 65.0986 43.0101C65.0039 43.3515 64.8384 43.7498 64.5545 44.1481C63.975 44.9448 62.532 46.3105 59.2794 46.3958C56.6063 46.4812 54.2526 45.2293 52.4429 42.9247C51.686 41.9716 50.7279 40.5348 49.8527 38.6569C48.7409 36.2528 48.0667 34.5883 47.5936 33.1657C46.2807 29.2252 45.7248 24.8436 45.5829 21.0453C45.2635 12.8227 47.0968 7.7441 49.0602 7.57339C49.1312 7.57339 49.1903 7.57339 49.2613 7.57339C51.4967 7.57339 52.7505 10.7884 53.1881 12.211C55.116 18.4277 54.0988 27.6888 49.143 35.2427C49.7936 36.964 50.858 39.3398 52.4429 41.559C59.989 31.6293 61.4912 18.6838 58.7117 9.73571C56.8074 3.59013 53.0344 0.161722 48.6581 0.517369C42.7443 1.01527 39.2315 9.20936 39.7046 21.3867C39.9766 28.272 41.455 35.3423 44.0453 41.0753C44.7668 42.5833 45.9023 44.6887 47.4754 46.9079C50.6097 51.0619 54.6311 53.6368 59.4213 53.5088C62.7922 53.4092 65.7018 52.2568 67.7953 50.2225C70.5157 46.979 71.0242 44.077 71.0834 42.6402" fill="white"/>
<path d="M148.874 43.9817C149.217 41.734 148.401 39.6428 146.781 38.8035C145.35 38.078 143.635 38.5901 142.594 40.0412C142.038 40.8236 141.707 41.7909 141.612 42.9432C141.577 43.2846 141.565 43.6545 141.588 44.0386C137.496 46.6135 132.919 47.211 128.602 45.6888C128.306 45.5893 127.998 45.4612 127.691 45.3474C126.224 46.7415 123.279 48.8185 121.6 49.985C123.386 51.0235 125.183 51.8771 126.946 52.503C132.588 54.4946 138.56 53.7976 143.907 50.5683C147.691 48.2495 148.65 45.1482 148.874 43.9675" fill="white"/>
<path d="M178.538 34.5535C178.053 32.8464 176.621 30.869 174.634 30.5987C173.097 30.3853 171.678 31.2388 170.826 32.889C170.258 33.9844 170.104 35.2648 170.388 36.4597C170.684 37.7116 171.429 38.7216 172.47 39.3334C172.576 39.3903 172.683 39.4472 172.789 39.4899C172.801 39.4899 172.813 39.4899 172.813 39.4899C172.813 39.4899 174.173 39.2907 174.563 37.1284C174.93 37.3702 174.445 39.5183 172.718 40.13C172.352 41.3534 171.748 42.6622 170.79 43.658C169.466 45.0095 167.372 45.7066 165.799 45.3082C165.622 45.2656 165.373 45.1233 165.113 44.9241C164.64 46.1902 163.576 48.6087 161.73 50.7425C162.641 51.4823 163.611 52.0086 164.581 52.2505C167.94 53.104 171.879 51.8521 174.599 49.0639C177.201 46.4036 178.325 42.8045 178.81 40.2723C179.141 38.5225 179.034 36.4028 178.526 34.5819" fill="white"/>
<path d="M164.959 39.0961C164.498 37.574 163.398 36.5355 162.038 36.3363C160.488 36.0945 158.951 37.1045 158.182 38.84C157.484 40.4191 157.318 42.2116 157.661 44.0183C156.526 45.4551 155.166 46.4367 153.877 46.7212C152.552 47.0199 151.062 46.707 149.69 45.8108C149.536 45.7112 149.394 45.6116 149.252 45.512C148.838 46.8634 147.797 49.0116 145.219 50.8182C145.716 51.2308 146.26 51.6576 146.886 52.0559C149.441 53.7061 152.315 54.2894 154.965 53.6777C156.975 53.2224 158.951 52.0274 160.689 50.2777C163.209 47.589 164.415 44.2744 164.711 43.3639C165.148 41.9271 165.349 40.4049 164.947 39.0961" fill="white"/>
<path d="M91.7579 37.4643C89.2977 35.5011 83.9871 33.6234 76.0034 43.2401C74.797 44.6911 73.2357 44.2785 72.6325 44.0367C72.254 43.8802 71.9465 43.681 71.6981 43.4819C71.568 44.8902 71.0239 47.2233 69.0605 49.8551C69.0842 49.8693 69.1196 49.8977 69.1433 49.912C72.2421 51.9605 76.8549 52.2308 80.1667 48.2476C83.6677 44.0367 86.6483 42.3438 88.3278 43.2685C89.759 44.0509 89.8418 45.2175 89.83 45.5446C89.8063 46.384 89.2267 47.1948 88.6235 47.4224C88.1741 47.5931 87.6063 47.7923 86.8612 46.6685C85.844 45.1463 83.9871 44.8902 82.7215 46.1137C81.4559 47.3371 81.243 49.5706 82.2602 51.0927C84.2236 54.0375 87.015 55.3036 89.7472 54.45C92.6213 53.5538 94.8922 50.5095 95.4126 46.8676C95.9212 43.2258 94.5492 39.712 91.746 37.4643" fill="white"/>
<path d="M139.129 5.41486C133.31 -2.22444 125.445 2.58394 122.866 4.16302C121.731 4.86009 120.69 5.61405 119.744 6.42493C119.744 6.42493 117.094 8.57303 115.498 11.4893C113.676 14.6333 112.884 18.2039 113.274 21.9596C113.558 24.6483 114.954 26.8248 117.213 28.0909C118.975 29.0725 120.998 29.0014 122.748 27.8918C124.676 26.6541 126.036 24.3495 126.391 21.7035C126.829 18.3889 125.977 15.2307 124.451 12.4282C122.322 13.7655 120.631 16.4826 120.063 17.4784C120.489 18.5454 120.69 19.5981 120.56 20.5797C120.489 21.0918 120.229 21.5186 119.98 21.6324C119.614 21.7889 119.2 21.5755 119.129 21.0918C118.857 19.4985 119.223 18.0332 119.744 16.7529C121.364 13.2533 123.966 11.5889 123.966 11.5889C123.966 11.5889 123.966 11.5889 123.978 11.5889C124.534 11.1764 125.066 10.8065 125.551 10.522C130.129 7.71949 132.813 7.64836 134.801 10.2517C137.438 13.7086 133.996 24.3068 130.625 30.3101C128.106 34.7913 124.723 38.5469 120.773 41.3921C120.773 41.3921 117.934 43.6114 114.575 44.9202C109.951 46.9402 104.853 47.8934 99.6132 47.6373C97.9691 47.5519 96.609 49.0741 96.538 51.0231C96.467 52.9862 97.7326 54.6364 99.353 54.7218C100.004 54.7502 100.654 54.7644 101.316 54.7644C108.224 54.7644 114.871 52.9008 120.702 49.4724C124.806 46.741 126.841 45.0055 126.841 45.0055C126.841 45.0055 126.864 44.9913 126.911 44.9628C130.282 41.9896 133.204 38.3904 135.522 34.2649C137.166 31.3344 139.378 26.398 140.643 21.3479C142.82 12.6416 141.046 7.89017 139.177 5.4291" fill="white"/>
</svg>
