<svg width="10" height="10" viewBox="0 0 10 10" fill="none" xmlns="http://www.w3.org/2000/svg">
<path d="M5.2418 0.677734C2.85589 0.677734 0.923828 2.61412 0.923828 5.00002C0.923828 7.38593 2.85589 9.32232 5.2418 9.32232C7.63202 9.32232 9.56841 7.38593 9.56841 5.00002C9.56841 2.61412 7.63202 0.677734 5.2418 0.677734ZM8.23714 3.27111H6.96207C6.82658 2.73584 6.62628 2.21911 6.36559 1.73237C7.15403 2.00381 7.81839 2.55003 8.23714 3.27111ZM5.24612 1.55948C5.60487 2.07816 5.88582 2.65302 6.07168 3.27111H4.42056C4.60642 2.65302 4.88737 2.07816 5.24612 1.55948ZM1.90067 5.86448C1.83151 5.58786 1.78829 5.29826 1.78829 5.00002C1.78829 4.70179 1.83151 4.41219 1.90067 4.13557H3.3616C3.32702 4.42084 3.30109 4.70611 3.30109 5.00002C3.30109 5.29394 3.32702 5.57921 3.3616 5.86448H1.90067ZM2.25509 6.72894H3.53017C3.66848 7.26923 3.86731 7.7879 4.12665 8.26768C3.33763 7.99727 2.67295 7.45078 2.25509 6.72894ZM3.53017 3.27111H2.25509C2.67295 2.54926 3.33763 2.00278 4.12665 1.73237C3.86596 2.21911 3.66565 2.73584 3.53017 3.27111ZM5.24612 8.44057C4.88737 7.92189 4.60642 7.34703 4.42056 6.72894H6.07168C5.88582 7.34703 5.60487 7.92189 5.24612 8.44057ZM6.25753 5.86448H4.2347C4.1958 5.57921 4.16555 5.29394 4.16555 5.00002C4.16555 4.70611 4.1958 4.41652 4.2347 4.13557H6.25753C6.29644 4.41652 6.32669 4.70611 6.32669 5.00002C6.32669 5.29394 6.29644 5.57921 6.25753 5.86448ZM6.36559 8.26768C6.62493 7.7879 6.82375 7.26923 6.96207 6.72894H8.23714C7.81839 7.45002 7.15403 7.99624 6.36559 8.26768ZM7.13064 5.86448C7.16522 5.57921 7.19115 5.29394 7.19115 5.00002C7.19115 4.70611 7.16522 4.42084 7.13064 4.13557H8.59157C8.66073 4.41219 8.70395 4.70179 8.70395 5.00002C8.70395 5.29826 8.66073 5.58786 8.59157 5.86448H7.13064Z" fill="#161616"/>
</svg>
