<svg width="57" height="24" viewBox="0 0 57 24" fill="none" xmlns="http://www.w3.org/2000/svg">
<path d="M52.7258 7.90808C50.0923 4.43067 46.5575 5.41265 44.5938 6.34543V11.4111L47.2994 6.62564L49.9632 10.6094L52.7258 7.90808Z" fill="#F3F3F3"/>
<path d="M36.3371 1.39588L35.5741 2.73921C35.5441 2.79208 35.5584 2.85908 35.6064 2.89659C36.5932 3.66797 37.1041 4.36572 36.6681 4.9675C35.7254 6.2707 34.2896 4.44528 35.1751 2.7078L35.1876 2.68686C35.196 2.66872 35.2058 2.65057 35.2155 2.63243C35.2169 2.62824 35.2183 2.62684 35.2197 2.62265C35.2211 2.62265 35.2211 2.62405 35.2225 2.62405L36.1052 1.05145C36.1038 1.05145 36.1038 1.05006 36.1024 1.05006C36.1136 1.03191 36.1248 1.01377 36.1373 0.994224L36.1387 0.991432C36.2396 0.833003 36.3887 0.617694 36.5379 0.403431C36.5686 0.359287 36.5369 0.298568 36.483 0.298568H35.8913C35.8679 0.298568 35.8468 0.309909 35.8348 0.3298C35.3307 1.15457 34.5337 2.45829 34.5131 2.49965C34.2644 2.95923 34.0688 3.44655 33.9446 3.95499C33.1052 7.41443 36.8258 7.7496 37.7867 4.69374C38.2614 3.18064 37.4944 2.16272 36.5215 1.36098C36.4629 1.31283 36.3746 1.32993 36.3371 1.39588Z" fill="#F3F3F3"/>
<path d="M33.8396 15.3395C32.7333 17.1993 31.5167 19.2453 31.0419 20.0317H22.6168C21.7449 20.0317 22.9137 20.0995 22.0186 20.0317C21.5906 19.9989 21.1701 19.9348 20.7653 19.8167C20.3895 19.7062 20.0348 19.559 19.7017 19.377C21.0016 17.5868 21.9044 15.3531 21.5945 13.2065C21.0094 9.11665 17.0533 7.67928 14.9977 12.1545C13.4635 15.5004 14.8157 18.8229 15.953 20.0317H3.01714L0.806641 23.6837C5.94266 23.6856 9.2147 23.6837 15.5227 23.6837L17.3982 21.2193C17.6578 21.4441 18.3381 23.6837 22.9277 23.6837H30.2554C30.8578 22.6878 31.6135 21.4383 32.4039 20.1287C33.1285 18.9275 33.8821 17.6779 34.5776 16.5251C34.8238 16.1144 35.0639 15.7173 35.2926 15.3395H33.8396ZM18.4404 18.4489C18.3882 18.3985 18.3359 18.3463 18.2816 18.2919C17.0222 17.0133 15.4144 14.3301 16.6 12.8462C18.0918 10.9747 21.5015 14.6364 18.8202 18.0208C18.7117 18.1757 18.5838 18.3172 18.4404 18.4489Z" fill="#F3F3F3"/>
<path d="M56.1133 13.0326C55.6677 12.2537 52.723 7.91213 52.723 7.91213L49.9602 10.6127C51.0839 12.1878 52.5989 14.4449 53.8136 16.3512C54.6468 17.6571 54.0171 20.0342 51.7098 20.0342C50.7274 20.0342 50.1307 20.0244 49.8149 20.0244C48.7842 20.0244 48.5267 19.945 47.403 19.3794C48.7048 17.5892 49.6057 15.3555 49.2977 13.2088C48.9451 10.7447 47.3681 9.24307 45.7214 9.41755C45.3436 9.4582 44.9638 9.5861 44.5918 9.81065C43.8944 10.2331 43.2338 10.9945 42.7009 12.1569C41.1338 15.5704 42.705 18.8078 43.4547 20.0361C43.4547 20.0361 38.8673 20.0244 38.0283 20.0244C35.5446 20.0244 33.5899 18.3042 34.5759 16.5276C34.634 16.4249 34.6787 16.3087 34.7465 16.2001C34.8415 16.0354 35.0332 15.7003 35.1843 15.3419H35.1745C35.0215 15.6887 34.8374 16.0046 34.7523 16.144C33.9657 17.4498 33.183 18.7556 32.3945 20.0593C32.3965 20.0825 32.4003 20.1076 32.4022 20.131C32.4603 20.6309 32.6037 21.1249 32.8576 21.5956C33.5105 22.8123 34.6186 23.6531 36.0194 23.6861C37.4548 23.7189 42.6894 23.688 42.6894 23.688L44.4388 21.2217C44.6326 21.7235 46.1534 23.6861 48.4065 23.6861C49.5942 23.6861 50.8592 23.688 51.8162 23.688L55.7123 18.403C56.9948 16.3242 57.175 14.9001 56.1133 13.0326ZM46.1436 18.4513C46.0895 18.4011 46.0372 18.3487 45.9849 18.2944C44.7237 17.0157 43.1176 14.3325 44.3032 12.8485C45.7931 10.9771 49.2047 14.6387 46.5235 18.0231C46.4149 18.1781 46.2871 18.3196 46.1436 18.4513Z" fill="#F3F3F3"/>
<path d="M38.0059 13.5646L35.5495 11.164C35.3845 11.0027 35.3845 10.7414 35.5495 10.5801L38.0059 8.17948C38.1709 8.01822 38.4385 8.01822 38.6035 8.17948L41.0599 10.5801C41.2249 10.7414 41.2249 11.0027 41.0599 11.164L38.6035 13.5646C38.4385 13.7259 38.1709 13.7259 38.0059 13.5646Z" fill="#F3F3F3"/>
<path d="M32.7733 13.6152L30.3506 11.1925C30.1878 11.0297 30.1878 10.766 30.3506 10.6033L32.7733 8.18051C32.9361 8.01775 33.2 8.01775 33.3628 8.18051L35.7856 10.6033C35.9483 10.766 35.9483 11.0297 35.7856 11.1925L33.3628 13.6152C33.2 13.778 32.9361 13.778 32.7733 13.6152Z" fill="#F3F3F3"/>
<path d="M17.9802 6.87911L16.201 5.09993C16.0814 4.98041 16.0814 4.78673 16.201 4.66704L17.9802 2.88803C18.0997 2.76851 18.2935 2.76851 18.413 2.88803L20.192 4.66704C20.3117 4.78673 20.3117 4.98041 20.192 5.09993L18.413 6.87911C18.2935 6.99863 18.0997 6.99863 17.9802 6.87911Z" fill="#F3F3F3"/>
</svg>
