<svg width="152" height="64" viewBox="0 0 152 64" fill="none" xmlns="http://www.w3.org/2000/svg">
<path d="M96.2312 2.9725L94.1646 6.61083C94.0834 6.75402 94.1221 6.93549 94.2521 7.03709C96.9249 9.12633 98.3086 11.0161 97.1277 12.646C94.5744 16.1757 90.6856 11.2316 93.0839 6.52577L93.1179 6.46906C93.1406 6.41991 93.167 6.37076 93.1935 6.32162C93.1973 6.31028 93.2011 6.30649 93.2048 6.29515C93.2086 6.29515 93.2086 6.29893 93.2124 6.29893L95.6031 2.03965C95.5994 2.03965 95.5994 2.03586 95.5956 2.03586C95.6258 1.98672 95.6561 1.93757 95.6901 1.88464L95.6939 1.87708C95.967 1.44798 96.3711 0.864832 96.7751 0.284513C96.8583 0.164953 96.7723 0.000497818 96.6263 0.000497818H95.0238C94.9604 0.000497818 94.9033 0.0312138 94.8707 0.0850868C93.5054 2.31893 91.3467 5.84999 91.2909 5.96199C90.6175 7.20674 90.0878 8.52664 89.7513 9.90371C87.4777 19.2734 97.5549 20.1812 100.157 11.9046C101.443 7.80644 99.3658 5.04945 96.7307 2.87799C96.5719 2.74756 96.3328 2.79387 96.2312 2.9725Z" fill="#F3F3F3"/>
<path d="M89.4678 40.7358C86.4716 45.7729 83.1764 51.3143 81.8905 53.4442H59.0715C56.71 53.4442 59.8758 53.628 57.4515 53.4442C56.2923 53.3553 55.1534 53.1819 54.057 52.862C53.0391 52.5628 52.0784 52.164 51.1762 51.6711C54.6969 46.8225 57.142 40.7726 56.3027 34.9586C54.7181 23.8815 44.003 19.9885 38.4357 32.1095C34.2804 41.1715 37.9428 50.1702 41.023 53.4442H5.98701L0 63.3356C13.9106 63.3408 22.7728 63.3356 39.8576 63.3356L44.9373 56.661C45.6405 57.2696 47.4831 63.3356 59.9136 63.3356H79.7602C81.392 60.6381 83.4387 57.2541 85.5794 53.7069C87.542 50.4537 89.5831 47.0692 91.4667 43.9469C92.1335 42.8345 92.7838 41.7589 93.4033 40.7358H89.4678ZM47.76 49.1575C47.6187 49.0209 47.4769 48.8796 47.33 48.7322C43.9189 45.2692 39.5642 38.002 42.7753 33.9827C46.8158 28.9139 56.0508 38.8313 48.7888 47.9978C48.4948 48.4174 48.1484 48.8007 47.76 49.1575Z" fill="#F3F3F3"/>
<path d="M149.8 34.4798C148.593 32.3703 140.617 20.6113 140.617 20.6113L133.134 27.9257C136.178 32.1916 140.281 38.3048 143.571 43.4682C145.828 47.0049 144.122 53.4432 137.873 53.4432C135.212 53.4432 133.596 53.4167 132.741 53.4167C129.949 53.4167 129.252 53.2017 126.208 51.6696C129.734 46.821 132.174 40.7712 131.34 34.9571C130.385 28.283 126.114 24.2161 121.654 24.6886C120.631 24.7987 119.602 25.1451 118.594 25.7533C116.705 26.8974 114.916 28.9597 113.473 32.108C109.228 41.3534 113.484 50.1215 115.514 53.4484C115.514 53.4484 103.09 53.4167 100.817 53.4167C94.0904 53.4167 88.7962 48.7576 91.4667 43.9459C91.6241 43.6676 91.745 43.3528 91.9289 43.0589C92.1859 42.6128 92.7053 41.705 93.1145 40.7343H93.0881C92.6736 41.6738 92.1751 42.5292 91.9445 42.9067C89.8141 46.4435 87.6941 49.9802 85.5586 53.5112C85.5638 53.5741 85.5742 53.6421 85.5794 53.7055C85.7367 55.0594 86.1252 56.3972 86.8128 57.6722C88.5812 60.9675 91.5825 63.2448 95.3763 63.3341C99.2641 63.423 113.442 63.3393 113.442 63.3393L118.18 56.6595C118.705 58.0186 122.824 63.3341 128.926 63.3341C132.143 63.3341 135.569 63.3393 138.161 63.3393L148.714 49.0251C152.187 43.3949 152.675 39.5378 149.8 34.4798ZM122.797 49.156C122.651 49.0199 122.509 48.8782 122.367 48.7312C118.951 45.2677 114.601 38.0005 117.813 33.9813C121.848 28.9125 131.088 38.8299 123.826 47.9963C123.532 48.416 123.186 48.7992 122.797 49.156Z" fill="#F3F3F3"/>
<path d="M100.75 35.9263L94.0969 29.4244C93.65 28.9876 93.65 28.2798 94.0969 27.843L100.75 21.3411C101.197 20.9043 101.922 20.9043 102.369 21.3411L109.021 27.843C109.468 28.2798 109.468 28.9876 109.021 29.4244L102.369 35.9263C101.922 36.3631 101.197 36.3631 100.75 35.9263Z" fill="#F3F3F3"/>
<path d="M86.58 36.0639L80.0181 29.502C79.5773 29.0612 79.5773 28.3469 80.0181 27.9061L86.58 21.3443C87.0208 20.9035 87.7357 20.9035 88.1765 21.3443L94.7384 27.9061C95.1792 28.3469 95.1792 29.0612 94.7384 29.502L88.1765 36.0639C87.7357 36.5047 87.0208 36.5047 86.58 36.0639Z" fill="#F3F3F3"/>
<path d="M46.5108 17.8246L41.692 13.0058C41.3683 12.6821 41.3683 12.1575 41.692 11.8333L46.5108 7.01499C46.8345 6.69128 47.3596 6.69128 47.6833 7.01499L52.5016 11.8333C52.8258 12.1575 52.8258 12.6821 52.5016 13.0058L47.6833 17.8246C47.3596 18.1483 46.8345 18.1483 46.5108 17.8246Z" fill="#F3F3F3"/>
</svg>
